<?xml version="1.0" encoding="UTF-8"?>
<svg xmlns="http://www.w3.org/2000/svg" xmlns:xlink="http://www.w3.org/1999/xlink" width="24pt" height="24pt" viewBox="0 0 24 24" version="1.1">
<defs>
<clipPath id="clip1">
  <path d="M 1 1 L 23 1 L 23 23 L 1 23 Z M 1 1 "/>
</clipPath>
<clipPath id="clip2">
  <path d="M 12 23 C 18.074219 23 23 18.074219 23 12 C 23 5.925781 18.074219 1 12 1 C 5.925781 1 1 5.925781 1 12 C 1 18.074219 5.925781 23 12 23 Z M 12 23 "/>
</clipPath>
<clipPath id="clip3">
  <path d="M 7 7 L 17 7 L 17 17 L 7 17 Z M 7 7 "/>
</clipPath>
<clipPath id="clip4">
  <path d="M 10.734375 16.921875 C 11 16.921875 11.207031 16.808594 11.359375 16.585938 L 16.582031 8.40625 C 16.636719 8.320312 16.675781 8.238281 16.699219 8.167969 C 16.726562 8.09375 16.738281 8.019531 16.738281 7.957031 C 16.738281 7.78125 16.683594 7.636719 16.574219 7.527344 C 16.464844 7.417969 16.324219 7.363281 16.148438 7.363281 C 16.023438 7.363281 15.917969 7.386719 15.835938 7.4375 C 15.753906 7.484375 15.671875 7.570312 15.589844 7.691406 L 10.714844 15.453125 L 8.191406 12.191406 C 8.046875 11.996094 7.867188 11.898438 7.65625 11.898438 C 7.476562 11.898438 7.328125 11.957031 7.214844 12.070312 C 7.097656 12.179688 7.042969 12.324219 7.042969 12.5 C 7.042969 12.574219 7.054688 12.652344 7.085938 12.730469 C 7.113281 12.808594 7.164062 12.886719 7.230469 12.964844 L 10.09375 16.585938 C 10.277344 16.808594 10.492188 16.921875 10.734375 16.921875 Z M 10.734375 16.921875 "/>
</clipPath>
</defs>
<g id="surface1">
<g clip-path="url(#clip1)" clip-rule="nonzero">
<g clip-path="url(#clip2)" clip-rule="evenodd">
<rect x="0" y="0" width="24" height="24" style="fill:rgb(100%,83.529663%,0%);fill-opacity:1;stroke:none;"/>
</g>
</g>
<g clip-path="url(#clip3)" clip-rule="nonzero">
<g clip-path="url(#clip4)" clip-rule="nonzero">
<path style=" stroke:none;fill-rule:nonzero;fill:rgb(7.450867%,7.450867%,7.450867%);fill-opacity:1;" d="M 2.042969 2.363281 L 21.738281 2.363281 L 21.738281 21.921875 L 2.042969 21.921875 Z M 2.042969 2.363281 "/>
</g>
</g>
</g>
</svg>
