<?xml version="1.0" encoding="UTF-8"?>
<svg xmlns="http://www.w3.org/2000/svg" xmlns:xlink="http://www.w3.org/1999/xlink" width="240pt" height="240pt" viewBox="0 0 240 240" version="1.1">
<defs>
<filter id="alpha" filterUnits="objectBoundingBox" x="0%" y="0%" width="100%" height="100%">
  <feColorMatrix type="matrix" in="SourceGraphic" values="0 0 0 0 1 0 0 0 0 1 0 0 0 0 1 0 0 0 1 0"/>
</filter>
<clipPath id="clip1">
  <rect x="0" y="0" width="240" height="240"/>
</clipPath>
<g id="surface7" clip-path="url(#clip1)">
<rect x="0" y="0" width="240" height="240" style="fill:rgb(0%,0%,0%);fill-opacity:1;stroke:none;"/>
</g>
<mask id="mask0">
  <g filter="url(#alpha)">
<use xlink:href="#surface7"/>
  </g>
</mask>
<clipPath id="clip3">
  <path d="M 158 81 L 174 81 L 174 128 L 158 128 Z M 158 81 "/>
</clipPath>
<clipPath id="clip4">
  <path d="M 158.585938 81.738281 L 161.679688 126.90625 C 161.679688 127.453125 163.496094 127.90625 165.859375 127.90625 C 166.316406 127.90625 166.769531 127.90625 167.132812 127.816406 C 168.769531 127.722656 169.953125 127.269531 169.953125 126.90625 L 172.953125 83.015625 L 173.042969 81.738281 Z M 158.585938 81.738281 "/>
</clipPath>
<clipPath id="clip2">
  <rect x="0" y="0" width="240" height="240"/>
</clipPath>
<g id="surface6" clip-path="url(#clip2)">
<path style=" stroke:none;fill-rule:nonzero;fill:rgb(9.01947%,9.411621%,10.195923%);fill-opacity:1;" d="M 239.515625 173.164062 L 239.515625 194.835938 C 239.425781 201.574219 235.332031 207.675781 229.332031 210.316406 C 227.238281 211.226562 225.058594 211.679688 222.601562 211.679688 L 109.300781 211.679688 C 108.9375 211.679688 108.574219 211.679688 108.210938 211.679688 C 106.664062 211.589844 105.210938 211.316406 103.9375 210.863281 C 102.117188 210.222656 100.480469 209.40625 99.027344 208.222656 C 98.753906 208.039062 98.480469 207.765625 98.207031 207.582031 C 94.84375 204.667969 92.660156 200.390625 92.386719 195.835938 C 92.296875 195.109375 92.296875 194.289062 92.386719 193.46875 L 92.386719 173.164062 L 98.480469 173.164062 L 101.117188 165.148438 C 103.390625 158.136719 109.9375 153.402344 117.210938 153.402344 L 214.601562 153.402344 C 221.964844 153.402344 228.421875 158.136719 230.695312 165.148438 L 233.332031 173.164062 Z M 239.515625 173.164062 "/>
<path style=" stroke:none;fill-rule:nonzero;fill:rgb(31.764221%,31.764221%,31.764221%);fill-opacity:1;" d="M 239.515625 173.164062 L 240.015625 173.164062 L 240.015625 172.664062 L 239.515625 172.664062 Z M 239.515625 194.835938 L 240.015625 194.84375 L 240.015625 194.835938 Z M 229.332031 210.316406 L 229.53125 210.773438 Z M 108.210938 211.679688 L 108.179688 212.179688 L 108.210938 212.179688 Z M 103.9375 210.863281 L 104.105469 210.390625 L 104.101562 210.390625 Z M 99.027344 208.222656 L 99.339844 207.832031 L 99.324219 207.820312 L 99.304688 207.804688 Z M 98.207031 207.582031 L 97.878906 207.960938 L 97.902344 207.980469 L 97.929688 208 Z M 92.386719 195.835938 L 92.886719 195.808594 L 92.886719 195.792969 L 92.882812 195.773438 Z M 92.386719 193.46875 L 92.882812 193.523438 L 92.886719 193.496094 L 92.886719 193.46875 Z M 92.386719 173.164062 L 92.386719 172.664062 L 91.886719 172.664062 L 91.886719 173.164062 Z M 98.480469 173.164062 L 98.480469 173.664062 L 98.84375 173.664062 L 98.957031 173.320312 Z M 101.117188 165.148438 L 101.59375 165.304688 Z M 230.695312 165.148438 L 230.21875 165.304688 Z M 233.332031 173.164062 L 232.859375 173.320312 L 232.96875 173.664062 L 233.332031 173.664062 Z M 239.015625 173.164062 L 239.015625 194.835938 L 240.015625 194.835938 L 240.015625 173.164062 Z M 239.015625 194.828125 C 238.925781 201.371094 234.953125 207.296875 229.128906 209.859375 L 229.53125 210.773438 C 235.714844 208.054688 239.921875 201.777344 240.015625 194.84375 Z M 229.132812 209.855469 C 227.105469 210.738281 224.992188 211.179688 222.601562 211.179688 L 222.601562 212.179688 C 225.125 212.179688 227.375 211.714844 229.53125 210.773438 Z M 222.601562 211.179688 L 109.300781 211.179688 L 109.300781 212.179688 L 222.601562 212.179688 Z M 109.300781 211.179688 C 109.296875 211.179688 109.296875 211.179688 109.296875 211.179688 C 109.296875 211.179688 109.296875 211.179688 109.292969 211.179688 C 109.292969 211.179688 109.292969 211.179688 109.289062 211.179688 C 109.289062 211.179688 109.285156 211.179688 109.285156 211.179688 C 109.285156 211.179688 109.28125 211.179688 109.28125 211.179688 C 109.277344 211.179688 109.277344 211.179688 109.277344 211.179688 C 109.273438 211.179688 109.273438 211.179688 109.273438 211.179688 C 109.273438 211.179688 109.273438 211.179688 109.269531 211.179688 C 109.269531 211.179688 109.269531 211.179688 109.265625 211.179688 C 109.265625 211.179688 109.261719 211.179688 109.261719 211.179688 C 109.261719 211.179688 109.257812 211.179688 109.257812 211.179688 C 109.253906 211.179688 109.253906 211.179688 109.253906 211.179688 C 109.25 211.179688 109.25 211.179688 109.25 211.179688 C 109.25 211.179688 109.25 211.179688 109.246094 211.179688 C 109.246094 211.179688 109.246094 211.179688 109.242188 211.179688 C 109.242188 211.179688 109.238281 211.179688 109.238281 211.179688 C 109.238281 211.179688 109.234375 211.179688 109.234375 211.179688 C 109.230469 211.179688 109.230469 211.179688 109.230469 211.179688 C 109.226562 211.179688 109.226562 211.179688 109.226562 211.179688 C 109.226562 211.179688 109.226562 211.179688 109.222656 211.179688 C 109.222656 211.179688 109.222656 211.179688 109.21875 211.179688 C 109.21875 211.179688 109.214844 211.179688 109.214844 211.179688 C 109.214844 211.179688 109.210938 211.179688 109.210938 211.179688 C 109.207031 211.179688 109.207031 211.179688 109.207031 211.179688 C 109.203125 211.179688 109.203125 211.179688 109.203125 211.179688 C 109.203125 211.179688 109.203125 211.179688 109.199219 211.179688 C 109.199219 211.179688 109.199219 211.179688 109.195312 211.179688 C 109.195312 211.179688 109.191406 211.179688 109.191406 211.179688 C 109.191406 211.179688 109.1875 211.179688 109.1875 211.179688 C 109.183594 211.179688 109.183594 211.179688 109.183594 211.179688 C 109.179688 211.179688 109.179688 211.179688 109.179688 211.179688 C 109.179688 211.179688 109.179688 211.179688 109.175781 211.179688 C 109.175781 211.179688 109.175781 211.179688 109.171875 211.179688 C 109.171875 211.179688 109.167969 211.179688 109.167969 211.179688 C 109.167969 211.179688 109.164062 211.179688 109.164062 211.179688 C 109.160156 211.179688 109.160156 211.179688 109.160156 211.179688 C 109.15625 211.179688 109.15625 211.179688 109.15625 211.179688 C 109.15625 211.179688 109.15625 211.179688 109.152344 211.179688 C 109.152344 211.179688 109.152344 211.179688 109.148438 211.179688 C 109.148438 211.179688 109.144531 211.179688 109.144531 211.179688 C 109.144531 211.179688 109.140625 211.179688 109.140625 211.179688 C 109.136719 211.179688 109.136719 211.179688 109.136719 211.179688 C 109.132812 211.179688 109.132812 211.179688 109.132812 211.179688 C 109.132812 211.179688 109.132812 211.179688 109.128906 211.179688 C 109.128906 211.179688 109.128906 211.179688 109.125 211.179688 C 109.125 211.179688 109.121094 211.179688 109.121094 211.179688 C 109.121094 211.179688 109.117188 211.179688 109.117188 211.179688 C 109.113281 211.179688 109.113281 211.179688 109.113281 211.179688 C 109.109375 211.179688 109.109375 211.179688 109.109375 211.179688 C 109.109375 211.179688 109.109375 211.179688 109.105469 211.179688 C 109.105469 211.179688 109.105469 211.179688 109.101562 211.179688 C 109.101562 211.179688 109.097656 211.179688 109.097656 211.179688 C 109.097656 211.179688 109.09375 211.179688 109.09375 211.179688 C 109.089844 211.179688 109.089844 211.179688 109.089844 211.179688 C 109.085938 211.179688 109.085938 211.179688 109.085938 211.179688 C 109.085938 211.179688 109.085938 211.179688 109.082031 211.179688 C 109.082031 211.179688 109.082031 211.179688 109.078125 211.179688 C 109.078125 211.179688 109.074219 211.179688 109.074219 211.179688 C 109.074219 211.179688 109.070312 211.179688 109.070312 211.179688 C 109.066406 211.179688 109.066406 211.179688 109.066406 211.179688 C 109.0625 211.179688 109.0625 211.179688 109.0625 211.179688 C 109.0625 211.179688 109.0625 211.179688 109.058594 211.179688 C 109.058594 211.179688 109.058594 211.179688 109.054688 211.179688 C 109.054688 211.179688 109.050781 211.179688 109.050781 211.179688 C 109.050781 211.179688 109.046875 211.179688 109.046875 211.179688 C 109.042969 211.179688 109.042969 211.179688 109.042969 211.179688 C 109.039062 211.179688 109.039062 211.179688 109.039062 211.179688 C 109.039062 211.179688 109.039062 211.179688 109.035156 211.179688 C 109.035156 211.179688 109.035156 211.179688 109.03125 211.179688 C 109.03125 211.179688 109.027344 211.179688 109.027344 211.179688 C 109.027344 211.179688 109.023438 211.179688 109.023438 211.179688 C 109.019531 211.179688 109.019531 211.179688 109.019531 211.179688 C 109.015625 211.179688 109.015625 211.179688 109.015625 211.179688 C 109.015625 211.179688 109.015625 211.179688 109.011719 211.179688 C 109.011719 211.179688 109.011719 211.179688 109.007812 211.179688 C 109.007812 211.179688 109.003906 211.179688 109.003906 211.179688 C 109.003906 211.179688 109 211.179688 109 211.179688 C 108.996094 211.179688 108.996094 211.179688 108.996094 211.179688 C 108.992188 211.179688 108.992188 211.179688 108.992188 211.179688 C 108.992188 211.179688 108.992188 211.179688 108.988281 211.179688 C 108.988281 211.179688 108.988281 211.179688 108.984375 211.179688 C 108.984375 211.179688 108.980469 211.179688 108.980469 211.179688 C 108.980469 211.179688 108.976562 211.179688 108.976562 211.179688 C 108.972656 211.179688 108.972656 211.179688 108.972656 211.179688 C 108.96875 211.179688 108.96875 211.179688 108.96875 211.179688 C 108.96875 211.179688 108.96875 211.179688 108.964844 211.179688 C 108.964844 211.179688 108.964844 211.179688 108.960938 211.179688 C 108.960938 211.179688 108.957031 211.179688 108.957031 211.179688 C 108.957031 211.179688 108.953125 211.179688 108.953125 211.179688 C 108.949219 211.179688 108.949219 211.179688 108.949219 211.179688 C 108.945312 211.179688 108.945312 211.179688 108.945312 211.179688 C 108.945312 211.179688 108.945312 211.179688 108.941406 211.179688 C 108.941406 211.179688 108.941406 211.179688 108.9375 211.179688 C 108.9375 211.179688 108.933594 211.179688 108.933594 211.179688 C 108.933594 211.179688 108.929688 211.179688 108.929688 211.179688 C 108.925781 211.179688 108.925781 211.179688 108.925781 211.179688 C 108.921875 211.179688 108.921875 211.179688 108.921875 211.179688 C 108.921875 211.179688 108.921875 211.179688 108.917969 211.179688 C 108.917969 211.179688 108.917969 211.179688 108.914062 211.179688 C 108.914062 211.179688 108.910156 211.179688 108.910156 211.179688 C 108.910156 211.179688 108.90625 211.179688 108.90625 211.179688 C 108.902344 211.179688 108.902344 211.179688 108.902344 211.179688 C 108.898438 211.179688 108.898438 211.179688 108.898438 211.179688 C 108.898438 211.179688 108.898438 211.179688 108.894531 211.179688 C 108.894531 211.179688 108.894531 211.179688 108.890625 211.179688 C 108.890625 211.179688 108.886719 211.179688 108.886719 211.179688 C 108.886719 211.179688 108.882812 211.179688 108.882812 211.179688 C 108.878906 211.179688 108.878906 211.179688 108.878906 211.179688 C 108.875 211.179688 108.875 211.179688 108.875 211.179688 C 108.875 211.179688 108.875 211.179688 108.871094 211.179688 C 108.871094 211.179688 108.871094 211.179688 108.867188 211.179688 C 108.867188 211.179688 108.863281 211.179688 108.863281 211.179688 C 108.863281 211.179688 108.859375 211.179688 108.859375 211.179688 C 108.855469 211.179688 108.855469 211.179688 108.855469 211.179688 C 108.851562 211.179688 108.851562 211.179688 108.851562 211.179688 C 108.851562 211.179688 108.851562 211.179688 108.847656 211.179688 C 108.847656 211.179688 108.847656 211.179688 108.84375 211.179688 C 108.84375 211.179688 108.839844 211.179688 108.839844 211.179688 C 108.839844 211.179688 108.835938 211.179688 108.835938 211.179688 C 108.832031 211.179688 108.832031 211.179688 108.832031 211.179688 C 108.828125 211.179688 108.828125 211.179688 108.828125 211.179688 C 108.828125 211.179688 108.828125 211.179688 108.824219 211.179688 C 108.824219 211.179688 108.824219 211.179688 108.820312 211.179688 C 108.820312 211.179688 108.816406 211.179688 108.816406 211.179688 C 108.816406 211.179688 108.8125 211.179688 108.8125 211.179688 C 108.808594 211.179688 108.808594 211.179688 108.808594 211.179688 C 108.804688 211.179688 108.804688 211.179688 108.804688 211.179688 C 108.804688 211.179688 108.804688 211.179688 108.800781 211.179688 C 108.800781 211.179688 108.800781 211.179688 108.796875 211.179688 C 108.796875 211.179688 108.792969 211.179688 108.792969 211.179688 C 108.792969 211.179688 108.789062 211.179688 108.789062 211.179688 C 108.785156 211.179688 108.785156 211.179688 108.785156 211.179688 C 108.78125 211.179688 108.78125 211.179688 108.78125 211.179688 C 108.78125 211.179688 108.78125 211.179688 108.777344 211.179688 C 108.777344 211.179688 108.777344 211.179688 108.773438 211.179688 C 108.773438 211.179688 108.769531 211.179688 108.769531 211.179688 C 108.769531 211.179688 108.765625 211.179688 108.765625 211.179688 C 108.761719 211.179688 108.761719 211.179688 108.761719 211.179688 C 108.757812 211.179688 108.757812 211.179688 108.757812 211.179688 C 108.757812 211.179688 108.757812 211.179688 108.753906 211.179688 C 108.753906 211.179688 108.753906 211.179688 108.75 211.179688 C 108.75 211.179688 108.746094 211.179688 108.746094 211.179688 C 108.746094 211.179688 108.742188 211.179688 108.742188 211.179688 C 108.738281 211.179688 108.738281 211.179688 108.738281 211.179688 C 108.734375 211.179688 108.734375 211.179688 108.734375 211.179688 C 108.734375 211.179688 108.734375 211.179688 108.730469 211.179688 C 108.730469 211.179688 108.730469 211.179688 108.726562 211.179688 C 108.726562 211.179688 108.722656 211.179688 108.722656 211.179688 C 108.722656 211.179688 108.71875 211.179688 108.71875 211.179688 C 108.714844 211.179688 108.714844 211.179688 108.714844 211.179688 C 108.710938 211.179688 108.710938 211.179688 108.710938 211.179688 C 108.710938 211.179688 108.710938 211.179688 108.707031 211.179688 C 108.707031 211.179688 108.707031 211.179688 108.703125 211.179688 C 108.703125 211.179688 108.699219 211.179688 108.699219 211.179688 C 108.699219 211.179688 108.695312 211.179688 108.695312 211.179688 C 108.691406 211.179688 108.691406 211.179688 108.691406 211.179688 C 108.6875 211.179688 108.6875 211.179688 108.6875 211.179688 C 108.6875 211.179688 108.6875 211.179688 108.683594 211.179688 C 108.683594 211.179688 108.683594 211.179688 108.679688 211.179688 C 108.679688 211.179688 108.675781 211.179688 108.675781 211.179688 C 108.675781 211.179688 108.671875 211.179688 108.671875 211.179688 C 108.667969 211.179688 108.667969 211.179688 108.667969 211.179688 C 108.664062 211.179688 108.664062 211.179688 108.664062 211.179688 C 108.664062 211.179688 108.664062 211.179688 108.660156 211.179688 C 108.660156 211.179688 108.660156 211.179688 108.65625 211.179688 C 108.65625 211.179688 108.652344 211.179688 108.652344 211.179688 C 108.652344 211.179688 108.648438 211.179688 108.648438 211.179688 C 108.644531 211.179688 108.644531 211.179688 108.644531 211.179688 C 108.640625 211.179688 108.640625 211.179688 108.640625 211.179688 C 108.640625 211.179688 108.640625 211.179688 108.636719 211.179688 C 108.636719 211.179688 108.636719 211.179688 108.632812 211.179688 C 108.632812 211.179688 108.628906 211.179688 108.628906 211.179688 C 108.628906 211.179688 108.625 211.179688 108.625 211.179688 C 108.621094 211.179688 108.621094 211.179688 108.621094 211.179688 C 108.617188 211.179688 108.617188 211.179688 108.617188 211.179688 C 108.617188 211.179688 108.617188 211.179688 108.613281 211.179688 C 108.613281 211.179688 108.609375 211.179688 108.609375 211.179688 C 108.609375 211.179688 108.605469 211.179688 108.605469 211.179688 C 108.601562 211.179688 108.601562 211.179688 108.601562 211.179688 C 108.597656 211.179688 108.597656 211.179688 108.597656 211.179688 C 108.597656 211.179688 108.597656 211.179688 108.59375 211.179688 C 108.59375 211.179688 108.59375 211.179688 108.589844 211.179688 C 108.589844 211.179688 108.585938 211.179688 108.585938 211.179688 C 108.585938 211.179688 108.582031 211.179688 108.582031 211.179688 C 108.578125 211.179688 108.578125 211.179688 108.578125 211.179688 C 108.574219 211.179688 108.574219 211.179688 108.574219 211.179688 C 108.574219 211.179688 108.574219 211.179688 108.570312 211.179688 C 108.570312 211.179688 108.570312 211.179688 108.566406 211.179688 C 108.566406 211.179688 108.5625 211.179688 108.5625 211.179688 C 108.5625 211.179688 108.558594 211.179688 108.558594 211.179688 C 108.554688 211.179688 108.554688 211.179688 108.554688 211.179688 C 108.550781 211.179688 108.550781 211.179688 108.550781 211.179688 C 108.550781 211.179688 108.550781 211.179688 108.546875 211.179688 C 108.546875 211.179688 108.546875 211.179688 108.542969 211.179688 C 108.542969 211.179688 108.539062 211.179688 108.539062 211.179688 C 108.539062 211.179688 108.535156 211.179688 108.535156 211.179688 C 108.53125 211.179688 108.53125 211.179688 108.53125 211.179688 C 108.527344 211.179688 108.527344 211.179688 108.527344 211.179688 C 108.527344 211.179688 108.527344 211.179688 108.523438 211.179688 C 108.523438 211.179688 108.523438 211.179688 108.519531 211.179688 C 108.519531 211.179688 108.515625 211.179688 108.515625 211.179688 C 108.515625 211.179688 108.511719 211.179688 108.511719 211.179688 C 108.507812 211.179688 108.507812 211.179688 108.507812 211.179688 C 108.503906 211.179688 108.503906 211.179688 108.503906 211.179688 C 108.503906 211.179688 108.503906 211.179688 108.5 211.179688 C 108.5 211.179688 108.5 211.179688 108.496094 211.179688 C 108.496094 211.179688 108.492188 211.179688 108.492188 211.179688 C 108.492188 211.179688 108.488281 211.179688 108.488281 211.179688 C 108.484375 211.179688 108.484375 211.179688 108.484375 211.179688 C 108.480469 211.179688 108.480469 211.179688 108.480469 211.179688 C 108.480469 211.179688 108.480469 211.179688 108.476562 211.179688 C 108.476562 211.179688 108.476562 211.179688 108.472656 211.179688 C 108.472656 211.179688 108.46875 211.179688 108.46875 211.179688 C 108.46875 211.179688 108.464844 211.179688 108.464844 211.179688 C 108.460938 211.179688 108.460938 211.179688 108.460938 211.179688 C 108.457031 211.179688 108.457031 211.179688 108.457031 211.179688 C 108.457031 211.179688 108.457031 211.179688 108.453125 211.179688 C 108.453125 211.179688 108.453125 211.179688 108.449219 211.179688 C 108.449219 211.179688 108.445312 211.179688 108.445312 211.179688 C 108.445312 211.179688 108.441406 211.179688 108.441406 211.179688 C 108.4375 211.179688 108.4375 211.179688 108.4375 211.179688 C 108.433594 211.179688 108.433594 211.179688 108.433594 211.179688 C 108.433594 211.179688 108.433594 211.179688 108.429688 211.179688 C 108.429688 211.179688 108.429688 211.179688 108.425781 211.179688 C 108.425781 211.179688 108.421875 211.179688 108.421875 211.179688 C 108.421875 211.179688 108.417969 211.179688 108.417969 211.179688 C 108.414062 211.179688 108.414062 211.179688 108.414062 211.179688 C 108.410156 211.179688 108.410156 211.179688 108.410156 211.179688 C 108.410156 211.179688 108.410156 211.179688 108.40625 211.179688 C 108.40625 211.179688 108.40625 211.179688 108.402344 211.179688 C 108.402344 211.179688 108.398438 211.179688 108.398438 211.179688 C 108.398438 211.179688 108.394531 211.179688 108.394531 211.179688 C 108.390625 211.179688 108.390625 211.179688 108.390625 211.179688 C 108.386719 211.179688 108.386719 211.179688 108.386719 211.179688 C 108.386719 211.179688 108.386719 211.179688 108.382812 211.179688 C 108.382812 211.179688 108.382812 211.179688 108.378906 211.179688 C 108.378906 211.179688 108.375 211.179688 108.375 211.179688 C 108.375 211.179688 108.371094 211.179688 108.371094 211.179688 C 108.367188 211.179688 108.367188 211.179688 108.367188 211.179688 C 108.363281 211.179688 108.363281 211.179688 108.363281 211.179688 C 108.363281 211.179688 108.363281 211.179688 108.359375 211.179688 C 108.359375 211.179688 108.359375 211.179688 108.355469 211.179688 C 108.355469 211.179688 108.351562 211.179688 108.351562 211.179688 C 108.351562 211.179688 108.347656 211.179688 108.347656 211.179688 C 108.34375 211.179688 108.34375 211.179688 108.34375 211.179688 C 108.339844 211.179688 108.339844 211.179688 108.339844 211.179688 C 108.339844 211.179688 108.339844 211.179688 108.335938 211.179688 C 108.335938 211.179688 108.335938 211.179688 108.332031 211.179688 C 108.332031 211.179688 108.328125 211.179688 108.328125 211.179688 C 108.328125 211.179688 108.324219 211.179688 108.324219 211.179688 C 108.320312 211.179688 108.320312 211.179688 108.320312 211.179688 C 108.316406 211.179688 108.316406 211.179688 108.316406 211.179688 C 108.316406 211.179688 108.316406 211.179688 108.3125 211.179688 C 108.3125 211.179688 108.3125 211.179688 108.308594 211.179688 C 108.308594 211.179688 108.304688 211.179688 108.304688 211.179688 C 108.304688 211.179688 108.300781 211.179688 108.300781 211.179688 C 108.296875 211.179688 108.296875 211.179688 108.296875 211.179688 C 108.292969 211.179688 108.292969 211.179688 108.292969 211.179688 C 108.292969 211.179688 108.292969 211.179688 108.289062 211.179688 C 108.289062 211.179688 108.289062 211.179688 108.285156 211.179688 C 108.285156 211.179688 108.28125 211.179688 108.28125 211.179688 C 108.28125 211.179688 108.277344 211.179688 108.277344 211.179688 C 108.273438 211.179688 108.273438 211.179688 108.273438 211.179688 C 108.269531 211.179688 108.269531 211.179688 108.269531 211.179688 C 108.269531 211.179688 108.269531 211.179688 108.265625 211.179688 C 108.265625 211.179688 108.265625 211.179688 108.261719 211.179688 C 108.261719 211.179688 108.257812 211.179688 108.257812 211.179688 C 108.257812 211.179688 108.253906 211.179688 108.253906 211.179688 C 108.25 211.179688 108.25 211.179688 108.25 211.179688 C 108.246094 211.179688 108.246094 211.179688 108.246094 211.179688 C 108.246094 211.179688 108.246094 211.179688 108.242188 211.179688 C 108.242188 211.179688 108.242188 211.179688 108.238281 211.179688 C 108.238281 211.179688 108.234375 211.179688 108.234375 211.179688 C 108.234375 211.179688 108.230469 211.179688 108.230469 211.179688 C 108.226562 211.179688 108.226562 211.179688 108.226562 211.179688 C 108.222656 211.179688 108.222656 211.179688 108.222656 211.179688 C 108.222656 211.179688 108.222656 211.179688 108.21875 211.179688 C 108.21875 211.179688 108.21875 211.179688 108.214844 211.179688 C 108.214844 211.179688 108.210938 211.179688 108.210938 211.179688 L 108.210938 212.179688 C 108.210938 212.179688 108.214844 212.179688 108.214844 212.179688 C 108.21875 212.179688 108.21875 212.179688 108.21875 212.179688 C 108.222656 212.179688 108.222656 212.179688 108.222656 212.179688 C 108.222656 212.179688 108.222656 212.179688 108.226562 212.179688 C 108.226562 212.179688 108.226562 212.179688 108.230469 212.179688 C 108.230469 212.179688 108.234375 212.179688 108.234375 212.179688 C 108.234375 212.179688 108.238281 212.179688 108.238281 212.179688 C 108.242188 212.179688 108.242188 212.179688 108.242188 212.179688 C 108.246094 212.179688 108.246094 212.179688 108.246094 212.179688 C 108.246094 212.179688 108.246094 212.179688 108.25 212.179688 C 108.25 212.179688 108.25 212.179688 108.253906 212.179688 C 108.253906 212.179688 108.257812 212.179688 108.257812 212.179688 C 108.257812 212.179688 108.261719 212.179688 108.261719 212.179688 C 108.265625 212.179688 108.265625 212.179688 108.265625 212.179688 C 108.269531 212.179688 108.269531 212.179688 108.269531 212.179688 C 108.269531 212.179688 108.269531 212.179688 108.273438 212.179688 C 108.273438 212.179688 108.273438 212.179688 108.277344 212.179688 C 108.277344 212.179688 108.28125 212.179688 108.28125 212.179688 C 108.28125 212.179688 108.285156 212.179688 108.285156 212.179688 C 108.289062 212.179688 108.289062 212.179688 108.289062 212.179688 C 108.292969 212.179688 108.292969 212.179688 108.292969 212.179688 C 108.292969 212.179688 108.292969 212.179688 108.296875 212.179688 C 108.296875 212.179688 108.296875 212.179688 108.300781 212.179688 C 108.300781 212.179688 108.304688 212.179688 108.304688 212.179688 C 108.304688 212.179688 108.308594 212.179688 108.308594 212.179688 C 108.3125 212.179688 108.3125 212.179688 108.3125 212.179688 C 108.316406 212.179688 108.316406 212.179688 108.316406 212.179688 C 108.316406 212.179688 108.316406 212.179688 108.320312 212.179688 C 108.320312 212.179688 108.320312 212.179688 108.324219 212.179688 C 108.324219 212.179688 108.328125 212.179688 108.328125 212.179688 C 108.328125 212.179688 108.332031 212.179688 108.332031 212.179688 C 108.335938 212.179688 108.335938 212.179688 108.335938 212.179688 C 108.339844 212.179688 108.339844 212.179688 108.339844 212.179688 C 108.339844 212.179688 108.339844 212.179688 108.34375 212.179688 C 108.34375 212.179688 108.34375 212.179688 108.347656 212.179688 C 108.347656 212.179688 108.351562 212.179688 108.351562 212.179688 C 108.351562 212.179688 108.355469 212.179688 108.355469 212.179688 C 108.359375 212.179688 108.359375 212.179688 108.359375 212.179688 C 108.363281 212.179688 108.363281 212.179688 108.363281 212.179688 C 108.363281 212.179688 108.363281 212.179688 108.367188 212.179688 C 108.367188 212.179688 108.367188 212.179688 108.371094 212.179688 C 108.371094 212.179688 108.375 212.179688 108.375 212.179688 C 108.375 212.179688 108.378906 212.179688 108.378906 212.179688 C 108.382812 212.179688 108.382812 212.179688 108.382812 212.179688 C 108.386719 212.179688 108.386719 212.179688 108.386719 212.179688 C 108.386719 212.179688 108.386719 212.179688 108.390625 212.179688 C 108.390625 212.179688 108.390625 212.179688 108.394531 212.179688 C 108.394531 212.179688 108.398438 212.179688 108.398438 212.179688 C 108.398438 212.179688 108.402344 212.179688 108.402344 212.179688 C 108.40625 212.179688 108.40625 212.179688 108.40625 212.179688 C 108.410156 212.179688 108.410156 212.179688 108.410156 212.179688 C 108.410156 212.179688 108.410156 212.179688 108.414062 212.179688 C 108.414062 212.179688 108.414062 212.179688 108.417969 212.179688 C 108.417969 212.179688 108.421875 212.179688 108.421875 212.179688 C 108.421875 212.179688 108.425781 212.179688 108.425781 212.179688 C 108.429688 212.179688 108.429688 212.179688 108.429688 212.179688 C 108.433594 212.179688 108.433594 212.179688 108.433594 212.179688 C 108.433594 212.179688 108.433594 212.179688 108.4375 212.179688 C 108.4375 212.179688 108.4375 212.179688 108.441406 212.179688 C 108.441406 212.179688 108.445312 212.179688 108.445312 212.179688 C 108.445312 212.179688 108.449219 212.179688 108.449219 212.179688 C 108.453125 212.179688 108.453125 212.179688 108.453125 212.179688 C 108.457031 212.179688 108.457031 212.179688 108.457031 212.179688 C 108.457031 212.179688 108.457031 212.179688 108.460938 212.179688 C 108.460938 212.179688 108.460938 212.179688 108.464844 212.179688 C 108.464844 212.179688 108.46875 212.179688 108.46875 212.179688 C 108.46875 212.179688 108.472656 212.179688 108.472656 212.179688 C 108.476562 212.179688 108.476562 212.179688 108.476562 212.179688 C 108.480469 212.179688 108.480469 212.179688 108.480469 212.179688 C 108.480469 212.179688 108.480469 212.179688 108.484375 212.179688 C 108.484375 212.179688 108.484375 212.179688 108.488281 212.179688 C 108.488281 212.179688 108.492188 212.179688 108.492188 212.179688 C 108.492188 212.179688 108.496094 212.179688 108.496094 212.179688 C 108.5 212.179688 108.5 212.179688 108.5 212.179688 C 108.503906 212.179688 108.503906 212.179688 108.503906 212.179688 C 108.503906 212.179688 108.503906 212.179688 108.507812 212.179688 C 108.507812 212.179688 108.507812 212.179688 108.511719 212.179688 C 108.511719 212.179688 108.515625 212.179688 108.515625 212.179688 C 108.515625 212.179688 108.519531 212.179688 108.519531 212.179688 C 108.523438 212.179688 108.523438 212.179688 108.523438 212.179688 C 108.527344 212.179688 108.527344 212.179688 108.527344 212.179688 C 108.527344 212.179688 108.527344 212.179688 108.53125 212.179688 C 108.53125 212.179688 108.53125 212.179688 108.535156 212.179688 C 108.535156 212.179688 108.539062 212.179688 108.539062 212.179688 C 108.539062 212.179688 108.542969 212.179688 108.542969 212.179688 C 108.546875 212.179688 108.546875 212.179688 108.546875 212.179688 C 108.550781 212.179688 108.550781 212.179688 108.550781 212.179688 C 108.550781 212.179688 108.550781 212.179688 108.554688 212.179688 C 108.554688 212.179688 108.554688 212.179688 108.558594 212.179688 C 108.558594 212.179688 108.5625 212.179688 108.5625 212.179688 C 108.5625 212.179688 108.566406 212.179688 108.566406 212.179688 C 108.570312 212.179688 108.570312 212.179688 108.570312 212.179688 C 108.574219 212.179688 108.574219 212.179688 108.574219 212.179688 C 108.574219 212.179688 108.574219 212.179688 108.578125 212.179688 C 108.578125 212.179688 108.578125 212.179688 108.582031 212.179688 C 108.582031 212.179688 108.585938 212.179688 108.585938 212.179688 C 108.585938 212.179688 108.589844 212.179688 108.589844 212.179688 C 108.59375 212.179688 108.59375 212.179688 108.59375 212.179688 C 108.597656 212.179688 108.597656 212.179688 108.597656 212.179688 C 108.597656 212.179688 108.597656 212.179688 108.601562 212.179688 C 108.601562 212.179688 108.601562 212.179688 108.605469 212.179688 C 108.605469 212.179688 108.609375 212.179688 108.609375 212.179688 C 108.609375 212.179688 108.613281 212.179688 108.613281 212.179688 C 108.617188 212.179688 108.617188 212.179688 108.617188 212.179688 C 108.617188 212.179688 108.617188 212.179688 108.621094 212.179688 C 108.621094 212.179688 108.621094 212.179688 108.625 212.179688 C 108.625 212.179688 108.628906 212.179688 108.628906 212.179688 C 108.628906 212.179688 108.632812 212.179688 108.632812 212.179688 C 108.636719 212.179688 108.636719 212.179688 108.636719 212.179688 C 108.640625 212.179688 108.640625 212.179688 108.640625 212.179688 C 108.640625 212.179688 108.640625 212.179688 108.644531 212.179688 C 108.644531 212.179688 108.644531 212.179688 108.648438 212.179688 C 108.648438 212.179688 108.652344 212.179688 108.652344 212.179688 C 108.652344 212.179688 108.65625 212.179688 108.65625 212.179688 C 108.660156 212.179688 108.660156 212.179688 108.660156 212.179688 C 108.664062 212.179688 108.664062 212.179688 108.664062 212.179688 C 108.664062 212.179688 108.664062 212.179688 108.667969 212.179688 C 108.667969 212.179688 108.667969 212.179688 108.671875 212.179688 C 108.671875 212.179688 108.675781 212.179688 108.675781 212.179688 C 108.675781 212.179688 108.679688 212.179688 108.679688 212.179688 C 108.683594 212.179688 108.683594 212.179688 108.683594 212.179688 C 108.6875 212.179688 108.6875 212.179688 108.6875 212.179688 C 108.6875 212.179688 108.6875 212.179688 108.691406 212.179688 C 108.691406 212.179688 108.691406 212.179688 108.695312 212.179688 C 108.695312 212.179688 108.699219 212.179688 108.699219 212.179688 C 108.699219 212.179688 108.703125 212.179688 108.703125 212.179688 C 108.707031 212.179688 108.707031 212.179688 108.707031 212.179688 C 108.710938 212.179688 108.710938 212.179688 108.710938 212.179688 C 108.710938 212.179688 108.710938 212.179688 108.714844 212.179688 C 108.714844 212.179688 108.714844 212.179688 108.71875 212.179688 C 108.71875 212.179688 108.722656 212.179688 108.722656 212.179688 C 108.722656 212.179688 108.726562 212.179688 108.726562 212.179688 C 108.730469 212.179688 108.730469 212.179688 108.730469 212.179688 C 108.734375 212.179688 108.734375 212.179688 108.734375 212.179688 C 108.734375 212.179688 108.734375 212.179688 108.738281 212.179688 C 108.738281 212.179688 108.738281 212.179688 108.742188 212.179688 C 108.742188 212.179688 108.746094 212.179688 108.746094 212.179688 C 108.746094 212.179688 108.75 212.179688 108.75 212.179688 C 108.753906 212.179688 108.753906 212.179688 108.753906 212.179688 C 108.757812 212.179688 108.757812 212.179688 108.757812 212.179688 C 108.757812 212.179688 108.757812 212.179688 108.761719 212.179688 C 108.761719 212.179688 108.761719 212.179688 108.765625 212.179688 C 108.765625 212.179688 108.769531 212.179688 108.769531 212.179688 C 108.769531 212.179688 108.773438 212.179688 108.773438 212.179688 C 108.777344 212.179688 108.777344 212.179688 108.777344 212.179688 C 108.78125 212.179688 108.78125 212.179688 108.78125 212.179688 C 108.78125 212.179688 108.78125 212.179688 108.785156 212.179688 C 108.785156 212.179688 108.785156 212.179688 108.789062 212.179688 C 108.789062 212.179688 108.792969 212.179688 108.792969 212.179688 C 108.792969 212.179688 108.796875 212.179688 108.796875 212.179688 C 108.800781 212.179688 108.800781 212.179688 108.800781 212.179688 C 108.804688 212.179688 108.804688 212.179688 108.804688 212.179688 C 108.804688 212.179688 108.804688 212.179688 108.808594 212.179688 C 108.808594 212.179688 108.808594 212.179688 108.8125 212.179688 C 108.8125 212.179688 108.816406 212.179688 108.816406 212.179688 C 108.816406 212.179688 108.820312 212.179688 108.820312 212.179688 C 108.824219 212.179688 108.824219 212.179688 108.824219 212.179688 C 108.828125 212.179688 108.828125 212.179688 108.828125 212.179688 C 108.828125 212.179688 108.828125 212.179688 108.832031 212.179688 C 108.832031 212.179688 108.832031 212.179688 108.835938 212.179688 C 108.835938 212.179688 108.839844 212.179688 108.839844 212.179688 C 108.839844 212.179688 108.84375 212.179688 108.84375 212.179688 C 108.847656 212.179688 108.847656 212.179688 108.847656 212.179688 C 108.851562 212.179688 108.851562 212.179688 108.851562 212.179688 C 108.851562 212.179688 108.851562 212.179688 108.855469 212.179688 C 108.855469 212.179688 108.855469 212.179688 108.859375 212.179688 C 108.859375 212.179688 108.863281 212.179688 108.863281 212.179688 C 108.863281 212.179688 108.867188 212.179688 108.867188 212.179688 C 108.871094 212.179688 108.871094 212.179688 108.871094 212.179688 C 108.875 212.179688 108.875 212.179688 108.875 212.179688 C 108.875 212.179688 108.875 212.179688 108.878906 212.179688 C 108.878906 212.179688 108.878906 212.179688 108.882812 212.179688 C 108.882812 212.179688 108.886719 212.179688 108.886719 212.179688 C 108.886719 212.179688 108.890625 212.179688 108.890625 212.179688 C 108.894531 212.179688 108.894531 212.179688 108.894531 212.179688 C 108.898438 212.179688 108.898438 212.179688 108.898438 212.179688 C 108.898438 212.179688 108.898438 212.179688 108.902344 212.179688 C 108.902344 212.179688 108.902344 212.179688 108.90625 212.179688 C 108.90625 212.179688 108.910156 212.179688 108.910156 212.179688 C 108.910156 212.179688 108.914062 212.179688 108.914062 212.179688 C 108.917969 212.179688 108.917969 212.179688 108.917969 212.179688 C 108.921875 212.179688 108.921875 212.179688 108.921875 212.179688 C 108.921875 212.179688 108.921875 212.179688 108.925781 212.179688 C 108.925781 212.179688 108.925781 212.179688 108.929688 212.179688 C 108.929688 212.179688 108.933594 212.179688 108.933594 212.179688 C 108.933594 212.179688 108.9375 212.179688 108.9375 212.179688 C 108.941406 212.179688 108.941406 212.179688 108.941406 212.179688 C 108.945312 212.179688 108.945312 212.179688 108.945312 212.179688 C 108.945312 212.179688 108.945312 212.179688 108.949219 212.179688 C 108.949219 212.179688 108.949219 212.179688 108.953125 212.179688 C 108.953125 212.179688 108.957031 212.179688 108.957031 212.179688 C 108.957031 212.179688 108.960938 212.179688 108.960938 212.179688 C 108.964844 212.179688 108.964844 212.179688 108.964844 212.179688 C 108.96875 212.179688 108.96875 212.179688 108.96875 212.179688 C 108.96875 212.179688 108.96875 212.179688 108.972656 212.179688 C 108.972656 212.179688 108.972656 212.179688 108.976562 212.179688 C 108.976562 212.179688 108.980469 212.179688 108.980469 212.179688 C 108.980469 212.179688 108.984375 212.179688 108.984375 212.179688 C 108.988281 212.179688 108.988281 212.179688 108.988281 212.179688 C 108.992188 212.179688 108.992188 212.179688 108.992188 212.179688 C 108.992188 212.179688 108.992188 212.179688 108.996094 212.179688 C 108.996094 212.179688 108.996094 212.179688 109 212.179688 C 109 212.179688 109.003906 212.179688 109.003906 212.179688 C 109.003906 212.179688 109.007812 212.179688 109.007812 212.179688 C 109.011719 212.179688 109.011719 212.179688 109.011719 212.179688 C 109.015625 212.179688 109.015625 212.179688 109.015625 212.179688 C 109.015625 212.179688 109.015625 212.179688 109.019531 212.179688 C 109.019531 212.179688 109.019531 212.179688 109.023438 212.179688 C 109.023438 212.179688 109.027344 212.179688 109.027344 212.179688 C 109.027344 212.179688 109.03125 212.179688 109.03125 212.179688 C 109.035156 212.179688 109.035156 212.179688 109.035156 212.179688 C 109.039062 212.179688 109.039062 212.179688 109.039062 212.179688 C 109.039062 212.179688 109.039062 212.179688 109.042969 212.179688 C 109.042969 212.179688 109.042969 212.179688 109.046875 212.179688 C 109.046875 212.179688 109.050781 212.179688 109.050781 212.179688 C 109.050781 212.179688 109.054688 212.179688 109.054688 212.179688 C 109.058594 212.179688 109.058594 212.179688 109.058594 212.179688 C 109.0625 212.179688 109.0625 212.179688 109.0625 212.179688 C 109.0625 212.179688 109.0625 212.179688 109.066406 212.179688 C 109.066406 212.179688 109.066406 212.179688 109.070312 212.179688 C 109.070312 212.179688 109.074219 212.179688 109.074219 212.179688 C 109.074219 212.179688 109.078125 212.179688 109.078125 212.179688 C 109.082031 212.179688 109.082031 212.179688 109.082031 212.179688 C 109.085938 212.179688 109.085938 212.179688 109.085938 212.179688 C 109.085938 212.179688 109.085938 212.179688 109.089844 212.179688 C 109.089844 212.179688 109.089844 212.179688 109.09375 212.179688 C 109.09375 212.179688 109.097656 212.179688 109.097656 212.179688 C 109.097656 212.179688 109.101562 212.179688 109.101562 212.179688 C 109.105469 212.179688 109.105469 212.179688 109.105469 212.179688 C 109.109375 212.179688 109.109375 212.179688 109.109375 212.179688 C 109.109375 212.179688 109.109375 212.179688 109.113281 212.179688 C 109.113281 212.179688 109.113281 212.179688 109.117188 212.179688 C 109.117188 212.179688 109.121094 212.179688 109.121094 212.179688 C 109.121094 212.179688 109.125 212.179688 109.125 212.179688 C 109.128906 212.179688 109.128906 212.179688 109.128906 212.179688 C 109.132812 212.179688 109.132812 212.179688 109.132812 212.179688 C 109.132812 212.179688 109.132812 212.179688 109.136719 212.179688 C 109.136719 212.179688 109.136719 212.179688 109.140625 212.179688 C 109.140625 212.179688 109.144531 212.179688 109.144531 212.179688 C 109.144531 212.179688 109.148438 212.179688 109.148438 212.179688 C 109.152344 212.179688 109.152344 212.179688 109.152344 212.179688 C 109.15625 212.179688 109.15625 212.179688 109.15625 212.179688 C 109.15625 212.179688 109.15625 212.179688 109.160156 212.179688 C 109.160156 212.179688 109.160156 212.179688 109.164062 212.179688 C 109.164062 212.179688 109.167969 212.179688 109.167969 212.179688 C 109.167969 212.179688 109.171875 212.179688 109.171875 212.179688 C 109.175781 212.179688 109.175781 212.179688 109.175781 212.179688 C 109.179688 212.179688 109.179688 212.179688 109.179688 212.179688 C 109.179688 212.179688 109.179688 212.179688 109.183594 212.179688 C 109.183594 212.179688 109.183594 212.179688 109.1875 212.179688 C 109.1875 212.179688 109.191406 212.179688 109.191406 212.179688 C 109.191406 212.179688 109.195312 212.179688 109.195312 212.179688 C 109.199219 212.179688 109.199219 212.179688 109.199219 212.179688 C 109.203125 212.179688 109.203125 212.179688 109.203125 212.179688 C 109.203125 212.179688 109.203125 212.179688 109.207031 212.179688 C 109.207031 212.179688 109.207031 212.179688 109.210938 212.179688 C 109.210938 212.179688 109.214844 212.179688 109.214844 212.179688 C 109.214844 212.179688 109.21875 212.179688 109.21875 212.179688 C 109.222656 212.179688 109.222656 212.179688 109.222656 212.179688 C 109.226562 212.179688 109.226562 212.179688 109.226562 212.179688 C 109.226562 212.179688 109.226562 212.179688 109.230469 212.179688 C 109.230469 212.179688 109.230469 212.179688 109.234375 212.179688 C 109.234375 212.179688 109.238281 212.179688 109.238281 212.179688 C 109.238281 212.179688 109.242188 212.179688 109.242188 212.179688 C 109.246094 212.179688 109.246094 212.179688 109.246094 212.179688 C 109.25 212.179688 109.25 212.179688 109.25 212.179688 C 109.25 212.179688 109.25 212.179688 109.253906 212.179688 C 109.253906 212.179688 109.253906 212.179688 109.257812 212.179688 C 109.257812 212.179688 109.261719 212.179688 109.261719 212.179688 C 109.261719 212.179688 109.265625 212.179688 109.265625 212.179688 C 109.269531 212.179688 109.269531 212.179688 109.269531 212.179688 C 109.273438 212.179688 109.273438 212.179688 109.273438 212.179688 C 109.273438 212.179688 109.273438 212.179688 109.277344 212.179688 C 109.277344 212.179688 109.277344 212.179688 109.28125 212.179688 C 109.28125 212.179688 109.285156 212.179688 109.285156 212.179688 C 109.285156 212.179688 109.289062 212.179688 109.289062 212.179688 C 109.292969 212.179688 109.292969 212.179688 109.292969 212.179688 C 109.296875 212.179688 109.296875 212.179688 109.296875 212.179688 C 109.296875 212.179688 109.296875 212.179688 109.300781 212.179688 Z M 108.238281 211.183594 C 106.730469 211.09375 105.324219 210.828125 104.105469 210.390625 L 103.769531 211.332031 C 105.09375 211.808594 106.597656 212.085938 108.179688 212.179688 Z M 104.101562 210.390625 C 102.320312 209.765625 100.738281 208.972656 99.339844 207.832031 L 98.710938 208.609375 C 100.222656 209.839844 101.914062 210.683594 103.769531 211.332031 Z M 99.304688 207.804688 C 99.195312 207.730469 99.078125 207.636719 98.9375 207.519531 C 98.804688 207.410156 98.648438 207.277344 98.484375 207.167969 L 97.929688 208 C 98.039062 208.074219 98.15625 208.167969 98.296875 208.285156 C 98.429688 208.394531 98.585938 208.527344 98.75 208.636719 Z M 98.535156 207.207031 C 95.269531 204.378906 93.152344 200.222656 92.886719 195.808594 L 91.890625 195.867188 C 92.167969 200.558594 94.417969 204.960938 97.878906 207.960938 Z M 92.882812 195.773438 C 92.796875 195.089844 92.796875 194.308594 92.882812 193.523438 L 91.890625 193.414062 C 91.796875 194.269531 91.796875 195.128906 91.890625 195.898438 Z M 92.886719 193.46875 L 92.886719 173.164062 L 91.886719 173.164062 L 91.886719 193.46875 Z M 92.386719 173.664062 L 98.480469 173.664062 L 98.480469 172.664062 L 92.386719 172.664062 Z M 98.957031 173.320312 L 101.59375 165.304688 L 100.640625 164.992188 L 98.003906 173.007812 Z M 101.59375 165.304688 C 103.800781 158.5 110.15625 153.902344 117.210938 153.902344 L 117.210938 152.902344 C 109.71875 152.902344 102.980469 157.777344 100.640625 164.996094 Z M 117.210938 153.902344 L 214.601562 153.902344 L 214.601562 152.902344 L 117.210938 152.902344 Z M 214.601562 153.902344 C 221.746094 153.902344 228.011719 158.496094 230.21875 165.304688 L 231.171875 164.996094 C 228.832031 157.78125 222.183594 152.902344 214.601562 152.902344 Z M 230.21875 165.304688 L 232.859375 173.320312 L 233.808594 173.007812 L 231.171875 164.992188 Z M 233.332031 173.664062 L 239.515625 173.664062 L 239.515625 172.664062 L 233.332031 172.664062 Z M 233.332031 173.664062 "/>
<path style=" stroke:none;fill-rule:nonzero;fill:rgb(20.41626%,20.41626%,20.41626%);fill-opacity:1;" d="M 103.574219 179.171875 L 103.574219 210.769531 C 101.84375 210.222656 100.207031 209.3125 98.753906 208.222656 C 98.480469 208.039062 98.207031 207.765625 98.027344 207.582031 C 94.753906 204.667969 92.660156 200.570312 92.386719 196.203125 L 92.386719 174.164062 Z M 103.574219 179.171875 "/>
<path style=" stroke:none;fill-rule:nonzero;fill:rgb(20.41626%,20.41626%,20.41626%);fill-opacity:1;" d="M 227.96875 178.355469 L 227.96875 210.769531 C 229.785156 210.132812 231.421875 209.3125 232.878906 208.128906 C 233.148438 207.949219 233.421875 207.675781 233.695312 207.492188 C 237.058594 204.578125 239.242188 200.300781 239.515625 195.746094 L 239.515625 173.070312 Z M 227.96875 178.355469 "/>
<path style=" stroke:none;fill-rule:nonzero;fill:rgb(9.01947%,9.411621%,10.195923%);fill-opacity:1;" d="M 222.511719 189.007812 L 109.300781 189.007812 C 97.753906 189.007812 89.570312 177.714844 93.207031 166.699219 L 101.117188 142.476562 C 103.390625 135.464844 109.9375 130.730469 117.210938 130.730469 L 214.601562 130.730469 C 221.964844 130.730469 228.421875 135.464844 230.695312 142.476562 L 238.605469 166.699219 C 242.242188 177.714844 234.058594 189.007812 222.511719 189.007812 Z M 222.511719 189.007812 "/>
<path style=" stroke:none;fill-rule:nonzero;fill:rgb(31.764221%,31.764221%,31.764221%);fill-opacity:1;" d="M 93.207031 166.699219 L 93.679688 166.855469 L 93.679688 166.851562 Z M 101.117188 142.476562 L 101.59375 142.632812 L 101.59375 142.628906 Z M 230.695312 142.476562 L 230.21875 142.628906 L 230.21875 142.632812 Z M 238.605469 166.699219 L 238.132812 166.851562 L 238.132812 166.855469 Z M 222.511719 188.507812 L 109.300781 188.507812 L 109.300781 189.507812 L 222.511719 189.507812 Z M 109.300781 188.507812 C 98.09375 188.507812 90.152344 177.550781 93.679688 166.855469 L 92.730469 166.542969 C 88.988281 177.882812 97.410156 189.507812 109.300781 189.507812 Z M 93.679688 166.851562 L 101.59375 142.632812 L 100.640625 142.320312 L 92.730469 166.542969 Z M 101.59375 142.628906 C 103.800781 135.824219 110.15625 131.230469 117.210938 131.230469 L 117.210938 130.230469 C 109.71875 130.230469 102.980469 135.105469 100.640625 142.320312 Z M 117.210938 131.230469 L 214.601562 131.230469 L 214.601562 130.230469 L 117.210938 130.230469 Z M 214.601562 131.230469 C 221.746094 131.230469 228.011719 135.824219 230.21875 142.628906 L 231.171875 142.320312 C 228.832031 135.105469 222.183594 130.230469 214.601562 130.230469 Z M 230.21875 142.632812 L 238.132812 166.851562 L 239.082031 166.542969 L 231.171875 142.320312 Z M 238.132812 166.855469 C 241.664062 177.550781 233.71875 188.507812 222.511719 188.507812 L 222.511719 189.507812 C 234.402344 189.507812 242.824219 177.882812 239.082031 166.542969 Z M 238.132812 166.855469 "/>
<path style=" stroke:none;fill-rule:nonzero;fill:rgb(9.01947%,9.411621%,10.195923%);fill-opacity:1;" d="M 137.855469 127.453125 L 142.21875 152.949219 C 142.21875 155.222656 144.402344 157.320312 147.945312 158.867188 C 152.3125 160.777344 158.675781 161.964844 165.859375 161.964844 C 178.953125 161.964844 189.503906 157.957031 189.503906 152.949219 L 193.867188 127.453125 Z M 137.855469 127.453125 "/>
<path style=" stroke:none;fill-rule:nonzero;fill:rgb(31.764221%,31.764221%,31.764221%);fill-opacity:1;" d="M 137.855469 127.453125 L 137.855469 126.953125 L 137.261719 126.953125 L 137.359375 127.535156 Z M 142.21875 152.949219 L 142.71875 152.949219 L 142.71875 152.90625 L 142.710938 152.863281 Z M 147.945312 158.867188 L 148.148438 158.410156 Z M 189.503906 152.949219 L 189.011719 152.863281 L 189.003906 152.90625 L 189.003906 152.949219 Z M 193.867188 127.453125 L 194.359375 127.535156 L 194.460938 126.953125 L 193.867188 126.953125 Z M 137.359375 127.535156 L 141.726562 153.03125 L 142.710938 152.863281 L 138.347656 127.367188 Z M 141.71875 152.949219 C 141.71875 154.257812 142.347656 155.46875 143.398438 156.53125 C 144.445312 157.59375 145.9375 158.535156 147.746094 159.324219 L 148.148438 158.410156 C 146.410156 157.648438 145.039062 156.769531 144.109375 155.828125 C 143.179688 154.890625 142.71875 153.914062 142.71875 152.949219 Z M 147.746094 159.324219 C 152.191406 161.273438 158.632812 162.464844 165.859375 162.464844 L 165.859375 161.464844 C 158.722656 161.464844 152.429688 160.285156 148.148438 158.410156 Z M 165.859375 162.464844 C 172.453125 162.464844 178.425781 161.457031 182.769531 159.800781 C 184.941406 158.972656 186.730469 157.976562 187.984375 156.839844 C 189.242188 155.703125 190.003906 154.390625 190.003906 152.949219 L 189.003906 152.949219 C 189.003906 154.011719 188.445312 155.074219 187.316406 156.097656 C 186.183594 157.121094 184.515625 158.066406 182.414062 158.867188 C 178.210938 160.46875 172.363281 161.464844 165.859375 161.464844 Z M 189.996094 153.03125 L 194.359375 127.535156 L 193.375 127.367188 L 189.011719 152.863281 Z M 193.867188 126.953125 L 137.855469 126.953125 L 137.855469 127.953125 L 193.867188 127.953125 Z M 193.867188 126.953125 "/>
<path style=" stroke:none;fill-rule:nonzero;fill:rgb(23.529053%,23.529053%,23.529053%);fill-opacity:1;" d="M 193.957031 127.453125 C 193.957031 133.371094 181.410156 138.195312 165.953125 138.195312 C 150.492188 138.195312 137.945312 133.371094 137.945312 127.453125 C 137.945312 121.53125 150.765625 117.527344 165.953125 116.707031 C 181.410156 115.886719 193.957031 121.53125 193.957031 127.453125 Z M 193.957031 127.453125 "/>
<path style=" stroke:none;fill-rule:nonzero;fill:rgb(31.764221%,31.764221%,31.764221%);fill-opacity:1;" d="M 165.953125 116.707031 L 165.925781 116.207031 Z M 193.457031 127.453125 C 193.457031 128.742188 192.777344 130.027344 191.421875 131.257812 C 190.066406 132.484375 188.074219 133.617188 185.574219 134.578125 C 180.574219 136.496094 173.636719 137.695312 165.953125 137.695312 L 165.953125 138.695312 C 173.726562 138.695312 180.792969 137.484375 185.929688 135.511719 C 188.5 134.523438 190.613281 133.339844 192.09375 131.996094 C 193.570312 130.65625 194.457031 129.121094 194.457031 127.453125 Z M 165.953125 137.695312 C 158.269531 137.695312 151.328125 136.496094 146.332031 134.578125 C 143.828125 133.617188 141.839844 132.484375 140.484375 131.257812 C 139.125 130.027344 138.445312 128.742188 138.445312 127.453125 L 137.445312 127.453125 C 137.445312 129.121094 138.332031 130.65625 139.8125 131.996094 C 141.292969 133.339844 143.402344 134.523438 145.972656 135.511719 C 151.113281 137.484375 158.175781 138.695312 165.953125 138.695312 Z M 138.445312 127.453125 C 138.445312 126.171875 139.132812 124.9375 140.507812 123.773438 C 141.886719 122.605469 143.902344 121.546875 146.421875 120.636719 C 151.464844 118.816406 158.414062 117.613281 165.980469 117.207031 L 165.925781 116.207031 C 158.304688 116.617188 151.25 117.832031 146.082031 119.695312 C 143.503906 120.628906 141.363281 121.734375 139.863281 123.007812 C 138.359375 124.285156 137.445312 125.773438 137.445312 127.453125 Z M 165.976562 117.207031 C 173.644531 116.800781 180.574219 117.996094 185.566406 120.015625 C 188.0625 121.023438 190.054688 122.230469 191.410156 123.523438 C 192.773438 124.816406 193.457031 126.15625 193.457031 127.453125 L 194.457031 127.453125 C 194.457031 125.785156 193.578125 124.203125 192.101562 122.796875 C 190.625 121.390625 188.511719 120.128906 185.941406 119.089844 C 180.792969 117.007812 173.714844 115.792969 165.925781 116.207031 Z M 165.976562 117.207031 "/>
<path style=" stroke:none;fill-rule:nonzero;fill:rgb(9.01947%,9.411621%,10.195923%);fill-opacity:1;" d="M 212.507812 180.996094 C 216.375 180.996094 219.511719 178.546875 219.511719 175.53125 C 219.511719 172.511719 216.375 170.066406 212.507812 170.066406 C 208.640625 170.066406 205.507812 172.511719 205.507812 175.53125 C 205.507812 178.546875 208.640625 180.996094 212.507812 180.996094 Z M 212.507812 180.996094 "/>
<path style=" stroke:none;fill-rule:nonzero;fill:rgb(31.764221%,31.764221%,31.764221%);fill-opacity:1;" d="M 219.011719 175.53125 C 219.011719 178.164062 216.222656 180.496094 212.507812 180.496094 L 212.507812 181.496094 C 216.53125 181.496094 220.011719 178.933594 220.011719 175.53125 Z M 212.507812 180.496094 C 208.796875 180.496094 206.007812 178.164062 206.007812 175.53125 L 205.007812 175.53125 C 205.007812 178.933594 208.488281 181.496094 212.507812 181.496094 Z M 206.007812 175.53125 C 206.007812 172.898438 208.796875 170.566406 212.507812 170.566406 L 212.507812 169.566406 C 208.488281 169.566406 205.007812 172.128906 205.007812 175.53125 Z M 212.507812 170.566406 C 216.222656 170.566406 219.011719 172.898438 219.011719 175.53125 L 220.011719 175.53125 C 220.011719 172.128906 216.53125 169.566406 212.507812 169.566406 Z M 212.507812 170.566406 "/>
<path style=" stroke:none;fill-rule:nonzero;fill:rgb(9.01947%,9.411621%,10.195923%);fill-opacity:1;" d="M 158.585938 81.738281 L 161.679688 126.90625 C 161.679688 127.453125 163.496094 127.90625 165.859375 127.90625 C 166.316406 127.90625 166.769531 127.90625 167.132812 127.816406 C 168.769531 127.722656 169.953125 127.269531 169.953125 126.90625 L 172.953125 83.015625 L 173.042969 81.738281 Z M 158.585938 81.738281 "/>
<g clip-path="url(#clip3)" clip-rule="nonzero">
<g clip-path="url(#clip4)" clip-rule="evenodd">
<path style=" stroke:none;fill-rule:nonzero;fill:rgb(31.764221%,31.764221%,31.764221%);fill-opacity:1;" d="M 158.585938 81.738281 L 158.585938 80.738281 L 157.515625 80.738281 L 157.589844 81.808594 Z M 161.679688 126.90625 L 162.679688 126.90625 L 162.679688 126.871094 L 162.675781 126.835938 Z M 167.132812 127.816406 L 167.078125 126.816406 L 166.984375 126.824219 L 166.890625 126.84375 Z M 169.953125 126.90625 L 168.953125 126.835938 L 168.953125 126.90625 Z M 172.953125 83.015625 L 171.957031 82.941406 L 171.957031 82.945312 Z M 173.042969 81.738281 L 174.042969 81.8125 L 174.117188 80.738281 L 173.042969 80.738281 Z M 157.589844 81.808594 L 160.679688 126.972656 L 162.675781 126.835938 L 159.582031 81.671875 Z M 160.679688 126.90625 C 160.679688 127.625 161.25 128.015625 161.5 128.160156 C 161.824219 128.347656 162.230469 128.480469 162.648438 128.582031 C 163.496094 128.789062 164.625 128.90625 165.859375 128.90625 L 165.859375 126.90625 C 164.734375 126.90625 163.769531 126.796875 163.117188 126.640625 C 162.785156 126.558594 162.585938 126.476562 162.5 126.425781 C 162.335938 126.332031 162.679688 126.457031 162.679688 126.90625 Z M 165.859375 128.90625 C 166.277344 128.90625 166.867188 128.914062 167.375 128.785156 L 166.890625 126.84375 C 166.671875 126.902344 166.355469 126.90625 165.859375 126.90625 Z M 167.1875 128.8125 C 168.078125 128.765625 168.875 128.617188 169.480469 128.410156 C 169.777344 128.308594 170.070312 128.179688 170.316406 128.007812 C 170.488281 127.886719 170.953125 127.527344 170.953125 126.90625 L 168.953125 126.90625 C 168.953125 126.671875 169.046875 126.511719 169.097656 126.445312 C 169.148438 126.378906 169.183594 126.359375 169.167969 126.367188 C 169.140625 126.390625 169.039062 126.445312 168.832031 126.515625 C 168.4375 126.652344 167.828125 126.777344 167.078125 126.816406 Z M 170.949219 126.972656 L 173.949219 83.082031 L 171.957031 82.945312 L 168.953125 126.835938 Z M 173.949219 83.085938 L 174.042969 81.8125 L 172.046875 81.667969 L 171.957031 82.941406 Z M 173.042969 80.738281 L 158.585938 80.738281 L 158.585938 82.738281 L 173.042969 82.738281 Z M 173.042969 80.738281 "/>
</g>
</g>
<path style=" stroke:none;fill-rule:nonzero;fill:rgb(57.254028%,11.764526%,17.254639%);fill-opacity:1;" d="M 165.132812 85.929688 C 181.203125 85.929688 194.230469 72.882812 194.230469 56.789062 C 194.230469 40.695312 181.203125 27.648438 165.132812 27.648438 C 149.0625 27.648438 136.035156 40.695312 136.035156 56.789062 C 136.035156 72.882812 149.0625 85.929688 165.132812 85.929688 Z M 165.132812 85.929688 "/>
<path style=" stroke:none;fill-rule:nonzero;fill:rgb(93.72406%,69.018555%,60.391235%);fill-opacity:1;" d="M 74.109375 136.464844 C 70.292969 139.015625 76.65625 146.027344 79.65625 149.304688 C 82.65625 152.582031 91.113281 160.140625 91.113281 160.140625 L 94.386719 157.410156 C 94.386719 157.410156 90.386719 148.214844 82.476562 138.652344 C 81.65625 137.648438 78.019531 133.824219 74.109375 136.464844 Z M 74.109375 136.464844 "/>
<path style=" stroke:none;fill-rule:nonzero;fill:rgb(31.764221%,31.764221%,31.764221%);fill-opacity:1;" d="M 14.550781 189.371094 C 13.640625 188.097656 11.457031 186.730469 10.457031 186.367188 C 9.183594 185.820312 6.183594 185.730469 5.910156 186.550781 C 5.09375 189.007812 4 192.011719 2.820312 194.472656 C 1.636719 196.929688 -1.089844 201.117188 -0.363281 204.398438 C 0.0898438 206.398438 8.820312 206.582031 8.820312 205.761719 C 8.914062 201.117188 3.273438 202.300781 5.820312 200.84375 C 12.09375 197.292969 12.1875 196.019531 12.1875 196.019531 C 12.1875 196.019531 14.730469 189.644531 14.550781 189.371094 Z M 14.550781 189.371094 "/>
<path style=" stroke:none;fill-rule:nonzero;fill:rgb(93.72406%,69.018555%,60.391235%);fill-opacity:1;" d="M 63.199219 111.0625 C 59.105469 112.246094 59.5625 115.703125 61.015625 119.621094 C 62.472656 123.535156 73.292969 142.292969 74.566406 142.75 C 75.839844 143.203125 81.386719 140.746094 81.476562 138.742188 C 81.566406 136.832031 73.746094 119.710938 72.019531 116.707031 C 70.292969 113.703125 67.925781 109.605469 63.199219 111.0625 Z M 63.199219 111.0625 "/>
<path style=" stroke:none;fill-rule:nonzero;fill:rgb(94.116211%,77.645874%,70.587158%);fill-opacity:1;" d="M 60.46875 92.300781 C 60.46875 92.300781 55.46875 100.679688 54.558594 100.953125 C 51.832031 101.863281 43.828125 100.316406 41.285156 102.683594 C 38.191406 105.597656 40.921875 125.449219 39.917969 131.277344 C 39.011719 137.105469 33.191406 144.386719 30.191406 149.304688 C 27.28125 154.222656 41.191406 167.246094 41.738281 167.425781 C 42.375 167.699219 49.648438 164.875 51.285156 163.511719 C 53.015625 162.234375 57.378906 148.394531 58.742188 144.933594 C 60.105469 141.472656 65.746094 129.820312 66.199219 129.089844 C 69.382812 124.265625 69.65625 119.621094 69.925781 118.4375 C 70.199219 117.253906 71.019531 115.429688 70.746094 114.519531 C 70.199219 112.699219 64.835938 108.328125 65.015625 107.601562 C 65.199219 106.871094 67.472656 96.492188 67.472656 96.492188 Z M 60.46875 92.300781 "/>
<path style=" stroke:none;fill-rule:nonzero;fill:rgb(84.70459%,22.744751%,21.176147%);fill-opacity:1;" d="M 66.5625 111.425781 C 68.65625 111.699219 72.382812 115.066406 73.382812 117.707031 C 74.835938 121.441406 79.292969 130.910156 79.292969 130.910156 C 79.292969 130.910156 77.203125 133.277344 73.65625 134.554688 C 69.5625 136.011719 66.472656 135.375 66.472656 135.375 C 66.472656 135.375 60.378906 120.894531 60.015625 117.707031 C 59.835938 115.523438 61.5625 110.789062 66.5625 111.425781 Z M 66.5625 111.425781 "/>
<path style=" stroke:none;fill-rule:nonzero;fill:rgb(84.70459%,22.744751%,21.176147%);fill-opacity:1;" d="M 54.558594 100.953125 C 54.558594 100.953125 59.835938 108.785156 62.105469 109.058594 C 64.378906 109.332031 65.109375 107.601562 65.109375 107.601562 C 65.109375 107.601562 70.5625 112.789062 70.835938 114.519531 C 71.109375 116.25 70.292969 119.53125 70.109375 120.714844 C 69.925781 121.988281 68.019531 127.269531 65.746094 131.640625 C 64.378906 134.191406 63.109375 137.742188 60.835938 142.113281 C 58.925781 145.84375 55.46875 155.679688 55.46875 155.679688 C 55.46875 155.679688 51.742188 154.3125 46.101562 151.765625 C 39.554688 148.757812 31.464844 146.664062 31.191406 146.300781 C 30.371094 144.753906 38.101562 133.550781 38.375 132.277344 C 38.554688 131.003906 38.375 108.054688 39.285156 105.414062 C 40.191406 102.773438 41.828125 101.136719 44.195312 100.953125 C 46.558594 100.769531 54.558594 100.953125 54.558594 100.953125 Z M 54.558594 100.953125 "/>
<path style=" stroke:none;fill-rule:nonzero;fill:rgb(84.70459%,22.744751%,21.176147%);fill-opacity:1;" d="M 46.101562 101.589844 C 46.101562 101.589844 45.195312 104.6875 46.101562 108.328125 C 47.011719 111.972656 55.652344 124.539062 58.199219 125.902344 C 66.109375 130.09375 55.832031 141.566406 55.832031 141.566406 C 55.832031 141.566406 46.285156 142.929688 44.648438 143.933594 C 43.011719 145.027344 58.199219 148.304688 58.199219 148.304688 C 58.199219 148.304688 31.644531 148.394531 31.097656 146.117188 C 30.554688 143.84375 38.285156 133.917969 38.285156 131.824219 C 38.285156 128.636719 38.375 108.148438 39.101562 106.050781 C 39.921875 103.957031 46.101562 101.589844 46.101562 101.589844 Z M 46.101562 101.589844 "/>
<path style=" stroke:none;fill-rule:nonzero;fill:rgb(93.72406%,69.018555%,60.391235%);fill-opacity:1;" d="M 66.472656 102.046875 L 59.5625 94.03125 L 55.925781 99.496094 C 55.925781 99.496094 56.925781 101.773438 58.195312 102.410156 C 59.46875 103.046875 66.472656 102.046875 66.472656 102.046875 Z M 66.472656 102.046875 "/>
<path style=" stroke:none;fill-rule:nonzero;fill:rgb(94.116211%,77.645874%,70.587158%);fill-opacity:1;" d="M 76.566406 86.65625 C 75.566406 83.378906 70.199219 77.824219 64.652344 80.375 C 59.105469 82.921875 58.105469 88.023438 58.289062 91.664062 C 58.46875 94.488281 59.105469 96.398438 61.015625 99.039062 C 61.378906 99.585938 65.652344 103.046875 66.746094 103.320312 C 67.472656 103.503906 70.746094 99.222656 70.835938 99.039062 C 71.019531 98.769531 71.472656 98.585938 71.746094 98.3125 C 72.199219 97.855469 73.65625 94.398438 74.019531 94.125 C 74.382812 93.757812 77.746094 90.480469 76.566406 86.65625 Z M 76.566406 86.65625 "/>
<path style=" stroke:none;fill-rule:nonzero;fill:rgb(23.529053%,23.529053%,23.529053%);fill-opacity:1;" d="M 76.480469 89.722656 C 76.480469 89.722656 74.023438 85.625 67.296875 87.261719 C 65.839844 87.628906 65.476562 92.542969 65.113281 92.726562 C 64.660156 92.910156 63.113281 87.902344 63.019531 88.445312 C 61.839844 93.636719 59.019531 95.277344 58.65625 95.09375 C 57.382812 94.457031 57.203125 86.171875 61.929688 82.074219 C 66.566406 78.066406 72.113281 80.523438 73.207031 81.527344 C 74.207031 82.4375 77.933594 84.894531 76.480469 89.722656 Z M 76.480469 89.722656 "/>
<path style=" stroke:none;fill-rule:nonzero;fill:rgb(94.116211%,77.645874%,70.587158%);fill-opacity:1;" d="M 64.652344 90.390625 C 64.289062 92.03125 63.378906 94.03125 62.5625 93.851562 C 61.652344 93.667969 61.289062 92.121094 61.652344 90.480469 C 62.015625 88.84375 63.015625 87.660156 63.925781 87.839844 C 64.746094 88.113281 65.015625 88.75 64.652344 90.390625 Z M 64.652344 90.390625 "/>
<path style=" stroke:none;fill-rule:nonzero;fill:rgb(31.764221%,31.764221%,31.764221%);fill-opacity:1;" d="M 75.203125 199.570312 C 74.203125 200.84375 73.472656 203.304688 73.292969 204.488281 C 73.109375 205.855469 73.746094 208.765625 74.65625 208.949219 C 78.019531 209.679688 79.839844 209.679688 83.023438 209.953125 C 85.75 210.132812 86.566406 212.136719 93.480469 212.5 C 95.480469 212.59375 99.027344 212.683594 99.117188 211.863281 C 99.570312 207.039062 92.660156 209.132812 90.660156 206.945312 C 85.660156 201.574219 84.476562 201.117188 84.476562 201.117188 C 84.476562 201.117188 75.382812 199.296875 75.203125 199.570312 Z M 75.203125 199.570312 "/>
<path style=" stroke:none;fill-rule:nonzero;fill:rgb(9.803772%,9.803772%,9.803772%);fill-opacity:1;" d="M 75.203125 199.570312 L 78.203125 194.015625 L 85.296875 199.480469 L 84.476562 201.117188 Z M 75.203125 199.570312 "/>
<path style=" stroke:none;fill-rule:nonzero;fill:rgb(9.01947%,9.411621%,10.195923%);fill-opacity:1;" d="M 86.023438 157.136719 C 85.839844 156.589844 85.566406 156.042969 85.113281 155.589844 C 84.386719 154.679688 83.476562 154.132812 82.386719 153.859375 C 82.203125 153.769531 82.019531 153.675781 81.839844 153.675781 C 78.929688 152.582031 69.65625 151.671875 58.015625 150.761719 C 57.195312 150.671875 58.195312 148.394531 58.195312 148.394531 C 59.378906 147.757812 60.015625 144.207031 61.378906 141.109375 C 64.5625 133.734375 68.382812 123.171875 68.382812 123.171875 L 55.289062 118.984375 L 39.648438 147.667969 C 38.28125 147.574219 37.101562 147.484375 36.011719 147.394531 L 38.28125 132.1875 L 38.375 121.351562 C 38.375 121.351562 34.554688 135.007812 31.828125 143.203125 C 31.644531 143.84375 30.28125 146.027344 31.097656 146.664062 C 30.464844 147.941406 24.28125 160.777344 33.738281 165.695312 C 34.375 166.0625 35.191406 166.332031 36.101562 166.605469 C 37.554688 174.164062 40.101562 183.179688 42.738281 190.554688 C 33.371094 188.371094 11.640625 186.457031 11.640625 186.457031 C 11.640625 186.457031 9.457031 190.101562 9.546875 191.921875 C 9.546875 193.832031 11.277344 197.386719 11.277344 197.386719 C 11.277344 197.386719 23.1875 199.660156 33.828125 202.667969 C 44.832031 205.761719 55.105469 209.222656 57.925781 204.214844 C 58.742188 203.210938 59.199219 201.757812 59.199219 199.660156 C 59.289062 196.019531 57.832031 181.175781 56.289062 168.519531 C 62.015625 168.429688 67.835938 167.882812 72.65625 167.246094 C 72.382812 168.335938 72.199219 169.519531 72.109375 170.613281 C 71.382812 179.71875 73.199219 203.484375 73.199219 203.484375 C 73.199219 203.484375 77.203125 204.398438 79.019531 204.125 C 82.019531 203.667969 86.023438 202.210938 86.023438 202.210938 C 86.023438 202.210938 85.296875 189.917969 86.386719 178.898438 C 87.386719 170.066406 88.023438 161.691406 86.023438 157.136719 Z M 86.023438 157.136719 "/>
<path style=" stroke:none;fill-rule:nonzero;fill:rgb(31.764221%,31.764221%,31.764221%);fill-opacity:1;" d="M 86.023438 157.136719 L 85.546875 157.292969 L 85.554688 157.316406 L 85.566406 157.339844 Z M 85.113281 155.589844 L 84.722656 155.902344 L 84.738281 155.921875 L 84.757812 155.941406 Z M 82.386719 153.859375 L 82.160156 154.304688 L 82.210938 154.332031 L 82.265625 154.34375 Z M 81.839844 153.675781 L 81.664062 154.144531 L 81.75 154.175781 L 81.839844 154.175781 Z M 58.015625 150.761719 L 57.960938 151.257812 L 57.96875 151.261719 L 57.976562 151.261719 Z M 58.195312 148.394531 L 57.960938 147.953125 L 57.808594 148.035156 L 57.738281 148.195312 Z M 61.378906 141.109375 L 61.835938 141.3125 L 61.839844 141.308594 Z M 68.382812 123.171875 L 68.851562 123.339844 L 69.027344 122.855469 L 68.535156 122.695312 Z M 55.289062 118.984375 L 55.441406 118.507812 L 55.046875 118.378906 L 54.847656 118.742188 Z M 39.648438 147.667969 L 39.613281 148.164062 L 39.933594 148.1875 L 40.085938 147.90625 Z M 36.011719 147.394531 L 35.515625 147.320312 L 35.4375 147.847656 L 35.96875 147.890625 Z M 38.28125 132.1875 L 38.777344 132.261719 L 38.78125 132.226562 L 38.78125 132.191406 Z M 38.375 121.351562 L 38.875 121.355469 L 38.90625 117.59375 L 37.890625 121.214844 Z M 31.828125 143.203125 L 31.351562 143.046875 L 31.347656 143.058594 L 31.347656 143.066406 Z M 31.097656 146.664062 L 31.546875 146.886719 L 31.730469 146.523438 L 31.40625 146.269531 Z M 33.738281 165.695312 L 33.984375 165.261719 L 33.96875 165.253906 Z M 36.101562 166.605469 L 36.589844 166.511719 L 36.535156 166.214844 L 36.246094 166.128906 Z M 42.738281 190.554688 L 42.625 191.042969 L 43.519531 191.25 L 43.210938 190.386719 Z M 11.640625 186.457031 L 11.683594 185.960938 L 11.371094 185.933594 L 11.210938 186.199219 Z M 9.546875 191.921875 L 10.046875 191.921875 L 10.046875 191.898438 Z M 11.277344 197.386719 L 10.828125 197.605469 L 10.9375 197.828125 L 11.183594 197.875 Z M 33.828125 202.667969 L 33.691406 203.148438 Z M 57.925781 204.214844 L 57.539062 203.898438 L 57.511719 203.929688 L 57.488281 203.96875 Z M 59.199219 199.660156 L 58.699219 199.648438 L 58.699219 199.660156 Z M 56.289062 168.519531 L 56.28125 168.019531 L 55.722656 168.027344 L 55.792969 168.578125 Z M 72.65625 167.246094 L 73.140625 167.367188 L 73.320312 166.652344 L 72.589844 166.75 Z M 72.109375 170.613281 L 71.613281 170.570312 L 71.613281 170.574219 Z M 73.199219 203.484375 L 72.703125 203.523438 L 72.730469 203.890625 L 73.089844 203.972656 Z M 79.019531 204.125 L 79.09375 204.617188 Z M 86.023438 202.210938 L 86.195312 202.679688 L 86.542969 202.554688 L 86.523438 202.183594 Z M 86.386719 178.898438 L 85.890625 178.84375 L 85.886719 178.851562 Z M 86.496094 156.980469 C 86.300781 156.386719 85.992188 155.761719 85.46875 155.234375 L 84.757812 155.941406 C 85.140625 156.324219 85.382812 156.792969 85.546875 157.292969 Z M 85.503906 155.277344 C 84.703125 154.273438 83.695312 153.671875 82.507812 153.375 L 82.265625 154.34375 C 83.257812 154.59375 84.070312 155.082031 84.722656 155.902344 Z M 82.609375 153.410156 C 82.457031 153.335938 82.164062 153.175781 81.839844 153.175781 L 81.839844 154.175781 C 81.878906 154.175781 81.949219 154.199219 82.160156 154.304688 Z M 82.015625 153.207031 C 80.492188 152.636719 77.382812 152.132812 73.257812 151.65625 C 69.113281 151.175781 63.875 150.71875 58.054688 150.265625 L 57.976562 151.261719 C 63.796875 151.714844 69.015625 152.171875 73.144531 152.648438 C 77.296875 153.128906 80.277344 153.625 81.664062 154.144531 Z M 58.070312 150.265625 C 58.105469 150.269531 58.160156 150.296875 58.195312 150.34375 C 58.214844 150.371094 58.203125 150.375 58.195312 150.308594 C 58.183594 150.171875 58.214844 149.945312 58.285156 149.667969 C 58.351562 149.402344 58.445312 149.132812 58.523438 148.929688 C 58.558594 148.828125 58.59375 148.742188 58.617188 148.683594 C 58.628906 148.65625 58.640625 148.632812 58.644531 148.617188 C 58.648438 148.609375 58.652344 148.605469 58.652344 148.601562 C 58.652344 148.597656 58.65625 148.597656 58.65625 148.597656 C 58.65625 148.597656 58.65625 148.597656 58.195312 148.394531 C 57.738281 148.195312 57.738281 148.195312 57.738281 148.195312 C 57.738281 148.199219 57.738281 148.199219 57.734375 148.203125 C 57.734375 148.207031 57.730469 148.214844 57.726562 148.222656 C 57.71875 148.242188 57.707031 148.269531 57.695312 148.300781 C 57.667969 148.367188 57.628906 148.464844 57.585938 148.574219 C 57.5 148.800781 57.394531 149.105469 57.316406 149.421875 C 57.238281 149.722656 57.171875 150.085938 57.199219 150.402344 C 57.214844 150.558594 57.257812 150.753906 57.382812 150.925781 C 57.519531 151.117188 57.722656 151.234375 57.960938 151.257812 Z M 58.433594 148.835938 C 58.867188 148.601562 59.1875 148.144531 59.445312 147.65625 C 59.710938 147.152344 59.953125 146.519531 60.191406 145.839844 C 60.679688 144.457031 61.164062 142.835938 61.835938 141.3125 L 60.921875 140.910156 C 60.230469 142.480469 59.714844 144.183594 59.25 145.507812 C 59.011719 146.183594 58.789062 146.753906 58.558594 147.191406 C 58.320312 147.644531 58.117188 147.871094 57.960938 147.953125 Z M 61.839844 141.308594 C 63.433594 137.609375 65.1875 133.117188 66.542969 129.550781 C 67.21875 127.769531 67.796875 126.21875 68.203125 125.109375 C 68.410156 124.558594 68.570312 124.113281 68.679688 123.8125 C 68.738281 123.660156 68.777344 123.542969 68.808594 123.460938 C 68.824219 123.421875 68.832031 123.394531 68.839844 123.371094 C 68.84375 123.363281 68.847656 123.355469 68.847656 123.347656 C 68.851562 123.347656 68.851562 123.34375 68.851562 123.34375 C 68.851562 123.339844 68.851562 123.339844 68.382812 123.171875 C 67.910156 123 67.910156 123 67.910156 123 C 67.910156 123 67.910156 123 67.910156 123.003906 C 67.910156 123.003906 67.910156 123.007812 67.910156 123.007812 C 67.90625 123.015625 67.902344 123.023438 67.902344 123.03125 C 67.894531 123.050781 67.882812 123.082031 67.867188 123.121094 C 67.839844 123.199219 67.796875 123.316406 67.742188 123.46875 C 67.632812 123.769531 67.46875 124.210938 67.265625 124.765625 C 66.859375 125.867188 66.28125 127.417969 65.605469 129.199219 C 64.253906 132.757812 62.507812 137.234375 60.921875 140.914062 Z M 68.535156 122.695312 L 55.441406 118.507812 L 55.136719 119.460938 L 68.230469 123.648438 Z M 54.847656 118.742188 L 39.207031 147.425781 L 40.085938 147.90625 L 55.726562 119.222656 Z M 39.679688 147.167969 C 38.320312 147.078125 37.140625 146.984375 36.050781 146.894531 L 35.96875 147.890625 C 37.0625 147.984375 38.246094 148.074219 39.613281 148.164062 Z M 36.503906 147.46875 L 38.777344 132.261719 L 37.789062 132.113281 L 35.515625 147.320312 Z M 38.78125 132.191406 L 38.875 121.355469 L 37.875 121.347656 L 37.78125 132.183594 Z M 38.375 121.351562 C 37.890625 121.214844 37.890625 121.214844 37.890625 121.214844 C 37.890625 121.21875 37.890625 121.21875 37.890625 121.21875 C 37.890625 121.21875 37.890625 121.222656 37.890625 121.226562 C 37.886719 121.230469 37.886719 121.242188 37.882812 121.253906 C 37.875 121.28125 37.863281 121.320312 37.847656 121.371094 C 37.820312 121.472656 37.777344 121.625 37.722656 121.816406 C 37.613281 122.207031 37.453125 122.773438 37.253906 123.476562 C 36.851562 124.882812 36.292969 126.847656 35.644531 129.0625 C 34.347656 133.503906 32.714844 138.957031 31.351562 143.046875 L 32.300781 143.363281 C 33.667969 139.253906 35.308594 133.785156 36.601562 129.34375 C 37.25 127.125 37.816406 125.160156 38.214844 123.75 C 38.417969 123.042969 38.574219 122.480469 38.6875 122.089844 C 38.742188 121.894531 38.785156 121.742188 38.8125 121.640625 C 38.828125 121.589844 38.835938 121.550781 38.84375 121.523438 C 38.847656 121.511719 38.851562 121.5 38.851562 121.496094 C 38.855469 121.492188 38.855469 121.488281 38.855469 121.488281 C 38.855469 121.488281 38.855469 121.484375 38.855469 121.484375 C 38.855469 121.484375 38.855469 121.484375 38.375 121.351562 Z M 31.347656 143.066406 C 31.3125 143.179688 31.21875 143.386719 31.066406 143.714844 C 30.925781 144.019531 30.757812 144.386719 30.621094 144.761719 C 30.484375 145.128906 30.363281 145.539062 30.34375 145.917969 C 30.324219 146.296875 30.402344 146.753906 30.792969 147.058594 L 31.40625 146.269531 C 31.386719 146.253906 31.328125 146.199219 31.339844 145.96875 C 31.351562 145.742188 31.433594 145.445312 31.558594 145.109375 C 31.679688 144.777344 31.835938 144.441406 31.976562 144.132812 C 32.105469 143.851562 32.25 143.550781 32.308594 143.34375 Z M 30.652344 146.441406 C 30.328125 147.09375 28.589844 150.683594 28.136719 154.757812 C 27.910156 156.800781 28 158.992188 28.777344 161.007812 C 29.5625 163.035156 31.03125 164.855469 33.507812 166.140625 L 33.96875 165.253906 C 31.710938 164.082031 30.410156 162.449219 29.710938 160.648438 C 29.011719 158.832031 28.914062 156.8125 29.128906 154.871094 C 29.5625 150.976562 31.234375 147.511719 31.546875 146.886719 Z M 33.488281 166.128906 C 34.179688 166.527344 35.050781 166.8125 35.957031 167.085938 L 36.246094 166.128906 C 35.332031 165.855469 34.566406 165.59375 33.984375 165.261719 Z M 35.609375 166.703125 C 37.070312 174.289062 39.625 183.328125 42.269531 190.722656 L 43.210938 190.386719 C 40.578125 183.03125 38.042969 174.042969 36.589844 166.511719 Z M 42.851562 190.070312 C 38.136719 188.96875 30.335938 187.941406 23.734375 187.191406 C 20.429688 186.8125 17.417969 186.507812 15.230469 186.292969 C 14.136719 186.1875 13.25 186.101562 12.636719 186.046875 C 12.332031 186.019531 12.09375 185.996094 11.929688 185.980469 C 11.851562 185.976562 11.789062 185.96875 11.746094 185.964844 C 11.726562 185.964844 11.710938 185.960938 11.699219 185.960938 C 11.695312 185.960938 11.691406 185.960938 11.6875 185.960938 C 11.6875 185.960938 11.6875 185.960938 11.683594 185.960938 C 11.683594 185.960938 11.683594 185.960938 11.640625 186.457031 C 11.597656 186.957031 11.597656 186.957031 11.597656 186.957031 C 11.597656 186.957031 11.597656 186.957031 11.601562 186.957031 C 11.601562 186.957031 11.605469 186.957031 11.613281 186.957031 C 11.621094 186.957031 11.636719 186.960938 11.660156 186.960938 C 11.699219 186.964844 11.761719 186.96875 11.839844 186.976562 C 12.003906 186.992188 12.242188 187.015625 12.546875 187.042969 C 13.15625 187.097656 14.042969 187.183594 15.132812 187.289062 C 17.316406 187.5 20.320312 187.808594 23.621094 188.183594 C 30.226562 188.9375 37.972656 189.957031 42.625 191.042969 Z M 11.640625 186.457031 C 11.210938 186.199219 11.210938 186.199219 11.210938 186.199219 C 11.210938 186.199219 11.210938 186.203125 11.210938 186.203125 C 11.207031 186.207031 11.207031 186.210938 11.203125 186.214844 C 11.199219 186.21875 11.191406 186.230469 11.183594 186.246094 C 11.167969 186.273438 11.144531 186.316406 11.113281 186.367188 C 11.050781 186.472656 10.964844 186.625 10.863281 186.816406 C 10.65625 187.191406 10.378906 187.714844 10.109375 188.292969 C 9.835938 188.875 9.5625 189.519531 9.359375 190.148438 C 9.164062 190.761719 9.023438 191.398438 9.050781 191.945312 L 10.046875 191.898438 C 10.03125 191.53125 10.128906 191.03125 10.3125 190.453125 C 10.496094 189.882812 10.75 189.277344 11.011719 188.71875 C 11.273438 188.164062 11.539062 187.660156 11.738281 187.296875 C 11.839844 187.113281 11.921875 186.96875 11.980469 186.867188 C 12.007812 186.816406 12.03125 186.777344 12.046875 186.753906 C 12.054688 186.738281 12.058594 186.730469 12.0625 186.722656 C 12.066406 186.71875 12.066406 186.71875 12.066406 186.714844 C 12.066406 186.714844 12.070312 186.714844 12.070312 186.714844 C 12.070312 186.714844 12.070312 186.714844 11.640625 186.457031 Z M 9.046875 191.921875 C 9.046875 192.980469 9.515625 194.425781 9.945312 195.550781 C 10.164062 196.125 10.386719 196.636719 10.550781 197.003906 C 10.632812 197.1875 10.699219 197.335938 10.75 197.441406 C 10.773438 197.492188 10.792969 197.53125 10.804688 197.558594 C 10.8125 197.574219 10.816406 197.585938 10.820312 197.59375 C 10.824219 197.59375 10.824219 197.597656 10.824219 197.601562 C 10.824219 197.601562 10.824219 197.601562 10.828125 197.601562 C 10.828125 197.605469 10.828125 197.605469 10.828125 197.605469 C 10.828125 197.605469 10.828125 197.605469 11.277344 197.386719 C 11.726562 197.167969 11.726562 197.167969 11.726562 197.167969 C 11.726562 197.164062 11.726562 197.164062 11.726562 197.164062 C 11.722656 197.164062 11.722656 197.160156 11.722656 197.15625 C 11.71875 197.152344 11.714844 197.140625 11.707031 197.128906 C 11.695312 197.105469 11.679688 197.066406 11.65625 197.015625 C 11.609375 196.917969 11.542969 196.773438 11.464844 196.597656 C 11.304688 196.238281 11.089844 195.746094 10.878906 195.191406 C 10.445312 194.058594 10.046875 192.773438 10.046875 191.921875 Z M 11.277344 197.386719 C 11.183594 197.875 11.183594 197.875 11.183594 197.875 C 11.1875 197.875 11.1875 197.878906 11.191406 197.878906 C 11.195312 197.878906 11.203125 197.878906 11.214844 197.882812 C 11.238281 197.886719 11.273438 197.894531 11.316406 197.902344 C 11.40625 197.917969 11.539062 197.945312 11.710938 197.980469 C 12.058594 198.046875 12.5625 198.148438 13.203125 198.277344 C 14.484375 198.539062 16.304688 198.914062 18.457031 199.386719 C 22.757812 200.332031 28.386719 201.648438 33.691406 203.148438 L 33.964844 202.183594 C 28.628906 200.679688 22.980469 199.355469 18.667969 198.410156 C 16.511719 197.9375 14.6875 197.558594 13.402344 197.296875 C 12.761719 197.167969 12.253906 197.066406 11.90625 197 C 11.730469 196.964844 11.597656 196.9375 11.507812 196.921875 C 11.460938 196.910156 11.429688 196.90625 11.40625 196.902344 C 11.394531 196.898438 11.386719 196.898438 11.378906 196.894531 C 11.375 196.894531 11.375 196.894531 11.371094 196.894531 C 11.371094 196.894531 11.371094 196.894531 11.277344 197.386719 Z M 33.691406 203.148438 C 39.167969 204.6875 44.535156 206.34375 48.871094 206.972656 C 51.042969 207.289062 53.003906 207.359375 54.625 207.007812 C 56.257812 206.65625 57.566406 205.867188 58.359375 204.460938 L 57.488281 203.96875 C 56.871094 205.066406 55.84375 205.722656 54.410156 206.03125 C 52.964844 206.34375 51.140625 206.292969 49.015625 205.984375 C 44.761719 205.363281 39.488281 203.742188 33.964844 202.183594 Z M 58.3125 204.53125 C 59.230469 203.410156 59.699219 201.824219 59.699219 199.660156 L 58.699219 199.660156 C 58.699219 201.6875 58.257812 203.015625 57.539062 203.898438 Z M 59.699219 199.675781 C 59.742188 197.816406 59.398438 193.160156 58.855469 187.421875 C 58.308594 181.671875 57.558594 174.792969 56.785156 168.457031 L 55.792969 168.578125 C 56.5625 174.90625 57.3125 181.773438 57.859375 187.519531 C 58.40625 193.277344 58.742188 197.863281 58.699219 199.648438 Z M 56.296875 169.019531 C 62.046875 168.925781 67.886719 168.378906 72.722656 167.738281 L 72.589844 166.75 C 67.785156 167.382812 61.984375 167.929688 56.28125 168.019531 Z M 72.171875 167.125 C 71.890625 168.246094 71.703125 169.457031 71.613281 170.570312 L 72.609375 170.65625 C 72.695312 169.585938 72.875 168.429688 73.140625 167.367188 Z M 71.613281 170.574219 C 71.246094 175.164062 71.519531 183.417969 71.882812 190.488281 C 72.066406 194.035156 72.269531 197.292969 72.429688 199.664062 C 72.507812 200.851562 72.578125 201.816406 72.625 202.484375 C 72.648438 202.816406 72.667969 203.078125 72.683594 203.253906 C 72.6875 203.34375 72.695312 203.410156 72.695312 203.457031 C 72.699219 203.476562 72.699219 203.496094 72.699219 203.507812 C 72.703125 203.511719 72.703125 203.515625 72.703125 203.519531 C 72.703125 203.519531 72.703125 203.523438 72.703125 203.523438 C 72.703125 203.523438 72.703125 203.523438 73.199219 203.484375 C 73.699219 203.449219 73.699219 203.449219 73.699219 203.449219 C 73.699219 203.449219 73.699219 203.445312 73.699219 203.445312 C 73.699219 203.441406 73.699219 203.4375 73.699219 203.429688 C 73.699219 203.417969 73.695312 203.402344 73.695312 203.378906 C 73.691406 203.335938 73.6875 203.269531 73.679688 203.179688 C 73.667969 203.003906 73.648438 202.746094 73.621094 202.410156 C 73.574219 201.742188 73.507812 200.78125 73.425781 199.597656 C 73.269531 197.226562 73.0625 193.976562 72.882812 190.4375 C 72.519531 183.351562 72.246094 175.167969 72.609375 170.652344 Z M 73.199219 203.484375 C 73.089844 203.972656 73.089844 203.972656 73.089844 203.972656 C 73.089844 203.972656 73.09375 203.972656 73.09375 203.972656 C 73.097656 203.976562 73.097656 203.976562 73.101562 203.976562 C 73.109375 203.976562 73.121094 203.980469 73.136719 203.984375 C 73.167969 203.992188 73.214844 204 73.269531 204.011719 C 73.386719 204.039062 73.550781 204.074219 73.757812 204.113281 C 74.164062 204.195312 74.726562 204.304688 75.351562 204.402344 C 76.570312 204.59375 78.097656 204.765625 79.09375 204.617188 L 78.945312 203.628906 C 78.125 203.753906 76.742188 203.609375 75.507812 203.414062 C 74.902344 203.316406 74.351562 203.214844 73.953125 203.132812 C 73.753906 203.09375 73.59375 203.058594 73.480469 203.035156 C 73.425781 203.023438 73.382812 203.015625 73.355469 203.007812 C 73.339844 203.003906 73.328125 203.003906 73.320312 203 C 73.320312 203 73.316406 203 73.3125 203 C 73.3125 203 73.3125 203 73.199219 203.484375 Z M 79.09375 204.617188 C 80.632812 204.382812 82.410156 203.898438 83.792969 203.476562 C 84.488281 203.261719 85.085938 203.0625 85.511719 202.917969 C 85.722656 202.847656 85.894531 202.789062 86.011719 202.746094 C 86.070312 202.726562 86.113281 202.710938 86.144531 202.699219 C 86.160156 202.691406 86.171875 202.6875 86.179688 202.6875 C 86.183594 202.683594 86.1875 202.683594 86.191406 202.683594 C 86.191406 202.683594 86.191406 202.679688 86.191406 202.679688 C 86.191406 202.679688 86.195312 202.679688 86.195312 202.679688 C 86.195312 202.679688 86.195312 202.679688 86.023438 202.210938 C 85.851562 201.742188 85.851562 201.742188 85.851562 201.742188 C 85.851562 201.742188 85.851562 201.742188 85.847656 201.742188 C 85.847656 201.742188 85.84375 201.742188 85.839844 201.746094 C 85.832031 201.746094 85.824219 201.75 85.808594 201.757812 C 85.777344 201.769531 85.734375 201.78125 85.679688 201.804688 C 85.5625 201.84375 85.398438 201.902344 85.1875 201.972656 C 84.769531 202.113281 84.183594 202.308594 83.5 202.519531 C 82.132812 202.9375 80.410156 203.40625 78.945312 203.628906 Z M 86.023438 202.210938 C 86.523438 202.183594 86.523438 202.183594 86.523438 202.179688 C 86.523438 202.179688 86.523438 202.179688 86.519531 202.179688 C 86.519531 202.179688 86.519531 202.175781 86.519531 202.171875 C 86.519531 202.167969 86.519531 202.160156 86.519531 202.148438 C 86.519531 202.125 86.515625 202.089844 86.515625 202.042969 C 86.507812 201.953125 86.5 201.816406 86.492188 201.636719 C 86.476562 201.28125 86.449219 200.757812 86.425781 200.097656 C 86.375 198.777344 86.316406 196.902344 86.296875 194.683594 C 86.25 190.242188 86.339844 184.433594 86.882812 178.949219 L 85.886719 178.851562 C 85.339844 184.386719 85.25 190.234375 85.296875 194.691406 C 85.316406 196.921875 85.375 198.808594 85.425781 200.136719 C 85.453125 200.800781 85.476562 201.328125 85.492188 201.6875 C 85.503906 201.867188 85.511719 202.003906 85.515625 202.097656 C 85.519531 202.144531 85.519531 202.179688 85.519531 202.203125 C 85.523438 202.214844 85.523438 202.226562 85.523438 202.230469 C 85.523438 202.234375 85.523438 202.238281 85.523438 202.238281 C 85.523438 202.242188 85.523438 202.242188 85.523438 202.242188 C 85.523438 202.242188 85.523438 202.242188 86.023438 202.210938 Z M 86.882812 178.957031 C 87.382812 174.539062 87.796875 170.214844 87.828125 166.417969 C 87.863281 162.636719 87.523438 159.3125 86.480469 156.9375 L 85.566406 157.339844 C 86.519531 159.511719 86.863281 162.65625 86.828125 166.410156 C 86.796875 170.148438 86.390625 174.429688 85.890625 178.84375 Z M 86.882812 178.957031 "/>
<path style=" stroke:none;fill-rule:nonzero;fill:rgb(94.116211%,77.645874%,70.587158%);fill-opacity:1;" d="M 44.285156 101.589844 C 40.101562 102.046875 39.191406 105.6875 39.921875 109.785156 C 40.648438 113.882812 48.375 133.371094 49.375 134.28125 C 53.105469 137.742188 56.925781 134.007812 57.289062 132.09375 C 57.742188 130.183594 53.558594 111.972656 52.378906 108.691406 C 51.195312 105.414062 49.195312 101.042969 44.285156 101.589844 Z M 44.285156 101.589844 "/>
<path style=" stroke:none;fill-rule:nonzero;fill:rgb(94.116211%,77.645874%,70.587158%);fill-opacity:1;" d="M 49.011719 132.367188 C 47.738281 136.832031 57.105469 138.652344 61.742188 139.289062 C 66.382812 139.925781 80.203125 139.652344 80.203125 139.652344 L 81.019531 135.554688 C 81.019531 135.554688 69.65625 130.457031 57.015625 127.90625 C 55.742188 127.726562 50.378906 127.90625 49.011719 132.367188 Z M 49.011719 132.367188 "/>
<path style=" stroke:none;fill-rule:nonzero;fill:rgb(28.234863%,28.234863%,28.234863%);fill-opacity:1;" d="M 55.289062 118.890625 C 55.925781 116.34375 56.558594 104.230469 49.558594 101.5 C 48.832031 101.226562 46.648438 100.863281 46.648438 100.863281 L 51.378906 100.863281 C 51.378906 100.863281 53.378906 101.226562 55.558594 104.777344 C 57.742188 108.328125 59.378906 115.339844 58.105469 119.800781 C 56.832031 124.265625 54.46875 121.988281 55.289062 118.890625 Z M 55.289062 118.890625 "/>
<path style=" stroke:none;fill-rule:nonzero;fill:rgb(84.70459%,22.744751%,21.176147%);fill-opacity:1;" d="M 46.558594 101.316406 C 48.558594 101.863281 51.832031 105.777344 52.46875 108.511719 C 53.378906 112.425781 56.652344 122.441406 56.652344 122.441406 C 56.652344 122.441406 54.289062 124.445312 50.558594 125.265625 C 46.285156 126.175781 43.375 125.175781 43.375 125.175781 C 43.375 125.175781 39.191406 110.058594 39.285156 106.78125 C 39.375 104.503906 41.648438 100.042969 46.558594 101.316406 Z M 46.558594 101.316406 "/>
<path style=" stroke:none;fill-rule:nonzero;fill:rgb(28.234863%,28.234863%,28.234863%);fill-opacity:1;" d="M 68.382812 123.082031 C 68.382812 123.082031 71.292969 114.066406 68.835938 111.425781 C 67.746094 110.332031 67.382812 109.695312 67.382812 109.695312 C 67.382812 109.695312 67.925781 114.886719 67.019531 118.527344 C 66.109375 122.261719 65.289062 124.8125 66.382812 125.265625 C 67.5625 125.8125 68.382812 123.082031 68.382812 123.082031 Z M 68.382812 123.082031 "/>
<path style=" stroke:none;fill-rule:nonzero;fill:rgb(100%,31.37207%,31.37207%);fill-opacity:1;" d="M 61.378906 82.285156 C 61.378906 82.285156 65.925781 76.003906 72.929688 79.917969 C 79.929688 83.832031 76.65625 91.484375 76.65625 91.484375 C 76.65625 91.484375 72.472656 90.117188 67.289062 87.203125 C 62.015625 84.289062 61.378906 82.285156 61.378906 82.285156 Z M 61.378906 82.285156 "/>
<path style=" stroke:none;fill-rule:nonzero;fill:rgb(84.70459%,22.744751%,21.176147%);fill-opacity:1;" d="M 65.015625 85.835938 C 65.015625 85.835938 77.566406 95.671875 77.839844 95.582031 C 78.109375 95.582031 79.292969 95.308594 79.839844 95.398438 C 80.292969 95.398438 80.65625 96.128906 80.929688 95.945312 C 81.203125 95.761719 76.929688 90.753906 76.929688 90.753906 C 76.929688 90.753906 73.746094 89.84375 72.199219 89.296875 C 70.472656 88.84375 65.289062 85.382812 65.015625 85.835938 Z M 65.015625 85.835938 "/>
<path style=" stroke:none;fill-rule:nonzero;fill:rgb(93.72406%,69.018555%,60.391235%);fill-opacity:1;" d="M 91.75 156.773438 L 98.117188 156.5 C 98.117188 156.5 100.480469 159.230469 100.664062 159.867188 C 100.84375 160.597656 100.570312 163.785156 100.570312 164.238281 C 100.570312 164.695312 100.207031 165.242188 100.027344 165.242188 C 99.753906 165.148438 99.480469 163.417969 97.480469 162.78125 C 95.386719 162.144531 93.660156 161.871094 92.570312 161.144531 C 90.113281 159.59375 91.75 156.773438 91.75 156.773438 Z M 91.75 156.773438 "/>
<path style=" stroke:none;fill-rule:nonzero;fill:rgb(18.823242%,18.823242%,18.823242%);fill-opacity:1;" d="M 86.46875 134.917969 C 89.023438 134.917969 91.09375 132.847656 91.09375 130.292969 C 91.09375 127.738281 89.023438 125.667969 86.46875 125.667969 C 83.914062 125.667969 81.84375 127.738281 81.84375 130.292969 C 81.84375 132.847656 83.914062 134.917969 86.46875 134.917969 Z M 86.46875 134.917969 "/>
<path style=" stroke:none;fill-rule:nonzero;fill:rgb(28.234863%,28.234863%,28.234863%);fill-opacity:1;" d="M 87.394531 135.839844 C 89.945312 135.839844 92.015625 133.769531 92.015625 131.21875 C 92.015625 128.664062 89.945312 126.59375 87.394531 126.59375 C 84.839844 126.59375 82.769531 128.664062 82.769531 131.21875 C 82.769531 133.769531 84.839844 135.839844 87.394531 135.839844 Z M 87.394531 135.839844 "/>
<path style=" stroke:none;fill-rule:nonzero;fill:rgb(31.764221%,31.764221%,31.764221%);fill-opacity:1;" d="M 98.769531 171.980469 C 103.40625 171.980469 104.316406 168.882812 104.496094 167.972656 C 104.859375 166.242188 104.222656 164.511719 103.042969 164.058594 C 101.585938 163.511719 100.042969 163.054688 99.949219 163.054688 L 99.679688 164.058594 C 99.679688 164.058594 101.316406 164.511719 102.679688 165.058594 C 103.316406 165.332031 103.769531 166.515625 103.496094 167.882812 C 103.316406 168.882812 102.496094 171.070312 98.769531 171.070312 C 93.039062 171.070312 88.039062 162.507812 88.039062 152.675781 L 88.039062 134.191406 L 87.039062 134.191406 L 87.039062 152.582031 C 87.039062 162.875 92.492188 171.980469 98.769531 171.980469 Z M 98.769531 171.980469 "/>
<path style=" stroke:none;fill-rule:nonzero;fill:rgb(18.823242%,18.823242%,18.823242%);fill-opacity:1;" d="M 98.390625 164.332031 L 99.753906 164.605469 C 99.933594 164.605469 100.117188 164.511719 100.207031 164.332031 L 100.390625 163.238281 C 100.390625 163.054688 100.300781 162.875 100.117188 162.78125 L 98.753906 162.507812 C 98.570312 162.507812 98.390625 162.601562 98.296875 162.78125 L 98.117188 163.875 C 98.027344 164.058594 98.207031 164.238281 98.390625 164.332031 Z M 98.390625 164.332031 "/>
<path style=" stroke:none;fill-rule:nonzero;fill:rgb(93.72406%,69.018555%,60.391235%);fill-opacity:1;" d="M 94.753906 158.136719 C 94.753906 158.136719 97.753906 159.230469 97.753906 159.867188 C 97.84375 160.414062 98.664062 163.601562 98.753906 163.964844 C 98.84375 164.332031 99.027344 164.785156 97.933594 164.238281 C 96.84375 163.691406 96.570312 162.144531 96.117188 162.144531 C 95.660156 162.054688 93.84375 162.691406 92.480469 161.78125 C 91.113281 160.960938 91.023438 159.6875 91.113281 159.230469 C 91.207031 158.683594 93.84375 157.226562 94.753906 158.136719 Z M 94.753906 158.136719 "/>
<path style=" stroke:none;fill-rule:nonzero;fill:rgb(94.116211%,77.645874%,70.587158%);fill-opacity:1;" d="M 78.476562 135.828125 C 78.476562 135.828125 79.113281 134.097656 79.292969 133.917969 C 79.476562 133.644531 81.113281 131.914062 81.292969 131.183594 C 81.476562 130.457031 81.386719 129.910156 81.476562 129.820312 C 81.566406 129.726562 83.023438 129.363281 82.929688 130.730469 C 82.839844 132.003906 82.113281 133.277344 82.292969 133.644531 C 82.476562 134.007812 85.203125 133.460938 85.660156 133.097656 C 86.113281 132.734375 89.113281 130 89.203125 129.910156 C 89.386719 129.820312 89.839844 129.546875 90.023438 129.636719 C 90.207031 129.726562 90.296875 130.820312 90.207031 131.003906 C 90.113281 131.183594 90.660156 131.277344 90.660156 131.457031 C 90.660156 131.730469 90.660156 132.550781 90.660156 132.550781 C 90.660156 132.550781 90.84375 133.460938 90.75 133.824219 C 90.660156 134.191406 89.933594 135.828125 89.75 135.921875 C 89.570312 136.101562 87.023438 138.652344 86.296875 138.925781 C 85.476562 139.199219 79.929688 139.5625 79.929688 139.5625 Z M 78.476562 135.828125 "/>
</g>
</defs>
<g id="surface1">
<use xlink:href="#surface6" mask="url(#mask0)"/>
</g>
</svg>
