<?xml version="1.0" encoding="UTF-8"?>
<svg xmlns="http://www.w3.org/2000/svg" xmlns:xlink="http://www.w3.org/1999/xlink" width="56pt" height="56pt" viewBox="0 0 56 56" version="1.1">
<g id="surface1">
<path style=" stroke:none;fill-rule:nonzero;fill:rgb(94.900513%,0%,0%);fill-opacity:0.5;" d="M 56 28 C 56 43.464844 43.464844 56 28 56 C 12.535156 56 0 43.464844 0 28 C 0 12.535156 12.535156 0 28 0 C 43.464844 0 56 12.535156 56 28 Z M 56 28 "/>
<path style=" stroke:none;fill-rule:evenodd;fill:rgb(100%,100%,100%);fill-opacity:1;" d="M 35.78125 28.492188 C 36.222656 28.644531 36.554688 28.949219 36.75 29.359375 C 36.917969 29.714844 36.882812 30.09375 36.585938 30.398438 C 36.144531 30.859375 35.691406 31.3125 35.242188 31.765625 C 35.195312 31.8125 35.136719 31.847656 35.085938 31.886719 C 36.160156 32.964844 37.195312 34.003906 38.246094 35.058594 C 38.402344 34.910156 38.5625 34.757812 38.722656 34.605469 C 38.882812 34.445312 39.074219 34.402344 39.289062 34.460938 C 39.65625 34.5625 39.832031 35.019531 39.546875 35.304688 C 38.441406 36.402344 37.347656 37.515625 36.246094 38.617188 C 36.152344 38.710938 36.023438 38.789062 35.898438 38.828125 C 35.667969 38.898438 35.476562 38.789062 35.324219 38.554688 C 35.203125 38.371094 35.203125 38.207031 35.351562 38.015625 C 35.519531 37.800781 35.707031 37.605469 35.90625 37.375 C 35.761719 37.234375 35.609375 37.097656 35.464844 36.953125 C 34.625 36.128906 33.789062 35.304688 32.949219 34.484375 C 32.710938 34.25 32.761719 34.285156 32.550781 34.484375 C 32.089844 34.914062 31.644531 35.355469 31.183594 35.785156 C 30.851562 36.09375 30.378906 36.109375 30.023438 35.828125 C 29.851562 35.691406 29.695312 35.53125 29.539062 35.371094 C 29.28125 35.113281 29.234375 34.796875 29.320312 34.460938 C 29.347656 34.335938 29.421875 34.210938 29.511719 34.117188 C 30.449219 33.152344 31.386719 32.1875 32.34375 31.234375 C 33.214844 30.367188 34.105469 29.523438 34.980469 28.65625 C 35.222656 28.421875 35.488281 28.390625 35.78125 28.492188 Z M 20.898438 28.589844 C 21.222656 28.863281 21.546875 29.136719 21.84375 29.433594 C 23.394531 30.980469 24.933594 32.53125 26.472656 34.085938 C 26.792969 34.40625 26.808594 34.972656 26.511719 35.320312 C 26.363281 35.492188 26.1875 35.640625 26.023438 35.796875 C 25.738281 36.070312 25.140625 36.121094 24.792969 35.769531 C 24.34375 35.304688 23.863281 34.875 23.398438 34.425781 C 23.296875 34.324219 23.226562 34.3125 23.117188 34.421875 C 22.140625 35.390625 21.160156 36.351562 20.179688 37.316406 C 20.15625 37.339844 20.136719 37.367188 20.117188 37.394531 C 20.296875 37.601562 20.476562 37.796875 20.648438 38 C 20.769531 38.152344 20.816406 38.328125 20.707031 38.511719 C 20.585938 38.714844 20.433594 38.882812 20.175781 38.835938 C 20.046875 38.816406 19.910156 38.746094 19.8125 38.65625 C 19.386719 38.265625 18.96875 37.867188 18.558594 37.457031 C 17.867188 36.757812 17.183594 36.046875 16.496094 35.34375 C 16.347656 35.191406 16.261719 35.027344 16.34375 34.816406 C 16.425781 34.601562 16.582031 34.472656 16.808594 34.429688 C 16.976562 34.394531 17.117188 34.460938 17.238281 34.566406 C 17.410156 34.722656 17.578125 34.886719 17.734375 35.035156 C 18.777344 33.984375 19.820312 32.9375 20.859375 31.890625 L 20.90625 31.917969 C 20.863281 31.867188 20.820312 31.820312 20.773438 31.773438 C 20.339844 31.335938 19.917969 30.882812 19.464844 30.460938 C 19.109375 30.125 19.054688 29.429688 19.453125 29.050781 C 19.679688 28.835938 19.890625 28.609375 20.191406 28.492188 C 20.449219 28.390625 20.691406 28.417969 20.898438 28.589844 Z M 17.375 16.316406 C 17.667969 16.335938 17.964844 16.355469 18.257812 16.382812 C 19.148438 16.46875 20.039062 16.566406 20.933594 16.644531 C 21.335938 16.675781 21.65625 16.832031 21.929688 17.136719 C 23.296875 18.65625 24.675781 20.164062 26.046875 21.675781 L 27.855469 23.664062 C 27.902344 23.714844 27.9375 23.769531 27.976562 23.824219 L 28.054688 23.84375 C 28.09375 23.78125 28.121094 23.710938 28.167969 23.660156 C 29.535156 22.140625 30.898438 20.617188 32.269531 19.105469 C 32.902344 18.402344 33.554688 17.714844 34.191406 17.015625 C 34.382812 16.804688 34.613281 16.699219 34.890625 16.675781 L 38.464844 16.339844 C 38.597656 16.328125 38.726562 16.324219 38.878906 16.316406 C 38.878906 16.40625 38.886719 16.476562 38.878906 16.542969 C 38.769531 17.765625 38.65625 18.984375 38.546875 20.203125 C 38.511719 20.550781 38.371094 20.835938 38.109375 21.074219 C 37.011719 22.070312 35.925781 23.074219 34.828125 24.066406 C 33.617188 25.152344 32.398438 26.226562 31.183594 27.304688 C 31.167969 27.320312 31.152344 27.339844 31.128906 27.367188 C 31.757812 28.074219 32.386719 28.777344 33.019531 29.488281 C 32.992188 29.527344 32.972656 29.5625 32.949219 29.585938 C 32.121094 30.40625 31.289062 31.21875 30.46875 32.042969 C 30.347656 32.160156 30.273438 32.152344 30.152344 32.042969 C 29.484375 31.445312 28.8125 30.855469 28.140625 30.261719 C 28.097656 30.226562 28.054688 30.191406 28 30.144531 C 27.820312 30.304688 27.648438 30.460938 27.472656 30.613281 C 26.929688 31.089844 26.382812 31.566406 25.84375 32.050781 C 25.71875 32.164062 25.644531 32.148438 25.53125 32.035156 C 24.71875 31.222656 23.902344 30.417969 23.085938 29.613281 C 23.054688 29.582031 23.027344 29.546875 22.980469 29.496094 C 23.609375 28.789062 24.234375 28.085938 24.878906 27.359375 C 24.472656 26.996094 24.085938 26.652344 23.703125 26.308594 C 21.8125 24.621094 19.921875 22.933594 18.027344 21.253906 C 17.707031 20.96875 17.503906 20.640625 17.460938 20.214844 C 17.351562 19.089844 17.242188 17.964844 17.132812 16.839844 L 17.105469 16.589844 C 17.078125 16.3125 17.085938 16.300781 17.375 16.316406 Z M 17.375 16.316406 "/>
</g>
</svg>
