<?xml version="1.0" encoding="UTF-8"?>
<svg xmlns="http://www.w3.org/2000/svg" xmlns:xlink="http://www.w3.org/1999/xlink" width="32pt" height="32pt" viewBox="0 0 32 32" version="1.1">
<defs>
<clipPath id="clip1">
  <path d="M 16 32 C 24.835938 32 32 24.835938 32 16 C 32 7.164062 24.835938 0 16 0 C 7.164062 0 0 7.164062 0 16 C 0 24.835938 7.164062 32 16 32 Z M 16 32 "/>
</clipPath>
<clipPath id="clip2">
  <path d="M 4 3 L 19 3 L 19 19 L 4 19 Z M 4 3 "/>
</clipPath>
<clipPath id="clip3">
  <path d="M 4 15.933594 C 4.117188 15.5625 4.210938 15.175781 4.363281 14.816406 C 4.574219 14.3125 4.929688 13.898438 5.316406 13.515625 C 6.707031 12.125 8.097656 10.734375 9.488281 9.34375 C 10.507812 8.324219 11.527344 7.296875 12.546875 6.273438 C 13.605469 5.210938 14.664062 4.144531 15.726562 3.078125 C 15.746094 3.058594 15.773438 3.039062 15.816406 3 C 16.710938 3.910156 17.605469 4.820312 18.484375 5.714844 C 14.085938 10.125 9.691406 14.523438 5.285156 18.9375 C 4.679688 18.328125 4.207031 17.644531 4.046875 16.777344 C 4.035156 16.714844 4.015625 16.652344 4 16.589844 Z M 4 15.933594 "/>
</clipPath>
<clipPath id="clip4">
  <path d="M 13 13 L 28 13 L 28 30 L 13 30 Z M 13 13 "/>
</clipPath>
<clipPath id="clip5">
  <path d="M 27.613281 16.515625 C 27.480469 16.886719 27.378906 17.277344 27.210938 17.632812 C 26.980469 18.128906 26.621094 18.535156 26.230469 18.917969 C 25.234375 19.898438 24.246094 20.890625 23.261719 21.882812 C 21.519531 23.625 19.78125 25.371094 18.046875 27.117188 C 17.347656 27.816406 16.65625 28.515625 15.960938 29.21875 C 15.917969 29.261719 15.882812 29.316406 15.84375 29.367188 L 15.804688 29.367188 C 15.117188 28.660156 14.425781 27.957031 13.738281 27.253906 C 13.53125 27.042969 13.324219 26.832031 13.136719 26.636719 C 17.542969 22.222656 21.929688 17.824219 26.332031 13.414062 C 26.929688 14.015625 27.394531 14.6875 27.570312 15.535156 C 27.578125 15.589844 27.597656 15.644531 27.613281 15.703125 Z M 27.613281 16.515625 "/>
</clipPath>
<clipPath id="clip6">
  <path d="M 6 6 L 23 6 L 23 21 L 6 21 Z M 6 6 "/>
</clipPath>
<clipPath id="clip7">
  <path d="M 19.273438 6.503906 C 20.183594 7.394531 21.089844 8.285156 22.039062 9.21875 C 21.890625 9.347656 21.742188 9.460938 21.609375 9.59375 C 19.933594 11.253906 18.261719 12.921875 16.589844 14.585938 C 14.980469 16.1875 13.371094 17.789062 11.753906 19.382812 C 11.402344 19.730469 11.050781 20.089844 10.644531 20.363281 C 9.265625 21.292969 7.769531 21.179688 6.472656 20.085938 C 6.328125 19.96875 6.195312 19.839844 6.070312 19.726562 C 10.46875 15.320312 14.863281 10.921875 19.273438 6.503906 "/>
</clipPath>
<clipPath id="clip8">
  <path d="M 9 11 L 26 11 L 26 26 L 9 26 Z M 9 11 "/>
</clipPath>
<clipPath id="clip9">
  <path d="M 12.34375 25.847656 C 11.4375 24.960938 10.539062 24.074219 9.625 23.179688 C 9.664062 23.132812 9.699219 23.085938 9.738281 23.046875 C 10.789062 22 11.839844 20.957031 12.890625 19.910156 C 14.480469 18.328125 16.070312 16.742188 17.660156 15.160156 C 18.40625 14.417969 19.164062 13.6875 19.894531 12.933594 C 20.289062 12.53125 20.6875 12.140625 21.179688 11.859375 C 22.511719 11.109375 23.867188 11.222656 25.050781 12.191406 C 25.230469 12.335938 25.398438 12.492188 25.550781 12.625 C 21.144531 17.039062 16.75 21.4375 12.34375 25.847656 "/>
</clipPath>
</defs>
<g id="surface1">
<g clip-path="url(#clip1)" clip-rule="evenodd">
<rect x="0" y="0" width="32" height="32" style="fill:rgb(100%,100%,100%);fill-opacity:1;stroke:none;"/>
</g>
<g clip-path="url(#clip2)" clip-rule="nonzero">
<g clip-path="url(#clip3)" clip-rule="nonzero">
<path style=" stroke:none;fill-rule:nonzero;fill:rgb(98.431396%,56.079102%,0%);fill-opacity:1;" d="M -1 -2 L 23.484375 -2 L 23.484375 23.9375 L -1 23.9375 Z M -1 -2 "/>
</g>
</g>
<g clip-path="url(#clip4)" clip-rule="nonzero">
<g clip-path="url(#clip5)" clip-rule="nonzero">
<path style=" stroke:none;fill-rule:nonzero;fill:rgb(93.725586%,0%,0%);fill-opacity:1;" d="M 8.136719 8.414062 L 32.613281 8.414062 L 32.613281 34.367188 L 8.136719 34.367188 Z M 8.136719 8.414062 "/>
</g>
</g>
<g clip-path="url(#clip6)" clip-rule="nonzero">
<g clip-path="url(#clip7)" clip-rule="nonzero">
<path style=" stroke:none;fill-rule:nonzero;fill:rgb(93.333435%,0%,0%);fill-opacity:1;" d="M 1.070312 1.503906 L 27.039062 1.503906 L 27.039062 25.992188 L 1.070312 25.992188 Z M 1.070312 1.503906 "/>
</g>
</g>
<g clip-path="url(#clip8)" clip-rule="nonzero">
<g clip-path="url(#clip9)" clip-rule="nonzero">
<path style=" stroke:none;fill-rule:nonzero;fill:rgb(98.431396%,56.079102%,0%);fill-opacity:1;" d="M 4.625 6.371094 L 30.550781 6.371094 L 30.550781 30.847656 L 4.625 30.847656 Z M 4.625 6.371094 "/>
</g>
</g>
</g>
</svg>
