<svg width="32" height="32" viewBox="0 0 32 32" fill="none" xmlns="http://www.w3.org/2000/svg">
<path d="M16 32C24.8366 32 32 24.8366 32 16C32 7.16344 24.8366 0 16 0C7.16344 0 0 7.16344 0 16C0 24.8366 7.16344 32 16 32Z" fill="white"/>
<path d="M24.2054 13.2341C23.1579 9.03359 18.2227 6.32194 13.8713 7.41602C9.1504 8.60333 6.25249 13.3193 7.39962 17.9478C8.59631 22.7765 13.2716 25.6197 18.061 24.4313C22.213 23.4011 25.4558 18.8873 24.5685 15.2778C22.8834 15.2778 21.1794 15.248 19.4772 15.2922C18.7914 15.3101 18.2612 15.1685 17.7994 14.6308C17.1996 13.9324 16.532 13.292 15.8549 12.5863C14.7565 13.7694 13.7429 14.8609 12.7139 15.9692C13.605 16.8781 14.5994 17.9232 15.6431 18.9167C15.7706 19.0383 16.2452 18.983 16.4139 18.8393C16.9852 18.3524 17.484 17.7812 18.0261 17.2585C18.2255 17.0661 18.4629 16.7821 18.6923 16.7731C19.9245 16.7251 21.1594 16.7503 22.3694 16.7503C22.404 16.9146 22.4327 16.9725 22.4248 17.0249C21.8803 20.6673 18.2346 23.2098 14.6394 22.4567C10.8894 21.6712 8.52918 17.9437 9.55336 14.3078C10.3163 11.5997 12.1654 9.91533 14.9226 9.48889C17.7271 9.05515 19.9474 10.1974 21.5535 12.5438C21.7431 12.8207 22.0401 13.1517 22.3323 13.2035C22.9163 13.3068 23.5316 13.2341 24.2054 13.2341ZM15.9718 27.8761C9.3384 27.8882 4.01858 22.6 4.00005 15.9755C3.98188 9.35046 9.28292 4.01411 15.8965 3.99997C22.5401 3.98594 27.8445 9.26541 27.8515 15.899C27.8584 22.5552 22.593 27.8639 15.9718 27.8761Z" fill="#CD2920"/>
</svg>
