<svg width="128" height="128" viewBox="0 0 128 128" fill="none" xmlns="http://www.w3.org/2000/svg">
<rect x="20.5" y="35.5" width="83" height="52" rx="9.5" fill="#131313" stroke="#595959" stroke-width="5"/>
<path fill-rule="evenodd" clip-rule="evenodd" d="M44.1948 55.3261L44.2527 55.3022C42.8813 56.0405 41.5385 56.8884 40.2242 57.8459C38.9097 58.8036 37.7381 59.8882 36.7094 61.0997C35.6807 62.3112 34.852 63.6439 34.2233 65.0977C33.5946 66.5515 33.2803 68.1322 33.2803 69.8399C33.2803 71.1552 33.6575 72.2052 34.4119 72.9898C35.1663 73.7744 36.3779 74.1667 38.0468 74.1667C38.8926 74.1667 39.6013 74.0744 40.1728 73.8897C40.7443 73.7051 41.2015 73.4513 41.5445 73.1282C41.8874 72.8052 42.1274 72.4244 42.2646 71.986C42.4017 71.5475 42.4703 71.0629 42.4703 70.5321C42.4703 69.9322 42.436 69.3379 42.3674 68.7495C42.2989 68.1611 42.2646 67.6015 42.2646 67.0707C42.2646 65.6169 42.316 64.3477 42.4189 63.2631C42.5218 62.1785 42.7789 61.1055 43.1904 60.044C43.6019 58.9824 44.2363 57.8575 45.0936 56.669C45.9509 55.4806 47.1339 54.0557 48.6427 52.3942L47.3054 50.1096C47.1225 50.3865 46.9567 50.6173 46.8081 50.8019C46.6595 50.9865 46.511 51.1307 46.3624 51.2346C46.2138 51.3384 46.0366 51.4076 45.8308 51.4423C45.6251 51.4769 45.3622 51.4942 45.0421 51.4942C44.1049 51.4942 43.3333 51.3961 42.7275 51.2C42.1217 51.0038 41.493 50.7904 40.8415 50.5596C40.1899 50.3288 39.4413 50.1154 38.5954 49.9192C37.7496 49.7231 36.618 49.625 35.2006 49.625C34.4005 49.625 33.7146 49.7461 33.1431 49.9885C32.5716 50.2308 32.0915 50.5596 31.7029 50.975C31.3143 51.3903 31.0285 51.8749 30.8456 52.4288C30.6627 52.9826 30.5713 53.571 30.5713 54.1941C30.5713 54.471 30.577 54.8576 30.5884 55.3537C30.5999 55.8498 30.6284 56.2479 30.6742 56.5479H32.8688C32.9374 56.1556 33.046 55.8498 33.1946 55.6306C33.3432 55.4114 33.5146 55.2499 33.7089 55.146C33.9032 55.0422 34.1261 54.9787 34.3776 54.9556C34.6291 54.9326 34.892 54.921 35.1663 54.921C35.6464 54.921 36.115 54.9787 36.5722 55.0941C37.0295 55.2095 37.4924 55.3364 37.961 55.4748C38.4297 55.6133 38.9097 55.7402 39.4013 55.8556C39.8928 55.971 40.4128 56.0287 40.9615 56.0287C41.4873 56.0287 42.0017 55.9768 42.5046 55.8729C42.9927 55.7721 43.5561 55.5899 44.1948 55.3261Z" fill="#595959"/>
<path fill-rule="evenodd" clip-rule="evenodd" d="M66.7874 55.3261L66.8478 55.3022C65.4168 56.0405 64.0156 56.8884 62.6442 57.8459C61.2725 58.8036 60.05 59.8882 58.9765 61.0997C57.9031 62.3112 57.0383 63.6439 56.3823 65.0977C55.7263 66.5515 55.3983 68.1322 55.3983 69.8399C55.3983 71.1552 55.7919 72.2052 56.5791 72.9898C57.3663 73.7744 58.6306 74.1667 60.372 74.1667C61.2547 74.1667 61.9941 74.0744 62.5905 73.8897C63.1869 73.7051 63.664 73.4513 64.0218 73.1282C64.3796 72.8052 64.6301 72.4244 64.7732 71.986C64.9163 71.5475 64.9879 71.0629 64.9879 70.5321C64.9879 69.9322 64.9521 69.3379 64.8806 68.7495C64.809 68.1611 64.7732 67.6015 64.7732 67.0707C64.7732 65.6169 64.8269 64.3477 64.9342 63.2631C65.0416 62.1785 65.3099 61.1055 65.7393 60.044C66.1687 58.9824 66.8307 57.8575 67.7252 56.669C68.6198 55.4806 69.8543 54.0557 71.4287 52.3942L70.0332 50.1096C69.8423 50.3865 69.6694 50.6173 69.5143 50.8019C69.3593 50.9865 69.2042 51.1307 69.0492 51.2346C68.8941 51.3384 68.7092 51.4076 68.4945 51.4423C68.2799 51.4769 68.0055 51.4942 67.6716 51.4942C66.6935 51.4942 65.8884 51.3961 65.2563 51.2C64.6241 51.0038 63.9681 50.7904 63.2883 50.5596C62.6084 50.3288 61.8272 50.1154 60.9445 49.9192C60.0619 49.7231 58.8811 49.625 57.4021 49.625C56.5672 49.625 55.8516 49.7461 55.2552 49.9885C54.6588 50.2308 54.1579 50.5596 53.7523 50.975C53.3468 51.3903 53.0486 51.8749 52.8578 52.4288C52.667 52.9826 52.5715 53.571 52.5715 54.1941C52.5715 54.471 52.5775 54.8576 52.5894 55.3537C52.6014 55.8498 52.6312 56.2479 52.6789 56.5479H54.9689C55.0405 56.1556 55.1538 55.8498 55.3089 55.6306C55.4639 55.4114 55.6428 55.2499 55.8456 55.146C56.0484 55.0422 56.2809 54.9787 56.5433 54.9556C56.8057 54.9326 57.0801 54.921 57.3663 54.921C57.8673 54.921 58.3563 54.9787 58.8334 55.0941C59.3105 55.2095 59.7935 55.3364 60.2826 55.4748C60.7716 55.6133 61.2725 55.7402 61.7854 55.8556C62.2983 55.971 62.841 56.0287 63.4135 56.0287C63.9622 56.0287 64.4989 55.9768 65.0237 55.8729C65.533 55.7721 66.1209 55.5899 66.7874 55.3261Z" fill="#595959"/>
<path fill-rule="evenodd" clip-rule="evenodd" d="M88.9805 55.3261L89.0384 55.3022C87.667 56.0405 86.3242 56.8884 85.0099 57.8459C83.6954 58.8036 82.5238 59.8882 81.495 61.0997C80.4663 62.3112 79.6376 63.6439 79.0089 65.0977C78.3803 66.5515 78.0659 68.1322 78.0659 69.8399C78.0659 71.1552 78.4431 72.2052 79.1975 72.9898C79.952 73.7744 81.1636 74.1667 82.8324 74.1667C83.6783 74.1667 84.3869 74.0744 84.9585 73.8897C85.53 73.7051 85.9872 73.4513 86.3301 73.1282C86.673 72.8052 86.913 72.4244 87.0502 71.986C87.1874 71.5475 87.256 71.0629 87.256 70.5321C87.256 69.9322 87.2217 69.3379 87.1531 68.7495C87.0845 68.1611 87.0502 67.6015 87.0502 67.0707C87.0502 65.6169 87.1016 64.3477 87.2045 63.2631C87.3074 62.1785 87.5646 61.1055 87.9761 60.044C88.3876 58.9824 89.0219 57.8575 89.8792 56.669C90.7365 55.4806 91.9195 54.0557 93.4284 52.3942L92.091 50.1096C91.9081 50.3865 91.7424 50.6173 91.5938 50.8019C91.4452 50.9865 91.2966 51.1307 91.148 51.2346C90.9994 51.3384 90.8222 51.4076 90.6165 51.4423C90.4107 51.4769 90.1478 51.4942 89.8278 51.4942C88.8905 51.4942 88.119 51.3961 87.5131 51.2C86.9073 51.0038 86.2787 50.7904 85.6271 50.5596C84.9756 50.3288 84.2269 50.1154 83.3811 49.9192C82.5352 49.7231 81.4036 49.625 79.9862 49.625C79.1861 49.625 78.5003 49.7461 77.9288 49.9885C77.3572 50.2308 76.8772 50.5596 76.4885 50.975C76.0999 51.3903 75.8141 51.8749 75.6313 52.4288C75.4484 52.9826 75.3569 53.571 75.3569 54.1941C75.3569 54.471 75.3626 54.8576 75.3741 55.3537C75.3855 55.8498 75.4141 56.2479 75.4598 56.5479H77.6544C77.723 56.1556 77.8316 55.8498 77.9802 55.6306C78.1288 55.4114 78.3003 55.2499 78.4946 55.146C78.6889 55.0422 78.9118 54.9787 79.1633 54.9556C79.4147 54.9326 79.6776 54.921 79.9519 54.921C80.432 54.921 80.9007 54.9787 81.3579 55.0941C81.8151 55.2095 82.278 55.3364 82.7467 55.4748C83.2153 55.6133 83.6954 55.7402 84.1869 55.8556C84.6784 55.971 85.1985 56.0287 85.7471 56.0287C86.2729 56.0287 86.7873 55.9768 87.2902 55.8729C87.7783 55.7721 88.3417 55.5899 88.9805 55.3261Z" fill="#595959"/>
<path d="M106 66.9969C106 66.9969 109.736 67.0571 111.796 67.011C112.376 66.9989 112.685 66.6519 112.734 66.0623C112.75 65.8617 112.752 65.6611 112.752 65.4605C112.752 62.0348 112.736 58.609 112.763 55.1832C112.763 54.2606 112.451 53.6709 111.666 53.1654C109.285 51.6331 108.125 49.3686 108.389 46.5064C108.662 43.5159 110.286 41.4219 113.056 40.4391C115.709 39.4964 118.127 40.0861 120.191 42.0678C120.757 42.5887 121.209 43.2253 121.517 43.9361C121.826 44.647 121.984 45.4161 121.982 46.1935C122.006 47.8222 122.122 49.4649 121.218 50.9391C120.675 51.8216 120.003 52.6038 119.112 53.0973C118.16 53.6228 117.873 54.3609 117.877 55.4239C117.907 63.3505 117.895 63.9834 117.893 71.9221C117.893 73.996 117.893 73.998 115.878 74H106V66.9969Z" fill="#595959"/>
</svg>
