<svg width="32" height="32" viewBox="0 0 32 32" fill="none" xmlns="http://www.w3.org/2000/svg">
<path d="M16 32C24.8366 32 32 24.8366 32 16C32 7.16344 24.8366 0 16 0C7.16344 0 0 7.16344 0 16C0 24.8366 7.16344 32 16 32Z" fill="white"/>
<path d="M15.0062 20.8554L18.2619 12.6346L21.6552 20.8554H15.0062ZM8.19284 20.8554L11.4485 12.6346L14.8418 20.8554H8.19284ZM25.1034 18.979H27.6424L27.504 19.4483H25.3247L25.1034 18.979ZM24.6067 17.8206H27.8616L27.7801 18.3172H24.8273L24.6067 17.8206ZM24.1107 16.6621H28L27.9452 17.1588H24.332L24.1107 16.6621ZM23.6421 15.5037H28V15.9996H23.8353L23.6421 15.5037ZM23.1446 14.3452H27.8904L27.9452 14.8419H23.3378L23.1446 14.3452ZM22.6479 13.1861H27.6691L27.7801 13.6828H22.8692L22.6479 13.1861ZM16.0004 4H16.4964L17.0212 4.05551L17.5172 4.0829L17.9858 4.1658L18.4832 4.2487L18.9518 4.35899L19.4204 4.49668L19.8897 4.63437L20.111 4.71799L20.3316 4.80017L20.7721 4.99336L21.2147 5.18656L21.6271 5.40714L22.0409 5.62773L22.4547 5.87643L22.8426 6.1518L23.2283 6.4279L23.5873 6.70327L23.9449 7.00748L24.3039 7.33836L24.6348 7.66924L24.9657 8.00012L25.2699 8.35911L25.4076 8.55159L25.546 8.7455L25.8481 9.13117L26.0975 9.51756L26.3455 9.90394L26.5935 10.3177L26.786 10.7589L27.0073 11.1727L27.1731 11.6139L27.3382 12.0824L27.504 12.5243H22.3718L19.1998 5.10366L15.8893 13.4622L12.4131 5.18656L6.28963 20.9931L9.07597 24.4692H23.2549L25.8481 20.6896L25.6008 20.1108H27.2834L27.1169 20.5519L26.9244 20.9657L26.7312 21.3795L26.5387 21.7659L26.2907 22.1797L26.0694 22.5653L25.7933 22.9243L25.546 23.2826L25.2699 23.6416L24.9657 23.9999L24.6629 24.3034L24.332 24.6342L23.9996 24.9377L23.6687 25.2412L23.3112 25.5173L22.9521 25.7934L22.5931 26.0414L22.2074 26.2894L21.8218 26.5107L21.4072 26.7305L20.9934 26.9237L20.5796 27.0895L20.1391 27.2553L19.7246 27.4204L19.2827 27.5588L18.8141 27.6684L18.3715 27.7794L17.9043 27.8623L17.683 27.8897L17.4343 27.9171L16.9649 27.9719L16.4964 28H15.3941L14.7871 27.9445L14.1786 27.8623L13.5716 27.7513L12.9927 27.6136L12.4412 27.4752L11.889 27.2827L11.3375 27.0621L10.8134 26.8134L10.2893 26.5655L10.0406 26.3997L9.79256 26.262L9.29585 25.9585L8.82653 25.6276L8.35793 25.2686L8.13806 25.0754L7.94413 24.8829L7.72425 24.6898L7.53104 24.4966L7.11724 24.0828L6.73011 23.6416L6.56502 23.4203L6.39921 23.1723L6.04163 22.7038L5.90322 22.4832L5.73741 22.2345L5.59971 21.9865L5.4613 21.7104L5.18519 21.2137L4.93791 20.6622L4.74471 20.1382L4.5515 19.5586L4.38569 19.0071L4.30278 18.7036L4.24799 18.4275L4.13769 17.8206L4.05479 17.2417L4.02667 16.6066L4 16.3031V15.9996L4.02667 15.3934L4.05479 14.7864L4.13769 14.1794L4.24799 13.5725L4.38569 12.9936L4.5515 12.4414L4.93791 11.3385L5.18519 10.8144L5.4613 10.2903L5.59971 10.0416L5.73741 9.79365L6.04163 9.29697L6.39921 8.82768L6.73011 8.35911L6.92475 8.13853L7.11724 7.94533L7.31044 7.72475L7.53104 7.53155L7.94413 7.11777L8.35793 6.73138L8.60665 6.56631L8.82653 6.4005L9.29585 6.04151L9.54456 5.90382L9.79256 5.73802L10.0406 5.60034L10.2893 5.46265L10.8134 5.18656L11.3375 4.93858L11.889 4.71799L12.4412 4.55219L12.9927 4.38639L13.2955 4.30349L13.5716 4.2487L13.8758 4.19391L14.1786 4.13841L14.7871 4.05551L15.3941 4.02811L15.6961 4H16.0004Z" fill="#D9222A"/>
</svg>
