<?xml version="1.0" encoding="UTF-8"?>
<svg xmlns="http://www.w3.org/2000/svg" xmlns:xlink="http://www.w3.org/1999/xlink" width="24pt" height="24pt" viewBox="0 0 24 24" version="1.1">
<g id="surface1">
<path style=" stroke:none;fill-rule:evenodd;fill:rgb(100%,100%,100%);fill-opacity:1;" d="M 12.558594 18.53125 C 13.566406 18.53125 14.382812 19.34375 14.382812 20.34375 C 14.382812 21.34375 13.566406 22.152344 12.558594 22.152344 C 11.546875 22.152344 10.730469 21.34375 10.730469 20.34375 C 10.730469 19.34375 11.546875 18.53125 12.558594 18.53125 Z M 3.359375 1.203125 L 3.449219 1.28125 L 7.554688 5.375 C 9.09375 4.878906 10.746094 4.617188 12.460938 4.617188 C 16.898438 4.617188 20.804688 6.386719 23.734375 9.304688 C 23.910156 9.394531 24 9.660156 24 9.925781 C 24 10.148438 23.9375 10.308594 23.816406 10.457031 L 23.734375 10.546875 L 22.492188 11.785156 C 22.136719 12.140625 21.605469 12.140625 21.25 11.785156 C 19.03125 9.570312 15.921875 8.15625 12.460938 8.15625 C 11.792969 8.15625 11.136719 8.207031 10.5 8.308594 L 13.746094 11.542969 C 15.785156 11.78125 17.550781 12.695312 18.921875 14.058594 C 19.253906 14.382812 19.28125 14.859375 19.003906 15.210938 L 18.921875 15.304688 L 18.21875 16.003906 L 21.785156 19.558594 C 22.113281 19.882812 22.148438 20.390625 21.886719 20.753906 L 21.808594 20.851562 C 21.800781 20.855469 21.796875 20.863281 21.789062 20.867188 C 21.476562 21.183594 20.984375 21.210938 20.640625 20.949219 L 20.550781 20.871094 L 15.582031 15.917969 C 15.175781 15.660156 14.730469 15.449219 14.261719 15.296875 L 10.640625 11.699219 C 10.835938 11.65625 11.035156 11.617188 11.234375 11.585938 L 8.453125 8.816406 C 8.277344 8.875 8.101562 8.9375 7.929688 9.007812 L 5.234375 6.328125 C 5.394531 6.246094 5.554688 6.167969 5.71875 6.089844 L 2.214844 2.597656 C 1.886719 2.273438 1.851562 1.761719 2.113281 1.398438 L 2.191406 1.304688 L 2.210938 1.285156 C 2.523438 0.972656 3.015625 0.945312 3.359375 1.203125 Z M 8.785156 12.347656 L 11.59375 15.136719 C 10.566406 15.332031 9.628906 15.816406 8.890625 16.550781 C 8.5625 16.875 8.085938 16.902344 7.730469 16.628906 L 7.636719 16.550781 L 6.382812 15.304688 C 6.027344 14.949219 6.027344 14.414062 6.382812 14.058594 C 7.085938 13.359375 7.894531 12.78125 8.785156 12.347656 Z M 3.65625 7.25 L 6.242188 9.820312 C 5.296875 10.363281 4.433594 11.027344 3.675781 11.785156 C 3.347656 12.109375 2.875 12.136719 2.523438 11.867188 L 2.433594 11.785156 L 1.1875 10.546875 C 1.011719 10.367188 0.921875 10.191406 0.921875 9.925781 C 0.921875 9.660156 1.011719 9.484375 1.1875 9.304688 C 1.9375 8.539062 2.761719 7.847656 3.65625 7.25 Z M 3.65625 7.25 "/>
</g>
</svg>
