<svg width="32" height="32" viewBox="0 0 32 32" fill="none" xmlns="http://www.w3.org/2000/svg">
<path d="M16 32C24.8366 32 32 24.8366 32 16C32 7.16344 24.8366 0 16 0C7.16344 0 0 7.16344 0 16C0 24.8366 7.16344 32 16 32Z" fill="white"/>
<path d="M16.416 9.84472C16.416 6.93494 18.7748 4.57611 21.6846 4.57611C24.5946 4.57611 26.9532 6.93494 26.9532 9.84472C26.9532 12.7545 24.5946 15.1133 21.6846 15.1133C18.7748 15.1133 16.416 12.7545 16.416 9.84472Z" fill="url(#paint0_radial_142_1976)"/>
<path d="M21.0661 7.77216H22.1413C21.9826 7.89478 21.9185 7.98535 21.9283 8.16929C21.9379 8.35341 22.5094 9.18658 22.5094 9.18658C22.6381 9.3961 22.666 9.60299 22.5774 9.80655L22.1317 10.5525C22.1317 10.5525 20.7851 8.45029 20.7463 8.21782C20.7076 7.98518 20.8658 7.81035 21.0661 7.77216Z" fill="white"/>
<path d="M22.8196 7.77216H23.895C23.7363 7.89478 23.6722 7.98535 23.6818 8.16929C23.6916 8.35341 24.2631 9.18658 24.2631 9.18658C24.3918 9.3961 24.4197 9.60299 24.3309 9.80655L23.8852 10.5525C23.8852 10.5525 22.5386 8.45029 22.5 8.21782C22.4612 7.98518 22.6195 7.81035 22.8196 7.77216Z" fill="white"/>
<path d="M24.5051 7.77216C24.6407 7.78179 25.4642 7.77216 25.4642 7.77216L24.7375 9.06062L24.2824 8.3147C24.2081 8.03195 24.2729 7.84468 24.5051 7.77216Z" fill="white"/>
<path d="M19.3127 8.63189C19.1937 8.63189 19.0972 8.53536 19.0972 8.41642C19.0972 8.29729 19.1937 8.20077 19.3127 8.20077C19.4318 8.20077 19.5281 8.29729 19.5281 8.41642C19.5281 8.53536 19.4318 8.63189 19.3127 8.63189ZM22.3545 12.0346L19.9424 8.03364C19.8114 7.86634 19.6383 7.77682 19.4192 7.77209H17.8208C18.3649 7.8779 19.3677 9.79878 20.3154 11.5017C20.9061 12.4971 21.4192 13.1188 21.7831 13.0227C22.4794 12.9633 22.8541 12.6968 22.81 12.1606C22.6495 12.1897 22.4943 12.1741 22.3545 12.0346Z" fill="white"/>
<path d="M8.93233 11.1517C8.93233 7.527 11.8057 4.5517 15.4731 4.22989V4.17523C12.3827 4.20817 8.0559 5.81389 5.67447 10.0968C3.26466 14.4309 3.4542 18.7784 6.25414 22.8758C8.43534 26.0681 11.5904 27.6707 15.4575 27.9396C15.4677 27.8261 15.4761 27.7751 15.4761 27.7241C15.4756 25.3812 15.4775 23.0385 15.4642 20.6958C15.4635 20.5625 15.367 20.4019 15.2671 20.3013C13.9357 18.9585 12.5954 17.6245 11.2577 16.2877C11.2043 16.2341 11.1514 16.1773 11.0969 16.1188C9.76182 14.8568 8.93233 13.0982 8.93233 11.1517Z" fill="url(#paint1_linear_142_1976)"/>
<path d="M11.2494 15.787C12.5763 14.4546 13.9005 13.1191 15.2345 11.7941C15.4118 11.6177 15.4897 11.4442 15.4882 11.1913C15.4754 8.9745 15.4761 6.75774 15.4729 4.54116C15.4727 4.44323 15.4729 4.3425 15.4729 4.22986C11.8056 4.55167 8.93213 7.52697 8.93213 11.1517C8.93213 13.0981 9.76179 14.8568 11.0969 16.1188C11.0702 16.0902 11.0441 16.0622 11.0157 16.0319C11.1058 15.9375 11.1759 15.8606 11.2494 15.787Z" fill="url(#paint2_linear_142_1976)"/>
<path d="M27.7803 16.0629C27.6484 16.0629 27.5144 16.0631 27.3804 16.0629C25.3109 16.0587 23.2417 16.058 21.1722 16.0446C20.9943 16.0435 20.8678 16.0941 20.746 16.1967C21.9432 17.4383 22.6765 19.102 22.6765 20.9319C22.6765 24.455 19.9617 27.3639 16.4421 27.8199C16.4434 27.8413 16.4448 27.8628 16.4458 27.884C22.892 27.8276 28.0664 21.9315 27.7803 16.0629Z" fill="url(#paint3_linear_142_1976)"/>
<path d="M22.6765 20.9319C22.6765 19.1019 21.9431 17.4382 20.7459 16.1967C20.7245 16.2148 20.7029 16.2312 20.6816 16.2528C19.3288 17.6181 17.9659 18.9739 16.6175 20.344C16.5098 20.4535 16.4358 20.6483 16.4351 20.8038C16.4248 23.0621 16.4301 25.3206 16.4322 27.579C16.4322 27.6596 16.4376 27.74 16.4422 27.8199C19.9617 27.3639 22.6765 24.455 22.6765 20.9319Z" fill="url(#paint4_linear_142_1976)"/>
<defs>
<radialGradient id="paint0_radial_142_1976" cx="0" cy="0" r="1" gradientUnits="userSpaceOnUse" gradientTransform="translate(19.7997 7.46818) scale(7.70489)">
<stop stop-color="#FFDB00"/>
<stop offset="1" stop-color="#FF5500"/>
</radialGradient>
<linearGradient id="paint1_linear_142_1976" x1="15.4761" y1="4.17523" x2="15.4761" y2="27.9396" gradientUnits="userSpaceOnUse">
<stop stop-color="#F22600"/>
<stop offset="1" stop-color="#800E14"/>
</linearGradient>
<linearGradient id="paint2_linear_142_1976" x1="13.207" y1="4.22986" x2="9.13691" y2="15.1018" gradientUnits="userSpaceOnUse">
<stop stop-color="#DA2200"/>
<stop offset="1" stop-color="#7C0D03"/>
</linearGradient>
<linearGradient id="paint3_linear_142_1976" x1="22.1169" y1="16.0446" x2="22.1169" y2="27.884" gradientUnits="userSpaceOnUse">
<stop stop-color="#EE2201"/>
<stop offset="1" stop-color="#7C0D13"/>
</linearGradient>
<linearGradient id="paint4_linear_142_1976" x1="19.8677" y1="16.698" x2="16.03" y2="26.8271" gradientUnits="userSpaceOnUse">
<stop stop-color="#800D04"/>
<stop offset="1" stop-color="#DC2200"/>
</linearGradient>
</defs>
</svg>
