<?xml version="1.0" encoding="UTF-8"?>
<svg xmlns="http://www.w3.org/2000/svg" xmlns:xlink="http://www.w3.org/1999/xlink" width="32pt" height="32pt" viewBox="0 0 32 32" version="1.1">
<defs>
<clipPath id="clip1">
  <path d="M 16 32 C 24.835938 32 32 24.835938 32 16 C 32 7.164062 24.835938 0 16 0 C 7.164062 0 0 7.164062 0 16 C 0 24.835938 7.164062 32 16 32 Z M 16 32 "/>
</clipPath>
<clipPath id="clip2">
  <path d="M 6 6 L 27 6 L 27 26 L 6 26 Z M 6 6 "/>
</clipPath>
<clipPath id="clip3">
  <path d="M 7.925781 17.1875 L 7.824219 17.773438 L 10.871094 17.773438 L 11.003906 17.1875 Z M 15.671875 17.773438 L 15.773438 17.1875 L 12.324219 17.1875 L 12.1875 17.773438 Z M 17.597656 14.8125 L 17.125 17.1875 L 16.988281 17.773438 L 16.515625 20.148438 L 11.714844 20.148438 L 11.613281 20.699219 L 17.226562 20.699219 L 17.96875 17.1875 L 18.445312 14.8125 L 25.171875 14.8125 L 24.667969 17.1875 L 19.289062 17.1875 L 18.074219 23.074219 L 11.105469 23.074219 L 11.003906 23.625 L 18.816406 23.625 L 19.558594 20.148438 L 20.035156 17.773438 L 24.566406 17.773438 L 24.089844 20.148438 L 20.878906 20.148438 L 20.167969 23.625 L 19.660156 26 L 9.179688 26 L 10.394531 20.148438 L 6 20.148438 L 6.507812 17.773438 L 6.609375 17.1875 L 7.117188 14.8125 L 11.476562 14.8125 L 12.695312 8.960938 L 17.496094 8.960938 L 18.105469 6 L 27 6 L 26.492188 8.375 L 18.917969 8.375 L 18.816406 8.960938 L 18.34375 11.335938 L 13.539062 11.335938 L 13.40625 11.886719 L 19.050781 11.886719 L 19.15625 11.335938 L 19.660156 8.960938 L 26.390625 8.960938 L 25.882812 11.335938 L 20.507812 11.335938 L 19.898438 14.261719 L 12.933594 14.261719 L 12.796875 14.8125 Z M 17.597656 14.8125 "/>
</clipPath>
</defs>
<g id="surface1">
<g clip-path="url(#clip1)" clip-rule="evenodd">
<rect x="0" y="0" width="32" height="32" style="fill:rgb(100%,100%,100%);fill-opacity:1;stroke:none;"/>
</g>
<g clip-path="url(#clip2)" clip-rule="nonzero">
<g clip-path="url(#clip3)" clip-rule="nonzero">
<path style=" stroke:none;fill-rule:nonzero;fill:rgb(11.372375%,47.058105%,25.881958%);fill-opacity:1;" d="M 1 1 L 32 1 L 32 31 L 1 31 Z M 1 1 "/>
</g>
</g>
</g>
</svg>
