<?xml version="1.0" encoding="UTF-8"?>
<svg xmlns="http://www.w3.org/2000/svg" xmlns:xlink="http://www.w3.org/1999/xlink" width="32pt" height="32pt" viewBox="0 0 32 32" version="1.1">
<defs>
<clipPath id="clip1">
  <path d="M 8 5 L 25 5 L 25 27 L 8 27 Z M 8 5 "/>
</clipPath>
<clipPath id="clip2">
  <path d="M 19.601562 5 L 19.601562 9.511719 C 19.601562 9.867188 19.890625 10.15625 20.246094 10.15625 L 24.757812 10.15625 L 24.757812 25.066406 C 24.757812 26.132812 23.890625 27 22.824219 27 L 9.933594 27 C 8.867188 27 8 26.132812 8 25.066406 L 8 6.933594 C 8 5.867188 8.867188 5 9.933594 5 Z M 21.878906 20.511719 L 11.222656 20.511719 C 10.867188 20.511719 10.578125 20.800781 10.578125 21.15625 C 10.578125 21.511719 10.867188 21.800781 11.222656 21.800781 L 21.878906 21.800781 C 22.238281 21.800781 22.523438 21.511719 22.523438 21.15625 C 22.523438 20.800781 22.238281 20.511719 21.878906 20.511719 Z M 21.707031 16.644531 L 11.222656 16.644531 C 10.867188 16.644531 10.578125 16.933594 10.578125 17.289062 C 10.578125 17.644531 10.867188 17.933594 11.222656 17.933594 L 21.707031 17.933594 C 22.066406 17.933594 22.351562 17.644531 22.351562 17.289062 C 22.351562 16.933594 22.066406 16.644531 21.707031 16.644531 Z M 21.535156 12.777344 L 11.222656 12.777344 C 10.867188 12.777344 10.578125 13.066406 10.578125 13.421875 C 10.578125 13.777344 10.867188 14.066406 11.222656 14.066406 L 21.535156 14.066406 C 21.894531 14.066406 22.179688 13.777344 22.179688 13.421875 C 22.179688 13.066406 21.894531 12.777344 21.535156 12.777344 Z M 17.667969 8.867188 L 11.222656 8.867188 C 10.867188 8.867188 10.578125 9.15625 10.578125 9.511719 C 10.578125 9.867188 10.867188 10.15625 11.222656 10.15625 L 17.667969 10.15625 C 18.027344 10.15625 18.3125 9.867188 18.3125 9.511719 C 18.3125 9.15625 18.027344 8.867188 17.667969 8.867188 Z M 20.890625 5.097656 C 21.191406 5.183594 21.476562 5.3125 21.707031 5.53125 L 24.15625 7.859375 C 24.445312 8.128906 24.640625 8.484375 24.71875 8.867188 L 20.890625 8.867188 Z M 20.890625 5.097656 "/>
</clipPath>
</defs>
<g id="surface1">
<g clip-path="url(#clip1)" clip-rule="nonzero">
<g clip-path="url(#clip2)" clip-rule="evenodd">
<path style=" stroke:none;fill-rule:nonzero;fill:rgb(60.784912%,60.784912%,60.784912%);fill-opacity:1;" d="M 3 0 L 29.757812 0 L 29.757812 32 L 3 32 Z M 3 0 "/>
</g>
</g>
</g>
</svg>
