<?xml version="1.0" encoding="UTF-8"?>
<svg xmlns="http://www.w3.org/2000/svg" xmlns:xlink="http://www.w3.org/1999/xlink" width="352pt" height="180pt" viewBox="0 0 352 180" version="1.1">
<defs>
<clipPath id="clip1">
  <path d="M 210.007812 8.613281 C 212.316406 8.625 214.316406 6.640625 214.328125 4.324219 C 214.339844 2.011719 212.355469 0.0117188 210.046875 0 C 207.738281 -0.0117188 205.742188 1.972656 205.730469 4.285156 C 205.71875 6.597656 207.699219 8.601562 210.007812 8.613281 M 192.761719 8.582031 C 194.925781 8.617188 196.925781 6.785156 197.09375 4.609375 C 197.269531 2.335938 195.355469 0.164062 193.058594 0.03125 C 190.789062 -0.0976562 188.65625 1.859375 188.566406 4.15625 C 188.480469 6.445312 190.464844 8.535156 192.761719 8.582031 M 223.570312 4.476562 C 223.664062 6.65625 225.601562 8.546875 227.777344 8.582031 C 230.066406 8.613281 232.113281 6.589844 232.101562 4.289062 C 232.09375 1.988281 230.035156 -0.0234375 227.742188 0.03125 C 225.445312 0.0859375 223.46875 2.191406 223.570312 4.476562 M 175.601562 8.527344 C 178.0625 8.421875 179.539062 6.984375 179.851562 4.570312 C 180.132812 2.375 178.074219 0.175781 175.832031 0.0585938 C 173.613281 -0.0546875 171.46875 1.945312 171.402344 4.191406 C 171.332031 6.429688 173.359375 8.625 175.601562 8.527344 M 162.613281 4.371094 C 162.652344 2.234375 160.742188 0.21875 158.589844 0.132812 C 156.34375 0.0429688 154.226562 2.136719 154.28125 4.394531 C 154.332031 6.546875 156.3125 8.484375 158.457031 8.476562 C 160.601562 8.472656 162.570312 6.523438 162.613281 4.371094 M 240.824219 4.191406 C 240.757812 6.441406 242.820312 8.542969 245.070312 8.515625 C 247.207031 8.492188 249.167969 6.5625 249.234375 4.417969 C 249.300781 2.171875 247.238281 0.0703125 244.988281 0.09375 C 242.851562 0.121094 240.894531 2.050781 240.824219 4.191406 M 209.886719 26.316406 C 212 26.402344 214.058594 24.511719 214.195312 22.363281 C 214.332031 20.128906 212.273438 17.964844 210.015625 17.972656 C 207.871094 17.980469 205.902344 19.925781 205.863281 22.078125 C 205.820312 24.21875 207.734375 26.230469 209.886719 26.316406 M 192.777344 26.316406 C 194.914062 26.351562 196.917969 24.4375 197 22.277344 C 197.085938 20.03125 194.988281 17.914062 192.738281 17.972656 C 190.585938 18.03125 188.65625 20.015625 188.667969 22.164062 C 188.679688 24.316406 190.628906 26.285156 192.777344 26.316406 M 227.757812 26.273438 C 229.898438 26.324219 231.910156 24.386719 231.957031 22.226562 C 232.007812 20.078125 230.074219 18.066406 227.914062 18.015625 C 225.773438 17.96875 223.761719 19.902344 223.714844 22.066406 C 223.664062 24.210938 225.597656 26.226562 227.757812 26.273438 M 262.433594 8.355469 C 264.757812 8.089844 266.132812 6.675781 266.265625 4.324219 C 266.390625 2.152344 264.335938 0.199219 262.164062 0.234375 C 259.992188 0.269531 258.078125 2.277344 258.160156 4.441406 C 258.238281 6.621094 260.296875 8.597656 262.433594 8.355469 M 175.71875 26.273438 C 177.878906 26.226562 179.8125 24.210938 179.761719 22.0625 C 179.710938 19.902344 177.703125 17.964844 175.558594 18.015625 C 173.402344 18.066406 171.46875 20.078125 171.519531 22.226562 C 171.566406 24.386719 173.578125 26.324219 175.71875 26.273438 M 241.175781 21.816406 C 241.007812 24.195312 242.195312 25.71875 244.628906 26.011719 C 246.972656 26.296875 248.882812 24.65625 248.910156 22.324219 C 248.9375 19.910156 247.675781 18.546875 245.273438 18.226562 C 242.917969 18.285156 241.347656 19.367188 241.175781 21.816406 M 158.394531 26.019531 C 160.808594 26.039062 162.183594 24.691406 162.324219 22.269531 C 162.460938 19.925781 160.6875 18.140625 158.34375 18.257812 C 155.914062 18.378906 154.699219 19.78125 154.53125 22.167969 C 154.726562 24.5625 155.96875 25.996094 158.394531 26.019531 M 136.773438 4.199219 C 136.71875 6.605469 138.035156 8.015625 140.457031 8.191406 C 142.800781 8.359375 144.605469 6.605469 144.519531 4.261719 C 144.429688 1.828125 143.058594 0.582031 140.667969 0.386719 C 138.28125 0.550781 136.828125 1.765625 136.773438 4.199219 M 210.070312 43.191406 C 212.503906 43.160156 213.867188 41.761719 213.84375 39.328125 C 213.820312 36.886719 212.414062 35.53125 209.984375 35.546875 C 207.535156 35.558594 206.328125 37.011719 206.15625 39.40625 C 206.375 41.8125 207.625 43.226562 210.070312 43.191406 M 196.648438 39.621094 C 196.777344 37.210938 195.527344 35.6875 193.085938 35.550781 C 190.683594 35.414062 189.164062 36.671875 189.019531 39.121094 C 188.875 41.539062 190.179688 42.910156 192.667969 43.257812 C 194.945312 43.160156 196.519531 42.085938 196.648438 39.621094 M 231.625 39.144531 C 231.4375 36.863281 230.121094 35.632812 227.839844 35.574219 C 225.621094 35.515625 223.996094 37.214844 224.035156 39.441406 C 224.070312 41.652344 225.765625 43.253906 227.988281 43.175781 C 230.175781 43.101562 231.804688 41.351562 231.625 39.144531 M 280.035156 8.101562 C 282.316406 8.042969 283.632812 6.8125 283.820312 4.53125 C 284 2.320312 282.371094 0.574219 280.179688 0.496094 C 277.960938 0.421875 276.269531 2.019531 276.230469 4.230469 C 276.191406 6.460938 277.816406 8.160156 280.035156 8.101562 M 175.824219 43.164062 C 178.101562 43 179.40625 41.699219 179.414062 39.414062 C 179.417969 36.976562 178.046875 35.636719 175.609375 35.574219 C 173.394531 35.519531 171.78125 37.25 171.839844 39.476562 C 171.894531 41.675781 173.613281 43.320312 175.824219 43.164062 M 136.890625 21.859375 C 136.679688 24.074219 138.308594 25.847656 140.503906 25.914062 C 142.734375 25.984375 144.449219 24.347656 144.390625 22.125 C 144.332031 19.796875 143.007812 18.625 140.820312 18.339844 C 138.515625 18.464844 137.109375 19.546875 136.890625 21.859375 M 262.421875 25.9375 C 264.699219 25.765625 266 24.460938 265.996094 22.175781 C 265.996094 19.734375 264.617188 18.402344 262.175781 18.351562 C 259.957031 18.304688 258.359375 20.03125 258.421875 22.269531 C 258.484375 24.464844 260.214844 26.105469 262.421875 25.9375 M 244.898438 43.128906 C 247.125 43.25 248.851562 41.574219 248.78125 39.347656 C 248.707031 37.046875 247.453125 35.75 245.160156 35.613281 C 242.9375 35.480469 241.257812 37.164062 241.269531 39.8125 C 241.445312 41.640625 242.582031 43 244.898438 43.128906 M 127.160156 4.582031 C 127.371094 2.414062 125.726562 0.632812 123.570312 0.566406 C 121.386719 0.5 119.660156 2.148438 119.726562 4.332031 C 119.792969 6.628906 121.117188 7.78125 123.265625 8.078125 C 125.542969 7.941406 126.933594 6.859375 127.160156 4.582031 M 158.304688 43.09375 C 160.484375 43.226562 162.230469 41.539062 162.164062 39.359375 C 162.089844 37.085938 160.847656 35.796875 158.585938 35.644531 C 156.410156 35.503906 154.710938 37.195312 154.714844 39.789062 C 154.898438 41.601562 156.019531 42.953125 158.304688 43.09375 M 206.367188 56.277344 C 206.179688 58.539062 207.394531 59.949219 209.636719 60.269531 C 211.773438 60.578125 213.683594 58.910156 213.714844 56.757812 C 213.75 54.457031 212.457031 53.25 210.335938 52.851562 C 208.039062 52.941406 206.554688 54 206.367188 56.277344 M 192.828125 60.269531 C 195.097656 60.261719 196.390625 58.945312 196.519531 56.675781 C 196.640625 54.511719 194.847656 52.75 192.6875 52.898438 C 190.402344 53.058594 189.292969 54.4375 189.089844 56.683594 C 189.386719 58.875 190.53125 60.28125 192.828125 60.269531 M 265.894531 39.304688 C 265.84375 37.03125 264.507812 35.761719 262.234375 35.675781 C 260.078125 35.59375 258.34375 37.429688 258.539062 39.585938 C 258.742188 41.867188 260.132812 42.960938 262.40625 43.117188 C 264.566406 42.777344 265.949219 41.605469 265.894531 39.304688 M 276.359375 22.183594 C 276.398438 24.457031 277.726562 25.734375 279.996094 25.835938 C 282.152344 25.933594 283.894531 24.109375 283.71875 21.953125 C 283.53125 19.667969 282.144531 18.566406 279.878906 18.394531 C 277.714844 18.71875 276.324219 19.882812 276.359375 22.183594 M 297.136719 7.949219 C 299.390625 7.996094 300.800781 6.640625 300.859375 4.394531 C 300.917969 2.140625 299.558594 0.734375 297.316406 0.664062 C 295.042969 0.59375 293.859375 2.023438 293.507812 4.210938 C 293.742188 6.429688 294.871094 7.898438 297.136719 7.949219 M 227.773438 60.234375 C 230.023438 60.257812 231.429688 58.902344 231.46875 56.65625 C 231.511719 54.402344 230.144531 53.003906 227.898438 52.949219 C 225.625 52.898438 224.453125 54.335938 224.097656 56.664062 C 224.417969 58.695312 225.488281 60.214844 227.773438 60.234375 M 179.277344 56.734375 C 179.359375 54.476562 178.015625 53.046875 175.78125 52.953125 C 173.53125 52.859375 172.109375 54.210938 172.003906 56.453125 C 171.898438 58.726562 173.320312 59.929688 175.488281 60.316406 C 177.714844 60.117188 179.191406 58.996094 179.277344 56.734375 M 109.851562 4.300781 C 109.863281 2.183594 108.550781 0.820312 106.46875 0.703125 C 104.21875 0.578125 102.761719 1.921875 102.65625 4.164062 C 102.546875 6.433594 103.988281 7.636719 106.1875 7.996094 C 108.386719 7.722656 109.839844 6.578125 109.851562 4.300781 M 137 39.472656 C 137.089844 41.71875 138.492188 43.078125 140.742188 43.007812 C 142.984375 42.9375 144.332031 41.519531 144.273438 39.265625 C 144.214844 36.996094 142.742188 35.871094 140.378906 35.628906 C 138.394531 36.050781 136.910156 37.179688 137 39.472656 M 279.835938 42.9375 C 282.085938 43.027344 283.527344 41.65625 283.59375 39.414062 C 283.652344 37.304688 282.300781 35.914062 280.226562 35.804688 C 277.960938 35.683594 276.753906 37.128906 276.367188 39.433594 C 276.679688 41.363281 277.726562 42.851562 279.835938 42.9375 M 158.496094 60.199219 C 160.601562 60.1875 161.957031 58.859375 162.042969 56.769531 C 162.136719 54.515625 160.789062 53.070312 158.546875 52.992188 C 156.277344 52.910156 155.09375 54.363281 154.765625 56.570312 C 155.058594 58.773438 156.222656 60.214844 158.496094 60.199219 M 248.628906 56.453125 C 248.558594 54.355469 247.21875 53.015625 245.117188 52.988281 C 242.867188 52.957031 241.453125 54.328125 241.433594 56.582031 C 241.414062 58.855469 242.890625 60.007812 245.085938 60.28125 C 247.289062 59.925781 248.710938 58.730469 248.628906 56.453125 M 123.53125 25.789062 C 125.773438 25.71875 127.136719 24.308594 127.078125 22.054688 C 127.019531 19.8125 125.605469 18.457031 123.355469 18.503906 C 121.089844 18.550781 119.960938 20.023438 119.726562 22.242188 C 120.078125 24.425781 121.261719 25.859375 123.53125 25.789062 M 206.511719 74.324219 C 206.445312 76.433594 207.769531 77.722656 209.84375 77.976562 C 211.714844 78.210938 213.703125 76.285156 213.570312 74.390625 C 213.421875 72.273438 212.128906 71.144531 210.054688 70.835938 C 207.984375 71.097656 206.582031 72.21875 206.511719 74.324219 M 297.179688 25.710938 C 299.425781 25.707031 300.828125 24.289062 300.78125 22.039062 C 300.742188 19.949219 299.367188 18.589844 297.273438 18.578125 C 295.007812 18.566406 293.851562 20.042969 293.582031 22.210938 C 293.933594 24.308594 295.074219 25.714844 297.179688 25.710938 M 262.0625 60.113281 C 264.171875 60.21875 265.46875 58.902344 265.761719 56.832031 C 266.03125 54.960938 264.144531 52.945312 262.238281 53.042969 C 260.121094 53.15625 258.976562 54.4375 258.636719 56.519531 C 258.859375 58.589844 259.96875 60.007812 262.0625 60.113281 M 192.671875 77.339844 C 194.78125 77.445312 196.078125 76.125 196.375 74.054688 C 196.640625 72.1875 194.753906 70.167969 192.851562 70.269531 C 190.730469 70.378906 189.585938 71.664062 189.246094 73.742188 C 189.46875 75.816406 190.578125 77.230469 192.671875 77.339844 M 123.441406 42.890625 C 125.539062 42.886719 126.800781 41.546875 126.984375 39.449219 C 127.152344 37.558594 125.175781 35.621094 123.300781 35.820312 C 121.203125 36.042969 120.09375 37.355469 119.855469 39.425781 C 120.183594 41.507812 121.328125 42.894531 123.441406 42.890625 M 144.152344 56.769531 C 144.269531 54.65625 142.957031 53.351562 140.886719 53.050781 C 139.019531 52.777344 137.003906 54.652344 137.09375 56.566406 C 137.199219 58.6875 138.476562 59.839844 140.554688 60.1875 C 142.625 59.972656 144.039062 58.863281 144.152344 56.769531 M 106.167969 25.695312 C 108.285156 25.613281 109.554688 24.382812 109.789062 22.300781 C 110.003906 20.421875 108.070312 18.445312 106.179688 18.59375 C 104.070312 18.765625 102.949219 20.066406 102.6875 21.96875 C 102.683594 23.9375 104.375 25.761719 106.167969 25.695312 M 175.691406 77.269531 C 177.667969 77.253906 178.996094 75.949219 179.082031 73.992188 C 179.171875 71.867188 177.84375 70.445312 175.738281 70.371094 C 173.613281 70.300781 172.441406 71.699219 172.117188 73.871094 C 172.4375 75.867188 173.554688 77.28125 175.691406 77.269531 M 314.527344 7.753906 C 316.496094 7.707031 317.8125 6.390625 317.863281 4.425781 C 317.914062 2.300781 316.574219 0.894531 314.464844 0.863281 C 312.339844 0.828125 311.1875 2.238281 310.902344 4.378906 C 311.246094 6.410156 312.382812 7.8125 314.527344 7.753906 M 227.996094 77.878906 C 229.953125 77.800781 231.265625 76.476562 231.277344 74.5 C 231.292969 72.375 229.941406 70.988281 227.828125 70.988281 C 225.703125 70.988281 224.574219 72.414062 224.324219 74.480469 C 224.675781 76.605469 225.867188 77.964844 227.996094 77.878906 M 85.066406 4.109375 C 84.964844 6.242188 86.273438 7.632812 88.398438 7.691406 C 90.382812 7.746094 91.71875 6.464844 91.820312 4.5 C 91.925781 2.367188 90.59375 1.164062 88.488281 0.859375 C 86.507812 1.066406 85.160156 2.140625 85.066406 4.109375 M 158.25 77.199219 C 160.378906 77.300781 161.765625 75.988281 161.824219 73.859375 C 161.878906 71.871094 160.601562 70.53125 158.640625 70.433594 C 156.507812 70.328125 155.3125 71.660156 155.003906 73.769531 C 155.210938 75.753906 156.285156 77.105469 158.25 77.199219 M 297.03125 42.75 C 299.15625 42.851562 300.546875 41.542969 300.605469 39.414062 C 300.660156 37.425781 299.378906 36.085938 297.421875 35.984375 C 295.289062 35.878906 294.089844 37.214844 293.785156 39.320312 C 293.992188 41.308594 295.066406 42.660156 297.03125 42.75 M 248.410156 74.519531 C 248.4375 72.386719 247.089844 71.011719 244.96875 71.054688 C 242.847656 71.09375 241.539062 72.515625 241.65625 74.644531 C 241.761719 76.613281 243.113281 77.683594 245.0625 77.875 C 247.066406 77.609375 248.382812 76.5 248.410156 74.519531 M 279.8125 59.976562 C 281.9375 60.089844 283.335938 58.789062 283.410156 56.660156 C 283.480469 54.671875 282.210938 53.324219 280.25 53.210938 C 278.117188 53.085938 276.914062 54.414062 276.585938 56.582031 C 276.796875 58.492188 277.84375 59.871094 279.8125 59.976562 M 314.398438 25.398438 C 316.472656 25.394531 317.652344 24.242188 317.664062 22.164062 C 317.675781 20.089844 316.515625 18.910156 314.441406 18.894531 C 312.359375 18.878906 311.289062 20.070312 311.128906 22.242188 C 311.292969 24.15625 312.292969 25.402344 314.398438 25.398438 M 105.992188 42.617188 C 108.027344 42.746094 109.355469 41.71875 109.492188 39.625 C 109.625 37.589844 108.597656 36.261719 106.507812 36.121094 C 104.46875 35.984375 103.25 37.039062 102.96875 39.117188 C 102.984375 41.140625 103.898438 42.480469 105.992188 42.617188 M 262.152344 77.683594 C 264.214844 77.714844 265.429688 76.585938 265.46875 74.503906 C 265.503906 72.433594 264.375 71.222656 262.292969 71.179688 C 260.222656 71.140625 259.121094 72.300781 258.941406 74.371094 C 259.046875 76.410156 260.0625 77.652344 262.152344 77.683594 M 126.6875 56.851562 C 126.816406 54.8125 125.789062 53.484375 123.703125 53.347656 C 121.667969 53.210938 120.34375 54.242188 120.203125 56.335938 C 120.066406 58.378906 121.117188 59.597656 123.195312 59.878906 C 125.210938 59.863281 126.550781 58.949219 126.6875 56.851562 M 137.441406 73.863281 C 137.457031 75.796875 138.523438 76.9375 140.457031 77.015625 C 142.519531 77.09375 143.765625 76.03125 143.832031 73.921875 C 143.890625 71.828125 142.734375 70.738281 140.664062 70.574219 C 138.609375 70.710938 137.425781 71.757812 137.441406 73.863281 M 91.640625 22.191406 C 91.671875 20.265625 90.652344 19.074219 88.71875 18.949219 C 86.671875 18.820312 85.363281 19.832031 85.25 21.945312 C 85.140625 24.019531 86.246094 25.171875 88.3125 25.382812 C 90.371094 25.296875 91.601562 24.304688 91.640625 22.191406 M 283.140625 74.371094 C 283.097656 72.421875 281.988281 71.3125 280.046875 71.324219 C 277.9375 71.332031 276.832031 72.566406 276.933594 74.644531 C 277.027344 76.605469 278.261719 77.511719 280.210938 77.585938 C 282.074219 77.351562 283.183594 76.324219 283.140625 74.371094 M 120.34375 73.683594 C 120.289062 75.777344 121.441406 76.960938 123.539062 76.921875 C 125.480469 76.886719 126.550781 75.738281 126.550781 73.796875 C 126.550781 71.835938 125.40625 70.847656 123.511719 70.65625 C 121.597656 70.785156 120.390625 71.71875 120.34375 73.683594 M 158.457031 94.769531 C 160.398438 94.753906 161.527344 93.667969 161.546875 91.722656 C 161.566406 89.613281 160.371094 88.480469 158.28125 88.546875 C 156.324219 88.613281 155.402344 89.835938 155.292969 91.765625 C 155.5 93.652344 156.5 94.785156 158.457031 94.769531 M 328.507812 22.128906 C 328.507812 24.074219 329.582031 25.21875 331.523438 25.25 C 333.621094 25.285156 334.769531 24.101562 334.714844 22.007812 C 334.664062 20.042969 333.457031 19.109375 331.539062 18.988281 C 329.648438 19.179688 328.503906 20.167969 328.507812 22.128906 M 172.492188 91.523438 C 172.453125 93.617188 173.558594 94.804688 175.664062 94.808594 C 177.601562 94.8125 178.726562 93.734375 178.789062 91.785156 C 178.851562 89.675781 177.6875 88.609375 175.480469 88.449219 C 173.742188 88.636719 172.527344 89.542969 172.492188 91.523438 M 192.988281 94.855469 C 194.921875 94.789062 196.007812 93.664062 196.027344 91.730469 C 196.050781 89.644531 194.921875 88.460938 192.832031 88.457031 C 190.726562 88.453125 189.707031 89.675781 189.601562 91.734375 C 189.789062 93.8125 190.910156 94.929688 192.988281 94.855469 M 245.082031 94.769531 C 247.023438 94.730469 248.136719 93.625 248.132812 91.683594 C 248.128906 89.570312 246.90625 88.453125 244.828125 88.546875 C 242.871094 88.636719 241.960938 89.871094 241.878906 91.820312 C 242.109375 93.691406 243.125 94.804688 245.082031 94.769531 M 230.984375 91.710938 C 230.992188 89.605469 229.832031 88.464844 227.738281 88.503906 C 225.796875 88.539062 224.707031 89.65625 224.6875 91.601562 C 224.667969 93.722656 225.871094 94.742188 227.929688 94.851562 C 229.847656 94.664062 230.980469 93.667969 230.984375 91.710938 M 210 94.855469 C 211.925781 94.882812 213.105469 93.851562 213.21875 91.914062 C 213.339844 89.863281 212.316406 88.5625 210.210938 88.460938 C 208.136719 88.359375 206.996094 89.472656 206.796875 91.546875 C 206.890625 93.605469 207.890625 94.828125 210 94.855469 M 106.300781 59.707031 C 108.242188 59.667969 109.355469 58.5625 109.351562 56.617188 C 109.351562 54.503906 108.128906 53.394531 106.046875 53.488281 C 104.089844 53.574219 103.179688 54.808594 103.097656 56.757812 C 103.328125 58.628906 104.347656 59.742188 106.300781 59.707031 M 314.386719 42.523438 C 316.492188 42.515625 317.617188 41.34375 317.566406 39.25 C 317.519531 37.300781 316.394531 36.222656 314.453125 36.214844 C 312.332031 36.207031 311.328125 37.425781 311.230469 39.488281 C 311.429688 41.402344 312.429688 42.53125 314.386719 42.523438 M 88.339844 42.480469 C 90.441406 42.503906 91.597656 41.335938 91.542969 39.242188 C 91.488281 37.292969 90.328125 36.238281 88.390625 36.257812 C 86.429688 36.277344 85.460938 37.433594 85.273438 39.515625 C 85.480469 41.210938 86.367188 42.453125 88.339844 42.480469 M 300.367188 56.882812 C 300.503906 54.820312 299.484375 53.519531 297.363281 53.445312 C 295.28125 53.371094 294.09375 54.496094 294.078125 56.605469 C 294.0625 58.5625 295.175781 59.582031 297.039062 59.785156 C 298.992188 59.730469 300.234375 58.847656 300.367188 56.882812 M 71.152344 7.417969 C 73.085938 7.464844 74.273438 6.425781 74.347656 4.476562 C 74.429688 2.386719 73.296875 1.1875 71.191406 1.195312 C 69.234375 1.203125 68.261719 2.375 68.09375 4.285156 C 68.238281 6.199219 69.191406 7.371094 71.152344 7.417969 M 331.601562 7.460938 C 333.707031 7.441406 334.820312 6.257812 334.761719 4.167969 C 334.703125 2.21875 333.566406 1.152344 331.628906 1.152344 C 329.503906 1.152344 328.511719 2.382812 328.421875 4.445312 C 328.632812 6.359375 329.648438 7.472656 331.601562 7.460938 M 71.347656 25.175781 C 73.101562 25.128906 74.21875 24.023438 74.269531 22.269531 C 74.328125 20.359375 73.199219 19.160156 71.296875 19.117188 C 69.371094 19.074219 68.398438 20.308594 68.152344 22.167969 C 68.433594 24.03125 69.421875 25.226562 71.347656 25.175781 M 137.613281 91.804688 C 137.691406 93.554688 138.800781 94.664062 140.558594 94.683594 C 142.464844 94.707031 143.648438 93.566406 143.660156 91.660156 C 143.671875 89.730469 142.429688 88.773438 140.566406 88.554688 C 138.714844 88.867188 137.527344 89.871094 137.613281 91.804688 M 297.328125 77.464844 C 299.082031 77.414062 300.195312 76.308594 300.25 74.554688 C 300.304688 72.648438 299.175781 71.449219 297.273438 71.40625 C 295.347656 71.363281 294.378906 72.59375 294.128906 74.457031 C 294.410156 76.316406 295.402344 77.515625 297.328125 77.464844 M 349.128906 7.277344 C 351.035156 7.453125 352.265625 6.324219 352.398438 4.449219 C 352.523438 2.6875 351.429688 1.507812 349.714844 1.332031 C 347.792969 1.140625 346.761719 2.339844 346.378906 4.132812 C 346.507812 5.910156 347.402344 7.117188 349.128906 7.277344 M 314.621094 59.625 C 316.355469 59.5 317.457031 58.386719 317.445312 56.621094 C 317.433594 54.710938 316.277344 53.542969 314.371094 53.566406 C 312.449219 53.589844 311.507812 54.84375 311.308594 56.90625 C 311.730469 58.496094 312.664062 59.765625 314.621094 59.625 M 192.601562 111.863281 C 194.5 111.980469 195.75 110.851562 195.804688 108.960938 C 195.859375 107.066406 194.664062 105.886719 192.765625 105.898438 C 191.003906 105.90625 190.074219 107.089844 189.765625 108.933594 C 190.007812 110.492188 190.851562 111.753906 192.601562 111.863281 M 209.734375 111.851562 C 211.640625 112.027344 212.867188 110.898438 213.003906 109.023438 C 213.128906 107.261719 212.03125 106.082031 210.320312 105.90625 C 208.398438 105.714844 207.367188 106.914062 206.984375 108.707031 C 207.113281 110.484375 208.007812 111.691406 209.734375 111.851562 M 331.59375 42.394531 C 333.5 42.398438 334.644531 41.222656 334.640625 39.3125 C 334.632812 37.550781 333.527344 36.433594 331.785156 36.339844 C 329.859375 36.238281 328.847656 37.425781 328.519531 39.265625 C 328.71875 41.144531 329.667969 42.390625 331.59375 42.394531 M 262.335938 94.71875 C 264.253906 94.636719 265.347656 93.460938 265.28125 91.542969 C 265.210938 89.625 264.023438 88.53125 262.109375 88.59375 C 260.175781 88.65625 259.25 89.882812 259.105469 91.789062 C 259.390625 93.636719 260.402344 94.800781 262.335938 94.71875 M 277.054688 91.59375 C 277.050781 93.496094 278.226562 94.667969 280.121094 94.636719 C 281.863281 94.605469 282.988281 93.464844 283.007812 91.714844 C 283.03125 89.796875 281.796875 88.832031 279.96875 88.601562 C 278.238281 88.898438 277.0625 89.832031 277.054688 91.59375 M 91.421875 56.738281 C 91.476562 54.835938 90.328125 53.636719 88.433594 53.613281 C 86.683594 53.585938 85.542969 54.714844 85.464844 56.449219 C 85.382812 58.371094 86.601562 59.363281 88.574219 59.667969 C 90.121094 59.355469 91.371094 58.507812 91.421875 56.738281 M 106.210938 76.800781 C 108.105469 76.78125 109.273438 75.605469 109.226562 73.707031 C 109.179688 71.964844 108.035156 70.84375 106.289062 70.832031 C 104.375 70.828125 103.417969 72.066406 103.183594 74.046875 C 103.558594 75.582031 104.425781 76.824219 106.210938 76.800781 M 331.777344 59.46875 C 333.378906 59.382812 334.476562 58.28125 334.484375 56.65625 C 334.496094 54.882812 333.363281 53.71875 331.601562 53.722656 C 329.828125 53.722656 328.898438 54.9375 328.675781 56.660156 C 329.011719 58.40625 329.996094 59.5625 331.777344 59.46875 M 68.316406 39.285156 C 68.261719 41.039062 69.375 42.222656 71.089844 42.296875 C 72.980469 42.382812 74.1875 41.191406 74.175781 39.300781 C 74.164062 37.550781 72.964844 36.621094 71.253906 36.363281 C 69.542969 36.613281 68.363281 37.539062 68.316406 39.285156 M 123.484375 94.59375 C 125.222656 94.558594 126.375 93.429688 126.371094 91.691406 C 126.363281 89.800781 125.140625 88.625 123.253906 88.726562 C 121.53125 88.820312 120.613281 90.035156 120.445312 91.761719 C 120.773438 93.46875 121.726562 94.628906 123.484375 94.59375 M 346.488281 22.042969 C 346.425781 23.800781 347.535156 24.984375 349.246094 25.074219 C 351.132812 25.171875 352.347656 23.984375 352.351562 22.09375 C 352.351562 20.34375 351.15625 19.410156 349.445312 19.140625 C 347.730469 19.375 346.550781 20.296875 346.488281 22.042969 M 314.609375 77.304688 C 316.207031 77.203125 317.300781 76.097656 317.292969 74.46875 C 317.28125 72.699219 316.144531 71.539062 314.382812 71.558594 C 312.609375 71.582031 311.683594 72.796875 311.480469 74.523438 C 311.839844 76.265625 312.824219 77.421875 314.609375 77.304688 M 300.101562 91.605469 C 300.085938 89.976562 299 88.871094 297.40625 88.785156 C 295.628906 88.683594 294.4375 89.800781 294.359375 91.550781 C 294.28125 93.335938 295.46875 94.300781 297.308594 94.617188 C 298.890625 94.296875 300.117188 93.410156 300.101562 91.605469 M 143.4375 108.914062 C 143.429688 107.136719 142.289062 106 140.523438 106.082031 C 138.773438 106.164062 137.695312 107.355469 137.851562 109.144531 C 137.992188 110.761719 139.132812 111.605469 140.710938 111.738281 C 142.359375 111.464844 143.445312 110.542969 143.4375 108.914062 M 224.871094 108.585938 C 224.695312 110.492188 225.820312 111.726562 227.695312 111.859375 C 229.449219 111.984375 230.628906 110.886719 230.800781 109.171875 C 230.996094 107.25 229.800781 106.214844 228.007812 105.832031 C 226.238281 105.960938 225.03125 106.855469 224.871094 108.585938 M 244.957031 111.816406 C 246.707031 111.863281 247.886719 110.746094 247.953125 109.027344 C 248.03125 107.136719 246.839844 105.929688 244.953125 105.949219 C 243.207031 105.964844 242.28125 107.167969 242.03125 108.882812 C 242.285156 110.597656 243.210938 111.773438 244.957031 111.816406 M 36.953125 6.925781 C 38.488281 6.890625 39.421875 5.976562 39.472656 4.4375 C 39.53125 2.757812 38.609375 1.726562 36.917969 1.6875 C 35.226562 1.652344 34.347656 2.652344 34.210938 4.320312 C 34.367188 6 35.265625 6.964844 36.953125 6.925781 M 56.984375 4.503906 C 57.125 2.75 56.027344 1.539062 54.328125 1.382812 C 52.4375 1.210938 51.203125 2.378906 51.125 4.257812 C 51.054688 6.011719 52.238281 6.972656 53.933594 7.308594 C 55.664062 7.148438 56.851562 6.230469 56.984375 4.503906 M 209.996094 128.800781 C 211.667969 128.820312 212.699219 127.8125 212.71875 126.136719 C 212.742188 124.460938 211.734375 123.429688 210.0625 123.40625 C 208.386719 123.382812 207.472656 124.402344 207.300781 126.085938 C 207.433594 127.742188 208.320312 128.78125 209.996094 128.800781 M 175.585938 128.722656 C 177.109375 128.765625 178.105469 127.925781 178.238281 126.382812 C 178.382812 124.710938 177.53125 123.617188 175.84375 123.492188 C 174.175781 123.367188 173.210938 124.292969 172.992188 125.996094 C 173.066406 127.640625 173.886719 128.675781 175.585938 128.722656 M 161.058594 125.933594 C 160.949219 124.242188 159.867188 123.371094 158.199219 123.496094 C 156.664062 123.605469 155.808594 124.589844 155.832031 126.125 C 155.855469 127.824219 156.875 128.660156 158.589844 128.761719 C 160.199219 128.542969 161.164062 127.621094 161.058594 125.933594 M 195.527344 126.070312 C 195.503906 124.394531 194.472656 123.386719 192.800781 123.40625 C 191.128906 123.429688 190.125 124.460938 190.140625 126.136719 C 190.160156 127.8125 191.203125 128.699219 192.855469 128.835938 C 194.53125 128.660156 195.550781 127.75 195.527344 126.070312 M 161.371094 109.046875 C 161.457031 107.15625 160.273438 105.9375 158.386719 105.949219 C 156.65625 105.957031 155.53125 107.117188 155.511719 108.863281 C 155.496094 110.621094 156.65625 111.570312 158.363281 111.882812 C 160.085938 111.699219 161.292969 110.777344 161.371094 109.046875 M 178.609375 109.15625 C 178.769531 107.25 177.640625 105.992188 175.765625 105.90625 C 173.875 105.816406 172.683594 107.003906 172.664062 108.902344 C 172.644531 110.671875 173.816406 111.613281 175.503906 111.929688 C 177.253906 111.785156 178.460938 110.886719 178.609375 109.15625 M 36.910156 110.128906 C 37.589844 110.109375 38.035156 109.738281 38.101562 109.054688 C 38.171875 108.246094 37.804688 107.695312 36.957031 107.636719 C 36.125 107.582031 35.671875 108.027344 35.601562 108.882812 C 35.648438 109.683594 36.066406 110.148438 36.910156 110.128906 M 158.496094 179.636719 C 159.171875 179.621094 159.621094 179.25 159.683594 178.566406 C 159.757812 177.757812 159.390625 177.207031 158.542969 177.148438 C 157.710938 177.089844 157.257812 177.535156 157.1875 178.394531 C 157.234375 179.195312 157.652344 179.660156 158.496094 179.636719 M 260.980469 178.441406 C 260.996094 179.121094 261.367188 179.570312 262.050781 179.632812 C 262.855469 179.707031 263.40625 179.335938 263.464844 178.488281 C 263.519531 177.65625 263.078125 177.199219 262.222656 177.128906 C 261.417969 177.179688 260.957031 177.59375 260.980469 178.441406 M 175.53125 179.734375 C 176.34375 179.792969 176.902344 179.398438 176.972656 178.570312 C 177.050781 177.628906 176.601562 177.03125 175.59375 177.046875 C 174.765625 177.0625 174.339844 177.535156 174.28125 178.371094 C 174.296875 179.183594 174.707031 179.675781 175.53125 179.734375 M 244.867188 179.734375 C 245.660156 179.804688 246.269531 179.457031 246.359375 178.625 C 246.464844 177.699219 246.050781 177.070312 245.039062 177.046875 C 244.210938 177.03125 243.761719 177.484375 243.660156 178.449219 C 243.691406 179.101562 244.027344 179.660156 244.867188 179.734375 M 192.617188 179.730469 C 193.550781 179.820312 194.167969 179.394531 194.171875 178.382812 C 194.179688 177.554688 193.71875 177.089844 192.898438 177.046875 C 192.070312 177.003906 191.601562 177.433594 191.464844 178.359375 C 191.480469 179.039062 191.773438 179.648438 192.617188 179.730469 M 227.867188 179.738281 C 228.878906 179.699219 229.28125 179.058594 229.167969 178.140625 C 229.058594 177.3125 228.445312 176.964844 227.652344 177.050781 C 226.824219 177.144531 226.46875 177.6875 226.484375 178.503906 C 226.589844 179.316406 227.035156 179.769531 227.867188 179.738281 M 297.257812 159.820312 C 296.246094 159.8125 295.808594 160.414062 295.894531 161.355469 C 295.96875 162.183594 296.535156 162.570312 297.34375 162.507812 C 298.164062 162.441406 298.574219 161.949219 298.582031 161.128906 C 298.515625 160.304688 298.089844 159.828125 297.257812 159.820312 M 106.296875 162.414062 C 106.976562 162.394531 107.425781 162.023438 107.488281 161.339844 C 107.5625 160.535156 107.195312 159.984375 106.347656 159.925781 C 105.515625 159.867188 105.0625 160.3125 104.992188 161.171875 C 105.039062 161.972656 105.457031 162.4375 106.296875 162.414062 M 349.285156 127.449219 C 350.085938 127.519531 350.675781 127.15625 350.757812 126.320312 C 350.851562 125.386719 350.425781 124.769531 349.414062 124.761719 C 348.585938 124.753906 348.152344 125.222656 348.070312 126.039062 C 348.066406 126.867188 348.460938 127.375 349.285156 127.449219 M 55.300781 126.125 C 55.320312 125.4375 54.960938 124.960938 54.300781 124.867188 C 53.523438 124.753906 52.910156 125.074219 52.816406 125.929688 C 52.730469 126.734375 53.117188 127.25 54.148438 127.378906 C 54.730469 127.300781 55.28125 126.988281 55.300781 126.125 M 330.371094 143.871094 C 330.328125 144.550781 330.660156 145.039062 331.328125 145.164062 C 332.113281 145.308594 332.726562 144.992188 332.847656 144.15625 C 332.960938 143.371094 332.609375 142.8125 331.753906 142.6875 C 330.9375 142.664062 330.421875 143.019531 330.371094 143.871094 M 3.097656 56.765625 C 3.171875 55.960938 2.800781 55.410156 1.953125 55.351562 C 1.125 55.292969 0.671875 55.738281 0.601562 56.597656 C 0.648438 57.398438 1.0625 57.863281 1.90625 57.839844 C 2.585938 57.820312 3.035156 57.453125 3.097656 56.765625 Z M 88.277344 145.523438 C 89.203125 145.632812 89.875 145.050781 89.996094 144.179688 C 90.148438 143.125 89.507812 142.421875 88.457031 142.371094 C 87.542969 142.328125 87.027344 142.96875 86.8125 143.996094 C 86.945312 144.734375 87.378906 145.414062 88.277344 145.523438 M 125.023438 161.261719 C 125.097656 160.332031 124.484375 159.679688 123.613281 159.601562 C 122.5625 159.503906 121.867188 160.15625 121.878906 161.222656 C 121.886719 162.125 122.523438 162.636719 123.429688 162.773438 C 124.339844 162.667969 124.949219 162.160156 125.023438 161.261719 M 18.917969 75.394531 C 19.847656 75.492188 20.511719 74.886719 20.613281 74.023438 C 20.738281 72.976562 20.09375 72.265625 19.035156 72.246094 C 18.121094 72.226562 17.613281 72.867188 17.445312 73.777344 C 17.527344 74.679688 18.03125 75.300781 18.917969 75.394531 M 3.4375 39.464844 C 3.503906 38.53125 2.898438 37.882812 2.027344 37.800781 C 0.976562 37.703125 0.28125 38.359375 0.289062 39.421875 C 0.300781 40.328125 0.9375 40.839844 1.945312 40.992188 C 2.714844 40.832031 3.375 40.378906 3.4375 39.464844 M 211.601562 178.375 C 211.550781 177.328125 210.847656 176.679688 209.792969 176.832031 C 208.925781 176.957031 208.335938 177.632812 208.457031 178.554688 C 208.574219 179.4375 209.195312 179.945312 210.09375 180 C 211.007812 179.808594 211.644531 179.285156 211.601562 178.375 M 349.484375 107.019531 C 348.417969 106.976562 347.714844 107.535156 347.585938 108.589844 C 347.4375 109.777344 347.988281 110.605469 349.210938 110.730469 C 350.402344 110.851562 351.125 110.230469 351.320312 108.871094 C 351.238281 107.851562 350.726562 107.070312 349.484375 107.019531 M 71.140625 110.875 C 72.484375 110.917969 73.25 110.199219 73.242188 108.839844 C 73.234375 107.640625 72.558594 106.929688 71.359375 106.886719 C 70.007812 106.835938 69.3125 107.578125 69.234375 108.867188 C 69.320312 110.113281 69.9375 110.835938 71.140625 110.875 M 55.761719 108.804688 C 55.699219 107.785156 55.019531 107.109375 53.980469 107.171875 C 52.964844 107.226562 52.292969 107.914062 52.347656 108.953125 C 52.398438 109.980469 53.105469 110.527344 54.121094 110.632812 C 55.121094 110.410156 55.824219 109.855469 55.761719 108.804688 M 210.074219 163.089844 C 211.269531 163.0625 211.941406 162.390625 211.941406 161.195312 C 211.945312 159.828125 211.148438 159.164062 209.832031 159.253906 C 208.628906 159.335938 208.097656 160.117188 208.09375 161.292969 C 208.226562 162.480469 208.886719 163.117188 210.074219 163.089844 M 192.613281 163.082031 C 193.765625 163.191406 194.601562 162.671875 194.734375 161.464844 C 194.875 160.160156 194.28125 159.308594 192.90625 159.25 C 191.722656 159.199219 191.046875 159.832031 190.902344 161.015625 C 190.894531 162.191406 191.414062 162.972656 192.613281 163.082031 M 175.640625 163.089844 C 176.832031 163.082031 177.53125 162.4375 177.550781 161.238281 C 177.578125 159.882812 176.816406 159.183594 175.484375 159.253906 C 174.285156 159.3125 173.730469 160.070312 173.699219 161.355469 C 173.828125 162.417969 174.4375 163.097656 175.640625 163.089844 M 156.589844 161.226562 C 156.609375 162.296875 157.21875 162.949219 158.277344 163.019531 C 159.480469 163.097656 160.238281 162.484375 160.296875 161.257812 C 160.351562 160.035156 159.667969 159.390625 158.453125 159.285156 C 157.253906 159.375 156.570312 159.996094 156.589844 161.226562 M 140.714844 162.878906 C 141.730469 162.816406 142.402344 162.132812 142.34375 161.089844 C 142.285156 160.074219 141.601562 159.402344 140.558594 159.457031 C 139.539062 159.511719 138.992188 160.21875 138.886719 161.234375 C 139.109375 162.238281 139.667969 162.941406 140.714844 162.878906 M 314.3125 128.097656 C 315.65625 128.140625 316.417969 127.421875 316.414062 126.0625 C 316.40625 124.863281 315.730469 124.152344 314.53125 124.109375 C 313.179688 124.0625 312.484375 124.804688 312.40625 126.089844 C 312.492188 127.339844 313.109375 128.058594 314.3125 128.097656 M 88.441406 128.027344 C 89.632812 128.015625 90.332031 127.375 90.355469 126.175781 C 90.382812 124.820312 89.617188 124.121094 88.289062 124.1875 C 87.085938 124.246094 86.535156 125.007812 86.503906 126.292969 C 86.628906 127.355469 87.242188 128.03125 88.441406 128.027344 M 71.167969 127.816406 C 72.214844 127.859375 72.894531 127.195312 72.953125 126.183594 C 73.015625 125.140625 72.339844 124.457031 71.324219 124.394531 C 70.28125 124.332031 69.71875 125.035156 69.46875 126.164062 C 69.660156 127.003906 70.117188 127.773438 71.167969 127.816406 M 331.597656 127.898438 C 332.78125 127.867188 333.484375 127.148438 333.394531 125.972656 C 333.304688 124.808594 332.507812 124.160156 331.335938 124.332031 C 330.335938 124.476562 329.8125 125.195312 329.792969 126.40625 C 330.042969 127.183594 330.53125 127.925781 331.597656 127.898438 M 106.019531 145.726562 C 107.183594 145.863281 107.949219 145.203125 108.039062 144.027344 C 108.117188 142.976562 107.472656 142.28125 106.480469 142.160156 C 105.304688 142.019531 104.640625 142.710938 104.429688 143.835938 C 104.472656 144.90625 105.019531 145.613281 106.019531 145.726562 M 123.492188 142.023438 C 122.304688 142 121.578125 142.621094 121.53125 143.820312 C 121.476562 145.164062 122.203125 145.898438 123.546875 145.859375 C 124.746094 145.824219 125.328125 145.09375 125.378906 143.925781 C 125.300781 142.730469 124.691406 142.042969 123.492188 142.023438 M 278.042969 143.75 C 277.957031 145.074219 278.621094 145.898438 279.992188 145.9375 C 281.183594 145.972656 281.9375 145.332031 282.019531 144.132812 C 282.113281 142.804688 281.433594 142.035156 280.070312 141.925781 C 278.890625 141.96875 278.121094 142.546875 278.042969 143.75 M 297.238281 145.800781 C 298.308594 145.800781 298.984375 145.210938 299.074219 144.15625 C 299.175781 142.964844 298.59375 142.171875 297.359375 142.089844 C 296.148438 142.011719 295.480469 142.671875 295.328125 144.054688 C 295.457031 145.046875 295.992188 145.804688 297.238281 145.800781 M 314.34375 145.652344 C 315.382812 145.707031 316.066406 145.035156 316.125 144.019531 C 316.183594 142.980469 315.511719 142.292969 314.496094 142.230469 C 313.453125 142.171875 312.886719 142.871094 312.667969 143.875 C 312.773438 144.894531 313.316406 145.597656 314.34375 145.652344 M 0 4.367188 C 0.03125 5.433594 0.628906 6.089844 1.691406 6.160156 C 2.890625 6.238281 3.652344 5.625 3.707031 4.394531 C 3.761719 3.175781 3.082031 2.53125 1.710938 2.410156 C 0.707031 2.554688 -0.0351562 3.113281 0 4.367188 M 0.0742188 21.914062 C -0.0546875 23.082031 0.601562 23.84375 1.773438 23.9375 C 2.820312 24.015625 3.515625 23.371094 3.636719 22.375 C 3.78125 21.195312 3.085938 20.53125 1.964844 20.320312 C 0.898438 20.363281 0.191406 20.914062 0.0742188 21.914062 M 36.90625 71.894531 C 35.71875 71.871094 34.996094 72.496094 34.949219 73.691406 C 34.894531 75.035156 35.617188 75.773438 36.964844 75.734375 C 38.164062 75.695312 38.746094 74.96875 38.796875 73.800781 C 38.714844 72.601562 38.109375 71.917969 36.90625 71.894531 M 17.28125 56.3125 C 17.109375 57.484375 17.753906 58.257812 18.917969 58.382812 C 19.957031 58.492188 20.667969 57.871094 20.820312 56.871094 C 21 55.691406 20.316406 55.019531 19.21875 54.769531 C 18.144531 54.785156 17.425781 55.308594 17.28125 56.3125 M 245.011719 163.027344 C 246.082031 163.042969 246.769531 162.464844 246.875 161.410156 C 246.996094 160.226562 246.425781 159.414062 245.195312 159.316406 C 243.992188 159.21875 243.304688 159.863281 243.132812 161.238281 C 243.246094 162.234375 243.761719 163.007812 245.011719 163.027344 M 53.867188 93.652344 C 55.195312 93.726562 56.007812 93.0625 56.046875 91.691406 C 56.078125 90.5 55.4375 89.746094 54.242188 89.664062 C 52.910156 89.574219 52.148438 90.261719 52.027344 91.78125 C 52.121094 92.777344 52.648438 93.582031 53.867188 93.652344 M 36.9375 93.367188 C 37.953125 93.292969 38.625 92.621094 38.566406 91.578125 C 38.507812 90.5625 37.824219 89.890625 36.785156 89.945312 C 35.761719 90 35.21875 90.707031 35.097656 91.847656 C 35.386719 92.667969 35.867188 93.449219 36.9375 93.367188 M 262.035156 162.953125 C 263.210938 163.058594 263.949219 162.386719 264.011719 161.207031 C 264.066406 160.164062 263.417969 159.480469 262.414062 159.382812 C 261.230469 159.265625 260.589844 159.976562 260.402344 161.101562 C 260.476562 162.160156 261.019531 162.863281 262.035156 162.953125 M 227.757812 163.089844 C 228.941406 163.125 229.6875 162.519531 229.746094 161.320312 C 229.816406 159.988281 229.117188 159.226562 227.761719 159.25 C 226.5625 159.269531 225.964844 159.980469 225.898438 161.171875 C 225.964844 162.347656 226.554688 163.050781 227.757812 163.089844 M 279.953125 162.878906 C 280.992188 162.933594 281.679688 162.257812 281.738281 161.246094 C 281.796875 160.203125 281.121094 159.519531 280.109375 159.457031 C 279.0625 159.394531 278.5 160.097656 278.28125 161.101562 C 278.386719 162.117188 278.929688 162.824219 279.953125 162.878906 M 18.832031 41.285156 C 19.984375 41.390625 20.820312 40.875 20.953125 39.664062 C 21.09375 38.363281 20.5 37.511719 19.125 37.453125 C 17.9375 37.398438 17.265625 38.035156 17.121094 39.21875 C 17.113281 40.394531 17.632812 41.171875 18.832031 41.285156 M 21.234375 21.875 C 21.082031 20.640625 20.191406 19.832031 18.929688 19.941406 C 17.558594 20.066406 16.703125 20.992188 16.871094 22.414062 C 17.019531 23.65625 17.914062 24.304688 19.160156 24.390625 C 20.527344 24.089844 21.40625 23.300781 21.234375 21.875 M 39.3125 22.273438 C 39.386719 20.730469 38.527344 19.765625 36.988281 19.6875 C 35.449219 19.605469 34.496094 20.476562 34.40625 22.015625 C 34.316406 23.570312 35.234375 24.402344 36.707031 24.648438 C 38.25 24.5625 39.238281 23.824219 39.3125 22.273438 M 262.457031 146.136719 C 263.683594 146.011719 264.511719 145.125 264.421875 143.855469 C 264.328125 142.46875 263.398438 141.609375 261.992188 141.75 C 260.757812 141.871094 260.085938 142.765625 259.980469 144.015625 C 260.25 145.398438 261.046875 146.28125 262.457031 146.136719 M 242.742188 144.027344 C 242.769531 145.300781 243.636719 146.164062 244.886719 146.230469 C 246.304688 146.304688 247.257812 145.414062 247.3125 144.007812 C 247.367188 142.582031 246.40625 141.820312 245.023438 141.597656 C 243.640625 141.832031 242.710938 142.589844 242.742188 144.027344 M 230.183594 144.113281 C 230.273438 142.5625 229.328125 141.582031 227.78125 141.589844 C 226.390625 141.597656 225.5 142.523438 225.480469 143.921875 C 225.460938 145.335938 226.378906 146.097656 227.742188 146.351562 C 229.132812 146.230469 230.101562 145.496094 230.183594 144.113281 M 351.835938 74.5 C 351.835938 72.929688 350.90625 71.992188 349.339844 72.019531 C 347.933594 72.046875 347.039062 72.949219 347.015625 74.363281 C 346.984375 75.949219 347.972656 76.730469 349.679688 76.921875 C 350.816406 76.605469 351.835938 75.960938 351.835938 74.5 M 212.4375 144.148438 C 212.535156 142.578125 211.640625 141.601562 210.082031 141.53125 C 208.65625 141.46875 207.734375 142.351562 207.625 143.738281 C 207.496094 145.316406 208.457031 146.15625 210.117188 146.4375 C 211.324219 146.21875 212.347656 145.578125 212.4375 144.148438 M 192.746094 146.300781 C 194.15625 146.359375 195.101562 145.476562 195.179688 144.105469 C 195.269531 142.558594 194.316406 141.578125 192.769531 141.589844 C 191.371094 141.597656 190.628906 142.558594 190.425781 143.933594 C 190.613281 145.308594 191.34375 146.246094 192.746094 146.300781 M 177.996094 143.976562 C 178.011719 142.570312 177.132812 141.632812 175.75 141.589844 C 174.203125 141.542969 173.242188 142.511719 173.292969 144.058594 C 173.335938 145.457031 174.300781 146.1875 175.679688 146.351562 C 177.050781 146.132812 177.976562 145.386719 177.996094 143.976562 M 156.152344 143.898438 C 156.113281 145.1875 156.945312 146.066406 158.179688 146.21875 C 159.617188 146.394531 160.582031 145.503906 160.726562 144.136719 C 160.875 142.710938 159.929688 141.90625 158.429688 141.574219 C 157.21875 141.804688 156.199219 142.445312 156.152344 143.898438 M 347.226562 91.445312 C 347.109375 92.847656 347.964844 93.78125 349.359375 93.859375 C 350.625 93.929688 351.507812 93.09375 351.617188 91.867188 C 351.742188 90.457031 350.859375 89.65625 349.480469 89.410156 C 348.21875 89.523438 347.332031 90.214844 347.226562 91.445312 M 334.027344 91.777344 C 334.058594 90.207031 333.148438 89.25 331.582031 89.242188 C 330.167969 89.238281 329.265625 90.128906 329.207031 91.535156 C 329.140625 93.117188 330.117188 93.925781 331.808594 94.148438 C 332.96875 93.863281 333.996094 93.226562 334.027344 91.777344 M 85.941406 91.519531 C 85.867188 93.0625 86.691406 94.054688 88.230469 94.15625 C 89.914062 94.261719 90.925781 93.355469 90.941406 91.640625 C 90.957031 90.078125 90.023438 89.277344 88.503906 89.109375 C 86.976562 89.207031 86.015625 89.957031 85.941406 91.519531 M 68.890625 91.566406 C 68.835938 92.980469 69.714844 93.925781 71.085938 94.003906 C 72.632812 94.097656 73.605469 93.140625 73.597656 91.59375 C 73.589844 90.1875 72.632812 89.445312 71.257812 89.242188 C 69.886719 89.429688 68.949219 90.164062 68.890625 91.566406 M 329.414062 108.867188 C 329.441406 110.269531 330.355469 111.175781 331.75 111.074219 C 333.117188 110.972656 333.96875 110.023438 333.792969 108.59375 C 333.636719 107.351562 332.734375 106.714844 331.519531 106.632812 C 330.242188 106.882812 329.394531 107.605469 329.414062 108.867188 M 39.214844 39.378906 C 39.21875 37.976562 38.335938 37.046875 36.949219 37.015625 C 35.402344 36.984375 34.445312 37.957031 34.511719 39.507812 C 34.570312 40.898438 35.535156 41.632812 36.921875 41.78125 C 38.289062 41.542969 39.210938 40.792969 39.214844 39.378906 M 351.925781 56.652344 C 351.953125 55.101562 351.105469 54.148438 349.558594 54.089844 C 347.863281 54.027344 346.894531 54.976562 346.921875 56.683594 C 346.949219 58.242188 347.914062 59.015625 349.4375 59.136719 C 350.960938 58.996094 351.894531 58.214844 351.925781 56.652344 M 56.511719 56.683594 C 56.546875 55.140625 55.6875 54.195312 54.148438 54.136719 C 52.605469 54.078125 51.667969 54.960938 51.601562 56.5 C 51.53125 58.058594 52.460938 58.871094 54.136719 59.125 C 55.414062 58.921875 56.476562 58.277344 56.511719 56.683594 M 36.6875 58.792969 C 38.085938 58.882812 39.007812 58.019531 39.058594 56.617188 C 39.105469 55.351562 38.265625 54.480469 37.035156 54.394531 C 35.628906 54.296875 34.839844 55.183594 34.605469 56.621094 C 34.777344 57.808594 35.441406 58.714844 36.6875 58.792969 M 299.515625 126.078125 C 299.527344 124.792969 298.664062 123.921875 297.425781 123.816406 C 296.003906 123.695312 295.039062 124.585938 294.945312 125.980469 C 294.847656 127.40625 295.796875 128.1875 297.191406 128.449219 C 298.566406 128.25 299.503906 127.503906 299.515625 126.078125 M 277.621094 126 C 277.589844 127.570312 278.515625 128.519531 280.082031 128.515625 C 281.492188 128.507812 282.394531 127.617188 282.441406 126.207031 C 282.492188 124.621094 281.511719 123.824219 280.003906 123.636719 C 278.597656 123.839844 277.65625 124.578125 277.621094 126 M 262.15625 128.609375 C 263.703125 128.644531 264.660156 127.796875 264.722656 126.246094 C 264.789062 124.546875 263.84375 123.574219 262.140625 123.601562 C 260.582031 123.625 259.808594 124.582031 259.683594 126.113281 C 259.816406 127.640625 260.597656 128.578125 262.15625 128.609375 M 143.09375 126.117188 C 143.09375 124.574219 142.199219 123.652344 140.652344 123.644531 C 139.109375 123.636719 138.199219 124.542969 138.183594 126.089844 C 138.167969 127.648438 139.113281 128.4375 140.625 128.609375 C 142.136719 128.453125 143.089844 127.679688 143.09375 126.117188 M 123.433594 128.460938 C 124.832031 128.464844 125.765625 127.582031 125.792969 126.191406 C 125.824219 124.640625 124.851562 123.6875 123.304688 123.753906 C 121.917969 123.808594 121.183594 124.777344 121.039062 126.164062 C 121.273438 127.53125 122.023438 128.460938 123.433594 128.460938 M 106.457031 128.304688 C 107.683594 128.191406 108.519531 127.3125 108.449219 126.046875 C 108.375 124.648438 107.441406 123.789062 106.039062 123.90625 C 104.8125 124.011719 104.121094 124.898438 104.003906 126.226562 C 104.273438 127.519531 105.046875 128.433594 106.457031 128.304688 M 140.402344 146.136719 C 141.8125 146.277344 142.738281 145.417969 142.835938 144.03125 C 142.925781 142.761719 142.101562 141.878906 140.871094 141.75 C 139.460938 141.605469 138.664062 142.484375 138.394531 143.867188 C 138.496094 145.121094 139.171875 146.011719 140.402344 146.136719 M 73.75 73.984375 C 73.84375 72.449219 73.03125 71.4375 71.492188 71.316406 C 69.816406 71.191406 68.785156 72.078125 68.746094 73.796875 C 68.714844 75.359375 69.632812 76.171875 71.140625 76.359375 C 72.675781 76.285156 73.652344 75.542969 73.75 73.984375 M 53.902344 76.175781 C 55.316406 76.277344 56.277344 75.402344 56.398438 74.042969 C 56.535156 72.5 55.597656 71.5 54.054688 71.460938 C 52.648438 71.425781 51.890625 72.375 51.648438 73.742188 C 51.785156 75.132812 52.515625 76.074219 53.902344 76.175781 M 88.574219 111.167969 C 89.828125 111.109375 90.695312 110.246094 90.726562 108.976562 C 90.765625 107.550781 89.867188 106.613281 88.460938 106.59375 C 87.042969 106.574219 86.292969 107.539062 86.097656 108.917969 C 86.363281 110.316406 87.140625 111.242188 88.574219 111.167969 M 106.265625 111.339844 C 107.808594 111.324219 108.710938 110.410156 108.703125 108.863281 C 108.695312 107.320312 107.777344 106.417969 106.234375 106.421875 C 104.679688 106.421875 103.902344 107.378906 103.746094 108.894531 C 103.921875 110.410156 104.707031 111.355469 106.265625 111.339844 M 299.726562 109.050781 C 299.820312 107.511719 299.011719 106.5 297.472656 106.382812 C 295.796875 106.253906 294.761719 107.136719 294.726562 108.859375 C 294.691406 110.421875 295.613281 111.234375 297.121094 111.421875 C 298.65625 111.347656 299.632812 110.609375 299.726562 109.050781 M 314.203125 111.238281 C 315.613281 111.378906 316.589844 110.53125 316.753906 109.171875 C 316.9375 107.617188 316.015625 106.613281 314.484375 106.527344 C 313.074219 106.445312 312.304688 107.390625 311.996094 108.835938 C 312.140625 110.109375 312.816406 111.097656 314.203125 111.238281 M 21.339844 4.25 C 21.328125 2.96875 20.464844 2.105469 19.222656 2.019531 C 17.800781 1.917969 16.84375 2.8125 16.769531 4.210938 C 16.695312 5.636719 17.652344 6.40625 19.039062 6.652344 C 20.417969 6.433594 21.351562 5.683594 21.339844 4.25 M 225.144531 126.195312 C 225.199219 127.867188 226.253906 128.855469 227.925781 128.800781 C 229.597656 128.746094 230.582031 127.6875 230.53125 126.015625 C 230.476562 124.335938 229.40625 123.476562 227.789062 123.367188 C 226.082031 123.578125 225.085938 124.519531 225.144531 126.195312 M 282.726562 108.789062 C 282.671875 107.117188 281.613281 106.125 279.941406 106.179688 C 278.273438 106.234375 277.289062 107.296875 277.339844 108.96875 C 277.390625 110.648438 278.460938 111.503906 280.078125 111.613281 C 281.785156 111.40625 282.78125 110.460938 282.726562 108.789062 M 126.054688 108.75 C 125.976562 107.050781 124.902344 106.164062 123.238281 106.261719 C 121.707031 106.355469 120.824219 107.324219 120.828125 108.859375 C 120.835938 110.558594 121.832031 111.421875 123.492188 111.535156 C 125.175781 111.355469 126.136719 110.433594 126.054688 108.75 M 334.230469 74.414062 C 334.234375 72.878906 333.355469 71.910156 331.824219 71.816406 C 330.160156 71.714844 329.082031 72.597656 329.003906 74.296875 C 328.921875 75.980469 329.878906 76.90625 331.566406 77.085938 C 333.226562 76.972656 334.222656 76.113281 334.230469 74.414062 M 317.035156 91.640625 C 317.042969 90.101562 316.160156 89.132812 314.628906 89.039062 C 312.964844 88.9375 311.890625 89.824219 311.808594 91.519531 C 311.726562 93.207031 312.6875 94.128906 314.375 94.308594 C 316.03125 94.195312 317.027344 93.339844 317.035156 91.640625 M 56.667969 39.238281 C 56.585938 37.535156 55.515625 36.652344 53.847656 36.753906 C 52.316406 36.84375 51.433594 37.8125 51.4375 39.351562 C 51.445312 41.050781 52.441406 41.910156 54.101562 42.023438 C 55.785156 41.84375 56.742188 40.921875 56.667969 39.238281 M 245.230469 128.722656 C 246.761719 128.625 247.652344 127.664062 247.644531 126.128906 C 247.640625 124.4375 246.664062 123.460938 244.976562 123.488281 C 243.277344 123.511719 242.460938 124.566406 242.378906 126.285156 C 242.617188 127.890625 243.546875 128.828125 245.230469 128.722656 M 71.074219 59.394531 C 72.847656 59.484375 74.003906 58.386719 74.050781 56.613281 C 74.089844 54.980469 73.023438 53.875 71.417969 53.789062 C 69.640625 53.695312 68.652344 54.820312 68.394531 56.554688 C 68.578125 58.199219 69.46875 59.316406 71.074219 59.394531 M 106.105469 94.460938 C 107.878906 94.53125 109.023438 93.425781 109.050781 91.648438 C 109.074219 90.019531 108.003906 88.921875 106.394531 88.851562 C 104.613281 88.773438 103.640625 89.910156 103.394531 91.632812 C 103.59375 93.285156 104.492188 94.394531 106.105469 94.460938 M 265.09375 108.675781 C 264.984375 107.082031 263.878906 105.984375 262.25 106.003906 C 260.484375 106.019531 259.328125 107.164062 259.355469 108.929688 C 259.386719 110.707031 260.605469 111.628906 262.324219 111.824219 C 264.0625 111.457031 265.21875 110.464844 265.09375 108.675781 M 88.53125 71.011719 C 86.753906 70.980469 85.605469 72.109375 85.648438 73.878906 C 85.6875 75.644531 86.882812 76.734375 88.65625 76.617188 C 90.257812 76.511719 91.136719 75.382812 91.292969 73.777344 C 91.058594 72.136719 90.152344 71.039062 88.53125 71.011719 M 51.261719 22.394531 C 51.398438 23.996094 52.523438 25.042969 54.152344 24.949219 C 55.90625 24.847656 56.988281 23.683594 56.84375 21.894531 C 56.714844 20.285156 55.578125 19.425781 53.96875 19.28125 C 52.222656 19.605469 51.109375 20.605469 51.261719 22.394531 M 349.386719 42.171875 C 351.160156 42.164062 352.296875 41.023438 352.214844 39.253906 C 352.132812 37.5 350.945312 36.417969 349.15625 36.574219 C 347.542969 36.71875 346.703125 37.859375 346.566406 39.441406 C 346.84375 41.09375 347.761719 42.183594 349.386719 42.171875 "/>
</clipPath>
</defs>
<g id="surface1">
<g clip-path="url(#clip1)" clip-rule="evenodd">
<rect x="0" y="0" width="352" height="180" style="fill:rgb(100%,100%,100%);fill-opacity:0.2;stroke:none;"/>
</g>
</g>
</svg>
