<?xml version="1.0" encoding="UTF-8"?>
<svg xmlns="http://www.w3.org/2000/svg" xmlns:xlink="http://www.w3.org/1999/xlink" width="32pt" height="32pt" viewBox="0 0 32 32" version="1.1">
<defs>
<clipPath id="clip1">
  <path d="M 16 32 C 24.835938 32 32 24.835938 32 16 C 32 7.164062 24.835938 0 16 0 C 7.164062 0 0 7.164062 0 16 C 0 24.835938 7.164062 32 16 32 Z M 16 32 "/>
</clipPath>
<clipPath id="clip2">
  <path d="M 8 2 L 24 2 L 24 29 L 8 29 Z M 8 2 "/>
</clipPath>
<clipPath id="clip3">
  <path d="M 16.625 22.875 C 16.851562 23.046875 17.035156 23.308594 17.039062 23.648438 C 17.050781 24.648438 17.082031 25.648438 17.089844 26.652344 C 17.089844 27.082031 17.078125 27.515625 17.019531 27.941406 C 16.980469 28.21875 16.796875 28.453125 16.5625 28.617188 C 16.410156 28.722656 16.246094 28.804688 16.089844 28.898438 L 15.554688 28.898438 C 15.421875 28.828125 15.289062 28.75 15.15625 28.679688 C 14.714844 28.449219 14.515625 28.050781 14.507812 27.589844 C 14.484375 26.347656 14.484375 25.101562 14.507812 23.859375 C 14.515625 23.398438 14.722656 23.015625 15.152344 22.769531 C 15.730469 22.4375 16.203125 22.550781 16.625 22.875 Z M 13.980469 21.40625 C 14.492188 21.972656 14.417969 22.738281 13.890625 23.257812 C 13.777344 23.371094 13.617188 23.441406 13.476562 23.523438 C 13.078125 23.757812 12.675781 23.988281 12.273438 24.21875 C 12.027344 24.359375 11.773438 24.488281 11.527344 24.625 C 11.253906 24.78125 10.964844 24.921875 10.707031 25.105469 C 10.269531 25.417969 9.789062 25.503906 9.300781 25.332031 C 9.035156 25.238281 8.804688 25.03125 8.6875 24.738281 C 8.644531 24.632812 8.5625 24.542969 8.5 24.445312 L 8.5 23.867188 C 8.554688 23.785156 8.628906 23.710938 8.664062 23.621094 C 8.789062 23.320312 9 23.121094 9.296875 22.984375 C 9.53125 22.875 9.742188 22.714844 9.96875 22.585938 C 10.363281 22.363281 10.765625 22.144531 11.160156 21.917969 C 11.542969 21.699219 11.921875 21.480469 12.289062 21.246094 C 12.890625 20.863281 13.582031 20.972656 13.980469 21.40625 Z M 19.445312 21.304688 C 19.808594 21.535156 20.195312 21.726562 20.566406 21.941406 C 20.792969 22.070312 21.011719 22.214844 21.238281 22.34375 C 21.632812 22.570312 22.050781 22.765625 22.425781 23.019531 C 22.730469 23.222656 23 23.492188 23.011719 23.90625 C 23.019531 24.191406 23.050781 24.472656 22.890625 24.742188 C 22.632812 25.171875 22.277344 25.394531 21.730469 25.367188 C 21.40625 25.421875 21.121094 25.238281 20.832031 25.054688 C 20.574219 24.890625 20.300781 24.757812 20.039062 24.605469 L 18.980469 23.980469 C 18.625 23.773438 18.277344 23.554688 17.910156 23.367188 C 17.441406 23.125 17.121094 22.421875 17.300781 21.914062 C 17.4375 21.53125 17.667969 21.238281 18.035156 21.074219 C 18.15625 21.015625 18.3125 21.027344 18.453125 21.011719 C 18.824219 20.976562 19.136719 21.109375 19.445312 21.304688 Z M 10.484375 16.164062 C 10.898438 16.378906 11.292969 16.625 11.695312 16.859375 C 12.015625 17.042969 12.335938 17.226562 12.65625 17.414062 C 13.03125 17.636719 13.402344 17.867188 13.78125 18.085938 C 14.066406 18.253906 14.210938 18.535156 14.277344 18.816406 C 14.421875 19.421875 14.171875 19.941406 13.65625 20.226562 C 13.347656 20.402344 12.980469 20.457031 12.632812 20.300781 C 12.339844 20.167969 12.050781 20.019531 11.769531 19.867188 C 11.363281 19.644531 10.960938 19.414062 10.558594 19.179688 C 10.183594 18.964844 9.8125 18.742188 9.449219 18.511719 C 9.234375 18.378906 9.019531 18.242188 8.835938 18.070312 C 8.722656 17.964844 8.671875 17.792969 8.589844 17.652344 C 8.566406 17.617188 8.53125 17.589844 8.5 17.554688 L 8.5 16.894531 C 8.539062 16.847656 8.59375 16.804688 8.621094 16.75 C 8.820312 16.285156 9.195312 16.050781 9.667969 15.960938 C 9.960938 15.90625 10.234375 16.035156 10.484375 16.164062 Z M 22.773438 16.457031 C 22.972656 16.71875 23.007812 16.804688 23.011719 17.0625 L 23.011719 17.183594 C 23.035156 17.734375 22.792969 18.09375 22.351562 18.339844 C 21.949219 18.566406 21.546875 18.792969 21.144531 19.027344 C 20.675781 19.300781 20.222656 19.601562 19.746094 19.863281 C 19.328125 20.09375 18.9375 20.390625 18.402344 20.355469 C 17.550781 20.304688 16.984375 19.289062 17.339844 18.597656 C 17.554688 18.175781 17.902344 17.980469 18.261719 17.761719 C 18.535156 17.597656 18.816406 17.4375 19.09375 17.277344 C 19.445312 17.074219 19.792969 16.871094 20.144531 16.667969 L 20.722656 16.34375 C 20.816406 16.289062 20.914062 16.234375 21.003906 16.171875 C 21.640625 15.765625 22.359375 15.914062 22.773438 16.457031 Z M 13.234375 10.953125 C 13.800781 11.019531 14.316406 11.589844 14.320312 12.160156 C 14.320312 12.566406 14.167969 12.882812 13.917969 13.152344 C 13.757812 13.324219 13.519531 13.425781 13.3125 13.542969 C 13.050781 13.695312 12.777344 13.828125 12.511719 13.976562 C 12.21875 14.140625 11.925781 14.304688 11.632812 14.476562 C 11.304688 14.667969 10.980469 14.875 10.648438 15.066406 C 10.359375 15.230469 10.074219 15.417969 9.71875 15.363281 C 9.261719 15.296875 8.894531 15.089844 8.683594 14.65625 C 8.636719 14.558594 8.5625 14.472656 8.5 14.378906 L 8.5 13.761719 C 8.535156 13.730469 8.582031 13.703125 8.597656 13.664062 C 8.765625 13.277344 9.03125 13.007812 9.417969 12.835938 C 9.675781 12.722656 9.90625 12.546875 10.148438 12.40625 L 11.324219 11.738281 C 11.59375 11.582031 11.855469 11.421875 12.125 11.265625 C 12.464844 11.0625 12.808594 10.902344 13.234375 10.953125 Z M 18.953125 10.988281 C 19.292969 11.148438 19.609375 11.351562 19.941406 11.53125 C 20.199219 11.675781 20.460938 11.808594 20.714844 11.957031 C 20.996094 12.117188 21.269531 12.289062 21.546875 12.453125 C 21.890625 12.65625 22.261719 12.816406 22.574219 13.058594 C 22.878906 13.292969 23.074219 13.625 23.015625 14.050781 C 23.089844 14.554688 22.808594 14.914062 22.429688 15.144531 C 22.113281 15.339844 21.730469 15.46875 21.339844 15.238281 C 20.910156 14.984375 20.472656 14.75 20.039062 14.507812 C 19.707031 14.320312 19.375 14.128906 19.042969 13.941406 L 18.257812 13.492188 C 18.101562 13.402344 17.945312 13.3125 17.792969 13.214844 C 17.375 12.953125 17.074219 12.203125 17.355469 11.726562 C 17.472656 11.527344 17.589844 11.304688 17.769531 11.171875 C 18.117188 10.910156 18.527344 10.789062 18.953125 10.988281 Z M 22.578125 6.160156 C 22.875 6.390625 23.082031 6.734375 23.011719 7.101562 C 23.03125 7.722656 22.730469 8.074219 22.265625 8.328125 C 22.003906 8.46875 21.761719 8.632812 21.503906 8.78125 C 21.144531 8.988281 20.773438 9.183594 20.414062 9.390625 C 20.046875 9.601562 19.675781 9.8125 19.316406 10.035156 C 18.753906 10.378906 18.339844 10.429688 17.808594 10.082031 C 17.371094 9.800781 17.039062 9.175781 17.332031 8.546875 C 17.503906 8.175781 17.789062 7.960938 18.117188 7.773438 C 18.496094 7.554688 18.871094 7.328125 19.25 7.109375 C 19.617188 6.898438 19.992188 6.699219 20.359375 6.492188 C 20.585938 6.363281 20.816406 6.238281 21.039062 6.097656 C 21.566406 5.765625 22.105469 5.796875 22.578125 6.160156 Z M 9.957031 5.917969 C 10.359375 5.972656 10.660156 6.214844 10.996094 6.386719 C 11.261719 6.527344 11.515625 6.695312 11.773438 6.851562 C 12.070312 7.023438 12.367188 7.199219 12.664062 7.367188 C 13.011719 7.5625 13.363281 7.746094 13.699219 7.953125 C 14.035156 8.15625 14.238281 8.464844 14.300781 8.851562 C 14.371094 9.3125 14.195312 9.695312 13.871094 10.011719 C 13.558594 10.320312 12.808594 10.394531 12.433594 10.160156 C 11.875 9.8125 11.285156 9.519531 10.710938 9.195312 C 10.179688 8.894531 9.644531 8.601562 9.128906 8.273438 C 8.910156 8.132812 8.714844 7.9375 8.625 7.667969 C 8.605469 7.601562 8.542969 7.550781 8.5 7.492188 L 8.5 6.832031 C 8.558594 6.753906 8.640625 6.683594 8.667969 6.59375 C 8.828125 6.121094 9.515625 5.851562 9.957031 5.917969 Z M 16.335938 2.5 C 16.460938 2.617188 16.585938 2.734375 16.703125 2.855469 C 16.898438 3.058594 17.03125 3.289062 17.03125 3.589844 C 17.027344 4.894531 17.027344 6.199219 17.03125 7.503906 C 17.03125 7.976562 16.796875 8.316406 16.410156 8.546875 C 15.84375 8.878906 14.925781 8.703125 14.636719 8.019531 C 14.550781 7.820312 14.492188 7.632812 14.492188 7.414062 C 14.496094 6.179688 14.496094 4.941406 14.492188 3.703125 C 14.492188 3.21875 14.722656 2.867188 15.113281 2.605469 C 15.15625 2.578125 15.1875 2.535156 15.222656 2.5 Z M 16.335938 2.5 "/>
</clipPath>
</defs>
<g id="surface1">
<g clip-path="url(#clip1)" clip-rule="evenodd">
<rect x="0" y="0" width="32" height="32" style="fill:rgb(100%,100%,100%);fill-opacity:1;stroke:none;"/>
</g>
<g clip-path="url(#clip2)" clip-rule="nonzero">
<g clip-path="url(#clip3)" clip-rule="nonzero">
<path style=" stroke:none;fill-rule:nonzero;fill:rgb(98.431396%,80.000305%,34.117126%);fill-opacity:1;" d="M 3.5 -2.5 L 28.027344 -2.5 L 28.027344 33.898438 L 3.5 33.898438 Z M 3.5 -2.5 "/>
</g>
</g>
</g>
</svg>
