<?xml version="1.0" encoding="UTF-8"?>
<svg xmlns="http://www.w3.org/2000/svg" xmlns:xlink="http://www.w3.org/1999/xlink" width="16pt" height="16pt" viewBox="0 0 16 16" version="1.1">
<defs>
<clipPath id="clip1">
  <path d="M 1 1 L 15 1 L 15 15 L 1 15 Z M 1 1 "/>
</clipPath>
<clipPath id="clip2">
  <path d="M 8 1.332031 C 7.085938 1.332031 6.21875 1.507812 5.410156 1.855469 C 4.597656 2.207031 3.886719 2.683594 3.285156 3.289062 C 2.679688 3.890625 2.203125 4.597656 1.855469 5.40625 C 1.507812 6.210938 1.332031 7.074219 1.332031 7.992188 C 1.332031 8.917969 1.507812 9.789062 1.855469 10.59375 C 2.203125 11.402344 2.679688 12.109375 3.285156 12.710938 C 3.886719 13.316406 4.597656 13.792969 5.410156 14.144531 C 6.21875 14.492188 7.085938 14.667969 8 14.667969 C 8.914062 14.667969 9.78125 14.492188 10.589844 14.144531 C 11.402344 13.792969 12.113281 13.316406 12.714844 12.710938 C 13.320312 12.109375 13.796875 11.402344 14.144531 10.59375 C 14.492188 9.789062 14.667969 8.917969 14.667969 7.992188 C 14.667969 7.074219 14.492188 6.210938 14.144531 5.40625 C 13.796875 4.597656 13.320312 3.890625 12.714844 3.289062 C 12.113281 2.683594 11.402344 2.207031 10.589844 1.855469 C 9.78125 1.507812 8.914062 1.332031 8 1.332031 Z M 8 1.332031 "/>
</clipPath>
<clipPath id="clip3">
  <path d="M 1 1 L 15 1 L 15 15 L 1 15 Z M 1 1 "/>
</clipPath>
<clipPath id="clip4">
  <path d="M 8 1.332031 C 7.085938 1.332031 6.21875 1.507812 5.410156 1.855469 C 4.597656 2.207031 3.886719 2.683594 3.285156 3.289062 C 2.679688 3.890625 2.203125 4.597656 1.855469 5.40625 C 1.507812 6.210938 1.332031 7.074219 1.332031 7.992188 C 1.332031 8.917969 1.507812 9.789062 1.855469 10.59375 C 2.203125 11.402344 2.679688 12.109375 3.285156 12.710938 C 3.886719 13.316406 4.597656 13.792969 5.410156 14.144531 C 6.21875 14.492188 7.085938 14.667969 8 14.667969 C 8.914062 14.667969 9.78125 14.492188 10.589844 14.144531 C 11.402344 13.792969 12.113281 13.316406 12.714844 12.710938 C 13.320312 12.109375 13.796875 11.402344 14.144531 10.59375 C 14.492188 9.789062 14.667969 8.917969 14.667969 7.992188 C 14.667969 7.074219 14.492188 6.210938 14.144531 5.40625 C 13.796875 4.597656 13.320312 3.890625 12.714844 3.289062 C 12.113281 2.683594 11.402344 2.207031 10.589844 1.855469 C 9.78125 1.507812 8.914062 1.332031 8 1.332031 Z M 8.671875 6.679688 L 8.671875 11.335938 L 7.328125 11.335938 L 7.328125 7.335938 L 6.671875 7.335938 L 6.671875 6.664062 L 8.671875 6.664062 Z M 8 5.992188 C 7.8125 5.992188 7.652344 5.925781 7.523438 5.796875 C 7.394531 5.664062 7.328125 5.511719 7.328125 5.335938 C 7.328125 5.148438 7.394531 4.988281 7.523438 4.859375 C 7.652344 4.726562 7.8125 4.664062 8 4.664062 C 8.1875 4.664062 8.347656 4.726562 8.476562 4.859375 C 8.605469 4.988281 8.671875 5.148438 8.671875 5.335938 C 8.671875 5.511719 8.605469 5.664062 8.476562 5.796875 C 8.347656 5.925781 8.1875 5.992188 8 5.992188 Z M 8 5.992188 "/>
</clipPath>
</defs>
<g id="surface1">
<g clip-path="url(#clip1)" clip-rule="nonzero">
<g clip-path="url(#clip2)" clip-rule="evenodd">
<rect x="0" y="0" width="16" height="16" style="fill:rgb(7.450867%,7.450867%,7.450867%);fill-opacity:1;stroke:none;"/>
</g>
</g>
<g clip-path="url(#clip3)" clip-rule="nonzero">
<g clip-path="url(#clip4)" clip-rule="evenodd">
<rect x="0" y="0" width="16" height="16" style="fill:rgb(100%,83.529663%,0%);fill-opacity:1;stroke:none;"/>
</g>
</g>
</g>
</svg>
