<svg width="24" height="24" viewBox="0 0 24 24" fill="none" xmlns="http://www.w3.org/2000/svg">
<path fill-rule="evenodd" clip-rule="evenodd" d="M12 2C10.6261 2 9.33022 2.26182 8.11241 2.78546C6.89461 3.30911 5.83295 4.02422 4.9274 4.93083C4.02185 5.83744 3.30757 6.89644 2.78454 8.10785C2.26151 9.31927 2 10.6127 2 11.9883C2 13.3794 2.26151 14.6807 2.78454 15.8921C3.30757 17.1036 4.02185 18.1626 4.9274 19.0692C5.83295 19.9758 6.89461 20.6909 8.11241 21.2145C9.33022 21.7382 10.6261 22 12 22C13.3739 22 14.6698 21.7382 15.8876 21.2145C17.1054 20.6909 18.1671 19.9758 19.0726 19.0692C19.9781 18.1626 20.6924 17.1036 21.2155 15.8921C21.7385 14.6807 22 13.3794 22 11.9883C22 10.6127 21.7385 9.31927 21.2155 8.10785C20.6924 6.89644 19.9781 5.83744 19.0726 4.93083C18.1671 4.02422 17.1054 3.30911 15.8876 2.78546C14.6698 2.26182 13.3739 2 12 2Z" fill="#131313"/>
<path fill-rule="evenodd" clip-rule="evenodd" d="M12 2C10.6261 2 9.33022 2.26182 8.11241 2.78546C6.89461 3.30911 5.83295 4.02422 4.9274 4.93083C4.02185 5.83744 3.30757 6.89644 2.78454 8.10785C2.26151 9.31927 2 10.6127 2 11.9883C2 13.3794 2.26151 14.6807 2.78454 15.8921C3.30757 17.1036 4.02185 18.1626 4.9274 19.0692C5.83295 19.9758 6.89461 20.6909 8.11241 21.2145C9.33022 21.7382 10.6261 22 12 22C13.3739 22 14.6698 21.7382 15.8876 21.2145C17.1054 20.6909 18.1671 19.9758 19.0726 19.0692C19.9781 18.1626 20.6924 17.1036 21.2155 15.8921C21.7385 14.6807 22 13.3794 22 11.9883C22 10.6127 21.7385 9.31927 21.2155 8.10785C20.6924 6.89644 19.9781 5.83744 19.0726 4.93083C18.1671 4.02422 17.1054 3.30911 15.8876 2.78546C14.6698 2.26182 13.3739 2 12 2ZM13.007 10.0188V17.0059H10.993V11.0035H10.0094V9.99531H13.007V10.0188ZM12 8.9871C11.719 8.9871 11.4809 8.88941 11.2857 8.69402C11.0906 8.49863 10.993 8.26807 10.993 8.00235C10.993 7.72098 11.0906 7.48261 11.2857 7.28722C11.4809 7.09183 11.719 6.99414 12 6.99414C12.281 6.99414 12.5191 7.09183 12.7143 7.28722C12.9094 7.48261 13.007 7.72098 13.007 8.00235C13.007 8.26807 12.9094 8.49863 12.7143 8.69402C12.5191 8.88941 12.281 8.9871 12 8.9871Z" fill="#FED500"/>
</svg>
