<?xml version="1.0" encoding="UTF-8"?>
<svg xmlns="http://www.w3.org/2000/svg" xmlns:xlink="http://www.w3.org/1999/xlink" width="32pt" height="32pt" viewBox="0 0 32 32" version="1.1">
<g id="surface1">
<path style=" stroke:none;fill-rule:nonzero;fill:rgb(41.567993%,70.195007%,21.176147%);fill-opacity:1;" d="M 26.714844 1 L 5.285156 1 C 2.917969 1 1 2.917969 1 5.285156 L 1 26.714844 C 1 29.082031 2.917969 31 5.285156 31 L 26.714844 31 C 29.082031 31 31 29.082031 31 26.714844 L 31 5.285156 C 31 2.917969 29.082031 1 26.714844 1 Z M 26.714844 1 "/>
<path style=" stroke:none;fill-rule:nonzero;fill:rgb(100%,100%,100%);fill-opacity:1;" d="M 26 24.886719 L 26 25.769531 L 6 25.769531 L 6 24.886719 Z M 24.769531 23.363281 L 24.769531 24.242188 L 7.230469 24.242188 L 7.230469 23.363281 Z M 12.042969 13.921875 L 12.042969 14.859375 L 11.394531 14.859375 L 11.394531 21.78125 L 12.042969 21.78125 L 12.042969 22.660156 L 8.230469 22.660156 L 8.230469 21.78125 L 8.933594 21.78125 L 8.933594 14.859375 L 8.230469 14.859375 L 8.230469 13.921875 Z M 17.90625 13.921875 L 17.90625 14.859375 L 17.261719 14.859375 L 17.261719 21.78125 L 17.90625 21.78125 L 17.90625 22.660156 L 14.09375 22.660156 L 14.09375 21.78125 L 14.738281 21.78125 L 14.738281 14.859375 L 14.09375 14.859375 L 14.09375 13.921875 Z M 23.769531 13.921875 L 23.769531 14.859375 L 23.066406 14.859375 L 23.066406 21.78125 L 23.769531 21.78125 L 23.769531 22.660156 L 19.898438 22.660156 L 19.898438 21.78125 L 20.605469 21.78125 L 20.605469 14.859375 L 19.898438 14.859375 L 19.898438 13.921875 Z M 15.96875 7 L 24.769531 10.8125 L 24.769531 13.277344 L 7.230469 13.277344 L 7.230469 10.8125 Z M 15.96875 7 "/>
</g>
</svg>
