<svg width="129" height="128" viewBox="0 0 129 128" fill="none" xmlns="http://www.w3.org/2000/svg">
<g clip-path="url(#clip0_5887_122)">
<path d="M100.607 72.4637L84.225 64.2724L73.3075 33.6999C72.0884 30.2914 68.8394 28 65.217 28C61.5947 28 58.3458 30.2914 57.1265 33.7016L46.2092 64.2725L29.8266 72.4637C27.465 73.6446 26 76.0159 26 78.6552C26 81.2913 27.465 83.6643 29.8266 84.8468L55.1989 97.533C58.2946 99.0793 61.7575 99.898 65.217 99.898C68.6765 99.898 72.1394 99.0793 75.2351 97.533L100.607 84.8468C102.969 83.6643 104.434 81.2913 104.434 78.6552C104.434 76.0159 102.969 73.6446 100.607 72.4637ZM60.2032 34.8009C60.9597 32.6881 62.9734 31.2679 65.217 31.2679C67.4607 31.2679 69.4745 32.6881 70.2308 34.7993L72.9275 42.3505C71.7163 43.2176 69.3613 44.3403 65.217 44.3403C61.073 44.3403 58.7183 43.2176 57.507 42.3508L60.2032 34.8009ZM56.3799 45.5072C58.1794 46.5837 60.9796 47.6084 65.2172 47.6084C69.4549 47.6084 72.2552 46.5837 74.0548 45.5072L76.8729 53.399C75.1916 55.8142 70.6611 57.4128 65.2172 57.4128C59.7735 57.4128 55.243 55.8144 53.5616 53.3995L56.3799 45.5072ZM52.3188 56.8787C55.0797 59.2705 59.6978 60.6808 65.217 60.6808C70.7362 60.6808 75.3543 59.2708 78.1154 56.8787L81.0942 65.2205C79.3004 67.8454 73.8242 70.4851 65.217 70.4851C56.61 70.4851 51.1341 67.8456 49.3399 65.2205L52.3188 56.8787ZM48.0911 68.7177C51.0342 71.3884 56.5908 73.7531 65.217 73.7531C73.8434 73.7531 79.4003 71.3884 82.3432 68.7177L84.816 75.6424C84.4298 80.4823 73.0745 83.5573 65.217 83.5573C57.3595 83.5573 46.0042 80.4823 45.618 75.6424L48.0911 68.7177ZM99.1457 81.9233L73.7734 94.6095C68.4883 97.2521 61.9458 97.2521 56.6607 94.6095L31.2883 81.9233C30.0436 81.2993 29.268 80.0467 29.268 78.6552C29.268 77.2621 30.0436 76.0094 31.2883 75.3872L44.6207 68.7209L42.4362 74.8381C42.3723 75.0137 42.3405 75.2004 42.3405 75.387C42.3405 83.1903 55.9905 86.8254 65.217 86.8254C74.4436 86.8254 88.0936 83.1903 88.0936 75.387C88.0936 75.2003 88.0617 75.0135 87.9978 74.8381L85.8135 68.7209L99.1457 75.3872C100.39 76.0096 101.166 77.2622 101.166 78.6552C101.166 80.0467 100.39 81.2993 99.1457 81.9233Z" fill="#595959"/>
<path fill-rule="evenodd" clip-rule="evenodd" d="M55.8798 45.5581C57.6793 46.6346 60.4795 47.6593 64.7171 47.6593C68.9548 47.6593 71.7552 46.6346 73.5547 45.5581L76.3728 53.4499C74.6915 55.8651 70.1611 57.4637 64.7171 57.4637C59.2734 57.4637 54.743 55.8653 53.0615 53.4504L55.8798 45.5581Z" fill="#303030"/>
<path fill-rule="evenodd" clip-rule="evenodd" d="M47.5913 68.769C50.5344 71.4398 56.091 73.8044 64.7172 73.8044C73.3435 73.8044 78.9004 71.4398 81.8434 68.769L84.3162 75.6938C83.93 80.5337 72.5747 83.6087 64.7172 83.6087C56.8597 83.6087 45.5044 80.5337 45.1182 75.6938L47.5913 68.769Z" fill="#303030"/>
</g>
<defs>
<clipPath id="clip0_5887_122">
<rect width="79" height="72" fill="white" transform="translate(25.5 28)"/>
</clipPath>
</defs>
</svg>
