<svg width="32" height="32" viewBox="0 0 32 32" fill="none" xmlns="http://www.w3.org/2000/svg">
<path d="M16 32C24.8366 32 32 24.8366 32 16C32 7.16344 24.8366 0 16 0C7.16344 0 0 7.16344 0 16C0 24.8366 7.16344 32 16 32Z" fill="white"/>
<path d="M16.0667 22.7496C19.5104 22.7496 22.9541 22.751 26.3978 22.7486C27.3316 22.748 27.9425 22.1314 27.9426 21.2006C27.9429 18.0893 27.9435 14.9778 27.9413 11.8665C27.9406 10.8497 27.3504 10.263 26.3389 10.263C19.9197 10.2629 13.5005 10.2629 7.08138 10.263C6.60558 10.263 6.12969 10.2568 5.65408 10.2652C4.85054 10.2795 4.23167 10.9156 4.22945 11.7223C4.22709 12.5983 4.22705 13.4744 4.227 14.3504C4.22691 16.6386 4.22854 18.9268 4.22632 21.2151C4.22591 21.5739 4.30549 21.9009 4.53222 22.1871C4.87029 22.6139 5.31872 22.7544 5.84894 22.7534C9.25485 22.7465 12.6608 22.7499 16.0667 22.7496ZM16.0846 22.9672C12.6414 22.9672 9.19806 22.9556 5.75491 22.9748C4.78659 22.9801 3.99311 22.2039 4.00005 21.1929C4.02184 18.067 4.00703 14.9408 4.00925 11.8146C4.01002 10.7507 4.69858 10.0483 5.7608 10.0478C12.6625 10.0443 19.5641 10.0445 26.4658 10.0482C27.4466 10.0487 28.157 10.7801 28.1572 11.7626C28.1578 14.9189 28.1585 18.0753 28.1564 21.2316C28.1559 22.07 27.6789 22.7063 26.8837 22.9163C26.6977 22.9655 26.4958 22.9683 26.3012 22.9685C22.8957 22.9715 19.4902 22.9706 16.0846 22.9706V22.9672Z" fill="white"/>
<path d="M16.7065 20.1345C16.5883 20.2919 16.4702 20.4493 16.3353 20.6289C16.5623 20.6435 16.7408 20.4199 16.7065 20.1345ZM11.6555 20.8732C11.6146 20.8874 11.5737 20.9017 11.5327 20.9159C11.6099 21.127 11.6871 21.3382 11.7643 21.5493C11.8021 21.5357 11.8399 21.522 11.8776 21.5084C11.8036 21.2967 11.7296 21.085 11.6555 20.8732ZM17.9555 20.2605C17.6318 20.1976 17.307 20.19 16.9566 20.2327C17.0799 20.3865 17.738 20.4142 17.9555 20.2605ZM16.3123 21.1475C16.4277 21.1553 16.489 21.1595 16.566 21.1648C16.566 21.2894 16.5622 21.4019 16.5671 21.514C16.5716 21.6142 16.5858 21.7141 16.5956 21.8141C16.6248 21.8121 16.6539 21.81 16.683 21.8079C16.707 21.4029 16.7311 20.998 16.7551 20.5929C16.7416 20.5858 16.7282 20.5787 16.7147 20.5715C16.5903 20.7495 16.466 20.9274 16.3123 21.1475ZM17.1305 21.5973L17.1178 21.6794C17.2653 21.7944 17.4438 21.8188 17.627 21.7816C17.8086 21.7446 17.7825 21.5848 17.7839 21.4512C17.7862 21.2345 17.7845 21.0177 17.7845 20.8252C17.9014 20.7783 17.9805 20.7465 18.092 20.7018C17.8338 20.5735 17.0068 20.601 16.8408 20.7794C17.0861 20.7794 17.2753 20.7838 17.4643 20.7778C17.5798 20.7741 17.6292 20.8155 17.6253 20.9342C17.6197 21.1076 17.6207 21.2814 17.6253 21.4548C17.6294 21.6083 17.5633 21.6573 17.4151 21.6262C17.3223 21.6066 17.2255 21.6063 17.1305 21.5973ZM11.4477 20.5981C11.4408 20.5058 11.4326 20.4768 11.4376 20.4502C11.4686 20.2863 11.4357 20.1914 11.2356 20.1995C11.066 20.2064 10.9434 20.2114 10.9522 20.439C10.9674 20.8309 10.9542 21.2239 10.9591 21.6163C10.96 21.6849 10.9909 21.7532 11.0079 21.8216C11.0323 21.8196 11.0567 21.8176 11.081 21.8156C11.0991 21.6888 11.1171 21.5621 11.1351 21.4362C11.7913 21.393 11.3558 20.9659 11.3964 20.6672C11.5619 20.7 11.7138 20.73 11.8592 20.7588C11.8685 20.7875 11.8752 20.8009 11.8771 20.815C11.909 21.0535 11.8354 21.3262 12.0948 21.4943C12.0968 21.4955 12.0564 21.5998 12.0265 21.6053C11.9468 21.6198 11.8613 21.5994 11.7794 21.6064C11.6806 21.6149 11.5831 21.6373 11.4851 21.6537C11.4889 21.6829 11.4927 21.712 11.4965 21.7412C11.8377 21.7784 12.1785 21.7857 12.5185 21.7405C12.5216 21.7123 12.5246 21.684 12.5276 21.6558C12.442 21.6326 12.3564 21.6095 12.2603 21.5835C12.288 21.3285 12.4707 21.0851 12.3749 20.8181C12.3516 20.8134 12.3283 20.8088 12.305 20.8042C12.2548 20.997 12.2045 21.1898 12.1543 21.3826C12.1376 21.3807 12.121 21.3789 12.1043 21.377C12.063 21.1776 12.0216 20.9782 11.9823 20.789C12.1877 20.7293 12.3771 20.6742 12.6022 20.6087C12.4107 20.4607 12.2393 20.3439 12.0877 20.2054C11.9886 20.1148 11.9284 20.1281 11.8449 20.2154C11.7291 20.3367 11.6037 20.4488 11.4477 20.5981ZM22.2371 20.7894C22.2273 20.8456 22.2221 20.9156 22.214 20.9159C21.963 20.9258 22.0145 21.1095 22.0123 21.2608C22.0105 21.3858 22.0119 21.5108 22.0119 21.638C21.9628 21.6586 21.9 21.685 21.8169 21.7199C22.2009 21.9388 22.6027 21.6594 22.7667 21.0998C23.1996 21.0421 23.2677 21.1167 23.139 21.505C23.0114 21.4874 22.8842 21.4699 22.757 21.4525L22.7405 21.5332C22.9739 21.6308 23.2074 21.7284 23.4408 21.826C23.4543 21.8065 23.4678 21.7869 23.4813 21.7674C23.418 21.707 23.3547 21.6466 23.3068 21.6008V20.9453C23.3941 20.9335 23.461 20.9244 23.5807 20.908C23.3531 20.7072 23.0161 20.7183 22.936 20.389H23.2488C23.2288 20.48 23.2126 20.553 23.1965 20.6261C23.223 20.6381 23.2494 20.6502 23.2758 20.6623C23.3431 20.5436 23.4105 20.425 23.4786 20.3049C23.1603 20.1467 22.8088 20.398 22.5762 20.0831C22.5043 20.1797 22.4339 20.2743 22.3853 20.3394C22.2006 20.2769 22.0445 20.224 21.8883 20.1711C21.8751 20.2023 21.8619 20.2336 21.8487 20.2649C21.9995 20.3344 22.1502 20.4039 22.3491 20.4957C22.1369 20.6305 21.9699 20.7365 21.8029 20.8426C21.8152 20.8685 21.8276 20.8944 21.84 20.9203C21.9645 20.8793 22.089 20.8382 22.2371 20.7894ZM9.79568 21.8068C9.82409 21.8066 9.8525 21.8065 9.88092 21.8063C9.89719 21.651 9.91346 21.4957 9.93231 21.3153C10.0742 21.4226 10.181 21.5198 10.3034 21.5896C10.3752 21.6306 10.472 21.6276 10.5574 21.6444C10.5051 21.5846 10.4595 21.5167 10.3989 21.4668C10.2688 21.3598 10.1311 21.2622 9.99653 21.1607C10.0095 21.1439 10.0225 21.1272 10.0355 21.1105C10.2 21.0966 10.3645 21.0828 10.529 21.0689C10.5268 21.0348 10.5244 21.0008 10.5222 20.9666C10.37 20.9666 10.2172 20.9748 10.066 20.9622C10.0144 20.9579 9.96707 20.902 9.91776 20.8697C9.96875 20.8394 10.0177 20.8048 10.0715 20.7809C10.0967 20.7696 10.1315 20.7753 10.1611 20.7793C10.3596 20.8065 10.43 20.7155 10.4301 20.5223C10.4303 20.1812 10.418 20.1609 10.0829 20.1609H9.10661C9.03211 20.3353 8.97242 20.532 8.86842 20.7016C8.77275 20.8575 8.72285 20.9551 9.00546 20.9629V21.8247C9.27397 21.6529 9.50269 21.5067 9.75031 21.3483C9.7664 21.5108 9.78104 21.6588 9.79568 21.8068ZM19.7273 20.542C20.0598 20.7259 20.0578 20.801 19.7752 21.2512C19.8474 21.2636 19.9122 21.2748 20.0331 21.2956C19.968 21.4492 19.9137 21.577 19.8496 21.7282C19.8483 21.7274 19.8931 21.7763 19.9319 21.7719C20.1698 21.7451 20.4136 21.7307 20.6404 21.6621C20.7733 21.6219 20.8696 21.6071 20.9978 21.6668C21.1447 21.7352 21.3031 21.8189 21.5462 21.7158C21.3233 21.6291 21.1586 21.565 20.9872 21.4985C21.0857 21.3438 21.1767 21.2234 21.2431 21.0907C21.3219 20.9335 21.2623 20.8461 21.0873 20.8428C20.8879 20.8391 20.6883 20.842 20.4888 20.842C20.5522 20.6541 20.6058 20.4951 20.6672 20.3129C20.7728 20.3179 20.895 20.3237 20.964 20.3269C21.0275 20.5043 21.05 20.6591 21.1349 20.7632C21.1738 20.8109 21.335 20.7588 21.4408 20.752C21.4403 20.7265 21.4397 20.7012 21.4391 20.6757C21.357 20.6535 21.2748 20.6312 21.1878 20.6076C21.1819 20.5663 21.1737 20.53 21.1721 20.4932C21.1574 20.1689 21.1578 20.1688 20.8347 20.1687C20.7895 20.1687 20.7441 20.1708 20.699 20.169C20.5515 20.1634 20.4762 20.2231 20.4734 20.3809C20.4718 20.4673 20.4349 20.5531 20.4144 20.6375C20.2982 20.5563 20.2184 20.5006 20.147 20.4507C20.1281 20.3411 20.1104 20.2388 20.0825 20.0767C19.922 20.254 20.0819 20.5427 19.7273 20.542ZM14.9998 21.5677C15.0806 21.8646 15.1514 21.8861 15.3614 21.6978C15.4261 21.6399 15.4811 21.5712 15.5232 21.5261C15.6866 21.6169 15.8295 21.6962 15.9723 21.7756L16.0229 21.694C15.9161 21.604 15.8093 21.514 15.694 21.4168C15.8287 21.2868 15.9217 21.196 15.8696 20.9953C15.8193 20.8019 15.8873 20.5802 15.8808 20.3716C15.8788 20.3111 15.8033 20.2066 15.7542 20.202C15.5529 20.1836 15.3318 20.1467 15.1499 20.2094C14.9259 20.2867 14.7518 20.3307 14.592 20.0799C14.4814 20.3428 14.3845 20.5731 14.2698 20.8456C14.3918 20.8119 14.4563 20.7941 14.5104 20.7791C14.6466 21.0331 14.3451 20.9286 14.3089 21.0755C14.382 21.1069 14.4564 21.1389 14.5399 21.1747C14.5399 21.3375 14.5366 21.4953 14.5409 21.6529C14.5453 21.8131 14.6185 21.8607 14.7558 21.764C14.8343 21.7087 14.9059 21.6439 14.9998 21.5677ZM16.0907 10.7787C12.6476 10.7787 9.20441 10.778 5.76121 10.7793C5.1287 10.7796 4.74535 11.1641 4.74513 11.7923C4.74417 13.899 4.75913 16.0058 4.73549 18.1122C4.72849 18.7539 5.17959 19.1959 5.81527 19.1949C12.6563 19.1846 19.4973 19.1886 26.3383 19.1885C27.0616 19.1884 27.4288 18.8151 27.4289 18.0812C27.429 16.0199 27.4169 13.9584 27.436 11.8972C27.4418 11.2585 27.0537 10.7648 26.3069 10.7693C22.9016 10.7901 19.4961 10.7785 16.0907 10.7787ZM16.0667 22.7497C12.6608 22.7499 9.25489 22.7465 5.84895 22.7534C5.31872 22.7545 4.8703 22.6139 4.53222 22.1871C4.30549 21.9009 4.22596 21.5739 4.22632 21.2151C4.22859 18.9269 4.22691 16.6386 4.227 14.3503C4.22705 13.4743 4.22709 12.5983 4.22949 11.7223C4.23167 10.9156 4.85058 10.2795 5.65412 10.2652C6.12969 10.2568 6.60558 10.2629 7.08138 10.2629C13.5005 10.2629 19.9197 10.2629 26.3389 10.2629C27.3505 10.2629 27.9406 10.8497 27.9414 11.8664C27.9435 14.9778 27.9429 18.0892 27.9426 21.2006C27.9425 22.1314 27.3316 22.748 26.3978 22.7486C22.9541 22.751 19.5104 22.7496 16.0667 22.7497Z" fill="#D95D29"/>
<path d="M19.0928 15.2176C19.3437 15.2176 19.5147 15.2247 19.6846 15.2138C19.7452 15.21 19.8321 15.1786 19.8576 15.1325C20.0444 14.7935 20.2187 14.4475 20.4327 14.0348C20.2127 14.0348 20.0591 14.0272 19.9069 14.038C19.829 14.0435 19.7124 14.0584 19.6832 14.1092C19.4874 14.4508 19.3103 14.8032 19.0928 15.2176ZM16.8071 14.0577C17.0154 14.4542 17.1979 14.8046 17.3849 15.1526C17.4 15.1807 17.4446 15.2089 17.4762 15.2097C17.6741 15.2149 17.8723 15.2123 18.1344 15.2123C17.9214 14.8041 17.7397 14.4538 17.5547 14.1052C17.5428 14.0827 17.5066 14.0602 17.4813 14.0597C17.276 14.0561 17.0707 14.0577 16.8071 14.0577ZM22.8262 13.3617C22.7004 13.3617 22.5811 13.3613 22.4619 13.3618C22.1372 13.3633 21.8117 13.3519 21.488 13.3708C21.1978 13.3877 21.0492 13.6257 21.0948 13.9693C21.1289 14.2262 21.3363 14.1067 21.4715 14.125C21.6895 14.1546 21.618 13.946 21.6706 13.8495C21.6935 13.8405 21.7073 13.8303 21.7211 13.8302C22.6802 13.8274 23.6392 13.8229 24.5982 13.8305C24.6502 13.8309 24.6979 13.9375 24.7539 13.9876C24.8114 14.0389 24.8777 14.1208 24.9383 14.1193C25.0527 14.1163 25.236 14.0948 25.2673 14.0253C25.4127 13.7028 25.2014 13.3842 24.8478 13.3698C24.5009 13.3557 24.1531 13.3638 23.8057 13.3614C23.6804 13.3605 23.5385 13.3905 23.5305 13.1891C23.5294 13.1614 23.4539 13.116 23.4112 13.114C23.2328 13.1055 23.0538 13.1104 22.8771 13.1104C22.8573 13.2081 22.8444 13.2722 22.8262 13.3617ZM18.2696 13.8131C18.2696 14.3015 18.2623 14.7675 18.2733 15.2331C18.2774 15.4104 18.2072 15.4491 18.0475 15.4458C17.6247 15.4369 17.2016 15.447 16.7788 15.4386C16.5919 15.4349 16.5097 15.4875 16.5079 15.6944C16.5061 15.9107 16.573 15.9895 16.7921 15.9841C17.2734 15.9724 17.7552 15.9805 18.2708 15.9805C18.2708 16.1705 18.2756 16.3347 18.2693 16.4984C18.2643 16.6283 18.3091 16.6871 18.4469 16.6992C18.9542 16.7435 18.9674 16.7356 18.9702 16.2311C18.9703 16.216 18.9719 16.2007 18.9701 16.1859C18.9515 16.0323 19.0094 15.9741 19.1726 15.9777C19.6028 15.9872 20.0339 15.9672 20.4638 15.9822C20.6968 15.9904 20.7089 15.8748 20.7154 15.6925C20.7228 15.4861 20.6403 15.4304 20.4506 15.4374C20.164 15.448 19.8767 15.4401 19.5897 15.4401C19.3896 15.4401 19.1894 15.4401 18.9903 15.4401V13.8129C19.4713 13.8129 19.9313 13.8077 20.3911 13.8155C20.5691 13.8186 20.5892 13.7217 20.58 13.585C20.5713 13.4564 20.6211 13.2989 20.3981 13.2993C19.2124 13.302 18.0266 13.2997 16.8409 13.304C16.7826 13.3042 16.6971 13.3338 16.6709 13.3777C16.5446 13.5887 16.6799 13.8124 16.9255 13.8129C17.362 13.8137 17.7984 13.8131 18.2696 13.8131ZM21.2072 16.5828C21.827 16.6244 22.4284 16.6091 22.9994 16.3236C23.1023 16.2721 23.2732 16.2676 23.3749 16.3179C23.9013 16.578 24.4584 16.6156 25.0292 16.6062C25.2197 16.6031 25.2292 16.495 25.2254 16.3543C25.2217 16.2166 25.2444 16.0714 25.031 16.0769C24.8199 16.0823 24.6075 16.0878 24.3976 16.0701C24.222 16.0553 24.0493 16.007 23.8753 15.9736C23.8708 15.9492 23.8663 15.9247 23.8618 15.9003C24.3307 15.7519 24.6525 15.489 24.5934 14.9477C24.7922 14.9477 24.9508 14.9384 25.1078 14.95C25.3074 14.9648 25.3232 14.8538 25.3225 14.6967C25.3216 14.5356 25.3153 14.4109 25.0998 14.4285C24.9375 14.4418 24.7733 14.4311 24.6192 14.4311C24.5615 14.273 24.6624 14.0653 24.3895 14.0655C24.0033 14.0658 24.0033 14.0522 23.9078 14.4161H22.483C22.4048 14.2896 22.5308 14.0761 22.2699 14.0669C21.8732 14.053 21.8735 14.0434 21.7632 14.4405H21.0912C21.0827 14.5305 21.0789 14.5975 21.0696 14.6637C21.0404 14.8714 21.1068 14.9778 21.3383 14.9518C21.4843 14.9354 21.6335 14.9487 21.8137 14.9487C21.7219 15.5318 22.1139 15.74 22.5244 15.9661C22.2022 16.0307 21.8924 16.0641 21.5819 16.0719C21.1361 16.0829 21.1264 16.0861 21.1859 16.5364C21.1868 16.5434 21.1919 16.5499 21.2072 16.5828ZM13.9362 16.5923C14.472 16.5923 15.0079 16.5947 15.5437 16.5915C15.9007 16.5893 16.0718 16.4192 16.0732 16.0654C16.0762 15.3107 16.0763 14.556 16.0749 13.8014C16.0741 13.4014 15.9111 13.2321 15.5137 13.2307C14.4722 13.2273 13.4308 13.227 12.3894 13.2307C12.0044 13.2321 11.8401 13.4014 11.8391 13.7856C11.8371 14.5403 11.8379 15.2949 11.8397 16.0495C11.8405 16.425 11.999 16.5879 12.3741 16.5908C12.8948 16.5949 13.4155 16.5919 13.9362 16.5923ZM9.49199 13.5895C9.41907 13.1144 9.41889 13.1227 8.99312 13.1148C8.80256 13.1113 8.70082 13.1609 8.73064 13.3668C8.75751 13.5529 8.6647 13.5965 8.49543 13.5934C8.13361 13.5868 7.77116 13.5879 7.40965 13.6028C7.11196 13.6151 6.95058 13.785 6.94713 14.0771C6.94151 14.5523 6.94151 15.0277 6.94804 15.5028C6.95225 15.8087 7.13883 15.9824 7.45144 15.9883C7.61735 15.9914 7.78335 15.99 7.9493 15.9902C8.20232 15.9904 8.45537 15.9902 8.71323 15.9902C8.71967 16.0872 8.72597 16.1467 8.72715 16.2064C8.73753 16.7385 8.61376 16.7055 9.26965 16.6991C9.27722 16.699 9.28474 16.6983 9.29227 16.6985C9.41399 16.7009 9.4691 16.6464 9.46416 16.5199C9.4575 16.3496 9.46248 16.1791 9.46248 15.9893C9.89369 15.9893 10.2924 15.9902 10.6911 15.9891C11.0945 15.988 11.2638 15.8171 11.2655 15.4077C11.2671 15.023 11.266 14.6383 11.2659 14.2535C11.2657 13.742 11.1271 13.6019 10.6079 13.5941C10.3515 13.5902 10.095 13.5907 9.83858 13.5896C9.72098 13.5891 9.60338 13.5895 9.49199 13.5895ZM16.0907 10.7786C19.4961 10.7785 22.9015 10.7901 26.3069 10.7693C27.0537 10.7649 27.4418 11.2585 27.436 11.8972C27.4168 13.9584 27.4289 16.0199 27.4288 18.0813C27.4288 18.815 27.0615 19.1885 26.3383 19.1885C19.4972 19.1887 12.6562 19.1847 5.81522 19.195C5.17954 19.1959 4.72844 18.7539 4.73543 18.1123C4.75907 16.0059 4.74412 13.899 4.74507 11.7923C4.74534 11.164 5.12864 10.7796 5.7612 10.7793C9.20435 10.778 12.6475 10.7787 16.0907 10.7786Z" fill="white"/>
<path d="M15.0328 21.0359C15.0256 20.8779 15.022 20.8003 15.0166 20.6821C14.9021 20.7915 14.6801 20.6608 14.7095 20.8887C14.7163 20.9414 14.8872 20.9729 15.0328 21.0359ZM15.0162 20.3865C14.8535 20.4731 14.6457 20.3112 14.5787 20.5905C14.728 20.6059 14.8651 20.6201 15.0162 20.6357V20.3865ZM15.4853 20.3314V20.3282C15.4325 20.3282 15.3751 20.3152 15.328 20.3316C15.2743 20.3503 15.2297 20.3952 15.1812 20.4288C15.2263 20.463 15.2684 20.5207 15.3171 20.5269C15.4284 20.5411 15.5434 20.5361 15.6558 20.5256C15.6882 20.5226 15.7441 20.4708 15.7408 20.4487C15.7345 20.4068 15.7006 20.3492 15.6645 20.3363C15.611 20.3173 15.5457 20.3314 15.4853 20.3314ZM15.4606 20.932C15.5689 20.8795 15.737 20.8309 15.7346 20.7936C15.7217 20.5987 15.5517 20.6944 15.4531 20.6939C15.3643 20.6934 15.1958 20.6 15.1963 20.7901C15.1964 20.835 15.3579 20.8795 15.4606 20.932ZM14.7023 21.576C14.8254 21.5127 14.9212 21.4635 15.0164 21.4146V21.1133C14.9015 21.1268 14.8035 21.1384 14.7023 21.1502V21.576ZM15.4808 21.4246C15.4077 21.2802 15.3423 21.1511 15.277 21.0221L15.2002 21.0489V21.6111C15.3082 21.5393 15.3876 21.4865 15.4808 21.4246ZM14.9998 21.5677C14.9058 21.6439 14.8342 21.7088 14.7558 21.764C14.6184 21.8607 14.5452 21.8131 14.5408 21.6528C14.5365 21.4953 14.5399 21.3375 14.5399 21.1747C14.4564 21.1388 14.382 21.1069 14.3088 21.0755C14.345 20.9286 14.6466 21.0331 14.5103 20.7791C14.4563 20.7941 14.3917 20.8119 14.2698 20.8456C14.3844 20.5731 14.4813 20.3428 14.5919 20.0799C14.7517 20.3307 14.9259 20.2868 15.1499 20.2094C15.3317 20.1467 15.5528 20.1836 15.7541 20.2021C15.8033 20.2065 15.8788 20.3111 15.8807 20.3716C15.8873 20.5801 15.8193 20.8019 15.8695 20.9953C15.9216 21.196 15.8287 21.2868 15.694 21.4168C15.8092 21.514 15.9161 21.604 16.0229 21.694L15.9722 21.7756C15.8294 21.6962 15.6865 21.6169 15.5231 21.5261C15.4811 21.5712 15.426 21.6399 15.3614 21.6978C15.1513 21.8861 15.0805 21.8646 14.9998 21.5677Z" fill="white"/>
<path d="M21.1171 21.074L21.0708 21.0213H20.5578C20.5483 21.0398 20.5388 21.0584 20.5292 21.077C20.6291 21.1685 20.727 21.3284 20.8295 21.3314C20.9227 21.3341 21.021 21.1665 21.1171 21.074ZM20.1578 21.6764C20.3338 21.6101 20.4893 21.5516 20.6679 21.4844C20.5866 21.3832 20.527 21.3176 20.4776 21.2451C20.4299 21.1752 20.3927 21.0983 20.351 21.0245C20.0968 21.1631 20.0814 21.2116 20.1578 21.6764ZM19.7273 20.5421C20.082 20.5427 19.922 20.254 20.0825 20.0767C20.1105 20.2388 20.1281 20.3411 20.147 20.4507C20.2185 20.5006 20.2982 20.5563 20.4145 20.6375C20.435 20.5532 20.4718 20.4673 20.4734 20.3809C20.4762 20.2231 20.5515 20.1634 20.699 20.169C20.7441 20.1708 20.7895 20.1687 20.8348 20.1687C21.1578 20.1688 21.1574 20.1689 21.1721 20.4932C21.1737 20.53 21.182 20.5663 21.1878 20.6077C21.2748 20.6312 21.357 20.6535 21.4391 20.6757C21.4397 20.7012 21.4403 20.7266 21.4409 20.7521C21.3351 20.7589 21.1738 20.8109 21.1349 20.7632C21.05 20.6592 21.0275 20.5043 20.964 20.327C20.895 20.3237 20.7728 20.3179 20.6672 20.3129C20.6058 20.4951 20.5522 20.6541 20.4889 20.842C20.6884 20.842 20.8879 20.8391 21.0874 20.8428C21.2623 20.8461 21.3219 20.9335 21.2431 21.0907C21.1767 21.2234 21.0857 21.3438 20.9872 21.4984C21.1586 21.5651 21.3234 21.6291 21.5462 21.7158C21.3031 21.8189 21.1447 21.7352 20.9978 21.6669C20.8696 21.6072 20.7733 21.6219 20.6404 21.6621C20.4136 21.7307 20.1698 21.7452 19.932 21.7719C19.8931 21.7763 19.8483 21.7275 19.8496 21.7283C19.9137 21.5771 19.968 21.4492 20.0331 21.2956C19.9122 21.2748 19.8474 21.2636 19.7752 21.2511C20.0578 20.801 20.0598 20.7259 19.7273 20.5421Z" fill="white"/>
<path d="M9.1485 21.566C9.35298 21.4163 9.52016 21.2939 9.68738 21.1715C9.67528 21.1499 9.66314 21.1283 9.65104 21.1067H9.1272C9.1272 21.1838 9.12525 21.2568 9.12779 21.3297C9.12983 21.3868 9.13749 21.4437 9.1485 21.566ZM9.2632 20.3496C9.23515 20.3484 9.20705 20.3472 9.179 20.346C9.15793 20.5506 9.13681 20.7553 9.11497 20.9668C9.30181 20.9668 9.43845 20.9774 9.57214 20.9622C9.63853 20.9547 9.69944 20.8995 9.76284 20.8658C9.70306 20.8371 9.64474 20.7875 9.58329 20.7833C9.28695 20.7627 9.2869 20.767 9.27548 20.459C9.27408 20.4225 9.26742 20.3861 9.2632 20.3496ZM9.83961 20.6406C9.83961 20.6395 9.83961 20.6382 9.83961 20.6371C9.93718 20.6371 10.0348 20.6347 10.1323 20.6377C10.2569 20.6415 10.277 20.5696 10.2777 20.4647C10.2786 20.3497 10.2339 20.3002 10.1184 20.3027C9.93827 20.3066 9.75781 20.308 9.57771 20.3029C9.45626 20.2995 9.42535 20.3614 9.42272 20.4687C9.4201 20.5759 9.44575 20.6451 9.56942 20.6412C9.65938 20.6383 9.74956 20.6406 9.83961 20.6406ZM9.79578 21.8069C9.7811 21.6589 9.76646 21.5108 9.75038 21.3483C9.50276 21.5067 9.27403 21.653 9.00557 21.8247V20.9629C8.72292 20.9552 8.77281 20.8575 8.86848 20.7016C8.97253 20.5321 9.03217 20.3353 9.10667 20.1609H10.0829C10.4181 20.1609 10.4304 20.1812 10.4302 20.5223C10.4301 20.7155 10.3597 20.8065 10.1612 20.7794C10.1315 20.7753 10.0968 20.7697 10.0716 20.7809C10.0178 20.8048 9.96881 20.8395 9.91787 20.8697C9.96713 20.902 10.0145 20.958 10.0661 20.9623C10.2172 20.9748 10.3701 20.9667 10.5222 20.9667C10.5245 21.0008 10.5268 21.0349 10.5291 21.0689C10.3646 21.0828 10.2001 21.0967 10.0356 21.1105C10.0226 21.1272 10.0096 21.1439 9.99659 21.1607C10.1312 21.2622 10.2689 21.3598 10.399 21.4668C10.4595 21.5167 10.5052 21.5847 10.5575 21.6444C10.472 21.6276 10.3753 21.6306 10.3035 21.5896C10.1811 21.5199 10.0743 21.4226 9.93242 21.3153C9.91352 21.4957 9.89725 21.651 9.88103 21.8063C9.85261 21.8065 9.8242 21.8067 9.79578 21.8069Z" fill="white"/>
<path d="M22.3437 20.7176L22.3906 20.7745C22.5241 20.6687 22.6575 20.5629 22.829 20.427C22.5224 20.3492 22.3861 20.453 22.3437 20.7176ZM22.4769 20.906H23.2218C23.0755 20.7972 22.9694 20.7181 22.8657 20.6409C22.741 20.726 22.6256 20.8047 22.4769 20.906ZM22.1568 21.6091C22.4523 21.5591 22.5476 21.4458 22.5782 21.0974H22.1568V21.6091ZM22.237 20.7894C22.0889 20.8382 21.9644 20.8793 21.8398 20.9204C21.8275 20.8944 21.8151 20.8685 21.8027 20.8426C21.9697 20.7365 22.1367 20.6305 22.349 20.4958C22.1501 20.404 21.9993 20.3344 21.8486 20.2649C21.8618 20.2336 21.875 20.2024 21.8882 20.1711C22.0443 20.2239 22.2004 20.2769 22.3852 20.3395C22.4337 20.2743 22.5041 20.1798 22.5761 20.0831C22.8087 20.3981 23.1602 20.1467 23.4785 20.3049C23.4104 20.425 23.343 20.5436 23.2757 20.6623C23.2493 20.6503 23.2228 20.6382 23.1964 20.6261C23.2125 20.5531 23.2286 20.48 23.2487 20.389H22.9358C23.0159 20.7183 23.3529 20.7073 23.5805 20.9081C23.4608 20.9244 23.394 20.9335 23.3067 20.9453V21.6008C23.3546 21.6466 23.4179 21.707 23.4811 21.7674C23.4676 21.787 23.4541 21.8065 23.4407 21.826C23.2072 21.7284 22.9738 21.6308 22.7404 21.5332L22.7569 21.4525C22.8841 21.47 23.0113 21.4875 23.1389 21.505C23.2676 21.1167 23.1995 21.0421 22.7666 21.0998C22.6026 21.6594 22.2008 21.9388 21.8167 21.7199C21.8999 21.685 21.9627 21.6586 22.0118 21.638C22.0118 21.5109 22.0104 21.3858 22.0122 21.2608C22.0143 21.1095 21.9629 20.9258 22.2139 20.916C22.2219 20.9156 22.2272 20.8456 22.237 20.7894Z" fill="white"/>
<path d="M12.2145 20.5917C12.2196 20.5756 12.2246 20.5594 12.2297 20.5433C12.1424 20.469 12.055 20.3946 11.9558 20.3101C11.8784 20.4074 11.8175 20.4839 11.7319 20.5917H12.2145ZM11.2179 20.3375C11.1828 20.3855 11.1206 20.4315 11.1184 20.4803C11.1081 20.6984 11.1077 20.9177 11.1213 21.1355C11.1244 21.1847 11.1977 21.2295 11.2387 21.2763C11.2738 21.2227 11.3434 21.1653 11.3381 21.1161C11.3114 20.8712 11.265 20.6284 11.2179 20.3375ZM11.4475 20.5981C11.6036 20.4488 11.729 20.3367 11.8448 20.2155C11.9283 20.1281 11.9885 20.1149 12.0877 20.2054C12.2392 20.3439 12.4106 20.4607 12.6021 20.6087C12.3771 20.6742 12.1875 20.7293 11.9822 20.789C12.0214 20.9782 12.0628 21.1776 12.1042 21.377C12.1209 21.3789 12.1375 21.3807 12.1541 21.3826C12.2044 21.1898 12.2547 20.997 12.305 20.8042C12.3282 20.8089 12.3515 20.8135 12.3748 20.8181C12.4705 21.0851 12.2879 21.3285 12.2602 21.5835C12.3563 21.6095 12.4419 21.6327 12.5275 21.6558C12.5245 21.684 12.5214 21.7123 12.5184 21.7406C12.1784 21.7857 11.8376 21.7784 11.4964 21.7412C11.4926 21.7121 11.4888 21.6829 11.485 21.6537C11.583 21.6373 11.6805 21.6149 11.7793 21.6065C11.8612 21.5994 11.9466 21.6198 12.0264 21.6053C12.0562 21.5998 12.0967 21.4955 12.0947 21.4943C11.8353 21.3262 11.9088 21.0535 11.877 20.815C11.8751 20.8009 11.8684 20.7875 11.8592 20.7588C11.7136 20.73 11.5618 20.7 11.3963 20.6672C11.3556 20.9659 11.7912 21.393 11.1349 21.4362C11.117 21.5621 11.099 21.6888 11.0809 21.8156C11.0566 21.8176 11.0322 21.8196 11.0079 21.8216C10.9908 21.7532 10.9599 21.685 10.959 21.6163C10.9541 21.2239 10.9673 20.8309 10.9521 20.4391C10.9433 20.2114 11.0659 20.2064 11.2355 20.1996C11.4356 20.1914 11.4685 20.2863 11.4376 20.4502C11.4325 20.4768 11.4407 20.5058 11.4475 20.5981Z" fill="white"/>
<path d="M17.1306 21.5973C17.2256 21.6063 17.3224 21.6066 17.4152 21.6262C17.5634 21.6574 17.6295 21.6083 17.6254 21.4548C17.6207 21.2814 17.6197 21.1076 17.6254 20.9342C17.6293 20.8155 17.5799 20.7741 17.4643 20.7778C17.2754 20.7838 17.0862 20.7795 16.8408 20.7795C17.0069 20.601 17.8339 20.5735 18.0921 20.7017C17.9806 20.7466 17.9015 20.7783 17.7846 20.8253C17.7846 21.0177 17.7863 21.2345 17.784 21.4512C17.7826 21.5848 17.8087 21.7446 17.6271 21.7815C17.4439 21.8188 17.2653 21.7944 17.1179 21.6794L17.1306 21.5973Z" fill="white"/>
<path d="M16.3123 21.1475C16.4659 20.9275 16.5903 20.7495 16.7146 20.5715C16.7281 20.5787 16.7416 20.5858 16.7551 20.5929C16.731 20.9979 16.707 21.403 16.6829 21.8079C16.6538 21.81 16.6247 21.8121 16.5956 21.8141C16.5857 21.7141 16.5715 21.6143 16.5671 21.514C16.5621 21.4019 16.5659 21.2895 16.5659 21.1648C16.489 21.1596 16.4277 21.1554 16.3123 21.1475Z" fill="white"/>
<path d="M17.9555 20.2605C17.7379 20.4142 17.0799 20.3865 16.9565 20.2327C17.3069 20.1899 17.6317 20.1976 17.9555 20.2605Z" fill="white"/>
<path d="M11.6556 20.8732C11.7296 21.085 11.8036 21.2967 11.8776 21.5084C11.8399 21.522 11.8021 21.5357 11.7643 21.5493C11.6872 21.3382 11.6099 21.1271 11.5327 20.9159C11.5736 20.9017 11.6146 20.8874 11.6556 20.8732Z" fill="white"/>
<path d="M16.7063 20.1345C16.7407 20.4199 16.5622 20.6435 16.3352 20.6289C16.47 20.4493 16.5882 20.2919 16.7063 20.1345Z" fill="white"/>
<path d="M9.47327 14.13V15.4372H10.5843C10.5843 15.029 10.5889 14.6453 10.5783 14.2619C10.577 14.2168 10.4939 14.1375 10.4466 14.1358C10.1311 14.1245 9.81506 14.13 9.47327 14.13ZM8.71138 15.458V14.1485H7.60878C7.60878 14.5509 7.60511 14.9337 7.6134 15.3164C7.61444 15.3643 7.67744 15.4506 7.71387 15.4518C8.04302 15.4624 8.37262 15.458 8.71138 15.458ZM9.49207 13.5895C9.60347 13.5895 9.72107 13.5891 9.83867 13.5896C10.0951 13.5907 10.3516 13.5902 10.6081 13.5941C11.1272 13.602 11.2658 13.742 11.266 14.2535C11.2661 14.6383 11.2672 15.023 11.2656 15.4078C11.2638 15.8172 11.0946 15.9881 10.6912 15.9891C10.2925 15.9902 9.89378 15.9893 9.46257 15.9893C9.46257 16.1791 9.45759 16.3497 9.46425 16.5199C9.46919 16.6464 9.41408 16.7009 9.29236 16.6985C9.28483 16.6983 9.27731 16.6991 9.26974 16.6991C8.61385 16.7055 8.73762 16.7385 8.72724 16.2064C8.72606 16.1468 8.71976 16.0872 8.71332 15.9902C8.45551 15.9902 8.20245 15.9905 7.94939 15.9902C7.78344 15.99 7.61744 15.9915 7.45153 15.9883C7.13892 15.9823 6.95239 15.8087 6.94813 15.5028C6.9416 15.0277 6.9416 14.5523 6.94722 14.0771C6.95067 13.785 7.11205 13.6151 7.40974 13.6028C7.77125 13.588 8.1337 13.5868 8.49552 13.5934C8.66479 13.5966 8.7576 13.5529 8.73073 13.3668C8.70095 13.1609 8.80265 13.1113 8.99321 13.1148C9.41898 13.1227 9.41916 13.1144 9.49207 13.5895Z" fill="#D95D29"/>
<path d="M13.9359 16.0818C14.3657 16.0818 14.7956 16.0788 15.2255 16.0834C15.3745 16.085 15.4426 16.0386 15.4408 15.8758C15.434 15.2197 15.4344 14.5635 15.44 13.9075C15.4412 13.7581 15.3842 13.7109 15.2413 13.7116C14.3815 13.7158 13.5218 13.717 12.662 13.7122C12.5178 13.7114 12.4598 13.7531 12.461 13.9032C12.4663 14.5593 12.4676 15.2155 12.4607 15.8716C12.4589 16.0462 12.5312 16.0875 12.6915 16.0841C13.1061 16.0754 13.5211 16.0812 13.9359 16.0818ZM13.9362 16.5921C13.4155 16.5918 12.8947 16.5949 12.374 16.5908C11.999 16.5879 11.8404 16.4249 11.8396 16.0496C11.8379 15.2949 11.8371 14.5402 11.839 13.7856C11.84 13.4014 12.0043 13.232 12.3894 13.2307C13.4308 13.227 14.4722 13.2273 15.5136 13.2307C15.911 13.2321 16.0741 13.4013 16.0748 13.8014C16.0763 14.5561 16.0761 15.3107 16.0732 16.0653C16.0718 16.4191 15.9006 16.5893 15.5436 16.5915C15.0078 16.5947 14.472 16.5923 13.9362 16.5921Z" fill="#D95D29"/>
<path d="M23.9234 14.9686H22.4742C22.4438 15.2205 22.4681 15.2885 22.6104 15.3767C23.0877 15.6725 23.3265 15.6719 23.7759 15.3793C23.9295 15.2793 23.9744 15.1451 23.9234 14.9686ZM21.2073 16.5827C21.192 16.55 21.1869 16.5434 21.186 16.5364C21.1265 16.0861 21.1363 16.083 21.582 16.0718C21.8925 16.0641 22.2023 16.0307 22.5245 15.9661C22.114 15.74 21.722 15.5318 21.8138 14.9487C21.6336 14.9487 21.4843 14.9354 21.3384 14.9518C21.1069 14.9778 21.0405 14.8714 21.0697 14.6637C21.079 14.5975 21.0827 14.5305 21.0913 14.4405H21.7633C21.8736 14.0434 21.8733 14.053 22.27 14.0669C22.5309 14.0761 22.4049 14.2895 22.4831 14.4161C22.9498 14.4161 23.4288 14.4161 23.9079 14.4159C24.0034 14.0522 24.0034 14.0658 24.3896 14.0655C24.6626 14.0653 24.5616 14.273 24.6192 14.4311C24.7734 14.4311 24.9376 14.4418 25.0999 14.4285C25.3154 14.4108 25.3217 14.5356 25.3226 14.6967C25.3233 14.8537 25.3075 14.9648 25.1079 14.95C24.9508 14.9384 24.7923 14.9477 24.5935 14.9477C24.6526 15.489 24.3308 15.7519 23.862 15.9003C23.8664 15.9247 23.8709 15.9492 23.8754 15.9736C24.0494 16.007 24.2221 16.0553 24.3976 16.0701C24.6076 16.0878 24.82 16.0823 25.0311 16.0769C25.2445 16.0714 25.2218 16.2166 25.2255 16.3543C25.2293 16.495 25.2198 16.603 25.0293 16.6062C24.4585 16.6155 23.9015 16.578 23.3749 16.3178C23.2732 16.2676 23.1024 16.2722 22.9995 16.3236C22.4285 16.6091 21.827 16.6245 21.2073 16.5827Z" fill="#D95D29"/>
<path d="M18.2695 13.8131C17.7984 13.8131 17.3619 13.8137 16.9254 13.8129C16.6799 13.8124 16.5445 13.5887 16.6708 13.3776C16.6971 13.3338 16.7825 13.3042 16.8408 13.304C18.0266 13.2997 19.2123 13.302 20.3981 13.2994C20.6211 13.2989 20.5713 13.4564 20.58 13.585C20.5892 13.7217 20.569 13.8185 20.3911 13.8155C19.9313 13.8077 19.4712 13.8129 18.9903 13.8129V15.4401C19.1894 15.4401 19.3895 15.4401 19.5897 15.4401C19.8767 15.4401 20.164 15.448 20.4506 15.4374C20.6403 15.4304 20.7227 15.4861 20.7154 15.6925C20.7088 15.8749 20.6967 15.9903 20.4638 15.9822C20.0339 15.9672 19.6028 15.9873 19.1726 15.9777C19.0094 15.9741 18.9515 16.0323 18.9701 16.1858C18.9719 16.2008 18.9702 16.216 18.9702 16.2311C18.9673 16.7356 18.9542 16.7435 18.4469 16.6992C18.3091 16.6871 18.2642 16.6283 18.2693 16.4984C18.2756 16.3347 18.2708 16.1705 18.2708 15.9805C17.7551 15.9805 17.2733 15.9723 16.7921 15.9841C16.5729 15.9895 16.5061 15.9107 16.5078 15.6944C16.5097 15.4875 16.5919 15.4349 16.7788 15.4386C17.2016 15.4471 17.6247 15.437 18.0475 15.4457C18.2072 15.4491 18.2774 15.4104 18.2732 15.2331C18.2622 14.7675 18.2695 14.3015 18.2695 13.8131Z" fill="#D95D29"/>
<path d="M22.8262 13.3617C22.8443 13.2721 22.8573 13.2082 22.8771 13.1104C23.0538 13.1104 23.2328 13.1055 23.4111 13.114C23.4539 13.116 23.5294 13.1614 23.5305 13.1892C23.5384 13.3905 23.6804 13.3605 23.8057 13.3614C24.1531 13.3639 24.5009 13.3557 24.8478 13.3699C25.2014 13.3843 25.4127 13.7028 25.2673 14.0253C25.236 14.0948 25.0527 14.1163 24.9383 14.1193C24.8776 14.1208 24.8113 14.0388 24.7539 13.9876C24.6978 13.9375 24.6502 13.8309 24.5982 13.8305C23.6392 13.8229 22.6802 13.8274 21.7211 13.8302C21.7073 13.8302 21.6935 13.8404 21.6706 13.8495C21.6179 13.9461 21.6895 14.1546 21.4715 14.125C21.3363 14.1067 21.1289 14.2262 21.0948 13.9694C21.0492 13.6258 21.1977 13.3877 21.4879 13.3708C21.8117 13.3519 22.1372 13.3633 22.4619 13.3618C22.5811 13.3613 22.7004 13.3617 22.8262 13.3617Z" fill="#D95D29"/>
<path d="M16.8071 14.0577C17.0707 14.0577 17.276 14.0561 17.4813 14.0597C17.5066 14.0602 17.5428 14.0827 17.5547 14.1052C17.7397 14.4538 17.9215 14.804 18.1344 15.2124C17.8722 15.2124 17.6742 15.2149 17.4763 15.2097C17.4446 15.2089 17.4 15.1807 17.3849 15.1526C17.198 14.8045 17.0154 14.4542 16.8071 14.0577Z" fill="#D95D29"/>
<path d="M19.0928 15.2176C19.3103 14.8032 19.4874 14.4509 19.6832 14.1092C19.7123 14.0584 19.8289 14.0435 19.9069 14.038C20.0591 14.0272 20.2126 14.0348 20.4326 14.0348C20.2187 14.4475 20.0444 14.7935 19.8575 15.1325C19.8321 15.1786 19.7452 15.21 19.6846 15.2138C19.5147 15.2247 19.3436 15.2176 19.0928 15.2176Z" fill="#D95D29"/>
<path d="M15.4808 21.4246C15.3876 21.4865 15.3081 21.5393 15.2002 21.6112V21.049L15.277 21.0221C15.3423 21.1511 15.4077 21.2802 15.4808 21.4246Z" fill="#D95D29"/>
<path d="M14.7024 21.576V21.1502C14.8035 21.1384 14.9016 21.1268 15.0164 21.1133V21.4146C14.9213 21.4636 14.8255 21.5128 14.7024 21.576Z" fill="#D95D29"/>
<path d="M15.4605 20.9321C15.3579 20.8795 15.1964 20.835 15.1963 20.7901C15.1957 20.6001 15.3643 20.6934 15.4531 20.6939C15.5517 20.6944 15.7217 20.5987 15.7346 20.7936C15.737 20.8309 15.5689 20.8795 15.4605 20.9321Z" fill="#D95D29"/>
<path d="M15.4853 20.3314C15.5456 20.3314 15.611 20.3173 15.6645 20.3363C15.7005 20.3492 15.7344 20.4068 15.7407 20.4487C15.7441 20.4709 15.6882 20.5227 15.6558 20.5257C15.5434 20.5361 15.4284 20.5412 15.3171 20.5269C15.2684 20.5208 15.2262 20.4631 15.1812 20.4288C15.2297 20.3952 15.2743 20.3504 15.328 20.3317C15.3751 20.3152 15.4325 20.3283 15.4853 20.3283V20.3314Z" fill="#D95D29"/>
<path d="M15.0162 20.3865V20.6357C14.8651 20.6201 14.728 20.6059 14.5786 20.5905C14.6457 20.3112 14.8535 20.4731 15.0162 20.3865Z" fill="#D95D29"/>
<path d="M15.033 21.0359C14.8873 20.9729 14.7165 20.9414 14.7097 20.8887C14.6802 20.6608 14.9023 20.7915 15.0168 20.6821C15.0222 20.8003 15.0257 20.8779 15.033 21.0359Z" fill="#D95D29"/>
<path d="M20.1578 21.6764C20.0814 21.2116 20.0968 21.1631 20.3509 21.0245C20.3927 21.0983 20.4299 21.1752 20.4776 21.2451C20.527 21.3176 20.5865 21.3832 20.6679 21.4844C20.4893 21.5516 20.3338 21.6101 20.1578 21.6764Z" fill="#D95D29"/>
<path d="M21.1171 21.074C21.0211 21.1665 20.9228 21.3341 20.8296 21.3314C20.7271 21.3283 20.6292 21.1685 20.5293 21.077C20.5388 21.0584 20.5484 21.0398 20.5579 21.0213H21.0708L21.1171 21.074Z" fill="#D95D29"/>
<path d="M9.83942 20.6406C9.74933 20.6406 9.65919 20.6383 9.56919 20.6412C9.44552 20.6451 9.41991 20.5759 9.42254 20.4687C9.42512 20.3614 9.45608 20.2995 9.57753 20.3029C9.75762 20.308 9.93804 20.3066 10.1182 20.3027C10.2336 20.3002 10.2784 20.3497 10.2775 20.4647C10.2768 20.5696 10.2566 20.6415 10.1321 20.6377C10.0346 20.6347 9.93695 20.6371 9.83942 20.6371C9.83942 20.6382 9.83942 20.6395 9.83942 20.6406Z" fill="#D95D29"/>
<path d="M9.26323 20.3496C9.26744 20.3861 9.2741 20.4224 9.27551 20.459C9.28693 20.767 9.28693 20.7627 9.58326 20.7832C9.64476 20.7875 9.70309 20.8371 9.76286 20.8658C9.69946 20.8995 9.63851 20.9546 9.57216 20.9622C9.43847 20.9774 9.30184 20.9667 9.11499 20.9667C9.13679 20.7553 9.15791 20.5506 9.17903 20.346C9.20708 20.3472 9.23513 20.3484 9.26323 20.3496Z" fill="#D95D29"/>
<path d="M9.14848 21.5659C9.13747 21.4437 9.12981 21.3868 9.12777 21.3297C9.12523 21.2568 9.12718 21.1838 9.12718 21.1066H9.65101C9.66311 21.1283 9.67526 21.1499 9.68736 21.1715C9.52013 21.2939 9.35296 21.4163 9.14848 21.5659Z" fill="#D95D29"/>
<path d="M22.157 21.6091V21.0974H22.5784C22.5478 21.4458 22.4525 21.5591 22.157 21.6091Z" fill="#D95D29"/>
<path d="M22.4771 20.906C22.6257 20.8047 22.7411 20.7259 22.8658 20.6409C22.9696 20.7181 23.0757 20.7972 23.2219 20.906H22.4771Z" fill="#D95D29"/>
<path d="M22.3438 20.7176C22.3862 20.453 22.5225 20.3492 22.8291 20.427C22.6576 20.5629 22.5242 20.6687 22.3907 20.7745L22.3438 20.7176Z" fill="#D95D29"/>
<path d="M11.2181 20.3375C11.2653 20.6283 11.3116 20.8711 11.3383 21.1161C11.3437 21.1653 11.274 21.2227 11.239 21.2763C11.198 21.2295 11.1246 21.1847 11.1215 21.1355C11.1079 20.9177 11.1084 20.6984 11.1186 20.4803C11.1209 20.4315 11.183 20.3855 11.2181 20.3375Z" fill="#D95D29"/>
<path d="M12.2146 20.5917H11.7319C11.8176 20.4839 11.8785 20.4074 11.9559 20.3101C12.0551 20.3946 12.1424 20.469 12.2298 20.5433C12.2247 20.5594 12.2196 20.5755 12.2146 20.5917Z" fill="#D95D29"/>
<path d="M8.71131 15.458C8.37261 15.458 8.04296 15.4624 7.71386 15.4518C7.67738 15.4506 7.61438 15.3643 7.61334 15.3164C7.60505 14.9337 7.60872 14.5508 7.60872 14.1485H8.71131V15.458Z" fill="white"/>
<path d="M9.47314 14.1299C9.81494 14.1299 10.131 14.1245 10.4464 14.1358C10.4938 14.1375 10.5769 14.2168 10.5781 14.2619C10.5887 14.6453 10.5842 15.029 10.5842 15.4371H9.47314V14.1299Z" fill="white"/>
<path d="M12.7742 15.8281C12.8585 15.8328 12.947 15.8418 13.0356 15.842C13.6164 15.8432 14.1973 15.842 14.7782 15.8425C15.2366 15.8429 15.1631 15.879 15.1664 15.438C15.1669 15.367 15.1287 15.2402 15.0928 15.2344C14.9714 15.2146 14.7629 15.1938 14.7313 15.2518C14.6081 15.4774 14.4442 15.3697 14.2905 15.374C14.2387 15.0395 14.2387 15.0395 14.5501 15.0386C14.6557 15.0384 14.7617 15.0321 14.8668 15.0395C15.015 15.0499 15.0455 14.9715 15.0392 14.8451C15.0334 14.7303 15.0535 14.6111 14.8742 14.62C14.7162 14.6278 14.5567 14.6288 14.3995 14.6149C14.3527 14.6107 14.3112 14.5459 14.2672 14.5089C14.3109 14.4708 14.3527 14.4026 14.3987 14.3997C14.594 14.3869 14.7911 14.3852 14.9866 14.3954C15.1702 14.4049 15.1683 14.2954 15.1717 14.1639C15.1753 14.0241 15.1579 13.9352 14.9821 13.9372C14.2958 13.9449 13.6092 13.9471 12.9228 13.9399C12.7344 13.938 12.7459 14.0445 12.7427 14.1725C12.7391 14.3109 12.7554 14.4049 12.9324 14.3946C13.1278 14.3833 13.325 14.3876 13.5201 14.4023C13.5635 14.4055 13.6013 14.481 13.6416 14.5232C13.6006 14.5555 13.5615 14.6122 13.5183 14.6155C13.3607 14.6275 13.2013 14.6302 13.0435 14.6204C12.8663 14.6092 12.8772 14.7211 12.8739 14.8397C12.8704 14.9606 12.8865 15.0458 13.0406 15.0391C13.2333 15.0308 13.4267 15.0371 13.6281 15.0371V15.3914C13.4293 15.3914 13.2494 15.3912 13.0695 15.3915C12.7202 15.3921 12.7194 15.3929 12.7484 15.7464C12.7501 15.7677 12.7612 15.7881 12.7742 15.8281ZM13.9358 16.0815C13.521 16.0812 13.1061 16.0754 12.6915 16.0841C12.5312 16.0876 12.4589 16.0462 12.4607 15.8716C12.4676 15.2155 12.4663 14.5593 12.461 13.9032C12.4598 13.7531 12.5178 13.7115 12.662 13.7123C13.5218 13.7171 14.3815 13.7158 15.2413 13.7116C15.3842 13.7109 15.4412 13.7581 15.44 13.9075C15.4344 14.5636 15.434 15.2198 15.4408 15.8759C15.4425 16.0386 15.3745 16.085 15.2255 16.0835C14.7956 16.0788 14.3657 16.0818 13.9358 16.0815Z" fill="white"/>
<path d="M23.9234 14.9686C23.9744 15.1451 23.9295 15.2793 23.7759 15.3793C23.3265 15.6719 23.0876 15.6725 22.6104 15.3767C22.4681 15.2885 22.4438 15.2205 22.4742 14.9686H23.9234Z" fill="white"/>
<path d="M12.7743 15.8281C12.7613 15.7881 12.7502 15.7677 12.7485 15.7464C12.7195 15.3929 12.7203 15.3921 13.0696 15.3915C13.2495 15.3912 13.4294 15.3914 13.6282 15.3914V15.0371C13.4268 15.0371 13.2334 15.0308 13.0407 15.0391C12.8866 15.0458 12.8706 14.9606 12.874 14.8397C12.8773 14.7211 12.8664 14.6092 13.0436 14.6204C13.2014 14.6302 13.3608 14.6275 13.5184 14.6155C13.5616 14.6122 13.6007 14.5555 13.6417 14.5232C13.6014 14.481 13.5636 14.4055 13.5202 14.4023C13.3251 14.3876 13.1279 14.3833 12.9325 14.3946C12.7555 14.4049 12.7392 14.3109 12.7428 14.1725C12.746 14.0445 12.7346 13.938 12.9229 13.9399C13.6093 13.9471 14.2959 13.9449 14.9822 13.9372C15.158 13.9352 15.1754 14.0241 15.1718 14.1639C15.1684 14.2954 15.1703 14.4049 14.9867 14.3954C14.7912 14.3852 14.5941 14.3869 14.3988 14.3997C14.3528 14.4026 14.311 14.4708 14.2673 14.5089C14.3113 14.5459 14.3528 14.6107 14.3996 14.6149C14.5568 14.6288 14.7163 14.6278 14.8743 14.62C15.0536 14.6111 15.0335 14.7303 15.0393 14.8451C15.0456 14.9715 15.0152 15.0499 14.8669 15.0395C14.7618 15.0321 14.6558 15.0384 14.5502 15.0386C14.2388 15.0395 14.2388 15.0395 14.2906 15.374C14.4443 15.3697 14.6082 15.4774 14.7314 15.2518C14.763 15.1938 14.9715 15.2146 15.0929 15.2344C15.1288 15.2402 15.167 15.367 15.1665 15.438C15.1632 15.879 15.2367 15.8429 14.7783 15.8425C14.1974 15.842 13.6165 15.8432 13.0357 15.842C12.9471 15.8418 12.8586 15.8328 12.7743 15.8281Z" fill="#D95D29"/>
</svg>
