<?xml version="1.0" encoding="UTF-8"?>
<svg xmlns="http://www.w3.org/2000/svg" xmlns:xlink="http://www.w3.org/1999/xlink" width="56pt" height="56pt" viewBox="0 0 56 56" version="1.1">
<g id="surface1">
<path style=" stroke:none;fill-rule:nonzero;fill:rgb(94.900513%,0%,0%);fill-opacity:0.5;" d="M 56 28 C 56 43.464844 43.464844 56 28 56 C 12.535156 56 0 43.464844 0 28 C 0 12.535156 12.535156 0 28 0 C 43.464844 0 56 12.535156 56 28 Z M 56 28 "/>
<path style=" stroke:none;fill-rule:evenodd;fill:rgb(100%,100%,100%);fill-opacity:1;" d="M 26.832031 28.238281 L 19.425781 28.238281 L 19.289062 28.246094 C 18.976562 28.289062 18.703125 28.484375 18.558594 28.769531 L 16.417969 32.960938 L 16.371094 33.066406 C 16.332031 33.175781 16.3125 33.289062 16.3125 33.402344 L 16.3125 38.820312 L 16.320312 38.941406 C 16.378906 39.421875 16.789062 39.792969 17.285156 39.792969 L 38.714844 39.792969 L 38.835938 39.785156 C 39.316406 39.726562 39.6875 39.316406 39.6875 38.820312 L 39.6875 33.402344 L 39.679688 33.289062 C 39.667969 33.171875 39.632812 33.058594 39.578125 32.953125 L 37.394531 28.761719 L 37.324219 28.648438 C 37.144531 28.390625 36.851562 28.238281 36.53125 28.238281 L 29.167969 28.238281 L 29.167969 32.78125 C 29.167969 33.425781 28.644531 33.949219 28 33.949219 C 27.355469 33.949219 26.832031 33.425781 26.832031 32.78125 Z M 32.675781 35.25 L 35.011719 35.25 C 35.65625 35.25 36.179688 35.773438 36.179688 36.417969 C 36.179688 37.066406 35.65625 37.585938 35.011719 37.585938 L 32.675781 37.585938 C 32.03125 37.585938 31.507812 37.066406 31.507812 36.417969 C 31.507812 35.773438 32.03125 35.25 32.675781 35.25 Z M 32.675781 35.25 "/>
<path style=" stroke:none;fill-rule:evenodd;fill:rgb(100%,100%,100%);fill-opacity:1;" d="M 30.761719 22.261719 L 30.761719 32.78125 C 30.761719 34.308594 29.527344 35.542969 28 35.542969 C 26.472656 35.542969 25.238281 34.308594 25.238281 32.78125 L 25.238281 22.261719 C 25.238281 20.738281 26.472656 19.5 28 19.5 C 29.527344 19.5 30.761719 20.738281 30.761719 22.261719 Z M 28 21.09375 C 27.355469 21.09375 26.832031 21.617188 26.832031 22.261719 L 26.832031 32.78125 C 26.832031 33.425781 27.355469 33.949219 28 33.949219 C 28.644531 33.949219 29.167969 33.425781 29.167969 32.78125 L 29.167969 22.261719 C 29.167969 21.617188 28.644531 21.09375 28 21.09375 Z M 28 21.09375 "/>
<path style=" stroke:none;fill-rule:nonzero;fill:rgb(100%,100%,100%);fill-opacity:1;" d="M 28 24.601562 C 30.582031 24.601562 32.675781 22.507812 32.675781 19.925781 C 32.675781 17.34375 30.582031 15.25 28 15.25 C 25.417969 15.25 23.324219 17.34375 23.324219 19.925781 C 23.324219 22.507812 25.417969 24.601562 28 24.601562 Z M 28 24.601562 "/>
</g>
</svg>
