<svg width="32" height="32" viewBox="0 0 32 32" fill="none" xmlns="http://www.w3.org/2000/svg">
<path d="M16 32C24.8366 32 32 24.8366 32 16C32 7.16344 24.8366 0 16 0C7.16344 0 0 7.16344 0 16C0 24.8366 7.16344 32 16 32Z" fill="white"/>
<path d="M22.9177 22.15C21.5148 22.1959 20.2195 22.2418 18.8173 22.2876C17.9294 26.1133 10.5875 25.0804 11.4053 20.2246C11.8163 17.3487 15.6521 16.0921 18.032 18.2641C18.5555 18.8626 18.8116 19.4189 18.98 20.6375C20.1558 20.5916 21.7419 20.5457 22.9177 20.4999C22.9771 14.3122 16.0412 11.1718 10.8393 14.1746C5.8539 17.0534 6.42906 25.8223 11.6543 28.0624V28.2C8.80469 28.1434 5.67986 25.9076 5 23.2503L5.0382 8.9848C7.29994 7.42642 9.79937 5.55838 12.0611 4C12.151 4.04588 12.2422 4.09175 12.3328 4.13763C12.1764 6.2881 12.2748 9.83424 12.4 12.422C13.817 11.0285 14.7721 9.57116 17.2177 9.0873C18.7947 8.77549 20.303 8.96329 21.2552 9.29375C28.4012 11.774 28.8462 21.13 22.7819 24.3499C22.646 24.3499 22.351 24.6209 22.1261 24.6661C22.1261 24.6202 22.2676 24.4216 22.3751 24.2123C22.5555 23.5249 22.7366 22.8374 22.9177 22.15Z" fill="#292D78"/>
</svg>
