<svg width="175" height="157" viewBox="0 0 175 157" fill="none" xmlns="http://www.w3.org/2000/svg">
<path d="M87.5 157C130.854 157 166 121.854 166 78.5C166 35.1456 130.854 0 87.5 0C44.1456 0 9 35.1456 9 78.5C9 121.854 44.1456 157 87.5 157Z" fill="#EDEDED"/>
<path opacity="0.202451" fill-rule="evenodd" clip-rule="evenodd" d="M21.0511 69H119.949C131.575 69 141 78.4021 141 90C141 101.598 131.575 111 119.949 111H21.0511C9.42496 111 0 101.598 0 90C0 78.4021 9.42496 69 21.0511 69Z" fill="#CCCCCC"/>
<path opacity="0.161389" fill-rule="evenodd" clip-rule="evenodd" d="M52.1598 59H153.84C165.526 59 175 68.4021 175 80C175 91.5979 165.526 101 153.84 101H52.1598C40.4736 101 31 91.5979 31 80C31 68.4021 40.4736 59 52.1598 59Z" fill="#A2A2A2"/>
<path fill-rule="evenodd" clip-rule="evenodd" d="M11 59C12.1045 59 13 59.8955 13 61C13 62.1045 12.1045 63 11 63C9.89547 63 9 62.1045 9 61C9 59.8955 9.89547 59 11 59Z" fill="#9A9A9A"/>
<path fill-rule="evenodd" clip-rule="evenodd" d="M125 133C126.105 133 127 133.895 127 135C127 136.105 126.105 137 125 137C123.895 137 123 136.105 123 135C123 133.895 123.895 133 125 133Z" fill="#9A9A9A"/>
<path fill-rule="evenodd" clip-rule="evenodd" d="M66 6C67.1045 6 68 6.89547 68 8C68 9.10453 67.1045 10 66 10C64.8955 10 64 9.10453 64 8C64 6.89547 64.8955 6 66 6Z" fill="#9A9A9A"/>
<path fill-rule="evenodd" clip-rule="evenodd" d="M38 120C39.1045 120 40 120.895 40 122C40 123.105 39.1045 124 38 124C36.8955 124 36 123.105 36 122C36 120.895 36.8955 120 38 120Z" fill="#939393"/>
<path fill-rule="evenodd" clip-rule="evenodd" d="M125 46C126.105 46 127 46.8955 127 48C127 49.1045 126.105 50 125 50C123.895 50 123 49.1045 123 48C123 46.8955 123.895 46 125 46Z" fill="#D8D8D8"/>
<path fill-rule="evenodd" clip-rule="evenodd" d="M104 109.975C103.901 117.325 95.9205 122.432 89.0142 118.804L77.2557 112.626C74.2781 111.063 70.7219 111.063 67.7443 112.626L55.9858 118.804C49.0795 122.432 41.0994 117.325 41 109.975C41.0048 109.404 41.0562 108.834 41.1534 108.271L41.5426 106C44.9688 109.384 49.3153 111.678 54.0852 111.72C62.3778 111.797 70.1222 105.245 78.233 106.965C82.2727 107.817 85.6506 110.656 89.642 111.706C94.4943 113.001 99.6932 111.496 103.903 108.666C103.966 109.099 103.998 109.536 104 109.975Z" fill="#D9D9D9"/>
<path fill-rule="evenodd" clip-rule="evenodd" d="M154 35C155.105 35 156 35.8955 156 37C156 38.1045 155.105 39 154 39C152.895 39 152 38.1045 152 37C152 35.8955 152.895 35 154 35Z" fill="#A7A7A7"/>
<path fill-rule="evenodd" clip-rule="evenodd" d="M75.3886 135.777L71.3172 139.149C70.46 139.854 71.6858 141.06 72.5286 140.36L76.6 136.98C77.4572 136.274 76.2315 135.069 75.3886 135.769V135.777Z" fill="white"/>
<path fill-rule="evenodd" clip-rule="evenodd" d="M76.2515 139.497L72.8801 135.426C72.1744 134.569 70.9687 135.794 71.6687 136.637L75.0401 140.709C75.7458 141.566 76.9515 140.34 76.2515 139.497Z" fill="white"/>
<path fill-rule="evenodd" clip-rule="evenodd" d="M121.389 17.7772L117.317 21.1487C116.46 21.8544 117.686 23.0601 118.529 22.3601L122.6 18.9801C123.457 18.2744 122.231 17.0687 121.389 17.7687V17.7772Z" fill="white"/>
<path fill-rule="evenodd" clip-rule="evenodd" d="M122.252 21.4973L118.88 17.4258C118.174 16.5687 116.969 17.7944 117.669 18.6373L121.04 22.7087C121.746 23.5658 122.952 22.3401 122.252 21.4973Z" fill="white"/>
<path d="M140.643 105.927V104.023H138.211V103.209H140.643V102.371H138.211V101.504H140.209L137.83 97.3375H139.002L140.701 100.361C140.893 100.705 141.041 101.005 141.147 101.263C141.237 101.056 141.397 100.738 141.627 100.308L143.233 97.3375H144.487L142.114 101.504H144.112V102.371H141.698V103.209H144.112V104.023H141.698V105.927H140.643Z" fill="black"/>
<mask id="mask0_142_2061" style="mask-type:alpha" maskUnits="userSpaceOnUse" x="141" y="77" width="13" height="29">
<path d="M141.869 77.1332V105.758H151.68C151.68 105.758 153.659 103.523 153.659 91.2976C153.659 79.0702 151.68 77.1332 151.68 77.1332H141.869Z" fill="white"/>
</mask>
<g mask="url(#mask0_142_2061)">
<path fill-rule="evenodd" clip-rule="evenodd" d="M141.869 77.1332V105.758H151.68C151.68 105.758 153.659 103.523 153.659 91.2976C153.659 79.0702 151.68 77.1332 151.68 77.1332H141.869Z" fill="url(#paint0_linear_142_2061)"/>
</g>
<mask id="mask1_142_2061" style="mask-type:alpha" maskUnits="userSpaceOnUse" x="145" y="61" width="10" height="23">
<path d="M145.767 82.0716C145.767 82.0716 145.586 83.1387 147.12 83.3973C149.107 83.7314 149.329 82.5213 149.329 82.5213L154.053 61.455L152.737 61.1036L145.767 82.0716Z" fill="white"/>
</mask>
<g mask="url(#mask1_142_2061)">
<path fill-rule="evenodd" clip-rule="evenodd" d="M145.767 82.0716C145.767 82.0716 145.586 83.1387 147.12 83.3973C149.107 83.7314 149.329 82.5213 149.329 82.5213L154.053 61.455L152.737 61.1036L145.767 82.0716Z" fill="url(#paint1_linear_142_2061)"/>
</g>
<path fill-rule="evenodd" clip-rule="evenodd" d="M143.222 124.173C143.222 125.648 142.021 126.844 140.539 126.844H34.6833C33.2011 126.844 32 125.648 32 124.173V63.4751C32 62.0004 33.2011 60.8038 34.6833 60.8038H140.539C142.021 60.8038 143.222 62.0004 143.222 63.4751V124.173Z" fill="#DF0716" stroke="#474747" stroke-width="4"/>
<mask id="mask2_142_2061" style="mask-type:alpha" maskUnits="userSpaceOnUse" x="42" y="68" width="93" height="51">
<path d="M44.7106 68.1893C43.2891 68.1893 42.1367 69.3632 42.1367 70.8107V116.107C42.1367 117.555 43.2891 118.729 44.7106 118.729H131.638C133.059 118.729 134.211 117.555 134.211 116.107V70.8107C134.211 69.3632 133.059 68.1893 131.638 68.1893H44.7106Z" fill="white"/>
</mask>
<g mask="url(#mask2_142_2061)">
<path fill-rule="evenodd" clip-rule="evenodd" d="M44.7106 68.1893C43.2891 68.1893 42.1367 69.3632 42.1367 70.8107V116.107C42.1367 117.555 43.2891 118.729 44.7106 118.729H131.638C133.059 118.729 134.211 117.555 134.211 116.107V70.8107C134.211 69.3632 133.059 68.1893 131.638 68.1893H44.7106Z" fill="url(#paint2_linear_142_2061)"/>
</g>
<path fill-rule="evenodd" clip-rule="evenodd" d="M131.997 116.037C131.997 116.52 131.613 116.911 131.141 116.911H43.6693C43.197 116.911 42.8145 116.52 42.8145 116.037V70.8803C42.8145 70.3974 43.197 70.0067 43.6693 70.0067H131.141C131.613 70.0067 131.997 70.3974 131.997 70.8803V116.037Z" fill="#353535"/>
<path fill-rule="evenodd" clip-rule="evenodd" d="M126.348 111.256C126.348 112.368 125.447 113.27 124.336 113.27H50.2821C49.1706 113.27 48.2698 112.368 48.2698 111.256V75.6611C48.2698 74.5492 49.1706 73.6478 50.2821 73.6478H124.336C125.447 73.6478 126.348 74.5492 126.348 75.6611V111.256Z" fill="#F2C300"/>
<path fill-rule="evenodd" clip-rule="evenodd" d="M73.0404 109.228C73.0404 109.711 72.6491 110.102 72.1662 110.102H53.2299C52.747 110.102 52.3557 109.711 52.3557 109.228V77.6172C52.3557 77.1346 52.747 76.7433 53.2299 76.7433H72.1662C72.6491 76.7433 73.0404 77.1346 73.0404 77.6172V109.228Z" fill="#FDFDFD"/>
<path fill-rule="evenodd" clip-rule="evenodd" d="M56.2388 86.5109H69.4939V90.8413C67.4622 92.5851 65.5745 94.0822 65.5745 99.3974V101.49H58.7008L58.7216 99.3974C58.7627 94.7598 61.3067 91.928 64.7535 90.8413H60.9789L58.7216 93.7958H56.2388V86.5109Z" fill="#FA1826"/>
<path fill-rule="evenodd" clip-rule="evenodd" d="M97.9543 109.228C97.9543 109.711 97.5624 110.102 97.0795 110.102H78.1429C77.6603 110.102 77.269 109.711 77.269 109.228V77.6173C77.269 77.1347 77.6603 76.7434 78.1429 76.7434H97.0795C97.5624 76.7434 97.9543 77.1347 97.9543 77.6173V109.228Z" fill="#FDFDFD"/>
<path fill-rule="evenodd" clip-rule="evenodd" d="M81.1519 86.5109H94.4076V90.8413C92.3759 92.5851 90.4876 94.0822 90.4876 99.3974V101.49H83.6138L83.6344 99.3974C83.6758 94.7598 86.2198 91.928 89.6675 90.8413H85.892L83.6344 93.7958H81.1519V86.5109Z" fill="#FA1826"/>
<path fill-rule="evenodd" clip-rule="evenodd" d="M122.867 109.228C122.867 109.711 122.476 110.102 121.993 110.102H103.057C102.574 110.102 102.183 109.711 102.183 109.228V77.6173C102.183 77.1347 102.574 76.7434 103.057 76.7434H121.993C122.476 76.7434 122.867 77.1347 122.867 77.6173V109.228Z" fill="#FDFDFD"/>
<path fill-rule="evenodd" clip-rule="evenodd" d="M106.066 86.5109H119.321V90.8413C117.289 92.5851 115.401 94.0822 115.401 99.3974V101.49H108.528L108.548 99.3974C108.589 94.7598 111.134 91.928 114.58 90.8413H110.805L108.548 93.7958H106.066V86.5109Z" fill="#FA1826"/>
<path fill-rule="evenodd" clip-rule="evenodd" d="M143.268 62.5506C143.679 41.9638 118.411 25.3025 87.6556 25.3025C56.9016 25.3025 31.468 42.0694 32.0453 62.5506H143.268Z" fill="#DF0716" stroke="#474747" stroke-width="4"/>
<path fill-rule="evenodd" clip-rule="evenodd" d="M41.8857 56.2196C43.8642 51.0919 47.8315 46.3052 53.5247 42.292C62.7712 35.7751 75.1994 32.1858 88.5177 32.1858C101.838 32.1858 114.265 35.7751 123.512 42.292C129.205 46.3052 133.173 51.0919 135.151 56.2196H41.8857Z" fill="#353535"/>
<mask id="mask3_142_2061" style="mask-type:alpha" maskUnits="userSpaceOnUse" x="59" y="42" width="11" height="10">
<path d="M59.7334 42.5371V45.1092H60.4443V48.7716H59.7334V51.4779H65.8578C67.9648 51.4779 69.0428 50.5959 69.0428 49.0897C69.0428 47.6567 67.9521 47.1424 66.8871 46.9585C67.8423 46.7865 68.7976 46.2969 68.7976 44.9253C68.7976 43.4185 67.6582 42.5371 65.6129 42.5371H59.7334ZM63.8122 45.121H64.56C64.9026 45.121 65.172 45.2685 65.172 45.6483C65.172 45.9292 64.9395 46.1258 64.56 46.1258H63.8122V45.121ZM63.8122 47.7668H64.56C64.9395 47.7668 65.172 47.9633 65.172 48.2446C65.172 48.6246 64.9026 48.7716 64.56 48.7716H63.8122V47.7668Z" fill="white"/>
</mask>
<g mask="url(#mask3_142_2061)">
<path fill-rule="evenodd" clip-rule="evenodd" d="M59.7334 42.5371V45.1092H60.4443V48.7716H59.7334V51.4779H65.8578C67.9648 51.4779 69.0428 50.5959 69.0428 49.0897C69.0428 47.6567 67.9521 47.1424 66.8871 46.9585C67.8423 46.7865 68.7976 46.2969 68.7976 44.9253C68.7976 43.4185 67.6582 42.5371 65.6129 42.5371H59.7334ZM63.8122 45.121H64.56C64.9026 45.121 65.172 45.2685 65.172 45.6483C65.172 45.9292 64.9395 46.1258 64.56 46.1258H63.8122V45.121ZM63.8122 47.7668H64.56C64.9395 47.7668 65.172 47.9633 65.172 48.2446C65.172 48.6246 64.9026 48.7716 64.56 48.7716H63.8122V47.7668Z" fill="#F2C300"/>
</g>
<mask id="mask4_142_2061" style="mask-type:alpha" maskUnits="userSpaceOnUse" x="69" y="42" width="6" height="10">
<path d="M69.2861 42.5371V45.1092H69.9961V48.7716H69.2861V51.4779H74.1974V48.7716H73.4874V45.1092H74.1974V42.5371H69.2861Z" fill="white"/>
</mask>
<g mask="url(#mask4_142_2061)">
<path fill-rule="evenodd" clip-rule="evenodd" d="M69.2861 42.5371V45.1092H69.9961V48.7716H69.2861V51.4779H74.1974V48.7716H73.4874V45.1092H74.1974V42.5371H69.2861Z" fill="#F2C300"/>
</g>
<mask id="mask5_142_2061" style="mask-type:alpha" maskUnits="userSpaceOnUse" x="74" y="42" width="10" height="10">
<path d="M78.5937 42.4147C75.5811 42.4147 74.075 44.4594 74.075 46.8854V47.1297C74.075 49.5557 75.5811 51.6004 78.5937 51.6004H78.8641C79.8925 51.6004 80.7376 51.3065 81.3865 50.8172L81.9012 51.4779H83.3825V47.1297H78.7289V48.012C78.1045 48.012 77.7855 47.6075 77.7855 47.0686V46.9341C77.7855 46.3952 78.1045 45.9906 78.7289 45.9906C79.3415 45.9906 79.6596 46.3707 79.6723 46.8854H83.3825V42.5371H81.9012L81.3865 43.1987C80.7376 42.7086 79.8925 42.4147 78.8641 42.4147H78.5937Z" fill="white"/>
</mask>
<g mask="url(#mask5_142_2061)">
<path fill-rule="evenodd" clip-rule="evenodd" d="M78.5937 42.4147C75.5811 42.4147 74.075 44.4594 74.075 46.8854V47.1297C74.075 49.5557 75.5811 51.6004 78.5937 51.6004H78.8641C79.8925 51.6004 80.7376 51.3065 81.3865 50.8172L81.9012 51.4779H83.3825V47.1297H78.7289V48.012C78.1045 48.012 77.7855 47.6075 77.7855 47.0686V46.9341C77.7855 46.3952 78.1045 45.9906 78.7289 45.9906C79.3415 45.9906 79.6596 46.3707 79.6723 46.8854H83.3825V42.5371H81.9012L81.3865 43.1987C80.7376 42.7086 79.8925 42.4147 78.8641 42.4147H78.5937Z" fill="#F2C300"/>
</g>
<mask id="mask6_142_2061" style="mask-type:alpha" maskUnits="userSpaceOnUse" x="86" y="42" width="15" height="10">
<path d="M95.997 42.5371V45.0478H96.5978L95.8751 47.1055L95.1521 45.0478H95.7526V42.5371H91.7352V45.0478H92.3354L91.6124 47.1055L90.8904 45.0478H91.49V42.5371H86.6885V45.1092H87.3374L89.6282 51.4779H93.1186L93.7439 49.5061L94.3683 51.4779H97.8587L100.15 45.1092H100.798V42.5371H95.997Z" fill="white"/>
</mask>
<g mask="url(#mask6_142_2061)">
<path fill-rule="evenodd" clip-rule="evenodd" d="M95.997 42.5371V45.0478H96.5978L95.8751 47.1055L95.1521 45.0478H95.7526V42.5371H91.7352V45.0478H92.3354L91.6124 47.1055L90.8904 45.0478H91.49V42.5371H86.6885V45.1092H87.3374L89.6282 51.4779H93.1186L93.7439 49.5061L94.3683 51.4779H97.8587L100.15 45.1092H100.798V42.5371H95.997Z" fill="#F2C300"/>
</g>
<mask id="mask7_142_2061" style="mask-type:alpha" maskUnits="userSpaceOnUse" x="101" y="42" width="5" height="10">
<path d="M101.042 42.5371V45.1092H101.752V48.7716H101.042V51.4779H105.954V48.7716H105.243V45.1092H105.954V42.5371H101.042Z" fill="white"/>
</mask>
<g mask="url(#mask7_142_2061)">
<path fill-rule="evenodd" clip-rule="evenodd" d="M101.042 42.5371V45.1092H101.752V48.7716H101.042V51.4779H105.954V48.7716H105.243V45.1092H105.954V42.5371H101.042Z" fill="#F2C300"/>
</g>
<mask id="mask8_142_2061" style="mask-type:alpha" maskUnits="userSpaceOnUse" x="106" y="42" width="11" height="10">
<path d="M111.966 42.5371V45.5869L110.276 42.5371H106.198V45.1092H106.908V48.7716H106.198V51.4779H110.399V48.4408L112.089 51.4906V51.4779H116.18V48.7716H115.458V45.1092H116.18V42.5371H111.966Z" fill="white"/>
</mask>
<g mask="url(#mask8_142_2061)">
<path fill-rule="evenodd" clip-rule="evenodd" d="M111.966 42.5371V45.5869L110.276 42.5371H106.198V45.1092H106.908V48.7716H106.198V51.4779H110.399V48.4408L112.089 51.4906V51.4779H116.18V48.7716H115.458V45.1092H116.18V42.5371H111.966Z" fill="#F2C300"/>
</g>
<mask id="mask9_142_2061" style="mask-type:alpha" maskUnits="userSpaceOnUse" x="84" y="33" width="7" height="7">
<path d="M86.6835 35.8179L84.5115 36.133L86.0826 37.6649L85.7119 39.8278L87.6544 38.8064L89.5966 39.8278L89.2259 37.6649L90.7971 36.133L88.626 35.8179L87.6544 33.8497L86.6835 35.8179Z" fill="white"/>
</mask>
<g mask="url(#mask9_142_2061)">
<path fill-rule="evenodd" clip-rule="evenodd" d="M86.6835 35.8179L84.5115 36.133L86.0826 37.6649L85.7119 39.8278L87.6544 38.8064L89.5966 39.8278L89.2259 37.6649L90.7971 36.133L88.626 35.8179L87.6544 33.8497L86.6835 35.8179Z" fill="#F2C300"/>
</g>
<mask id="mask10_142_2061" style="mask-type:alpha" maskUnits="userSpaceOnUse" x="48" y="48" width="8" height="7">
<path d="M51.1192 50.0495L48.9478 50.3655L50.5186 51.897L50.1479 54.0603L52.0907 53.0394L54.0329 54.0603L53.6613 51.897L55.233 50.3655L53.0613 50.0495L52.0907 48.0819L51.1192 50.0495Z" fill="white"/>
</mask>
<g mask="url(#mask10_142_2061)">
<path fill-rule="evenodd" clip-rule="evenodd" d="M51.1192 50.0495L48.9478 50.3655L50.5186 51.897L50.1479 54.0603L52.0907 53.0394L54.0329 54.0603L53.6613 51.897L55.233 50.3655L53.0613 50.0495L52.0907 48.0819L51.1192 50.0495Z" fill="#F2C300"/>
</g>
<mask id="mask11_142_2061" style="mask-type:alpha" maskUnits="userSpaceOnUse" x="121" y="48" width="7" height="7">
<path d="M123.254 50.0495L121.082 50.3655L122.654 51.897L122.282 54.0603L124.225 53.0394L126.168 54.0603L125.797 51.897L127.368 50.3655L125.197 50.0495L124.225 48.0819L123.254 50.0495Z" fill="white"/>
</mask>
<g mask="url(#mask11_142_2061)">
<path fill-rule="evenodd" clip-rule="evenodd" d="M123.254 50.0495L121.082 50.3655L122.654 51.897L122.282 54.0603L124.225 53.0394L126.168 54.0603L125.797 51.897L127.368 50.3655L125.197 50.0495L124.225 48.0819L123.254 50.0495Z" fill="#F2C300"/>
</g>
<mask id="mask12_142_2061" style="mask-type:alpha" maskUnits="userSpaceOnUse" x="149" y="55" width="10" height="10">
<path d="M149.21 55.4159H158.713V64.9191H149.21V55.4159Z" fill="white"/>
</mask>
<g mask="url(#mask12_142_2061)">
<path fill-rule="evenodd" clip-rule="evenodd" d="M158.713 60.1675C158.713 62.7919 156.586 64.9191 153.961 64.9191C151.337 64.9191 149.21 62.7919 149.21 60.1675C149.21 57.5431 151.337 55.4159 153.961 55.4159C156.586 55.4159 158.713 57.5431 158.713 60.1675Z" fill="#353535"/>
</g>
<defs>
<linearGradient id="paint0_linear_142_2061" x1="147.764" y1="74.003" x2="147.764" y2="110.367" gradientUnits="userSpaceOnUse">
<stop stop-color="#FDD83D"/>
<stop offset="1" stop-color="#FF9C28"/>
</linearGradient>
<linearGradient id="paint1_linear_142_2061" x1="149.709" y1="71.8675" x2="150.576" y2="72.0988" gradientUnits="userSpaceOnUse">
<stop stop-color="#D6831C"/>
<stop offset="1" stop-color="#754D1C"/>
</linearGradient>
<linearGradient id="paint2_linear_142_2061" x1="88.1738" y1="60.1745" x2="88.1738" y2="153.747" gradientUnits="userSpaceOnUse">
<stop stop-color="#62040B"/>
<stop offset="1" stop-color="#AA050E"/>
</linearGradient>
</defs>
</svg>
