<?xml version="1.0" encoding="UTF-8"?>
<svg xmlns="http://www.w3.org/2000/svg" xmlns:xlink="http://www.w3.org/1999/xlink" width="32pt" height="32pt" viewBox="0 0 32 32" version="1.1">
<defs>
<clipPath id="clip1">
  <path d="M 16 32 C 24.835938 32 32 24.835938 32 16 C 32 7.164062 24.835938 0 16 0 C 7.164062 0 0 7.164062 0 16 C 0 24.835938 7.164062 32 16 32 Z M 16 32 "/>
</clipPath>
<clipPath id="clip2">
  <path d="M 4 4 L 28 4 L 28 28 L 4 28 Z M 4 4 "/>
</clipPath>
<clipPath id="clip3">
  <path d="M 24.476562 24.558594 C 24.425781 24.609375 24.386719 24.65625 24.347656 24.695312 C 22.53125 26.386719 20.398438 27.4375 17.949219 27.839844 C 17.601562 27.898438 17.246094 27.921875 16.894531 27.960938 C 16.832031 27.96875 16.769531 27.988281 16.707031 28 L 15.332031 28 C 15.035156 27.964844 14.734375 27.929688 14.4375 27.890625 C 12.457031 27.636719 10.644531 26.9375 9.015625 25.78125 C 8.507812 25.417969 8.03125 25.003906 7.539062 24.617188 C 7.550781 24.597656 7.558594 24.578125 7.570312 24.558594 Z M 24.582031 7.496094 C 24.953125 7.957031 25.351562 8.398438 25.699219 8.875 C 26.886719 10.503906 27.617188 12.320312 27.902344 14.320312 C 27.933594 14.5625 27.96875 14.808594 28 15.054688 L 28 16.90625 C 27.9375 17.34375 27.886719 17.785156 27.808594 18.222656 C 27.425781 20.324219 26.53125 22.1875 25.160156 23.824219 C 24.96875 24.054688 24.761719 24.269531 24.53125 24.53125 L 24.53125 7.527344 C 24.546875 7.519531 24.5625 7.507812 24.582031 7.496094 Z M 7.429688 7.5 C 7.445312 7.507812 7.464844 7.519531 7.484375 7.527344 L 7.484375 24.519531 C 7.25 24.261719 7.03125 24.035156 6.835938 23.796875 C 5.394531 22.058594 4.488281 20.070312 4.140625 17.835938 C 4.09375 17.53125 4.074219 17.222656 4.039062 16.917969 C 4.03125 16.835938 4.015625 16.753906 4 16.667969 L 4 15.332031 C 4.035156 15.027344 4.070312 14.722656 4.109375 14.417969 C 4.367188 12.429688 5.078125 10.617188 6.242188 8.988281 C 6.613281 8.472656 7.03125 7.996094 7.429688 7.5 Z M 16.589844 4 C 16.925781 4.039062 17.261719 4.074219 17.597656 4.117188 C 19.953125 4.429688 22.039062 5.355469 23.859375 6.878906 C 24.066406 7.054688 24.265625 7.242188 24.503906 7.453125 L 7.511719 7.453125 C 7.820312 7.179688 8.085938 6.933594 8.371094 6.707031 C 10.363281 5.117188 12.632812 4.222656 15.179688 4.039062 C 15.269531 4.035156 15.359375 4.011719 15.449219 4 Z M 16.589844 4 "/>
</clipPath>
</defs>
<g id="surface1">
<g clip-path="url(#clip1)" clip-rule="evenodd">
<rect x="0" y="0" width="32" height="32" style="fill:rgb(100%,100%,100%);fill-opacity:1;stroke:none;"/>
</g>
<g clip-path="url(#clip2)" clip-rule="nonzero">
<g clip-path="url(#clip3)" clip-rule="nonzero">
<rect x="0" y="0" width="32" height="32" style="fill:rgb(80.000305%,17.254639%,13.33313%);fill-opacity:1;stroke:none;"/>
</g>
</g>
</g>
</svg>
