<svg width="32" height="32" viewBox="0 0 32 32" fill="none" xmlns="http://www.w3.org/2000/svg">
<path d="M16 32C24.8366 32 32 24.8366 32 16C32 7.16344 24.8366 0 16 0C7.16344 0 0 7.16344 0 16C0 24.8366 7.16344 32 16 32Z" fill="white"/>
<path d="M23.4486 5.61666C22.9333 4.98855 18.5844 5.0157 18.0528 5.62324C17.1594 6.64441 16.3413 7.73154 15.3906 8.91645C15.9001 8.97789 16.2438 9.0824 16.5727 9.04756C17.6861 8.92976 18.3009 9.59929 18.8595 10.3983C19.4465 11.238 19.7752 11.7048 19.8368 12.1278L24.4962 6.89744C24.1483 6.46928 23.7982 6.04276 23.4486 5.61666Z" fill="url(#paint0_linear_142_2019)"/>
<path d="M27.7373 11.1882C26.7386 9.70321 25.6283 8.29077 24.4961 6.8974L19.8368 12.1278C19.9126 12.6479 19.5842 13.1019 18.8299 14.1006C17.9911 15.2109 17.0535 16.2464 16.0087 17.4966C14.6218 15.8201 13.3385 14.3425 12.1671 12.781C12.1306 12.7324 12.1063 12.6681 12.0925 12.5935L7.46362 6.96995C6.41063 8.2761 5.38535 9.60529 4.39587 10.959C3.80533 11.7672 3.8931 12.7028 4.54179 13.5054C7.81991 17.5601 11.1022 21.6116 14.3944 25.655C15.2249 26.6752 16.8608 26.6358 17.6946 25.61C18.7324 24.3333 19.7725 23.0583 20.8087 21.7804C23.0816 18.9778 25.4004 16.2098 27.5793 13.3358C27.9563 12.8387 28.0625 11.6716 27.7373 11.1882Z" fill="url(#paint1_linear_142_2019)"/>
<path d="M10.8044 5.13715C9.76845 5.13975 8.83327 5.30007 8.53635 5.65815C8.17594 6.09276 7.81841 6.52997 7.46362 6.96992L12.0926 12.5935C12.0317 12.2669 12.1689 11.7411 12.3545 11.4553C12.9049 10.6086 13.5919 9.8502 14.229 9.06039C15.4863 7.50163 15.4879 7.50286 14.2577 5.93052C13.8731 5.439 12.2775 5.14057 10.8542 5.13715H10.8044Z" fill="url(#paint2_linear_142_2019)"/>
<defs>
<linearGradient id="paint0_linear_142_2019" x1="15.3906" y1="8.64214" x2="24.4019" y2="7.19792" gradientUnits="userSpaceOnUse">
<stop stop-color="#EB7F00"/>
<stop offset="1" stop-color="#C8401F"/>
</linearGradient>
<linearGradient id="paint1_linear_142_2019" x1="15.9654" y1="12.4339" x2="15.9654" y2="26.4001" gradientUnits="userSpaceOnUse">
<stop stop-color="#E78100"/>
<stop offset="1" stop-color="#C33817"/>
</linearGradient>
<linearGradient id="paint2_linear_142_2019" x1="7.46362" y1="7.19241" x2="15.1717" y2="7.92413" gradientUnits="userSpaceOnUse">
<stop stop-color="#C5411D"/>
<stop offset="1" stop-color="#EF7B03"/>
</linearGradient>
</defs>
</svg>
