<svg width="32" height="32" viewBox="0 0 32 32" fill="none" xmlns="http://www.w3.org/2000/svg">
<path d="M16 32C24.8366 32 32 24.8366 32 16C32 7.16344 24.8366 0 16 0C7.16344 0 0 7.16344 0 16C0 24.8366 7.16344 32 16 32Z" fill="white"/>
<path d="M21.2277 8.98561C21.5661 8.99819 21.9726 9.51683 22.1962 9.89205C23.9289 12.7972 24.2722 16.0074 24.1713 19.303C24.0896 21.9734 23.4881 24.5034 22.1596 26.8492C21.778 27.5233 21.3366 27.8397 20.5148 27.8148C18.4145 27.7519 16.3107 27.794 13.9104 27.794C16.8767 25.1686 18.6893 22.2775 18.6978 18.5075C18.7057 14.803 17.1357 11.7591 14.4486 8.94346C16.8817 8.94346 19.0572 8.90307 21.2277 8.98561ZM10.6714 4.00128C12.7752 4.05981 14.8819 4.02089 17.3179 4.02089C14.3121 6.64391 12.5053 9.54645 12.505 13.3136C12.505 17.009 14.0112 20.0813 16.8268 22.8738C14.3399 22.8738 12.1655 22.908 9.99469 22.8366C9.67215 22.8258 9.28376 22.3701 9.06542 22.0305C7.87274 20.1732 7.34825 18.0802 7.13488 15.9182C6.75849 12.1039 7.10269 8.40059 9.02796 4.97006C9.40669 4.29425 9.85391 3.97845 10.6714 4.00128Z" fill="#E40013"/>
</svg>
