<?xml version="1.0" encoding="UTF-8"?>
<svg xmlns="http://www.w3.org/2000/svg" xmlns:xlink="http://www.w3.org/1999/xlink" width="20pt" height="20pt" viewBox="0 0 20 20" version="1.1">
<defs>
<clipPath id="clip1">
  <path d="M 2 0 L 18 0 L 18 20 L 2 20 Z M 2 0 "/>
</clipPath>
<clipPath id="clip2">
  <path d="M 15.457031 6.800781 C 12 3.988281 10.808594 1.742188 10 0 C 9.191406 1.742188 8 3.988281 4.542969 6.800781 C -1.351562 11.589844 4.199219 18.277344 9.074219 14.597656 C 8.757812 16.882812 7.671875 18.546875 6.570312 19.261719 L 6.570312 20 L 13.429688 20 L 13.429688 19.261719 C 12.328125 18.546875 11.242188 16.882812 10.925781 14.597656 C 15.800781 18.277344 21.351562 11.589844 15.457031 6.800781 Z M 15.457031 6.800781 "/>
</clipPath>
</defs>
<g id="surface1">
<g clip-path="url(#clip1)" clip-rule="nonzero">
<g clip-path="url(#clip2)" clip-rule="evenodd">
<rect x="0" y="0" width="20" height="20" style="fill:rgb(0%,0%,0%);fill-opacity:1;stroke:none;"/>
</g>
</g>
</g>
</svg>
