<svg width="292" height="216" viewBox="0 0 292 216" fill="none" xmlns="http://www.w3.org/2000/svg">
<g id="test">
<g id="Group 80">
<g id="Group 10">
<path id="Fill 1" fill-rule="evenodd" clip-rule="evenodd" d="M49.2079 99.1644L206.671 108.118L207.349 96.2049L49.8858 87.2519L49.2079 99.1644ZM207.477 109.836L48.2131 100.78C47.7162 100.752 47.3351 100.355 47.361 99.8949L48.1327 86.3155C48.1595 85.8559 48.5836 85.5055 49.0805 85.5333L208.343 94.5897C208.841 94.6175 209.222 95.0139 209.196 95.4744L208.424 109.054C208.398 109.514 207.974 109.864 207.477 109.836Z" fill="#4F4F4F"/>
<path id="Fill 3" fill-rule="evenodd" clip-rule="evenodd" d="M207.562 109.005L48.4674 99.958L44.9 162.694L203.994 171.741L207.562 109.005Z" fill="#212121"/>
<g id="Group 7">
<mask id="mask0_1237_26309" style="mask-type:alpha" maskUnits="userSpaceOnUse" x="44" y="99" width="165" height="74">
<path id="Clip 6" fill-rule="evenodd" clip-rule="evenodd" d="M44 99.1227H208.461V172.576H44V99.1227Z" fill="white"/>
</mask>
<g mask="url(#mask0_1237_26309)">
<path id="Fill 5" fill-rule="evenodd" clip-rule="evenodd" d="M45.8461 161.912L203.143 170.857L206.616 109.787L49.3187 100.843L45.8461 161.912ZM203.946 172.574L44.8523 163.527C44.3563 163.5 43.9753 163.103 44.0011 162.644L47.5685 99.9065C47.5944 99.4469 48.0185 99.0965 48.5145 99.1242L207.609 108.171C208.106 108.199 208.487 108.595 208.46 109.056L204.892 171.792C204.867 172.253 204.442 172.603 203.946 172.574Z" fill="#4F4F4F"/>
</g>
</g>
<path id="Fill 8" fill-rule="evenodd" clip-rule="evenodd" d="M208.29 96.2589C208.25 96.257 208.21 96.2522 208.17 96.2446L129.349 81.8714L49.4064 87.2168C48.9114 87.2484 48.4776 86.9038 48.4374 86.4442C48.3982 85.9837 48.7668 85.5844 49.2618 85.5509L129.324 80.1978C129.404 80.1921 129.484 80.1969 129.562 80.2112L208.502 94.6054C208.991 94.6954 209.312 95.1339 209.22 95.5858C209.136 96.0014 208.733 96.2838 208.29 96.2589Z" fill="#4F4F4F"/>
</g>
<path id="Fill 11" fill-rule="evenodd" clip-rule="evenodd" d="M289.764 42.3785V38.9346L258.541 32.986V42.6016L289.764 42.3785Z" fill="#6D6D6D"/>
<path id="Fill 12" fill-rule="evenodd" clip-rule="evenodd" d="M148.285 32.9864L117.472 36.9359V42.3789H148.303L148.285 32.9864Z" fill="#6D6D6D"/>
<path id="Fill 13" fill-rule="evenodd" clip-rule="evenodd" d="M244.735 208.215H251.623V139.089H244.735V208.215Z" fill="#6D6D6D"/>
<g id="Group 79">
<mask id="mask1_1237_26309" style="mask-type:alpha" maskUnits="userSpaceOnUse" x="116" y="0" width="175" height="210">
<path id="Clip 15" fill-rule="evenodd" clip-rule="evenodd" d="M116.442 0.957443H290.795V209.245H116.442V0.957443Z" fill="white"/>
</mask>
<g mask="url(#mask1_1237_26309)">
<path id="Fill 14" fill-rule="evenodd" clip-rule="evenodd" d="M245.765 138.059H257.511V43.4592H245.765V138.059ZM258.541 140.12H244.735C244.165 140.12 243.705 139.658 243.705 139.089V42.43C243.705 41.8603 244.165 41.3988 244.735 41.3988H258.541C259.11 41.3988 259.572 41.8603 259.572 42.43V139.089C259.572 139.658 259.11 140.12 258.541 140.12Z" fill="#4F4F4F"/>
<path id="Fill 16" fill-rule="evenodd" clip-rule="evenodd" d="M235.294 207.185H267.952V182.192L257.702 140.12H245.544L235.294 182.192V207.185ZM268.982 209.245H234.263C233.695 209.245 233.233 208.783 233.233 208.215V182.068C233.233 181.986 233.243 181.904 233.262 181.824L243.733 138.846C243.846 138.384 244.26 138.059 244.735 138.059H258.512C258.986 138.059 259.399 138.384 259.512 138.846L269.983 181.824C270.003 181.904 270.012 181.986 270.012 182.068V208.215C270.012 208.783 269.551 209.245 268.982 209.245Z" fill="#4F4F4F"/>
<path id="Fill 17" fill-rule="evenodd" clip-rule="evenodd" d="M258.511 209.245C257.942 209.245 257.481 208.783 257.481 208.215V139.089C257.481 138.521 257.942 138.059 258.511 138.059C259.08 138.059 259.541 138.521 259.541 139.089V208.215C259.541 208.783 259.08 209.245 258.511 209.245Z" fill="#4F4F4F"/>
<path id="Fill 18" fill-rule="evenodd" clip-rule="evenodd" d="M244.735 209.245C244.166 209.245 243.705 208.783 243.705 208.215V139.089C243.705 138.521 244.166 138.059 244.735 138.059C245.304 138.059 245.765 138.521 245.765 139.089V208.215C245.765 208.783 245.304 209.245 244.735 209.245Z" fill="#4F4F4F"/>
<path id="Fill 19" fill-rule="evenodd" clip-rule="evenodd" d="M149.333 41.3486H288.734V36.3163L258.399 29.6334H149.333V41.3486ZM289.765 43.409H148.303C147.734 43.409 147.272 42.9475 147.272 42.3788V28.6022C147.272 28.0335 147.734 27.572 148.303 27.572H258.511C258.586 27.572 258.66 27.5806 258.733 27.5969L289.986 34.4819C290.458 34.5862 290.795 35.0046 290.795 35.4881V42.3788C290.795 42.9475 290.333 43.409 289.765 43.409Z" fill="#4F4F4F"/>
<path id="Fill 20" fill-rule="evenodd" clip-rule="evenodd" d="M258.511 43.4088C257.942 43.4088 257.481 42.9474 257.481 42.3786V15.0849L251.636 4.16621L245.765 15.0858V28.603C245.765 29.1717 245.304 29.6332 244.735 29.6332C244.166 29.6332 243.705 29.1717 243.705 28.603V14.8264C243.705 14.6559 243.747 14.4884 243.828 14.339L250.731 1.49973C250.91 1.16559 251.259 0.956863 251.638 0.956863H251.64C252.019 0.957821 252.367 1.16654 252.546 1.50069L259.419 14.3409C259.499 14.4903 259.541 14.6569 259.541 14.8264V42.3786C259.541 42.9474 259.08 43.4088 258.511 43.4088Z" fill="#4F4F4F"/>
<path id="Fill 21" fill-rule="evenodd" clip-rule="evenodd" d="M244.735 43.4088C244.166 43.4088 243.705 42.9474 243.705 42.3786V28.603C243.705 28.0333 244.166 27.5718 244.735 27.5718C245.304 27.5718 245.765 28.0333 245.765 28.603V42.3786C245.765 42.9474 245.304 43.4088 244.735 43.4088Z" fill="#4F4F4F"/>
<path id="Fill 22" fill-rule="evenodd" clip-rule="evenodd" d="M148.303 43.4088C147.734 43.4088 147.272 42.9474 147.272 42.3786V28.603C147.272 28.0333 147.734 27.5718 148.303 27.5718C148.871 27.5718 149.333 28.0333 149.333 28.603V42.3786C149.333 42.9474 148.871 43.4088 148.303 43.4088Z" fill="#4F4F4F"/>
<path id="Fill 23" fill-rule="evenodd" clip-rule="evenodd" d="M118.502 41.3486H147.272L147.273 29.7808L118.502 33.7829V41.3486ZM148.303 43.409H117.472C116.903 43.409 116.442 42.9475 116.442 42.3788V32.8868C116.442 32.3726 116.821 31.937 117.33 31.8661L148.163 27.5777C148.458 27.5366 148.756 27.6256 148.98 27.8209C149.205 28.0163 149.335 28.2997 149.335 28.5974L149.333 42.3788C149.333 42.9475 148.871 43.409 148.303 43.409Z" fill="#4F4F4F"/>
<path id="Fill 24" fill-rule="evenodd" clip-rule="evenodd" d="M272.766 46.8945H288.734V43.6325H272.766V46.8945ZM289.765 48.954H271.736C271.167 48.954 270.706 48.4934 270.706 47.9247V42.6013C270.706 42.0326 271.167 41.5711 271.736 41.5711H289.765C290.333 41.5711 290.795 42.0326 290.795 42.6013V47.9247C290.795 48.4934 290.333 48.954 289.765 48.954Z" fill="#4F4F4F"/>
<path id="Fill 25" fill-rule="evenodd" clip-rule="evenodd" d="M126.553 61.4773C125.984 61.4773 125.522 61.0158 125.522 60.4471V42.3783C125.522 41.8095 125.984 41.349 126.553 41.349C127.121 41.349 127.583 41.8095 127.583 42.3783V60.4471C127.583 61.0158 127.121 61.4773 126.553 61.4773Z" fill="#4F4F4F"/>
<path id="Fill 26" fill-rule="evenodd" clip-rule="evenodd" d="M125.187 70.2532H127.848V61.4773H125.187V70.2532ZM128.878 72.3136H124.157C123.587 72.3136 123.127 71.8521 123.127 71.2834V60.4471C123.127 59.8784 123.587 59.4169 124.157 59.4169H128.878C129.448 59.4169 129.908 59.8784 129.908 60.4471V71.2834C129.908 71.8521 129.448 72.3136 128.878 72.3136Z" fill="#4F4F4F"/>
<path id="Fill 27" fill-rule="evenodd" clip-rule="evenodd" d="M126.678 84.9337C123.519 84.9337 120.948 82.363 120.948 79.2034C120.948 76.3953 122.978 74.0524 125.648 73.5651V71.2835C125.648 70.7148 126.11 70.2533 126.678 70.2533C127.247 70.2533 127.709 70.7148 127.709 71.2835V74.5024C127.709 75.0721 127.247 75.5336 126.678 75.5336C124.654 75.5336 123.009 77.1794 123.009 79.2034C123.009 81.2265 124.654 82.8733 126.678 82.8733C128.702 82.8733 130.348 81.2265 130.348 79.2034C130.348 78.6338 130.81 78.1732 131.378 78.1732C131.947 78.1732 132.409 78.6338 132.409 79.2034C132.409 82.363 129.838 84.9337 126.678 84.9337Z" fill="#4F4F4F"/>
<path id="Fill 28" fill-rule="evenodd" clip-rule="evenodd" d="M289.764 36.5184C289.523 36.5184 289.28 36.4342 289.084 36.2618L251.368 3.12098L148.562 29.5961C148.01 29.7369 147.448 29.4056 147.306 28.8551C147.165 28.3036 147.496 27.7416 148.047 27.5999L251.381 0.989715C251.71 0.904503 252.062 0.988758 252.318 1.2128L290.445 34.7146C290.872 35.0899 290.914 35.741 290.539 36.168C290.335 36.3997 290.05 36.5184 289.764 36.5184Z" fill="#4F4F4F"/>
<path id="Stroke 29" d="M245.463 29.331L257.511 41.5709" stroke="#4F4F4F"/>
<path id="Stroke 30" d="M257.599 29.6331L245.552 41.873" stroke="#4F4F4F"/>
<path id="Stroke 31" d="M244.735 42.4514L257.961 55.8891" stroke="#4F4F4F" stroke-linecap="round" stroke-linejoin="round"/>
<path id="Stroke 32" d="M258.058 42.7829L244.832 56.2206" stroke="#4F4F4F" stroke-linecap="round" stroke-linejoin="round"/>
<path id="Stroke 33" d="M245.066 42.5071H257.961" stroke="#4F4F4F" stroke-linecap="round" stroke-linejoin="round"/>
<path id="Stroke 34" d="M245.066 56.1708H257.961" stroke="#4F4F4F" stroke-linecap="round" stroke-linejoin="round"/>
<path id="Stroke 35" d="M244.736 56.1165L257.962 69.5542" stroke="#4F4F4F" stroke-linecap="round" stroke-linejoin="round"/>
<path id="Stroke 36" d="M258.059 56.4475L244.833 69.8851" stroke="#4F4F4F" stroke-linecap="round" stroke-linejoin="round"/>
<path id="Stroke 37" d="M245.067 56.1716H257.962" stroke="#4F4F4F" stroke-linecap="round" stroke-linejoin="round"/>
<path id="Stroke 38" d="M245.067 69.8357H257.962" stroke="#4F4F4F" stroke-linecap="round" stroke-linejoin="round"/>
<path id="Stroke 39" d="M244.735 69.6974L257.961 83.1351" stroke="#4F4F4F" stroke-linecap="round" stroke-linejoin="round"/>
<path id="Stroke 40" d="M258.058 70.0284L244.832 83.4661" stroke="#4F4F4F" stroke-linecap="round" stroke-linejoin="round"/>
<path id="Stroke 41" d="M245.066 69.7525H257.961" stroke="#4F4F4F" stroke-linecap="round" stroke-linejoin="round"/>
<path id="Stroke 42" d="M245.066 83.4167H257.961" stroke="#4F4F4F" stroke-linecap="round" stroke-linejoin="round"/>
<path id="Stroke 43" d="M244.736 83.362L257.962 96.7997" stroke="#4F4F4F" stroke-linecap="round" stroke-linejoin="round"/>
<path id="Stroke 44" d="M258.059 83.6934L244.833 97.131" stroke="#4F4F4F" stroke-linecap="round" stroke-linejoin="round"/>
<path id="Stroke 45" d="M245.067 83.4176H257.962" stroke="#4F4F4F" stroke-linecap="round" stroke-linejoin="round"/>
<path id="Stroke 46" d="M245.067 97.0813H257.962" stroke="#4F4F4F" stroke-linecap="round" stroke-linejoin="round"/>
<path id="Stroke 47" d="M244.735 96.9718L257.961 110.41" stroke="#4F4F4F" stroke-linecap="round" stroke-linejoin="round"/>
<path id="Stroke 48" d="M258.058 97.3028L244.832 110.74" stroke="#4F4F4F" stroke-linecap="round" stroke-linejoin="round"/>
<path id="Stroke 49" d="M245.066 97.0274H257.961" stroke="#4F4F4F" stroke-linecap="round" stroke-linejoin="round"/>
<path id="Stroke 50" d="M245.066 110.691H257.961" stroke="#4F4F4F" stroke-linecap="round" stroke-linejoin="round"/>
<path id="Stroke 51" d="M244.736 110.636L257.962 124.074" stroke="#4F4F4F" stroke-linecap="round" stroke-linejoin="round"/>
<path id="Stroke 52" d="M258.059 110.968L244.833 124.406" stroke="#4F4F4F" stroke-linecap="round" stroke-linejoin="round"/>
<path id="Stroke 53" d="M245.067 110.692H257.962" stroke="#4F4F4F" stroke-linecap="round" stroke-linejoin="round"/>
<path id="Stroke 54" d="M245.067 124.356H257.962" stroke="#4F4F4F" stroke-linecap="round" stroke-linejoin="round"/>
<path id="Stroke 55" d="M243.705 29.0917L230.267 42.3177" stroke="#4F4F4F" stroke-linecap="round" stroke-linejoin="round"/>
<path id="Stroke 56" d="M243.373 42.4145L229.936 29.1884" stroke="#4F4F4F" stroke-linecap="round" stroke-linejoin="round"/>
<path id="Stroke 57" d="M243.649 29.4226V42.3175" stroke="#4F4F4F" stroke-linecap="round" stroke-linejoin="round"/>
<path id="Stroke 58" d="M229.985 29.4231V42.3179" stroke="#4F4F4F" stroke-linecap="round" stroke-linejoin="round"/>
<path id="Stroke 59" d="M229.981 29.0917L216.543 42.3177" stroke="#4F4F4F" stroke-linecap="round" stroke-linejoin="round"/>
<path id="Stroke 60" d="M229.649 42.4145L216.212 29.1884" stroke="#4F4F4F" stroke-linecap="round" stroke-linejoin="round"/>
<path id="Stroke 61" d="M229.925 29.4226V42.3175" stroke="#4F4F4F" stroke-linecap="round" stroke-linejoin="round"/>
<path id="Stroke 62" d="M216.262 29.4231V42.3179" stroke="#4F4F4F" stroke-linecap="round" stroke-linejoin="round"/>
<path id="Stroke 63" d="M216.221 29.0917L202.784 42.3177" stroke="#4F4F4F" stroke-linecap="round" stroke-linejoin="round"/>
<path id="Stroke 64" d="M215.89 42.4145L202.453 29.1884" stroke="#4F4F4F" stroke-linecap="round" stroke-linejoin="round"/>
<path id="Stroke 65" d="M216.166 29.4226V42.3175" stroke="#4F4F4F" stroke-linecap="round" stroke-linejoin="round"/>
<path id="Stroke 66" d="M202.502 29.4231V42.3179" stroke="#4F4F4F" stroke-linecap="round" stroke-linejoin="round"/>
<path id="Stroke 67" d="M202.562 29.0917L189.124 42.3177" stroke="#4F4F4F" stroke-linecap="round" stroke-linejoin="round"/>
<path id="Stroke 68" d="M202.23 42.4145L188.792 29.1884" stroke="#4F4F4F" stroke-linecap="round" stroke-linejoin="round"/>
<path id="Stroke 69" d="M202.506 29.4226V42.3175" stroke="#4F4F4F" stroke-linecap="round" stroke-linejoin="round"/>
<path id="Stroke 70" d="M188.842 29.4231V42.3179" stroke="#4F4F4F" stroke-linecap="round" stroke-linejoin="round"/>
<path id="Stroke 71" d="M188.902 29.0917L175.464 42.3177" stroke="#4F4F4F" stroke-linecap="round" stroke-linejoin="round"/>
<path id="Stroke 72" d="M188.57 42.4145L175.133 29.1884" stroke="#4F4F4F" stroke-linecap="round" stroke-linejoin="round"/>
<path id="Stroke 73" d="M188.846 29.4226V42.3175" stroke="#4F4F4F" stroke-linecap="round" stroke-linejoin="round"/>
<path id="Stroke 74" d="M175.182 29.4231V42.3179" stroke="#4F4F4F" stroke-linecap="round" stroke-linejoin="round"/>
<path id="Stroke 75" d="M175.241 29.0917L161.804 42.3177" stroke="#4F4F4F" stroke-linecap="round" stroke-linejoin="round"/>
<path id="Stroke 76" d="M174.91 42.4145L161.473 29.1884" stroke="#4F4F4F" stroke-linecap="round" stroke-linejoin="round"/>
<path id="Stroke 77" d="M175.186 29.4226V42.3175" stroke="#4F4F4F" stroke-linecap="round" stroke-linejoin="round"/>
<path id="Stroke 78" d="M161.522 29.4231V42.3179" stroke="#4F4F4F" stroke-linecap="round" stroke-linejoin="round"/>
</g>
</g>
<g id="Group 61">
<path id="Fill 1_2" fill-rule="evenodd" clip-rule="evenodd" d="M29.3284 107.941C30.4404 107.8 30.4653 107.889 31.4311 108.214C32.2012 108.474 33.3764 108.712 33.4997 108.76C33.6832 108.829 34.9993 110.204 34.9993 110.204C35.4191 111.554 35.8585 112.145 35.2025 112.52C34.8035 112.748 34.3703 112.245 33.5889 111.104L33.0116 110.669C33.4303 111.194 33.7785 111.584 33.8355 112.199C33.8863 112.743 33.735 113.509 32.6934 113.668C32.4457 113.706 32.4799 113.49 32.4053 113.24L32.2115 112.577C31.4643 112.343 30.8083 112.105 30.0808 111.825C31.0477 112.281 31.6198 112.601 31.8706 112.929C32.224 113.391 31.8426 113.804 31.4612 114.211C30.9264 114.781 30.3212 113.807 28.7843 113.349C29.2817 113.589 30.0352 113.862 30.3098 114.37C30.571 114.855 29.9295 115.143 29.4703 115.175C27.778 115.295 25.1591 115.217 23.4584 114.906C22.7153 114.77 21.4758 113.955 20.9815 113.923C19.7689 113.625 18.6994 113.807 17.4796 113.887L17.9802 108.95L22.7392 109.783C23.3403 109.46 28.6869 108.022 29.3284 107.941Z" fill="#7F7F7F"/>
<path id="Fill 3_2" fill-rule="evenodd" clip-rule="evenodd" d="M8.53233 105.177C13.681 106.573 14.7992 108.572 22.4559 109.772C21.6568 111.12 21.29 112.141 21.5656 114.157C13.5825 114.098 10.8051 114.436 3.05204 112.927C0.844586 111.957 1.06119 112.442 0.184422 108.696C-0.0871053 105.423 6.11346 104.058 8.53233 105.177Z" fill="#B4B4B4"/>
<g id="Group 7_2">
<mask id="mask2_1237_26309" style="mask-type:alpha" maskUnits="userSpaceOnUse" x="0" y="82" width="16" height="31">
<path id="Clip 6_2" fill-rule="evenodd" clip-rule="evenodd" d="M0 82.3399H15.9692V112.497H0V82.3399Z" fill="white"/>
</mask>
<g mask="url(#mask2_1237_26309)">
<path id="Fill 5_2" fill-rule="evenodd" clip-rule="evenodd" d="M6.59977 110.942C4.01405 112.121 2.20041 113.109 1.10705 112.04C0.400246 111.349 -0.114827 109.041 0.0219728 107.919C0.660373 102.702 3.39223 94.5599 5.65565 90.6611C7.54597 87.4059 8.99481 84.4813 12.6356 82.7775C21.6426 78.5616 9.90681 106.077 6.59977 110.942Z" fill="#B4B4B4"/>
</g>
</g>
<path id="Fill 8_2" fill-rule="evenodd" clip-rule="evenodd" d="M44.5277 177.422C50.0059 177.422 54.4446 181.862 54.4446 187.339C54.4446 192.816 50.0059 197.256 44.5277 197.256C39.0505 197.256 34.6107 192.816 34.6107 187.339C34.6107 181.862 39.0505 177.422 44.5277 177.422Z" fill="#E3EDFA"/>
<path id="Fill 10" fill-rule="evenodd" clip-rule="evenodd" d="M44.5277 183.697L46.4429 185.088L48.356 186.479L47.6254 188.729L46.8947 190.98H44.5277H42.1616L41.431 188.729L40.6993 186.479L42.6135 185.088L44.5277 183.697Z" fill="#1B1F24"/>
<path id="Fill 12_2" fill-rule="evenodd" clip-rule="evenodd" d="M44.5277 181.794L42.6135 180.403L40.6993 179.012L41.0082 178.065C42.1015 177.65 43.2882 177.422 44.5277 177.422C45.7682 177.422 46.9538 177.65 48.0482 178.065L48.356 179.012L46.4429 180.403L44.5277 181.794Z" fill="#1B1F24"/>
<path id="Fill 14_2" fill-rule="evenodd" clip-rule="evenodd" d="M47.7279 192.516L50.0918 192.612L52.4558 192.71L52.575 193.135C51.0971 195.182 48.8575 196.644 46.2718 197.102L46.0822 196.953L46.905 194.735L47.7279 192.516Z" fill="#1B1F24"/>
<path id="Fill 16_2" fill-rule="evenodd" clip-rule="evenodd" d="M41.3291 192.516L38.9651 192.612L36.6001 192.71L36.481 193.135C37.9588 195.182 40.1984 196.644 42.7841 197.102L42.9738 196.953L42.1509 194.735L41.3291 192.516Z" fill="#1B1F24"/>
<path id="Fill 18_2" fill-rule="evenodd" clip-rule="evenodd" d="M38.819 185.681L36.9722 187.159L35.1254 188.638L34.6601 188.332C34.628 188.005 34.6104 187.673 34.6104 187.339C34.6104 185.054 35.3835 182.951 36.681 181.274L37.1494 181.252L37.9837 183.467L38.819 185.681Z" fill="#1B1F24"/>
<path id="Fill 20_2" fill-rule="evenodd" clip-rule="evenodd" d="M50.2368 185.681L52.0836 187.159L53.9315 188.638L54.3957 188.332C54.4289 188.005 54.4455 187.673 54.4455 187.339C54.4455 185.054 53.6724 182.951 52.3748 181.274L51.9074 181.252L51.0721 183.467L50.2368 185.681Z" fill="#1B1F24"/>
<path id="Fill 22_2" fill-rule="evenodd" clip-rule="evenodd" d="M26.6074 137.973C28.9185 143.777 28.7994 148.348 30.4451 160.58C31.8514 165.633 32.1872 169.491 33.4982 174.458C35.5596 182.269 34.7958 189.036 37.5525 199.307L31.9084 199.591C29.358 191.71 26.0758 185.03 24.372 177.433C23.8538 175.124 24.428 172.579 23.83 170.144C20.0037 162.772 18.5466 158.977 17.0936 153.006L26.6074 137.973Z" fill="#B4B4B4"/>
<path id="Fill 24_2" fill-rule="evenodd" clip-rule="evenodd" d="M33.4982 174.458C35.5595 182.27 34.7957 189.035 37.5524 199.308L31.9084 199.591L24.3719 177.432L33.4982 174.458Z" fill="#B22200"/>
<path id="Fill 26_2" fill-rule="evenodd" clip-rule="evenodd" d="M34.9318 193.366C33.0446 191.63 31.1325 191.504 29.8992 192.313C28.5136 193.221 27.9074 195.656 30.3604 199.097C31.318 200.441 31.7554 201.111 32.1181 202.081C33.4115 205.528 32.285 209.191 35.7485 212.649C36.3993 213.3 37.9031 213.202 38.6648 212.889C40.238 212.242 42.1812 211.026 42.1449 208.936C40.9199 204.602 40.808 201.967 38.0285 198.532C36.5123 196.659 36.8025 195.087 34.9318 193.366Z" fill="#353535"/>
<path id="Fill 28_2" fill-rule="evenodd" clip-rule="evenodd" d="M39.9056 114.951C41.2186 115.812 45.7341 117.593 46.4077 115.966C47.0917 114.314 47.3632 111.405 47.4234 108.206C47.5063 103.733 47.1777 98.6932 46.9819 95.7146C46.7642 92.391 45.3796 89.9794 42.1597 87.8176C35.7156 83.4928 36.9571 100.61 38.6889 109.984C39.0993 112.201 39.5366 113.985 39.9056 114.951Z" fill="#B4B4B4"/>
<path id="Fill 30" fill-rule="evenodd" clip-rule="evenodd" d="M12.3549 120.628C9.0002 136.644 10.6076 142.185 14.5302 151.307L18.8135 161.268L22.8481 160.109L26.1873 159L25.0182 123.878L23.8596 120.163L12.3549 120.628Z" fill="#17181A"/>
<path id="Stroke 32_2" fill-rule="evenodd" clip-rule="evenodd" d="M12.3549 120.628C9.0002 136.644 10.6076 142.185 14.5302 151.307L18.8135 161.268L22.8481 160.109L26.1873 159L25.0182 123.878L23.8596 120.163L12.3549 120.628Z" stroke="#6D6D6D" stroke-width="0.5"/>
<path id="Fill 34" fill-rule="evenodd" clip-rule="evenodd" d="M27.0619 159.047L25.013 129.957C23.7082 138.848 23.9476 144.519 17.318 143.802L19.9794 145.939C20.3411 151.938 20.2934 156.142 20.8219 160.599L27.0619 159.047Z" fill="#363636"/>
<path id="Fill 36" fill-rule="evenodd" clip-rule="evenodd" d="M33.6818 124.855C35.1048 131.929 36.165 136.558 36.337 140.324C36.621 146.565 35.0125 150.846 32.5657 162.942C32.2413 168.176 31.2972 171.933 30.9116 177.056C30.3043 185.111 27.3673 191.255 26.6128 201.865L21.1874 200.285C21.3553 192.004 20.4382 184.618 21.3139 176.88C21.5802 174.529 22.9555 172.312 23.1866 169.816C21.9834 161.598 21.8476 157.536 22.429 151.416C23.4239 140.933 31.6216 148.346 25.9444 122.812L33.6818 124.855Z" fill="#B4B4B4"/>
<path id="Fill 38" fill-rule="evenodd" clip-rule="evenodd" d="M30.9114 177.056C30.3041 185.111 27.368 191.256 26.6125 201.865L21.1872 200.286C21.3551 192.004 20.4389 184.618 21.3146 176.88C21.41 176.036 21.6494 175.206 21.9271 174.377C24.9937 172.869 31.2658 175.495 30.9114 177.056Z" fill="#B22200"/>
<path id="Fill 40" fill-rule="evenodd" clip-rule="evenodd" d="M33.6819 124.855C35.1048 131.929 36.165 136.558 36.337 140.324C36.621 146.565 35.9422 150.846 33.4953 162.942L21.9906 160.624C21.8217 157.493 22.1098 154.763 22.429 151.416C23.4239 140.933 27.4419 146.675 21.7637 121.14L33.6819 124.855Z" fill="#17181A"/>
<path id="Stroke 42_2" fill-rule="evenodd" clip-rule="evenodd" d="M33.6819 124.855C35.1048 131.929 36.165 136.558 36.337 140.324C36.621 146.565 35.9422 150.846 33.4953 162.942L21.9906 160.624C21.8217 157.493 22.1098 154.763 22.429 151.416C23.4239 140.933 27.4419 146.675 21.7637 121.14L33.6819 124.855Z" stroke="#6D6D6D" stroke-width="0.5"/>
<g id="Group 46">
<mask id="mask3_1237_26309" style="mask-type:alpha" maskUnits="userSpaceOnUse" x="19" y="192" width="11" height="24">
<path id="Clip 45" fill-rule="evenodd" clip-rule="evenodd" d="M19.41 192.663H29.3566V215.008H19.41V192.663Z" fill="white"/>
</mask>
<g mask="url(#mask3_1237_26309)">
<path id="Fill 44" fill-rule="evenodd" clip-rule="evenodd" d="M26.0806 195.392C24.8639 193.133 23.1 192.388 21.6688 192.75C20.0625 193.155 18.6934 195.259 19.8852 199.313C20.3506 200.896 20.5102 201.673 20.5703 202.706C20.8086 206.74 17.456 209.453 21.1734 215.008H28.1067L29.3566 213.596C28.9441 212.445 28.9907 212.735 27.8031 212.467C28.0622 207.97 28.8197 205.44 27.316 201.288C26.4962 199.022 27.2859 197.631 26.0806 195.392Z" fill="#353535"/>
</g>
</g>
<path id="Fill 47" fill-rule="evenodd" clip-rule="evenodd" d="M26.3776 76.6157L35.0271 78.9703C34.3679 81.3042 33.714 83.6101 33.1243 85.9627L28.6296 91.4782L24.2385 83.5904L26.3776 76.6157Z" fill="#B4B4B4"/>
<path id="Fill 49" fill-rule="evenodd" clip-rule="evenodd" d="M29.715 81.0962C29.6922 81.0921 29.6674 81.0869 29.6446 81.0796C28.7761 80.8496 28.3481 80.7179 27.9315 80.3894C26.01 78.8743 25.6846 76.3891 25.9997 74.2272C25.4318 74.364 25.2877 72.8043 25.3084 72.312C25.3395 71.5855 25.1644 70.2859 25.2234 69.462C25.2566 68.9905 25.4069 68.6505 25.5872 68.579C25.9738 68.4267 26.2681 68.6474 26.5686 69.4278C26.75 68.8847 26.9417 68.3251 27.0868 67.7157C27.3615 66.5768 27.5832 65.6316 27.9387 64.8751C28.2963 64.1102 28.7916 63.5309 29.6052 63.1246V63.1226C30.055 62.9008 30.5379 62.7391 31.0457 62.6355C31.0509 62.6355 31.0561 62.6344 31.0613 62.6334C31.0944 62.6293 31.1286 62.623 31.1618 62.6147C31.1805 62.6116 31.1981 62.6096 31.2178 62.6044C31.2437 62.5982 31.2706 62.594 31.2965 62.5909C31.3214 62.5888 31.3473 62.5837 31.3732 62.5805C31.4022 62.5733 31.4302 62.5712 31.4572 62.5691C31.482 62.5629 31.5059 62.5598 31.5308 62.5567C31.567 62.5515 31.6012 62.5474 31.6365 62.5453C31.6541 62.5443 31.6707 62.5401 31.6883 62.5391C31.7391 62.5329 31.7919 62.5287 31.8437 62.5256L31.8458 62.5235C33.1506 62.4168 34.531 62.6635 35.757 63.2003C36.9779 63.734 38.0422 64.5579 38.7169 65.5953C39.2081 66.356 39.3398 67.1022 39.2631 67.9385C39.1874 68.7666 38.9055 69.6931 38.5656 70.8103C38.3822 71.4135 38.265 71.9949 38.1459 72.5587C38.7884 72.0529 39.1491 72.0166 39.403 72.3389C39.5232 72.4934 39.4797 72.8633 39.2693 73.2872C38.9024 74.0261 38.092 75.0563 37.751 75.6988C37.522 76.13 36.6266 77.3757 36.1996 77.0119C35.3891 79.0515 33.7921 80.9646 31.4478 81.3242C30.9411 81.3978 30.5182 81.3118 29.715 81.0962Z" fill="#B4B4B4"/>
<path id="Fill 51" fill-rule="evenodd" clip-rule="evenodd" d="M25.6004 75.5925C25.5879 75.6008 26.0211 69.4375 26.1268 67.4011C26.3123 63.8588 27.4378 61.669 30.322 60.5611C35.1235 58.7143 39.4441 61.9167 39.527 63.1499C41.4277 64.4381 40.8639 68.2126 39.3094 71.8336C38.2025 74.4111 36.4801 76.9595 35.7889 78.2694C34.7981 80.1484 32.1025 80.9899 29.8888 80.5733C27.9944 80.2168 25.903 78.6322 25.6004 75.5925Z" fill="#632404"/>
<path id="Fill 53" fill-rule="evenodd" clip-rule="evenodd" d="M46.9825 95.7145C46.7648 92.3909 45.3803 89.9793 42.1592 87.8175C41.8639 87.6185 41.5892 87.4806 41.325 87.3697C39.3383 86.0245 35.5939 84.4171 34.5233 83.4171L34.6643 81.421C32.3739 82.7807 26.9216 80.992 25.2282 79.1431C24.483 80.6292 24.1099 80.6603 23.9037 80.7764C20.4226 82.7362 16.0988 80.8831 13.1711 82.56C13.0001 82.6211 12.825 82.6895 12.6353 82.7776C8.99457 84.4814 7.54574 87.4071 5.65645 90.6612C4.05319 93.42 2.21676 98.3065 1.05396 102.777L9.69723 105.017C10.2185 103.883 10.7564 102.655 11.2891 101.38C11.6373 105.706 12.0052 110.031 11.856 114.045C11.657 119.374 10.9326 121.966 10.2144 127.431L34.941 128.994C34.0963 122.637 35.4519 117.27 36.6893 111.392C36.9474 110.165 37.5422 108.822 38.2542 107.384C38.3921 108.296 38.5392 109.171 38.6895 109.984L47.424 108.206C47.5069 103.733 47.1773 98.6931 46.9825 95.7145Z" fill="#17181A"/>
<path id="Union" fill-rule="evenodd" clip-rule="evenodd" d="M19.5014 98.2011L22.3113 96.5314L20.313 96.2506C20.0589 96.2053 19.7974 96.2483 19.5757 96.3716L16.8561 97.9827L17.1628 95.8007L15.45 95.56L14.7541 100.511L16.4669 100.752L16.5809 99.9408L18.035 99.0754L19.2041 100.848C19.351 101.062 19.5914 101.201 19.8565 101.225L21.6865 101.482L19.5014 98.2011ZM31.8151 97.86L33.7442 98.1311C35.1257 98.3252 36.0898 99.591 35.8976 100.958C35.7055 102.326 34.4298 103.277 33.0483 103.082L31.1192 102.811C29.7378 102.617 28.7736 101.351 28.9658 99.9841C29.1579 98.6168 30.4336 97.6658 31.8151 97.86ZM31.3422 101.174L33.2783 101.446C33.7466 101.512 34.179 101.189 34.2442 100.726C34.3093 100.262 33.9825 99.8334 33.5142 99.7675L31.5781 99.4954C31.1098 99.4296 30.6773 99.752 30.6122 100.215C30.547 100.679 30.8739 101.108 31.3422 101.174ZM22.1513 98.1742L22.3818 96.5342L29.3137 97.5084L29.0832 99.1484L26.4742 98.7817L26.0088 102.093L24.2987 101.853L24.764 98.5414L22.1513 98.1742Z" fill="#E50012"/>
<path id="Stroke 55_2" fill-rule="evenodd" clip-rule="evenodd" d="M46.9825 95.7145C46.7648 92.3909 45.3803 89.9793 42.1592 87.8175C41.8639 87.6185 41.5892 87.4806 41.325 87.3697C39.3383 86.0245 35.5939 84.4171 34.5233 83.4171L34.6643 81.421C32.3739 82.7807 26.9216 80.992 25.2282 79.1431C24.483 80.6292 24.1099 80.6603 23.9037 80.7764C20.4226 82.7362 16.0988 80.8831 13.1711 82.56C13.0001 82.6211 12.825 82.6895 12.6353 82.7776C8.99457 84.4814 7.54574 87.4071 5.65645 90.6612C4.05319 93.42 2.21676 98.3065 1.05396 102.777L9.69723 105.017C10.2185 103.883 10.7564 102.655 11.2891 101.38C11.6373 105.706 12.0052 110.031 11.856 114.045C11.657 119.374 10.9326 121.966 10.2144 127.431L34.941 128.994C34.0963 122.637 35.4519 117.27 36.6893 111.392C36.9474 110.165 37.5422 108.822 38.2542 107.384C38.3921 108.296 38.5392 109.171 38.6895 109.984L47.424 108.206C47.5069 103.733 47.1773 98.6931 46.9825 95.7145Z" stroke="#6D6D6D" stroke-width="0.5"/>
<path id="Fill 57" fill-rule="evenodd" clip-rule="evenodd" d="M55.8483 138.114C56.4556 139.055 56.3883 139.116 56.5147 140.127C56.6152 140.934 56.9085 142.096 56.9199 142.229C56.9365 142.424 56.2681 144.205 56.2681 144.205C55.2369 145.169 54.8918 145.823 54.271 145.394C53.8927 145.134 54.158 144.524 54.8462 143.326L54.9882 142.615C54.6969 143.222 54.4969 143.705 53.9663 144.024C53.4989 144.306 52.7424 144.502 52.1475 143.632C52.0055 143.425 52.2148 143.362 52.4086 143.187L52.9227 142.724C52.8076 141.949 52.7382 141.255 52.675 140.477C52.6833 141.548 52.6429 142.201 52.4563 142.569C52.1941 143.089 51.6562 142.924 51.1236 142.756C50.3784 142.522 50.993 141.554 50.7391 139.972C50.7391 140.523 50.8199 141.32 50.481 141.787C50.1577 142.234 49.6198 141.782 49.3918 141.381C48.5503 139.908 47.4828 137.515 47.0258 135.849C46.8258 135.119 47.0216 133.649 46.8361 133.19C46.5781 131.969 45.9511 131.085 45.35 130.018L50.0136 128.328L51.3288 132.977C51.8811 133.379 55.497 137.571 55.8483 138.114Z" fill="#B4B4B4"/>
<path id="Fill 59" fill-rule="evenodd" clip-rule="evenodd" d="M48.665 119.386C49.6402 124.63 48.9749 125.298 51.2165 132.717C49.6547 132.582 48.5759 132.693 46.8804 133.817C43.4676 126.598 41.9587 124.243 39.9544 116.604C39.8694 114.195 39.5264 114.599 42.5225 112.184C44.0107 111.31 47.2131 111.747 47.2473 113.73C47.2784 115.57 48.6453 118.123 48.665 119.386Z" fill="#B4B4B4"/>
</g>
<path id="Title Copy 2" d="M93.4456 139.743L98.7127 140.111C101.965 140.339 104.535 139.135 104.743 136.162C104.882 134.167 103.783 132.968 102.214 132.477L102.221 132.377C103.508 132.026 104.364 130.683 104.459 129.326C104.652 126.573 102.399 125.533 99.366 125.321L94.478 124.979L93.4456 139.743ZM97.0108 131.191L97.2731 127.44L99.0288 127.563C100.804 127.687 101.646 128.267 101.555 129.564C101.473 130.741 100.602 131.442 98.7266 131.311L97.0108 131.191ZM96.5574 137.675L96.8573 133.386L98.9123 133.529C100.947 133.672 101.983 134.345 101.882 135.782C101.775 137.318 100.627 137.96 98.6124 137.819L96.5574 137.675ZM109.52 141.148C110.797 141.237 111.959 140.677 112.995 139.907L113.055 139.911L113.191 141.124L115.585 141.291L116.041 134.767C116.267 131.535 114.929 129.737 112.096 129.539C110.34 129.416 108.698 129.963 107.324 130.689L108.246 132.698C109.326 132.172 110.355 131.783 111.393 131.856C112.769 131.952 113.19 132.824 113.153 133.924C108.63 134.089 106.607 135.21 106.44 137.604C106.307 139.5 107.525 141.008 109.52 141.148ZM110.638 138.92C109.78 138.86 109.188 138.438 109.25 137.56C109.319 136.563 110.289 135.889 113.027 135.719L112.87 137.974C112.122 138.623 111.476 138.979 110.638 138.92ZM111.359 128.044C112.964 128.016 114.427 127.457 114.53 125.98C114.636 124.464 113.589 123.388 110.901 123.12L110.593 124.943C111.886 125.094 112.381 125.469 112.342 126.028C112.304 126.567 111.81 126.752 111.203 126.83L111.359 128.044ZM123.223 142.106C126.016 142.301 128.741 140.327 128.999 136.636C129.26 132.905 126.836 130.57 124.043 130.375C121.25 130.179 118.526 132.154 118.265 135.885C118.007 139.576 120.43 141.911 123.223 142.106ZM123.39 139.712C121.874 139.606 121.111 138.189 121.258 136.094C121.405 133.979 122.36 132.663 123.876 132.769C125.392 132.875 126.154 134.311 126.006 136.426C125.859 138.521 124.907 139.818 123.39 139.712ZM138.755 142.911L141.708 143.118L142.569 130.808L146.759 131.101L146.93 128.647L135.638 127.857L135.466 130.311L139.616 130.602L138.755 142.911ZM147.078 143.493L149.991 143.697L150.457 137.033C151.209 135.462 152.307 134.957 153.185 135.019C153.643 135.051 153.958 135.133 154.329 135.279L155.025 132.782C154.696 132.618 154.344 132.493 153.725 132.45C152.568 132.369 151.315 133.084 150.395 134.483L150.315 134.477L150.254 132.488L147.86 132.321L147.078 143.493ZM155.768 144.101L158.681 144.305L159.462 133.132L156.549 132.928L155.768 144.101ZM158.052 131.229L159.587 129.913L156.479 125.626L154.347 127.441L158.052 131.229Z" fill="#949494"/>
</g>
</g>
</svg>
