<svg width="12" height="24" viewBox="0 0 12 24" fill="none" xmlns="http://www.w3.org/2000/svg">
<path d="M6.22391 4.44C4.68391 4.44 3.44391 4.96 2.50391 6C1.58391 6.98 1.12391 8.26 1.10391 9.86H3.44391C3.48391 8.74 3.72391 7.88 4.16391 7.32C4.60391 6.72 5.26391 6.42 6.14391 6.42C6.96391 6.42 7.58391 6.6 8.00391 6.98C8.40391 7.36 8.62391 7.94 8.62391 8.72C8.62391 9.52 8.30391 10.28 7.68391 10.98C7.28391 11.4 6.64391 11.94 5.72391 12.58C4.06391 13.72 2.96391 14.6 2.44391 15.2C1.48391 16.28 1.02391 17.54 1.02391 19H10.9839V16.94H3.94391C4.26391 16.22 5.14391 15.38 6.60391 14.42C8.00391 13.48 9.00391 12.72 9.56391 12.12C10.4839 11.1 10.9639 9.98 10.9639 8.74C10.9639 7.46 10.5239 6.44 9.64391 5.64C8.74391 4.84 7.60391 4.44 6.22391 4.44Z" fill="black"/>
</svg>
