<svg width="175" height="157" viewBox="0 0 175 157" fill="none" xmlns="http://www.w3.org/2000/svg">
<path d="M87.5 157C130.854 157 166 121.854 166 78.5C166 35.1456 130.854 0 87.5 0C44.1456 0 9 35.1456 9 78.5C9 121.854 44.1456 157 87.5 157Z" fill="#EDEDED"/>
<path opacity="0.202451" fill-rule="evenodd" clip-rule="evenodd" d="M21.0511 69H119.949C131.575 69 141 78.4021 141 90C141 101.598 131.575 111 119.949 111H21.0511C9.42496 111 0 101.598 0 90C0 78.4021 9.42496 69 21.0511 69Z" fill="#CCCCCC"/>
<path opacity="0.161389" fill-rule="evenodd" clip-rule="evenodd" d="M52.1598 59H153.84C165.526 59 175 68.4021 175 80C175 91.5979 165.526 101 153.84 101H52.1598C40.4736 101 31 91.5979 31 80C31 68.4021 40.4736 59 52.1598 59Z" fill="#A2A2A2"/>
<path fill-rule="evenodd" clip-rule="evenodd" d="M11 59C12.1045 59 13 59.8955 13 61C13 62.1045 12.1045 63 11 63C9.89547 63 9 62.1045 9 61C9 59.8955 9.89547 59 11 59Z" fill="#9A9A9A"/>
<path fill-rule="evenodd" clip-rule="evenodd" d="M125 133C126.105 133 127 133.895 127 135C127 136.105 126.105 137 125 137C123.895 137 123 136.105 123 135C123 133.895 123.895 133 125 133Z" fill="#9A9A9A"/>
<path fill-rule="evenodd" clip-rule="evenodd" d="M66 6C67.1045 6 68 6.89547 68 8C68 9.10453 67.1045 10 66 10C64.8955 10 64 9.10453 64 8C64 6.89547 64.8955 6 66 6Z" fill="#9A9A9A"/>
<path fill-rule="evenodd" clip-rule="evenodd" d="M38 120C39.1045 120 40 120.895 40 122C40 123.105 39.1045 124 38 124C36.8955 124 36 123.105 36 122C36 120.895 36.8955 120 38 120Z" fill="#939393"/>
<path fill-rule="evenodd" clip-rule="evenodd" d="M125 46C126.105 46 127 46.8955 127 48C127 49.1045 126.105 50 125 50C123.895 50 123 49.1045 123 48C123 46.8955 123.895 46 125 46Z" fill="#D8D8D8"/>
<path fill-rule="evenodd" clip-rule="evenodd" d="M104 109.975C103.901 117.325 95.9205 122.432 89.0142 118.804L77.2557 112.626C74.2781 111.063 70.7219 111.063 67.7443 112.626L55.9858 118.804C49.0795 122.432 41.0994 117.325 41 109.975C41.0048 109.404 41.0562 108.834 41.1534 108.271L41.5426 106C44.9688 109.384 49.3153 111.678 54.0852 111.72C62.3778 111.797 70.1222 105.245 78.233 106.965C82.2727 107.817 85.6506 110.656 89.642 111.706C94.4943 113.001 99.6932 111.496 103.903 108.666C103.966 109.099 103.998 109.536 104 109.975Z" fill="#D9D9D9"/>
<path fill-rule="evenodd" clip-rule="evenodd" d="M154 35C155.105 35 156 35.8955 156 37C156 38.1045 155.105 39 154 39C152.895 39 152 38.1045 152 37C152 35.8955 152.895 35 154 35Z" fill="#A7A7A7"/>
<path fill-rule="evenodd" clip-rule="evenodd" d="M75.3886 135.777L71.3172 139.149C70.46 139.854 71.6858 141.06 72.5286 140.36L76.6 136.98C77.4572 136.274 76.2315 135.069 75.3886 135.769V135.777Z" fill="white"/>
<path fill-rule="evenodd" clip-rule="evenodd" d="M76.2515 139.497L72.8801 135.426C72.1744 134.569 70.9687 135.794 71.6687 136.637L75.0401 140.709C75.7458 141.566 76.9515 140.34 76.2515 139.497Z" fill="white"/>
<path fill-rule="evenodd" clip-rule="evenodd" d="M121.389 17.7772L117.317 21.1487C116.46 21.8544 117.686 23.0601 118.529 22.3601L122.6 18.9801C123.457 18.2744 122.231 17.0687 121.389 17.7687V17.7772Z" fill="white"/>
<path fill-rule="evenodd" clip-rule="evenodd" d="M122.252 21.4973L118.88 17.4258C118.174 16.5687 116.969 17.7944 117.669 18.6373L121.04 22.7087C121.746 23.5658 122.952 22.3401 122.252 21.4973Z" fill="white"/>
<path fill-rule="evenodd" clip-rule="evenodd" d="M85.5 22C99.5832 22 111 33.4167 111 47.4997C111 61.5833 99.5832 73 85.5 73C71.4168 73 60 61.5833 60 47.4997C60 33.4167 71.4168 22 85.5 22Z" fill="#F4C500"/>
<path fill-rule="evenodd" clip-rule="evenodd" d="M87 72.9752C86.5472 73 86.0939 73 85.6661 73C71.4997 73 60 61.5753 60 47.5C60 33.4247 71.4997 22 85.6661 22C86.1194 22 86.5722 22 87 22.0248C72.8331 22.7499 61.9629 34.75 62.6927 48.8253C63.3721 61.8753 73.8649 72.3002 87 72.9752Z" fill="#F4BD40"/>
<path fill-rule="evenodd" clip-rule="evenodd" d="M86 26C97.5982 26 107 35.6262 107 47.5C107 59.3744 97.5982 69 86 69C74.4018 69 65 59.3744 65 47.5C65 35.6262 74.4018 26 86 26Z" fill="#F4C500"/>
<path fill-rule="evenodd" clip-rule="evenodd" d="M86.1743 27.108C75.1555 26.4433 65.7105 35.0298 65.0611 46.2737C64.4113 57.5171 72.8069 67.2021 83.8004 67.8667C94.8197 68.5308 104.264 59.9449 104.914 48.701C105.563 37.4318 97.1931 27.7726 86.1743 27.108ZM83.7008 69.962C71.5825 69.2208 62.3378 58.5396 63.0372 46.1713C63.7366 33.7776 74.1809 24.3227 86.2992 25.0381C98.4175 25.7534 107.662 36.4351 106.963 48.8288C106.263 61.1971 95.7938 70.6778 83.7008 69.962Z" fill="#474747"/>
<mask id="mask0_142_2062" style="mask-type:alpha" maskUnits="userSpaceOnUse" x="59" y="21" width="53" height="54">
<path d="M59.1628 21.2314H111.802V74.8633H59.1628V21.2314Z" fill="white"/>
</mask>
<g mask="url(#mask0_142_2062)">
<path fill-rule="evenodd" clip-rule="evenodd" d="M85.4823 23.1574C71.9993 23.1574 61.0289 34.3349 61.0289 48.0723C61.0289 61.8097 71.9993 72.9877 85.4823 72.9877C98.9653 72.9877 109.936 61.8097 109.936 48.0723C109.936 34.3349 98.9653 23.1574 85.4823 23.1574ZM85.4823 74.8632C70.9792 74.8632 59.1628 62.8239 59.1628 48.0472C59.1628 33.2704 70.9792 21.2311 85.4823 21.2311C99.9854 21.2311 111.802 33.2704 111.802 48.0472C111.802 62.8239 99.9854 74.8632 85.4823 74.8632Z" fill="#474747"/>
</g>
<path fill-rule="evenodd" clip-rule="evenodd" d="M99.5 24C113.583 24 125 35.4167 125 49.4997C125 63.5833 113.583 75 99.5 75C85.4168 75 74 63.5833 74 49.4997C74 35.4167 85.4168 24 99.5 24Z" fill="#EFAB00"/>
<path fill-rule="evenodd" clip-rule="evenodd" d="M101 75.9752C100.547 76 100.094 76 99.6661 76C85.4997 76 74 64.5753 74 50.5C74 36.4247 85.4997 25 99.6661 25C100.119 25 100.572 25 101 25.0248C86.8331 25.7499 75.9629 37.75 76.6927 51.8253C77.3971 64.8753 87.8649 75.3002 101 75.9752Z" fill="#F4BD40"/>
<path fill-rule="evenodd" clip-rule="evenodd" d="M100 28C111.598 28 121 37.6262 121 49.5C121 61.3744 111.598 71 100 71C88.4018 71 79 61.3744 79 49.5C79 37.6262 88.4018 28 100 28Z" fill="#F4C500"/>
<path fill-rule="evenodd" clip-rule="evenodd" d="M120 49.0265C120 60.6279 110.432 70 98.6912 70C90.047 70 82.2816 64.9049 79 57.0338C81.8657 55.4417 85.2398 55.1687 88.337 56.2604C90.6019 57.0791 92.5434 58.5807 94.8083 59.3541C99.7079 61.0378 105.624 58.5354 108.074 54.0312C110.478 49.5269 109.415 43.4758 105.671 39.9275C103.775 38.1076 101.325 36.879 98.8756 35.9693C94.2074 34.2404 89.2153 33.467 84.2231 33.6491C92.8208 25.7322 106.318 26.1874 114.36 34.695C117.966 38.6079 120 43.7488 120 49.0265Z" fill="#E2B700"/>
<path fill-rule="evenodd" clip-rule="evenodd" d="M100.174 29.108C89.1554 28.4433 79.7104 37.0298 79.0611 48.2737C78.4112 59.517 86.8068 69.202 97.8004 69.8666C108.82 70.5307 118.264 61.9449 118.914 50.701C119.563 39.4317 111.168 29.7726 100.174 29.108ZM97.7007 71.9619C85.6072 71.2207 76.3377 60.5396 77.0371 48.1712C77.7618 35.7776 88.1809 26.3227 100.299 27.0381C112.417 27.7534 121.662 38.435 120.963 50.8287C120.263 63.2224 109.794 72.6777 97.7007 71.9619Z" fill="#353535"/>
<path fill-rule="evenodd" clip-rule="evenodd" d="M99.5 24.9396C85.9245 24.9396 74.8788 36.1937 74.8788 50.0253C74.8788 63.8569 85.9245 75.1116 99.5 75.1116C113.075 75.1116 124.121 63.8569 124.121 50.0253C124.121 36.1937 113.051 24.9396 99.5 24.9396ZM99.5 77C84.8974 77 73 64.8781 73 50C73 35.1219 84.8974 23 99.5 23C114.103 23 126 35.1219 126 50C126 64.8781 114.103 77 99.5 77Z" fill="#353535"/>
<path fill-rule="evenodd" clip-rule="evenodd" d="M115.097 55.5925C115.347 54.9766 115.547 54.4122 115.722 53.8477C115.797 53.5658 115.897 53.3093 115.947 53.0782C115.997 52.8476 116.072 52.6165 116.147 52.3854C116.372 51.539 116.547 51 116.722 51C116.897 51 117.022 51.5904 116.997 52.5137C116.997 52.7702 116.972 53.0267 116.947 53.2833C116.922 53.5658 116.872 53.8477 116.797 54.1557C116.522 55.4643 115.997 56.7214 115.272 57.8504C115.097 58.1069 114.947 58.3374 114.772 58.5685C114.622 58.7736 114.447 58.9533 114.272 59.133C113.622 59.8003 113.122 60.0822 113.022 59.9794C112.922 59.8771 113.172 59.3641 113.597 58.6199C113.697 58.4403 113.822 58.2351 113.947 58.0041C114.072 57.7735 114.197 57.5424 114.322 57.2859C114.572 56.7469 114.847 56.1824 115.097 55.5925Z" fill="white"/>
<path fill-rule="evenodd" clip-rule="evenodd" d="M115.428 46.5853C115.048 45.2491 114.813 44.1235 115.194 44.0063C115.369 43.9599 115.662 44.1705 115.984 44.5923C116.744 45.6946 117.095 46.9601 116.978 48.2028C116.919 48.6954 116.773 48.9763 116.568 49C116.159 49 115.779 47.9215 115.428 46.5853Z" fill="white"/>
<path d="M100.471 61V58.0592C102.533 57.8775 104.136 57.3252 105.282 56.4023C106.427 55.4794 107 54.2576 107 52.737C107 51.8954 106.808 51.159 106.425 50.5278C106.041 49.8966 105.439 49.318 104.617 48.792C103.795 48.266 102.413 47.6444 100.471 46.9271V42.6952C102.105 42.829 103.698 43.202 105.252 43.8141L106.656 40.4573C104.814 39.673 102.752 39.2331 100.471 39.1375V37H98.4243V39.1949C96.4024 39.3861 94.8262 39.9289 93.6957 40.8231C92.5652 41.7173 92 42.8577 92 44.2445C92 45.5356 92.4109 46.6186 93.2326 47.4937C94.0543 48.3688 95.4512 49.1793 97.4233 49.9253L98.4243 50.2983V54.7454C97.4681 54.688 96.38 54.5015 95.1599 54.1859C93.9397 53.8703 92.8964 53.5069 92.0299 53.0956V56.8828C93.8625 57.6575 95.994 58.0687 98.4243 58.1166V61H100.471ZM98.4243 46.1237C97.747 45.8368 97.2565 45.5571 96.9527 45.2845C96.6489 45.012 96.497 44.6653 96.497 44.2445C96.497 43.4316 97.1394 42.9343 98.4243 42.7525V46.1237ZM100.471 54.645V51.0729C101.148 51.3694 101.656 51.6563 101.995 51.9337C102.334 52.211 102.503 52.5505 102.503 52.9522C102.503 53.8607 101.826 54.425 100.471 54.645Z" fill="white"/>
<path fill-rule="evenodd" clip-rule="evenodd" d="M47.5456 48H129.454C136.968 48 143 54.1432 143 61.6752V109.325C143 116.91 136.915 123 129.454 123H47.5456C40.032 123 34 116.857 34 109.325V61.6752C34 54.1432 40.085 48 47.5456 48Z" fill="#89D7E9"/>
<path fill-rule="evenodd" clip-rule="evenodd" d="M143 104V112.021C143 118.653 137.5 124 130.677 124H46.3227C39.5002 124 34 118.653 34 112.021V104C34 110.632 39.5002 115.979 46.3227 115.979H130.624C137.5 115.979 143 110.632 143 104Z" fill="#76A1AF"/>
<path fill-rule="evenodd" clip-rule="evenodd" d="M47.438 51.6513C40.9127 51.6513 35.6606 56.8901 35.6606 63.3989V110.601C35.6606 117.11 40.9127 122.349 47.438 122.349H129.562C136.087 122.349 141.339 117.11 141.339 110.601V63.3989C141.339 56.8901 136.087 51.6513 129.562 51.6513H47.438ZM129.615 126H47.438C38.9498 126 32.0531 119.121 32 110.601V63.3989C32 54.9322 38.8967 48.0529 47.438 48H129.562C138.05 48 144.947 54.8792 145 63.3989V110.601C145 119.068 138.103 125.947 129.615 126Z" fill="#474747"/>
<path fill-rule="evenodd" clip-rule="evenodd" d="M141.227 101.625L121.184 102.965C120.44 103.018 119.643 103.018 118.898 102.911C112.678 102.161 108 96.804 108 90.4824C108 83.5715 113.529 78 120.387 78H137.612C144.47 78 149.999 83.5715 149.999 90.4824C150.052 97.3933 148.085 101.625 141.227 101.625Z" fill="#76A1AF"/>
<path fill-rule="evenodd" clip-rule="evenodd" d="M124.387 73H141.613C148.471 73 154 78.5794 154 85.5C154 92.4206 148.471 98 141.613 98H124.387C117.529 98 112 92.4206 112 85.5C112 78.5794 117.529 73 124.387 73Z" fill="#89D7E9"/>
<mask id="mask1_142_2062" style="mask-type:alpha" maskUnits="userSpaceOnUse" x="110" y="72" width="47" height="29">
<path d="M110.533 72.2095H156.894V100.474H110.533V72.2095Z" fill="white"/>
</mask>
<g mask="url(#mask1_142_2062)">
<path fill-rule="evenodd" clip-rule="evenodd" d="M125.061 75.9017C119.186 75.7962 114.326 80.4362 114.273 86.2362C114.166 92.0362 118.866 96.8344 124.741 96.8872H125.115H142.419C148.294 96.9926 153.155 92.3526 153.208 86.5526C153.315 80.7526 148.615 75.9544 142.74 75.9017H142.366H125.061ZM142.366 100.473H125.061C117.157 100.578 110.694 94.3562 110.534 86.5526C110.427 78.749 116.73 72.369 124.634 72.2108H125.061H142.366C150.27 72.1053 156.733 78.3272 156.893 86.1308C157 93.9344 150.698 100.314 142.793 100.473H142.366Z" fill="#474747"/>
</g>
<path d="M53.5438 116.34L52.7826 113.499C54.7271 112.79 56.1331 111.841 57.0006 110.654C57.8682 109.466 58.1051 108.137 57.7116 106.668C57.4938 105.856 57.118 105.194 56.5842 104.683C56.0504 104.173 55.3186 103.77 54.3888 103.475C53.4589 103.179 51.9631 102.936 49.9014 102.746L48.8061 98.6586C50.4186 98.3651 52.0545 98.313 53.7137 98.502L54.2014 94.8961C52.2186 94.6155 50.1133 94.7242 47.8853 95.2221L47.3321 93.1575L45.3551 93.6872L45.9231 95.8073C44.0196 96.5154 42.6376 97.4476 41.7771 98.6039C40.9166 99.7602 40.6658 101.008 41.0247 102.348C41.3588 103.595 42.036 104.535 43.0562 105.167C44.0764 105.8 45.6355 106.221 47.7335 106.431L48.7969 106.532L49.9479 110.828C49.0095 111.02 47.9101 111.121 46.6499 111.132C45.3897 111.143 44.2878 111.062 43.3444 110.889L44.3246 114.548C46.2953 114.822 48.4606 114.667 50.8204 114.084L51.5667 116.869L53.5438 116.34ZM47.7165 102.5C46.988 102.398 46.4418 102.255 46.0778 102.07C45.7138 101.886 45.4774 101.59 45.3684 101.184C45.158 100.398 45.6499 99.7518 46.8439 99.2438L47.7165 102.5ZM51.899 110.201L50.9745 106.751C51.7054 106.862 52.2703 107.008 52.6692 107.188C53.0681 107.368 53.3195 107.652 53.4235 108.04C53.6586 108.918 53.1505 109.638 51.899 110.201Z" fill="#474747"/>
<path fill-rule="evenodd" clip-rule="evenodd" d="M45.1417 58.328C44.6542 58.381 44.275 58.7513 44.1667 59.2804V59.3862V59.5979V60.0212C44.1125 61.1852 44.0042 62.2434 43.8958 63.1429C43.6792 64.9418 43.4083 66 43.0833 66C42.7583 66 42.4875 64.8889 42.2708 63.1429C42.1625 62.2434 42.0542 61.1852 42 60.0212V59.5979V59.3862V59.0688C42.0542 58.5926 42.1625 58.1164 42.4333 57.6931C42.9208 56.7937 43.8417 56.2116 44.8708 56.0529C44.9792 56.0529 45.1417 56 45.25 56H46.0083H46.9833C47.6333 56 48.2833 56.0529 48.8792 56.0529C50.0708 56.1058 51.1542 56.2116 52.075 56.3175C53.9167 56.5291 55 56.7937 55 57.1111C55 57.4286 53.8625 57.6931 52.075 57.9048C51.1542 58.0106 50.0708 58.1164 48.8792 58.1693C48.2833 58.2222 47.6333 58.2222 46.9833 58.2222H46.0083H45.25C45.25 58.328 45.1958 58.328 45.1417 58.328Z" fill="white"/>
<path fill-rule="evenodd" clip-rule="evenodd" d="M62 56C63.6567 56 65 56.4477 65 57C65 57.5523 63.6567 58 62 58C60.3433 58 59 57.5523 59 57C59 56.4477 60.3433 56 62 56Z" fill="white"/>
</svg>
