<svg width="32" height="32" viewBox="0 0 32 32" fill="none" xmlns="http://www.w3.org/2000/svg">
<path d="M16 32C24.8366 32 32 24.8366 32 16C32 7.16344 24.8366 0 16 0C7.16344 0 0 7.16344 0 16C0 24.8366 7.16344 32 16 32Z" fill="white"/>
<path d="M25.5678 13.66C26.1687 15.5934 26.1299 18.0204 25.5332 19.9362C24.4378 23.4548 21.7207 26.0287 17.9771 26.8118C15.9241 27.2408 13.6857 26.9073 11.939 26.1066C8.46428 24.5126 5.63215 21.0337 6.039 15.5288C6.79807 17.1375 7.92517 18.4377 9.52381 19.2663C11.1167 20.0919 13.5348 20.3182 15.4238 19.5484C17.0196 18.8975 18.3465 17.7031 19.1847 16.0929C19.9337 14.6546 20.4757 12.1204 19.6332 10.0988C19.8776 12.257 18.982 14.0082 17.9081 15.1057C16.9607 16.0738 15.5547 16.7864 13.8367 16.7629C10.7156 16.7203 8.15663 14.2242 8.14369 10.9098C8.1365 9.18061 8.78056 7.92303 9.66182 6.92548C10.661 5.79571 12.205 4.8437 14.4578 5.02147C15.6596 5.11549 16.5581 5.57093 17.3215 6.14977C17.5443 6.31872 17.7801 6.63752 18.0461 6.74918C18.4788 6.92988 19.0323 6.97543 19.4607 7.13703C22.3748 8.23742 24.5672 10.447 25.5678 13.66Z" fill="#CC232B"/>
</svg>
