<?xml version="1.0" encoding="UTF-8"?>
<svg xmlns="http://www.w3.org/2000/svg" xmlns:xlink="http://www.w3.org/1999/xlink" width="16pt" height="16pt" viewBox="0 0 16 16" version="1.1">
<defs>
<clipPath id="clip1">
  <path d="M 2 2 L 14 2 L 14 14 L 2 14 Z M 2 2 "/>
</clipPath>
<clipPath id="clip2">
  <path d="M 8 14 C 11.3125 14 14 11.3125 14 8 C 14 4.6875 11.3125 2 8 2 C 4.6875 2 2 4.6875 2 8 C 2 11.3125 4.6875 14 8 14 Z M 8 14 "/>
</clipPath>
<clipPath id="clip3">
  <path d="M 2 2 L 14 2 L 14 14 L 2 14 Z M 2 2 "/>
</clipPath>
<clipPath id="clip4">
  <path d="M 8 2 C 11.308594 2 14 4.691406 14 8 C 14 11.308594 11.308594 14 8 14 C 4.691406 14 2 11.308594 2 8 C 2 4.691406 4.691406 2 8 2 Z M 4.738281 4.964844 C 4.664062 4.925781 4.523438 4.910156 4.429688 4.988281 C 4.320312 5.082031 4.335938 5.230469 4.390625 5.28125 L 5.058594 6 L 4.890625 6.082031 C 4.574219 6.242188 4.378906 6.382812 4.078125 6.617188 L 4.054688 6.636719 L 4.027344 6.660156 C 4.011719 6.679688 4.003906 6.703125 4 6.726562 C 3.996094 6.761719 4.007812 6.796875 4.03125 6.824219 L 7.886719 11.617188 L 7.917969 11.644531 C 7.941406 11.65625 7.964844 11.664062 7.992188 11.664062 C 8.03125 11.664062 8.070312 11.648438 8.097656 11.617188 L 9.285156 10.21875 L 10.191406 11.074219 L 10.210938 11.085938 C 10.261719 11.117188 10.398438 11.15625 10.480469 11.074219 C 10.582031 10.980469 10.535156 10.820312 10.480469 10.769531 L 4.773438 4.988281 Z M 7.992188 5.277344 C 7.363281 5.277344 6.734375 5.375 6.121094 5.566406 C 6.074219 5.582031 6.039062 5.617188 6.03125 5.664062 C 6.019531 5.707031 6.03125 5.753906 6.066406 5.789062 L 9.683594 9.410156 L 9.710938 9.429688 C 9.734375 9.441406 9.757812 9.449219 9.785156 9.449219 L 9.824219 9.441406 C 9.847656 9.433594 9.867188 9.417969 9.882812 9.398438 L 11.957031 6.824219 L 11.972656 6.796875 C 11.984375 6.773438 11.988281 6.75 11.984375 6.726562 C 11.980469 6.691406 11.960938 6.65625 11.929688 6.636719 L 11.90625 6.617188 L 11.828125 6.554688 C 11.246094 6.128906 9.863281 5.277344 7.992188 5.277344 Z M 7.992188 5.277344 "/>
</clipPath>
</defs>
<g id="surface1">
<g clip-path="url(#clip1)" clip-rule="nonzero">
<g clip-path="url(#clip2)" clip-rule="evenodd">
<rect x="0" y="0" width="16" height="16" style="fill:rgb(100%,100%,100%);fill-opacity:1;stroke:none;"/>
</g>
</g>
<g clip-path="url(#clip3)" clip-rule="nonzero">
<g clip-path="url(#clip4)" clip-rule="evenodd">
<rect x="0" y="0" width="16" height="16" style="fill:rgb(100%,50.196838%,0%);fill-opacity:1;stroke:none;"/>
</g>
</g>
</g>
</svg>
