<?xml version="1.0" encoding="UTF-8"?>
<svg xmlns="http://www.w3.org/2000/svg" xmlns:xlink="http://www.w3.org/1999/xlink" width="96pt" height="32pt" viewBox="0 0 96 32" version="1.1">
<g id="surface1">
<rect x="0" y="0" width="96" height="32" style="fill:rgb(100%,100%,100%);fill-opacity:1;stroke:none;"/>
<path style=" stroke:none;fill-rule:evenodd;fill:rgb(0%,32.156372%,58.822632%);fill-opacity:1;" d="M 22.710938 12.90625 C 23.160156 12.914062 23.402344 13.0625 23.527344 13.5 C 23.726562 14.214844 23.890625 14.9375 24.074219 15.660156 C 24.675781 18.058594 25.304688 20.445312 26.34375 22.703125 C 26.621094 23.300781 26.949219 23.882812 27.304688 24.441406 C 27.878906 25.34375 28.605469 25.328125 29.199219 24.433594 C 30.035156 23.164062 30.582031 21.757812 30.96875 20.300781 C 31.519531 18.253906 31.984375 16.1875 32.492188 14.125 C 32.554688 13.875 32.621094 13.625 32.710938 13.382812 C 32.832031 13.0625 33.078125 12.910156 33.421875 12.90625 C 34.078125 12.90625 34.730469 12.90625 35.386719 12.90625 C 35.964844 12.910156 36.269531 13.28125 36.167969 13.863281 C 36.074219 14.398438 35.964844 14.933594 35.863281 15.472656 C 35.488281 17.46875 35.054688 19.453125 34.410156 21.382812 C 33.765625 23.324219 32.949219 25.179688 31.796875 26.875 C 31.253906 27.671875 30.613281 28.371094 29.6875 28.726562 C 28.042969 29.363281 26.324219 28.894531 25.164062 27.488281 C 24.257812 26.394531 23.613281 25.144531 23.015625 23.867188 C 22.011719 21.738281 21.289062 19.507812 20.75 17.222656 C 20.492188 16.125 20.261719 15.019531 20.03125 13.914062 C 19.894531 13.273438 20.199219 12.910156 20.851562 12.90625 C 21.15625 12.90625 21.460938 12.90625 21.769531 12.90625 C 22.082031 12.90625 22.394531 12.902344 22.710938 12.90625 Z M 53.386719 12.917969 C 54.28125 12.929688 55.171875 13.078125 56.007812 13.4375 C 57.484375 14.078125 58.214844 15.257812 58.132812 16.863281 C 58.066406 18.207031 57.382812 19.167969 56.28125 19.867188 C 56.167969 19.941406 56.050781 20.003906 55.90625 20.085938 C 56.242188 20.210938 56.546875 20.296875 56.835938 20.429688 C 58.355469 21.113281 59.164062 22.28125 59.199219 23.960938 C 59.226562 25.359375 58.820312 26.578125 57.699219 27.488281 C 56.933594 28.109375 56.035156 28.425781 55.070312 28.558594 C 54.554688 28.628906 54.035156 28.664062 53.515625 28.667969 C 51.085938 28.679688 48.652344 28.671875 46.21875 28.671875 C 45.550781 28.671875 45.320312 28.449219 45.316406 27.765625 C 45.308594 26.859375 45.3125 25.953125 45.3125 25.042969 C 45.3125 21.335938 45.3125 17.632812 45.316406 13.921875 C 45.316406 13.78125 45.316406 13.636719 45.347656 13.496094 C 45.429688 13.097656 45.65625 12.910156 46.0625 12.910156 C 48.503906 12.90625 50.945312 12.894531 53.386719 12.917969 Z M 41.425781 12.910156 C 41.824219 12.910156 42.089844 13.175781 42.113281 13.582031 C 42.117188 13.652344 42.113281 13.722656 42.113281 13.796875 L 42.113281 27.792969 C 42.113281 28.453125 41.890625 28.671875 41.222656 28.671875 C 40.621094 28.671875 40.019531 28.671875 39.417969 28.671875 C 38.855469 28.671875 38.617188 28.441406 38.617188 27.875 L 38.613281 24.324219 L 38.613281 20.769531 C 38.613281 18.425781 38.613281 16.085938 38.613281 13.742188 C 38.613281 13.476562 38.625 13.207031 38.875 13.050781 C 38.996094 12.972656 39.15625 12.914062 39.296875 12.914062 C 40.007812 12.898438 40.714844 12.902344 41.425781 12.910156 Z M 49.023438 21.726562 C 48.953125 21.726562 48.882812 21.734375 48.78125 21.742188 L 48.78125 25.984375 C 48.855469 25.992188 48.90625 26 48.960938 26 C 50.347656 26 51.738281 26.011719 53.128906 25.988281 C 53.488281 25.980469 53.859375 25.902344 54.203125 25.792969 C 55.121094 25.5 55.59375 24.839844 55.597656 23.910156 C 55.601562 22.96875 55.109375 22.234375 54.210938 21.957031 C 53.789062 21.828125 53.335938 21.746094 52.894531 21.738281 C 51.605469 21.710938 50.3125 21.726562 49.023438 21.726562 Z M 48.808594 15.578125 C 48.789062 15.636719 48.773438 15.660156 48.773438 15.683594 C 48.769531 16.789062 48.765625 17.890625 48.761719 18.996094 C 48.757812 19.148438 48.839844 19.164062 48.941406 19.167969 L 48.992188 19.167969 C 50.214844 19.164062 51.433594 19.175781 52.65625 19.148438 C 52.957031 19.144531 53.277344 19.058594 53.5625 18.941406 C 54.285156 18.644531 54.644531 17.96875 54.574219 17.128906 C 54.507812 16.382812 54.078125 15.835938 53.300781 15.703125 C 52.652344 15.589844 51.980469 15.597656 51.320312 15.582031 C 50.488281 15.5625 49.65625 15.578125 48.808594 15.578125 Z M 48.808594 15.578125 "/>
<path style=" stroke:none;fill-rule:evenodd;fill:rgb(89.4104%,44.313049%,14.509583%);fill-opacity:1;" d="M 75.710938 6.777344 C 75.128906 7.6875 74.714844 8.703125 73.972656 9.511719 C 73.4375 10.085938 72.730469 10.300781 71.996094 10.460938 C 71.25 10.617188 70.507812 10.78125 69.765625 10.945312 C 69.6875 10.960938 69.617188 11 69.519531 11.035156 C 69.742188 11.742188 69.96875 12.429688 70.179688 13.125 C 70.3125 13.578125 70.460938 14.035156 70.535156 14.5 C 70.628906 15.085938 70.507812 15.664062 70.226562 16.191406 C 69.808594 16.972656 69.367188 17.738281 68.894531 18.582031 C 68.703125 18.089844 68.535156 17.667969 68.375 17.246094 C 67.832031 15.832031 67.289062 14.421875 66.757812 13.003906 C 66.640625 12.6875 66.550781 12.355469 66.5 12.019531 C 66.414062 11.484375 66.511719 10.96875 66.792969 10.496094 C 67.113281 9.964844 67.421875 9.429688 67.726562 8.890625 C 68.128906 8.175781 68.78125 7.828125 69.550781 7.695312 C 71.191406 7.410156 72.835938 7.152344 74.476562 6.886719 C 74.871094 6.824219 75.269531 6.765625 75.664062 6.703125 C 75.679688 6.730469 75.695312 6.753906 75.710938 6.777344 Z M 75.710938 6.777344 "/>
<path style=" stroke:none;fill-rule:evenodd;fill:rgb(91.763306%,53.33252%,13.725281%);fill-opacity:1;" d="M 63.578125 18.398438 C 63.503906 18.28125 63.421875 18.167969 63.351562 18.046875 C 62.984375 17.382812 62.613281 16.71875 62.257812 16.046875 C 61.820312 15.210938 61.949219 14.367188 62.222656 13.519531 C 62.460938 12.789062 62.699219 12.054688 62.929688 11.320312 C 63.035156 10.976562 62.996094 10.964844 62.625 10.886719 C 61.699219 10.691406 60.773438 10.488281 59.855469 10.257812 C 58.988281 10.039062 58.402344 9.449219 57.957031 8.699219 C 57.625 8.136719 57.292969 7.574219 56.964844 7.007812 C 56.929688 6.945312 56.933594 6.859375 56.921875 6.785156 C 56.996094 6.777344 57.070312 6.757812 57.144531 6.769531 C 57.726562 6.855469 58.308594 6.949219 58.890625 7.042969 C 59.488281 7.140625 60.089844 7.238281 60.6875 7.332031 C 61.191406 7.414062 61.695312 7.480469 62.195312 7.582031 C 62.691406 7.679688 63.214844 7.746094 63.667969 7.945312 C 64.035156 8.109375 64.402344 8.402344 64.628906 8.734375 C 65.078125 9.386719 65.4375 10.101562 65.824219 10.796875 C 66.148438 11.378906 66.070312 12 65.867188 12.574219 C 65.359375 14.003906 64.796875 15.417969 64.257812 16.839844 C 64.058594 17.359375 63.859375 17.875 63.664062 18.390625 Z M 63.578125 18.398438 "/>
<path style=" stroke:none;fill-rule:evenodd;fill:rgb(94.508362%,67.842102%,11.372375%);fill-opacity:1;" d="M 59.519531 2.074219 C 60.601562 2.113281 61.683594 1.960938 62.757812 2.195312 C 63.523438 2.363281 64.066406 2.867188 64.574219 3.421875 C 65.085938 3.984375 65.601562 4.542969 66.121094 5.101562 C 66.171875 5.160156 66.242188 5.203125 66.320312 5.269531 C 66.820312 4.71875 67.296875 4.175781 67.792969 3.648438 C 68.113281 3.300781 68.433594 2.945312 68.796875 2.644531 C 69.257812 2.265625 69.820312 2.082031 70.414062 2.058594 C 71.300781 2.023438 72.183594 2.019531 73.148438 2 C 72.820312 2.414062 72.542969 2.769531 72.261719 3.121094 C 71.3125 4.304688 70.371094 5.488281 69.414062 6.660156 C 69.199219 6.921875 68.957031 7.167969 68.695312 7.378906 C 68.273438 7.722656 67.78125 7.898438 67.230469 7.894531 C 66.609375 7.890625 65.992188 7.890625 65.375 7.902344 C 64.554688 7.914062 63.925781 7.527344 63.421875 6.929688 C 62.347656 5.65625 61.296875 4.367188 60.238281 3.082031 C 59.980469 2.773438 59.734375 2.460938 59.480469 2.152344 C 59.496094 2.125 59.507812 2.101562 59.519531 2.074219 Z M 59.519531 2.074219 "/>
</g>
</svg>
