<?xml version="1.0" encoding="UTF-8"?>
<svg xmlns="http://www.w3.org/2000/svg" xmlns:xlink="http://www.w3.org/1999/xlink" width="32pt" height="32pt" viewBox="0 0 32 32" version="1.1">
<defs>
<clipPath id="clip1">
  <path d="M 16 32 C 24.835938 32 32 24.835938 32 16 C 32 7.164062 24.835938 0 16 0 C 7.164062 0 0 7.164062 0 16 C 0 24.835938 7.164062 32 16 32 Z M 16 32 "/>
</clipPath>
<clipPath id="clip2">
  <path d="M 2 7 L 30 7 L 30 26 L 2 26 Z M 2 7 "/>
</clipPath>
<clipPath id="clip3">
  <path d="M 21.152344 7.664062 C 23.757812 8.371094 26.128906 9.507812 27.976562 11.546875 C 30.84375 14.714844 30.550781 18.925781 27.261719 21.832031 C 24.964844 23.867188 22.222656 24.914062 19.242188 25.398438 C 18.390625 25.535156 17.53125 25.585938 16.671875 25.679688 C 16.644531 25.601562 16.617188 25.519531 16.585938 25.441406 C 17.671875 24.367188 18.757812 23.292969 19.839844 22.214844 C 20.652344 21.40625 21.46875 20.59375 22.277344 19.777344 C 23.648438 18.394531 24.03125 16.753906 23.367188 14.941406 C 22.707031 13.136719 21.296875 12.195312 19.40625 12.066406 C 18.121094 11.976562 16.976562 12.449219 16.046875 13.367188 C 15.117188 14.285156 14.203125 15.21875 13.273438 16.136719 C 13.0625 16.347656 12.804688 16.695312 12.511719 16.328125 C 12.417969 16.214844 12.554688 15.777344 12.714844 15.617188 C 15.261719 13.039062 17.828125 10.476562 20.40625 7.925781 C 20.582031 7.753906 20.941406 7.609375 21.152344 7.664062 Z M 15.273438 7 C 15.300781 7.066406 15.328125 7.136719 15.355469 7.203125 C 14.113281 8.441406 12.871094 9.675781 11.628906 10.914062 C 10.972656 11.5625 10.308594 12.207031 9.667969 12.871094 C 8.347656 14.242188 7.917969 15.855469 8.578125 17.648438 C 9.230469 19.421875 10.597656 20.386719 12.457031 20.558594 C 13.796875 20.683594 14.976562 20.191406 15.945312 19.242188 C 16.875 18.328125 17.789062 17.394531 18.714844 16.472656 C 18.933594 16.257812 19.1875 15.917969 19.472656 16.304688 C 19.5625 16.429688 19.421875 16.851562 19.261719 17.011719 C 16.695312 19.605469 14.117188 22.1875 11.519531 24.75 C 11.359375 24.910156 11.027344 25.035156 10.824219 24.984375 C 8.007812 24.234375 5.457031 22.996094 3.609375 20.652344 C 1.085938 17.460938 1.570312 13.519531 4.773438 10.746094 C 7.144531 8.6875 9.960938 7.660156 13.019531 7.210938 C 13.765625 7.097656 14.523438 7.066406 15.273438 7 Z M 15.273438 7 "/>
</clipPath>
<clipPath id="clip4">
  <path d="M 9 7 L 23 7 L 23 26 L 9 26 Z M 9 7 "/>
</clipPath>
<clipPath id="clip5">
  <path d="M 13.085938 25.171875 C 13.375 24.957031 13.695312 24.777344 13.949219 24.527344 C 16.140625 22.351562 18.324219 20.171875 20.5 17.984375 C 21.113281 17.367188 21.253906 16.460938 20.890625 15.746094 C 20.539062 15.046875 19.777344 14.589844 18.996094 14.746094 C 18.5625 14.835938 18.105469 15.078125 17.777344 15.378906 C 16.816406 16.265625 15.921875 17.222656 14.992188 18.140625 C 13.675781 19.445312 11.886719 19.5 10.65625 18.289062 C 9.460938 17.105469 9.507812 15.253906 10.796875 13.949219 C 12.890625 11.839844 15.023438 9.765625 17.09375 7.628906 C 17.640625 7.066406 18.152344 6.953125 18.90625 7.308594 C 18.730469 7.503906 18.582031 7.683594 18.417969 7.851562 C 16.125 10.144531 13.828125 12.4375 11.535156 14.734375 C 10.773438 15.5 10.640625 16.375 11.140625 17.175781 C 11.789062 18.214844 13.195312 18.382812 14.113281 17.5 C 15.117188 16.527344 16.082031 15.519531 17.074219 14.539062 C 17.941406 13.6875 18.984375 13.457031 20.128906 13.808594 C 21.289062 14.167969 21.945312 15.019531 22.144531 16.199219 C 22.296875 17.09375 22.046875 17.921875 21.414062 18.5625 C 19.1875 20.828125 16.933594 23.066406 14.683594 25.3125 C 14.242188 25.753906 13.746094 25.527344 13.265625 25.449219 C 13.207031 25.355469 13.148438 25.265625 13.085938 25.171875 "/>
</clipPath>
</defs>
<g id="surface1">
<g clip-path="url(#clip1)" clip-rule="evenodd">
<rect x="0" y="0" width="32" height="32" style="fill:rgb(100%,100%,100%);fill-opacity:1;stroke:none;"/>
</g>
<g clip-path="url(#clip2)" clip-rule="nonzero">
<g clip-path="url(#clip3)" clip-rule="nonzero">
<path style=" stroke:none;fill-rule:nonzero;fill:rgb(0%,42.744446%,72.941589%);fill-opacity:1;" d="M -3 2 L 34.941406 2 L 34.941406 30.679688 L -3 30.679688 Z M -3 2 "/>
</g>
</g>
<g clip-path="url(#clip4)" clip-rule="nonzero">
<g clip-path="url(#clip5)" clip-rule="nonzero">
<path style=" stroke:none;fill-rule:nonzero;fill:rgb(71.372986%,72.157288%,71.765137%);fill-opacity:1;" d="M 4.792969 2.105469 L 27.1875 2.105469 L 27.1875 30.578125 L 4.792969 30.578125 Z M 4.792969 2.105469 "/>
</g>
</g>
</g>
</svg>
