<svg width="12" height="24" viewBox="0 0 12 24" fill="none" xmlns="http://www.w3.org/2000/svg">
<path d="M5.84391 4.44C4.40391 4.44 3.20391 4.9 2.24391 5.84C1.28391 6.76 0.803906 7.94 0.803906 9.38C0.803906 10.78 1.20391 11.92 2.04391 12.8C2.88391 13.72 4.02391 14.18 5.42391 14.18C6.14391 14.18 6.78391 14.04 7.34391 13.78C7.92391 13.5 8.42391 13.06 8.84391 12.48H8.94391V12.66C8.94391 13.98 8.66391 15.08 8.12391 15.96C7.54391 16.88 6.78391 17.36 5.84391 17.36C4.46391 17.36 3.64391 16.7 3.36391 15.38H1.08391C1.42391 17.98 3.00391 19.28 5.82391 19.28C7.46391 19.28 8.78391 18.56 9.76391 17.12C10.7239 15.68 11.2239 13.78 11.2239 11.46C11.2239 9.26 10.7639 7.56 9.84391 6.32C8.92391 5.06 7.58391 4.44 5.84391 4.44ZM5.92391 6.38C6.72391 6.38 7.40391 6.64 7.92391 7.16C8.44391 7.68 8.70391 8.38 8.70391 9.3C8.70391 10.22 8.44391 10.94 7.96391 11.48C7.46391 12 6.78391 12.28 5.92391 12.28C5.04391 12.28 4.36391 12 3.88391 11.48C3.36391 10.96 3.12391 10.26 3.12391 9.38C3.12391 8.5 3.36391 7.78 3.88391 7.22C4.40391 6.66 5.08391 6.38 5.92391 6.38Z" fill="#D90101"/>
</svg>
