<svg width="24" height="24" viewBox="0 0 24 24" fill="none" xmlns="http://www.w3.org/2000/svg">
<path fill-rule="evenodd" clip-rule="evenodd" d="M19.3594 8.67188C19.4531 8.57812 19.5 8.4375 19.5 8.25C19.5 8.03125 19.4219 7.85156 19.2656 7.71094C19.1094 7.57031 18.9219 7.5 18.7031 7.5H5.29688C5.07812 7.5 4.89063 7.57031 4.73438 7.71094C4.57812 7.85156 4.5 8.03125 4.5 8.25C4.5 8.40625 4.54687 8.53125 4.64062 8.625L4.73438 8.76562L11.1094 16.0781C11.3906 16.3594 11.6875 16.5 12 16.5C12.3125 16.5 12.6094 16.3594 12.8906 16.0781L19.2656 8.76562L19.3594 8.67188Z" fill="#595959"/>
</svg>
