<?xml version="1.0" encoding="UTF-8"?>
<svg xmlns="http://www.w3.org/2000/svg" xmlns:xlink="http://www.w3.org/1999/xlink" width="30pt" height="30pt" viewBox="0 0 30 30" version="1.1">
<g id="surface1">
<path style=" stroke:none;fill-rule:nonzero;fill:rgb(87.841797%,87.449646%,87.449646%);fill-opacity:1;" d="M 25.714844 0 L 4.285156 0 C 1.917969 0 0 1.917969 0 4.285156 L 0 25.714844 C 0 28.082031 1.917969 30 4.285156 30 L 25.714844 30 C 28.082031 30 30 28.082031 30 25.714844 L 30 4.285156 C 30 1.917969 28.082031 0 25.714844 0 Z M 25.714844 0 "/>
<path style=" stroke:none;fill-rule:nonzero;fill:rgb(69.410706%,67.0578%,70.979309%);fill-opacity:1;" d="M 15.011719 21.632812 L 9.824219 17.996094 C 9.765625 17.953125 9.695312 18.023438 9.734375 18.082031 L 14.929688 25.878906 C 15.054688 26.066406 15.335938 26.066406 15.460938 25.878906 L 20.660156 18.082031 C 20.699219 18.023438 20.625 17.953125 20.570312 17.996094 L 15.378906 21.632812 C 15.269531 21.707031 15.121094 21.707031 15.011719 21.632812 Z M 15.011719 21.632812 "/>
<path style=" stroke:none;fill-rule:nonzero;fill:rgb(69.410706%,67.0578%,70.979309%);fill-opacity:1;" d="M 21.335938 14.785156 L 15.476562 4.199219 C 15.355469 3.980469 15.039062 3.980469 14.914062 4.199219 L 9.054688 14.785156 Z M 21.335938 14.785156 "/>
<path style=" stroke:none;fill-rule:nonzero;fill:rgb(47.058105%,43.136597%,47.450256%);fill-opacity:1;" d="M 15.195312 14.785156 L 21.335938 14.785156 L 15.476562 4.199219 C 15.414062 4.089844 15.304688 4.035156 15.195312 4.035156 Z M 15.195312 14.785156 "/>
<path style=" stroke:none;fill-rule:nonzero;fill:rgb(47.058105%,43.136597%,47.450256%);fill-opacity:1;" d="M 15.011719 19.304688 L 9.152344 15.199219 C 8.96875 15.070312 8.96875 14.800781 9.152344 14.671875 L 15.011719 10.566406 C 15.121094 10.488281 15.269531 10.488281 15.378906 10.566406 L 21.242188 14.671875 C 21.421875 14.800781 21.421875 15.070312 21.242188 15.199219 L 15.378906 19.304688 C 15.269531 19.382812 15.121094 19.382812 15.011719 19.304688 Z M 15.011719 19.304688 "/>
<path style=" stroke:none;fill-rule:nonzero;fill:rgb(33.332825%,30.587769%,34.117126%);fill-opacity:1;" d="M 15.378906 19.304688 L 21.242188 15.199219 C 21.421875 15.070312 21.421875 14.800781 21.242188 14.671875 L 15.378906 10.566406 C 15.324219 10.527344 15.261719 10.507812 15.195312 10.507812 L 15.195312 19.363281 C 15.261719 19.363281 15.324219 19.34375 15.378906 19.304688 Z M 15.378906 19.304688 "/>
<path style=" stroke:none;fill-rule:nonzero;fill:rgb(33.332825%,30.587769%,34.117126%);fill-opacity:1;" d="M 19.628906 14.34375 C 19.722656 14.480469 19.695312 14.679688 19.546875 14.785156 L 21.335938 14.785156 L 15.476562 4.199219 C 15.414062 4.089844 15.304688 4.035156 15.195312 4.035156 L 15.195312 6.339844 Z M 19.628906 14.34375 "/>
<path style=" stroke:none;fill-rule:nonzero;fill:rgb(33.332825%,30.587769%,34.117126%);fill-opacity:1;" d="M 15.460938 25.875 L 20.660156 18.082031 C 20.699219 18.023438 20.625 17.953125 20.570312 17.996094 L 15.378906 21.632812 C 15.324219 21.667969 15.261719 21.6875 15.195312 21.6875 L 15.195312 26.019531 C 15.296875 26.019531 15.398438 25.972656 15.460938 25.875 Z M 15.460938 25.875 "/>
<path style=" stroke:none;fill-rule:nonzero;fill:rgb(27.058411%,24.313354%,26.274109%);fill-opacity:1;" d="M 21.242188 14.671875 L 18.90625 13.035156 L 19.628906 14.34375 C 19.722656 14.480469 19.695312 14.679688 19.546875 14.785156 L 15.195312 17.835938 L 15.195312 19.363281 C 15.261719 19.363281 15.324219 19.34375 15.378906 19.304688 L 21.242188 15.199219 C 21.421875 15.070312 21.421875 14.800781 21.242188 14.671875 Z M 21.242188 14.671875 "/>
<path style=" stroke:none;fill-rule:nonzero;fill:rgb(27.058411%,24.313354%,26.274109%);fill-opacity:1;" d="M 20.570312 17.996094 L 17.828125 19.914062 L 15.195312 23.863281 L 15.195312 26.019531 C 15.296875 26.019531 15.398438 25.972656 15.460938 25.875 L 20.660156 18.082031 C 20.699219 18.023438 20.625 17.953125 20.570312 17.996094 Z M 20.570312 17.996094 "/>
</g>
</svg>
