<?xml version="1.0" encoding="UTF-8"?>
<svg xmlns="http://www.w3.org/2000/svg" xmlns:xlink="http://www.w3.org/1999/xlink" width="32pt" height="32pt" viewBox="0 0 32 32" version="1.1">
<defs>
<clipPath id="clip1">
  <path d="M 3 3 L 29 3 L 29 29 L 3 29 Z M 3 3 "/>
</clipPath>
<clipPath id="clip2">
  <path d="M 16.445312 24.4375 C 18.167969 25.75 20.132812 26.1875 22.214844 26.1875 C 24.296875 26.191406 26.257812 25.738281 27.960938 24.441406 C 28.148438 25.863281 27.816406 26.832031 26.546875 27.714844 C 25.636719 28.347656 24.597656 28.648438 23.511719 28.785156 C 21.960938 28.984375 20.433594 28.878906 18.972656 28.289062 C 18.496094 28.097656 18.035156 27.832031 17.617188 27.527344 C 16.585938 26.769531 16.246094 25.71875 16.445312 24.4375 Z M 3.046875 24.53125 C 6.886719 26.796875 10.738281 26.792969 14.597656 24.53125 C 14.800781 25.859375 14.324219 26.945312 13.15625 27.722656 C 12.253906 28.328125 11.246094 28.636719 10.183594 28.777344 C 8.621094 28.984375 7.082031 28.886719 5.609375 28.296875 C 5.140625 28.109375 4.683594 27.859375 4.277344 27.566406 C 3.226562 26.808594 2.863281 25.746094 3.046875 24.53125 Z M 16.429688 20.066406 C 20.265625 22.339844 24.109375 22.328125 27.984375 20.066406 C 28.167969 21.757812 27.457031 22.941406 25.753906 23.703125 C 24.375 24.320312 22.917969 24.496094 21.425781 24.378906 C 20.171875 24.28125 18.972656 23.992188 17.90625 23.285156 C 17.144531 22.78125 16.566406 22.128906 16.4375 21.1875 C 16.386719 20.804688 16.429688 20.40625 16.429688 20.066406 Z M 3.046875 20.066406 C 6.882812 22.335938 10.726562 22.328125 14.601562 20.066406 C 14.800781 21.734375 14.082031 22.933594 12.375 23.703125 C 10.996094 24.324219 9.539062 24.488281 8.046875 24.378906 C 6.933594 24.300781 5.867188 24.046875 4.878906 23.503906 C 3.503906 22.746094 2.808594 21.625 3.046875 20.066406 Z M 21.980469 12.804688 C 23.625 12.835938 24.988281 13.046875 26.226562 13.773438 C 26.515625 13.941406 26.792969 14.148438 27.046875 14.371094 C 28.308594 15.496094 28.316406 17.21875 27.074219 18.371094 C 26.203125 19.175781 25.140625 19.578125 23.992188 19.785156 C 22.289062 20.089844 20.601562 20.03125 18.988281 19.363281 C 18.398438 19.121094 17.824219 18.777344 17.347656 18.359375 C 16.074219 17.25 16.09375 15.539062 17.332031 14.390625 C 18.253906 13.539062 19.386719 13.136719 20.601562 12.949219 C 21.132812 12.863281 21.675781 12.832031 21.980469 12.804688 Z M 8.617188 12.800781 C 10.292969 12.839844 11.726562 13.066406 13.015625 13.867188 C 13.59375 14.226562 14.078125 14.683594 14.371094 15.308594 C 14.871094 16.363281 14.609375 17.53125 13.691406 18.375 C 12.816406 19.179688 11.753906 19.582031 10.605469 19.785156 C 8.902344 20.085938 7.214844 20.03125 5.601562 19.363281 C 5.023438 19.125 4.457031 18.785156 3.980469 18.382812 C 2.707031 17.292969 2.707031 15.554688 3.929688 14.410156 C 4.859375 13.546875 6 13.140625 7.226562 12.945312 C 7.746094 12.863281 8.277344 12.835938 8.617188 12.800781 Z M 15.46875 3 C 16.46875 2.980469 17.28125 3.761719 17.296875 4.773438 C 17.308594 5.652344 17.296875 6.535156 17.296875 7.460938 C 17.871094 7.460938 18.425781 7.460938 18.984375 7.457031 C 19.289062 7.453125 19.550781 7.535156 19.753906 7.769531 C 20.082031 8.15625 20.042969 8.652344 19.640625 9.054688 C 18.585938 10.113281 17.507812 11.152344 16.476562 12.234375 C 15.773438 12.972656 15.277344 13.003906 14.542969 12.230469 C 13.511719 11.144531 12.433594 10.105469 11.375 9.046875 C 11.050781 8.71875 10.964844 8.367188 11.128906 8.003906 C 11.304688 7.609375 11.628906 7.457031 12.050781 7.457031 C 12.601562 7.464844 13.148438 7.460938 13.726562 7.460938 C 13.726562 6.539062 13.71875 5.652344 13.730469 4.761719 C 13.746094 3.789062 14.515625 3.019531 15.46875 3 Z M 15.46875 3 "/>
</clipPath>
</defs>
<g id="surface1">
<g clip-path="url(#clip1)" clip-rule="nonzero">
<g clip-path="url(#clip2)" clip-rule="evenodd">
<rect x="0" y="0" width="32" height="32" style="fill:rgb(60.784912%,60.784912%,60.784912%);fill-opacity:1;stroke:none;"/>
</g>
</g>
</g>
</svg>
