<svg width="12" height="24" viewBox="0 0 12 24" fill="none" xmlns="http://www.w3.org/2000/svg">
<path d="M6.00391 4.44C4.46391 4.44 3.24391 4.84 2.34391 5.66C1.52391 6.38 1.12391 7.28 1.12391 8.36C1.12391 9.08 1.28391 9.7 1.60391 10.2C1.94391 10.72 2.46391 11.14 3.18391 11.42V11.46C2.50391 11.64 1.94391 12.04 1.46391 12.66C0.903906 13.34 0.643906 14.12 0.643906 15C0.643906 16.28 1.10391 17.3 2.04391 18.1C2.96391 18.88 4.28391 19.28 6.00391 19.28C7.70391 19.28 9.02391 18.88 9.96391 18.1C10.8839 17.3 11.3639 16.28 11.3639 15C11.3639 14.12 11.0839 13.34 10.5439 12.66C10.0639 12.04 9.48391 11.64 8.82391 11.46V11.42C9.52391 11.14 10.0439 10.72 10.4039 10.2C10.7239 9.7 10.8839 9.08 10.8839 8.36C10.8839 7.28 10.4639 6.38 9.66391 5.66C8.74391 4.84 7.52391 4.44 6.00391 4.44ZM6.00391 6.3C6.84391 6.3 7.50391 6.52 8.02391 6.98C8.46391 7.38 8.68391 7.86 8.68391 8.44C8.68391 9.1 8.50391 9.62 8.14391 10C7.70391 10.46 6.98391 10.7 6.00391 10.7C5.00391 10.7 4.30391 10.46 3.86391 10C3.50391 9.62 3.32391 9.1 3.32391 8.44C3.32391 7.86 3.54391 7.38 3.98391 6.98C4.48391 6.52 5.16391 6.3 6.00391 6.3ZM6.00391 12.44C7.00391 12.44 7.76391 12.68 8.30391 13.18C8.78391 13.62 9.04391 14.24 9.04391 15C9.04391 15.72 8.78391 16.28 8.28391 16.72C7.72391 17.16 6.96391 17.4 6.00391 17.4C5.02391 17.4 4.28391 17.18 3.76391 16.74C3.22391 16.3 2.96391 15.72 2.96391 15C2.96391 14.24 3.20391 13.62 3.72391 13.16C4.24391 12.68 5.00391 12.44 6.00391 12.44Z" fill="black"/>
</svg>
