<svg width="129" height="128" viewBox="0 0 129 128" fill="none" xmlns="http://www.w3.org/2000/svg">
<g clip-path="url(#clip0_5900_2582)">
<path d="M94.6189 28.0714H44.9907C39.8019 28.0714 35.5802 32.2923 35.5802 37.4819V67.8533C35.5802 73.0313 39.7835 77.2455 44.9573 77.2638H64.7639H94.6189C99.8077 77.2638 104.029 73.0422 104.029 67.8533V37.4819C104.029 32.2923 99.8077 28.0714 94.6189 28.0714ZM100.019 67.8533C100.019 70.8304 97.5964 73.2531 94.6189 73.2531H63.5055H48.968H44.9907C42.0132 73.2531 39.5909 70.8304 39.5909 67.8533V37.4819C39.5909 34.504 42.0132 32.0821 44.9907 32.0821H94.6189C97.5964 32.0821 100.019 34.504 100.019 37.4819V67.8533Z" fill="#595959"/>
<path fill-rule="evenodd" clip-rule="evenodd" d="M100.019 67.8534C100.019 70.8305 97.5964 73.2532 94.6189 73.2532H63.5055H48.968H44.9907C42.0132 73.2532 39.5909 70.8305 39.5909 67.8534V37.482C39.5909 34.504 42.0132 32.0822 44.9907 32.0822H94.6189C97.5964 32.0822 100.019 34.504 100.019 37.482V67.8534Z" fill="#303030"/>
<path d="M85.8916 36.7987H36.2635C31.0746 36.7987 26.8529 41.0195 26.8529 46.2092V76.5806C26.8529 81.7586 31.0562 85.9728 36.23 85.9911V99.7733L56.0366 85.9911H85.8916C91.0805 85.9911 95.3021 81.7695 95.3021 76.5806V46.2092C95.3021 41.0195 91.0805 36.7987 85.8916 36.7987ZM91.2915 76.5806C91.2915 79.5577 88.8692 81.9804 85.8916 81.9804H54.7782L40.2407 92.0966V81.9804H36.2635C33.2859 81.9804 30.8636 79.5577 30.8636 76.5806V46.2092C30.8636 43.2313 33.2859 40.8094 36.2635 40.8094H85.8916C88.8692 40.8094 91.2915 43.2313 91.2915 46.2092V76.5806Z" fill="#595959"/>
<path fill-rule="evenodd" clip-rule="evenodd" d="M91.2914 76.5807C91.2914 79.5578 88.8692 81.9805 85.8916 81.9805H54.7782L40.2407 92.0966V81.9805H36.2635C33.2859 81.9805 30.8636 79.5578 30.8636 76.5807V46.2093C30.8636 43.2313 33.2859 40.8094 36.2635 40.8094H85.8916C88.8692 40.8094 91.2914 43.2313 91.2914 46.2093V76.5807Z" fill="#131313"/>
<path d="M45.1731 50.9702H76.982V54.9809H45.1731V50.9702Z" fill="#595959"/>
<path d="M45.1731 59.5264H76.982V63.5371H45.1731V59.5264Z" fill="#595959"/>
<path d="M45.1731 68.0825H76.982V72.0932H45.1731V68.0825Z" fill="#595959"/>
<path fill-rule="evenodd" clip-rule="evenodd" d="M124.394 41.8135L117.738 48.4686C117.003 49.2037 115.812 49.2037 115.076 48.4686L114.411 47.8031C113.676 47.068 113.676 45.8761 114.411 45.141L121.066 38.4859C121.801 37.7508 122.993 37.7508 123.728 38.4859L124.394 39.1514C125.129 39.8865 125.129 41.0784 124.394 41.8135ZM124.394 77.9207L123.728 78.5862C122.993 79.3213 121.801 79.3213 121.066 78.5862L114.411 71.9311C113.676 71.196 113.676 70.0042 114.411 69.2691L115.076 68.6035C115.812 67.8684 117.003 67.8684 117.738 68.6035L124.394 75.2587C125.129 75.9938 125.129 77.1856 124.394 77.9207ZM127.873 59.0067C127.873 60.0462 127.03 60.889 125.99 60.889H116.579C115.539 60.889 114.696 60.0462 114.696 59.0067V58.0655C114.696 57.0259 115.539 56.1831 116.579 56.1831H125.99C127.03 56.1831 127.873 57.0259 127.873 58.0655V59.0067Z" fill="#595959"/>
<path fill-rule="evenodd" clip-rule="evenodd" d="M4.39764 41.8135L11.0528 48.4686C11.7879 49.2037 12.9797 49.2037 13.7148 48.4686L14.3803 47.8031C15.1154 47.068 15.1154 45.8761 14.3803 45.141L7.7252 38.4859C6.9901 37.7508 5.79826 37.7508 5.06316 38.4859L4.39764 39.1514C3.66254 39.8865 3.66254 41.0784 4.39764 41.8135ZM4.39764 77.9207L5.06316 78.5862C5.79826 79.3213 6.9901 79.3213 7.7252 78.5862L14.3803 71.9311C15.1154 71.196 15.1154 70.0042 14.3803 69.2691L13.7148 68.6035C12.9797 67.8684 11.7879 67.8684 11.0528 68.6035L4.39764 75.2587C3.66254 75.9938 3.66254 77.1856 4.39764 77.9207ZM0.918396 59.0067C0.918396 60.0462 1.76115 60.889 2.80075 60.889H12.2125C13.2521 60.889 14.0949 60.0462 14.0949 59.0067V58.0655C14.0949 57.0259 13.2521 56.1831 12.2125 56.1831H2.80075C1.76115 56.1831 0.918396 57.0259 0.918396 58.0655L0.918396 59.0067Z" fill="#595959"/>
</g>
<defs>
<clipPath id="clip0_5900_2582">
<rect width="128" height="72.4706" fill="white" transform="translate(0.5 28)"/>
</clipPath>
</defs>
</svg>
