<svg width="32" height="32" viewBox="0 0 32 32" fill="none" xmlns="http://www.w3.org/2000/svg">
<path d="M22 21.7146C22 21.8716 21.8754 22 21.7232 22L19.4394 21.9893L16 17.7622L12.564 21.9857L10.2768 21.9964C10.1246 21.9964 10 21.8716 10 21.7111C10 21.6433 10.0242 21.5791 10.0657 21.5256L14.5675 15.9964L10.0657 10.4709C10.0239 10.4186 10.0007 10.3531 10 10.2854C10 10.1284 10.1246 10 10.2768 10L12.564 10.0107L16 14.2378L19.436 10.0143L21.7197 10.0036C21.872 10.0036 21.9965 10.1284 21.9965 10.2889C21.9965 10.3567 21.9723 10.4209 21.9308 10.4744L17.436 16L21.9377 21.5291C21.9792 21.5791 22 21.6468 22 21.7146Z" fill="white"/>
<rect x="1.5" y="-1.5" width="29" height="29" rx="14.5" transform="matrix(1 0 0 -1 0 29)" stroke="white" stroke-width="3"/>
</svg>
