<?xml version="1.0" encoding="UTF-8"?>
<svg xmlns="http://www.w3.org/2000/svg" xmlns:xlink="http://www.w3.org/1999/xlink" width="32pt" height="32pt" viewBox="0 0 32 32" version="1.1">
<defs>
<clipPath id="clip1">
  <path d="M 16 32 C 7.164062 32 0 24.835938 0 16 C 0 7.164062 7.164062 0 16 0 C 24.835938 0 32 7.164062 32 16 C 32 24.835938 24.835938 32 16 32 Z M 11 10 L 8 10 C 6.894531 10 6 10.894531 6 12 L 6 22 C 6 23.105469 6.894531 24 8 24 L 24 24 C 25.105469 24 26 23.105469 26 22 L 26 12 C 26 10.894531 25.105469 10 24 10 L 21 10 L 20.574219 8.464844 C 20.332031 7.597656 19.542969 7 18.648438 7 L 13.351562 7 C 12.457031 7 11.667969 7.597656 11.425781 8.464844 Z M 16 22 C 13.238281 22 11 19.761719 11 17 C 11 14.238281 13.238281 12 16 12 C 18.761719 12 21 14.238281 21 17 C 21 19.761719 18.761719 22 16 22 Z M 16 20 C 17.65625 20 19 18.65625 19 17 C 19 15.34375 17.65625 14 16 14 C 14.34375 14 13 15.34375 13 17 C 13 18.65625 14.34375 20 16 20 Z M 16 20 "/>
</clipPath>
</defs>
<g id="surface1">
<g clip-path="url(#clip1)" clip-rule="evenodd">
<rect x="0" y="0" width="32" height="32" style="fill:rgb(100%,100%,100%);fill-opacity:1;stroke:none;"/>
</g>
</g>
</svg>
