<?xml version="1.0" encoding="UTF-8"?>
<svg xmlns="http://www.w3.org/2000/svg" xmlns:xlink="http://www.w3.org/1999/xlink" width="240pt" height="240pt" viewBox="0 0 240 240" version="1.1">
<g id="surface1">
<path style=" stroke:none;fill-rule:nonzero;fill:rgb(94.116211%,77.645874%,70.587158%);fill-opacity:1;" d="M 82.25 34.277344 C 81.703125 34.390625 81.613281 31.925781 82.574219 30.015625 C 83.535156 28.109375 82.402344 25.523438 81.402344 27.898438 C 80.402344 30.277344 80.160156 30.246094 78.375 33.136719 C 76.484375 36.148438 71.945312 39.058594 71.945312 39.058594 C 71.945312 39.058594 64.265625 43.515625 60.445312 46.941406 C 58.414062 48.710938 56.523438 50.625 54.796875 52.671875 L 57.824219 55.816406 L 74.78125 43.359375 L 74.957031 43.621094 L 88.398438 43.578125 L 88.640625 33.800781 C 88.640625 33.800781 82.792969 34.164062 82.25 34.277344 Z M 82.25 34.277344 "/>
<path style=" stroke:none;fill-rule:nonzero;fill:rgb(19.999695%,19.999695%,19.999695%);fill-opacity:1;" d="M 169.277344 214.09375 L 155.089844 161.335938 L 140.90625 108.574219 L 126.722656 161.335938 L 112.535156 214.09375 Z M 169.277344 214.09375 "/>
<path style=" stroke:none;fill-rule:nonzero;fill:rgb(29.019165%,29.019165%,29.019165%);fill-opacity:1;" d="M 108.550781 214.09375 L 173.257812 214.09375 L 173.257812 223.054688 L 108.550781 223.054688 Z M 108.550781 214.09375 "/>
<path style=" stroke:none;fill-rule:nonzero;fill:rgb(9.01947%,9.411621%,10.195923%);fill-opacity:1;" d="M 104.949219 188.210938 L 54.796875 138.355469 L 54.796875 67.84375 L 104.949219 17.984375 L 175.871094 17.984375 L 226.019531 67.84375 L 226.019531 138.355469 L 175.871094 188.210938 Z M 104.949219 188.210938 "/>
<path style=" stroke:none;fill-rule:nonzero;fill:rgb(39.99939%,39.99939%,39.99939%);fill-opacity:1;" d="M 54.796875 138.355469 L 54.296875 138.355469 L 54.296875 138.5625 L 54.445312 138.710938 Z M 54.796875 67.84375 L 54.445312 67.488281 L 54.296875 67.636719 L 54.296875 67.84375 Z M 104.949219 17.984375 L 104.949219 17.484375 L 104.742188 17.484375 L 104.597656 17.632812 Z M 175.871094 17.984375 L 176.222656 17.632812 L 176.074219 17.484375 L 175.871094 17.484375 Z M 226.019531 67.84375 L 226.519531 67.84375 L 226.519531 67.636719 L 226.371094 67.488281 Z M 226.019531 138.355469 L 226.371094 138.710938 L 226.519531 138.5625 L 226.519531 138.355469 Z M 175.871094 188.210938 L 175.871094 188.710938 L 176.074219 188.710938 L 176.222656 188.566406 Z M 105.300781 187.859375 L 55.148438 138 L 54.445312 138.710938 L 104.597656 188.566406 Z M 55.296875 138.355469 L 55.296875 67.84375 L 54.296875 67.84375 L 54.296875 138.355469 Z M 55.148438 68.199219 L 105.300781 18.339844 L 104.597656 17.632812 L 54.445312 67.488281 Z M 104.949219 18.484375 L 175.871094 18.484375 L 175.871094 17.484375 L 104.949219 17.484375 Z M 175.515625 18.339844 L 225.664062 68.199219 L 226.371094 67.488281 L 176.222656 17.632812 Z M 225.519531 67.84375 L 225.519531 138.355469 L 226.519531 138.355469 L 226.519531 67.84375 Z M 225.664062 138 L 175.515625 187.859375 L 176.222656 188.566406 L 226.371094 138.710938 Z M 175.871094 187.710938 L 104.949219 187.710938 L 104.949219 188.710938 L 175.871094 188.710938 Z M 175.871094 187.710938 "/>
<path style=" stroke:none;fill-rule:nonzero;fill:rgb(76.469421%,5.097961%,13.725281%);fill-opacity:1;" d="M 124.328125 158.707031 C 131.824219 156.976562 139.304688 161.648438 141.039062 169.140625 C 142.777344 176.636719 138.109375 184.117188 130.617188 185.859375 C 123.121094 187.597656 115.636719 182.933594 113.890625 175.441406 C 113.054688 171.839844 113.683594 168.050781 115.640625 164.914062 C 117.597656 161.773438 120.722656 159.542969 124.328125 158.707031 Z M 124.328125 158.707031 "/>
<path style=" stroke:none;fill-rule:nonzero;fill:rgb(29.019165%,29.019165%,29.019165%);fill-opacity:1;" d="M 125.511719 165.484375 C 128.996094 164.679688 132.46875 166.851562 133.273438 170.332031 C 134.074219 173.8125 131.90625 177.285156 128.425781 178.089844 C 124.945312 178.894531 121.46875 176.726562 120.664062 173.246094 C 119.863281 169.761719 122.03125 166.289062 125.511719 165.484375 Z M 125.511719 165.484375 "/>
<path style=" stroke:none;fill-rule:nonzero;fill:rgb(76.469421%,5.097961%,13.725281%);fill-opacity:1;" d="M 126.066406 175.257812 C 125.753906 175.289062 125.441406 175.265625 125.136719 175.183594 C 124.601562 175.039062 124.148438 174.703125 123.878906 174.238281 C 123.734375 173.996094 123.625 173.730469 123.5625 173.457031 C 123.488281 173.175781 123.464844 172.882812 123.5 172.597656 C 123.527344 172.355469 123.601562 172.121094 123.722656 171.910156 C 123.949219 171.515625 124.34375 171.230469 124.804688 171.128906 C 124.988281 171.089844 125.179688 171.066406 125.371094 171.070312 C 125.527344 171.074219 125.683594 171.105469 125.828125 171.15625 C 125.960938 171.214844 126.085938 171.292969 126.1875 171.386719 C 126.304688 171.492188 126.40625 171.605469 126.492188 171.730469 C 126.515625 171.050781 127.03125 170.480469 127.734375 170.359375 C 128.046875 170.28125 128.378906 170.273438 128.699219 170.335938 C 128.976562 170.398438 129.238281 170.515625 129.464844 170.679688 C 129.691406 170.851562 129.882812 171.066406 130.027344 171.304688 C 130.179688 171.558594 130.292969 171.832031 130.359375 172.117188 C 130.429688 172.382812 130.460938 172.660156 130.449219 172.9375 C 130.441406 173.175781 130.382812 173.410156 130.285156 173.625 C 130.179688 173.851562 130.03125 174.054688 129.847656 174.226562 C 129.632812 174.433594 129.390625 174.613281 129.125 174.761719 L 128.730469 174.21875 C 128.632812 174.097656 128.578125 173.949219 128.570312 173.796875 C 128.5625 173.667969 128.613281 173.542969 128.710938 173.453125 C 128.898438 173.308594 129.050781 173.128906 129.160156 172.921875 C 129.238281 172.746094 129.253906 172.554688 129.207031 172.371094 C 129.175781 172.234375 129.117188 172.105469 129.03125 171.996094 C 128.957031 171.902344 128.863281 171.824219 128.757812 171.761719 C 128.660156 171.707031 128.550781 171.671875 128.433594 171.660156 C 128.324219 171.640625 128.210938 171.640625 128.101562 171.660156 C 127.976562 171.6875 127.855469 171.722656 127.742188 171.773438 C 127.632812 171.816406 127.542969 171.894531 127.484375 171.996094 C 127.417969 172.128906 127.386719 172.277344 127.390625 172.425781 C 127.398438 172.679688 127.4375 172.929688 127.503906 173.171875 L 126.53125 173.386719 C 126.484375 173.171875 126.410156 172.964844 126.3125 172.765625 C 126.25 172.632812 126.160156 172.515625 126.046875 172.421875 C 125.957031 172.355469 125.847656 172.316406 125.734375 172.308594 C 125.613281 172.304688 125.492188 172.316406 125.375 172.34375 C 125.15625 172.375 124.957031 172.488281 124.816406 172.652344 C 124.703125 172.832031 124.671875 173.050781 124.742188 173.246094 C 124.777344 173.429688 124.878906 173.59375 125.03125 173.714844 C 125.164062 173.824219 125.332031 173.894531 125.507812 173.910156 C 125.65625 173.914062 125.796875 173.972656 125.898438 174.074219 C 125.988281 174.195312 126.039062 174.339844 126.039062 174.488281 Z M 126.066406 175.257812 "/>
<path style=" stroke:none;fill-rule:nonzero;fill:rgb(29.019165%,29.019165%,29.019165%);fill-opacity:1;" d="M 118.507812 161.171875 C 119.996094 162.226562 122.199219 162.632812 124.484375 162.089844 C 126.765625 161.550781 128.574219 160.199219 129.457031 158.582031 C 125.613281 157.867188 121.652344 158.804688 118.507812 161.171875 Z M 118.507812 161.171875 "/>
<path style=" stroke:none;fill-rule:nonzero;fill:rgb(76.469421%,5.097961%,13.725281%);fill-opacity:1;" d="M 126.429688 159.613281 C 126.484375 159.765625 126.484375 159.929688 126.429688 160.078125 C 126.355469 160.253906 126.242188 160.40625 126.09375 160.527344 C 125.902344 160.6875 125.691406 160.824219 125.460938 160.921875 C 125.175781 161.046875 124.882812 161.144531 124.578125 161.210938 C 124.273438 161.289062 123.960938 161.328125 123.644531 161.332031 C 123.417969 161.339844 123.191406 161.308594 122.976562 161.242188 C 122.824219 161.203125 122.6875 161.121094 122.582031 161 C 122.511719 160.90625 122.476562 160.785156 122.492188 160.664062 C 122.503906 160.5625 122.53125 160.464844 122.578125 160.375 C 122.625 160.289062 122.683594 160.210938 122.753906 160.144531 C 122.835938 160.074219 122.925781 160.011719 123.019531 159.960938 C 123.128906 159.894531 123.246094 159.839844 123.363281 159.792969 C 122.777344 159.828125 122.511719 159.703125 122.542969 159.441406 C 122.5625 159.316406 122.621094 159.203125 122.710938 159.117188 C 122.820312 159.011719 122.9375 158.921875 123.066406 158.851562 C 123.222656 158.769531 123.382812 158.699219 123.546875 158.636719 C 123.726562 158.574219 123.914062 158.519531 124.109375 158.472656 C 124.289062 158.429688 124.472656 158.398438 124.65625 158.375 C 124.808594 158.351562 124.960938 158.34375 125.113281 158.351562 C 125.386719 158.359375 125.65625 158.429688 125.902344 158.554688 L 125.507812 158.730469 C 125.402344 158.773438 125.296875 158.804688 125.183594 158.824219 C 125.105469 158.84375 125.019531 158.84375 124.941406 158.824219 C 124.824219 158.777344 124.703125 158.75 124.578125 158.738281 C 124.445312 158.734375 124.3125 158.746094 124.183594 158.777344 C 124.089844 158.800781 124 158.828125 123.910156 158.867188 C 123.839844 158.894531 123.773438 158.929688 123.710938 158.972656 C 123.667969 159.003906 123.628906 159.042969 123.597656 159.085938 C 123.574219 159.121094 123.5625 159.160156 123.566406 159.199219 C 123.570312 159.238281 123.578125 159.28125 123.597656 159.316406 C 123.628906 159.359375 123.679688 159.386719 123.730469 159.390625 C 123.839844 159.402344 123.949219 159.402344 124.058594 159.390625 C 124.261719 159.359375 124.460938 159.324219 124.65625 159.273438 L 124.769531 159.636719 C 124.582031 159.679688 124.398438 159.730469 124.214844 159.792969 C 124.105469 159.828125 123.996094 159.878906 123.898438 159.945312 C 123.835938 159.980469 123.785156 160.035156 123.75 160.101562 C 123.726562 160.15625 123.71875 160.214844 123.726562 160.273438 C 123.734375 160.394531 123.816406 160.5 123.933594 160.539062 C 124.117188 160.589844 124.316406 160.589844 124.5 160.539062 C 124.671875 160.5 124.835938 160.433594 124.980469 160.335938 C 125.078125 160.273438 125.148438 160.175781 125.183594 160.066406 C 125.210938 159.980469 125.273438 159.90625 125.355469 159.863281 C 125.480469 159.808594 125.613281 159.769531 125.75 159.757812 Z M 126.429688 159.613281 "/>
<path style=" stroke:none;fill-rule:nonzero;fill:rgb(29.019165%,29.019165%,29.019165%);fill-opacity:1;" d="M 135.429688 183.398438 C 133.941406 182.34375 131.730469 181.941406 129.453125 182.476562 C 127.175781 183.015625 125.363281 184.375 124.480469 185.992188 C 128.324219 186.699219 132.28125 185.761719 135.429688 183.398438 Z M 135.429688 183.398438 "/>
<path style=" stroke:none;fill-rule:nonzero;fill:rgb(76.469421%,5.097961%,13.725281%);fill-opacity:1;" d="M 128.5 184.953125 C 128.449219 184.800781 128.449219 184.636719 128.5 184.488281 C 128.578125 184.316406 128.695312 184.164062 128.839844 184.039062 C 129.03125 183.878906 129.246094 183.746094 129.472656 183.644531 C 129.757812 183.519531 130.050781 183.425781 130.351562 183.355469 C 130.65625 183.28125 130.972656 183.242188 131.289062 183.234375 C 131.511719 183.230469 131.738281 183.257812 131.957031 183.324219 C 132.109375 183.363281 132.246094 183.449219 132.351562 183.570312 C 132.421875 183.664062 132.453125 183.785156 132.441406 183.902344 C 132.429688 184.003906 132.398438 184.105469 132.355469 184.195312 C 132.308594 184.28125 132.25 184.355469 132.175781 184.421875 C 132.09375 184.492188 132.003906 184.558594 131.910156 184.613281 C 131.796875 184.671875 131.683594 184.726562 131.566406 184.773438 C 132.152344 184.738281 132.421875 184.863281 132.390625 185.128906 C 132.367188 185.253906 132.308594 185.367188 132.21875 185.453125 C 132.117188 185.558594 131.996094 185.648438 131.867188 185.71875 C 131.710938 185.800781 131.546875 185.875 131.382812 185.929688 C 131.199219 185.996094 131.011719 186.050781 130.824219 186.09375 C 130.644531 186.136719 130.460938 186.171875 130.277344 186.195312 C 130.125 186.214844 129.972656 186.222656 129.820312 186.222656 C 129.546875 186.214844 129.277344 186.144531 129.03125 186.015625 L 129.425781 185.839844 C 129.527344 185.792969 129.636719 185.761719 129.75 185.75 C 129.828125 185.730469 129.914062 185.730469 129.992188 185.75 C 130.109375 185.796875 130.230469 185.828125 130.355469 185.832031 C 130.488281 185.839844 130.621094 185.828125 130.75 185.792969 C 130.84375 185.773438 130.933594 185.746094 131.023438 185.707031 C 131.089844 185.679688 131.15625 185.644531 131.214844 185.601562 C 131.261719 185.570312 131.300781 185.53125 131.335938 185.488281 C 131.355469 185.453125 131.367188 185.414062 131.367188 185.375 C 131.363281 185.335938 131.351562 185.292969 131.335938 185.253906 C 131.335938 185.21875 131.273438 185.199219 131.199219 185.183594 C 131.09375 185.167969 130.984375 185.167969 130.875 185.183594 C 130.726562 185.183594 130.53125 185.238281 130.277344 185.296875 L 130.164062 184.9375 C 130.351562 184.894531 130.535156 184.839844 130.714844 184.777344 C 130.828125 184.742188 130.9375 184.691406 131.035156 184.628906 C 131.097656 184.589844 131.148438 184.535156 131.179688 184.472656 C 131.199219 184.417969 131.207031 184.359375 131.203125 184.296875 C 131.195312 184.175781 131.117188 184.074219 131 184.035156 C 130.816406 183.984375 130.617188 183.984375 130.433594 184.035156 C 130.261719 184.070312 130.097656 184.140625 129.953125 184.242188 C 129.855469 184.304688 129.78125 184.398438 129.746094 184.507812 C 129.71875 184.597656 129.660156 184.667969 129.578125 184.710938 C 129.457031 184.769531 129.324219 184.808594 129.1875 184.816406 Z M 128.5 184.953125 "/>
<path style=" stroke:none;fill-rule:nonzero;fill:rgb(29.019165%,29.019165%,29.019165%);fill-opacity:1;" d="M 116.355469 180.25 C 117.410156 178.761719 117.8125 176.550781 117.273438 174.269531 C 116.734375 171.988281 115.378906 170.179688 113.761719 169.296875 C 113.050781 173.140625 113.984375 177.105469 116.355469 180.25 Z M 116.355469 180.25 "/>
<path style=" stroke:none;fill-rule:nonzero;fill:rgb(76.469421%,5.097961%,13.725281%);fill-opacity:1;" d="M 113.804688 173.3125 C 113.953125 173.265625 114.117188 173.273438 114.261719 173.332031 C 114.4375 173.40625 114.59375 173.519531 114.714844 173.664062 C 114.878906 173.855469 115.011719 174.070312 115.109375 174.300781 C 115.234375 174.582031 115.332031 174.875 115.398438 175.175781 C 115.472656 175.480469 115.515625 175.792969 115.519531 176.105469 C 115.527344 176.332031 115.496094 176.558594 115.429688 176.777344 C 115.390625 176.929688 115.304688 177.066406 115.1875 177.167969 C 115.09375 177.242188 114.972656 177.273438 114.851562 177.257812 C 114.75 177.25 114.652344 177.21875 114.558594 177.171875 C 114.472656 177.128906 114.398438 177.066406 114.335938 176.996094 C 114.257812 176.917969 114.195312 176.828125 114.144531 176.734375 C 114.082031 176.621094 114.027344 176.507812 113.980469 176.390625 C 114.015625 176.976562 113.890625 177.242188 113.625 177.207031 C 113.5 177.191406 113.386719 177.128906 113.304688 177.039062 C 113.195312 176.9375 113.105469 176.816406 113.039062 176.6875 C 112.953125 176.53125 112.882812 176.371094 112.824219 176.207031 C 112.757812 176.023438 112.703125 175.835938 112.660156 175.644531 C 112.617188 175.46875 112.582031 175.285156 112.558594 175.105469 C 112.539062 174.953125 112.53125 174.800781 112.535156 174.648438 C 112.539062 174.515625 112.558594 174.386719 112.589844 174.257812 C 112.625 174.121094 112.675781 173.988281 112.742188 173.863281 L 112.914062 174.257812 C 112.960938 174.359375 112.992188 174.46875 113.007812 174.582031 C 113.023438 174.660156 113.023438 174.742188 113.007812 174.820312 C 112.957031 174.9375 112.929688 175.0625 112.917969 175.1875 C 112.914062 175.320312 112.929688 175.449219 112.957031 175.578125 C 112.980469 175.675781 113.011719 175.769531 113.050781 175.859375 C 113.078125 175.925781 113.113281 175.988281 113.152344 176.050781 C 113.183594 176.09375 113.222656 176.132812 113.269531 176.164062 C 113.300781 176.1875 113.339844 176.199219 113.378906 176.199219 C 113.421875 176.195312 113.464844 176.183594 113.5 176.164062 C 113.535156 176.164062 113.558594 176.101562 113.574219 176.03125 C 113.585938 175.921875 113.585938 175.816406 113.574219 175.707031 C 113.554688 175.5625 113.519531 175.363281 113.457031 175.113281 L 113.820312 175 C 113.875 175.230469 113.925781 175.414062 113.972656 175.550781 C 114.011719 175.664062 114.0625 175.769531 114.128906 175.871094 C 114.164062 175.933594 114.21875 175.980469 114.28125 176.011719 C 114.335938 176.035156 114.398438 176.042969 114.457031 176.039062 C 114.578125 176.027344 114.683594 175.945312 114.71875 175.832031 C 114.769531 175.648438 114.769531 175.453125 114.71875 175.269531 C 114.683594 175.097656 114.613281 174.933594 114.511719 174.789062 C 114.449219 174.691406 114.355469 174.621094 114.246094 174.582031 C 114.160156 174.554688 114.089844 174.496094 114.039062 174.417969 C 113.984375 174.292969 113.949219 174.160156 113.9375 174.027344 Z M 113.804688 173.3125 "/>
<path style=" stroke:none;fill-rule:nonzero;fill:rgb(29.019165%,29.019165%,29.019165%);fill-opacity:1;" d="M 137.585938 163.324219 C 136.53125 164.8125 136.125 167.023438 136.664062 169.300781 C 137.207031 171.578125 138.5625 173.390625 140.171875 174.277344 C 140.886719 170.433594 139.949219 166.476562 137.585938 163.328125 Z M 137.585938 163.324219 "/>
<path style=" stroke:none;fill-rule:nonzero;fill:rgb(76.469421%,5.097961%,13.725281%);fill-opacity:1;" d="M 140.132812 171.25 C 139.984375 171.304688 139.820312 171.304688 139.671875 171.25 C 139.5 171.171875 139.34375 171.058594 139.226562 170.910156 C 139.058594 170.71875 138.925781 170.503906 138.828125 170.273438 C 138.703125 169.988281 138.605469 169.695312 138.539062 169.394531 C 138.460938 169.085938 138.421875 168.769531 138.417969 168.453125 C 138.410156 168.226562 138.441406 168 138.507812 167.78125 C 138.546875 167.632812 138.632812 167.503906 138.75 167.40625 C 138.84375 167.332031 138.964844 167.296875 139.085938 167.3125 C 139.1875 167.324219 139.285156 167.351562 139.375 167.398438 C 139.460938 167.445312 139.539062 167.507812 139.605469 167.578125 C 139.679688 167.660156 139.742188 167.746094 139.792969 167.839844 C 139.855469 167.953125 139.910156 168.066406 139.953125 168.1875 C 139.921875 167.597656 140.050781 167.332031 140.3125 167.363281 C 140.433594 167.378906 140.550781 167.441406 140.636719 167.53125 C 140.738281 167.636719 140.828125 167.757812 140.898438 167.886719 C 140.980469 168.042969 141.054688 168.207031 141.109375 168.375 C 141.179688 168.558594 141.234375 168.746094 141.277344 168.933594 C 141.320312 169.117188 141.355469 169.300781 141.375 169.484375 C 141.398438 169.636719 141.40625 169.789062 141.398438 169.941406 C 141.394531 170.074219 141.375 170.207031 141.34375 170.335938 C 141.308594 170.472656 141.257812 170.605469 141.199219 170.730469 L 141.019531 170.335938 C 140.976562 170.234375 140.945312 170.125 140.929688 170.011719 C 140.90625 169.933594 140.90625 169.847656 140.929688 169.769531 C 140.972656 169.652344 141.003906 169.527344 141.011719 169.40625 C 141.019531 169.273438 141.003906 169.140625 140.972656 169.007812 C 140.949219 168.914062 140.921875 168.824219 140.886719 168.734375 C 140.855469 168.664062 140.820312 168.601562 140.777344 168.539062 C 140.746094 168.492188 140.707031 168.453125 140.664062 168.421875 C 140.628906 168.398438 140.589844 168.386719 140.550781 168.390625 C 140.511719 168.394531 140.472656 168.40625 140.433594 168.421875 C 140.390625 168.453125 140.363281 168.503906 140.363281 168.558594 C 140.347656 168.667969 140.347656 168.777344 140.363281 168.882812 C 140.390625 169.085938 140.425781 169.285156 140.476562 169.484375 L 140.113281 169.59375 C 140.074219 169.40625 140.019531 169.222656 139.957031 169.042969 C 139.917969 168.929688 139.867188 168.824219 139.808594 168.722656 C 139.769531 168.660156 139.714844 168.609375 139.648438 168.574219 C 139.59375 168.554688 139.535156 168.546875 139.480469 168.550781 C 139.355469 168.558594 139.25 168.644531 139.214844 168.761719 C 139.160156 168.945312 139.160156 169.140625 139.214844 169.324219 C 139.246094 169.5 139.316406 169.660156 139.414062 169.808594 C 139.476562 169.90625 139.570312 169.980469 139.679688 170.015625 C 139.769531 170.042969 139.84375 170.101562 139.886719 170.183594 C 139.941406 170.308594 139.980469 170.441406 139.992188 170.578125 Z M 140.132812 171.25 "/>
<path style=" stroke:none;fill-rule:nonzero;fill:rgb(76.469421%,5.097961%,13.725281%);fill-opacity:1;" d="M 169.5 171.292969 C 167.6875 176.417969 162.964844 179.945312 157.539062 180.230469 C 152.109375 180.515625 147.046875 177.503906 144.703125 172.597656 C 142.363281 167.691406 143.207031 161.859375 146.84375 157.820312 C 150.480469 153.78125 156.191406 152.328125 161.316406 154.140625 C 168.308594 156.621094 171.972656 164.296875 169.5 171.292969 Z M 169.5 171.292969 "/>
<path style=" stroke:none;fill-rule:nonzero;fill:rgb(29.019165%,29.019165%,29.019165%);fill-opacity:1;" d="M 162.9375 168.953125 C 162.070312 171.425781 159.796875 173.128906 157.183594 173.269531 C 154.570312 173.414062 152.125 171.964844 150.996094 169.601562 C 149.867188 167.238281 150.269531 164.429688 152.023438 162.480469 C 153.773438 160.535156 156.527344 159.835938 158.996094 160.710938 C 162.355469 161.90625 164.117188 165.589844 162.9375 168.953125 Z M 162.9375 168.953125 "/>
<path style=" stroke:none;fill-rule:nonzero;fill:rgb(29.019165%,29.019165%,29.019165%);fill-opacity:1;" d="M 170.246094 165.316406 C 168.769531 166.039062 167.429688 167.742188 166.742188 170.027344 C 166.050781 172.3125 166.179688 174.621094 166.933594 176.265625 C 169.273438 173.304688 170.472656 169.34375 170.246094 165.316406 Z M 170.246094 165.316406 "/>
<path style=" stroke:none;fill-rule:evenodd;fill:rgb(76.469421%,5.097961%,13.725281%);fill-opacity:1;" d="M 171.886719 169.902344 C 171.703125 169.683594 171.46875 169.519531 171.203125 169.421875 C 170.945312 169.316406 170.667969 169.277344 170.390625 169.308594 C 170.125 169.34375 169.871094 169.445312 169.652344 169.605469 C 169.414062 169.777344 169.207031 169.992188 169.046875 170.238281 C 168.855469 170.519531 168.699219 170.824219 168.578125 171.144531 C 168.453125 171.460938 168.363281 171.789062 168.3125 172.125 C 168.265625 172.414062 168.269531 172.710938 168.332031 172.996094 C 168.382812 173.253906 168.5 173.496094 168.667969 173.699219 C 169.230469 174.335938 170.171875 174.460938 170.882812 173.996094 C 171.117188 173.824219 171.320312 173.613281 171.484375 173.371094 C 171.863281 172.804688 172.113281 172.160156 172.222656 171.484375 C 172.277344 171.191406 172.277344 170.894531 172.222656 170.601562 C 172.167969 170.34375 172.054688 170.105469 171.886719 169.902344 Z M 170.0625 170.691406 C 170.265625 170.703125 170.46875 170.75 170.65625 170.828125 L 170.667969 170.828125 C 170.859375 170.902344 171.035156 171.007812 171.1875 171.144531 C 171.304688 171.242188 171.394531 171.371094 171.449219 171.511719 C 171.492188 171.628906 171.511719 171.757812 171.5 171.882812 C 171.472656 172.140625 171.375 172.386719 171.222656 172.59375 C 171.148438 172.695312 171.046875 172.777344 170.929688 172.832031 C 170.796875 172.890625 170.648438 172.921875 170.503906 172.914062 C 170.296875 172.902344 170.09375 172.855469 169.902344 172.773438 C 169.710938 172.707031 169.53125 172.605469 169.371094 172.472656 C 169.257812 172.375 169.167969 172.246094 169.109375 172.105469 C 169.066406 171.988281 169.046875 171.859375 169.058594 171.734375 C 169.074219 171.609375 169.105469 171.484375 169.152344 171.363281 C 169.199219 171.246094 169.257812 171.132812 169.335938 171.027344 C 169.414062 170.925781 169.515625 170.839844 169.628906 170.78125 C 169.765625 170.71875 169.914062 170.6875 170.0625 170.691406 Z M 170.0625 170.691406 "/>
<path style=" stroke:none;fill-rule:nonzero;fill:rgb(29.019165%,29.019165%,29.019165%);fill-opacity:1;" d="M 143.421875 167.308594 C 144.894531 166.582031 146.234375 164.878906 146.925781 162.601562 C 147.613281 160.320312 147.488281 158.003906 146.726562 156.359375 C 144.386719 159.316406 143.191406 163.28125 143.421875 167.308594 Z M 143.421875 167.308594 "/>
<path style=" stroke:none;fill-rule:evenodd;fill:rgb(76.469421%,5.097961%,13.725281%);fill-opacity:1;" d="M 146.300781 160.550781 C 146.234375 160.300781 146.105469 160.066406 145.925781 159.875 C 145.726562 159.671875 145.480469 159.519531 145.203125 159.4375 C 144.933594 159.34375 144.644531 159.320312 144.359375 159.367188 C 144.097656 159.421875 143.851562 159.535156 143.640625 159.699219 C 143.40625 159.878906 143.210938 160.101562 143.058594 160.355469 C 142.878906 160.644531 142.738281 160.957031 142.628906 161.277344 C 142.519531 161.597656 142.445312 161.925781 142.410156 162.261719 C 142.382812 162.550781 142.40625 162.84375 142.476562 163.125 C 142.546875 163.375 142.675781 163.609375 142.855469 163.800781 C 143.269531 164.195312 143.847656 164.378906 144.421875 164.304688 C 144.683594 164.253906 144.929688 164.144531 145.140625 163.980469 C 145.371094 163.796875 145.566406 163.578125 145.722656 163.328125 C 145.898438 163.039062 146.039062 162.730469 146.144531 162.410156 C 146.257812 162.089844 146.332031 161.757812 146.363281 161.421875 C 146.398438 161.128906 146.375 160.835938 146.300781 160.550781 Z M 143.671875 160.863281 C 143.804688 160.792969 143.953125 160.753906 144.105469 160.753906 L 144.105469 160.773438 C 144.523438 160.78125 144.933594 160.910156 145.28125 161.136719 C 145.398438 161.230469 145.496094 161.347656 145.5625 161.480469 C 145.613281 161.59375 145.636719 161.71875 145.628906 161.84375 C 145.621094 161.96875 145.597656 162.09375 145.558594 162.210938 C 145.519531 162.332031 145.460938 162.445312 145.390625 162.554688 C 145.316406 162.660156 145.21875 162.75 145.101562 162.808594 C 144.96875 162.875 144.824219 162.910156 144.671875 162.910156 C 144.464844 162.910156 144.257812 162.875 144.058594 162.804688 C 143.859375 162.746094 143.667969 162.65625 143.5 162.535156 C 143.378906 162.445312 143.28125 162.332031 143.214844 162.199219 C 143.160156 162.085938 143.132812 161.960938 143.140625 161.835938 C 143.148438 161.710938 143.171875 161.585938 143.210938 161.46875 C 143.253906 161.347656 143.308594 161.230469 143.382812 161.125 C 143.457031 161.015625 143.554688 160.925781 143.671875 160.863281 Z M 143.671875 160.863281 "/>
<path style=" stroke:none;fill-rule:nonzero;fill:rgb(29.019165%,29.019165%,29.019165%);fill-opacity:1;" d="M 156.335938 152.402344 C 157.058594 153.875 158.761719 155.21875 161.042969 155.90625 C 163.320312 156.597656 165.636719 156.46875 167.285156 155.710938 C 164.324219 153.367188 160.363281 152.171875 156.335938 152.402344 Z M 156.335938 152.402344 "/>
<path style=" stroke:none;fill-rule:evenodd;fill:rgb(76.469421%,5.097961%,13.725281%);fill-opacity:1;" d="M 161.273438 151.460938 C 161.070312 151.527344 160.882812 151.65625 160.726562 151.839844 L 160.726562 151.828125 C 160.238281 152.4375 160.179688 153.417969 160.585938 154.117188 C 160.734375 154.351562 160.914062 154.550781 161.117188 154.703125 C 161.347656 154.882812 161.597656 155.027344 161.855469 155.132812 C 162.113281 155.246094 162.378906 155.316406 162.648438 155.347656 C 162.878906 155.378906 163.109375 155.355469 163.335938 155.285156 C 163.765625 155.144531 164.101562 154.722656 164.222656 154.175781 C 164.296875 153.90625 164.316406 153.613281 164.28125 153.332031 C 164.238281 153.066406 164.152344 152.820312 164.019531 152.613281 C 163.875 152.378906 163.699219 152.183594 163.5 152.03125 C 163.265625 151.855469 163.019531 151.71875 162.761719 151.617188 C 162.503906 151.503906 162.238281 151.429688 161.96875 151.394531 C 161.734375 151.363281 161.5 151.382812 161.273438 151.460938 Z M 161.523438 154.097656 C 161.46875 153.964844 161.4375 153.8125 161.433594 153.660156 L 161.421875 153.660156 C 161.425781 153.457031 161.460938 153.253906 161.519531 153.0625 C 161.566406 152.859375 161.640625 152.671875 161.738281 152.503906 C 161.808594 152.382812 161.902344 152.285156 162.011719 152.21875 C 162.105469 152.167969 162.207031 152.140625 162.308594 152.148438 C 162.414062 152.15625 162.515625 152.179688 162.613281 152.21875 C 162.707031 152.261719 162.800781 152.320312 162.886719 152.394531 C 162.96875 152.464844 163.039062 152.5625 163.085938 152.679688 C 163.136719 152.804688 163.164062 152.949219 163.167969 153.089844 C 163.167969 153.300781 163.140625 153.507812 163.085938 153.707031 C 163.039062 153.90625 162.964844 154.097656 162.867188 154.269531 C 162.796875 154.386719 162.707031 154.484375 162.601562 154.550781 C 162.511719 154.609375 162.410156 154.636719 162.304688 154.628906 C 162.203125 154.621094 162.105469 154.597656 162.007812 154.558594 C 161.910156 154.515625 161.816406 154.457031 161.730469 154.382812 C 161.644531 154.3125 161.574219 154.214844 161.523438 154.097656 Z M 161.523438 154.097656 "/>
<path style=" stroke:none;fill-rule:nonzero;fill:rgb(29.019165%,29.019165%,29.019165%);fill-opacity:1;" d="M 158.324219 180.21875 C 157.601562 178.753906 155.898438 177.394531 153.617188 176.714844 C 151.339844 176.035156 149.023438 176.152344 147.375 176.910156 C 150.335938 179.253906 154.296875 180.453125 158.324219 180.222656 Z M 158.324219 180.21875 "/>
<path style=" stroke:none;fill-rule:evenodd;fill:rgb(76.469421%,5.097961%,13.725281%);fill-opacity:1;" d="M 150.570312 177.339844 C 150.320312 177.40625 150.085938 177.535156 149.894531 177.71875 C 149.691406 177.914062 149.539062 178.164062 149.457031 178.4375 C 149.363281 178.707031 149.34375 179 149.390625 179.28125 C 149.441406 179.542969 149.554688 179.792969 149.71875 180 C 149.902344 180.234375 150.125 180.429688 150.378906 180.585938 C 150.667969 180.765625 150.976562 180.910156 151.296875 181.015625 C 151.617188 181.125 151.949219 181.199219 152.285156 181.234375 C 152.574219 181.261719 152.863281 181.238281 153.144531 181.164062 C 153.398438 181.097656 153.628906 180.96875 153.824219 180.789062 C 154.222656 180.375 154.40625 179.796875 154.324219 179.21875 C 154.273438 178.957031 154.164062 178.710938 154 178.5 C 153.816406 178.269531 153.597656 178.074219 153.351562 177.921875 C 153.058594 177.742188 152.75 177.601562 152.429688 177.496094 C 152.109375 177.382812 151.777344 177.308594 151.441406 177.277344 C 151.148438 177.246094 150.855469 177.265625 150.570312 177.339844 Z M 150.882812 179.96875 C 150.816406 179.835938 150.78125 179.6875 150.777344 179.535156 C 150.769531 179.328125 150.800781 179.121094 150.867188 178.921875 C 150.921875 178.722656 151.015625 178.53125 151.136719 178.363281 C 151.226562 178.242188 151.34375 178.144531 151.476562 178.082031 C 151.59375 178.027344 151.71875 178.003906 151.84375 178.011719 C 152.105469 178.023438 152.359375 178.105469 152.578125 178.253906 C 152.683594 178.324219 152.769531 178.421875 152.828125 178.539062 C 152.894531 178.671875 152.929688 178.820312 152.933594 178.96875 C 152.929688 179.175781 152.894531 179.386719 152.824219 179.582031 C 152.769531 179.785156 152.675781 179.972656 152.554688 180.144531 C 152.464844 180.261719 152.351562 180.359375 152.222656 180.425781 C 152.109375 180.484375 151.980469 180.511719 151.855469 180.5 C 151.730469 180.492188 151.605469 180.46875 151.488281 180.429688 C 151.367188 180.386719 151.25 180.332031 151.144531 180.261719 C 151.035156 180.183594 150.949219 180.085938 150.882812 179.96875 Z M 150.882812 179.96875 "/>
<path style=" stroke:none;fill-rule:evenodd;fill:rgb(76.469421%,5.097961%,13.725281%);fill-opacity:1;" d="M 159.285156 168.148438 C 159.5625 167.722656 159.785156 167.253906 159.949219 166.753906 C 160.128906 166.261719 160.246094 165.742188 160.300781 165.210938 C 160.339844 164.796875 160.308594 164.378906 160.210938 163.980469 C 160.121094 163.640625 159.960938 163.332031 159.742188 163.078125 C 159.519531 162.828125 159.253906 162.632812 158.964844 162.507812 C 158.675781 162.375 158.363281 162.316406 158.050781 162.332031 C 157.738281 162.351562 157.4375 162.460938 157.171875 162.644531 C 156.859375 162.863281 156.589844 163.144531 156.375 163.480469 C 155.828125 164.351562 155.476562 165.359375 155.355469 166.417969 C 155.316406 166.832031 155.347656 167.25 155.441406 167.648438 C 155.53125 167.988281 155.6875 168.296875 155.902344 168.550781 C 156.121094 168.804688 156.386719 169 156.679688 169.125 C 156.96875 169.253906 157.28125 169.3125 157.59375 169.296875 C 157.910156 169.273438 158.214844 169.167969 158.484375 168.984375 C 158.792969 168.765625 159.066406 168.484375 159.285156 168.148438 Z M 158.996094 165.074219 C 158.925781 165.460938 158.824219 165.835938 158.691406 166.199219 C 158.570312 166.566406 158.417969 166.921875 158.238281 167.257812 C 158.121094 167.476562 157.976562 167.675781 157.804688 167.84375 C 157.695312 167.957031 157.558594 168.03125 157.410156 168.054688 C 157.167969 168.089844 156.929688 167.988281 156.773438 167.777344 C 156.679688 167.644531 156.625 167.488281 156.613281 167.320312 C 156.59375 167.066406 156.605469 166.816406 156.652344 166.570312 C 156.726562 166.183594 156.828125 165.808594 156.960938 165.445312 C 157.082031 165.074219 157.230469 164.71875 157.410156 164.378906 C 157.527344 164.160156 157.671875 163.960938 157.839844 163.789062 C 157.949219 163.675781 158.085938 163.601562 158.230469 163.578125 C 158.425781 163.546875 158.625 163.609375 158.777344 163.753906 C 158.929688 163.894531 159.019531 164.101562 159.03125 164.324219 C 159.054688 164.574219 159.042969 164.828125 158.996094 165.074219 Z M 158.996094 165.074219 "/>
<path style=" stroke:none;fill-rule:nonzero;fill:rgb(76.469421%,5.097961%,13.725281%);fill-opacity:1;" d="M 111.761719 165.320312 C 109.949219 170.445312 105.230469 173.972656 99.800781 174.257812 C 94.375 174.542969 89.308594 171.53125 86.964844 166.625 C 84.625 161.71875 85.46875 155.886719 89.105469 151.847656 C 92.742188 147.808594 98.453125 146.355469 103.578125 148.167969 C 110.570312 150.648438 114.234375 158.324219 111.761719 165.320312 Z M 111.761719 165.320312 "/>
<path style=" stroke:none;fill-rule:nonzero;fill:rgb(29.019165%,29.019165%,29.019165%);fill-opacity:1;" d="M 105.195312 163 C 104 166.367188 100.304688 168.128906 96.9375 166.933594 C 93.570312 165.742188 91.804688 162.046875 92.996094 158.679688 C 94.1875 155.3125 97.882812 153.546875 101.253906 154.738281 C 102.871094 155.308594 104.195312 156.503906 104.933594 158.050781 C 105.675781 159.601562 105.765625 161.382812 105.195312 163 Z M 105.195312 163 "/>
<path style=" stroke:none;fill-rule:nonzero;fill:rgb(29.019165%,29.019165%,29.019165%);fill-opacity:1;" d="M 113.5 159.34375 C 112.027344 160.0625 110.6875 161.769531 110 164.050781 C 109.308594 166.332031 109.4375 168.648438 110.195312 170.292969 C 112.535156 167.332031 113.730469 163.371094 113.5 159.34375 Z M 113.5 159.34375 "/>
<path style=" stroke:none;fill-rule:evenodd;fill:rgb(76.469421%,5.097961%,13.725281%);fill-opacity:1;" d="M 113.480469 164.628906 C 113.378906 164.082031 112.992188 163.636719 112.46875 163.453125 L 112.464844 163.453125 C 111.953125 163.234375 111.363281 163.300781 110.917969 163.628906 C 110.679688 163.804688 110.476562 164.019531 110.3125 164.261719 C 110.121094 164.546875 109.964844 164.847656 109.84375 165.164062 C 109.71875 165.480469 109.628906 165.804688 109.578125 166.140625 C 109.53125 166.429688 109.539062 166.722656 109.597656 167.007812 C 109.648438 167.265625 109.765625 167.503906 109.933594 167.703125 C 110.117188 167.917969 110.351562 168.078125 110.613281 168.175781 C 111.125 168.394531 111.707031 168.328125 112.15625 168.007812 C 112.394531 167.835938 112.597656 167.621094 112.761719 167.382812 C 113.140625 166.816406 113.394531 166.171875 113.5 165.5 C 113.542969 165.210938 113.539062 164.914062 113.480469 164.628906 Z M 111.324219 164.714844 C 111.527344 164.726562 111.730469 164.773438 111.917969 164.851562 C 112.109375 164.917969 112.292969 165.019531 112.449219 165.152344 C 112.5625 165.25 112.652344 165.375 112.707031 165.519531 C 112.753906 165.636719 112.769531 165.761719 112.757812 165.886719 C 112.746094 166.011719 112.714844 166.136719 112.667969 166.253906 C 112.621094 166.375 112.558594 166.488281 112.480469 166.589844 C 112.40625 166.691406 112.304688 166.773438 112.191406 166.828125 C 112.054688 166.886719 111.910156 166.914062 111.761719 166.90625 C 111.558594 166.894531 111.355469 166.851562 111.164062 166.769531 C 110.972656 166.699219 110.792969 166.597656 110.632812 166.46875 C 110.523438 166.375 110.433594 166.253906 110.375 166.121094 C 110.328125 166.003906 110.308594 165.878906 110.324219 165.753906 C 110.335938 165.628906 110.367188 165.503906 110.410156 165.386719 C 110.460938 165.265625 110.523438 165.152344 110.601562 165.046875 C 110.675781 164.945312 110.777344 164.859375 110.890625 164.804688 C 111.027344 164.742188 111.175781 164.710938 111.324219 164.714844 Z M 111.324219 164.714844 "/>
<path style=" stroke:none;fill-rule:nonzero;fill:rgb(29.019165%,29.019165%,29.019165%);fill-opacity:1;" d="M 85.683594 162.332031 C 87.160156 161.609375 88.496094 159.902344 89.1875 157.625 C 89.875 155.34375 89.75 153.027344 88.992188 151.378906 C 86.652344 154.34375 85.457031 158.300781 85.683594 162.332031 Z M 85.683594 162.332031 "/>
<path style=" stroke:none;fill-rule:evenodd;fill:rgb(76.469421%,5.097961%,13.725281%);fill-opacity:1;" d="M 88.566406 155.5625 C 88.5 155.308594 88.371094 155.074219 88.1875 154.878906 C 87.578125 154.269531 86.601562 154.195312 85.902344 154.703125 C 85.671875 154.890625 85.472656 155.113281 85.320312 155.363281 C 85.140625 155.65625 84.996094 155.96875 84.890625 156.292969 C 84.777344 156.609375 84.707031 156.941406 84.675781 157.28125 C 84.640625 157.570312 84.664062 157.863281 84.742188 158.144531 C 84.808594 158.394531 84.9375 158.628906 85.117188 158.820312 C 85.527344 159.222656 86.109375 159.410156 86.683594 159.324219 C 86.945312 159.277344 87.191406 159.164062 87.402344 159 C 87.632812 158.816406 87.828125 158.597656 87.980469 158.347656 C 88.160156 158.054688 88.304688 157.746094 88.410156 157.421875 C 88.523438 157.101562 88.59375 156.769531 88.628906 156.429688 C 88.660156 156.140625 88.636719 155.847656 88.566406 155.5625 Z M 85.9375 155.875 C 86.070312 155.804688 86.21875 155.769531 86.371094 155.765625 C 86.582031 155.765625 86.789062 155.804688 86.988281 155.875 C 87.1875 155.933594 87.375 156.027344 87.542969 156.152344 C 87.664062 156.242188 87.761719 156.355469 87.828125 156.488281 C 87.878906 156.605469 87.90625 156.730469 87.898438 156.859375 C 87.890625 156.984375 87.863281 157.105469 87.824219 157.226562 C 87.78125 157.347656 87.722656 157.460938 87.652344 157.566406 C 87.582031 157.671875 87.484375 157.761719 87.371094 157.820312 C 87.238281 157.886719 87.089844 157.921875 86.9375 157.921875 C 86.726562 157.925781 86.519531 157.886719 86.324219 157.816406 C 86.121094 157.761719 85.933594 157.667969 85.765625 157.546875 C 85.644531 157.457031 85.546875 157.34375 85.480469 157.214844 C 85.425781 157.097656 85.398438 156.972656 85.40625 156.847656 C 85.414062 156.722656 85.4375 156.597656 85.480469 156.480469 C 85.519531 156.359375 85.578125 156.242188 85.648438 156.136719 C 85.71875 156.027344 85.820312 155.9375 85.9375 155.875 Z M 85.9375 155.875 "/>
<path style=" stroke:none;fill-rule:nonzero;fill:rgb(29.019165%,29.019165%,29.019165%);fill-opacity:1;" d="M 98.597656 147.425781 C 99.316406 148.898438 101.019531 150.238281 103.300781 150.929688 C 105.582031 151.617188 107.898438 151.492188 109.546875 150.730469 C 106.585938 148.390625 102.625 147.195312 98.597656 147.425781 Z M 98.597656 147.425781 "/>
<path style=" stroke:none;fill-rule:evenodd;fill:rgb(76.469421%,5.097961%,13.725281%);fill-opacity:1;" d="M 103.535156 146.484375 C 103.332031 146.550781 103.144531 146.679688 102.988281 146.859375 C 102.828125 147.0625 102.714844 147.3125 102.65625 147.589844 C 102.503906 148.125 102.582031 148.722656 102.863281 149.160156 C 103.007812 149.386719 103.179688 149.578125 103.375 149.722656 C 103.84375 150.078125 104.367188 150.300781 104.90625 150.375 C 105.136719 150.402344 105.371094 150.378906 105.597656 150.304688 C 105.800781 150.234375 105.984375 150.105469 106.136719 149.921875 C 106.300781 149.722656 106.417969 149.472656 106.484375 149.199219 C 106.636719 148.667969 106.558594 148.074219 106.28125 147.632812 C 106.136719 147.398438 105.957031 147.203125 105.757812 147.050781 C 105.527344 146.875 105.28125 146.738281 105.023438 146.636719 C 104.765625 146.523438 104.5 146.449219 104.226562 146.417969 C 103.996094 146.386719 103.761719 146.40625 103.535156 146.484375 Z M 103.785156 149.097656 C 103.730469 148.972656 103.699219 148.832031 103.695312 148.6875 C 103.691406 148.46875 103.71875 148.25 103.777344 148.046875 C 103.824219 147.84375 103.898438 147.65625 103.996094 147.488281 C 104.070312 147.367188 104.164062 147.269531 104.269531 147.203125 C 104.363281 147.148438 104.464844 147.125 104.570312 147.132812 C 104.671875 147.140625 104.773438 147.164062 104.871094 147.207031 C 104.96875 147.25 105.058594 147.304688 105.144531 147.375 C 105.230469 147.449219 105.300781 147.546875 105.347656 147.660156 C 105.398438 147.796875 105.429688 147.945312 105.429688 148.09375 C 105.429688 148.304688 105.402344 148.515625 105.34375 148.710938 C 105.296875 148.914062 105.226562 149.101562 105.128906 149.273438 C 105.058594 149.390625 104.964844 149.488281 104.863281 149.558594 C 104.769531 149.617188 104.667969 149.640625 104.566406 149.632812 C 104.464844 149.625 104.363281 149.601562 104.265625 149.558594 C 104.167969 149.515625 104.078125 149.460938 103.988281 149.390625 C 103.90625 149.316406 103.832031 149.214844 103.785156 149.097656 Z M 103.785156 149.097656 "/>
<path style=" stroke:none;fill-rule:nonzero;fill:rgb(29.019165%,29.019165%,29.019165%);fill-opacity:1;" d="M 100.589844 174.246094 C 99.867188 172.773438 98.160156 171.433594 95.882812 170.746094 C 93.601562 170.058594 91.285156 170.183594 89.636719 170.941406 C 92.601562 173.28125 96.558594 174.476562 100.589844 174.246094 Z M 100.589844 174.246094 "/>
<path style=" stroke:none;fill-rule:evenodd;fill:rgb(76.469421%,5.097961%,13.725281%);fill-opacity:1;" d="M 92.839844 172.363281 C 92.589844 172.429688 92.355469 172.558594 92.160156 172.738281 L 92.148438 172.742188 C 91.75 173.152344 91.5625 173.734375 91.648438 174.308594 C 91.699219 174.570312 91.8125 174.816406 91.976562 175.027344 C 92.160156 175.257812 92.382812 175.457031 92.632812 175.609375 C 92.921875 175.789062 93.230469 175.933594 93.554688 176.039062 C 93.878906 176.152344 94.214844 176.222656 94.554688 176.253906 C 94.84375 176.285156 95.136719 176.261719 95.414062 176.1875 C 95.945312 176.046875 96.359375 175.625 96.511719 175.085938 C 96.605469 174.816406 96.628906 174.527344 96.582031 174.242188 C 96.535156 173.980469 96.425781 173.734375 96.261719 173.523438 C 96.078125 173.292969 95.859375 173.097656 95.609375 172.945312 C 95.320312 172.765625 95.011719 172.621094 94.691406 172.515625 C 94.371094 172.40625 94.039062 172.332031 93.703125 172.300781 C 93.414062 172.265625 93.121094 172.289062 92.839844 172.363281 Z M 93.152344 174.988281 C 93.082031 174.855469 93.046875 174.707031 93.042969 174.554688 C 93.042969 174.347656 93.078125 174.136719 93.152344 173.941406 C 93.210938 173.738281 93.304688 173.550781 93.425781 173.382812 C 93.515625 173.261719 93.628906 173.167969 93.761719 173.101562 C 93.878906 173.046875 94.003906 173.023438 94.128906 173.027344 C 94.253906 173.039062 94.375 173.0625 94.492188 173.105469 C 94.613281 173.144531 94.726562 173.203125 94.835938 173.273438 C 94.941406 173.34375 95.027344 173.441406 95.085938 173.554688 C 95.152344 173.691406 95.1875 173.839844 95.1875 173.988281 C 95.1875 174.199219 95.152344 174.40625 95.082031 174.601562 C 95.027344 174.804688 94.933594 174.992188 94.8125 175.160156 C 94.726562 175.28125 94.613281 175.378906 94.484375 175.445312 C 94.367188 175.5 94.242188 175.527344 94.117188 175.519531 C 93.992188 175.511719 93.871094 175.484375 93.75 175.449219 C 93.632812 175.40625 93.515625 175.347656 93.410156 175.273438 C 93.300781 175.203125 93.210938 175.105469 93.152344 174.988281 Z M 93.152344 174.988281 "/>
<path style=" stroke:none;fill-rule:evenodd;fill:rgb(76.469421%,5.097961%,13.725281%);fill-opacity:1;" d="M 100.550781 163.175781 C 100.832031 162.746094 101.054688 162.273438 101.214844 161.773438 C 101.394531 161.28125 101.515625 160.765625 101.566406 160.234375 C 101.605469 159.824219 101.578125 159.40625 101.476562 159.011719 C 101.390625 158.667969 101.226562 158.359375 101.007812 158.101562 C 100.558594 157.601562 99.949219 157.332031 99.320312 157.355469 C 99.007812 157.375 98.707031 157.484375 98.441406 157.664062 C 98.128906 157.882812 97.859375 158.167969 97.640625 158.5 C 97.097656 159.375 96.746094 160.382812 96.625 161.445312 C 96.582031 161.855469 96.613281 162.273438 96.714844 162.667969 C 96.796875 163.007812 96.953125 163.320312 97.171875 163.574219 C 97.386719 163.824219 97.652344 164.023438 97.945312 164.144531 C 98.238281 164.277344 98.550781 164.335938 98.863281 164.316406 C 99.175781 164.300781 99.480469 164.195312 99.75 164.011719 C 100.0625 163.792969 100.332031 163.507812 100.550781 163.175781 Z M 100.261719 160.113281 C 100.191406 160.496094 100.089844 160.871094 99.957031 161.234375 C 99.839844 161.605469 99.691406 161.964844 99.519531 162.304688 C 99.402344 162.523438 99.257812 162.722656 99.085938 162.890625 C 98.886719 163.105469 98.59375 163.167969 98.335938 163.054688 C 98.226562 163.003906 98.128906 162.925781 98.050781 162.824219 C 97.960938 162.691406 97.90625 162.53125 97.894531 162.367188 C 97.875 162.117188 97.886719 161.863281 97.9375 161.617188 C 98.007812 161.234375 98.109375 160.855469 98.242188 160.492188 C 98.363281 160.121094 98.515625 159.765625 98.695312 159.425781 C 98.808594 159.207031 98.953125 159.007812 99.121094 158.835938 C 99.230469 158.722656 99.363281 158.648438 99.511719 158.625 C 99.625 158.609375 99.738281 158.628906 99.84375 158.671875 C 99.953125 158.722656 100.050781 158.804688 100.132812 158.90625 C 100.222656 159.035156 100.28125 159.195312 100.292969 159.363281 C 100.316406 159.613281 100.304688 159.863281 100.261719 160.113281 Z M 100.261719 160.113281 "/>
<path style=" stroke:none;fill-rule:nonzero;fill:rgb(76.469421%,5.097961%,13.725281%);fill-opacity:1;" d="M 150.160156 146.074219 C 147.042969 153.109375 138.8125 156.285156 131.777344 153.167969 C 124.742188 150.050781 121.566406 141.820312 124.683594 134.785156 C 127.800781 127.75 136.03125 124.574219 143.066406 127.691406 C 146.449219 129.1875 149.09375 131.964844 150.421875 135.414062 C 151.753906 138.863281 151.660156 142.699219 150.160156 146.074219 Z M 150.160156 146.074219 "/>
<path style=" stroke:none;fill-rule:nonzero;fill:rgb(29.019165%,29.019165%,29.019165%);fill-opacity:1;" d="M 143.832031 142.558594 C 142.382812 145.820312 138.558594 147.292969 135.296875 145.84375 C 132.03125 144.398438 130.558594 140.574219 132.003906 137.308594 C 133.453125 134.046875 137.273438 132.570312 140.539062 134.019531 C 142.109375 134.710938 143.339844 136.003906 143.957031 137.605469 C 144.574219 139.207031 144.527344 140.988281 143.832031 142.558594 Z M 143.832031 142.558594 "/>
<path style=" stroke:none;fill-rule:nonzero;fill:rgb(29.019165%,29.019165%,29.019165%);fill-opacity:1;" d="M 151.359375 140.429688 C 149.671875 140.980469 148.054688 142.457031 147.121094 144.527344 C 146.191406 146.601562 146.164062 148.769531 146.886719 150.382812 C 149.699219 147.816406 151.3125 144.21875 151.34375 140.441406 Z M 151.359375 140.429688 "/>
<path style=" stroke:none;fill-rule:nonzero;fill:rgb(76.469421%,5.097961%,13.725281%);fill-opacity:1;" d="M 148.800781 147.101562 C 148.828125 147.007812 148.863281 146.917969 148.894531 146.835938 C 148.929688 146.75 148.960938 146.667969 149 146.585938 C 149.09375 146.363281 149.210938 146.152344 149.347656 145.953125 C 149.441406 145.816406 149.554688 145.691406 149.6875 145.585938 C 149.769531 145.515625 149.871094 145.472656 149.980469 145.464844 C 150.066406 145.464844 150.148438 145.496094 150.203125 145.558594 C 150.28125 145.644531 150.332031 145.75 150.347656 145.863281 C 150.367188 146.003906 150.367188 146.140625 150.347656 146.28125 C 150.328125 146.449219 150.292969 146.613281 150.246094 146.777344 C 150.1875 146.964844 150.117188 147.152344 150.039062 147.332031 C 149.992188 147.441406 149.941406 147.546875 149.882812 147.648438 C 149.828125 147.75 149.769531 147.847656 149.710938 147.933594 C 149.652344 148.019531 149.597656 148.105469 149.542969 148.183594 C 149.488281 148.257812 149.421875 148.332031 149.367188 148.394531 L 149.328125 148.136719 C 149.324219 148.105469 149.324219 148.074219 149.328125 148.042969 C 149.335938 148.003906 149.351562 147.964844 149.367188 147.925781 C 149.390625 147.875 149.417969 147.824219 149.453125 147.78125 L 149.558594 147.636719 C 149.605469 147.578125 149.644531 147.519531 149.683594 147.457031 C 149.734375 147.371094 149.78125 147.285156 149.820312 147.195312 C 149.863281 147.105469 149.894531 147.007812 149.917969 146.910156 C 149.9375 146.839844 149.949219 146.769531 149.949219 146.695312 C 149.945312 146.640625 149.933594 146.589844 149.910156 146.539062 C 149.890625 146.5 149.855469 146.464844 149.820312 146.4375 C 149.738281 146.390625 149.648438 146.40625 149.554688 146.5 C 149.425781 146.636719 149.324219 146.796875 149.253906 146.96875 C 149.167969 147.160156 149.101562 147.359375 149.054688 147.5625 L 148.71875 148.128906 L 147.375 147.480469 L 148.734375 144.410156 L 148.996094 144.652344 C 149.035156 144.691406 149.0625 144.738281 149.082031 144.792969 C 149.105469 144.851562 149.117188 144.917969 149.113281 144.984375 C 149.109375 145.070312 149.097656 145.15625 149.074219 145.238281 C 149.042969 145.34375 149.003906 145.453125 148.957031 145.554688 L 148.394531 146.816406 Z M 148.800781 147.101562 "/>
<path style=" stroke:none;fill-rule:nonzero;fill:rgb(29.019165%,29.019165%,29.019165%);fill-opacity:1;" d="M 123.484375 140.429688 C 125.171875 139.878906 126.785156 138.402344 127.71875 136.332031 C 128.648438 134.257812 128.679688 132.085938 127.957031 130.476562 C 125.148438 133.046875 123.535156 136.644531 123.5 140.421875 Z M 123.484375 140.429688 "/>
<path style=" stroke:none;fill-rule:nonzero;fill:rgb(76.469421%,5.097961%,13.725281%);fill-opacity:1;" d="M 125.046875 134.757812 C 125.019531 134.847656 124.984375 134.933594 124.953125 135.023438 C 124.917969 135.109375 124.882812 135.191406 124.847656 135.265625 C 124.753906 135.488281 124.636719 135.703125 124.5 135.902344 C 124.40625 136.039062 124.289062 136.160156 124.160156 136.265625 C 124.078125 136.335938 123.972656 136.378906 123.863281 136.390625 C 123.78125 136.390625 123.703125 136.355469 123.644531 136.296875 C 123.566406 136.210938 123.515625 136.105469 123.5 135.992188 C 123.480469 135.851562 123.480469 135.710938 123.5 135.574219 C 123.519531 135.40625 123.554688 135.238281 123.601562 135.078125 C 123.660156 134.890625 123.726562 134.707031 123.808594 134.527344 C 123.855469 134.414062 123.914062 134.304688 123.964844 134.207031 C 124.015625 134.105469 124.074219 134.007812 124.132812 133.921875 C 124.191406 133.832031 124.25 133.75 124.304688 133.671875 C 124.359375 133.597656 124.421875 133.527344 124.480469 133.460938 L 124.519531 133.71875 C 124.523438 133.75 124.523438 133.78125 124.519531 133.8125 C 124.507812 133.851562 124.496094 133.890625 124.476562 133.929688 C 124.457031 133.980469 124.429688 134.03125 124.394531 134.074219 L 124.285156 134.21875 C 124.183594 134.355469 124.09375 134.503906 124.027344 134.660156 C 123.984375 134.75 123.949219 134.84375 123.925781 134.941406 C 123.90625 135.011719 123.898438 135.085938 123.902344 135.15625 C 123.898438 135.210938 123.910156 135.265625 123.933594 135.3125 C 123.957031 135.355469 123.988281 135.390625 124.027344 135.417969 C 124.109375 135.46875 124.195312 135.445312 124.292969 135.359375 C 124.421875 135.21875 124.523438 135.058594 124.59375 134.882812 C 124.675781 134.691406 124.742188 134.496094 124.792969 134.292969 L 125.128906 133.730469 L 126.46875 134.375 L 125.09375 137.445312 L 124.839844 137.203125 C 124.800781 137.164062 124.765625 137.117188 124.746094 137.0625 C 124.726562 137.003906 124.71875 136.9375 124.71875 136.875 C 124.722656 136.789062 124.734375 136.703125 124.757812 136.625 C 124.789062 136.515625 124.828125 136.40625 124.875 136.300781 L 125.433594 135.039062 Z M 125.046875 134.757812 "/>
<path style=" stroke:none;fill-rule:nonzero;fill:rgb(29.019165%,29.019165%,29.019165%);fill-opacity:1;" d="M 137.421875 126.492188 C 137.972656 128.183594 139.453125 129.796875 141.523438 130.726562 C 143.59375 131.65625 145.761719 131.6875 147.375 130.96875 C 144.808594 128.152344 141.210938 126.53125 137.433594 126.492188 Z M 137.421875 126.492188 "/>
<path style=" stroke:none;fill-rule:nonzero;fill:rgb(76.469421%,5.097961%,13.725281%);fill-opacity:1;" d="M 143.105469 129.0625 C 143.011719 129.03125 142.921875 128.996094 142.839844 128.964844 L 142.59375 128.859375 C 142.371094 128.761719 142.160156 128.644531 141.960938 128.507812 C 141.820312 128.414062 141.699219 128.300781 141.597656 128.167969 C 141.523438 128.085938 141.480469 127.980469 141.472656 127.871094 C 141.46875 127.789062 141.503906 127.707031 141.5625 127.648438 C 141.648438 127.570312 141.753906 127.519531 141.867188 127.503906 C 142.007812 127.484375 142.144531 127.484375 142.285156 127.503906 C 142.453125 127.523438 142.617188 127.558594 142.777344 127.609375 C 142.964844 127.664062 143.152344 127.734375 143.332031 127.8125 C 143.445312 127.867188 143.550781 127.917969 143.652344 127.972656 L 143.929688 128.140625 C 144.023438 128.199219 144.101562 128.253906 144.179688 128.316406 C 144.253906 128.375 144.328125 128.433594 144.390625 128.488281 L 144.132812 128.527344 C 144.101562 128.53125 144.070312 128.53125 144.039062 128.527344 C 144 128.519531 143.960938 128.507812 143.921875 128.488281 C 143.871094 128.464844 143.824219 128.4375 143.777344 128.402344 L 143.636719 128.292969 L 143.453125 128.171875 C 143.371094 128.117188 143.285156 128.074219 143.195312 128.035156 C 143.105469 127.992188 143.011719 127.957031 142.914062 127.933594 C 142.84375 127.914062 142.769531 127.90625 142.699219 127.90625 C 142.644531 127.90625 142.589844 127.921875 142.542969 127.945312 C 142.5 127.964844 142.464844 127.996094 142.445312 128.035156 C 142.394531 128.113281 142.410156 128.203125 142.5 128.304688 C 142.636719 128.433594 142.796875 128.535156 142.972656 128.601562 C 143.160156 128.6875 143.359375 128.753906 143.558594 128.804688 L 144.125 129.140625 L 143.46875 130.476562 L 140.40625 129.109375 L 140.652344 128.847656 C 140.6875 128.808594 140.734375 128.777344 140.785156 128.757812 C 140.847656 128.734375 140.914062 128.726562 140.976562 128.730469 C 141.0625 128.730469 141.148438 128.742188 141.230469 128.765625 C 141.335938 128.800781 141.441406 128.839844 141.546875 128.886719 L 142.804688 129.445312 Z M 143.105469 129.0625 "/>
<path style=" stroke:none;fill-rule:nonzero;fill:rgb(29.019165%,29.019165%,29.019165%);fill-opacity:1;" d="M 137.421875 154.367188 C 136.871094 152.675781 135.394531 151.066406 133.320312 150.132812 C 131.25 149.199219 129.078125 149.171875 127.464844 149.894531 C 130.035156 152.703125 133.632812 154.316406 137.410156 154.351562 Z M 137.421875 154.367188 "/>
<path style=" stroke:none;fill-rule:nonzero;fill:rgb(76.469421%,5.097961%,13.725281%);fill-opacity:1;" d="M 131.742188 152.804688 C 131.835938 152.832031 131.921875 152.867188 132.007812 152.898438 L 132.253906 153.003906 C 132.476562 153.097656 132.691406 153.214844 132.890625 153.351562 C 133.03125 153.445312 133.152344 153.5625 133.253906 153.691406 C 133.324219 153.773438 133.371094 153.878906 133.378906 153.984375 C 133.378906 154.070312 133.347656 154.148438 133.289062 154.207031 C 133.203125 154.285156 133.097656 154.335938 132.980469 154.351562 C 132.84375 154.371094 132.703125 154.371094 132.566406 154.351562 C 132.398438 154.332031 132.230469 154.296875 132.070312 154.246094 C 131.878906 154.191406 131.695312 154.121094 131.515625 154.039062 C 131.402344 153.992188 131.296875 153.941406 131.195312 153.886719 L 130.914062 153.71875 C 130.820312 153.660156 130.742188 153.605469 130.664062 153.546875 C 130.585938 153.488281 130.515625 153.425781 130.453125 153.371094 L 130.707031 153.335938 C 130.738281 153.328125 130.773438 153.328125 130.804688 153.335938 C 130.84375 153.34375 130.882812 153.355469 130.917969 153.371094 C 130.972656 153.394531 131.019531 153.425781 131.066406 153.457031 L 131.207031 153.5625 C 131.257812 153.605469 131.320312 153.644531 131.386719 153.691406 C 131.472656 153.738281 131.558594 153.785156 131.648438 153.824219 C 131.742188 153.863281 131.835938 153.898438 131.933594 153.925781 C 132.003906 153.941406 132.078125 153.953125 132.148438 153.953125 C 132.203125 153.949219 132.257812 153.9375 132.304688 153.914062 C 132.347656 153.894531 132.382812 153.863281 132.40625 153.824219 C 132.457031 153.746094 132.4375 153.65625 132.347656 153.554688 C 132.210938 153.429688 132.050781 153.328125 131.875 153.261719 C 131.683594 153.175781 131.488281 153.109375 131.285156 153.058594 L 130.71875 152.726562 L 131.359375 151.378906 L 134.433594 152.738281 L 134.191406 153 C 134.152344 153.039062 134.105469 153.070312 134.054688 153.085938 C 133.992188 153.109375 133.925781 153.121094 133.863281 153.117188 C 133.777344 153.117188 133.691406 153.101562 133.609375 153.078125 C 133.5 153.046875 133.394531 153.007812 133.292969 152.960938 L 132.027344 152.402344 Z M 131.742188 152.804688 "/>
<path style=" stroke:none;fill-rule:nonzero;fill:rgb(76.469421%,5.097961%,13.725281%);fill-opacity:1;" d="M 136.738281 139.953125 C 136.867188 139.976562 136.996094 140.011719 137.125 140.050781 C 137.242188 140.089844 137.359375 140.128906 137.472656 140.175781 C 137.789062 140.300781 138.082031 140.480469 138.332031 140.703125 C 138.542969 140.894531 138.707031 141.125 138.816406 141.382812 C 138.921875 141.625 138.964844 141.890625 138.949219 142.152344 C 138.933594 142.429688 138.859375 142.699219 138.738281 142.949219 C 138.59375 143.261719 138.386719 143.546875 138.121094 143.78125 C 137.871094 144 137.578125 144.167969 137.253906 144.273438 C 136.925781 144.378906 136.578125 144.425781 136.230469 144.40625 C 135.847656 144.382812 135.472656 144.296875 135.121094 144.152344 C 134.914062 144.070312 134.714844 143.964844 134.53125 143.839844 C 134.359375 143.71875 134.199219 143.585938 134.054688 143.4375 C 133.921875 143.304688 133.800781 143.15625 133.699219 142.996094 C 133.597656 142.847656 133.511719 142.691406 133.4375 142.53125 L 134.136719 142.175781 C 134.207031 142.136719 134.28125 142.113281 134.359375 142.109375 C 134.433594 142.105469 134.507812 142.117188 134.578125 142.140625 C 134.667969 142.179688 134.746094 142.242188 134.804688 142.316406 C 134.863281 142.398438 134.929688 142.484375 134.996094 142.578125 C 135.074219 142.683594 135.164062 142.78125 135.265625 142.867188 C 135.394531 142.976562 135.542969 143.066406 135.707031 143.128906 C 135.875 143.199219 136.054688 143.238281 136.234375 143.238281 C 136.390625 143.238281 136.542969 143.199219 136.675781 143.132812 C 136.8125 143.0625 136.933594 142.96875 137.027344 142.851562 C 137.132812 142.726562 137.21875 142.589844 137.285156 142.445312 C 137.425781 142.199219 137.445312 141.910156 137.335938 141.648438 C 137.199219 141.390625 136.960938 141.195312 136.667969 141.097656 C 136.371094 140.972656 136.054688 140.898438 135.726562 140.878906 L 134.957031 140.300781 L 136.984375 137.445312 L 140.40625 138.828125 L 140.148438 139.371094 C 140.109375 139.457031 140.054688 139.535156 139.988281 139.601562 C 139.921875 139.664062 139.839844 139.710938 139.75 139.738281 C 139.648438 139.765625 139.539062 139.773438 139.433594 139.757812 C 139.292969 139.738281 139.15625 139.703125 139.027344 139.648438 L 137.433594 139 Z M 136.738281 139.953125 "/>
<path style=" stroke:none;fill-rule:nonzero;fill:rgb(76.469421%,5.097961%,13.725281%);fill-opacity:1;" d="M 106.054688 127.75 C 107.558594 133.183594 105.644531 138.988281 101.199219 142.457031 C 96.753906 145.925781 90.660156 146.375 85.753906 143.597656 C 80.847656 140.816406 78.101562 135.355469 78.792969 129.761719 C 79.484375 124.167969 83.480469 119.539062 88.914062 118.039062 C 96.328125 115.992188 104 120.339844 106.054688 127.75 Z M 106.054688 127.75 "/>
<path style=" stroke:none;fill-rule:nonzero;fill:rgb(29.019165%,29.019165%,29.019165%);fill-opacity:1;" d="M 99.359375 130.246094 C 100.308594 133.691406 98.285156 137.253906 94.84375 138.203125 C 91.398438 139.15625 87.835938 137.132812 86.886719 133.691406 C 85.9375 130.246094 87.957031 126.683594 91.398438 125.734375 C 93.054688 125.273438 94.820312 125.492188 96.316406 126.339844 C 97.808594 127.1875 98.902344 128.59375 99.359375 130.246094 Z M 99.359375 130.246094 "/>
<path style=" stroke:none;fill-rule:nonzero;fill:rgb(29.019165%,29.019165%,29.019165%);fill-opacity:1;" d="M 103.527344 123.507812 C 102.582031 125.039062 102.289062 127.300781 102.894531 129.582031 C 103.503906 131.863281 104.855469 133.632812 106.429688 134.457031 C 106.949219 130.546875 105.898438 126.585938 103.527344 123.507812 Z M 103.527344 123.507812 "/>
<path style=" stroke:none;fill-rule:nonzero;fill:rgb(76.469421%,5.097961%,13.725281%);fill-opacity:1;" d="M 104.570312 127.550781 L 104.941406 127.503906 C 105.027344 127.484375 105.121094 127.484375 105.207031 127.503906 C 105.269531 127.523438 105.332031 127.546875 105.390625 127.574219 L 108.074219 128.761719 C 108.140625 128.792969 108.195312 128.839844 108.242188 128.898438 C 108.300781 128.984375 108.34375 129.078125 108.371094 129.179688 L 108.550781 129.835938 L 106.085938 128.847656 C 106.003906 128.808594 105.925781 128.769531 105.851562 128.726562 C 105.777344 128.679688 105.707031 128.628906 105.636719 128.574219 L 106.28125 130.898438 C 106.285156 130.929688 106.285156 130.964844 106.28125 131 C 106.28125 131.03125 106.28125 131.066406 106.28125 131.097656 C 106.269531 131.125 106.257812 131.15625 106.242188 131.179688 C 106.226562 131.199219 106.207031 131.214844 106.1875 131.230469 L 105.660156 131.46875 Z M 104.570312 127.550781 "/>
<path style=" stroke:none;fill-rule:nonzero;fill:rgb(29.019165%,29.019165%,29.019165%);fill-opacity:1;" d="M 82.71875 140.429688 C 83.660156 138.898438 83.953125 136.636719 83.351562 134.355469 C 82.746094 132.074219 81.386719 130.300781 79.816406 129.480469 C 79.292969 133.390625 80.34375 137.351562 82.71875 140.429688 Z M 82.71875 140.429688 "/>
<path style=" stroke:none;fill-rule:nonzero;fill:rgb(76.469421%,5.097961%,13.725281%);fill-opacity:1;" d="M 81.675781 137.394531 L 81.300781 137.4375 C 81.210938 137.449219 81.121094 137.445312 81.035156 137.421875 C 80.972656 137.398438 80.910156 137.375 80.851562 137.347656 L 78.171875 136.160156 C 78.105469 136.128906 78.050781 136.082031 78.007812 136.023438 C 77.945312 135.9375 77.898438 135.84375 77.875 135.742188 L 77.691406 135.09375 L 80.152344 136.085938 C 80.238281 136.125 80.3125 136.164062 80.386719 136.207031 C 80.460938 136.25 80.535156 136.300781 80.601562 136.355469 L 79.949219 134.027344 C 79.945312 133.996094 79.945312 133.960938 79.949219 133.925781 C 79.945312 133.894531 79.945312 133.863281 79.949219 133.832031 C 79.957031 133.804688 79.972656 133.777344 79.988281 133.753906 C 80 133.730469 80.019531 133.710938 80.042969 133.699219 L 80.570312 133.460938 Z M 81.675781 137.394531 "/>
<path style=" stroke:none;fill-rule:nonzero;fill:rgb(29.019165%,29.019165%,29.019165%);fill-opacity:1;" d="M 83.664062 121.5625 C 85.195312 122.507812 87.457031 122.800781 89.738281 122.199219 C 92.019531 121.59375 93.792969 120.234375 94.617188 118.660156 C 90.707031 118.140625 86.746094 119.191406 83.664062 121.5625 Z M 83.664062 121.5625 "/>
<path style=" stroke:none;fill-rule:nonzero;fill:rgb(76.469421%,5.097961%,13.725281%);fill-opacity:1;" d="M 87.695312 120.519531 L 87.652344 120.148438 C 87.640625 120.058594 87.644531 119.96875 87.667969 119.882812 C 87.695312 119.808594 87.71875 119.75 87.738281 119.703125 L 88.9375 117.019531 C 88.972656 116.953125 89.019531 116.898438 89.074219 116.851562 C 89.160156 116.789062 89.257812 116.746094 89.359375 116.722656 L 90.011719 116.539062 L 89.011719 119 C 88.976562 119.082031 88.933594 119.160156 88.890625 119.234375 C 88.847656 119.308594 88.796875 119.382812 88.738281 119.449219 L 91.058594 118.796875 C 91.09375 118.792969 91.128906 118.792969 91.160156 118.796875 C 91.191406 118.792969 91.226562 118.792969 91.257812 118.796875 C 91.285156 118.804688 91.3125 118.816406 91.335938 118.832031 C 91.359375 118.847656 91.375 118.871094 91.390625 118.890625 L 91.628906 119.414062 Z M 87.695312 120.519531 "/>
<path style=" stroke:none;fill-rule:nonzero;fill:rgb(29.019165%,29.019165%,29.019165%);fill-opacity:1;" d="M 101.582031 142.371094 C 100.054688 141.429688 97.792969 141.136719 95.511719 141.738281 C 93.230469 142.34375 91.457031 143.703125 90.632812 145.277344 C 94.542969 145.796875 98.503906 144.75 101.582031 142.371094 Z M 101.582031 142.371094 "/>
<path style=" stroke:none;fill-rule:nonzero;fill:rgb(76.469421%,5.097961%,13.725281%);fill-opacity:1;" d="M 98.546875 143.414062 L 98.589844 143.785156 C 98.605469 143.875 98.597656 143.964844 98.570312 144.050781 C 98.554688 144.113281 98.53125 144.171875 98.5 144.230469 L 97.308594 146.902344 C 97.273438 146.964844 97.226562 147.023438 97.167969 147.066406 C 97.085938 147.128906 96.988281 147.171875 96.886719 147.195312 L 96.230469 147.398438 L 97.230469 144.949219 C 97.265625 144.863281 97.3125 144.789062 97.351562 144.71875 C 97.394531 144.640625 97.449219 144.570312 97.503906 144.5 L 95.183594 145.148438 C 95.152344 145.152344 95.117188 145.152344 95.082031 145.148438 C 95.050781 145.15625 95.019531 145.15625 94.988281 145.148438 C 94.957031 145.140625 94.929688 145.128906 94.90625 145.113281 C 94.882812 145.097656 94.867188 145.078125 94.855469 145.058594 L 94.617188 144.535156 Z M 98.546875 143.414062 "/>
<path style=" stroke:none;fill-rule:nonzero;fill:rgb(76.469421%,5.097961%,13.725281%);fill-opacity:1;" d="M 94.382812 128.484375 L 94.550781 129.085938 C 94.597656 129.230469 94.621094 129.382812 94.613281 129.535156 C 94.605469 129.640625 94.59375 129.742188 94.574219 129.84375 L 93.625 135.472656 C 93.597656 135.617188 93.535156 135.757812 93.445312 135.878906 C 93.335938 136.015625 93.183594 136.113281 93.011719 136.15625 L 91.964844 136.449219 L 93.015625 130.9375 C 93.046875 130.785156 93.089844 130.648438 93.128906 130.523438 C 93.171875 130.394531 93.226562 130.273438 93.289062 130.152344 L 90.316406 130.984375 C 90.273438 130.992188 90.230469 130.992188 90.1875 130.984375 C 90.144531 130.976562 90.105469 130.960938 90.066406 130.941406 C 90.027344 130.921875 89.992188 130.894531 89.964844 130.863281 C 89.9375 130.828125 89.917969 130.792969 89.90625 130.75 L 89.636719 129.804688 Z M 94.382812 128.484375 "/>
<path style=" stroke:none;fill-rule:evenodd;fill:rgb(39.99939%,39.99939%,39.99939%);fill-opacity:1;" d="M 178.097656 15 L 104.707031 15 L 52.804688 66.613281 L 52.804688 139.585938 L 104.707031 191.199219 L 178.097656 191.199219 L 230 139.585938 L 230 66.605469 Z M 222.589844 66.757812 L 151.960938 95.511719 C 150.867188 95.957031 149.609375 95.699219 148.78125 94.859375 C 147.949219 94.023438 147.710938 92.769531 148.171875 91.6875 L 177.894531 22.320312 Z M 143.214844 89.707031 L 172.953125 20.3125 L 109.769531 20.3125 L 137.820312 89.65625 C 138.265625 90.742188 139.320312 91.457031 140.5 91.46875 C 141.679688 91.480469 142.75 90.785156 143.214844 89.707031 Z M 104.851562 22.378906 L 132.910156 91.742188 C 133.351562 92.828125 133.09375 94.070312 132.253906 94.890625 C 131.414062 95.714844 130.160156 95.953125 129.078125 95.5 L 60.183594 66.785156 Z M 127.066406 100.421875 L 58.175781 71.703125 L 58.175781 134.488281 L 127.066406 105.769531 C 128.152344 105.320312 128.859375 104.265625 128.859375 103.097656 C 128.859375 101.925781 128.152344 100.871094 127.066406 100.421875 Z M 60.183594 139.40625 L 129.066406 110.691406 C 130.152344 110.238281 131.402344 110.476562 132.242188 111.300781 C 133.082031 112.121094 133.339844 113.363281 132.898438 114.449219 L 104.847656 183.808594 Z M 137.820312 116.535156 L 109.769531 185.878906 L 172.953125 185.878906 L 143.214844 116.484375 C 142.75 115.40625 141.679688 114.710938 140.5 114.722656 C 139.320312 114.734375 138.265625 115.449219 137.820312 116.535156 Z M 177.894531 183.871094 L 148.171875 114.5 C 147.707031 113.417969 147.949219 112.164062 148.777344 111.328125 C 149.609375 110.488281 150.867188 110.234375 151.960938 110.679688 L 222.589844 139.433594 Z M 154.027344 105.777344 L 224.644531 134.527344 L 224.644531 71.664062 L 154.027344 100.410156 C 152.929688 100.855469 152.214844 101.914062 152.214844 103.09375 C 152.214844 104.273438 152.929688 105.332031 154.027344 105.777344 Z M 154.027344 105.777344 "/>
<path style=" stroke:none;fill-rule:nonzero;fill:rgb(39.99939%,39.99939%,39.99939%);fill-opacity:1;" d="M 28.488281 221.644531 C 27.183594 220.308594 23.867188 217.140625 23.167969 216.050781 C 21.886719 214.039062 23.496094 207.4375 23.496094 207.4375 L 15.398438 205.136719 C 14.046875 206.082031 12.613281 208.621094 11.347656 210.796875 C 10.941406 211.492188 10.550781 212.148438 10.179688 212.699219 C 8.753906 214.832031 16.136719 223.417969 18.542969 223.824219 C 20.953125 224.230469 27.339844 224.722656 28.707031 225.011719 C 29.425781 225.160156 29.910156 224.824219 29.910156 224.167969 C 29.910156 223.558594 29.515625 222.691406 28.488281 221.644531 Z M 28.488281 221.644531 "/>
<path style=" stroke:none;fill-rule:nonzero;fill:rgb(9.01947%,9.411621%,10.195923%);fill-opacity:1;" d="M 26.566406 120.519531 C 26.566406 120.519531 22.910156 130.621094 21.890625 139.8125 C 20.871094 149.003906 20.132812 161.335938 19.566406 165.050781 C 19 168.765625 15.796875 183.355469 14.050781 188.265625 C 12.300781 193.175781 10 203.96875 10 203.96875 C 10 203.96875 17.234375 208.023438 21.476562 208.730469 C 24.148438 209.113281 26.855469 209.210938 29.550781 209.027344 C 29.550781 209.027344 36.933594 172.667969 38.9375 168.449219 C 40.945312 164.234375 51.808594 123.277344 51.808594 123.277344 Z M 26.566406 120.519531 "/>
<path style=" stroke:none;fill-rule:nonzero;fill:rgb(39.99939%,39.99939%,39.99939%);fill-opacity:1;" d="M 26.566406 120.519531 L 26.675781 119.527344 L 25.894531 119.441406 L 25.625 120.179688 Z M 10 203.96875 L 9.023438 203.761719 L 8.867188 204.480469 L 9.511719 204.839844 Z M 21.476562 208.730469 L 21.3125 209.71875 L 21.324219 209.71875 L 21.335938 209.722656 Z M 29.550781 209.027344 L 29.617188 210.023438 L 30.378906 209.972656 L 30.53125 209.226562 Z M 51.808594 123.277344 L 52.777344 123.53125 L 53.074219 122.40625 L 51.917969 122.28125 Z M 26.566406 120.519531 C 25.625 120.179688 25.625 120.179688 25.625 120.179688 C 25.625 120.179688 25.625 120.183594 25.625 120.183594 C 25.625 120.183594 25.625 120.1875 25.621094 120.1875 C 25.621094 120.195312 25.617188 120.203125 25.613281 120.210938 C 25.605469 120.234375 25.597656 120.261719 25.582031 120.300781 C 25.554688 120.378906 25.515625 120.496094 25.460938 120.644531 C 25.359375 120.945312 25.210938 121.378906 25.027344 121.929688 C 24.667969 123.03125 24.171875 124.59375 23.648438 126.449219 C 22.601562 130.144531 21.414062 135.027344 20.898438 139.703125 L 22.882812 139.921875 C 23.386719 135.40625 24.539062 130.644531 25.574219 126.992188 C 26.089844 125.171875 26.574219 123.636719 26.929688 122.554688 C 27.105469 122.015625 27.25 121.589844 27.351562 121.300781 C 27.402344 121.15625 27.441406 121.042969 27.46875 120.96875 C 27.480469 120.933594 27.492188 120.90625 27.496094 120.886719 C 27.5 120.878906 27.503906 120.871094 27.503906 120.867188 C 27.503906 120.863281 27.503906 120.863281 27.507812 120.863281 C 27.507812 120.863281 27.507812 120.859375 27.507812 120.859375 C 27.507812 120.859375 27.507812 120.859375 26.566406 120.519531 Z M 20.898438 139.703125 C 20.386719 144.316406 19.945312 149.710938 19.5625 154.40625 C 19.175781 159.125 18.855469 163.089844 18.578125 164.902344 L 20.554688 165.203125 C 20.84375 163.300781 21.175781 159.238281 21.554688 154.566406 C 21.9375 149.867188 22.378906 144.5 22.882812 139.921875 Z M 18.578125 164.902344 C 18.300781 166.71875 17.367188 171.261719 16.277344 175.984375 C 15.183594 180.71875 13.960938 185.539062 13.109375 187.929688 L 14.992188 188.601562 C 15.886719 186.082031 17.136719 181.152344 18.226562 176.433594 C 19.316406 171.707031 20.265625 167.101562 20.554688 165.203125 Z M 13.109375 187.929688 C 12.214844 190.441406 11.191406 194.417969 10.398438 197.726562 C 10 199.386719 9.65625 200.894531 9.410156 201.988281 C 9.289062 202.535156 9.191406 202.976562 9.125 203.28125 C 9.09375 203.4375 9.066406 203.554688 9.046875 203.636719 C 9.039062 203.675781 9.035156 203.707031 9.027344 203.726562 C 9.027344 203.738281 9.023438 203.746094 9.023438 203.75 C 9.023438 203.753906 9.023438 203.757812 9.023438 203.757812 C 9.023438 203.761719 9.023438 203.761719 9.023438 203.761719 C 9.023438 203.761719 9.023438 203.761719 10 203.96875 C 10.976562 204.175781 10.976562 204.175781 10.976562 204.175781 C 10.980469 204.175781 10.980469 204.171875 10.980469 204.171875 C 10.980469 204.164062 10.980469 204.15625 10.984375 204.148438 C 10.988281 204.128906 10.996094 204.097656 11.003906 204.058594 C 11.019531 203.976562 11.046875 203.859375 11.078125 203.707031 C 11.144531 203.40625 11.242188 202.964844 11.363281 202.421875 C 11.605469 201.339844 11.945312 199.839844 12.34375 198.191406 C 13.136719 194.875 14.136719 191 14.992188 188.601562 Z M 10 203.96875 C 9.511719 204.839844 9.511719 204.839844 9.511719 204.839844 C 9.511719 204.839844 9.511719 204.84375 9.511719 204.84375 C 9.515625 204.84375 9.515625 204.84375 9.515625 204.84375 C 9.519531 204.847656 9.527344 204.851562 9.535156 204.855469 C 9.550781 204.863281 9.570312 204.875 9.597656 204.890625 C 9.652344 204.921875 9.734375 204.964844 9.839844 205.023438 C 10.050781 205.136719 10.355469 205.300781 10.730469 205.5 C 11.484375 205.894531 12.535156 206.429688 13.722656 206.988281 C 16.058594 208.089844 19.039062 209.339844 21.3125 209.71875 L 21.640625 207.746094 C 19.671875 207.414062 16.914062 206.28125 14.574219 205.179688 C 13.421875 204.636719 12.398438 204.113281 11.660156 203.726562 C 11.292969 203.535156 11 203.375 10.796875 203.265625 C 10.695312 203.210938 10.617188 203.167969 10.566406 203.140625 C 10.539062 203.125 10.519531 203.113281 10.507812 203.105469 C 10.5 203.101562 10.496094 203.101562 10.492188 203.097656 C 10.492188 203.097656 10.492188 203.097656 10.488281 203.097656 C 10.488281 203.097656 10.488281 203.097656 10 203.96875 Z M 21.335938 209.722656 C 24.078125 210.113281 26.855469 210.214844 29.617188 210.023438 L 29.480469 208.03125 C 26.855469 208.210938 24.222656 208.113281 21.617188 207.742188 Z M 29.550781 209.027344 C 30.53125 209.226562 30.53125 209.226562 30.53125 209.226562 C 30.53125 209.226562 30.53125 209.226562 30.53125 209.222656 C 30.53125 209.222656 30.53125 209.222656 30.53125 209.21875 C 30.53125 209.214844 30.535156 209.207031 30.535156 209.199219 C 30.539062 209.183594 30.542969 209.15625 30.550781 209.121094 C 30.566406 209.054688 30.585938 208.949219 30.613281 208.816406 C 30.667969 208.550781 30.746094 208.160156 30.851562 207.65625 C 31.054688 206.65625 31.351562 205.21875 31.714844 203.484375 C 32.4375 200.011719 33.421875 195.335938 34.46875 190.535156 C 35.515625 185.726562 36.625 180.796875 37.597656 176.804688 C 38.082031 174.8125 38.53125 173.058594 38.921875 171.675781 C 39.316406 170.269531 39.632812 169.320312 39.839844 168.878906 L 38.035156 168.019531 C 37.742188 168.636719 37.386719 169.746094 36.996094 171.132812 C 36.597656 172.546875 36.140625 174.328125 35.652344 176.332031 C 34.675781 180.347656 33.5625 185.296875 32.515625 190.109375 C 31.464844 194.921875 30.480469 199.601562 29.753906 203.078125 C 29.394531 204.816406 29.097656 206.253906 28.890625 207.253906 C 28.789062 207.757812 28.707031 208.148438 28.652344 208.417969 C 28.625 208.550781 28.605469 208.652344 28.589844 208.722656 C 28.585938 208.757812 28.578125 208.785156 28.574219 208.800781 C 28.574219 208.808594 28.574219 208.816406 28.570312 208.820312 C 28.570312 208.824219 28.570312 208.824219 28.570312 208.828125 C 28.570312 208.828125 28.570312 208.828125 29.550781 209.027344 Z M 39.839844 168.878906 C 40.125 168.28125 40.535156 167.113281 41.019531 165.605469 C 41.511719 164.070312 42.105469 162.113281 42.753906 159.894531 C 44.058594 155.453125 45.605469 149.933594 47.089844 144.546875 C 48.574219 139.160156 49.996094 133.90625 51.046875 130 C 51.570312 128.046875 52.003906 126.429688 52.304688 125.300781 C 52.457031 124.738281 52.574219 124.292969 52.652344 123.992188 C 52.695312 123.84375 52.722656 123.726562 52.746094 123.648438 C 52.753906 123.609375 52.761719 123.582031 52.769531 123.5625 C 52.769531 123.550781 52.773438 123.542969 52.773438 123.539062 C 52.773438 123.535156 52.777344 123.535156 52.777344 123.535156 C 52.777344 123.53125 52.777344 123.53125 52.777344 123.53125 C 52.777344 123.53125 52.777344 123.53125 51.808594 123.277344 C 50.84375 123.019531 50.84375 123.019531 50.84375 123.019531 C 50.84375 123.023438 50.84375 123.023438 50.839844 123.027344 C 50.839844 123.03125 50.839844 123.039062 50.835938 123.046875 C 50.832031 123.066406 50.824219 123.097656 50.8125 123.136719 C 50.792969 123.214844 50.761719 123.328125 50.722656 123.480469 C 50.640625 123.78125 50.523438 124.222656 50.371094 124.785156 C 50.070312 125.914062 49.640625 127.527344 49.113281 129.480469 C 48.066406 133.386719 46.644531 138.636719 45.164062 144.015625 C 43.679688 149.398438 42.136719 154.90625 40.835938 159.332031 C 40.1875 161.542969 39.601562 163.480469 39.117188 164.992188 C 38.621094 166.53125 38.253906 167.566406 38.035156 168.019531 Z M 51.917969 122.28125 L 26.675781 119.527344 L 26.457031 121.515625 L 51.703125 124.269531 Z M 51.917969 122.28125 "/>
<path style=" stroke:none;fill-rule:nonzero;fill:rgb(9.01947%,9.411621%,10.195923%);fill-opacity:1;" d="M 27.816406 119.777344 L 47.53125 122.113281 L 44.464844 147.921875 L 24.746094 145.582031 Z M 27.816406 119.777344 "/>
<path style=" stroke:none;fill-rule:nonzero;fill:rgb(39.99939%,39.99939%,39.99939%);fill-opacity:1;" d="M 27.816406 119.777344 L 27.875 119.28125 L 27.378906 119.222656 L 27.320312 119.71875 Z M 47.53125 122.113281 L 48.027344 122.171875 L 48.089844 121.675781 L 47.589844 121.617188 Z M 44.464844 147.921875 L 44.40625 148.417969 L 44.902344 148.476562 L 44.960938 147.980469 Z M 24.746094 145.582031 L 24.25 145.523438 L 24.191406 146.023438 L 24.6875 146.082031 Z M 27.757812 120.273438 L 47.472656 122.609375 L 47.589844 121.617188 L 27.875 119.28125 Z M 47.035156 122.054688 L 43.96875 147.859375 L 44.960938 147.980469 L 48.027344 122.171875 Z M 44.523438 147.421875 L 24.804688 145.085938 L 24.6875 146.082031 L 44.40625 148.417969 Z M 25.242188 145.644531 L 28.3125 119.835938 L 27.320312 119.71875 L 24.25 145.523438 Z M 25.242188 145.644531 "/>
<path style=" stroke:none;fill-rule:nonzero;fill:rgb(100%,31.37207%,31.37207%);fill-opacity:1;" d="M 42.035156 63.296875 L 56.527344 51.832031 L 62.761719 58.742188 C 62.761719 58.742188 51.632812 74.339844 46.089844 71.367188 C 40.550781 68.394531 42.035156 63.296875 42.035156 63.296875 Z M 42.035156 63.296875 "/>
<path style=" stroke:none;fill-rule:nonzero;fill:rgb(100%,51.371765%,51.371765%);fill-opacity:1;" d="M 54.796875 52.292969 C 54.796875 52.292969 56.515625 55.695312 57.984375 57.9375 C 59.453125 60.179688 64.214844 63.777344 64.214844 63.777344 C 64.214844 63.777344 65.179688 61.449219 66.582031 60.609375 C 67.355469 60.15625 68.078125 59.621094 68.734375 59.007812 C 68.734375 59.007812 64.296875 52.996094 62.949219 51.457031 C 62.03125 50.339844 61.234375 49.132812 60.570312 47.851562 C 60.570312 47.851562 55.871094 50.136719 54.796875 52.292969 Z M 54.796875 52.292969 "/>
<path style=" stroke:none;fill-rule:nonzero;fill:rgb(94.116211%,77.645874%,70.587158%);fill-opacity:1;" d="M 43.734375 44.898438 C 42.582031 43.648438 41.816406 43.152344 39.699219 42.894531 C 37.578125 42.636719 30.941406 44.738281 29.324219 48.746094 C 27.710938 52.75 31.285156 56.707031 32.609375 58.03125 C 34.09375 59.523438 36.257812 61.207031 37.886719 63.484375 C 38.617188 64.515625 38.898438 67.546875 38.894531 68.367188 C 40.863281 69.175781 43.382812 68.585938 45.246094 67.832031 C 46.195312 67.453125 47.070312 66.917969 47.835938 66.246094 C 47.640625 66.160156 47.460938 66.046875 47.300781 65.910156 C 46.746094 65.398438 45.445312 62.679688 45.667969 61.777344 C 45.992188 60.492188 46.949219 60.070312 48.222656 59.699219 C 49.910156 59.210938 48.535156 57.445312 49.316406 56.628906 C 49.828125 56.089844 49.257812 55.984375 48.929688 55.75 C 48.929688 55.480469 49.335938 55.117188 49.335938 54.875 C 49.335938 54.289062 48.707031 54.398438 48.652344 54.121094 C 48.527344 53.425781 50.226562 52.503906 49.726562 51.949219 C 48.867188 50.976562 45.746094 49.839844 45.636719 48.964844 C 45.492188 47.433594 44.820312 46 43.734375 44.898438 Z M 43.734375 44.898438 "/>
<path style=" stroke:none;fill-rule:nonzero;fill:rgb(23.529053%,23.529053%,23.529053%);fill-opacity:1;" d="M 43.847656 44.226562 C 43.847656 44.226562 41.261719 44.519531 39.515625 48.113281 C 38.394531 50.414062 39.207031 52.042969 37.085938 53.960938 C 35.257812 55.609375 36.449219 56.875 36.449219 56.875 L 37.339844 62.78125 C 37.339844 62.78125 32.65625 61.785156 29.167969 56.082031 C 25.816406 50.59375 27.210938 49.027344 27.210938 49.027344 C 27.210938 49.027344 29.074219 45.082031 35.65625 42.359375 C 39.351562 40.828125 42.035156 40.882812 42.035156 40.882812 C 42.40625 42.101562 43.019531 43.238281 43.847656 44.226562 Z M 43.847656 44.226562 "/>
<path style=" stroke:none;fill-rule:nonzero;fill:rgb(94.116211%,77.645874%,70.587158%);fill-opacity:1;" d="M 37.109375 53.738281 C 37.109375 53.738281 36.136719 52.167969 34.609375 53.152344 C 33.078125 54.140625 34.109375 56.382812 36.617188 56.777344 C 39.121094 57.175781 37.109375 53.738281 37.109375 53.738281 Z M 37.109375 53.738281 "/>
<path style=" stroke:none;fill-rule:nonzero;fill:rgb(100%,51.371765%,51.371765%);fill-opacity:1;" d="M 37.519531 65.445312 L 36.878906 68.753906 C 36.878906 68.753906 44.101562 68.671875 46.945312 67.292969 C 49.789062 65.917969 50.816406 65.480469 50.816406 65.480469 C 50.816406 65.480469 47.171875 64.601562 44.785156 64.804688 C 42.398438 65.011719 37.519531 65.445312 37.519531 65.445312 Z M 37.519531 65.445312 "/>
<path style=" stroke:none;fill-rule:nonzero;fill:rgb(84.70459%,22.744751%,21.176147%);fill-opacity:1;" d="M 48.101562 42.511719 L 43.804688 42.78125 C 43.804688 42.78125 36.8125 33.253906 27.753906 40.808594 C 19.417969 47.746094 27.332031 56.808594 27.332031 56.808594 L 29.054688 55.777344 L 32.195312 53.894531 L 48.824219 43.941406 Z M 48.101562 42.511719 "/>
<path style=" stroke:none;fill-rule:nonzero;fill:rgb(84.70459%,22.744751%,21.176147%);fill-opacity:1;" d="M 74.566406 58.515625 L 69.644531 50.835938 C 69.644531 50.835938 50.53125 60.632812 44.785156 64.539062 C 42.527344 66.070312 37.03125 69.140625 37.03125 69.140625 C 37.03125 69.140625 32.617188 73.40625 30.914062 83.328125 C 29.207031 93.25 29.730469 104.375 29.820312 107.835938 C 29.910156 111.292969 26.921875 119.773438 26.921875 119.773438 C 26.921875 119.773438 39.394531 124.027344 43.738281 123.453125 L 44.210938 123.390625 C 48.382812 122.851562 52.257812 122.503906 52.257812 122.503906 C 52.257812 122.503906 56.902344 93.683594 55.167969 84.246094 C 54.871094 82.667969 54.503906 80.902344 54.105469 79.097656 C 57.210938 76.667969 60.265625 74.316406 61.535156 73.394531 C 66.625 69.714844 75.703125 60.253906 75.703125 60.253906 Z M 74.566406 58.515625 "/>
<path style=" stroke:none;fill-rule:nonzero;fill:rgb(94.116211%,77.645874%,70.587158%);fill-opacity:1;" d="M 95.09375 25.960938 C 93.277344 26.222656 90.164062 33.871094 88.320312 36.050781 C 87.578125 36.9375 84.320312 39.46875 80.75 42.152344 C 75.585938 46.027344 69.730469 50.222656 69.730469 50.222656 L 75.777344 59.796875 C 75.777344 59.796875 81.910156 52.792969 86.1875 47.996094 C 88.183594 45.757812 89.777344 44.007812 90.160156 43.664062 C 91.371094 42.574219 96.746094 39.449219 98.191406 35.308594 C 99.632812 31.167969 96.910156 25.699219 95.09375 25.960938 Z M 95.09375 25.960938 "/>
<path style=" stroke:none;fill-rule:nonzero;fill:rgb(100%,51.371765%,51.371765%);fill-opacity:1;" d="M 62.761719 51.5625 C 62.761719 51.5625 64.515625 55.796875 65.859375 58.230469 C 67.207031 60.664062 71.808594 64.773438 71.808594 64.773438 C 71.808594 64.773438 72.933594 62.398438 74.410156 61.609375 C 75.226562 61.183594 75.992188 60.667969 76.695312 60.070312 C 76.695312 60.070312 72.5625 53.480469 71.320312 51.785156 C 70.457031 50.554688 69.726562 49.238281 69.132812 47.851562 C 69.132812 47.851562 63.988281 49.371094 62.761719 51.5625 Z M 62.761719 51.5625 "/>
<path style=" stroke:none;fill-rule:nonzero;fill:rgb(100%,81.959534%,18.431091%);fill-opacity:1;" d="M 39.601562 131.171875 C 39.914062 129.171875 39.945312 127.152344 39.707031 125.144531 C 39.238281 121.71875 38.453125 119.269531 37.339844 119.546875 C 36.226562 119.824219 37.449219 122.890625 37.65625 125.496094 C 37.835938 127.742188 37.804688 131.472656 37.804688 131.472656 Z M 39.601562 131.171875 "/>
<path style=" stroke:none;fill-rule:nonzero;fill:rgb(100%,81.959534%,18.431091%);fill-opacity:1;" d="M 34.335938 132.464844 C 33.296875 130.652344 32.464844 128.722656 31.851562 126.714844 C 30.855469 123.261719 30.503906 120.636719 31.496094 120.523438 C 32.488281 120.410156 32.742188 123.773438 33.613281 126.347656 C 34.367188 128.546875 35.882812 132.144531 35.882812 132.144531 Z M 34.335938 132.464844 "/>
<path style=" stroke:none;fill-rule:nonzero;fill:rgb(9.01947%,9.411621%,10.195923%);fill-opacity:1;" d="M 29.5 127.886719 L 43.984375 129.601562 L 42.117188 145.304688 L 27.632812 143.585938 Z M 29.5 127.886719 "/>
<path style=" stroke:none;fill-rule:nonzero;fill:rgb(39.99939%,39.99939%,39.99939%);fill-opacity:1;" d="M 29.5 127.886719 L 29.558594 127.390625 L 29.0625 127.332031 L 29.003906 127.828125 Z M 43.984375 129.601562 L 44.484375 129.660156 L 44.542969 129.164062 L 44.046875 129.105469 Z M 42.117188 145.304688 L 42.058594 145.800781 L 42.554688 145.859375 L 42.617188 145.363281 Z M 27.632812 143.585938 L 27.136719 143.527344 L 27.078125 144.023438 L 27.574219 144.085938 Z M 29.441406 128.382812 L 43.925781 130.097656 L 44.046875 129.105469 L 29.558594 127.390625 Z M 43.488281 129.542969 L 41.621094 145.246094 L 42.617188 145.363281 L 44.484375 129.660156 Z M 42.175781 144.808594 L 27.691406 143.089844 L 27.574219 144.085938 L 42.058594 145.800781 Z M 28.128906 143.648438 L 29.996094 127.945312 L 29.003906 127.828125 L 27.136719 143.527344 Z M 28.128906 143.648438 "/>
</g>
</svg>
