<svg width="24" height="24" viewBox="0 0 24 24" fill="none" xmlns="http://www.w3.org/2000/svg">
<path d="M12 23C18.0751 23 23 18.0751 23 12C23 5.92487 18.0751 1 12 1C5.92487 1 1 5.92487 1 12C1 18.0751 5.92487 23 12 23Z" fill="#F20000"/>
<path d="M10.7327 16.9199C10.9983 16.9199 11.2073 16.8086 11.3596 16.5859L16.5803 8.40625C16.635 8.32031 16.675 8.24023 16.7004 8.16602C16.7258 8.0918 16.7385 8.02148 16.7385 7.95508C16.7385 7.7793 16.6838 7.63672 16.5745 7.52734C16.4651 7.41797 16.3225 7.36328 16.1467 7.36328C16.0217 7.36328 15.9182 7.3877 15.8362 7.43652C15.7542 7.48535 15.6721 7.57031 15.5901 7.69141L10.7151 15.4551L8.1897 12.1914C8.04517 11.9961 7.86743 11.8984 7.65649 11.8984C7.47681 11.8984 7.32935 11.9551 7.21411 12.0684C7.09888 12.1816 7.04126 12.3262 7.04126 12.502C7.04126 12.5762 7.05591 12.6523 7.08521 12.7305C7.1145 12.8086 7.16235 12.8867 7.22876 12.9648L10.094 16.5859C10.2776 16.8086 10.4905 16.9199 10.7327 16.9199Z" fill="#131313"/>
</svg>
