<?xml version="1.0" encoding="UTF-8"?>
<svg xmlns="http://www.w3.org/2000/svg" xmlns:xlink="http://www.w3.org/1999/xlink" width="24pt" height="24pt" viewBox="0 0 24 24" version="1.1">
<defs>
<clipPath id="clip1">
  <path d="M 2 4 L 22 4 L 22 22 L 2 22 Z M 2 4 "/>
</clipPath>
<clipPath id="clip2">
  <path d="M 4.074219 4 L 20.167969 20.09375 L 19.007812 21.25 L 16.363281 18.597656 L 15.976562 18.210938 C 14.746094 18.707031 13.402344 18.980469 11.996094 18.980469 C 7.457031 18.980469 3.582031 16.15625 2.011719 12.171875 C 2.71875 10.367188 3.902344 8.8125 5.402344 7.640625 L 2.917969 5.15625 Z M 7.9375 10.171875 C 7.636719 10.78125 7.457031 11.453125 7.457031 12.171875 C 7.457031 14.675781 9.492188 16.710938 11.996094 16.710938 C 12.714844 16.710938 13.386719 16.527344 13.988281 16.226562 L 12.585938 14.824219 C 12.394531 14.867188 12.199219 14.894531 11.996094 14.894531 C 10.492188 14.894531 9.273438 13.671875 9.273438 12.171875 C 9.273438 11.964844 9.300781 11.769531 9.339844 11.574219 Z M 11.996094 5.363281 C 16.539062 5.363281 20.410156 8.183594 21.984375 12.171875 C 21.320312 13.859375 20.238281 15.339844 18.867188 16.480469 L 16.210938 13.828125 C 16.417969 13.3125 16.535156 12.753906 16.535156 12.171875 C 16.535156 9.664062 14.5 7.632812 11.996094 7.632812 C 11.410156 7.632812 10.851562 7.753906 10.339844 7.953125 L 8.378906 5.996094 C 9.507812 5.589844 10.726562 5.363281 11.996094 5.363281 Z M 11.996094 9.445312 C 13.5 9.445312 14.71875 10.667969 14.71875 12.171875 L 14.707031 12.320312 L 11.847656 9.460938 Z M 11.996094 9.445312 "/>
</clipPath>
</defs>
<g id="surface1">
<g clip-path="url(#clip1)" clip-rule="nonzero">
<g clip-path="url(#clip2)" clip-rule="evenodd">
<rect x="0" y="0" width="24" height="24" style="fill:rgb(60.784912%,60.784912%,60.784912%);fill-opacity:1;stroke:none;"/>
</g>
</g>
</g>
</svg>
