<svg width="128" height="128" viewBox="0 0 128 128" fill="none" xmlns="http://www.w3.org/2000/svg">
<g clip-path="url(#clip0_2604_594)">
<path d="M47.0166 77.5308H63.0876V82.9231H47.0166V77.5308ZM81.1517 60.4101H47.0166V65.8024H81.1517V60.4101ZM81.1517 44.2334H47.0166V49.6256H81.1517V44.2334ZM38.3923 89.9335V37.0886C38.3923 35.6017 39.6017 34.3923 41.0886 34.3923H87.8924C89.3789 34.3923 90.5883 35.6017 90.5883 37.0886V67.5554H95.9805V37.0886C95.9805 32.6287 92.3523 29 87.8924 29H41.0886C36.6287 29 33 32.6287 33 37.0886V89.9335C33 94.3934 36.6287 98.0216 41.0886 98.0216H66.188V92.6294H41.0886C39.6017 92.6294 38.3923 91.42 38.3923 89.9335ZM92.1869 98.0411L86.8173 92.6715C85.0006 93.7571 82.8783 94.3818 80.6128 94.3818C73.9227 94.3818 68.4799 88.939 68.4799 82.2494C68.4799 75.5592 73.9227 70.1164 80.6128 70.1164C87.3024 70.1164 92.7453 75.5592 92.7453 82.2494C92.7453 84.7245 91.9994 87.0285 90.722 88.9501L96 94.228L92.1869 98.0411ZM80.6128 88.9896C84.3295 88.9896 87.353 85.9661 87.353 82.2494C87.353 78.5327 84.3295 75.5087 80.6128 75.5087C76.8961 75.5087 73.8721 78.5327 73.8721 82.2494C73.8721 85.9661 76.8961 88.9896 80.6128 88.9896Z" fill="#595959"/>
<path fill-rule="evenodd" clip-rule="evenodd" d="M80.6128 88.9894C84.3295 88.9894 87.353 85.966 87.353 82.2493C87.353 78.5326 84.3295 75.5085 80.6128 75.5085C76.8962 75.5085 73.8721 78.5326 73.8721 82.2493C73.8721 85.966 76.8962 88.9894 80.6128 88.9894Z" fill="#303030"/>
</g>
<defs>
<clipPath id="clip0_2604_594">
<rect width="63" height="70" fill="white" transform="translate(33 29)"/>
</clipPath>
</defs>
</svg>
