<?xml version="1.0" encoding="UTF-8"?>
<svg xmlns="http://www.w3.org/2000/svg" xmlns:xlink="http://www.w3.org/1999/xlink" width="20pt" height="20pt" viewBox="0 0 20 20" version="1.1">
<defs>
<clipPath id="clip1">
  <path d="M 2 0 L 18 0 L 18 20 L 2 20 Z M 2 0 "/>
</clipPath>
<clipPath id="clip2">
  <path d="M 9.21875 0.976562 L 2.5 9.375 C 2.207031 9.742188 2.207031 10.257812 2.5 10.625 L 9.21875 19.023438 C 9.5625 19.457031 10.195312 19.523438 10.625 19.179688 C 10.683594 19.132812 10.734375 19.082031 10.78125 19.023438 L 17.5 10.625 C 17.792969 10.257812 17.792969 9.742188 17.5 9.375 L 10.78125 0.976562 C 10.4375 0.542969 9.804688 0.476562 9.375 0.820312 C 9.316406 0.867188 9.265625 0.917969 9.21875 0.976562 Z M 9.21875 0.976562 "/>
</clipPath>
</defs>
<g id="surface1">
<g clip-path="url(#clip1)" clip-rule="nonzero">
<g clip-path="url(#clip2)" clip-rule="evenodd">
<rect x="0" y="0" width="20" height="20" style="fill:rgb(94.902039%,0%,0%);fill-opacity:1;stroke:none;"/>
</g>
</g>
</g>
</svg>
