<?xml version="1.0" encoding="UTF-8"?>
<svg xmlns="http://www.w3.org/2000/svg" xmlns:xlink="http://www.w3.org/1999/xlink" width="96pt" height="32pt" viewBox="0 0 96 32" version="1.1">
<g id="surface1">
<rect x="0" y="0" width="96" height="32" style="fill:rgb(100%,100%,100%);fill-opacity:1;stroke:none;"/>
<path style=" stroke:none;fill-rule:evenodd;fill:rgb(11.372375%,27.842712%,59.214783%);fill-opacity:1;" d="M 68.394531 15.417969 C 68.679688 15.546875 69.050781 15.691406 69.402344 15.875 C 70.585938 16.488281 71.328125 17.46875 71.605469 18.757812 C 71.832031 19.808594 71.726562 20.855469 71.324219 21.867188 C 70.980469 22.738281 70.390625 23.398438 69.601562 23.875 C 68.730469 24.398438 67.777344 24.71875 66.765625 24.765625 C 64.953125 24.855469 63.132812 24.890625 61.3125 24.929688 C 60.402344 24.953125 59.484375 24.9375 58.570312 24.933594 C 58.089844 24.933594 57.941406 24.78125 57.941406 24.300781 C 57.941406 18.734375 57.941406 13.171875 57.941406 7.605469 C 57.941406 7.078125 58.058594 6.964844 58.59375 6.964844 C 60.699219 6.964844 62.808594 6.945312 64.914062 6.96875 C 66.199219 6.984375 67.445312 7.195312 68.597656 7.832031 C 69.746094 8.46875 70.410156 9.425781 70.667969 10.695312 C 70.945312 12.066406 70.648438 13.300781 69.738281 14.34375 C 69.363281 14.773438 68.835938 15.070312 68.394531 15.417969 Z M 61.9375 21.828125 C 63.242188 21.75 64.519531 21.734375 65.777344 21.578125 C 66.78125 21.449219 67.425781 20.660156 67.492188 19.828125 C 67.605469 18.339844 66.949219 17.703125 65.976562 17.382812 C 64.660156 16.949219 63.296875 17.214844 61.9375 17.132812 Z M 61.933594 14.195312 C 63.074219 14.117188 64.175781 14.109375 65.261719 13.945312 C 66.285156 13.792969 66.621094 13.039062 66.683594 12.289062 C 66.757812 11.335938 66.292969 10.648438 65.425781 10.382812 C 64.28125 10.035156 63.109375 10.320312 61.933594 10.207031 Z M 61.933594 14.195312 "/>
<path style=" stroke:none;fill-rule:evenodd;fill:rgb(11.372375%,27.842712%,59.214783%);fill-opacity:1;" d="M 32.828125 6.964844 C 33.386719 6.964844 33.941406 6.957031 34.5 6.964844 C 34.875 6.972656 35.144531 7.101562 35.292969 7.511719 C 36.363281 10.492188 37.457031 13.46875 38.546875 16.441406 C 39.5 19.042969 40.457031 21.636719 41.40625 24.238281 C 41.613281 24.8125 41.511719 24.933594 40.902344 24.933594 C 39.855469 24.9375 38.808594 24.925781 37.761719 24.9375 C 37.324219 24.945312 37.082031 24.730469 36.949219 24.34375 C 36.582031 23.25 36.203125 22.160156 35.855469 21.066406 C 35.789062 20.851562 35.703125 20.796875 35.5 20.796875 C 33.609375 20.800781 31.714844 20.804688 29.820312 20.796875 C 29.597656 20.792969 29.53125 20.890625 29.472656 21.074219 C 29.105469 22.179688 28.71875 23.277344 28.371094 24.390625 C 28.246094 24.785156 27.980469 24.925781 27.617188 24.929688 C 26.570312 24.941406 25.523438 24.941406 24.476562 24.933594 C 24.019531 24.929688 23.910156 24.773438 24.066406 24.347656 C 24.84375 22.261719 25.632812 20.179688 26.410156 18.097656 C 27.035156 16.425781 27.65625 14.753906 28.277344 13.078125 C 28.953125 11.257812 29.621094 9.4375 30.296875 7.621094 C 30.492188 7.097656 30.714844 6.964844 31.28125 6.964844 C 31.796875 6.964844 32.3125 6.964844 32.828125 6.964844 Z M 32.675781 11.046875 C 31.945312 13.289062 31.238281 15.441406 30.527344 17.613281 L 34.78125 17.613281 C 34.085938 15.445312 33.398438 13.296875 32.675781 11.046875 Z M 32.675781 11.046875 "/>
<path style=" stroke:none;fill-rule:evenodd;fill:rgb(11.372375%,27.842712%,59.214783%);fill-opacity:1;" d="M 44.980469 15.964844 C 45.027344 18.445312 46.507812 20.550781 48.78125 21.296875 C 50.71875 21.933594 52.4375 21.457031 53.953125 20.136719 C 54.265625 19.863281 54.472656 19.84375 54.769531 20.132812 C 55.363281 20.71875 55.953125 21.308594 56.539062 21.902344 C 56.847656 22.21875 56.839844 22.511719 56.519531 22.816406 C 55.121094 24.136719 53.484375 24.949219 51.574219 25.265625 C 50.136719 25.503906 48.734375 25.402344 47.363281 24.996094 C 46.082031 24.617188 44.941406 23.957031 43.925781 23.058594 C 42.261719 21.589844 41.214844 19.761719 40.867188 17.597656 C 40.417969 14.804688 41.011719 12.199219 42.820312 9.984375 C 44.210938 8.277344 46 7.117188 48.210938 6.726562 C 48.839844 6.617188 49.480469 6.480469 50.109375 6.5 C 52.296875 6.570312 54.300781 7.195312 56 8.636719 C 56.128906 8.746094 56.265625 8.847656 56.398438 8.957031 C 56.773438 9.253906 56.800781 9.527344 56.441406 9.921875 C 55.886719 10.527344 55.300781 11.101562 54.699219 11.660156 C 54.453125 11.886719 54.148438 11.90625 53.851562 11.660156 C 53.066406 11.011719 52.183594 10.535156 51.175781 10.398438 C 49.816406 10.214844 48.523438 10.480469 47.402344 11.285156 C 45.867188 12.390625 45.019531 13.984375 44.980469 15.964844 Z M 44.980469 15.964844 "/>
<path style=" stroke:none;fill-rule:evenodd;fill:rgb(13.33313%,66.665649%,88.626099%);fill-opacity:1;" d="M 53.726562 15.988281 C 53.742188 17.796875 52.3125 19.195312 50.511719 19.199219 C 48.738281 19.203125 47.238281 17.816406 47.285156 15.875 C 47.332031 14.046875 48.699219 12.71875 50.503906 12.714844 C 52.269531 12.710938 53.746094 14.011719 53.726562 15.988281 Z M 53.726562 15.988281 "/>
</g>
</svg>
