<?xml version="1.0" encoding="UTF-8"?>
<svg xmlns="http://www.w3.org/2000/svg" xmlns:xlink="http://www.w3.org/1999/xlink" width="24pt" height="24pt" viewBox="0 0 24 24" version="1.1">
<defs>
<clipPath id="clip1">
  <path d="M 2 2 L 22 2 L 22 22 L 2 22 Z M 2 2 "/>
</clipPath>
<clipPath id="clip2">
  <path d="M 12 2 C 14.753906 2 17.109375 2.976562 19.066406 4.933594 C 21.023438 6.890625 22 9.246094 22 12 C 22 14.753906 21.023438 17.109375 19.066406 19.066406 C 17.109375 21.023438 14.753906 22 12 22 C 9.246094 22 6.890625 21.023438 4.933594 19.066406 C 2.976562 17.109375 2 14.753906 2 12 C 2 9.246094 2.976562 6.890625 4.933594 4.933594 C 6.890625 2.976562 9.246094 2 12 2 Z M 12 3.972656 C 9.808594 3.972656 7.921875 4.761719 6.34375 6.34375 C 4.761719 7.921875 3.972656 9.808594 3.972656 12 C 3.972656 14.191406 4.761719 16.078125 6.34375 17.65625 C 7.921875 19.238281 9.808594 20.027344 12 20.027344 C 14.191406 20.027344 16.078125 19.238281 17.65625 17.65625 C 19.238281 16.078125 20.027344 14.191406 20.027344 12 C 20.027344 9.808594 19.238281 7.921875 17.65625 6.34375 C 16.078125 4.761719 14.191406 3.972656 12 3.972656 Z M 12 3.972656 "/>
</clipPath>
</defs>
<g id="surface1">
<g clip-path="url(#clip1)" clip-rule="nonzero">
<g clip-path="url(#clip2)" clip-rule="evenodd">
<rect x="0" y="0" width="24" height="24" style="fill:rgb(34.901428%,34.901428%,34.901428%);fill-opacity:1;stroke:none;"/>
</g>
</g>
</g>
</svg>
