<?xml version="1.0" encoding="UTF-8"?>
<svg xmlns="http://www.w3.org/2000/svg" xmlns:xlink="http://www.w3.org/1999/xlink" width="20pt" height="20pt" viewBox="0 0 20 20" version="1.1">
<defs>
<clipPath id="clip1">
  <path d="M 3 6 L 17 6 L 17 14 L 3 14 Z M 3 6 "/>
</clipPath>
<clipPath id="clip2">
  <path d="M 16.132812 12.773438 C 16.210938 12.851562 16.25 12.96875 16.25 13.125 C 16.25 13.308594 16.183594 13.457031 16.054688 13.574219 C 15.925781 13.691406 15.769531 13.75 15.585938 13.75 L 4.414062 13.75 C 4.230469 13.75 4.074219 13.691406 3.945312 13.574219 C 3.816406 13.457031 3.75 13.308594 3.75 13.125 C 3.75 12.996094 3.789062 12.890625 3.867188 12.8125 L 3.945312 12.695312 L 9.257812 6.601562 C 9.492188 6.367188 9.738281 6.25 10 6.25 C 10.261719 6.25 10.507812 6.367188 10.742188 6.601562 L 16.054688 12.695312 Z M 16.132812 12.773438 "/>
</clipPath>
</defs>
<g id="surface1">
<g clip-path="url(#clip1)" clip-rule="nonzero">
<g clip-path="url(#clip2)" clip-rule="evenodd">
<path style=" stroke:none;fill-rule:nonzero;fill:rgb(36.077881%,36.077881%,36.077881%);fill-opacity:1;" d="M -1.25 1.25 L 21.25 1.25 L 21.25 18.75 L -1.25 18.75 Z M -1.25 1.25 "/>
</g>
</g>
</g>
</svg>
