<svg width="10" height="6" viewBox="0 0 10 6" fill="none" xmlns="http://www.w3.org/2000/svg">
<path fill-rule="evenodd" clip-rule="evenodd" d="M9.90625 5.21875C9.96875 5.28125 10 5.375 10 5.5C10 5.64583 9.94792 5.76562 9.84375 5.85938C9.73958 5.95313 9.61458 6 9.46875 6H0.53125C0.385416 6 0.260417 5.95313 0.15625 5.85938C0.0520828 5.76562 0 5.64583 0 5.5C0 5.39583 0.0312497 5.3125 0.09375 5.25L0.15625 5.15625L4.40625 0.28125C4.59375 0.09375 4.79167 0 5 0C5.20833 0 5.40625 0.09375 5.59375 0.28125L9.84375 5.15625L9.90625 5.21875Z" fill="#9B9B9B"/>
</svg>
