<svg width="45" height="44" viewBox="0 0 45 44" fill="none" xmlns="http://www.w3.org/2000/svg">
<rect x="0.5" y="22" width="44" height="6.47059" fill="#9B9B9B"/>
<ellipse cx="22.5" cy="28.4708" rx="22" ry="15.5294" fill="#9B9B9B"/>
<path d="M44 22.0001C44 26.0824 41.6566 29.8277 37.768 32.5726C33.8807 35.3166 28.4842 37.0295 22.5 37.0295C16.5158 37.0295 11.1193 35.3166 7.23199 32.5726C3.34338 29.8277 1 26.0824 1 22.0001C1 17.9178 3.34338 14.1725 7.23199 11.4276C11.1193 8.68367 16.5158 6.9707 22.5 6.9707C28.4842 6.9707 33.8807 8.68367 37.768 11.4276C41.6566 14.1725 44 17.9178 44 22.0001Z" fill="white" stroke="#9B9B9B"/>
<path d="M41.8002 22C41.8002 25.3498 39.7225 28.4479 36.2274 30.7323C32.7367 33.0138 27.8848 34.4412 22.5002 34.4412C17.1156 34.4412 12.2637 33.0138 8.77303 30.7323C5.27792 28.4479 3.2002 25.3498 3.2002 22C3.2002 18.6503 5.27792 15.5521 8.77303 13.2678C12.2637 10.9863 17.1156 9.55884 22.5002 9.55884C27.8848 9.55884 32.7367 10.9863 36.2274 13.2678C39.7225 15.5521 41.8002 18.6503 41.8002 22Z" fill="white" stroke="#9B9B9B"/>
<rect x="0.5" y="15.5293" width="44" height="6.47059" fill="#D90101"/>
<ellipse cx="22.5" cy="22.0001" rx="22" ry="15.5294" fill="#D90101"/>
<path d="M44 15.5294C44 19.6117 41.6566 23.357 37.768 26.1019C33.8807 28.8459 28.4842 30.5588 22.5 30.5588C16.5158 30.5588 11.1193 28.8459 7.23199 26.1019C3.34338 23.357 1 19.6117 1 15.5294C1 11.4471 3.34338 7.70185 7.23199 4.95694C11.1193 2.21297 16.5158 0.5 22.5 0.5C28.4842 0.5 33.8807 2.21297 37.768 4.95694C41.6566 7.70185 44 11.4471 44 15.5294Z" fill="#F20000" stroke="#D90101"/>
<path d="M38 15.5295C38 17.921 36.4525 20.2357 33.6358 22.003C30.8326 23.7618 26.8982 24.8824 22.5 24.8824C18.1018 24.8824 14.1674 23.7618 11.3642 22.003C8.54751 20.2357 7 17.921 7 15.5295C7 13.1379 8.54751 10.8232 11.3642 9.05588C14.1674 7.29706 18.1018 6.17651 22.5 6.17651C26.8982 6.17651 30.8326 7.29706 33.6358 9.05588C36.4525 10.8232 38 13.1379 38 15.5295Z" fill="#F20000" stroke="#D90101" stroke-width="2"/>
</svg>
