<?xml version="1.0" encoding="UTF-8"?>
<svg xmlns="http://www.w3.org/2000/svg" xmlns:xlink="http://www.w3.org/1999/xlink" width="32pt" height="32pt" viewBox="0 0 32 32" version="1.1">
<defs>
<clipPath id="clip1">
  <path d="M 16 32 C 24.835938 32 32 24.835938 32 16 C 32 7.164062 24.835938 0 16 0 C 7.164062 0 0 7.164062 0 16 C 0 24.835938 7.164062 32 16 32 Z M 16 32 "/>
</clipPath>
<clipPath id="clip2">
  <path d="M 23 9 L 27 9 L 27 13 L 23 13 Z M 23 9 "/>
</clipPath>
<clipPath id="clip3">
  <path d="M 24.050781 12.367188 C 24.050781 12.367188 24.730469 10.265625 26.316406 10.59375 L 26.902344 9.804688 L 25.097656 9.378906 L 23.296875 10.550781 Z M 24.050781 12.367188 "/>
</clipPath>
<clipPath id="clip4">
  <path d="M 17 12 L 25 12 L 25 21 L 17 21 Z M 17 12 "/>
</clipPath>
<clipPath id="clip5">
  <path d="M 19.324219 15.53125 C 19.425781 15.929688 19.558594 16.238281 19.570312 16.550781 C 19.605469 17.390625 19.574219 18.230469 19.585938 19.070312 C 19.601562 19.867188 19.898438 20.164062 20.683594 19.984375 C 21.089844 19.894531 21.570312 19.625 21.789062 19.289062 C 22.34375 18.425781 22.347656 17.453125 21.886719 16.53125 C 21.460938 15.683594 20.664062 15.515625 19.800781 15.53125 C 19.613281 15.53125 19.425781 15.53125 19.324219 15.53125 M 19.605469 12.34375 L 19.605469 14.5 C 20.089844 14.550781 20.546875 14.582031 20.996094 14.652344 C 23.164062 14.996094 24.445312 16.742188 23.882812 18.625 C 23.460938 20.046875 22.351562 20.6875 20.984375 20.90625 C 20.394531 21 19.765625 20.96875 19.167969 20.878906 C 18.324219 20.75 17.980469 20.261719 17.980469 19.375 C 17.976562 17.441406 18 15.507812 17.964844 13.574219 C 17.957031 13.046875 18.09375 12.757812 18.628906 12.65625 C 18.929688 12.601562 19.21875 12.472656 19.605469 12.34375 "/>
</clipPath>
<clipPath id="clip6">
  <path d="M 5 12 L 12 12 L 12 21 L 5 21 Z M 5 12 "/>
</clipPath>
<clipPath id="clip7">
  <path d="M 6.359375 15.546875 C 6.457031 15.90625 6.597656 16.214844 6.613281 16.527344 C 6.652344 17.429688 6.648438 18.335938 6.644531 19.238281 C 6.640625 19.863281 7.046875 20.050781 7.550781 20.042969 C 8.175781 20.027344 8.6875 19.742188 8.964844 19.148438 C 9.890625 17.167969 8.804688 15.480469 6.644531 15.53125 C 6.519531 15.535156 6.394531 15.546875 6.359375 15.546875 M 6.617188 12.359375 L 6.617188 14.496094 C 7.128906 14.550781 7.582031 14.582031 8.03125 14.652344 C 9.902344 14.941406 11.066406 16.195312 11.039062 17.867188 C 11.015625 19.480469 9.71875 20.738281 7.867188 20.945312 C 7.640625 20.96875 7.40625 20.980469 7.175781 20.976562 C 5.792969 20.9375 4.921875 20.746094 5.003906 18.824219 C 5.082031 17.085938 5.050781 15.339844 5.007812 13.597656 C 4.992188 13.019531 5.183594 12.753906 5.71875 12.640625 C 6 12.585938 6.265625 12.472656 6.617188 12.359375 "/>
</clipPath>
<clipPath id="clip8">
  <path d="M 22 9 L 29 9 L 29 16 L 22 16 Z M 22 9 "/>
</clipPath>
<clipPath id="clip9">
  <path d="M 26.332031 10.527344 C 26.507812 9.960938 26.042969 9.5 25.433594 9.628906 C 23.953125 9.949219 23.539062 10.675781 24.019531 12.121094 C 24.058594 12.238281 24.089844 12.363281 24.136719 12.476562 C 24.664062 13.804688 26.011719 14.234375 26.953125 13.375 C 27.914062 12.496094 27.636719 11.222656 26.332031 10.527344 M 25.824219 9.125 C 27.5625 9.121094 28.898438 10.488281 28.894531 12.277344 C 28.894531 13.839844 27.476562 15.210938 25.863281 15.214844 C 24.261719 15.21875 22.808594 13.792969 22.808594 12.210938 C 22.808594 10.527344 24.171875 9.132812 25.824219 9.125 "/>
</clipPath>
<clipPath id="clip10">
  <path d="M 11 14 L 18 14 L 18 21 L 11 21 Z M 11 14 "/>
</clipPath>
<clipPath id="clip11">
  <path d="M 11.789062 19.808594 C 12.691406 19.871094 13.515625 19.949219 14.347656 19.980469 C 14.789062 20 15.121094 19.785156 15.203125 19.3125 C 15.289062 18.800781 14.957031 18.589844 14.554688 18.449219 C 14.160156 18.308594 13.746094 18.210938 13.363281 18.050781 C 12.960938 17.878906 12.539062 17.703125 12.203125 17.4375 C 11.386719 16.789062 11.429688 15.832031 12.277344 15.210938 C 12.511719 15.042969 12.785156 14.902344 13.058594 14.816406 C 14.261719 14.441406 15.457031 14.511719 16.644531 14.898438 C 16.402344 15.777344 16.402344 15.75 15.539062 15.640625 C 15.027344 15.574219 14.492188 15.554688 13.988281 15.636719 C 13.773438 15.667969 13.472656 15.992188 13.449219 16.210938 C 13.429688 16.417969 13.671875 16.753906 13.886719 16.859375 C 14.390625 17.105469 14.949219 17.242188 15.480469 17.4375 C 16.535156 17.820312 17.078125 18.441406 17.03125 19.195312 C 16.984375 19.941406 16.28125 20.613281 15.253906 20.828125 C 14 21.09375 12.761719 21.011719 11.480469 20.625 C 11.609375 20.292969 11.714844 20.003906 11.789062 19.808594 "/>
</clipPath>
</defs>
<g id="surface1">
<g clip-path="url(#clip1)" clip-rule="evenodd">
<rect x="0" y="0" width="32" height="32" style="fill:rgb(100%,100%,100%);fill-opacity:1;stroke:none;"/>
</g>
<g clip-path="url(#clip2)" clip-rule="nonzero">
<g clip-path="url(#clip3)" clip-rule="nonzero">
<path style=" stroke:none;fill-rule:nonzero;fill:rgb(94.117737%,62.745667%,19.607544%);fill-opacity:1;" d="M 18.296875 4.378906 L 31.902344 4.378906 L 31.902344 17.367188 L 18.296875 17.367188 Z M 18.296875 4.378906 "/>
</g>
</g>
<g clip-path="url(#clip4)" clip-rule="nonzero">
<g clip-path="url(#clip5)" clip-rule="nonzero">
<path style=" stroke:none;fill-rule:nonzero;fill:rgb(29.019165%,7.450867%,4.705811%);fill-opacity:1;" d="M 12.964844 7.34375 L 29.015625 7.34375 L 29.015625 25.960938 L 12.964844 25.960938 Z M 12.964844 7.34375 "/>
</g>
</g>
<g clip-path="url(#clip6)" clip-rule="nonzero">
<g clip-path="url(#clip7)" clip-rule="nonzero">
<path style=" stroke:none;fill-rule:nonzero;fill:rgb(29.019165%,7.450867%,4.705811%);fill-opacity:1;" d="M 0 7.359375 L 16.039062 7.359375 L 16.039062 25.976562 L 0 25.976562 Z M 0 7.359375 "/>
</g>
</g>
<g clip-path="url(#clip8)" clip-rule="nonzero">
<g clip-path="url(#clip9)" clip-rule="nonzero">
<path style=" stroke:none;fill-rule:nonzero;fill:rgb(91.764832%,49.01886%,18.03894%);fill-opacity:1;" d="M 17.808594 4.125 L 33.894531 4.125 L 33.894531 20.214844 L 17.808594 20.214844 Z M 17.808594 4.125 "/>
</g>
</g>
<g clip-path="url(#clip10)" clip-rule="nonzero">
<g clip-path="url(#clip11)" clip-rule="nonzero">
<path style=" stroke:none;fill-rule:nonzero;fill:rgb(29.019165%,7.450867%,4.705811%);fill-opacity:1;" d="M 6.480469 9.570312 L 22.03125 9.570312 L 22.03125 25.984375 L 6.480469 25.984375 Z M 6.480469 9.570312 "/>
</g>
</g>
</g>
</svg>
