<svg width="32" height="32" viewBox="0 0 32 32" fill="none" xmlns="http://www.w3.org/2000/svg">
<path d="M16 32C24.8366 32 32 24.8366 32 16C32 7.16344 24.8366 0 16 0C7.16344 0 0 7.16344 0 16C0 24.8366 7.16344 32 16 32Z" fill="white"/>
<path d="M7.53032 6.03174H23.6248C24.4699 6.03174 25.1551 6.71688 25.1551 7.56203V23.6565C25.1551 24.5016 24.4699 25.1868 23.6248 25.1868H7.53032C6.68514 25.1868 6 24.5016 6 23.6565V7.56203C6 6.71688 6.68514 6.03174 7.53032 6.03174Z" fill="#2052AB"/>
<path d="M7.84546 15.5302C8.1949 15.4348 8.58902 15.3115 8.99048 15.2203C10.6439 14.8446 12.3204 14.6375 14.0135 14.5643C15.6969 14.4916 17.3785 14.5124 19.0561 14.687C20.1931 14.8054 21.3175 14.9953 22.4195 15.3039C22.7131 15.3861 23.0015 15.4867 23.3095 15.5843C20.7033 12.9911 18.1084 10.4093 15.5134 7.8273C12.939 10.4135 10.3758 12.9883 7.84546 15.5302Z" fill="url(#paint0_linear_142_1966)"/>
<path d="M21.0663 15.6177C19.4814 15.6514 17.9005 15.7566 16.3281 15.9654C15.7158 16.0467 15.1028 16.1372 14.5215 16.3552C14.3058 16.4361 14.0917 16.5492 13.9122 16.692C13.6275 16.9185 13.636 17.301 13.9136 17.5359C14.0785 17.6754 14.2574 17.8015 14.4424 17.9133C14.8485 18.159 15.06 18.8295 14.541 19.2003C14.4682 19.2523 14.3975 19.3075 14.3217 19.3545C13.9172 19.6052 13.4758 19.7739 13.0283 19.9272C12.777 20.0132 12.523 20.0908 12.2405 20.1817C13.3515 21.2694 14.4461 22.3408 15.519 23.3912C18.0803 20.844 20.6709 18.2677 23.2615 15.6914C23.2571 15.675 23.2526 15.6586 23.2481 15.6421C22.664 15.6344 22.0797 15.6134 21.4958 15.6134C21.3526 15.6134 21.2094 15.6147 21.0663 15.6177Z" fill="url(#paint1_linear_142_1966)"/>
<defs>
<linearGradient id="paint0_linear_142_1966" x1="13.4773" y1="11.8055" x2="17.3895" y2="12.9778" gradientUnits="userSpaceOnUse">
<stop stop-color="white"/>
<stop offset="1" stop-color="#C6CAD4"/>
</linearGradient>
<linearGradient id="paint1_linear_142_1966" x1="13.8787" y1="18.09" x2="18.8462" y2="22.3881" gradientUnits="userSpaceOnUse">
<stop stop-color="white"/>
<stop offset="0.530782" stop-color="#A29D9D"/>
<stop offset="1" stop-color="white"/>
</linearGradient>
</defs>
</svg>
