<?xml version="1.0" encoding="UTF-8"?>
<svg xmlns="http://www.w3.org/2000/svg" xmlns:xlink="http://www.w3.org/1999/xlink" width="24pt" height="24pt" viewBox="0 0 24 24" version="1.1">
<defs>
<clipPath id="clip1">
  <path d="M 3 3 L 21 3 L 21 21 L 3 21 Z M 3 3 "/>
</clipPath>
<clipPath id="clip2">
  <path d="M 15.503906 14 L 14.707031 14 L 14.433594 13.726562 C 15.40625 12.589844 16 11.113281 16 9.5 C 16 5.910156 13.089844 3 9.5 3 C 5.910156 3 3 5.910156 3 9.5 C 3 13.089844 5.910156 16 9.5 16 C 11.113281 16 12.589844 15.40625 13.726562 14.433594 L 14 14.707031 L 14 15.5 L 19 20.492188 L 20.488281 19 Z M 9.5 14 C 7.015625 14 5 11.984375 5 9.5 C 5 7.015625 7.015625 5 9.5 5 C 11.984375 5 14 7.015625 14 9.5 C 14 11.984375 11.984375 14 9.5 14 Z M 9.5 14 "/>
</clipPath>
</defs>
<g id="surface1">
<g clip-path="url(#clip1)" clip-rule="nonzero">
<g clip-path="url(#clip2)" clip-rule="evenodd">
<rect x="0" y="0" width="24" height="24" style="fill:rgb(90.196228%,90.196228%,90.196228%);fill-opacity:1;stroke:none;"/>
</g>
</g>
</g>
</svg>
