<svg width="32" height="32" viewBox="0 0 32 32" fill="none" xmlns="http://www.w3.org/2000/svg">
<path fill-rule="evenodd" clip-rule="evenodd" d="M10.7916 18.2223L5.65274 24.889H26.3472L19.6805 16.0001L14.5416 22.6667L10.7916 18.2223ZM29.3333 26.3473C29.3333 27.1343 29.0324 27.8288 28.4305 28.4306C27.8287 29.0325 27.1342 29.3334 26.3472 29.3334H5.65274C4.8657 29.3334 4.17126 29.0325 3.5694 28.4306C2.96755 27.8288 2.66663 27.1343 2.66663 26.3473V5.65286C2.66663 4.86582 2.96755 4.17138 3.5694 3.56953C4.17126 2.96767 4.8657 2.66675 5.65274 2.66675H26.3472C27.1342 2.66675 27.8287 2.96767 28.4305 3.56953C29.0324 4.17138 29.3333 4.86582 29.3333 5.65286V26.3473Z" fill="#9B9B9B"/>
</svg>
