<?xml version="1.0" encoding="UTF-8"?>
<svg xmlns="http://www.w3.org/2000/svg" xmlns:xlink="http://www.w3.org/1999/xlink" width="64pt" height="64pt" viewBox="0 0 64 64" version="1.1">
<g id="surface1">
<path style=" stroke:none;fill-rule:nonzero;fill:rgb(34.901428%,34.901428%,34.901428%);fill-opacity:1;" d="M 10.398438 39.199219 L 10.398438 44.457031 C 10.398438 49.507812 14.492188 53.601562 19.542969 53.601562 L 24.800781 53.601562 L 24.800781 57.601562 L 20.113281 57.601562 C 12.539062 57.601562 6.398438 51.460938 6.398438 43.886719 L 6.398438 39.199219 Z M 10.398438 39.199219 "/>
<path style=" stroke:none;fill-rule:nonzero;fill:rgb(34.901428%,34.901428%,34.901428%);fill-opacity:1;" d="M 24.800781 10.398438 L 19.542969 10.398438 C 14.492188 10.398438 10.398438 14.492188 10.398438 19.542969 L 10.398438 24.800781 L 6.398438 24.800781 L 6.398438 20.113281 C 6.398438 12.539062 12.539062 6.398438 20.113281 6.398438 L 24.800781 6.398438 Z M 24.800781 10.398438 "/>
<path style=" stroke:none;fill-rule:nonzero;fill:rgb(34.901428%,34.901428%,34.901428%);fill-opacity:1;" d="M 53.601562 24.800781 L 53.601562 19.542969 C 53.601562 14.492188 49.507812 10.398438 44.457031 10.398438 L 39.199219 10.398438 L 39.199219 6.398438 L 43.886719 6.398438 C 51.460938 6.398438 57.601562 12.539062 57.601562 20.113281 L 57.601562 24.800781 Z M 53.601562 24.800781 "/>
<path style=" stroke:none;fill-rule:nonzero;fill:rgb(34.901428%,34.901428%,34.901428%);fill-opacity:1;" d="M 39.199219 53.601562 L 44.457031 53.601562 C 49.507812 53.601562 53.601562 49.507812 53.601562 44.457031 L 53.601562 39.199219 L 57.601562 39.199219 L 57.601562 43.886719 C 57.601562 51.460938 51.460938 57.601562 43.886719 57.601562 L 39.199219 57.601562 Z M 39.199219 53.601562 "/>
<path style=" stroke:none;fill-rule:nonzero;fill:rgb(34.901428%,34.901428%,34.901428%);fill-opacity:1;" d="M 29.09375 17.601562 C 27.296875 17.601562 25.523438 18.023438 23.917969 18.835938 C 22.308594 19.644531 20.917969 20.820312 19.847656 22.269531 C 18.78125 23.714844 18.066406 25.394531 17.761719 27.167969 C 17.460938 28.941406 17.578125 30.757812 18.109375 32.476562 C 18.636719 34.199219 19.5625 35.769531 20.808594 37.066406 C 22.054688 38.363281 23.589844 39.347656 25.285156 39.945312 C 26.984375 40.542969 28.796875 40.734375 30.582031 40.5 C 32.363281 40.269531 34.070312 39.625 35.558594 38.613281 L 42.664062 45.714844 C 42.863281 45.925781 43.101562 46.09375 43.367188 46.214844 C 43.628906 46.332031 43.914062 46.394531 44.207031 46.398438 C 44.496094 46.40625 44.78125 46.351562 45.050781 46.242188 C 45.320312 46.132812 45.5625 45.972656 45.769531 45.769531 C 45.972656 45.5625 46.132812 45.320312 46.242188 45.050781 C 46.351562 44.78125 46.40625 44.496094 46.398438 44.207031 C 46.394531 43.917969 46.332031 43.632812 46.214844 43.367188 C 46.09375 43.101562 45.925781 42.863281 45.714844 42.667969 L 38.613281 35.5625 C 39.785156 33.832031 40.46875 31.816406 40.582031 29.726562 C 40.695312 27.640625 40.242188 25.5625 39.261719 23.714844 C 38.28125 21.867188 36.820312 20.324219 35.027344 19.246094 C 33.238281 18.167969 31.183594 17.597656 29.09375 17.601562 Z M 21.90625 29.097656 C 21.90625 27.191406 22.664062 25.363281 24.011719 24.015625 C 25.359375 22.667969 27.1875 21.910156 29.09375 21.910156 C 31 21.910156 32.828125 22.667969 34.175781 24.015625 C 35.527344 25.363281 36.28125 27.191406 36.28125 29.097656 C 36.28125 31.003906 35.527344 32.832031 34.175781 34.179688 C 32.828125 35.527344 31 36.285156 29.09375 36.285156 C 27.1875 36.285156 25.359375 35.527344 24.011719 34.179688 C 22.664062 32.832031 21.90625 31.003906 21.90625 29.097656 Z M 21.90625 29.097656 "/>
</g>
</svg>
