<svg width="32" height="32" viewBox="0 0 32 32" fill="none" xmlns="http://www.w3.org/2000/svg">
<path d="M16 32C24.8366 32 32 24.8366 32 16C32 7.16344 24.8366 0 16 0C7.16344 0 0 7.16344 0 16C0 24.8366 7.16344 32 16 32Z" fill="white"/>
<path d="M28.9993 16.0397C28.9993 12.7628 24.4789 10.1099 18.9087 10.1099C14.4525 10.1099 10.6696 11.8107 9.33369 14.1714L9.33715 14.168C9.20985 14.3891 9.14545 14.6273 9.14545 14.8762C9.14545 15.4674 9.51981 15.9892 10.1104 16.3294L15.226 19.2345C15.491 19.3742 15.8061 19.4602 16.1462 19.4602C16.4856 19.4602 16.8022 19.3742 17.068 19.2345L21.9186 16.4824C22.2447 16.2919 22.453 16.0021 22.453 15.6775C22.453 15.3593 22.2537 15.0805 21.948 14.8905L20.1418 13.8666L16.1462 16.1368L13.1234 14.4185C14.2886 13.3814 16.4654 12.6863 18.9609 12.6863C22.6879 12.6863 25.709 14.2419 25.709 16.1641C25.6312 19.1356 21.198 21.4389 15.8107 21.3C10.4186 21.1607 6.11193 18.6372 6.19277 15.6623H6.19098C6.2295 11.7385 11.4579 8.60919 17.8665 8.67185C18.4397 8.67877 18.9967 8.70842 19.5442 8.76115C18.2284 8.28284 16.5869 8 14.8015 8C13.3729 8 12.0374 8.18232 10.8846 8.49645C6.24922 9.74933 3 12.6552 3 16.0397C3 20.5734 8.82017 24.25 16.0016 24.25C23.1795 24.25 29 20.5734 29 16.0397H28.9993Z" fill="#174489"/>
</svg>
