<svg width="44" height="44" viewBox="0 0 44 44" fill="none" xmlns="http://www.w3.org/2000/svg">
<g id="Category=Chicken">
<rect id="Button" x="1" y="1" width="42" height="42" rx="7" fill="white" stroke="#303030" stroke-width="2"/>
<g id="_&#229;&#156;&#150;&#229;&#177;&#164;_1" clip-path="url(#clip0_2640_7678)">
<path id="Vector" d="M22.793 27.6075C22.5103 27.6075 22.216 27.5812 21.9209 27.5295C20.18 27.2242 18.5593 26.4129 16.9669 25.0504C15.4788 23.7762 14.9939 21.7007 15.7889 20.0017C16.4015 18.6927 17.451 17.983 18.9067 17.8932C18.9332 17.8915 18.9589 17.8906 18.9838 17.8906C19.2748 17.8906 19.4422 17.9991 19.5309 18.0907C19.6428 18.206 19.7017 18.3612 19.7009 18.5409C19.7009 18.7274 19.6263 19.1632 18.9581 19.1903C18.2004 19.2208 17.5496 19.5744 17.1269 20.1874C16.6676 20.8512 16.5532 21.7211 16.8127 22.5723C16.9967 23.1785 17.3101 23.6676 17.7436 24.0263C19.1803 25.2158 20.592 25.9381 22.0593 26.2357C22.3238 26.2891 22.5832 26.3162 22.8286 26.3162C23.1196 26.3162 23.4039 26.2781 23.6725 26.2026C24.2429 26.0424 24.6831 25.6897 24.9848 25.1522C24.9185 25.1301 24.8522 25.1089 24.7867 25.0877C24.4277 24.9707 24.0879 24.8605 23.7496 24.7215C23.4678 24.6062 23.3567 24.4332 23.3136 24.3078C23.2738 24.1924 23.2506 24.0085 23.3724 23.783C23.4893 23.5651 23.6759 23.4455 23.8972 23.4455C24.0257 23.4455 24.1625 23.4862 24.3051 23.5676C24.6449 23.7609 25.0238 23.8584 25.4308 23.8584C26.6403 23.8584 27.8838 22.9852 28.2875 22.1704C28.3306 22.0822 28.3505 22.0305 28.3596 22.0008C28.3314 21.989 28.2784 21.9703 28.1831 21.9491C27.645 21.8253 27.107 21.7041 26.5682 21.582C26.0584 21.4667 25.5477 21.3514 25.0379 21.2344C24.378 21.0827 24.3921 20.6367 24.4286 20.4519C24.4924 20.1289 24.7204 19.944 25.0536 19.944C25.134 19.944 25.2236 19.9551 25.3189 19.9763L25.7632 20.0746C26.6702 20.2747 27.6077 20.4816 28.5296 20.6918C28.9913 20.7969 29.3279 21.0326 29.5028 21.3743C29.6802 21.7185 29.6785 22.1424 29.4978 22.5986C29.2425 23.2471 28.7708 23.6956 28.3878 24.0144C27.8556 24.4578 27.2496 24.7825 26.535 25.0072C26.4919 25.0208 26.4372 25.0674 26.4264 25.0894C25.8097 26.6901 24.4849 27.6083 22.793 27.6083V27.6075Z" fill="#D90101"/>
<path id="Vector_2" d="M33.9784 20.4248C33.9278 20.1153 33.7654 19.7024 33.3094 19.3302C33.3774 19.2209 33.4445 19.1081 33.5092 18.9936C33.767 18.5384 33.7869 18.039 33.5681 17.5498C33.4454 17.2751 33.2638 17.0716 33.0375 16.9496C33.045 16.9165 33.0524 16.8826 33.0591 16.8487C33.1503 16.3713 33.0433 15.9008 32.7664 15.5566C32.4987 15.2242 32.1074 15.0411 31.6647 15.0411C31.6042 15.0411 31.5429 15.0445 31.4815 15.0513C31.1275 15.0911 30.7487 15.2421 30.442 15.4642C29.981 15.7982 29.5715 16.1806 29.2325 16.5112C28.726 17.0038 28.1962 17.2997 27.6118 17.4142C26.9494 17.5447 26.4214 17.6058 25.9505 17.6075H25.9124C23.6509 17.6075 22.1579 16.9843 21.0711 15.5863C20.9094 15.3777 20.7428 15.181 20.5579 14.964C20.2164 14.563 19.8873 14.1297 19.569 13.7117C18.9348 12.8783 18.2816 12.0195 17.46 11.3006C17.9649 10.4833 17.9292 9.63883 17.344 8.9326C17.116 8.65791 16.7653 8.42221 16.3799 8.28656C16.2315 8.234 16.0789 8.20772 15.9256 8.20772C15.5733 8.20772 15.2657 8.34421 15.0004 8.50191C14.5934 8.15769 14.2436 8 13.8921 8C13.2919 8 12.8948 8.46291 12.6088 8.95888C12.4985 8.94447 12.3941 8.93769 12.2946 8.93769C11.6124 8.93769 11.1257 9.25901 10.7187 9.9805C10.1774 10.9385 10.2445 12.0203 10.882 12.9487C10.3921 13.4701 10.1003 14.0602 10.0132 14.702C9.95438 15.1352 10.0912 15.4006 10.2155 15.5464C10.373 15.7312 10.6043 15.8338 10.8654 15.8338C10.9077 15.8338 10.95 15.8313 10.9939 15.8262C10.824 16.6503 10.9309 17.5481 11.9564 18.1814C10.8737 21.4769 11.5054 24.3154 13.8349 26.6172C14.8172 27.588 15.9919 28.4103 17.6449 29.2836C17.7941 29.3624 17.8505 29.4311 17.8977 29.5897C18.202 30.6121 18.6272 31.7262 19.8152 32.2213V32.5163C19.8152 32.9945 19.8152 33.4633 19.8152 33.933C19.8152 34.0738 19.8036 34.1433 19.7953 34.1755C19.7646 34.1848 19.695 34.1992 19.5549 34.2043C19.37 34.2111 19.1843 34.2111 19.0119 34.2111H18.7143C18.6049 34.2111 18.4946 34.2111 18.3852 34.2128C18.0569 34.217 17.8563 34.3578 17.746 34.4748C17.6374 34.5901 17.5098 34.7952 17.5164 35.1191C17.5272 35.6253 17.8845 35.9788 18.386 35.9788C18.4987 35.9788 18.6123 35.9797 18.7251 35.9813C18.8419 35.9822 18.9597 35.9839 19.0765 35.9839C19.3742 35.9839 19.603 35.9763 19.8168 35.9593C20.33 35.9195 20.766 35.6973 21.0728 35.3523C21.1084 35.4989 21.1772 35.6287 21.2742 35.7312C21.4151 35.8805 21.6091 35.9627 21.8188 35.9627H21.8653C22.0128 35.9627 22.1654 35.9712 22.327 35.9805C22.4945 35.9907 22.6677 36 22.8426 36C23.3185 36 23.8938 35.9296 24.3721 35.4625C24.4144 35.5032 24.4567 35.5439 24.4981 35.5846C24.7095 35.7897 24.9698 36 25.2956 36C25.5194 36 25.7225 35.9008 25.9008 35.7058C26.3808 35.1776 26.0508 34.6435 25.6894 34.2883C25.6247 34.2247 25.5584 34.1611 25.4929 34.0975C25.3512 33.9602 25.2169 33.8304 25.0884 33.6956C25.0826 33.2599 25.0826 32.8241 25.0834 32.3646V32.3018C25.7897 32.1009 26.2506 31.5769 26.6659 31.1056L26.7654 30.9928C27.4095 30.2671 28.1631 29.4294 28.9572 28.6757C30.4055 27.3022 31.4243 25.827 32.0734 24.1645C32.3694 23.4065 32.8029 22.7181 33.3998 22.0593C33.9909 21.4074 34.0389 20.8105 33.9759 20.4248H33.9784ZM11.8892 10.5282C12.1106 10.1857 12.2813 10.1458 12.6453 10.3306C12.7099 10.3637 12.7713 10.4044 12.8384 10.4315C13.1559 10.5579 13.4137 10.4298 13.5132 10.095C13.5489 9.97457 13.5621 9.8457 13.6044 9.72785C13.7437 9.33446 14.0736 9.27173 14.343 9.58287C14.789 10.0975 15.0012 10.117 15.5301 9.69055C15.8137 9.46248 16.0192 9.44892 16.2497 9.64307C16.5166 9.86774 16.6111 10.3027 16.4561 10.5892C16.316 10.8478 15.996 10.9877 15.7274 10.9046C15.1132 10.7147 14.4939 10.6503 13.8697 10.8444C13.1932 11.0547 12.6942 11.4845 12.3742 12.1297C12.3236 12.2306 12.2755 12.3332 12.1802 12.5307C12.0053 12.3078 11.8163 12.1501 11.735 11.9466C11.5402 11.4582 11.6041 10.9716 11.8909 10.5282H11.8892ZM11.5245 14.3773C11.6223 13.8567 12.0169 13.6677 12.4347 13.443C12.5068 13.5557 12.5997 13.6558 12.6428 13.7745C12.7331 14.0254 12.6328 14.1568 12.3758 14.2001C12.1031 14.2459 11.8337 14.312 11.5245 14.3773ZM12.3087 16.7919C12.026 16.3179 12.2382 15.6024 12.7373 15.2031C13.1526 15.5668 13.3474 16.245 13.1377 16.7444C13.0755 16.8928 12.8906 17.0818 12.7613 17.0818C12.6071 17.0818 12.3949 16.9368 12.3087 16.791V16.7919ZM19.6883 30.5104C19.5002 30.2408 19.3742 29.9254 19.22 29.6312C19.2407 29.6066 19.2606 29.582 19.2813 29.5574C20.039 29.8372 20.7975 30.117 21.5826 30.4061C20.9957 31.2768 20.2413 31.3048 19.6883 30.5095V30.5104ZM23.3284 34.0568C23.3143 34.0882 23.2712 34.1458 23.2223 34.1874C23.1792 34.1967 23.0847 34.2001 23.0258 34.2018L22.9546 34.2043C22.7796 34.2111 22.6047 34.212 22.4199 34.2128C22.23 34.2128 22.0344 34.2136 21.8371 34.2221C21.7301 34.2264 21.6307 34.2493 21.5403 34.2866C21.5502 34.2035 21.5552 34.1187 21.556 34.0314C21.5577 33.7728 21.5577 33.5142 21.5569 33.2565C21.5569 32.8809 21.556 32.4926 21.5619 32.1119C21.8089 31.9169 22.0659 31.727 22.3361 31.5261C22.356 31.5108 22.3767 31.4964 22.3975 31.4811L22.4704 31.5303C22.7573 31.7236 23.0532 31.9228 23.3409 32.1238C23.3417 32.2094 23.3425 32.2942 23.3433 32.3798C23.35 32.9326 23.3566 33.504 23.3284 34.0577V34.0568ZM32.6703 20.8529C32.657 20.9657 32.565 21.0827 32.4804 21.1708C31.7493 21.9415 31.222 22.847 30.8299 23.8338C30.2588 25.2717 29.3734 26.468 28.2858 27.5422C27.2902 28.5256 26.3542 29.5735 25.4084 30.6079C24.8446 31.2242 24.1558 31.3311 23.5464 30.7791C22.618 29.9373 21.5245 29.4498 20.3665 29.0589C18.2069 28.3298 16.2787 27.1827 14.6232 25.5854C12.2142 23.2607 12.3203 20.0729 13.548 17.7185C14.028 16.7986 14.1673 15.9008 13.6757 14.9758C13.4975 14.6401 13.4311 14.3459 13.4461 13.9602C13.4593 13.6219 13.2819 13.2548 13.1194 12.9377C13.0307 12.7647 13.0001 12.6486 13.0788 12.4816C13.3955 11.8067 13.9584 11.5685 14.7136 11.5413C15.7051 11.6125 16.5747 12.0797 17.2519 12.897C18.2484 14.0992 19.2133 15.3277 20.2031 16.5358C21.3621 17.95 22.8783 18.6511 24.649 18.8368C25.9779 18.9767 27.3034 18.997 28.5602 18.4722C29.0559 18.2654 29.5077 17.9254 29.9429 17.5956C30.374 17.27 30.7445 16.8622 31.1723 16.5316C31.3223 16.4154 31.6332 16.3162 31.746 16.3951C31.9698 16.5528 31.8438 16.8385 31.7418 17.0572C31.6805 17.1886 31.5453 17.2878 31.5006 17.4209C31.4517 17.5651 31.4094 17.7702 31.4757 17.8796C31.542 17.9898 31.7493 18.0763 31.8852 18.0653C32.4705 18.0153 32.5882 18.1424 32.3321 18.6927C32.1704 19.0403 31.9375 19.3582 31.7095 19.6685C31.5644 19.866 31.4724 20.0475 31.6282 20.2662C31.7758 20.4731 31.9648 20.4485 32.1837 20.3705C32.3105 20.3256 32.5343 20.3137 32.5957 20.3883C32.6819 20.4934 32.6893 20.6978 32.6711 20.8521L32.6703 20.8529Z" fill="#D90101"/>
<path id="Vector_3" d="M15.6363 13.081C15.6379 13.5083 15.3121 13.8415 14.8935 13.8398C14.4889 13.8381 14.1681 13.5159 14.1582 13.103C14.1482 12.6817 14.4773 12.3281 14.886 12.3205C15.2922 12.3129 15.6329 12.6588 15.6354 13.081H15.6363Z" fill="#D90101"/>
</g>
</g>
<defs>
<clipPath id="clip0_2640_7678">
<rect width="24" height="28" fill="white" transform="translate(10 8)"/>
</clipPath>
</defs>
</svg>
