<?xml version="1.0" encoding="UTF-8"?>
<svg xmlns="http://www.w3.org/2000/svg" xmlns:xlink="http://www.w3.org/1999/xlink" width="32pt" height="32pt" viewBox="0 0 32 32" version="1.1">
<defs>
<clipPath id="clip1">
  <path d="M 16 32 C 24.835938 32 32 24.835938 32 16 C 32 7.164062 24.835938 0 16 0 C 7.164062 0 0 7.164062 0 16 C 0 24.835938 7.164062 32 16 32 Z M 16 32 "/>
</clipPath>
<clipPath id="clip2">
  <path d="M 6 6 L 18 6 L 18 18 L 6 18 Z M 6 6 "/>
</clipPath>
<clipPath id="clip3">
  <path d="M 6.042969 6.105469 L 6.441406 6.105469 C 8.660156 6.105469 10.878906 6.09375 13.097656 6.121094 C 13.480469 6.125 13.917969 6.230469 14.238281 6.433594 C 16.277344 7.722656 17.300781 9.609375 17.398438 12.007812 C 17.40625 12.136719 17.375 12.261719 17.363281 12.382812 C 16.730469 12.476562 16.125 12.558594 15.523438 12.660156 C 15.242188 12.710938 14.96875 12.8125 14.691406 12.878906 C 13.664062 13.132812 13.042969 13.796875 12.804688 14.8125 C 12.644531 15.507812 12.53125 16.21875 12.402344 16.921875 C 12.371094 17.082031 12.351562 17.25 12.328125 17.429688 C 11.347656 17.46875 10.421875 17.355469 9.539062 16.996094 C 8.1875 16.445312 7.09375 15.554688 6.335938 14.292969 C 6.164062 14.003906 6.035156 13.636719 6.03125 13.304688 C 6.003906 10.980469 6.015625 8.65625 6.015625 6.332031 C 6.015625 6.269531 6.03125 6.207031 6.042969 6.105469 "/>
</clipPath>
<clipPath id="clip4">
  <path d="M 13 13 L 26 13 L 26 26 L 13 26 Z M 13 13 "/>
</clipPath>
<clipPath id="clip5">
  <path d="M 18.78125 13.851562 C 20.679688 13.738281 22.292969 14.316406 23.648438 15.585938 C 23.988281 15.902344 24.289062 16.269531 24.585938 16.632812 C 24.980469 17.113281 25.132812 17.671875 25.128906 18.304688 C 25.105469 20.445312 25.109375 22.585938 25.121094 24.726562 C 25.125 25.074219 25.023438 25.167969 24.683594 25.167969 C 22.515625 25.160156 20.347656 25.164062 18.183594 25.1875 C 17.15625 25.199219 16.4375 24.625 15.773438 23.972656 C 14.445312 22.667969 13.75 21.082031 13.75 19.203125 C 13.75 18.921875 13.835938 18.847656 14.117188 18.796875 C 15.023438 18.636719 15.933594 18.460938 16.824219 18.222656 C 17.488281 18.042969 17.96875 17.578125 18.152344 16.898438 C 18.367188 16.09375 18.53125 15.277344 18.707031 14.464844 C 18.746094 14.277344 18.753906 14.078125 18.78125 13.851562 "/>
</clipPath>
<clipPath id="clip6">
  <path d="M 6 16 L 15 16 L 15 26 L 6 26 Z M 6 16 "/>
</clipPath>
<clipPath id="clip7">
  <path d="M 6.425781 16.503906 C 7.960938 18.28125 9.976562 18.910156 12.261719 18.929688 C 12.28125 21.269531 13.035156 23.265625 14.824219 24.929688 C 14.566406 25.035156 14.367188 25.183594 14.167969 25.183594 C 11.554688 25.195312 8.945312 25.1875 6.332031 25.183594 C 6.230469 25.183594 6.128906 25.167969 6 25.15625 C 6 24.964844 6 24.796875 6 24.628906 C 6.003906 22.148438 6.007812 19.667969 6 17.1875 C 6 16.875 6.089844 16.660156 6.425781 16.503906 "/>
</clipPath>
<clipPath id="clip8">
  <path d="M 16 6 L 26 6 L 26 15 L 16 15 Z M 16 6 "/>
</clipPath>
<clipPath id="clip9">
  <path d="M 24.765625 14.800781 C 23.199219 13.058594 21.199219 12.347656 18.875 12.339844 C 18.835938 10.054688 18.195312 8.03125 16.441406 6.480469 C 16.585938 6.175781 16.800781 6.078125 17.128906 6.078125 C 19.636719 6.089844 22.144531 6.085938 24.652344 6.085938 L 25.117188 6.085938 C 25.125 6.253906 25.140625 6.390625 25.140625 6.527344 C 25.144531 9.0625 25.148438 11.59375 25.132812 14.128906 C 25.132812 14.355469 24.992188 14.578125 24.917969 14.804688 Z M 24.765625 14.800781 "/>
</clipPath>
<clipPath id="clip10">
  <path d="M 13 13 L 18 13 L 18 18 L 13 18 Z M 13 13 "/>
</clipPath>
<clipPath id="clip11">
  <path d="M 17.457031 13.679688 C 17.449219 14.621094 17.414062 15.457031 17.101562 16.261719 C 16.933594 16.691406 16.648438 16.972656 16.214844 17.136719 C 15.410156 17.445312 14.570312 17.46875 13.679688 17.488281 C 13.742188 16.585938 13.746094 15.707031 14.09375 14.867188 C 14.296875 14.382812 14.691406 14.132812 15.160156 14.035156 C 15.894531 13.886719 16.644531 13.800781 17.457031 13.679688 "/>
</clipPath>
</defs>
<g id="surface1">
<g clip-path="url(#clip1)" clip-rule="evenodd">
<rect x="0" y="0" width="32" height="32" style="fill:rgb(100%,100%,100%);fill-opacity:1;stroke:none;"/>
</g>
<g clip-path="url(#clip2)" clip-rule="nonzero">
<g clip-path="url(#clip3)" clip-rule="nonzero">
<path style=" stroke:none;fill-rule:nonzero;fill:rgb(79.608154%,38.822937%,17.254639%);fill-opacity:1;" d="M 1.015625 1.101562 L 22.402344 1.101562 L 22.402344 22.4375 L 1.015625 22.4375 Z M 1.015625 1.101562 "/>
</g>
</g>
<g clip-path="url(#clip4)" clip-rule="nonzero">
<g clip-path="url(#clip5)" clip-rule="nonzero">
<path style=" stroke:none;fill-rule:nonzero;fill:rgb(79.608154%,38.822937%,17.254639%);fill-opacity:1;" d="M 8.75 8.835938 L 30.128906 8.835938 L 30.128906 30.1875 L 8.75 30.1875 Z M 8.75 8.835938 "/>
</g>
</g>
<g clip-path="url(#clip6)" clip-rule="nonzero">
<g clip-path="url(#clip7)" clip-rule="nonzero">
<path style=" stroke:none;fill-rule:nonzero;fill:rgb(69.804382%,18.431091%,18.03894%);fill-opacity:1;" d="M 1 11.503906 L 19.824219 11.503906 L 19.824219 30.191406 L 1 30.191406 Z M 1 11.503906 "/>
</g>
</g>
<g clip-path="url(#clip8)" clip-rule="nonzero">
<g clip-path="url(#clip9)" clip-rule="nonzero">
<path style=" stroke:none;fill-rule:nonzero;fill:rgb(69.804382%,18.431091%,18.03894%);fill-opacity:1;" d="M 11.441406 1.078125 L 30.144531 1.078125 L 30.144531 19.804688 L 11.441406 19.804688 Z M 11.441406 1.078125 "/>
</g>
</g>
<g clip-path="url(#clip10)" clip-rule="nonzero">
<g clip-path="url(#clip11)" clip-rule="nonzero">
<path style=" stroke:none;fill-rule:nonzero;fill:rgb(69.804382%,18.431091%,18.03894%);fill-opacity:1;" d="M 8.679688 8.679688 L 22.457031 8.679688 L 22.457031 22.488281 L 8.679688 22.488281 Z M 8.679688 8.679688 "/>
</g>
</g>
</g>
</svg>
