<?xml version="1.0" encoding="UTF-8"?>
<svg xmlns="http://www.w3.org/2000/svg" xmlns:xlink="http://www.w3.org/1999/xlink" width="24pt" height="24pt" viewBox="0 0 24 24" version="1.1">
<defs>
<clipPath id="clip1">
  <path d="M 2 5 L 22 5 L 22 19 L 2 19 Z M 2 5 "/>
</clipPath>
<clipPath id="clip2">
  <path d="M 12 9.199219 C 12.738281 9.199219 13.375 9.476562 13.914062 10.03125 C 14.453125 10.585938 14.722656 11.242188 14.722656 12 C 14.722656 12.757812 14.453125 13.414062 13.914062 13.96875 C 13.375 14.523438 12.738281 14.800781 12 14.800781 C 11.261719 14.800781 10.625 14.523438 10.085938 13.96875 C 9.546875 13.414062 9.277344 12.757812 9.277344 12 C 9.277344 11.242188 9.546875 10.585938 10.085938 10.03125 C 10.625 9.476562 11.261719 9.199219 12 9.199219 Z M 12 16.679688 C 13.25 16.679688 14.320312 16.222656 15.210938 15.304688 C 16.105469 14.382812 16.554688 13.285156 16.554688 12 C 16.554688 10.714844 16.105469 9.617188 15.210938 8.695312 C 14.320312 7.777344 13.25 7.320312 12 7.320312 C 10.75 7.320312 9.679688 7.777344 8.789062 8.695312 C 7.894531 9.617188 7.445312 10.714844 7.445312 12 C 7.445312 13.285156 7.894531 14.382812 8.789062 15.304688 C 9.679688 16.222656 10.75 16.679688 12 16.679688 Z M 12 5 C 14.242188 5 16.269531 5.640625 18.085938 6.925781 C 19.902344 8.207031 21.207031 9.898438 22 12 C 21.207031 14.101562 19.902344 15.792969 18.085938 17.074219 C 16.269531 18.359375 14.242188 19 12 19 C 9.757812 19 7.730469 18.359375 5.914062 17.074219 C 4.097656 15.792969 2.792969 14.101562 2 12 C 2.792969 9.898438 4.097656 8.207031 5.914062 6.925781 C 7.730469 5.640625 9.757812 5 12 5 Z M 12 5 "/>
</clipPath>
</defs>
<g id="surface1">
<g clip-path="url(#clip1)" clip-rule="nonzero">
<g clip-path="url(#clip2)" clip-rule="evenodd">
<rect x="0" y="0" width="24" height="24" style="fill:rgb(60.784912%,60.784912%,60.784912%);fill-opacity:1;stroke:none;"/>
</g>
</g>
</g>
</svg>
