<?xml version="1.0" encoding="UTF-8"?>
<svg xmlns="http://www.w3.org/2000/svg" xmlns:xlink="http://www.w3.org/1999/xlink" width="24pt" height="24pt" viewBox="0 0 24 24" version="1.1">
<g id="surface1">
<path style=" stroke:none;fill-rule:nonzero;fill:rgb(34.901428%,34.901428%,34.901428%);fill-opacity:1;" d="M 20 0 L 4 0 C 1.789062 0 0 1.789062 0 4 L 0 20 C 0 22.210938 1.789062 24 4 24 L 20 24 C 22.210938 24 24 22.210938 24 20 L 24 4 C 24 1.789062 22.210938 0 20 0 Z M 20 0 "/>
<path style=" stroke:none;fill-rule:nonzero;fill:rgb(20.391846%,20.391846%,20.391846%);fill-opacity:1;" d="M 12 15.671875 L 12.136719 15.808594 L 18.269531 12.179688 L 12.136719 2 L 12 2.457031 Z M 12 15.671875 "/>
<path style=" stroke:none;fill-rule:nonzero;fill:rgb(54.901123%,54.901123%,54.901123%);fill-opacity:1;" d="M 12.136719 15.808594 L 12.136719 2 L 6 12.179688 Z M 12.136719 15.808594 "/>
<path style=" stroke:none;fill-rule:nonzero;fill:rgb(23.529053%,23.529053%,23.136902%);fill-opacity:1;" d="M 12.058594 21.769531 L 12.136719 21.988281 L 18.273438 13.34375 L 12.136719 16.96875 L 12.058594 17.0625 Z M 12.058594 21.769531 "/>
<path style=" stroke:none;fill-rule:nonzero;fill:rgb(54.901123%,54.901123%,54.901123%);fill-opacity:1;" d="M 6 13.34375 L 12.136719 21.988281 L 12.136719 16.96875 Z M 6 13.34375 "/>
<path style=" stroke:none;fill-rule:nonzero;fill:rgb(7.843018%,7.843018%,7.843018%);fill-opacity:1;" d="M 12.136719 9.390625 L 12.136719 15.804688 L 18.269531 12.179688 Z M 12.136719 9.390625 "/>
<path style=" stroke:none;fill-rule:nonzero;fill:rgb(22.3526%,22.3526%,22.3526%);fill-opacity:1;" d="M 12.136719 9.390625 L 6 12.179688 L 12.136719 15.804688 Z M 12.136719 9.390625 "/>
</g>
</svg>
