<svg width="291" height="239" viewBox="0 0 291 239" fill="none" xmlns="http://www.w3.org/2000/svg">
<g clip-path="url(#clip0_928_22147)">
<path d="M7.532 213.573H13.468V212.821H7.532V213.573ZM7.484 211.357L7.796 212.117L13.732 209.709V209.685L7.796 207.277L7.484 208.037L11.58 209.685V209.709L7.484 211.357ZM14.884 213.501H18.204V212.549H17.212V207.709H16.348C15.988 207.949 15.628 208.101 15.068 208.205V208.941H16.036V212.549H14.884V213.501ZM20.5 213.597C21.516 213.597 22.188 212.613 22.188 210.565C22.188 208.525 21.516 207.613 20.5 207.613C19.492 207.613 18.812 208.525 18.812 210.565C18.812 212.613 19.492 213.597 20.5 213.597ZM20.5 212.685C20.188 212.685 19.932 212.237 19.932 210.565C19.932 208.893 20.188 208.517 20.5 208.517C20.812 208.517 21.068 208.893 21.068 210.565C21.068 212.237 20.812 212.685 20.5 212.685ZM24.5 213.597C25.516 213.597 26.188 212.613 26.188 210.565C26.188 208.525 25.516 207.613 24.5 207.613C23.492 207.613 22.812 208.525 22.812 210.565C22.812 212.613 23.492 213.597 24.5 213.597ZM24.5 212.685C24.188 212.685 23.932 212.237 23.932 210.565C23.932 208.893 24.188 208.517 24.5 208.517C24.812 208.517 25.068 208.893 25.068 210.565C25.068 212.237 24.812 212.685 24.5 212.685Z" fill="#4D4C4D"/>
<path fill-rule="evenodd" clip-rule="evenodd" d="M0 203.129H36V37.5007H0V203.129Z" fill="#FBEDCA"/>
<path fill-rule="evenodd" clip-rule="evenodd" d="M0 203.501H36V173.501H0V203.501Z" fill="#F2B819"/>
<path d="M13.37 189.501H17.63V188.281H16.4C16.05 188.281 15.72 188.311 15.33 188.351C16.43 186.931 17.35 185.581 17.35 184.311C17.35 182.991 16.55 182.121 15.37 182.121C14.49 182.121 13.9 182.501 13.29 183.171L14.12 183.991C14.41 183.611 14.76 183.291 15.18 183.291C15.67 183.291 15.93 183.701 15.93 184.391C15.93 185.641 14.92 186.921 13.37 188.661V189.501ZM20.34 189.621C21.5 189.621 22.5 188.731 22.5 187.131C22.5 185.591 21.63 184.881 20.73 184.881C20.5 184.881 20.31 184.931 20.11 185.011L20.24 183.501H22.28V182.261H18.97L18.78 185.801L19.45 186.231C19.75 186.011 19.91 185.921 20.19 185.921C20.66 185.921 21.03 186.381 21.03 187.161C21.03 187.981 20.66 188.421 20.14 188.421C19.65 188.421 19.27 188.151 18.97 187.821L18.28 188.731C18.76 189.241 19.39 189.621 20.34 189.621Z" fill="#FEFEFE"/>
<path d="M49.3653 213.573H55.3013V212.821H49.3653V213.573ZM49.3173 211.357L49.6293 212.117L55.5653 209.709V209.685L49.6293 207.277L49.3173 208.037L53.4133 209.685V209.709L49.3173 211.357ZM58.1973 213.597C59.1413 213.597 59.9173 213.005 59.9173 211.981C59.9173 211.173 59.4933 210.685 58.9973 210.501V210.469C59.4853 210.221 59.7813 209.789 59.7813 209.117C59.7813 208.165 59.1413 207.613 58.1653 207.613C57.5653 207.613 57.0533 207.901 56.5973 208.349L57.2133 209.061C57.5093 208.741 57.7573 208.541 58.0533 208.541C58.4453 208.541 58.6693 208.789 58.6693 209.229C58.6693 209.733 58.3733 210.117 57.5733 210.117V210.957C58.5173 210.957 58.7973 211.309 58.7973 211.885C58.7973 212.389 58.4693 212.637 58.0453 212.637C57.6773 212.637 57.3333 212.405 57.0533 212.037L56.4693 212.773C56.8293 213.245 57.3813 213.597 58.1973 213.597ZM62.3333 213.597C63.3493 213.597 64.0213 212.613 64.0213 210.565C64.0213 208.525 63.3493 207.613 62.3333 207.613C61.3253 207.613 60.6453 208.525 60.6453 210.565C60.6453 212.613 61.3253 213.597 62.3333 213.597ZM62.3333 212.685C62.0213 212.685 61.7653 212.237 61.7653 210.565C61.7653 208.893 62.0213 208.517 62.3333 208.517C62.6453 208.517 62.9013 208.893 62.9013 210.565C62.9013 212.237 62.6453 212.685 62.3333 212.685ZM66.3333 213.597C67.3493 213.597 68.0213 212.613 68.0213 210.565C68.0213 208.525 67.3493 207.613 66.3333 207.613C65.3253 207.613 64.6453 208.525 64.6453 210.565C64.6453 212.613 65.3253 213.597 66.3333 213.597ZM66.3333 212.685C66.0213 212.685 65.7653 212.237 65.7653 210.565C65.7653 208.893 66.0213 208.517 66.3333 208.517C66.6453 208.517 66.9013 208.893 66.9013 210.565C66.9013 212.237 66.6453 212.685 66.3333 212.685Z" fill="#4D4C4D"/>
<path fill-rule="evenodd" clip-rule="evenodd" d="M41.8333 203.129H77.8333V37.5007H41.8333V203.129Z" fill="#FBEDCA"/>
<path fill-rule="evenodd" clip-rule="evenodd" d="M41.8333 203.501H77.8333V153.501H41.8333V203.501Z" fill="#F2B819"/>
<path d="M56.3233 166.571L57.1233 164.761C57.2633 164.361 57.4633 163.801 57.6033 163.331H57.6433C57.6133 163.841 57.5933 164.461 57.5933 164.911V166.571H56.3233ZM59.5933 166.571H58.9433V162.261H57.0433L55.0833 166.691V167.701H57.5933V169.501H58.9433V167.701H59.5933V166.571ZM62.3333 169.621C63.6033 169.621 64.4433 168.391 64.4433 165.831C64.4433 163.281 63.6033 162.141 62.3333 162.141C61.0733 162.141 60.2233 163.281 60.2233 165.831C60.2233 168.391 61.0733 169.621 62.3333 169.621ZM62.3333 168.481C61.9433 168.481 61.6233 167.921 61.6233 165.831C61.6233 163.741 61.9433 163.271 62.3333 163.271C62.7233 163.271 63.0433 163.741 63.0433 165.831C63.0433 167.921 62.7233 168.481 62.3333 168.481Z" fill="#FEFEFE"/>
<path d="M86.1987 213.573H92.1347V212.821H86.1987V213.573ZM86.1507 211.357L86.4627 212.117L92.3987 209.709V209.685L86.4627 207.277L86.1507 208.037L90.2467 209.685V209.709L86.1507 211.357ZM93.5507 213.501H96.8707V212.549H95.8787V207.709H95.0147C94.6547 207.949 94.2947 208.101 93.7347 208.205V208.941H94.7027V212.549H93.5507V213.501ZM98.5267 215.213C99.4867 214.893 100.031 214.157 100.031 213.229C100.031 212.509 99.7187 212.069 99.1827 212.069C98.7667 212.069 98.4227 212.333 98.4227 212.765C98.4227 213.213 98.7747 213.477 99.1667 213.477C99.1907 213.477 99.2147 213.477 99.2387 213.477C99.2227 213.933 98.8787 214.341 98.2627 214.565L98.5267 215.213ZM103.167 213.597C104.183 213.597 104.855 212.613 104.855 210.565C104.855 208.525 104.183 207.613 103.167 207.613C102.159 207.613 101.479 208.525 101.479 210.565C101.479 212.613 102.159 213.597 103.167 213.597ZM103.167 212.685C102.855 212.685 102.599 212.237 102.599 210.565C102.599 208.893 102.855 208.517 103.167 208.517C103.479 208.517 103.735 208.893 103.735 210.565C103.735 212.237 103.479 212.685 103.167 212.685ZM107.167 213.597C108.183 213.597 108.855 212.613 108.855 210.565C108.855 208.525 108.183 207.613 107.167 207.613C106.159 207.613 105.479 208.525 105.479 210.565C105.479 212.613 106.159 213.597 107.167 213.597ZM107.167 212.685C106.855 212.685 106.599 212.237 106.599 210.565C106.599 208.893 106.855 208.517 107.167 208.517C107.479 208.517 107.735 208.893 107.735 210.565C107.735 212.237 107.479 212.685 107.167 212.685ZM111.167 213.597C112.183 213.597 112.855 212.613 112.855 210.565C112.855 208.525 112.183 207.613 111.167 207.613C110.159 207.613 109.479 208.525 109.479 210.565C109.479 212.613 110.159 213.597 111.167 213.597ZM111.167 212.685C110.855 212.685 110.599 212.237 110.599 210.565C110.599 208.893 110.855 208.517 111.167 208.517C111.479 208.517 111.735 208.893 111.735 210.565C111.735 212.237 111.479 212.685 111.167 212.685Z" fill="#4D4C4D"/>
<path fill-rule="evenodd" clip-rule="evenodd" d="M83.6667 203.129H119.667V37.5007H83.6667V203.129Z" fill="#FBEDCA"/>
<path fill-rule="evenodd" clip-rule="evenodd" d="M83.6667 203.501H119.667V133.501H83.6667V203.501Z" fill="#F2B819"/>
<path d="M94.6467 149.501H98.7967V148.311H97.5567V142.261H96.4767C96.0267 142.561 95.5767 142.751 94.8767 142.881V143.801H96.0867V148.311H94.6467V149.501ZM99.6467 149.501H103.797V148.311H102.557V142.261H101.477C101.027 142.561 100.577 142.751 99.8767 142.881V143.801H101.087V148.311H99.6467V149.501ZM106.667 149.621C108.027 149.621 108.797 148.781 108.797 147.701C108.797 146.761 108.297 146.191 107.727 145.771V145.731C108.177 145.341 108.557 144.771 108.557 144.001C108.557 142.911 107.817 142.141 106.697 142.141C105.517 142.141 104.697 142.881 104.697 144.011C104.697 144.761 105.087 145.381 105.547 145.791V145.831C104.987 146.271 104.537 146.761 104.537 147.721C104.537 148.821 105.367 149.621 106.667 149.621ZM106.887 145.281C106.387 144.991 106.037 144.571 106.037 144.001C106.037 143.461 106.297 143.171 106.667 143.171C107.077 143.171 107.327 143.561 107.327 144.081C107.327 144.531 107.177 144.921 106.887 145.281ZM106.677 148.601C106.187 148.601 105.847 148.231 105.847 147.651C105.847 147.081 106.067 146.671 106.347 146.351C106.997 146.771 107.367 147.121 107.367 147.781C107.367 148.291 107.137 148.601 106.677 148.601Z" fill="#FEFEFE"/>
<path d="M128.032 213.073H133.968V212.321H128.032V213.073ZM127.984 210.857L128.296 211.617L134.232 209.209V209.185L128.296 206.777L127.984 207.537L132.08 209.185V209.209L127.984 210.857ZM136.864 213.097C137.808 213.097 138.584 212.505 138.584 211.481C138.584 210.673 138.16 210.185 137.664 210.001V209.969C138.152 209.721 138.448 209.289 138.448 208.617C138.448 207.665 137.808 207.113 136.832 207.113C136.232 207.113 135.72 207.401 135.264 207.849L135.88 208.561C136.176 208.241 136.424 208.041 136.72 208.041C137.112 208.041 137.336 208.289 137.336 208.729C137.336 209.233 137.04 209.617 136.24 209.617V210.457C137.184 210.457 137.464 210.809 137.464 211.385C137.464 211.889 137.136 212.137 136.712 212.137C136.344 212.137 136 211.905 135.72 211.537L135.136 212.273C135.496 212.745 136.048 213.097 136.864 213.097ZM140.36 214.713C141.32 214.393 141.864 213.657 141.864 212.729C141.864 212.009 141.552 211.569 141.016 211.569C140.6 211.569 140.256 211.833 140.256 212.265C140.256 212.713 140.608 212.977 141 212.977C141.024 212.977 141.048 212.977 141.072 212.977C141.056 213.433 140.712 213.841 140.096 214.065L140.36 214.713ZM145 213.097C146.016 213.097 146.688 212.113 146.688 210.065C146.688 208.025 146.016 207.113 145 207.113C143.992 207.113 143.312 208.025 143.312 210.065C143.312 212.113 143.992 213.097 145 213.097ZM145 212.185C144.688 212.185 144.432 211.737 144.432 210.065C144.432 208.393 144.688 208.017 145 208.017C145.312 208.017 145.568 208.393 145.568 210.065C145.568 211.737 145.312 212.185 145 212.185ZM149 213.097C150.016 213.097 150.688 212.113 150.688 210.065C150.688 208.025 150.016 207.113 149 207.113C147.992 207.113 147.312 208.025 147.312 210.065C147.312 212.113 147.992 213.097 149 213.097ZM149 212.185C148.688 212.185 148.432 211.737 148.432 210.065C148.432 208.393 148.688 208.017 149 208.017C149.312 208.017 149.568 208.393 149.568 210.065C149.568 211.737 149.312 212.185 149 212.185ZM153 213.097C154.016 213.097 154.688 212.113 154.688 210.065C154.688 208.025 154.016 207.113 153 207.113C151.992 207.113 151.312 208.025 151.312 210.065C151.312 212.113 151.992 213.097 153 213.097ZM153 212.185C152.688 212.185 152.432 211.737 152.432 210.065C152.432 208.393 152.688 208.017 153 208.017C153.312 208.017 153.568 208.393 153.568 210.065C153.568 211.737 153.312 212.185 153 212.185Z" fill="#4D4C4D"/>
<path fill-rule="evenodd" clip-rule="evenodd" d="M125.5 203.129H161.5V37.5007H125.5V203.129Z" fill="#FBEDCA"/>
<path fill-rule="evenodd" clip-rule="evenodd" d="M125.5 203.501H161.5V113.501H125.5V203.501Z" fill="#F2B819"/>
<path d="M138.33 129.621C139.51 129.621 140.48 128.881 140.48 127.601C140.48 126.591 139.95 125.981 139.33 125.751V125.711C139.94 125.401 140.31 124.861 140.31 124.021C140.31 122.831 139.51 122.141 138.29 122.141C137.54 122.141 136.9 122.501 136.33 123.061L137.1 123.951C137.47 123.551 137.78 123.301 138.15 123.301C138.64 123.301 138.92 123.611 138.92 124.161C138.92 124.791 138.55 125.271 137.55 125.271V126.321C138.73 126.321 139.08 126.761 139.08 127.481C139.08 128.111 138.67 128.421 138.14 128.421C137.68 128.421 137.25 128.131 136.9 127.671L136.17 128.591C136.62 129.181 137.31 129.621 138.33 129.621ZM143.34 129.621C144.5 129.621 145.5 128.731 145.5 127.131C145.5 125.591 144.63 124.881 143.73 124.881C143.5 124.881 143.31 124.931 143.11 125.011L143.24 123.501H145.28V122.261H141.97L141.78 125.801L142.45 126.231C142.75 126.011 142.91 125.921 143.19 125.921C143.66 125.921 144.03 126.381 144.03 127.161C144.03 127.981 143.66 128.421 143.14 128.421C142.65 128.421 142.27 128.151 141.97 127.821L141.28 128.731C141.76 129.241 142.39 129.621 143.34 129.621ZM148.5 129.621C149.86 129.621 150.63 128.781 150.63 127.701C150.63 126.761 150.13 126.191 149.56 125.771V125.731C150.01 125.341 150.39 124.771 150.39 124.001C150.39 122.911 149.65 122.141 148.53 122.141C147.35 122.141 146.53 122.881 146.53 124.011C146.53 124.761 146.92 125.381 147.38 125.791V125.831C146.82 126.271 146.37 126.761 146.37 127.721C146.37 128.821 147.2 129.621 148.5 129.621ZM148.72 125.281C148.22 124.991 147.87 124.571 147.87 124.001C147.87 123.461 148.13 123.171 148.5 123.171C148.91 123.171 149.16 123.561 149.16 124.081C149.16 124.531 149.01 124.921 148.72 125.281ZM148.51 128.601C148.02 128.601 147.68 128.231 147.68 127.651C147.68 127.081 147.9 126.671 148.18 126.351C148.83 126.771 149.2 127.121 149.2 127.781C149.2 128.291 148.97 128.601 148.51 128.601Z" fill="#FEFEFE"/>
<path d="M169.865 213.573H175.801V212.821H169.865V213.573ZM169.817 211.357L170.129 212.117L176.065 209.709V209.685L170.129 207.277L169.817 208.037L173.913 209.685V209.709L169.817 211.357ZM178.705 213.597C179.633 213.597 180.433 212.885 180.433 211.605C180.433 210.373 179.737 209.805 179.017 209.805C178.833 209.805 178.681 209.845 178.521 209.909L178.625 208.701H180.257V207.709H177.609L177.457 210.541L177.993 210.885C178.233 210.709 178.361 210.637 178.585 210.637C178.961 210.637 179.257 211.005 179.257 211.629C179.257 212.285 178.961 212.637 178.545 212.637C178.153 212.637 177.849 212.421 177.609 212.157L177.057 212.885C177.441 213.293 177.945 213.597 178.705 213.597ZM182.193 215.213C183.153 214.893 183.697 214.157 183.697 213.229C183.697 212.509 183.385 212.069 182.849 212.069C182.433 212.069 182.089 212.333 182.089 212.765C182.089 213.213 182.441 213.477 182.833 213.477C182.857 213.477 182.881 213.477 182.905 213.477C182.889 213.933 182.545 214.341 181.929 214.565L182.193 215.213ZM186.833 213.597C187.849 213.597 188.521 212.613 188.521 210.565C188.521 208.525 187.849 207.613 186.833 207.613C185.825 207.613 185.145 208.525 185.145 210.565C185.145 212.613 185.825 213.597 186.833 213.597ZM186.833 212.685C186.521 212.685 186.265 212.237 186.265 210.565C186.265 208.893 186.521 208.517 186.833 208.517C187.145 208.517 187.401 208.893 187.401 210.565C187.401 212.237 187.145 212.685 186.833 212.685ZM190.833 213.597C191.849 213.597 192.521 212.613 192.521 210.565C192.521 208.525 191.849 207.613 190.833 207.613C189.825 207.613 189.145 208.525 189.145 210.565C189.145 212.613 189.825 213.597 190.833 213.597ZM190.833 212.685C190.521 212.685 190.265 212.237 190.265 210.565C190.265 208.893 190.521 208.517 190.833 208.517C191.145 208.517 191.401 208.893 191.401 210.565C191.401 212.237 191.145 212.685 190.833 212.685ZM194.833 213.597C195.849 213.597 196.521 212.613 196.521 210.565C196.521 208.525 195.849 207.613 194.833 207.613C193.825 207.613 193.145 208.525 193.145 210.565C193.145 212.613 193.825 213.597 194.833 213.597ZM194.833 212.685C194.521 212.685 194.265 212.237 194.265 210.565C194.265 208.893 194.521 208.517 194.833 208.517C195.145 208.517 195.401 208.893 195.401 210.565C195.401 212.237 195.145 212.685 194.833 212.685Z" fill="#4D4C4D"/>
<path fill-rule="evenodd" clip-rule="evenodd" d="M167.333 203.129H203.333V37.5007H167.333V203.129Z" fill="#FBEDCA"/>
<path fill-rule="evenodd" clip-rule="evenodd" d="M167.333 203.501H203.333V93.5007H167.333V203.501Z" fill="#F2B819"/>
<path d="M180.173 109.621C181.333 109.621 182.333 108.731 182.333 107.131C182.333 105.591 181.463 104.881 180.563 104.881C180.333 104.881 180.143 104.931 179.943 105.011L180.073 103.501H182.113V102.261H178.803L178.613 105.801L179.283 106.231C179.583 106.011 179.743 105.921 180.023 105.921C180.493 105.921 180.863 106.381 180.863 107.161C180.863 107.981 180.493 108.421 179.973 108.421C179.483 108.421 179.103 108.151 178.803 107.821L178.113 108.731C178.593 109.241 179.223 109.621 180.173 109.621ZM184.323 106.571L185.123 104.761C185.263 104.361 185.463 103.801 185.603 103.331H185.643C185.613 103.841 185.593 104.461 185.593 104.911V106.571H184.323ZM187.593 106.571H186.943V102.261H185.043L183.083 106.691V107.701H185.593V109.501H186.943V107.701H187.593V106.571ZM190.333 109.621C191.693 109.621 192.463 108.781 192.463 107.701C192.463 106.761 191.963 106.191 191.393 105.771V105.731C191.843 105.341 192.223 104.771 192.223 104.001C192.223 102.911 191.483 102.141 190.363 102.141C189.183 102.141 188.363 102.881 188.363 104.011C188.363 104.761 188.753 105.381 189.213 105.791V105.831C188.653 106.271 188.203 106.761 188.203 107.721C188.203 108.821 189.033 109.621 190.333 109.621ZM190.553 105.281C190.053 104.991 189.703 104.571 189.703 104.001C189.703 103.461 189.963 103.171 190.333 103.171C190.743 103.171 190.993 103.561 190.993 104.081C190.993 104.531 190.843 104.921 190.553 105.281ZM190.343 108.601C189.853 108.601 189.513 108.231 189.513 107.651C189.513 107.081 189.733 106.671 190.013 106.351C190.663 106.771 191.033 107.121 191.033 107.781C191.033 108.291 190.803 108.601 190.343 108.601Z" fill="#FEFEFE"/>
<path d="M210.199 213.077H216.135V212.325H210.199V213.077ZM210.151 210.861L210.463 211.621L216.399 209.213V209.189L210.463 206.781L210.151 207.541L214.247 209.189V209.213L210.151 210.861ZM217.551 213.005H220.871V212.053H219.879V207.213H219.015C218.655 207.453 218.295 207.605 217.735 207.709V208.445H218.703V212.053H217.551V213.005ZM223.167 213.101C224.183 213.101 224.855 212.117 224.855 210.069C224.855 208.029 224.183 207.117 223.167 207.117C222.159 207.117 221.479 208.029 221.479 210.069C221.479 212.117 222.159 213.101 223.167 213.101ZM223.167 212.189C222.855 212.189 222.599 211.741 222.599 210.069C222.599 208.397 222.855 208.021 223.167 208.021C223.479 208.021 223.735 208.397 223.735 210.069C223.735 211.741 223.479 212.189 223.167 212.189ZM226.527 214.717C227.487 214.397 228.031 213.661 228.031 212.733C228.031 212.013 227.719 211.573 227.183 211.573C226.767 211.573 226.423 211.837 226.423 212.269C226.423 212.717 226.775 212.981 227.167 212.981C227.191 212.981 227.215 212.981 227.239 212.981C227.223 213.437 226.879 213.845 226.263 214.069L226.527 214.717ZM231.167 213.101C232.183 213.101 232.855 212.117 232.855 210.069C232.855 208.029 232.183 207.117 231.167 207.117C230.159 207.117 229.479 208.029 229.479 210.069C229.479 212.117 230.159 213.101 231.167 213.101ZM231.167 212.189C230.855 212.189 230.599 211.741 230.599 210.069C230.599 208.397 230.855 208.021 231.167 208.021C231.479 208.021 231.735 208.397 231.735 210.069C231.735 211.741 231.479 212.189 231.167 212.189ZM235.167 213.101C236.183 213.101 236.855 212.117 236.855 210.069C236.855 208.029 236.183 207.117 235.167 207.117C234.159 207.117 233.479 208.029 233.479 210.069C233.479 212.117 234.159 213.101 235.167 213.101ZM235.167 212.189C234.855 212.189 234.599 211.741 234.599 210.069C234.599 208.397 234.855 208.021 235.167 208.021C235.479 208.021 235.735 208.397 235.735 210.069C235.735 211.741 235.479 212.189 235.167 212.189ZM239.167 213.101C240.183 213.101 240.855 212.117 240.855 210.069C240.855 208.029 240.183 207.117 239.167 207.117C238.159 207.117 237.479 208.029 237.479 210.069C237.479 212.117 238.159 213.101 239.167 213.101ZM239.167 212.189C238.855 212.189 238.599 211.741 238.599 210.069C238.599 208.397 238.855 208.021 239.167 208.021C239.479 208.021 239.735 208.397 239.735 210.069C239.735 211.741 239.479 212.189 239.167 212.189Z" fill="#4D4C4D"/>
<path fill-rule="evenodd" clip-rule="evenodd" d="M210.366 203.129H246.366V37.5007H210.366V203.129Z" fill="#FBEDCA"/>
<path fill-rule="evenodd" clip-rule="evenodd" d="M210.167 203.005H246.167V73.0046H210.167V203.005Z" fill="#F2B819"/>
<path d="M216.147 89.0046H220.297V87.8146H219.057V81.7646H217.977C217.527 82.0646 217.077 82.2546 216.377 82.3846V83.3046H217.587V87.8146H216.147V89.0046ZM222.367 91.1446C223.567 90.7446 224.247 89.8246 224.247 88.6646C224.247 87.7646 223.857 87.2146 223.187 87.2146C222.667 87.2146 222.237 87.5446 222.237 88.0846C222.237 88.6446 222.677 88.9746 223.167 88.9746C223.197 88.9746 223.227 88.9746 223.257 88.9746C223.237 89.5446 222.807 90.0546 222.037 90.3346L222.367 91.1446ZM228.167 89.1246C229.437 89.1246 230.277 87.8946 230.277 85.3346C230.277 82.7846 229.437 81.6446 228.167 81.6446C226.907 81.6446 226.057 82.7846 226.057 85.3346C226.057 87.8946 226.907 89.1246 228.167 89.1246ZM228.167 87.9846C227.777 87.9846 227.457 87.4246 227.457 85.3346C227.457 83.2446 227.777 82.7746 228.167 82.7746C228.557 82.7746 228.877 83.2446 228.877 85.3346C228.877 87.4246 228.557 87.9846 228.167 87.9846ZM232.997 89.1246C234.177 89.1246 235.147 88.3846 235.147 87.1046C235.147 86.0946 234.617 85.4846 233.997 85.2546V85.2146C234.607 84.9046 234.977 84.3646 234.977 83.5246C234.977 82.3346 234.177 81.6446 232.957 81.6446C232.207 81.6446 231.567 82.0046 230.997 82.5646L231.767 83.4546C232.137 83.0546 232.447 82.8046 232.817 82.8046C233.307 82.8046 233.587 83.1146 233.587 83.6646C233.587 84.2946 233.217 84.7746 232.217 84.7746V85.8246C233.397 85.8246 233.747 86.2646 233.747 86.9846C233.747 87.6146 233.337 87.9246 232.807 87.9246C232.347 87.9246 231.917 87.6346 231.567 87.1746L230.837 88.0946C231.287 88.6846 231.977 89.1246 232.997 89.1246ZM238.167 89.1246C239.527 89.1246 240.297 88.2846 240.297 87.2046C240.297 86.2646 239.797 85.6946 239.227 85.2746V85.2346C239.677 84.8446 240.057 84.2746 240.057 83.5046C240.057 82.4146 239.317 81.6446 238.197 81.6446C237.017 81.6446 236.197 82.3846 236.197 83.5146C236.197 84.2646 236.587 84.8846 237.047 85.2946V85.3346C236.487 85.7746 236.037 86.2646 236.037 87.2246C236.037 88.3246 236.867 89.1246 238.167 89.1246ZM238.387 84.7846C237.887 84.4946 237.537 84.0746 237.537 83.5046C237.537 82.9646 237.797 82.6746 238.167 82.6746C238.577 82.6746 238.827 83.0646 238.827 83.5846C238.827 84.0346 238.677 84.4246 238.387 84.7846ZM238.177 88.1046C237.687 88.1046 237.347 87.7346 237.347 87.1546C237.347 86.5846 237.567 86.1746 237.847 85.8546C238.497 86.2746 238.867 86.6246 238.867 87.2846C238.867 87.7946 238.637 88.1046 238.177 88.1046Z" fill="#FEFEFE"/>
<path d="M254.032 213.573H259.968V212.821H254.032V213.573ZM253.984 211.357L254.296 212.117L260.232 209.709V209.685L254.296 207.277L253.984 208.037L258.08 209.685V209.709L253.984 211.357ZM262.864 213.597C263.808 213.597 264.584 213.005 264.584 211.981C264.584 211.173 264.16 210.685 263.664 210.501V210.469C264.152 210.221 264.448 209.789 264.448 209.117C264.448 208.165 263.808 207.613 262.832 207.613C262.232 207.613 261.72 207.901 261.264 208.349L261.88 209.061C262.176 208.741 262.424 208.541 262.72 208.541C263.112 208.541 263.336 208.789 263.336 209.229C263.336 209.733 263.04 210.117 262.24 210.117V210.957C263.184 210.957 263.464 211.309 263.464 211.885C263.464 212.389 263.136 212.637 262.712 212.637C262.344 212.637 262 212.405 261.72 212.037L261.136 212.773C261.496 213.245 262.048 213.597 262.864 213.597ZM267 213.597C268.016 213.597 268.688 212.613 268.688 210.565C268.688 208.525 268.016 207.613 267 207.613C265.992 207.613 265.312 208.525 265.312 210.565C265.312 212.613 265.992 213.597 267 213.597ZM267 212.685C266.688 212.685 266.432 212.237 266.432 210.565C266.432 208.893 266.688 208.517 267 208.517C267.312 208.517 267.568 208.893 267.568 210.565C267.568 212.237 267.312 212.685 267 212.685ZM270.36 215.213C271.32 214.893 271.864 214.157 271.864 213.229C271.864 212.509 271.552 212.069 271.016 212.069C270.6 212.069 270.256 212.333 270.256 212.765C270.256 213.213 270.608 213.477 271 213.477C271.024 213.477 271.048 213.477 271.072 213.477C271.056 213.933 270.712 214.341 270.096 214.565L270.36 215.213ZM275 213.597C276.016 213.597 276.688 212.613 276.688 210.565C276.688 208.525 276.016 207.613 275 207.613C273.992 207.613 273.312 208.525 273.312 210.565C273.312 212.613 273.992 213.597 275 213.597ZM275 212.685C274.688 212.685 274.432 212.237 274.432 210.565C274.432 208.893 274.688 208.517 275 208.517C275.312 208.517 275.568 208.893 275.568 210.565C275.568 212.237 275.312 212.685 275 212.685ZM279 213.597C280.016 213.597 280.688 212.613 280.688 210.565C280.688 208.525 280.016 207.613 279 207.613C277.992 207.613 277.312 208.525 277.312 210.565C277.312 212.613 277.992 213.597 279 213.597ZM279 212.685C278.688 212.685 278.432 212.237 278.432 210.565C278.432 208.893 278.688 208.517 279 208.517C279.312 208.517 279.568 208.893 279.568 210.565C279.568 212.237 279.312 212.685 279 212.685ZM283 213.597C284.016 213.597 284.688 212.613 284.688 210.565C284.688 208.525 284.016 207.613 283 207.613C281.992 207.613 281.312 208.525 281.312 210.565C281.312 212.613 281.992 213.597 283 213.597ZM283 212.685C282.688 212.685 282.432 212.237 282.432 210.565C282.432 208.893 282.688 208.517 283 208.517C283.312 208.517 283.568 208.893 283.568 210.565C283.568 212.237 283.312 212.685 283 212.685Z" fill="#4D4C4D"/>
<path fill-rule="evenodd" clip-rule="evenodd" d="M254 203.356H290V37.5007H254V203.356Z" fill="#FBEDCA"/>
<path fill-rule="evenodd" clip-rule="evenodd" d="M254 203.501H290V53.5007H254V203.501Z" fill="#F2B819"/>
<path d="M259.87 69.5007H264.13V68.2807H262.9C262.55 68.2807 262.22 68.3107 261.83 68.3507C262.93 66.9307 263.85 65.5807 263.85 64.3107C263.85 62.9907 263.05 62.1207 261.87 62.1207C260.99 62.1207 260.4 62.5007 259.79 63.1707L260.62 63.9907C260.91 63.6107 261.26 63.2907 261.68 63.2907C262.17 63.2907 262.43 63.7007 262.43 64.3907C262.43 65.6407 261.42 66.9207 259.87 68.6607V69.5007ZM266.2 71.6407C267.4 71.2407 268.08 70.3207 268.08 69.1607C268.08 68.2607 267.69 67.7107 267.02 67.7107C266.5 67.7107 266.07 68.0407 266.07 68.5807C266.07 69.1407 266.51 69.4707 267 69.4707C267.03 69.4707 267.06 69.4707 267.09 69.4707C267.07 70.0407 266.64 70.5507 265.87 70.8307L266.2 71.6407ZM272 69.6207C273.36 69.6207 274.13 68.7807 274.13 67.7007C274.13 66.7607 273.63 66.1907 273.06 65.7707V65.7307C273.51 65.3407 273.89 64.7707 273.89 64.0007C273.89 62.9107 273.15 62.1407 272.03 62.1407C270.85 62.1407 270.03 62.8807 270.03 64.0107C270.03 64.7607 270.42 65.3807 270.88 65.7907V65.8307C270.32 66.2707 269.87 66.7607 269.87 67.7207C269.87 68.8207 270.7 69.6207 272 69.6207ZM272.22 65.2807C271.72 64.9907 271.37 64.5707 271.37 64.0007C271.37 63.4607 271.63 63.1707 272 63.1707C272.41 63.1707 272.66 63.5607 272.66 64.0807C272.66 64.5307 272.51 64.9207 272.22 65.2807ZM272.01 68.6007C271.52 68.6007 271.18 68.2307 271.18 67.6507C271.18 67.0807 271.4 66.6707 271.68 66.3507C272.33 66.7707 272.7 67.1207 272.7 67.7807C272.7 68.2907 272.47 68.6007 272.01 68.6007ZM277 69.6207C278.36 69.6207 279.13 68.7807 279.13 67.7007C279.13 66.7607 278.63 66.1907 278.06 65.7707V65.7307C278.51 65.3407 278.89 64.7707 278.89 64.0007C278.89 62.9107 278.15 62.1407 277.03 62.1407C275.85 62.1407 275.03 62.8807 275.03 64.0107C275.03 64.7607 275.42 65.3807 275.88 65.7907V65.8307C275.32 66.2707 274.87 66.7607 274.87 67.7207C274.87 68.8207 275.7 69.6207 277 69.6207ZM277.22 65.2807C276.72 64.9907 276.37 64.5707 276.37 64.0007C276.37 63.4607 276.63 63.1707 277 63.1707C277.41 63.1707 277.66 63.5607 277.66 64.0807C277.66 64.5307 277.51 64.9207 277.22 65.2807ZM277.01 68.6007C276.52 68.6007 276.18 68.2307 276.18 67.6507C276.18 67.0807 276.4 66.6707 276.68 66.3507C277.33 66.7707 277.7 67.1207 277.7 67.7807C277.7 68.2907 277.47 68.6007 277.01 68.6007ZM282 69.6207C283.36 69.6207 284.13 68.7807 284.13 67.7007C284.13 66.7607 283.63 66.1907 283.06 65.7707V65.7307C283.51 65.3407 283.89 64.7707 283.89 64.0007C283.89 62.9107 283.15 62.1407 282.03 62.1407C280.85 62.1407 280.03 62.8807 280.03 64.0107C280.03 64.7607 280.42 65.3807 280.88 65.7907V65.8307C280.32 66.2707 279.87 66.7607 279.87 67.7207C279.87 68.8207 280.7 69.6207 282 69.6207ZM282.22 65.2807C281.72 64.9907 281.37 64.5707 281.37 64.0007C281.37 63.4607 281.63 63.1707 282 63.1707C282.41 63.1707 282.66 63.5607 282.66 64.0807C282.66 64.5307 282.51 64.9207 282.22 65.2807ZM282.01 68.6007C281.52 68.6007 281.18 68.2307 281.18 67.6507C281.18 67.0807 281.4 66.6707 281.68 66.3507C282.33 66.7707 282.7 67.1207 282.7 67.7807C282.7 68.2907 282.47 68.6007 282.01 68.6007Z" fill="#FEFEFE"/>
<mask id="mask0_928_22147" style="mask-type:alpha" maskUnits="userSpaceOnUse" x="28" y="1" width="235" height="113">
<path d="M28.7522 1.13672H262.84V113.767H28.7522V1.13672Z" fill="white"/>
</mask>
<g mask="url(#mask0_928_22147)">
<path fill-rule="evenodd" clip-rule="evenodd" d="M259.632 1.21421L233.461 7.71721C231.5 8.20521 230.832 10.6522 232.274 12.0682L236.285 16.0072C235.968 16.3252 235.643 16.6512 235.304 16.9902C234.724 17.5692 234.112 18.1802 233.471 18.8212C232.809 19.4382 232.115 20.0842 231.393 20.7562C229.946 22.1052 228.383 23.5632 226.711 25.1212C225.87 25.8952 225.022 26.7182 224.112 27.5232C223.195 28.3182 222.252 29.1372 221.283 29.9772C219.344 31.6602 217.305 33.4292 215.177 35.2762C210.783 38.7972 206.102 42.7392 200.879 46.5582C199.586 47.5332 198.277 48.5212 196.95 49.5222C195.593 50.4792 194.22 51.4492 192.831 52.4282C190.046 54.3812 187.224 56.4202 184.239 58.3182C181.273 60.2442 178.296 62.2812 175.159 64.1362C172.044 66.0292 168.919 68.0082 165.658 69.8072C164.039 70.7302 162.414 71.6572 160.783 72.5872C159.156 73.5262 157.472 74.3652 155.812 75.2632C154.144 76.1492 152.472 77.0372 150.799 77.9252L145.7 80.4472C138.909 83.8442 131.948 86.9022 125.046 89.8212C123.318 90.5442 121.575 91.2092 119.851 91.9012C118.119 92.5742 116.415 93.3002 114.683 93.9132C111.231 95.1732 107.832 96.4732 104.434 97.5892C97.6782 99.9532 91.0352 101.906 84.7132 103.712C78.3692 105.422 72.3342 106.957 66.7122 108.149C61.0952 109.368 55.9112 110.353 51.2932 111.094C46.6772 111.865 42.6302 112.393 39.2892 112.785C32.6062 113.559 28.7522 113.69 28.7522 113.69C28.7522 113.69 29.7142 113.738 31.5212 113.76C33.3262 113.771 35.9802 113.786 39.3542 113.668C42.7272 113.557 46.8272 113.368 51.5212 112.983C56.2172 112.628 61.5062 112.075 67.2632 111.323C73.0252 110.596 79.2332 109.56 85.7932 108.369C92.3292 107.082 99.2292 105.666 106.284 103.843C109.831 102.999 113.39 101.97 117.014 100.98C118.831 100.503 120.624 99.9122 122.446 99.3742C124.262 98.8162 126.098 98.2852 127.923 97.6972C135.21 95.3122 142.599 92.7772 149.854 89.8802L155.307 87.7282C157.103 86.9602 158.897 86.1922 160.687 85.4262C162.472 84.6462 164.282 83.9232 166.037 83.0982C167.798 82.2822 169.553 81.4672 171.302 80.6572C174.824 79.0792 178.218 77.3112 181.607 75.6232C185.016 73.9692 188.269 72.1272 191.515 70.3842C194.778 68.6722 197.883 66.8072 200.949 65.0192C202.48 64.1202 203.994 63.2302 205.49 62.3512C206.958 61.4262 208.408 60.5132 209.838 59.6122C215.618 56.0812 220.848 52.3872 225.76 49.0782C228.151 47.3332 230.441 45.6602 232.619 44.0692C233.71 43.2722 234.772 42.4952 235.804 41.7402C236.829 40.9752 237.791 40.1902 238.741 39.4522C240.635 37.9632 242.406 36.5682 244.045 35.2792C244.864 34.6332 245.651 34.0142 246.403 33.4222C247.133 32.8072 247.829 32.2202 248.49 31.6632C249.202 31.0592 249.87 30.4952 250.498 29.9632L254.711 34.0992C256.232 35.5932 258.806 34.7062 259.082 32.5912L262.817 4.05721C263.053 2.25221 261.399 0.77621 259.632 1.21421Z" fill="#DF0716"/>
</g>
<path d="M25.48 55.5907C25.13 55.2007 24.48 54.6807 23.9 54.2507C24.33 53.7907 24.84 53.1507 25.25 52.5207L24.23 52.1207C24.06 52.4307 23.82 52.8007 23.56 53.1507V51.7807H25.39V50.6907H24.63L25.43 50.1907C25.25 49.8507 24.85 49.3807 24.48 49.0607L23.67 49.5407C24.01 49.8907 24.37 50.3507 24.54 50.6907H23.56V49.0307H22.39V50.6907H20.43V51.7807H22.39V54.3707C21.61 54.9307 20.81 55.4707 20.26 55.8107L20.8 56.7707C21.28 56.4407 21.85 56.0407 22.39 55.6407V57.0907C22.39 57.2307 22.34 57.2907 22.19 57.2907C22.05 57.2907 21.6 57.2907 21.19 57.2707C21.33 57.5607 21.48 58.0207 21.53 58.3107C22.26 58.3107 22.75 58.2907 23.09 58.1107C23.44 57.9307 23.56 57.6607 23.56 57.0907V55.3007C24 55.6807 24.4 56.0607 24.64 56.3507L25.48 55.5907ZM20.58 52.6407C20.91 53.1807 21.28 53.9007 21.41 54.3507L22.35 53.8907C22.2 53.4307 21.82 52.7507 21.46 52.2407L20.58 52.6407ZM28.04 51.9707C27.91 52.8707 27.72 53.6707 27.43 54.3807C27.16 53.7507 26.95 53.0607 26.79 52.3507C26.83 52.2207 26.87 52.1007 26.91 51.9707H28.04ZM29.66 51.9707V50.8707H27.19C27.31 50.3207 27.41 49.7707 27.49 49.2007L26.3 49.0407C26.08 50.8307 25.66 52.5407 24.84 53.5907C25.09 53.7907 25.56 54.2407 25.73 54.4707C25.88 54.2707 26.02 54.0707 26.14 53.8307C26.32 54.4707 26.53 55.0707 26.78 55.6307C26.23 56.4107 25.5 57.0007 24.51 57.3807C24.84 57.6407 25.22 58.0707 25.4 58.3807C26.23 58.0007 26.89 57.4707 27.41 56.8007C27.83 57.4207 28.32 57.9507 28.91 58.3607C29.1 58.0107 29.5 57.5407 29.78 57.3007C29.11 56.9107 28.56 56.3507 28.11 55.6707C28.63 54.6207 28.94 53.3607 29.11 51.9707H29.66ZM33.38 53.5607L32.54 53.7807V52.0207H33.44V50.9207H32.54V49.0407H31.45V50.9207H30.4V52.0207H31.45V54.0707C31.01 54.1907 30.61 54.2907 30.27 54.3607L30.45 55.5207L31.45 55.2207V57.1107C31.45 57.2407 31.4 57.2807 31.28 57.2807C31.16 57.2907 30.82 57.2907 30.45 57.2707C30.6 57.5907 30.73 58.0807 30.76 58.3707C31.41 58.3807 31.84 58.3407 32.14 58.1507C32.44 57.9607 32.54 57.6607 32.54 57.1107V54.9107C32.87 54.8207 33.2 54.7207 33.53 54.6207L33.38 53.5607ZM37.69 55.3707C37.51 55.7607 37.25 56.0907 36.95 56.3707C36.53 56.0807 36.2 55.7507 35.95 55.3707H37.69ZM38.37 54.4807L38.18 54.5107H35.81C35.84 54.3807 35.86 54.2507 35.89 54.1207H39.54V53.1607H36.01C36.03 53.0007 36.04 52.8507 36.05 52.6907H39.25V51.7607H38.3C38.56 51.3707 38.85 50.9107 39.12 50.4707L38.02 50.1507C38.47 50.0907 38.88 50.0307 39.26 49.9607L38.59 49.0707C37.36 49.3407 35.31 49.4907 33.56 49.5507C33.67 49.7907 33.79 50.1707 33.81 50.4307C35.15 50.4107 36.69 50.3207 38.02 50.1507C37.84 50.6407 37.52 51.2907 37.24 51.7607H35.99L36.92 51.5507C36.88 51.2407 36.76 50.7307 36.65 50.3407L35.72 50.5007C35.82 50.9107 35.91 51.4307 35.94 51.7607H34.79L35.35 51.5807C35.26 51.2807 35.05 50.8007 34.89 50.4307L34 50.6807C34.13 51.0107 34.28 51.4507 34.36 51.7607H33.74V52.6907H34.92C34.9 52.8407 34.89 53.0007 34.88 53.1607H33.55V54.1207H34.75C34.52 55.4007 34.01 56.6807 32.69 57.4907C32.96 57.6907 33.3 58.0707 33.46 58.3507C34.35 57.7707 34.92 56.9907 35.31 56.1507C35.53 56.4507 35.78 56.7307 36.07 56.9607C35.59 57.2107 35.04 57.3907 34.44 57.5107C34.64 57.7007 34.96 58.1407 35.08 58.3907C35.77 58.2107 36.42 57.9507 36.97 57.6107C37.58 57.9507 38.29 58.2107 39.08 58.3807C39.23 58.0807 39.53 57.6407 39.78 57.4107C39.07 57.3007 38.43 57.1207 37.86 56.8707C38.38 56.3207 38.76 55.6307 39.01 54.7407L38.37 54.4807ZM43.41 51.9207C44 51.5407 44.55 51.1207 45.03 50.6207C45.54 51.0907 46.13 51.5307 46.76 51.9207H43.41ZM47.09 55.1207C46.89 55.6407 46.52 56.3407 46.21 56.7907L46.88 57.0707H45.63V55.1207H47.09ZM44.35 55.1207V57.0707H42.89L43.71 56.7107C43.57 56.2707 43.19 55.6107 42.84 55.1207H44.35ZM47.64 53.0107V52.4207C48.09 52.6407 48.55 52.8407 49 53.0007C49.18 52.6907 49.55 52.2207 49.82 51.9607C48.32 51.5407 46.7 50.7107 45.72 49.8307C45.82 49.6907 45.91 49.5607 46 49.4307L44.87 48.9207C43.92 50.4107 42.12 51.4207 40.24 51.9607C40.54 52.2607 40.87 52.7107 41.03 53.0607C41.47 52.9007 41.9 52.7207 42.32 52.5207V53.0107H44.35V54.0507H41.17V55.1207H42.62L41.83 55.4507C42.16 55.9507 42.5 56.6107 42.66 57.0707H40.69V58.1607H49.34V57.0707H47.19C47.5 56.6407 47.89 56.0407 48.24 55.4807L47.24 55.1207H48.82V54.0507H45.63V53.0107H47.64Z" fill="#4D4C4D"/>
<path fill-rule="evenodd" clip-rule="evenodd" d="M8 57.5007H16V49.5007H8V57.5007Z" fill="#F2B819"/>
<path d="M136.7 230.961C136.53 231.281 136.31 231.601 136.09 231.901H133.69C133.96 231.591 134.22 231.281 134.45 230.961H136.7ZM132.8 236.281H134.01V232.931H138.21V236.281H139.47V231.901H137.46C137.79 231.431 138.12 230.911 138.35 230.481L137.53 229.951L137.34 230.011H135.08C135.23 229.761 135.37 229.511 135.5 229.271L134.22 229.041C133.7 230.151 132.74 231.451 131.34 232.421C131.63 232.591 132.04 232.991 132.24 233.251C132.43 233.101 132.62 232.941 132.8 232.781V236.281ZM135.5 233.571C135.35 235.781 135.1 236.871 131.42 237.361C131.64 237.611 131.9 238.071 131.99 238.371C136.05 237.721 136.55 236.251 136.73 233.571H135.5ZM136.15 236.751C137.4 237.271 138.72 237.941 139.49 238.381L140.41 237.571C139.57 237.141 138.14 236.491 136.88 235.991L136.15 236.751ZM145.72 231.921C145.62 232.181 145.5 232.401 145.36 232.611C145.07 232.441 144.78 232.291 144.49 232.161L143.83 232.791C144.12 232.941 144.43 233.111 144.74 233.291C144.39 233.571 143.97 233.791 143.5 233.941C143.7 234.091 144.04 234.491 144.17 234.721C144.71 234.521 145.17 234.241 145.58 233.871C145.93 234.111 146.22 234.371 146.45 234.591L147.13 233.881C146.89 233.661 146.55 233.391 146.18 233.131C146.51 232.621 146.77 231.981 146.92 231.181L146.32 231.001L146.14 231.021H144.31C144.36 230.821 144.39 230.621 144.43 230.411H147.41C147.28 231.051 147.13 231.691 146.99 232.171H148.99C148.9 232.951 148.79 233.301 148.64 233.421C148.56 233.511 148.46 233.531 148.29 233.531C148.09 233.531 147.66 233.521 147.21 233.471C147.39 233.761 147.53 234.171 147.55 234.481C148.05 234.511 148.53 234.501 148.8 234.471C149.13 234.441 149.38 234.361 149.6 234.131C149.88 233.861 150.04 233.161 150.18 231.631C150.2 231.501 150.22 231.211 150.22 231.211H148.36C148.49 230.641 148.62 230.001 148.74 229.431H141.74V230.411H143.26C143.02 232.051 142.44 233.301 141.32 234.051C141.58 234.241 142.02 234.661 142.19 234.871C143.09 234.151 143.7 233.171 144.08 231.921H145.72ZM143.61 235.741H144.45V237.081H143.61V235.741ZM146.39 235.741V237.081H145.54V235.741H146.39ZM148.34 235.741V237.081H147.48V235.741H148.34ZM149.5 237.081V234.821H142.5V237.081H141.44V238.101H150.56V237.081H149.5ZM154.57 230.501C155.17 230.351 155.74 230.181 156.23 229.981L155.39 229.071C154.42 229.511 152.82 229.881 151.37 230.101C151.51 230.351 151.67 230.761 151.72 231.031C152.25 230.961 152.81 230.871 153.37 230.761V231.991H151.48V233.091H153.16C152.71 234.131 151.97 235.261 151.26 235.951C151.45 236.261 151.75 236.761 151.87 237.121C152.41 236.551 152.93 235.721 153.37 234.821V238.351H154.57V234.751C154.96 235.181 155.38 235.661 155.63 235.971L156.31 234.961C156.05 234.721 155.07 233.841 154.57 233.441V233.091H156.37V231.991H154.57V230.501ZM158.13 230.241H156.94V235.831H158.13V230.241ZM159.07 229.201V236.881C159.07 237.081 158.99 237.131 158.8 237.141C158.6 237.141 157.95 237.141 157.3 237.111C157.48 237.451 157.66 238.001 157.71 238.351C158.63 238.351 159.29 238.311 159.7 238.111C160.11 237.911 160.25 237.601 160.25 236.891V229.201H159.07Z" fill="#4D4C4D"/>
</g>
<defs>
<clipPath id="clip0_928_22147">
<rect width="291" height="238" fill="white" transform="translate(0 0.5)"/>
</clipPath>
</defs>
</svg>
