<svg width="32" height="32" viewBox="0 0 32 32" fill="none" xmlns="http://www.w3.org/2000/svg">
<path d="M16 32C24.8366 32 32 24.8366 32 16C32 7.16344 24.8366 0 16 0C7.16344 0 0 7.16344 0 16C0 24.8366 7.16344 32 16 32Z" fill="white"/>
<path d="M10.9191 9.84313C10.8929 9.82808 10.8746 9.79934 10.8688 9.74387C10.7575 8.69246 10.4615 7.68305 10.1594 6.67548C10.1192 6.54181 10.0864 6.39802 10.0109 6.28524C9.9441 6.18558 9.82238 6.12274 9.72499 6.04358H6.25903C6.0196 6.15209 5.9834 6.22967 6.0592 6.50325C6.3859 7.68214 6.64914 8.87432 6.84365 10.0811C8.20213 10.1 9.56061 9.93245 10.9191 9.84313Z" fill="#00A5E6"/>
<path d="M20.717 9.86123C19.7565 9.85634 18.7958 9.85783 17.8353 9.85691C17.8144 9.85691 17.7936 9.85194 17.7611 9.8478C17.7557 9.80488 17.7465 9.76428 17.7463 9.72368C17.7404 8.57283 17.7887 7.42609 18.0161 6.2937C18.0378 6.18554 18.0155 6.10276 17.9202 6.04358H13.936C13.8116 6.10232 13.7779 6.19064 13.7987 6.33173C13.9623 7.44497 14.0045 8.56481 13.9676 9.68879C13.9633 9.82193 13.9211 9.8621 13.7889 9.8614C12.8716 9.85661 11.9543 9.85879 11.0371 9.85948C10.9916 9.85953 10.9499 9.86088 10.9191 9.84309C9.56064 9.93245 8.2022 10.1 6.84372 10.081C6.87164 10.254 6.89815 10.4273 6.92319 10.6009C7.25878 12.9271 7.34662 15.2633 7.20981 17.6089C7.10819 19.3517 6.88904 21.0794 6.51397 22.7846C6.37742 23.4053 6.19682 24.0163 6.03533 24.6314C6.02887 24.6561 6.01199 24.6781 6 24.7014V24.9605C6.09691 25.0849 6.22325 25.1187 6.37986 25.1178C7.42159 25.1116 8.4634 25.1152 9.50521 25.1125C9.85106 25.1116 10.0679 24.9749 10.1549 24.6397C10.3905 23.7319 10.6054 22.8187 10.8241 21.9066C10.8703 21.7138 10.8977 21.5166 10.9345 21.3172H10.9377C11.1323 20.035 11.1237 18.7527 11.3266 17.4705C11.3158 17.4697 11.3048 17.4689 11.293 17.4682C11.323 16.2155 11.3528 14.9678 11.383 13.705H20.4836C20.7612 12.4515 20.7298 11.1315 20.7536 9.85879C20.7425 9.86031 20.7306 9.86127 20.717 9.86123Z" fill="url(#paint0_linear_142_1988)"/>
<path d="M25.5972 6.04358H22.1313C21.8113 6.12239 21.6647 6.35196 21.5689 6.64874C21.2465 7.64729 21.0171 8.66625 20.8692 9.70414C20.8572 9.78779 20.8424 9.84701 20.7537 9.85879C20.7299 11.1315 20.7612 12.4515 20.4837 13.705H20.4871C20.4648 14.4606 20.4391 15.2041 20.4221 15.9479C20.4118 16.401 20.4118 16.8544 20.4141 17.3077C20.4147 17.4253 20.3948 17.479 20.2566 17.4787C17.3153 17.4751 14.374 17.4764 11.4327 17.4764C11.3994 17.4764 11.3659 17.4734 11.3267 17.4705C11.1238 18.7528 11.1325 20.035 10.9377 21.3172H14.0224C14.0224 21.6807 14.0347 22.0356 14.02 22.3894C13.9855 23.2141 13.9451 24.0389 13.752 24.8472C13.7045 25.0458 13.7832 25.1191 14.0158 25.1188C15.1602 25.1174 16.3045 25.1152 17.4489 25.1137C17.5352 25.1136 17.6216 25.1188 17.7079 25.1182C17.9429 25.1166 17.9967 25.045 17.9751 24.8092C17.9131 24.1325 17.8425 23.4561 17.8053 22.7778C17.7812 22.337 17.8122 21.8932 17.8125 21.4507C17.8126 21.3366 17.8551 21.3054 17.9657 21.3058C18.8942 21.3097 19.8228 21.3085 20.7512 21.3079C20.8141 21.3079 20.8661 21.306 20.8909 21.3612C22.2338 21.3079 23.5766 21.4261 24.9196 21.2872C24.5644 19.2395 24.4185 17.1764 24.4553 15.0982C24.4827 13.5469 24.6151 12.0054 24.8531 10.4731C25.0547 9.17634 25.3407 7.89771 25.7091 6.63775C25.7331 6.55581 25.7424 6.46932 25.7556 6.3845C25.7787 6.2363 25.7283 6.12086 25.5972 6.04358Z" fill="url(#paint1_linear_142_1988)"/>
<path d="M24.9304 21.3515C24.9266 21.3301 24.9232 21.3086 24.9195 21.2872C23.5766 21.4261 22.2337 21.3079 20.8909 21.3612C20.8974 21.3758 20.9021 21.3942 20.9045 21.4178C20.9975 22.3346 21.243 23.2184 21.4968 24.1C21.5535 24.2968 21.6149 24.4923 21.6789 24.6869C21.768 24.9581 21.955 25.1104 22.2435 25.1112C23.3069 25.1142 24.3703 25.1157 25.4338 25.1099C25.7169 25.1083 25.8052 24.9651 25.7181 24.6718C25.3934 23.5796 25.1275 22.4737 24.9304 21.3515Z" fill="#04529B"/>
<defs>
<linearGradient id="paint0_linear_142_1988" x1="7.27563" y1="12.0328" x2="20.7536" y2="12.0328" gradientUnits="userSpaceOnUse">
<stop stop-color="#0381C8"/>
<stop offset="1" stop-color="#122E66"/>
</linearGradient>
<linearGradient id="paint1_linear_142_1988" x1="24.8129" y1="20.0878" x2="10.9377" y2="20.0878" gradientUnits="userSpaceOnUse">
<stop stop-color="#0293DA"/>
<stop offset="1" stop-color="#034E8C"/>
</linearGradient>
</defs>
</svg>
