<svg width="64" height="16" viewBox="0 0 64 16" fill="none" xmlns="http://www.w3.org/2000/svg">
<g clip-path="url(#clip0_3783_802)">
<path fill-rule="evenodd" clip-rule="evenodd" d="M56.0599 0C60.4449 0 63.9999 3.582 63.9999 8C63.9999 12.418 60.4449 16 56.0599 16H49.9399C45.5549 16 41.9999 12.418 41.9999 8C41.9999 3.582 45.5549 0 49.9399 0H56.0599ZM5.5 0.0001V7.0311L12.891 0.7141C12.891 0.7141 13.649 0.0001 15.069 0.0001H21.322L13.493 6.5401L21.5 16.0001H15.816C14.332 16.0001 13.666 15.1001 13.666 15.1001L9.354 9.9981L5.5 13.3751V16.0001H0V0.0001H5.5ZM41.9999 0.0001V5.0001H34.9999V16.0001H28.9999V5.0001H21.9999V0.0001H41.9999ZM55.9309 5H50.0679C48.6519 5 47.4999 6.346 47.4999 8C47.4999 9.654 48.6519 11 50.0679 11H55.9309C57.3479 11 58.4999 9.654 58.4999 8C58.4999 6.346 57.3479 5 55.9309 5Z" fill="#F20000"/>
</g>
<defs>
<clipPath id="clip0_3783_802">
<rect width="64" height="16" fill="white"/>
</clipPath>
</defs>
</svg>
