<svg width="80" height="80" viewBox="0 0 80 80" fill="none" xmlns="http://www.w3.org/2000/svg">
<g opacity="0.7">
<path fill-rule="evenodd" clip-rule="evenodd" d="M68.4375 15C72.0619 15 75 17.9381 75 21.5625V56.7708C75 60.3952 72.0619 63.3333 68.4375 63.3333H11.5625C7.93813 63.3333 5 60.3952 5 56.7708V21.5625C5 17.9381 7.93813 15 11.5625 15H68.4375ZM36.8267 25.9848C36.0518 25.9848 35.3877 26.115 34.8343 26.3753C34.2808 26.6356 33.8159 26.9888 33.4396 27.435C33.0632 27.8812 32.7865 28.4018 32.6094 28.9968C32.4323 29.5917 32.3438 30.2239 32.3438 30.8932C32.3438 31.1906 32.3493 31.6059 32.3604 32.1388C32.3714 32.6718 32.3991 33.0994 32.4434 33.4217H34.5686C34.635 33.0003 34.7402 32.6718 34.8841 32.4363C35.028 32.2008 35.194 32.0273 35.3822 31.9157C35.5703 31.8042 35.7862 31.736 36.0297 31.7112C36.2732 31.6864 36.5278 31.674 36.7935 31.674C37.2584 31.674 37.7122 31.736 38.1549 31.86C38.5977 31.9839 39.046 32.1203 39.4998 32.269C39.9537 32.4177 40.4185 32.5541 40.8945 32.678C41.3705 32.802 41.8741 32.8639 42.4054 32.8639C42.9146 32.8639 43.4127 32.8082 43.8997 32.6966C44.3724 32.5884 44.9179 32.3926 45.5365 32.1092L45.5926 32.0835C44.2645 32.8767 42.9642 33.7875 41.6915 34.8161C40.4185 35.8449 39.284 37.01 38.2878 38.3114C37.2916 39.6129 36.4891 41.0445 35.8803 42.6062C35.2715 44.168 34.9671 45.866 34.9671 47.7005C34.9671 49.1135 35.3324 50.2414 36.0629 51.0842C36.7935 51.9271 37.9668 52.3485 39.5828 52.3485C40.4019 52.3485 41.0882 52.2493 41.6417 52.051C42.1951 51.8527 42.6379 51.58 42.9699 51.233C43.302 50.8859 43.5345 50.4769 43.6673 50.0059C43.8001 49.5349 43.8665 49.0143 43.8665 48.4441C43.8665 47.7996 43.8333 47.1613 43.7669 46.5292C43.7005 45.897 43.6673 45.2959 43.6673 44.7257C43.6673 43.164 43.7171 41.8006 43.8167 40.6354C43.9163 39.4703 44.1654 38.3176 44.5639 37.1773C44.9623 36.037 45.5767 34.8285 46.4068 33.5518C47.237 32.2752 48.3826 30.7444 49.8438 28.9596L48.5487 26.5054C48.3716 26.8029 48.2111 27.0508 48.0672 27.2491C47.9233 27.4474 47.7794 27.6024 47.6355 27.7139C47.4916 27.8255 47.32 27.8998 47.1208 27.937C46.9215 27.9742 46.667 27.9928 46.357 27.9928C45.4494 27.9928 44.7022 27.8874 44.1156 27.6767C43.5289 27.466 42.9201 27.2367 42.2892 26.9888C41.6583 26.7409 40.9333 26.5116 40.1141 26.3009C39.295 26.0902 38.1992 25.9848 36.8267 25.9848ZM16.0454 25.9848C15.2706 25.9848 14.6065 26.115 14.053 26.3753C13.4996 26.6356 13.0347 26.9888 12.6583 27.435C12.282 27.8812 12.0053 28.4018 11.8282 28.9968C11.6511 29.5917 11.5625 30.2239 11.5625 30.8932C11.5625 31.1906 11.568 31.6059 11.5791 32.1388C11.5902 32.6718 11.6178 33.0994 11.6621 33.4217H13.7874C13.8538 33.0003 13.9589 32.6718 14.1028 32.4363C14.2467 32.2008 14.4128 32.0273 14.6009 31.9157C14.7891 31.8042 15.0049 31.736 15.2485 31.7112C15.492 31.6864 15.7466 31.674 16.0122 31.674C16.4771 31.674 16.9309 31.736 17.3737 31.86C17.8165 31.9839 18.2647 32.1203 18.7186 32.269C19.1724 32.4177 19.6373 32.5541 20.1133 32.678C20.5892 32.802 21.0929 32.8639 21.6242 32.8639C22.1333 32.8639 22.6314 32.8082 23.1185 32.6966C23.5911 32.5884 24.1367 32.3926 24.7552 32.1092L24.8113 32.0835C23.4833 32.8767 22.1829 33.7875 20.9102 34.8161C19.6373 35.8449 18.5027 37.01 17.5065 38.3114C16.5103 39.6129 15.7078 41.0445 15.099 42.6062C14.4902 44.168 14.1858 45.866 14.1858 47.7005C14.1858 49.1135 14.5511 50.2414 15.2817 51.0842C16.0122 51.9271 17.1855 52.3485 18.8016 52.3485C19.6207 52.3485 20.307 52.2493 20.8604 52.051C21.4139 51.8527 21.8566 51.58 22.1887 51.233C22.5208 50.8859 22.7532 50.4769 22.886 50.0059C23.0189 49.5349 23.0853 49.0143 23.0853 48.4441C23.0853 47.7996 23.0521 47.1613 22.9856 46.5292C22.9192 45.897 22.886 45.2959 22.886 44.7257C22.886 43.164 22.9358 41.8006 23.0355 40.6354C23.1351 39.4703 23.3841 38.3176 23.7826 37.1773C24.1811 36.037 24.7954 34.8285 25.6256 33.5518C26.4558 32.2752 27.6014 30.7444 29.0625 28.9596L27.7674 26.5054C27.5903 26.8029 27.4298 27.0508 27.2859 27.2491C27.142 27.4474 26.9981 27.6024 26.8542 27.7139C26.7103 27.8255 26.5388 27.8998 26.3395 27.937C26.1403 27.9742 25.8857 27.9928 25.5758 27.9928C24.6681 27.9928 23.921 27.8874 23.3343 27.6767C22.7477 27.466 22.1389 27.2367 21.5079 26.9888C20.877 26.7409 20.152 26.5116 19.3329 26.3009C18.5138 26.0902 17.418 25.9848 16.0454 25.9848ZM57.6079 25.9848C56.8331 25.9848 56.169 26.115 55.6155 26.3753C55.0621 26.6356 54.5972 26.9888 54.2208 27.435C53.8445 27.8812 53.5678 28.4018 53.3907 28.9968C53.2136 29.5917 53.125 30.2239 53.125 30.8932C53.125 31.1906 53.1305 31.6059 53.1416 32.1388C53.1527 32.6718 53.1803 33.0994 53.2246 33.4217H55.3499C55.4163 33.0003 55.5214 32.6718 55.6653 32.4363C55.8092 32.2008 55.9753 32.0273 56.1634 31.9157C56.3516 31.8042 56.5674 31.736 56.811 31.7112C57.0545 31.6864 57.3091 31.674 57.5747 31.674C58.0396 31.674 58.4934 31.736 58.9362 31.86C59.379 31.9839 59.8272 32.1203 60.2811 32.269C60.7349 32.4177 61.1998 32.5541 61.6758 32.678C62.1517 32.802 62.6554 32.8639 63.1867 32.8639C63.6958 32.8639 64.1939 32.8082 64.681 32.6966C65.1536 32.5884 65.6992 32.3926 66.3177 32.1092L66.3738 32.0835C65.0458 32.8767 63.7454 33.7875 62.4727 34.8161C61.1998 35.8449 60.0652 37.01 59.069 38.3114C58.0728 39.6129 57.2703 41.0445 56.6615 42.6062C56.0527 44.168 55.7483 45.866 55.7483 47.7005C55.7483 49.1135 56.1136 50.2414 56.8442 51.0842C57.5747 51.9271 58.748 52.3485 60.3641 52.3485C61.1832 52.3485 61.8695 52.2493 62.4229 52.051C62.9764 51.8527 63.4191 51.58 63.7512 51.233C64.0833 50.8859 64.3157 50.4769 64.4485 50.0059C64.5814 49.5349 64.6478 49.0143 64.6478 48.4441C64.6478 47.7996 64.6146 47.1613 64.5481 46.5292C64.4817 45.897 64.4485 45.2959 64.4485 44.7257C64.4485 43.164 64.4983 41.8006 64.598 40.6354C64.6976 39.4703 64.9466 38.3176 65.3451 37.1773C65.7436 36.037 66.3579 34.8285 67.1881 33.5518C68.0183 32.2752 69.1639 30.7444 70.625 28.9596L69.3299 26.5054C69.1528 26.8029 68.9923 27.0508 68.8484 27.2491C68.7045 27.4474 68.5606 27.6024 68.4167 27.7139C68.2729 27.8255 68.1013 27.8998 67.902 27.937C67.7028 27.9742 67.4482 27.9928 67.1383 27.9928C66.2306 27.9928 65.4835 27.8874 64.8968 27.6767C64.3102 27.466 63.7014 27.2367 63.0704 26.9888C62.4395 26.7409 61.7145 26.5116 60.8954 26.3009C60.0763 26.0902 58.9805 25.9848 57.6079 25.9848Z" fill="white"/>
</g>
</svg>
