<?xml version="1.0" encoding="UTF-8"?>
<svg xmlns="http://www.w3.org/2000/svg" xmlns:xlink="http://www.w3.org/1999/xlink" width="24pt" height="24pt" viewBox="0 0 24 24" version="1.1">
<defs>
<clipPath id="clip1">
  <path d="M 6 6 L 18 6 L 18 18 L 6 18 Z M 6 6 "/>
</clipPath>
<clipPath id="clip2">
  <path d="M 12 16.5 C 12.953125 16.5 13.8125 16.238281 14.574219 15.714844 C 15.335938 15.191406 15.875 14.5 16.191406 13.636719 L 17.761719 13.636719 C 17.398438 14.910156 16.6875 15.953125 15.628906 16.773438 C 14.574219 17.589844 13.363281 18 12 18 C 10.339844 18 8.925781 17.414062 7.753906 16.246094 C 6.585938 15.074219 6 13.660156 6 12 C 6 10.339844 6.585938 8.925781 7.753906 7.753906 C 8.925781 6.585938 10.339844 6 12 6 C 13.636719 6 15.046875 6.589844 16.226562 7.773438 L 18 6 L 18 11.25 L 12.75 11.25 L 15.136719 8.863281 C 14.273438 7.953125 13.226562 7.5 12 7.5 C 10.75 7.5 9.6875 7.9375 8.8125 8.8125 C 7.9375 9.6875 7.5 10.75 7.5 12 C 7.5 13.25 7.9375 14.3125 8.8125 15.1875 C 9.6875 16.0625 10.75 16.5 12 16.5 Z M 12 16.5 "/>
</clipPath>
</defs>
<g id="surface1">
<g clip-path="url(#clip1)" clip-rule="nonzero">
<g clip-path="url(#clip2)" clip-rule="evenodd">
<path style=" stroke:none;fill-rule:nonzero;fill:rgb(60.784912%,60.784912%,60.784912%);fill-opacity:1;" d="M 1 1 L 23 1 L 23 23 L 1 23 Z M 1 1 "/>
</g>
</g>
</g>
</svg>
