<svg width="32" height="40" viewBox="0 0 32 40" fill="none" xmlns="http://www.w3.org/2000/svg">
<path d="M0 0H32V40L16.5 31L0 40V0Z" fill="#131313"/>
<path fill-rule="evenodd" clip-rule="evenodd" d="M14.8053 13.7307C14.3258 14.5263 13.8476 15.3198 13.3675 16.1134C13.3492 16.106 13.3377 16.1033 13.3273 16.1008C13.3212 16.0994 13.3155 16.098 13.3089 16.0958C13.0164 15.9257 12.7239 15.7548 12.431 15.5836C11.9669 15.3124 11.502 15.0407 11.0349 14.7713C10.9587 14.7244 10.9587 14.6775 10.9763 14.6013C11.117 13.898 10.4547 13.2592 9.76899 13.4409C9.29426 13.5639 8.97778 13.98 9.00122 14.4489C9.03052 14.9471 9.38217 15.328 9.89793 15.3925C10.0151 15.4042 10.0562 15.4511 10.0738 15.5566C10.1478 15.8247 10.2219 16.0926 10.2959 16.3604C10.6378 17.5972 10.979 18.8313 11.3163 20.0695C11.3514 20.1984 11.4042 20.2277 11.5272 20.2277C14.8386 20.2218 18.15 20.2218 21.4614 20.2277C21.5962 20.2277 21.6431 20.1808 21.6782 20.0577C21.838 19.4755 21.9988 18.8942 22.1593 18.3134C22.4109 17.4034 22.6621 16.4946 22.909 15.5859C22.9442 15.4511 22.991 15.3984 23.1317 15.3808C23.6943 15.3163 24.0753 14.8006 23.9874 14.2555C23.8995 13.6929 23.3779 13.3178 22.8269 13.4174C22.276 13.517 21.9185 14.0504 22.0299 14.6072C22.0475 14.6951 22.024 14.7302 21.9537 14.7713C21.8511 14.8268 21.7516 14.8855 21.6507 14.9451C21.6133 14.9671 21.5756 14.9894 21.5376 15.0116C21.1954 15.213 20.8532 15.4128 20.5091 15.6136C20.2226 15.7808 19.9348 15.9488 19.6445 16.1193C19.1629 15.3252 18.6849 14.5312 18.2074 13.7381C17.825 13.1029 17.443 12.4684 17.0599 11.835C17.5874 11.3016 17.646 10.7566 17.2298 10.3112C16.8723 9.92435 16.2569 9.89504 15.8525 10.2408C15.6533 10.4108 15.5361 10.6335 15.5126 10.8972C15.4774 11.2958 15.6416 11.5947 15.9522 11.8291C15.5681 12.4649 15.1863 13.0985 14.8053 13.7307ZM11.7849 23.0527H16.5029H20.248C20.3611 23.0527 20.4748 23.0533 20.5888 23.054C20.8174 23.0553 21.0468 23.0566 21.2736 23.0527C21.9711 23.0351 22.3755 22.3494 22.0238 21.775C21.8363 21.4702 21.5432 21.3706 21.1974 21.3706H11.7967H11.697C11.0054 21.4116 10.6186 22.0915 10.9703 22.6541C11.1578 22.9472 11.445 23.0527 11.7849 23.0527Z" fill="#FED500"/>
</svg>
