<svg width="12" height="24" viewBox="0 0 12 24" fill="none" xmlns="http://www.w3.org/2000/svg">
<path d="M6.14391 4.44C4.74391 4.44 3.58391 4.82 2.68391 5.62C1.72391 6.42 1.20391 7.54 1.08391 8.98H3.38391C3.46391 8.12 3.74391 7.48 4.22391 7.06C4.68391 6.64 5.32391 6.44 6.16391 6.44C6.98391 6.44 7.60391 6.62 8.02391 6.98C8.40391 7.34 8.60391 7.86 8.60391 8.56C8.60391 9.26 8.38391 9.8 7.96391 10.16C7.52391 10.52 6.88391 10.7 6.04391 10.7H5.04391V12.46H6.04391C6.96391 12.46 7.66391 12.64 8.14391 13.04C8.62391 13.42 8.88391 14.02 8.88391 14.84C8.88391 15.52 8.64391 16.08 8.18391 16.54C7.66391 17.04 6.94391 17.3 6.04391 17.3C5.22391 17.3 4.56391 17.06 4.06391 16.6C3.50391 16.1 3.22391 15.38 3.18391 14.46H0.803906C0.923906 16.06 1.48391 17.3 2.48391 18.14C3.38391 18.9 4.58391 19.28 6.06391 19.28C7.62391 19.28 8.88391 18.84 9.84391 17.98C10.7639 17.14 11.2239 16.06 11.2239 14.74C11.2239 13.9 10.9839 13.2 10.5039 12.66C10.0639 12.14 9.40391 11.76 8.56391 11.5C10.1439 10.98 10.9439 9.94 10.9439 8.38C10.9439 7.14 10.5039 6.18 9.64391 5.48C8.76391 4.78 7.58391 4.44 6.14391 4.44Z" fill="black"/>
</svg>
