<svg width="32" height="32" viewBox="0 0 32 32" fill="none" xmlns="http://www.w3.org/2000/svg">
<path d="M16 32C24.8366 32 32 24.8366 32 16C32 7.16344 24.8366 0 16 0C7.16344 0 0 7.16344 0 16C0 24.8366 7.16344 32 16 32Z" fill="white"/>
<path d="M17.0326 22.1967L20.6319 26.6714H26.2979L23.0053 23.0813L22.8522 22.8473L22.8263 22.7428L22.801 22.639V22.3527L22.8263 22.2489L22.8522 22.1445L22.9035 22.0142L23.0053 21.8582L23.1331 21.6241L23.2862 21.4423L26.5787 17.5395L26.8083 17.2539L26.9867 16.9934L27.1145 16.7336L27.2676 16.4731L27.3701 16.2126L27.446 15.9527L27.4979 15.6922V14.9385L27.446 14.678L27.3701 14.444L27.2676 14.1835L27.1145 13.9236L26.9867 13.7154L26.8083 13.4555L19.7381 5L18.6153 6.01488L22.0103 10.2033L22.214 10.4896L22.367 10.7752L22.4436 10.9319L22.4695 11.0621L22.4948 11.2175V11.3478L22.4695 11.6598L22.3923 11.9461L22.2652 12.2331L22.0862 12.5187L17.1603 18.2939L17.0326 18.3983L16.982 18.5279L16.8282 18.7104L16.7011 18.9445L16.6246 19.1785L16.5221 19.4132L16.4715 19.6473L16.4455 19.9071L16.3943 20.1412V20.4017L16.4455 20.6615L16.4715 20.9478L16.548 21.1818L16.6499 21.4423L16.7523 21.7021L16.8795 21.9626L16.982 22.0922L17.0326 22.1967Z" fill="#205839"/>
<path d="M11.8 11.2439L11.826 10.8274L11.9025 10.3851L11.9285 10.1775L12.0044 9.94344L12.1581 9.5527L12.3365 9.1884L12.4383 9.00658L12.5408 8.8241L12.7957 8.51204L13.026 8.17419L13.3575 7.91369L13.6636 7.67964L14.021 7.44559L14.3784 7.26311L14.7611 7.13352L14.9908 7.05551L15.1951 7.02906L15.3994 6.97749L15.629 6.95105H15.8333L16.063 6.89948L16.4457 6.95105L16.8284 7.02906L17.2117 7.08129L17.5685 7.23733L17.7475 7.31534L17.9259 7.39336L18.2833 7.57518L18.6154 7.78344L18.8963 8.04394L19.1259 8.33022L19.279 8.45981L19.3808 8.6165L19.6364 8.90212L19.9938 9.63071L20.0191 9.81319L20.0956 9.99501L20.1981 10.3851L20.274 10.7752H17.7988L16.063 9.00658L13.8167 11.2439L16.063 13.4813L17.7988 11.712H20.274L20.1981 12.1544L20.0956 12.5186L20.0191 12.7005L19.9938 12.8829L19.6364 13.6109L19.3808 13.8978L19.1259 14.1834L18.8963 14.4697L18.6154 14.7302L18.437 14.834L18.2833 14.9385L18.1049 15.0423L17.9259 15.1203L17.5685 15.2763L17.2117 15.4066L16.8284 15.5104L16.4457 15.5626L16.063 15.5884L15.629 15.5626L15.1951 15.4846L14.9908 15.4582L14.7611 15.3801L14.3784 15.2241L14.021 15.0423L13.8426 14.9385L13.6636 14.834L13.3575 14.5742L13.026 14.3137L12.7957 14.0016L12.5408 13.6631L12.3365 13.2988L12.1581 12.961L12.0044 12.5451L11.9285 12.3368L11.9025 12.1286L11.8513 11.8945L11.8 11.478V11.2439Z" fill="#BD2830"/>
<path d="M15.016 22.1967L11.4432 26.6714H5.75135L9.06919 23.0813L9.19697 22.8473L9.24822 22.7428L9.27352 22.639V22.3527L9.24822 22.2489L9.19697 22.1445L9.17168 22.0142L8.91611 21.6241L8.73773 21.4423L5.47049 17.5395L5.26616 17.2539L5.08779 16.9934L4.9347 16.7336L4.80692 16.4731L4.70443 16.2126L4.62789 15.9527L4.552 15.6922V14.9385L4.62789 14.678L4.70443 14.444L4.90876 13.9236L5.08779 13.7154L5.26616 13.4555L12.3364 5L13.4592 6.01488L10.0649 10.2033L9.83525 10.4896L9.70746 10.7752L9.63092 10.9319L9.60562 11.0621L9.55438 11.2175V11.3478L9.60562 11.6598L9.65622 11.9461L9.8093 12.2331L9.98833 12.5187L14.9142 18.2939L15.016 18.3983L15.0932 18.5279L15.2203 18.7104L15.3481 18.9445L15.4506 19.1785L15.5524 19.4132L15.5777 19.6473L15.629 19.9071L15.6543 20.1412V20.4017L15.629 20.6615L15.5777 20.9478L15.5271 21.1818L15.3994 21.4423L15.2969 21.7021L15.1697 21.9626L15.0932 22.0922L15.016 22.1967Z" fill="#205839"/>
</svg>
