<?xml version="1.0" encoding="UTF-8"?>
<svg xmlns="http://www.w3.org/2000/svg" xmlns:xlink="http://www.w3.org/1999/xlink" width="76pt" height="76pt" viewBox="0 0 76 76" version="1.1">
<defs>
<clipPath id="clip1">
  <path d="M 38 76 C 58.988281 76 76 58.988281 76 38 C 76 17.011719 58.988281 0 38 0 C 17.011719 0 0 17.011719 0 38 C 0 58.988281 17.011719 76 38 76 Z M 38 76 "/>
</clipPath>
<clipPath id="clip2">
  <path d="M 5 5 L 71 5 L 71 71 L 5 71 Z M 5 5 "/>
</clipPath>
<clipPath id="clip3">
  <path d="M 38 71 C 56.226562 71 71 56.226562 71 38 C 71 19.773438 56.226562 5 38 5 C 19.773438 5 5 19.773438 5 38 C 5 56.226562 19.773438 71 38 71 Z M 38 71 "/>
</clipPath>
<clipPath id="clip4">
  <path d="M 18 26 L 59 26 L 59 51 L 18 51 Z M 18 26 "/>
</clipPath>
<clipPath id="clip5">
  <path d="M 38.5 26 C 39.757812 26 40.777344 27 40.777344 28.238281 C 40.777344 29.128906 40.246094 29.898438 39.476562 30.257812 C 42.101562 32.863281 47.839844 38.929688 47.945312 39.148438 C 49.492188 38.40625 52.78125 37 55.367188 35.996094 C 54.804688 35.589844 54.445312 34.9375 54.445312 34.203125 C 54.445312 32.964844 55.464844 31.964844 56.722656 31.964844 C 57.980469 31.964844 59 32.964844 59 34.203125 C 59 35.4375 57.980469 36.4375 56.722656 36.4375 C 56.707031 36.4375 56.691406 36.4375 56.675781 36.4375 L 56.714844 35.992188 C 56.3125 40.722656 55.90625 45.457031 55.488281 50.191406 C 55.472656 50.375 55.433594 50.695312 55.207031 50.71875 C 51.773438 51.015625 45.746094 51.03125 39.578125 50.96875 L 38.15625 50.953125 C 31.746094 50.878906 25.390625 50.734375 21.847656 50.75 C 21.59375 50.75 21.546875 50.371094 21.527344 50.164062 C 21.121094 45.589844 20.730469 41.011719 20.339844 36.4375 L 20.277344 36.4375 C 19.019531 36.4375 18 35.4375 18 34.203125 C 18 32.964844 19.019531 31.964844 20.277344 31.964844 C 21.535156 31.964844 22.554688 32.964844 22.554688 34.203125 C 22.554688 34.9375 22.195312 35.589844 21.636719 36 C 24.265625 36.988281 25.714844 37.605469 29.066406 39.144531 C 29.078125 39.125 29.117188 39.074219 29.183594 38.992188 L 29.304688 38.847656 C 29.910156 38.136719 31.59375 36.261719 33.429688 34.242188 L 33.855469 33.773438 L 34.5 33.070312 C 35.460938 32.019531 36.417969 30.980469 37.238281 30.097656 C 36.625 29.699219 36.222656 29.015625 36.222656 28.238281 C 36.222656 27 37.242188 26 38.5 26 Z M 38.5 26 "/>
</clipPath>
</defs>
<g id="surface1">
<g clip-path="url(#clip1)" clip-rule="evenodd">
<rect x="0" y="0" width="76" height="76" style="fill:rgb(100%,100%,100%);fill-opacity:1;stroke:none;"/>
</g>
<g clip-path="url(#clip2)" clip-rule="nonzero">
<g clip-path="url(#clip3)" clip-rule="evenodd">
<rect x="0" y="0" width="76" height="76" style="fill:rgb(7.450867%,7.450867%,7.450867%);fill-opacity:1;stroke:none;"/>
</g>
</g>
<g clip-path="url(#clip4)" clip-rule="nonzero">
<g clip-path="url(#clip5)" clip-rule="evenodd">
<path style=" stroke:none;fill-rule:nonzero;fill:rgb(100%,83.529663%,0%);fill-opacity:1;" d="M 13 21 L 64 21 L 64 56 L 13 56 Z M 13 21 "/>
</g>
</g>
</g>
</svg>
