<svg width="44" height="44" viewBox="0 0 44 44" fill="none" xmlns="http://www.w3.org/2000/svg">
<rect x="1" y="1" width="42" height="42" rx="7" fill="white" stroke="#303030" stroke-width="2"/>
<g clip-path="url(#clip0_2640_7664)">
<path d="M11.7096 31.8401C11.2093 31.3397 10.7526 30.8776 10.3146 30.4289C7.66021 27.7089 7.23832 23.4135 9.3112 20.2135C11.4804 16.8664 15.595 15.5336 19.318 16.9726C19.3795 16.9967 19.4419 17.019 19.5169 17.0466L20.0021 17.2242L19.9816 16.8414C19.9084 15.456 20.2063 14.2374 20.894 13.1161C22.4451 10.5852 25.7837 9.52632 28.4943 10.7057C28.8092 10.843 29.0464 10.7958 29.2872 10.5495C29.8599 9.96255 30.4521 9.37288 31.0248 8.80373L31.477 8.35322C31.9444 7.88666 32.377 7.88309 32.8363 8.34162C33.3153 8.81978 33.7943 9.29794 34.2732 9.777C34.7522 10.256 35.2044 10.7083 35.6691 11.1749C36.1115 11.6183 36.1115 12.0679 35.6691 12.5121L35.612 12.5692C34.8976 13.2865 34.1591 14.0287 33.4268 14.7504C33.2805 14.8949 33.1306 15.1054 33.2751 15.4551C34.1082 17.4695 33.9031 19.6239 32.7132 21.3661C31.526 23.1048 29.5994 24.0772 27.4284 24.0344C27.3954 24.0344 27.3553 24.0272 27.2991 24.0183C27.2625 24.013 27.2224 24.0067 27.176 24.0005L26.7577 23.946L26.9646 24.4956C26.9985 24.5857 27.0262 24.6588 27.0547 24.732C28.3846 28.1781 27.2937 32.0311 24.3405 34.3202C22.9776 35.3764 21.2472 35.9732 19.4687 36C17.6893 36.0267 15.9312 35.4817 14.5184 34.4638C14.1375 34.1899 13.828 33.9339 13.572 33.6823C12.846 32.9695 12.2546 32.3843 11.7114 31.841L11.7096 31.8401ZM20.5497 19.5811C20.5212 19.557 20.4935 19.5329 20.4659 19.5079C20.4026 19.4526 20.3374 19.3955 20.267 19.3411C17.7811 17.4293 14.0474 17.6292 11.7667 19.796C10.4172 21.0789 9.65995 22.781 9.63409 24.5892C9.60822 26.3966 10.3146 28.1192 11.6249 29.4386C12.0834 29.9007 12.5418 30.362 13.0021 30.8214C13.5515 31.3709 14.0519 31.8687 14.5327 32.3424C14.8609 32.6662 15.1419 32.9098 15.4175 33.1105C17.9408 34.9446 21.447 34.768 23.7536 32.6894C26.0994 30.5761 26.6551 27.0764 25.0755 24.368C24.947 24.1468 24.7972 23.9407 24.6527 23.74C24.5876 23.649 24.5216 23.5589 24.4582 23.467L24.3521 23.3136L23.8776 23.4616L23.8803 23.6508C23.8829 23.8336 23.8874 24.0156 23.8919 24.1985C23.9008 24.6044 23.9106 25.0237 23.9061 25.4332C23.9008 25.9042 23.5645 26.2503 23.1061 26.2548C22.8822 26.2575 22.6752 26.1763 22.5254 26.0255C22.3755 25.8747 22.2881 25.6606 22.2846 25.4242C22.273 24.7418 22.2783 24.0558 22.2828 23.393C22.2846 23.0772 22.2926 22.764 22.3006 22.4331C22.3042 22.2823 22.3078 22.1298 22.3113 21.9745L22.3167 21.7158C22.3167 21.7158 21.3498 21.7176 21.0028 21.7185C20.1965 21.7203 19.4348 21.723 18.6615 21.7203C18.3778 21.7203 18.1317 21.6293 17.9684 21.4651C17.8257 21.3224 17.7499 21.1306 17.749 20.9112C17.7481 20.6774 17.8311 20.4758 17.989 20.3286C18.1504 20.1779 18.3859 20.094 18.6508 20.0931C19.0423 20.0913 19.441 20.0967 19.8273 20.1011C20.0003 20.1029 20.1724 20.1047 20.3455 20.1065L20.5105 20.1083L20.6951 19.7015L20.5497 19.5775V19.5811ZM31.3004 10.8359C30.7937 11.3426 30.296 11.8404 29.7983 12.3382C29.3158 12.8199 29.0375 12.8529 28.4452 12.4979C26.5775 11.3774 24.2335 11.7289 22.7448 13.3534C21.2918 14.9395 21.1866 17.391 22.4995 19.0565C22.8304 19.4758 23.2113 19.9004 23.6635 20.3518C23.9543 20.6426 24.27 20.9415 24.6571 21.2912C25.6249 22.1672 26.9414 22.5606 28.2695 22.3706C29.5968 22.1806 30.7491 21.4348 31.4324 20.3251C32.401 18.7496 32.4171 17.1323 31.4797 15.5194C31.1675 14.9823 31.2049 14.671 31.6349 14.2401C32.0737 13.8003 32.5134 13.3605 32.9523 12.9216L34.0208 11.8529L32.1522 9.98396L31.3013 10.835L31.3004 10.8359Z" fill="#007FDA"/>
<path d="M15.7011 28.2665C14.5612 27.1085 14.5799 25.236 15.7412 24.0915C16.8891 22.9603 18.7542 22.9719 19.8986 24.1156L19.9146 24.1325C21.0545 25.2905 21.0358 27.163 19.8745 28.3066C18.7257 29.4378 16.8615 29.4271 15.7171 28.2834L15.7002 28.2665H15.7011ZM18.7426 25.2664C18.2395 24.7632 17.4127 24.7516 16.8989 25.2405C16.6412 25.4858 16.4967 25.8195 16.4913 26.1808C16.486 26.5412 16.6207 26.8784 16.8713 27.13C17.3842 27.6429 18.2172 27.6474 18.731 27.1433C19.2474 26.6375 19.2608 25.8034 18.7595 25.2833L18.7426 25.2664Z" fill="#007FDA"/>
</g>
<defs>
<clipPath id="clip0_2640_7664">
<rect width="28" height="28" fill="white" transform="translate(8 8)"/>
</clipPath>
</defs>
</svg>
