<?xml version="1.0" encoding="UTF-8"?>
<svg xmlns="http://www.w3.org/2000/svg" xmlns:xlink="http://www.w3.org/1999/xlink" width="34pt" height="34pt" viewBox="0 0 34 34" version="1.1">
<g id="surface1">
<path style=" stroke:none;fill-rule:evenodd;fill:rgb(60.783386%,60.783386%,60.783386%);fill-opacity:1;" d="M 24.78125 17.492188 C 25.222656 17.644531 25.554688 17.949219 25.75 18.359375 C 25.917969 18.714844 25.882812 19.09375 25.585938 19.398438 C 25.144531 19.859375 24.691406 20.3125 24.242188 20.765625 C 24.195312 20.8125 24.136719 20.847656 24.085938 20.886719 C 25.160156 21.964844 26.195312 23.003906 27.246094 24.058594 C 27.402344 23.910156 27.5625 23.757812 27.722656 23.605469 C 27.882812 23.445312 28.074219 23.402344 28.289062 23.460938 C 28.65625 23.5625 28.832031 24.019531 28.546875 24.304688 C 27.441406 25.402344 26.347656 26.515625 25.246094 27.617188 C 25.152344 27.710938 25.023438 27.789062 24.898438 27.828125 C 24.667969 27.898438 24.476562 27.789062 24.324219 27.554688 C 24.203125 27.371094 24.203125 27.207031 24.351562 27.015625 C 24.519531 26.800781 24.707031 26.605469 24.90625 26.375 C 24.761719 26.234375 24.609375 26.097656 24.464844 25.953125 C 23.625 25.128906 22.789062 24.304688 21.949219 23.484375 C 21.710938 23.25 21.761719 23.285156 21.550781 23.484375 C 21.089844 23.914062 20.644531 24.355469 20.183594 24.785156 C 19.851562 25.09375 19.378906 25.109375 19.023438 24.828125 C 18.851562 24.691406 18.695312 24.53125 18.539062 24.371094 C 18.28125 24.113281 18.234375 23.796875 18.320312 23.460938 C 18.347656 23.335938 18.421875 23.210938 18.511719 23.117188 C 19.449219 22.152344 20.386719 21.1875 21.34375 20.234375 C 22.214844 19.367188 23.105469 18.523438 23.980469 17.65625 C 24.222656 17.421875 24.488281 17.390625 24.78125 17.492188 Z M 9.898438 17.589844 C 10.222656 17.863281 10.546875 18.136719 10.84375 18.433594 C 12.394531 19.980469 13.933594 21.53125 15.472656 23.085938 C 15.792969 23.40625 15.808594 23.972656 15.511719 24.320312 C 15.363281 24.492188 15.1875 24.640625 15.023438 24.796875 C 14.738281 25.070312 14.140625 25.121094 13.792969 24.769531 C 13.34375 24.304688 12.863281 23.875 12.398438 23.425781 C 12.296875 23.324219 12.226562 23.3125 12.117188 23.421875 C 11.140625 24.390625 10.160156 25.351562 9.179688 26.316406 C 9.15625 26.339844 9.136719 26.367188 9.117188 26.394531 C 9.296875 26.601562 9.476562 26.796875 9.648438 27 C 9.769531 27.152344 9.816406 27.328125 9.707031 27.511719 C 9.585938 27.714844 9.433594 27.882812 9.175781 27.835938 C 9.046875 27.816406 8.910156 27.746094 8.8125 27.65625 C 8.386719 27.265625 7.96875 26.867188 7.558594 26.457031 C 6.867188 25.757812 6.183594 25.046875 5.496094 24.34375 C 5.347656 24.191406 5.261719 24.027344 5.34375 23.816406 C 5.425781 23.601562 5.582031 23.472656 5.808594 23.429688 C 5.976562 23.394531 6.117188 23.460938 6.238281 23.566406 C 6.410156 23.722656 6.578125 23.886719 6.734375 24.035156 C 7.777344 22.984375 8.820312 21.9375 9.859375 20.890625 L 9.90625 20.917969 C 9.863281 20.867188 9.820312 20.820312 9.773438 20.773438 C 9.339844 20.335938 8.917969 19.882812 8.464844 19.460938 C 8.109375 19.125 8.054688 18.429688 8.453125 18.050781 C 8.679688 17.835938 8.890625 17.609375 9.191406 17.492188 C 9.449219 17.390625 9.691406 17.417969 9.898438 17.589844 Z M 6.375 5.316406 C 6.667969 5.335938 6.964844 5.355469 7.257812 5.382812 C 8.148438 5.46875 9.039062 5.566406 9.933594 5.644531 C 10.335938 5.675781 10.65625 5.832031 10.929688 6.136719 C 12.296875 7.65625 13.675781 9.164062 15.046875 10.675781 L 16.855469 12.664062 C 16.902344 12.714844 16.9375 12.769531 16.976562 12.824219 L 17.054688 12.84375 C 17.09375 12.78125 17.121094 12.710938 17.167969 12.660156 C 18.535156 11.140625 19.898438 9.617188 21.269531 8.105469 C 21.902344 7.402344 22.554688 6.714844 23.191406 6.015625 C 23.382812 5.804688 23.613281 5.699219 23.890625 5.675781 L 27.464844 5.339844 C 27.597656 5.328125 27.726562 5.324219 27.878906 5.316406 C 27.878906 5.40625 27.886719 5.476562 27.878906 5.542969 C 27.769531 6.765625 27.65625 7.984375 27.546875 9.203125 C 27.511719 9.550781 27.371094 9.835938 27.109375 10.074219 C 26.011719 11.070312 24.925781 12.074219 23.828125 13.066406 C 22.617188 14.152344 21.398438 15.226562 20.183594 16.304688 C 20.167969 16.320312 20.152344 16.339844 20.128906 16.367188 C 20.757812 17.074219 21.386719 17.777344 22.019531 18.488281 C 21.992188 18.527344 21.972656 18.5625 21.949219 18.585938 C 21.121094 19.40625 20.289062 20.21875 19.46875 21.042969 C 19.347656 21.160156 19.273438 21.152344 19.152344 21.042969 C 18.484375 20.445312 17.8125 19.855469 17.140625 19.261719 C 17.097656 19.226562 17.054688 19.191406 17 19.144531 C 16.820312 19.304688 16.648438 19.460938 16.472656 19.613281 C 15.929688 20.089844 15.382812 20.566406 14.84375 21.050781 C 14.71875 21.164062 14.644531 21.148438 14.53125 21.035156 C 13.71875 20.222656 12.902344 19.417969 12.085938 18.613281 C 12.054688 18.582031 12.027344 18.546875 11.980469 18.496094 C 12.609375 17.789062 13.234375 17.085938 13.878906 16.359375 C 13.472656 15.996094 13.085938 15.652344 12.703125 15.308594 C 10.8125 13.621094 8.921875 11.933594 7.027344 10.253906 C 6.707031 9.96875 6.503906 9.640625 6.460938 9.214844 C 6.351562 8.089844 6.242188 6.964844 6.132812 5.839844 L 6.105469 5.589844 C 6.078125 5.3125 6.085938 5.300781 6.375 5.316406 Z M 6.375 5.316406 "/>
</g>
</svg>
