<?xml version="1.0" encoding="UTF-8"?>
<svg xmlns="http://www.w3.org/2000/svg" xmlns:xlink="http://www.w3.org/1999/xlink" width="20pt" height="20pt" viewBox="0 0 20 20" version="1.1">
<defs>
<clipPath id="clip1">
  <path d="M 4 3 L 17 3 L 17 18 L 4 18 Z M 4 3 "/>
</clipPath>
<clipPath id="clip2">
  <path d="M 4.167969 16.355469 C 4.167969 16.589844 4.253906 16.792969 4.433594 16.964844 C 4.609375 17.136719 4.816406 17.222656 5.058594 17.222656 L 15.773438 17.222656 C 16.015625 17.222656 16.226562 17.136719 16.402344 16.964844 C 16.578125 16.792969 16.667969 16.589844 16.667969 16.355469 L 16.667969 4.203125 C 16.667969 3.964844 16.578125 3.761719 16.402344 3.589844 C 16.226562 3.417969 16.015625 3.332031 15.773438 3.332031 L 5.058594 3.332031 C 4.816406 3.332031 4.609375 3.417969 4.433594 3.589844 C 4.253906 3.761719 4.167969 3.964844 4.167969 4.203125 Z M 5.355469 4.492188 L 15.476562 4.492188 L 15.476562 16.066406 L 5.355469 16.066406 Z M 6.84375 14.617188 L 8.632812 14.617188 L 8.632812 11.144531 L 6.84375 11.144531 Z M 9.523438 14.617188 L 11.308594 14.617188 L 11.308594 6.804688 L 9.523438 6.804688 Z M 12.203125 14.617188 L 13.988281 14.617188 L 13.988281 8.542969 L 12.203125 8.542969 Z M 12.203125 14.617188 "/>
</clipPath>
</defs>
<g id="surface1">
<g clip-path="url(#clip1)" clip-rule="nonzero">
<g clip-path="url(#clip2)" clip-rule="evenodd">
<rect x="0" y="0" width="20" height="20" style="fill:rgb(60.784912%,60.784912%,60.784912%);fill-opacity:1;stroke:none;"/>
</g>
</g>
</g>
</svg>
