<svg width="32" height="32" viewBox="0 0 32 32" fill="none" xmlns="http://www.w3.org/2000/svg">
<path d="M16 32C24.8366 32 32 24.8366 32 16C32 7.16344 24.8366 0 16 0C7.16344 0 0 7.16344 0 16C0 24.8366 7.16344 32 16 32Z" fill="white"/>
<path d="M19.423 4C19.5057 4.01023 19.5883 4.02896 19.671 4.02939C20.8969 4.03569 22.1228 4.03958 23.3486 4.04395C23.6051 4.04489 23.6051 4.0447 23.6073 4.30626C23.6233 6.25714 22.034 7.90382 20.0835 7.92675C18.4382 7.94607 16.7925 7.93332 15.1469 7.93517C15.0552 7.93525 14.9626 7.93112 14.8719 7.94174C12.1694 8.25764 10.2277 9.67175 9.05019 12.095C8.2144 13.8151 8.03125 15.6677 8.39066 17.5298C8.93424 20.3462 10.6231 22.2675 13.2844 23.2945C14.9907 23.953 16.7451 23.9252 18.4685 23.3317C21.1259 22.4167 22.9105 20.653 23.6123 17.8822C23.7327 17.4068 23.8118 16.9238 23.7969 16.3884H19.0534L19.0537 14.8936C19.0548 14.4819 19.2239 14.2228 19.6113 14.0854C19.7685 14.0296 19.9429 13.996 20.1094 13.9964C22.3643 14.0017 24.6192 14.015 26.8742 14.0257C27.1606 14.0271 27.4471 14.0259 27.7436 14.0259C27.7436 14.1696 27.7474 14.2859 27.743 14.402C27.6991 15.5826 27.564 16.753 27.3662 17.9176C27.009 20.0211 26.2304 21.9169 24.8014 23.5439C22.8091 25.8124 20.3608 27.1727 17.3482 27.4919C17.1346 27.5145 16.9215 27.542 16.7082 27.5672H15.2131C14.9999 27.5434 14.7871 27.5156 14.5735 27.4964C12.8309 27.3393 11.1736 26.8914 9.63315 26.0467C7.60409 24.9339 6.09162 23.3321 5.10325 21.2396C4.51199 19.9877 4.18519 18.6653 4.07361 17.2873C4.05477 17.0545 4.02483 16.8225 4 16.5902V15.1344C4.01235 15.0642 4.02786 14.9942 4.03655 14.9235C4.08506 14.5272 4.1152 14.1279 4.18212 13.7348C4.52304 11.7326 5.43544 9.99693 6.70382 8.4376C7.73294 7.17241 9.00007 6.1855 10.3993 5.36092C11.5346 4.69187 12.7277 4.18071 14.0621 4.1032C14.8594 4.05689 15.6592 4.05508 16.4578 4.03096C16.5677 4.02762 16.6772 4.01066 16.7869 4H19.423ZM28 8.87869V9.58689C27.9263 9.84357 27.8712 10.1074 27.7759 10.3558C27.2689 11.6763 26.2845 12.425 24.9178 12.6941C24.1068 12.8537 23.2855 12.7857 22.4664 12.7821C20.4471 12.7733 18.4276 12.7801 16.4082 12.7839C15.5756 12.7855 14.743 12.7908 13.9106 12.8063C13.7573 12.8091 13.5975 12.8499 13.4539 12.9065C13.1566 13.0237 12.9987 13.2545 13.0011 13.5776C13.0113 14.9412 13.0175 16.3049 13.0447 17.6682C13.0496 17.9171 13.1184 18.1743 13.2063 18.4095C13.3219 18.7192 13.5243 18.8055 13.8554 18.8054C14.8714 18.8051 15.8875 18.8174 16.9035 18.8235C17.2837 18.8258 17.6645 18.8385 18.0439 18.8214C18.6164 18.7956 18.9625 18.4838 19.0663 17.9168C19.1 17.732 19.1058 17.5421 19.1266 17.3329H22.7111C22.6606 17.5243 22.6291 17.7113 22.5627 17.8849C21.862 19.7153 20.7472 21.2101 18.9709 22.1129C17.9196 22.6473 16.7697 22.7789 15.5995 22.6873C14.0772 22.5681 12.7044 22.0495 11.4936 21.1118C10.5982 20.4184 10.0074 19.5092 9.65833 18.4475C8.97429 16.3666 9.06443 14.3156 9.98639 12.3195C10.6394 10.9056 11.7741 10.0218 13.2029 9.48266C14.2621 9.08304 15.3609 8.88345 16.4925 8.88231C20.3283 8.87849 24.1642 8.87951 28 8.87869Z" fill="#DE000F"/>
</svg>
