<svg width="32" height="32" viewBox="0 0 32 32" fill="none" xmlns="http://www.w3.org/2000/svg">
<path d="M16 32C24.8366 32 32 24.8366 32 16C32 7.16344 24.8366 0 16 0C7.16344 0 0 7.16344 0 16C0 24.8366 7.16344 32 16 32Z" fill="white"/>
<path d="M15.8995 13.8592C14.9519 15.7857 13.8719 17.6755 12.6953 19.4697H12.6951C9.66253 19.6551 6.6999 20.1166 4.00706 20.8615H4.00659C7.85588 16.6006 11.0406 11.0447 12.7209 5.53238H12.7264C13.457 8.26629 14.5462 11.1008 15.8995 13.8592Z" fill="#A61D2A"/>
<path d="M12.695 19.4702C14.8194 19.3404 16.9778 19.346 19.1026 19.4846C20.7949 22.0685 22.69 24.4475 24.6926 26.4389C19.1161 25.1677 12.7474 25.1369 7.16996 26.4149L7.16504 26.4062L7.25739 26.3118L7.34963 26.217L7.44174 26.1218L7.53351 26.0261L7.62539 25.9297L7.71693 25.833L7.80834 25.7357L7.89952 25.6379L7.99094 25.5396V25.5395L8.08189 25.4407V25.4406L8.17272 25.3413V25.3412L8.2632 25.2415L8.35379 25.1413L8.35391 25.1412L8.44404 25.0406L8.44415 25.0404L8.53417 24.9392L8.53428 24.9391L8.62394 24.8377L8.62406 24.8376L8.71395 24.7353L8.71407 24.7352L8.80361 24.6327L8.80373 24.6325L8.89304 24.5294L8.89327 24.5293L8.98223 24.426L8.98247 24.4257L9.07154 24.3217L9.07177 24.3216L9.16026 24.2173L9.1605 24.2172L9.24899 24.1122H9.24922L9.33748 24.0069L9.33771 24.0068C10.517 22.5985 11.6443 21.0723 12.695 19.4702Z" fill="#580B17"/>
<path d="M19.1028 19.4846C17.9265 17.6882 16.8477 15.7927 15.8994 13.8597C17.2551 11.1024 18.3387 8.26938 19.0443 5.5325H19.0451C20.7752 11.0663 23.9558 16.6611 27.8518 20.8919L27.8478 20.8988C25.1382 20.1578 22.1559 19.684 19.1028 19.4846Z" fill="#D82332"/>
<path d="M19.1025 19.4846C22.1558 19.684 25.1383 20.1577 27.8479 20.8988L24.6926 26.4389C22.69 24.4474 20.7948 22.0685 19.1025 19.4846Z" fill="#A61D2A"/>
<path d="M12.6953 19.4697C11.0141 22.0335 9.13536 24.4028 7.16496 26.4061L4.00708 20.8615C6.69992 20.1166 9.66279 19.655 12.6953 19.4697Z" fill="#D82332"/>
<path d="M19.0442 5.53238C18.3386 8.26938 17.2551 11.102 15.8994 13.8592C14.5461 11.1008 13.4569 8.26629 12.7263 5.53238H19.0442Z" fill="#580B17"/>
</svg>
