<?xml version="1.0" encoding="UTF-8"?>
<svg xmlns="http://www.w3.org/2000/svg" xmlns:xlink="http://www.w3.org/1999/xlink" width="16pt" height="16pt" viewBox="0 0 16 16" version="1.1">
<defs>
<clipPath id="clip1">
  <path d="M 3 5 L 13 5 L 13 11 L 3 11 Z M 3 5 "/>
</clipPath>
<clipPath id="clip2">
  <path d="M 12.90625 5.78125 C 12.96875 5.71875 13 5.625 13 5.5 C 13 5.355469 12.949219 5.234375 12.84375 5.140625 C 12.738281 5.046875 12.613281 5 12.46875 5 L 3.53125 5 C 3.386719 5 3.261719 5.046875 3.15625 5.140625 C 3.050781 5.234375 3 5.355469 3 5.5 C 3 5.605469 3.03125 5.6875 3.09375 5.75 L 3.15625 5.84375 L 7.40625 10.71875 C 7.59375 10.90625 7.792969 11 8 11 C 8.207031 11 8.40625 10.90625 8.59375 10.71875 L 12.84375 5.84375 Z M 12.90625 5.78125 "/>
</clipPath>
</defs>
<g id="surface1">
<g clip-path="url(#clip1)" clip-rule="nonzero">
<g clip-path="url(#clip2)" clip-rule="evenodd">
<rect x="0" y="0" width="16" height="16" style="fill:rgb(60.784912%,60.784912%,60.784912%);fill-opacity:1;stroke:none;"/>
</g>
</g>
</g>
</svg>
