<svg width="32" height="32" viewBox="0 0 32 32" fill="none" xmlns="http://www.w3.org/2000/svg">
<path d="M16 32C24.8366 32 32 24.8366 32 16C32 7.16344 24.8366 0 16 0C7.16344 0 0 7.16344 0 16C0 24.8366 7.16344 32 16 32Z" fill="white"/>
<path d="M24.6501 10.8382C23.8396 10.677 23.0156 10.4544 22.1771 10.3577C19.7236 10.0749 17.3853 10.4606 15.251 11.7617C14.0458 12.4966 13.0956 13.4708 12.6484 14.8523C11.9808 16.9145 12.9889 18.8839 15.0475 19.5534C15.0774 19.563 15.1056 19.578 15.1346 19.5905C15.1366 19.6186 15.1385 19.6467 15.1405 19.6748C14.4378 19.7934 13.7392 19.9548 13.0317 20.0227C10.8471 20.2324 8.74651 19.9173 6.78788 18.8818C5.65935 18.2853 4.71283 17.4834 4.07483 16.3527C3.98335 16.1907 3.97346 16.0589 4.05783 15.8902C6.65183 10.7018 10.5218 6.77868 15.6883 4.1351C15.8972 4.02815 16.0604 4.02363 16.273 4.1312C19.5098 5.76894 22.2857 7.9821 24.6028 10.7721C24.6302 10.8052 24.653 10.8422 24.6501 10.8382Z" fill="#005EB0"/>
<path d="M7.1582 21.1933C7.96878 21.3544 8.79273 21.5771 9.6312 21.6738C12.0847 21.9566 14.423 21.5709 16.5573 20.2697C17.7626 19.5349 18.7128 18.5606 19.1599 17.1792C19.8276 15.117 18.8194 13.1476 16.7609 12.4781C16.7309 12.4684 16.7027 12.4535 16.6737 12.441C16.6718 12.4128 16.6698 12.3848 16.6679 12.3567C17.3706 12.238 18.0691 12.0767 18.7767 12.0088C20.9612 11.799 23.0618 12.1141 25.0205 13.1496C26.149 13.7462 27.0955 14.5481 27.7335 15.6788C27.8249 15.8408 27.8349 15.9726 27.7505 16.1413C25.1565 21.3297 21.2866 25.2528 16.12 27.8964C15.9111 28.0033 15.748 28.0079 15.5354 27.9003C12.2986 26.2625 9.52257 24.0494 7.20557 21.2594C7.17809 21.2263 7.15536 21.1893 7.1582 21.1933Z" fill="#DAA836"/>
</svg>
