<?xml version="1.0" encoding="UTF-8"?>
<svg xmlns="http://www.w3.org/2000/svg" xmlns:xlink="http://www.w3.org/1999/xlink" width="82pt" height="64pt" viewBox="0 0 82 64" version="1.1">
<defs>
<filter id="alpha" filterUnits="objectBoundingBox" x="0%" y="0%" width="100%" height="100%">
  <feColorMatrix type="matrix" in="SourceGraphic" values="0 0 0 0 1 0 0 0 0 1 0 0 0 0 1 0 0 0 1 0"/>
</filter>
<clipPath id="clip1">
  <rect x="0" y="0" width="82" height="64"/>
</clipPath>
<g id="surface7" clip-path="url(#clip1)">
<rect x="0" y="0" width="82" height="64" style="fill:rgb(0%,0%,0%);fill-opacity:1;stroke:none;"/>
</g>
<mask id="mask0">
  <g filter="url(#alpha)">
<use xlink:href="#surface7"/>
  </g>
</mask>
<clipPath id="clip2">
  <rect x="0" y="0" width="82" height="64"/>
</clipPath>
<g id="surface6" clip-path="url(#clip2)">
<path style=" stroke:none;fill-rule:evenodd;fill:rgb(34.901428%,34.901428%,34.901428%);fill-opacity:1;" d="M 13.179688 53.945312 C 10.898438 53.945312 9.71875 52.761719 9.71875 50.472656 C 9.714844 45.84375 9.714844 41.21875 9.714844 36.589844 C 9.71875 34.199219 10.652344 33.167969 13.03125 32.933594 C 16.199219 32.617188 18.269531 30.648438 18.695312 27.542969 C 19.109375 24.503906 16.605469 21.355469 13.535156 21.0625 C 13.109375 21.019531 12.675781 20.992188 12.253906 20.921875 C 10.8125 20.679688 9.746094 19.5625 9.738281 18.109375 C 9.703125 13.027344 9.699219 7.945312 9.742188 2.859375 C 9.753906 1.171875 11.109375 0.0195312 12.917969 0.0117188 C 16.195312 -0.00390625 19.476562 0 22.757812 0 C 41.335938 0.00390625 59.914062 0.00390625 78.492188 0.0078125 C 80.355469 0.0078125 81.515625 0.785156 81.898438 2.328125 C 81.988281 2.683594 81.992188 3.066406 81.996094 3.441406 C 82 8.121094 82 12.804688 81.996094 17.484375 C 81.996094 19.726562 81.023438 20.808594 78.722656 21.007812 C 76.386719 21.214844 74.648438 22.296875 73.601562 24.375 C 71.722656 28.097656 74.292969 32.578125 78.460938 32.910156 C 80.476562 33.070312 81.496094 33.753906 81.886719 35.253906 C 81.980469 35.609375 81.992188 35.992188 81.992188 36.367188 C 82 41.101562 82 45.835938 81.996094 50.570312 C 81.996094 52.738281 80.78125 53.945312 78.597656 53.945312 C 67.679688 53.949219 56.765625 53.945312 45.847656 53.945312 C 34.960938 53.945312 24.070312 53.949219 13.179688 53.945312 Z M 13.179688 53.945312 "/>
<path style=" stroke:none;fill-rule:evenodd;fill:rgb(18.823242%,18.823242%,18.823242%);fill-opacity:1;" d="M 58.417969 4.316406 C 43.921875 4.339844 29.421875 4.34375 14.925781 4.328125 C 14.25 4.328125 14.027344 4.511719 14.035156 5.203125 C 14.066406 8.003906 14.0625 10.804688 14.027344 13.605469 C 14.019531 14.242188 14.242188 14.488281 14.832031 14.6875 C 20.195312 16.496094 23.722656 21.371094 23.738281 26.945312 C 23.753906 32.542969 20.210938 37.457031 14.796875 39.265625 C 14.171875 39.472656 14.023438 39.777344 14.03125 40.375 C 14.054688 43.148438 14.0625 45.917969 14.027344 48.691406 C 14.019531 49.394531 14.207031 49.640625 14.941406 49.632812 C 18.4375 49.59375 21.929688 49.613281 25.425781 49.613281 C 36.429688 49.613281 47.433594 49.609375 58.4375 49.628906 C 58.929688 49.632812 61.394531 49.605469 65.828125 49.546875 C 66.066406 49.574219 66.207031 49.605469 66.347656 49.605469 C 70.246094 49.609375 74.144531 49.597656 78.042969 49.617188 C 78.660156 49.621094 78.746094 49.335938 78.746094 48.824219 C 78.734375 45.996094 78.722656 43.164062 78.761719 40.335938 C 78.769531 39.695312 78.535156 39.453125 77.949219 39.257812 C 72.589844 37.457031 69.0625 32.574219 69.050781 26.996094 C 69.035156 21.4375 72.566406 16.511719 77.914062 14.703125 C 78.539062 14.492188 78.773438 14.234375 78.761719 13.566406 C 78.726562 10.792969 78.726562 8.023438 78.761719 5.25 C 78.773438 4.539062 78.570312 4.308594 77.839844 4.316406 C 74.117188 4.347656 70.390625 4.332031 66.664062 4.335938 C 66.390625 4.335938 66.117188 4.375 65.785156 4.398438 C 61.351562 4.34375 58.894531 4.316406 58.417969 4.316406 Z M 58.417969 4.316406 "/>
<path style=" stroke:none;fill-rule:evenodd;fill:rgb(34.901428%,34.901428%,34.901428%);fill-opacity:1;" d="M 13.046875 9.710938 C 31.625 9.714844 50.203125 9.714844 68.78125 9.71875 C 70.648438 9.71875 71.804688 10.496094 72.1875 12.039062 C 72.277344 12.394531 72.285156 12.777344 72.285156 13.148438 C 72.289062 17.832031 72.289062 22.511719 72.289062 27.195312 C 72.285156 29.4375 71.316406 30.519531 69.011719 30.71875 C 66.675781 30.925781 64.941406 32.007812 63.890625 34.085938 C 62.015625 37.808594 64.582031 42.289062 68.75 42.621094 C 70.765625 42.777344 71.789062 43.464844 72.175781 44.964844 C 72.269531 45.320312 72.28125 45.703125 72.285156 46.074219 C 72.289062 50.8125 72.292969 55.546875 72.285156 60.28125 C 72.285156 62.449219 71.070312 63.65625 68.886719 63.65625 C 57.96875 63.660156 47.054688 63.65625 36.136719 63.65625 C 25.25 63.65625 14.359375 63.660156 3.472656 63.65625 C 1.1875 63.65625 0.0078125 62.46875 0.0078125 60.183594 C 0.00390625 55.554688 0.00390625 50.925781 0.0078125 46.300781 C 0.0078125 43.910156 0.941406 42.878906 3.320312 42.644531 C 6.488281 42.328125 8.5625 40.355469 8.984375 37.253906 C 9.402344 34.214844 6.894531 31.066406 3.824219 30.773438 C 3.398438 30.730469 2.964844 30.703125 2.542969 30.632812 C 1.101562 30.390625 0.0351562 29.273438 0.0273438 27.820312 C -0.00390625 22.738281 -0.0117188 17.652344 0.03125 12.570312 C 0.0429688 10.882812 1.398438 9.730469 3.207031 9.722656 C 6.488281 9.703125 9.765625 9.710938 13.046875 9.710938 Z M 68.128906 14.027344 C 64.40625 14.058594 60.679688 14.042969 56.953125 14.042969 C 56.679688 14.046875 56.410156 14.082031 56.074219 14.109375 C 51.910156 14.058594 49.488281 14.03125 48.816406 14.027344 L 48.707031 14.027344 C 34.210938 14.050781 19.710938 14.050781 5.214844 14.039062 C 4.539062 14.039062 4.316406 14.222656 4.324219 14.914062 C 4.359375 17.714844 4.351562 20.515625 4.316406 23.316406 C 4.308594 23.953125 4.53125 24.199219 5.121094 24.398438 C 10.488281 26.207031 14.011719 31.082031 14.027344 36.65625 C 14.042969 42.253906 10.5 47.167969 5.085938 48.976562 C 4.460938 49.183594 4.3125 49.488281 4.320312 50.085938 C 4.34375 52.859375 4.351562 55.628906 4.316406 58.402344 C 4.308594 59.105469 4.496094 59.351562 5.230469 59.34375 C 8.726562 59.304688 12.21875 59.320312 15.714844 59.324219 C 26.71875 59.324219 37.722656 59.316406 48.726562 59.339844 L 48.910156 59.339844 C 49.683594 59.335938 52.085938 59.308594 56.117188 59.257812 C 56.355469 59.285156 56.496094 59.316406 56.636719 59.316406 C 60.535156 59.320312 64.433594 59.308594 68.332031 59.328125 C 68.949219 59.332031 69.035156 59.046875 69.035156 58.535156 C 69.023438 55.703125 69.015625 52.875 69.050781 50.046875 C 69.0625 49.40625 68.824219 49.164062 68.238281 48.96875 C 62.878906 47.167969 59.351562 42.285156 59.339844 36.707031 C 59.324219 31.148438 62.855469 26.222656 68.203125 24.414062 C 68.828125 24.199219 69.0625 23.945312 69.050781 23.277344 C 69.015625 20.503906 69.015625 17.730469 69.050781 14.960938 C 69.0625 14.25 68.859375 14.019531 68.128906 14.027344 Z M 68.128906 14.027344 "/>
<path style=" stroke:none;fill-rule:evenodd;fill:rgb(7.450867%,7.450867%,7.450867%);fill-opacity:1;" d="M 48.707031 14.027344 C 34.210938 14.050781 19.710938 14.050781 5.214844 14.039062 C 4.539062 14.039062 4.316406 14.222656 4.324219 14.914062 C 4.359375 17.714844 4.351562 20.515625 4.316406 23.316406 C 4.308594 23.953125 4.53125 24.199219 5.121094 24.398438 C 10.488281 26.207031 14.011719 31.082031 14.027344 36.65625 C 14.042969 42.253906 10.5 47.167969 5.085938 48.976562 C 4.460938 49.183594 4.3125 49.488281 4.320312 50.085938 C 4.34375 52.859375 4.351562 55.628906 4.316406 58.402344 C 4.308594 59.105469 4.496094 59.351562 5.230469 59.34375 C 8.726562 59.304688 12.21875 59.320312 15.714844 59.324219 C 26.71875 59.324219 37.722656 59.316406 48.726562 59.339844 C 49.21875 59.34375 51.683594 59.3125 56.117188 59.257812 C 56.355469 59.285156 56.496094 59.316406 56.636719 59.316406 C 60.535156 59.320312 64.433594 59.308594 68.332031 59.328125 C 68.949219 59.332031 69.035156 59.046875 69.035156 58.535156 C 69.023438 55.703125 69.015625 52.875 69.050781 50.046875 C 69.0625 49.40625 68.824219 49.164062 68.238281 48.96875 C 62.878906 47.167969 59.351562 42.285156 59.339844 36.707031 C 59.324219 31.148438 62.855469 26.222656 68.203125 24.414062 C 68.828125 24.199219 69.0625 23.945312 69.050781 23.277344 C 69.015625 20.503906 69.015625 17.730469 69.050781 14.960938 C 69.0625 14.25 68.859375 14.019531 68.128906 14.027344 C 64.40625 14.058594 60.679688 14.042969 56.953125 14.042969 C 56.679688 14.046875 56.410156 14.082031 56.074219 14.109375 C 51.640625 14.054688 49.183594 14.027344 48.707031 14.027344 Z M 48.707031 14.027344 "/>
<path style=" stroke:none;fill-rule:nonzero;fill:rgb(34.901428%,34.901428%,34.901428%);fill-opacity:1;" d="M 44.238281 38.84375 C 47.359375 38.84375 49.902344 41.382812 49.902344 44.507812 C 49.902344 47.628906 47.359375 50.171875 44.238281 50.171875 C 41.113281 50.171875 38.574219 47.628906 38.574219 44.507812 C 38.574219 41.382812 41.113281 38.84375 44.238281 38.84375 Z M 42.90625 26.3125 C 43.605469 25.613281 44.738281 25.613281 45.4375 26.3125 C 46.136719 27.011719 46.136719 28.144531 45.4375 28.84375 L 28.574219 45.707031 C 28.222656 46.058594 27.765625 46.230469 27.308594 46.230469 C 26.851562 46.230469 26.390625 46.058594 26.042969 45.707031 C 25.34375 45.007812 25.34375 43.875 26.042969 43.175781 Z M 44.238281 43.089844 C 43.457031 43.089844 42.820312 43.726562 42.820312 44.507812 C 42.820312 45.289062 43.457031 45.921875 44.238281 45.921875 C 45.015625 45.921875 45.652344 45.289062 45.652344 44.507812 C 45.652344 43.726562 45.015625 43.089844 44.238281 43.089844 Z M 28.1875 22.792969 C 31.3125 22.792969 33.851562 25.332031 33.851562 28.457031 C 33.851562 31.582031 31.3125 34.121094 28.1875 34.121094 C 25.0625 34.121094 22.523438 31.582031 22.523438 28.457031 C 22.523438 25.332031 25.0625 22.792969 28.1875 22.792969 Z M 28.1875 27.042969 C 27.40625 27.042969 26.769531 27.675781 26.769531 28.457031 C 26.769531 29.238281 27.40625 29.875 28.1875 29.875 C 28.96875 29.875 29.601562 29.238281 29.601562 28.457031 C 29.601562 27.675781 28.96875 27.042969 28.1875 27.042969 Z M 28.1875 27.042969 "/>
</g>
</defs>
<g id="surface1">
<use xlink:href="#surface6" mask="url(#mask0)"/>
</g>
</svg>
