<?xml version="1.0" encoding="UTF-8"?>
<svg xmlns="http://www.w3.org/2000/svg" xmlns:xlink="http://www.w3.org/1999/xlink" width="96pt" height="32pt" viewBox="0 0 96 32" version="1.1">
<g id="surface1">
<rect x="0" y="0" width="96" height="32" style="fill:rgb(100%,100%,100%);fill-opacity:1;stroke:none;"/>
<path style=" stroke:none;fill-rule:evenodd;fill:rgb(91.763306%,12.940979%,16.862488%);fill-opacity:1;" d="M 86.648438 10.003906 C 88.773438 12.140625 90.878906 14.253906 92.984375 16.371094 C 90.882812 18.445312 88.753906 20.546875 86.625 22.648438 C 86.640625 22.675781 86.660156 22.699219 86.675781 22.726562 C 86.628906 22.6875 86.570312 22.65625 86.527344 22.609375 C 85.59375 21.683594 84.667969 20.75 83.730469 19.828125 C 83.550781 19.652344 83.550781 19.550781 83.730469 19.378906 C 84.667969 18.457031 85.585938 17.515625 86.527344 16.59375 C 86.71875 16.40625 86.703125 16.292969 86.519531 16.113281 L 83.71875 13.335938 C 83.550781 13.167969 83.554688 13.070312 83.722656 12.90625 C 84.660156 11.984375 85.585938 11.050781 86.519531 10.121094 C 86.558594 10.082031 86.601562 10.046875 86.648438 10.003906 Z M 80.195312 10 C 80.25 10.042969 80.308594 10.085938 80.359375 10.136719 L 82.203125 11.984375 C 82.511719 12.292969 82.820312 12.597656 83.132812 12.902344 C 83.328125 13.09375 83.292969 13.203125 83.117188 13.371094 C 82.203125 14.277344 81.296875 15.191406 80.386719 16.101562 C 80.128906 16.359375 80.128906 16.375 80.394531 16.640625 C 81.3125 17.566406 82.234375 18.492188 83.15625 19.414062 C 83.277344 19.535156 83.351562 19.621094 83.191406 19.777344 C 82.222656 20.734375 81.261719 21.703125 80.300781 22.664062 C 80.28125 22.683594 80.253906 22.695312 80.234375 22.710938 C 78.101562 20.589844 75.984375 18.484375 73.890625 16.402344 C 76.003906 14.296875 78.125 12.191406 80.242188 10.082031 Z M 80.195312 10 "/>
<path style=" stroke:none;fill-rule:evenodd;fill:rgb(91.763306%,13.33313%,16.862488%);fill-opacity:1;" d="M 29.394531 14.484375 C 29.546875 14.527344 29.632812 14.605469 29.625 14.78125 C 29.609375 15.117188 29.621094 15.457031 29.621094 15.878906 C 29.097656 15.449219 28.578125 15.285156 27.988281 15.359375 C 27.152344 15.464844 26.566406 16.089844 26.585938 16.851562 C 26.605469 17.601562 27.28125 18.226562 28.109375 18.273438 C 28.660156 18.304688 29.136719 18.125 29.617188 17.742188 C 29.617188 18.183594 29.621094 18.5625 29.613281 18.941406 C 29.609375 18.992188 29.550781 19.066406 29.503906 19.082031 C 28.355469 19.457031 27.226562 19.476562 26.171875 18.804688 C 25.363281 18.292969 24.984375 17.546875 25.0625 16.585938 C 25.144531 15.597656 25.730469 14.96875 26.585938 14.582031 C 27.496094 14.171875 28.449219 14.207031 29.394531 14.484375 Z M 17.1875 14.5 C 17.261719 14.523438 17.363281 14.613281 17.363281 14.675781 C 17.382812 15.046875 17.371094 15.421875 17.371094 15.871094 C 16.710938 15.324219 16.042969 15.21875 15.324219 15.464844 C 14.71875 15.675781 14.351562 16.222656 14.363281 16.847656 C 14.375 17.445312 14.769531 17.96875 15.371094 18.164062 C 16.03125 18.382812 16.648438 18.28125 17.210938 17.871094 C 17.242188 17.851562 17.273438 17.832031 17.304688 17.8125 C 17.308594 17.808594 17.320312 17.8125 17.371094 17.820312 C 17.371094 18.191406 17.375 18.570312 17.363281 18.949219 C 17.363281 19 17.304688 19.074219 17.257812 19.089844 C 16.035156 19.476562 14.851562 19.472656 13.765625 18.6875 C 12.394531 17.691406 12.46875 15.601562 14.101562 14.707031 C 15.09375 14.164062 16.136719 14.179688 17.1875 14.5 Z M 36.019531 15.105469 C 37.296875 16.25 37.050781 18.039062 35.503906 18.875 C 34.921875 19.1875 34.300781 19.34375 33.726562 19.335938 C 32.824219 19.339844 32.082031 19.121094 31.414062 18.648438 C 30.21875 17.800781 30.089844 16.234375 31.140625 15.210938 C 32.347656 14.03125 34.761719 13.980469 36.019531 15.105469 Z M 38.8125 14.382812 C 39.148438 14.402344 39.488281 14.402344 39.824219 14.382812 C 40.03125 14.375 40.121094 14.457031 40.1875 14.644531 C 40.476562 15.476562 40.78125 16.308594 41.085938 17.136719 C 41.113281 17.214844 41.1875 17.273438 41.242188 17.339844 C 41.296875 17.273438 41.375 17.214844 41.402344 17.140625 C 41.714844 16.304688 42.019531 15.464844 42.316406 14.625 C 42.378906 14.445312 42.472656 14.375 42.664062 14.382812 C 43 14.398438 43.339844 14.40625 43.679688 14.382812 C 43.910156 14.367188 43.984375 14.464844 44.023438 14.675781 C 44.21875 15.746094 44.429688 16.816406 44.632812 17.886719 C 44.714844 18.308594 44.792969 18.730469 44.886719 19.210938 C 44.425781 19.210938 44.011719 19.21875 43.601562 19.203125 C 43.539062 19.199219 43.4375 19.082031 43.425781 19.007812 C 43.285156 18.203125 43.160156 17.394531 43.03125 16.589844 C 43.015625 16.492188 42.996094 16.394531 42.976562 16.296875 C 42.949219 16.289062 42.921875 16.277344 42.890625 16.265625 L 42.769531 16.445312 C 42.753906 16.472656 42.738281 16.503906 42.726562 16.539062 C 42.4375 17.324219 42.152344 18.109375 41.882812 18.898438 C 41.804688 19.128906 41.699219 19.222656 41.441406 19.21875 C 40.738281 19.199219 40.738281 19.210938 40.496094 18.546875 C 40.265625 17.910156 40.039062 17.273438 39.804688 16.640625 C 39.761719 16.523438 39.691406 16.414062 39.636719 16.304688 L 39.558594 16.308594 C 39.523438 16.417969 39.480469 16.527344 39.460938 16.636719 C 39.328125 17.40625 39.199219 18.171875 39.082031 18.945312 C 39.046875 19.15625 38.964844 19.226562 38.753906 19.214844 C 38.382812 19.199219 38.011719 19.210938 37.609375 19.210938 C 37.761719 18.410156 37.902344 17.667969 38.042969 16.921875 C 38.183594 16.175781 38.335938 15.429688 38.464844 14.679688 C 38.503906 14.464844 38.578125 14.371094 38.8125 14.382812 Z M 3.765625 14.390625 C 4.84375 14.378906 5.921875 14.394531 7.003906 14.382812 C 7.226562 14.382812 7.292969 14.445312 7.292969 14.667969 C 7.289062 15.398438 7.296875 15.4375 6.636719 15.441406 L 6.515625 15.441406 C 5.863281 15.441406 5.910156 15.390625 5.910156 16.054688 C 5.910156 17.023438 5.90625 17.988281 5.914062 18.957031 C 5.917969 19.15625 5.855469 19.21875 5.660156 19.214844 C 5.246094 19.203125 4.835938 19.210938 4.382812 19.210938 L 4.382812 18.53125 C 4.382812 17.609375 4.375 16.691406 4.386719 15.769531 C 4.386719 15.527344 4.308594 15.425781 4.058594 15.4375 C 3.796875 15.453125 3.535156 15.433594 3.273438 15.445312 C 3.082031 15.453125 2.996094 15.390625 3 15.191406 C 3.027344 14.207031 2.859375 14.402344 3.765625 14.390625 Z M 19.996094 14.652344 C 19.980469 15.085938 20 15.519531 19.984375 15.949219 C 19.976562 16.210938 20.046875 16.328125 20.332031 16.316406 C 20.886719 16.300781 21.441406 16.300781 21.996094 16.316406 C 22.273438 16.324219 22.351562 16.214844 22.34375 15.953125 C 22.328125 15.511719 22.34375 15.070312 22.335938 14.628906 C 22.332031 14.449219 22.382812 14.378906 22.574219 14.382812 C 22.941406 14.398438 23.308594 14.378906 23.675781 14.398438 C 23.75 14.402344 23.886719 14.507812 23.886719 14.566406 C 23.898438 16.097656 23.898438 17.625 23.898438 19.210938 C 23.398438 19.210938 22.941406 19.214844 22.484375 19.199219 C 22.433594 19.199219 22.347656 19.066406 22.34375 18.992188 C 22.332031 18.503906 22.332031 18.015625 22.34375 17.527344 C 22.351562 17.285156 22.273438 17.1875 22.023438 17.191406 C 21.449219 17.203125 20.875 17.203125 20.304688 17.191406 C 20.054688 17.1875 19.976562 17.285156 19.984375 17.527344 C 20 18.003906 19.984375 18.484375 19.996094 18.964844 C 20 19.140625 19.957031 19.222656 19.761719 19.214844 C 19.398438 19.203125 19.03125 19.207031 18.664062 19.210938 C 18.507812 19.214844 18.449219 19.15625 18.453125 18.996094 C 18.457031 17.539062 18.457031 16.082031 18.453125 14.625 C 18.449219 14.4375 18.523438 14.382812 18.703125 14.386719 C 19.042969 14.394531 19.378906 14.398438 19.71875 14.382812 C 19.925781 14.375 20.003906 14.441406 19.996094 14.652344 Z M 8.566406 14.382812 C 9.570312 14.398438 10.578125 14.394531 11.582031 14.382812 C 11.800781 14.382812 11.878906 14.441406 11.878906 14.667969 C 11.875 15.367188 11.882812 15.367188 11.179688 15.367188 C 10.785156 15.367188 10.390625 15.371094 9.996094 15.363281 C 9.792969 15.359375 9.707031 15.433594 9.707031 15.640625 L 9.707031 15.875 C 9.707031 16.410156 9.742188 16.3125 10.359375 16.320312 C 10.734375 16.320312 11.109375 16.324219 11.488281 16.316406 C 11.664062 16.3125 11.730469 16.371094 11.734375 16.5625 C 11.742188 17.261719 11.746094 17.261719 11.042969 17.261719 C 10.695312 17.261719 10.347656 17.265625 10 17.261719 C 9.800781 17.257812 9.714844 17.335938 9.703125 17.542969 C 9.675781 18.226562 9.671875 18.226562 10.355469 18.226562 C 10.777344 18.226562 11.203125 18.230469 11.625 18.222656 C 11.804688 18.21875 11.871094 18.277344 11.875 18.464844 C 11.898438 19.167969 11.902344 19.207031 11.265625 19.210938 L 8.222656 19.210938 L 8.222656 18.894531 L 8.226562 16.113281 C 8.222656 15.648438 8.222656 15.183594 8.21875 14.722656 C 8.214844 14.441406 8.304688 14.378906 8.566406 14.382812 Z M 33.640625 15.28125 C 32.703125 15.28125 31.957031 15.964844 31.960938 16.824219 C 31.96875 17.679688 32.683594 18.328125 33.632812 18.328125 C 34.59375 18.328125 35.359375 17.625 35.269531 16.816406 C 35.359375 15.992188 34.527344 15.28125 33.640625 15.28125 Z M 33.640625 15.28125 "/>
<path style=" stroke:none;fill-rule:evenodd;fill:rgb(13.33313%,11.764526%,12.156677%);fill-opacity:1;" d="M 46.117188 14.378906 C 47.019531 14.398438 47.917969 14.390625 48.820312 14.433594 C 49.121094 14.445312 49.425781 14.539062 49.710938 14.648438 C 50.125 14.8125 50.328125 15.152344 50.324219 15.601562 C 50.324219 16.03125 50.085938 16.292969 49.703125 16.445312 C 49.628906 16.472656 49.566406 16.523438 49.433594 16.597656 C 49.574219 16.667969 49.644531 16.71875 49.726562 16.742188 C 50.289062 16.914062 50.578125 17.261719 50.601562 17.808594 C 50.621094 18.355469 50.351562 18.839844 49.820312 18.984375 C 49.285156 19.125 48.71875 19.191406 48.164062 19.226562 C 47.488281 19.265625 46.8125 19.230469 46.136719 19.238281 C 45.941406 19.242188 45.875 19.183594 45.875 18.984375 C 45.878906 17.527344 45.878906 16.074219 45.875 14.617188 C 45.875 14.433594 45.933594 14.371094 46.117188 14.378906 Z M 62.519531 14.378906 C 62.855469 14.390625 63.195312 14.386719 63.535156 14.378906 C 63.714844 14.375 63.777344 14.441406 63.777344 14.625 C 63.769531 16.082031 63.769531 17.539062 63.777344 18.996094 C 63.777344 19.183594 63.714844 19.242188 63.535156 19.238281 C 63.160156 19.230469 62.78125 19.246094 62.40625 19.230469 C 62.300781 19.226562 62.167969 19.167969 62.09375 19.089844 C 61.367188 18.300781 60.652344 17.507812 59.9375 16.707031 C 59.804688 16.554688 59.707031 16.363281 59.585938 16.199219 C 59.539062 16.132812 59.472656 16.082031 59.414062 16.027344 L 59.347656 16.066406 C 59.359375 16.1875 59.378906 16.3125 59.378906 16.4375 C 59.390625 17.285156 59.394531 18.128906 59.40625 18.972656 C 59.410156 19.164062 59.351562 19.246094 59.148438 19.238281 C 58.804688 19.226562 58.453125 19.226562 58.109375 19.238281 C 57.917969 19.246094 57.867188 19.167969 57.871094 18.988281 C 57.875 17.542969 57.875 16.09375 57.867188 14.648438 C 57.867188 14.429688 57.949219 14.371094 58.152344 14.378906 C 58.507812 14.390625 58.867188 14.367188 59.222656 14.386719 C 59.339844 14.394531 59.484375 14.449219 59.5625 14.53125 C 60.285156 15.3125 61 16.09375 61.703125 16.886719 L 61.875 17.101562 L 62.1875 17.558594 C 62.210938 17.546875 62.238281 17.535156 62.265625 17.527344 C 62.277344 17.464844 62.296875 17.402344 62.296875 17.34375 C 62.285156 16.441406 62.277344 15.539062 62.257812 14.640625 C 62.253906 14.441406 62.320312 14.371094 62.519531 14.378906 Z M 70.519531 14.378906 C 70.449219 14.480469 70.414062 14.542969 70.371094 14.589844 C 69.761719 15.242188 69.152344 15.894531 68.535156 16.539062 C 68.382812 16.695312 68.382812 16.800781 68.539062 16.957031 C 69.214844 17.636719 69.878906 18.328125 70.542969 19.015625 C 70.59375 19.066406 70.640625 19.121094 70.738281 19.234375 C 70.078125 19.234375 69.496094 19.246094 68.917969 19.226562 C 68.816406 19.222656 68.699219 19.128906 68.621094 19.046875 C 68.085938 18.46875 67.5625 17.878906 67.027344 17.300781 L 66.953125 17.242188 L 66.785156 17.152344 C 66.765625 17.238281 66.726562 17.324219 66.726562 17.414062 C 66.726562 17.9375 66.730469 18.464844 66.742188 18.988281 C 66.75 19.167969 66.691406 19.246094 66.503906 19.238281 C 66.125 19.226562 65.75 19.226562 65.375 19.238281 C 65.183594 19.242188 65.140625 19.167969 65.140625 18.988281 C 65.148438 17.542969 65.148438 16.09375 65.140625 14.648438 C 65.140625 14.433594 65.210938 14.371094 65.414062 14.378906 C 65.761719 14.390625 66.113281 14.394531 66.457031 14.375 C 66.691406 14.363281 66.75 14.464844 66.746094 14.675781 C 66.734375 15.152344 66.738281 15.632812 66.742188 16.113281 C 66.742188 16.222656 66.757812 16.332031 66.769531 16.535156 C 66.921875 16.410156 67.027344 16.34375 67.105469 16.253906 C 67.59375 15.695312 68.070312 15.128906 68.570312 14.578125 C 68.667969 14.472656 68.851562 14.398438 68.996094 14.390625 C 69.484375 14.367188 69.96875 14.378906 70.519531 14.378906 Z M 53.453125 14.375 C 53.929688 14.398438 54.410156 14.371094 54.886719 14.390625 C 54.992188 14.394531 55.144531 14.480469 55.183594 14.566406 C 55.835938 16.0625 56.476562 17.566406 57.117188 19.066406 C 57.132812 19.109375 57.136719 19.15625 57.152344 19.234375 C 56.664062 19.234375 56.195312 19.242188 55.730469 19.222656 C 55.664062 19.222656 55.574219 19.101562 55.542969 19.019531 C 55.277344 18.351562 55.28125 18.351562 54.558594 18.351562 C 54.097656 18.351562 53.636719 18.359375 53.179688 18.347656 C 52.96875 18.34375 52.859375 18.414062 52.78125 18.617188 C 52.566406 19.199219 52.546875 19.234375 51.984375 19.234375 L 51 19.234375 C 51.0625 19.082031 51.105469 18.972656 51.148438 18.867188 C 51.738281 17.484375 52.332031 16.109375 52.90625 14.71875 C 53.019531 14.449219 53.164062 14.359375 53.453125 14.375 Z M 47.5625 17.164062 C 47.496094 17.164062 47.40625 17.289062 47.371094 17.375 C 47.335938 17.453125 47.363281 17.558594 47.363281 17.652344 C 47.363281 18.289062 47.363281 18.289062 48.003906 18.320312 C 48.25 18.285156 48.503906 18.261719 48.746094 18.203125 C 48.996094 18.140625 49.109375 17.957031 49.089844 17.695312 C 49.070312 17.4375 48.921875 17.269531 48.675781 17.238281 C 48.308594 17.1875 47.933594 17.167969 47.5625 17.164062 Z M 54.089844 15.277344 L 54 15.367188 C 53.984375 15.378906 53.972656 15.398438 53.96875 15.414062 C 53.742188 16.019531 53.519531 16.628906 53.300781 17.234375 C 53.242188 17.402344 53.3125 17.484375 53.488281 17.484375 L 54.078125 17.484375 C 54.273438 17.484375 54.472656 17.480469 54.667969 17.484375 C 54.886719 17.492188 54.957031 17.414062 54.871094 17.195312 C 54.648438 16.609375 54.441406 16.015625 54.222656 15.429688 C 54.203125 15.371094 54.136719 15.328125 54.089844 15.277344 Z M 47.363281 15.710938 L 47.363281 15.984375 C 47.363281 16.328125 47.382812 16.351562 47.726562 16.339844 C 47.929688 16.332031 48.136719 16.320312 48.34375 16.300781 C 48.59375 16.277344 48.800781 16.089844 48.828125 15.867188 C 48.859375 15.640625 48.710938 15.4375 48.4375 15.367188 C 48.269531 15.324219 48.089844 15.292969 47.914062 15.28125 C 47.402344 15.253906 47.367188 15.253906 47.363281 15.710938 Z M 47.363281 15.710938 "/>
</g>
</svg>
