<?xml version="1.0" encoding="UTF-8"?>
<svg xmlns="http://www.w3.org/2000/svg" xmlns:xlink="http://www.w3.org/1999/xlink" width="32pt" height="32pt" viewBox="0 0 32 32" version="1.1">
<defs>
<clipPath id="clip1">
  <path d="M 16 32 C 24.835938 32 32 24.835938 32 16 C 32 7.164062 24.835938 0 16 0 C 7.164062 0 0 7.164062 0 16 C 0 24.835938 7.164062 32 16 32 Z M 16 32 "/>
</clipPath>
<clipPath id="clip2">
  <path d="M 16 5 L 28 5 L 28 27 L 16 27 Z M 16 5 "/>
</clipPath>
<clipPath id="clip3">
  <path d="M 17.03125 22.195312 L 20.632812 26.671875 L 26.296875 26.671875 L 23.003906 23.082031 L 22.851562 22.847656 L 22.828125 22.742188 L 22.800781 22.640625 L 22.800781 22.351562 L 22.828125 22.25 L 22.851562 22.144531 L 22.902344 22.015625 L 23.003906 21.859375 L 23.132812 21.625 L 23.285156 21.441406 L 26.578125 17.539062 L 26.808594 17.253906 L 26.988281 16.992188 L 27.113281 16.734375 L 27.269531 16.472656 L 27.371094 16.210938 L 27.445312 15.953125 L 27.496094 15.691406 L 27.496094 14.9375 L 27.445312 14.679688 L 27.371094 14.445312 L 27.269531 14.183594 L 27.113281 13.921875 L 26.988281 13.714844 L 26.808594 13.457031 L 19.738281 5 L 18.617188 6.015625 L 22.011719 10.203125 L 22.214844 10.488281 L 22.367188 10.773438 L 22.445312 10.933594 L 22.46875 11.0625 L 22.496094 11.21875 L 22.496094 11.347656 L 22.46875 11.660156 L 22.390625 11.945312 L 22.265625 12.234375 L 22.085938 12.519531 L 17.160156 18.292969 L 17.03125 18.398438 L 16.980469 18.527344 L 16.828125 18.710938 L 16.703125 18.945312 L 16.625 19.179688 L 16.523438 19.414062 L 16.472656 19.648438 L 16.445312 19.90625 L 16.394531 20.140625 L 16.394531 20.402344 L 16.445312 20.660156 L 16.472656 20.949219 L 16.546875 21.183594 L 16.648438 21.441406 L 16.753906 21.703125 L 16.878906 21.960938 L 16.980469 22.09375 L 17.03125 22.195312 "/>
</clipPath>
<clipPath id="clip4">
  <path d="M 11 6 L 21 6 L 21 16 L 11 16 Z M 11 6 "/>
</clipPath>
<clipPath id="clip5">
  <path d="M 11.800781 11.242188 L 11.824219 10.828125 L 11.902344 10.386719 L 11.929688 10.175781 L 12.003906 9.945312 L 12.15625 9.550781 L 12.335938 9.1875 L 12.4375 9.007812 L 12.539062 8.824219 L 12.796875 8.511719 L 13.027344 8.175781 L 13.355469 7.914062 L 13.664062 7.679688 L 14.019531 7.445312 L 14.378906 7.261719 L 14.761719 7.132812 L 14.992188 7.054688 L 15.195312 7.027344 L 15.398438 6.976562 L 15.628906 6.949219 L 15.832031 6.949219 L 16.0625 6.898438 L 16.445312 6.949219 L 16.828125 7.027344 L 17.210938 7.082031 L 17.570312 7.238281 L 17.746094 7.316406 L 17.925781 7.394531 L 18.285156 7.574219 L 18.617188 7.785156 L 18.894531 8.042969 L 19.125 8.332031 L 19.277344 8.460938 L 19.378906 8.617188 L 19.636719 8.902344 L 19.992188 9.628906 L 20.019531 9.8125 L 20.09375 9.996094 L 20.199219 10.386719 L 20.273438 10.773438 L 17.796875 10.773438 L 16.0625 9.007812 L 13.816406 11.242188 L 16.0625 13.480469 L 17.796875 11.710938 L 20.273438 11.710938 L 20.199219 12.15625 L 20.09375 12.519531 L 20.019531 12.699219 L 19.992188 12.882812 L 19.636719 13.609375 L 19.378906 13.898438 L 19.125 14.183594 L 18.894531 14.46875 L 18.617188 14.730469 L 18.4375 14.835938 L 18.285156 14.9375 L 18.105469 15.042969 L 17.925781 15.121094 L 17.570312 15.277344 L 17.210938 15.40625 L 16.828125 15.511719 L 16.445312 15.5625 L 16.0625 15.589844 L 15.628906 15.5625 L 15.195312 15.484375 L 14.992188 15.457031 L 14.761719 15.378906 L 14.378906 15.222656 L 14.019531 15.042969 L 13.84375 14.9375 L 13.664062 14.835938 L 13.355469 14.574219 L 13.027344 14.3125 L 12.796875 14 L 12.539062 13.664062 L 12.335938 13.300781 L 12.15625 12.960938 L 12.003906 12.546875 L 11.929688 12.335938 L 11.902344 12.128906 L 11.851562 11.894531 L 11.800781 11.476562 L 11.800781 11.242188 "/>
</clipPath>
<clipPath id="clip6">
  <path d="M 4 5 L 16 5 L 16 27 L 4 27 Z M 4 5 "/>
</clipPath>
<clipPath id="clip7">
  <path d="M 15.015625 22.195312 L 11.441406 26.671875 L 5.75 26.671875 L 9.070312 23.082031 L 9.195312 22.847656 L 9.25 22.742188 L 9.273438 22.640625 L 9.273438 22.351562 L 9.25 22.25 L 9.195312 22.144531 L 9.171875 22.015625 L 8.917969 21.625 L 8.738281 21.441406 L 5.46875 17.539062 L 5.265625 17.253906 L 5.085938 16.992188 L 4.933594 16.734375 L 4.808594 16.472656 L 4.703125 16.210938 L 4.628906 15.953125 L 4.550781 15.691406 L 4.550781 14.9375 L 4.628906 14.679688 L 4.703125 14.445312 L 4.910156 13.921875 L 5.085938 13.714844 L 5.265625 13.457031 L 12.335938 5 L 13.460938 6.015625 L 10.066406 10.203125 L 9.835938 10.488281 L 9.707031 10.773438 L 9.632812 10.933594 L 9.605469 11.0625 L 9.554688 11.21875 L 9.554688 11.347656 L 9.605469 11.660156 L 9.65625 11.945312 L 9.808594 12.234375 L 9.988281 12.519531 L 14.914062 18.292969 L 15.015625 18.398438 L 15.09375 18.527344 L 15.21875 18.710938 L 15.347656 18.945312 L 15.550781 19.414062 L 15.578125 19.648438 L 15.628906 19.90625 L 15.652344 20.140625 L 15.652344 20.402344 L 15.628906 20.660156 L 15.578125 20.949219 L 15.527344 21.183594 L 15.398438 21.441406 L 15.296875 21.703125 L 15.167969 21.960938 L 15.09375 22.09375 L 15.015625 22.195312 "/>
</clipPath>
</defs>
<g id="surface1">
<g clip-path="url(#clip1)" clip-rule="evenodd">
<rect x="0" y="0" width="32" height="32" style="fill:rgb(100%,100%,100%);fill-opacity:1;stroke:none;"/>
</g>
<g clip-path="url(#clip2)" clip-rule="nonzero">
<g clip-path="url(#clip3)" clip-rule="nonzero">
<path style=" stroke:none;fill-rule:nonzero;fill:rgb(12.548828%,34.509277%,22.3526%);fill-opacity:1;" d="M 11.394531 0 L 32.496094 0 L 32.496094 31.671875 L 11.394531 31.671875 Z M 11.394531 0 "/>
</g>
</g>
<g clip-path="url(#clip4)" clip-rule="nonzero">
<g clip-path="url(#clip5)" clip-rule="nonzero">
<path style=" stroke:none;fill-rule:nonzero;fill:rgb(74.118042%,15.686035%,18.823242%);fill-opacity:1;" d="M 6.800781 1.898438 L 25.273438 1.898438 L 25.273438 20.589844 L 6.800781 20.589844 Z M 6.800781 1.898438 "/>
</g>
</g>
<g clip-path="url(#clip6)" clip-rule="nonzero">
<g clip-path="url(#clip7)" clip-rule="nonzero">
<path style=" stroke:none;fill-rule:nonzero;fill:rgb(12.548828%,34.509277%,22.3526%);fill-opacity:1;" d="M -0.449219 0 L 20.652344 0 L 20.652344 31.671875 L -0.449219 31.671875 Z M -0.449219 0 "/>
</g>
</g>
</g>
</svg>
