<?xml version="1.0" encoding="UTF-8"?>
<svg xmlns="http://www.w3.org/2000/svg" xmlns:xlink="http://www.w3.org/1999/xlink" width="96pt" height="32pt" viewBox="0 0 96 32" version="1.1">
<g id="surface1">
<rect x="0" y="0" width="96" height="32" style="fill:rgb(100%,100%,100%);fill-opacity:1;stroke:none;"/>
<path style=" stroke:none;fill-rule:evenodd;fill:rgb(66.665649%,11.764526%,18.823242%);fill-opacity:1;" d="M 92.445312 20.382812 L 92.445312 20.160156 C 92.039062 20.128906 91.640625 20.027344 91.242188 19.847656 C 90.835938 19.664062 90.355469 19.308594 89.785156 18.800781 L 86.332031 15.734375 L 87.757812 14.460938 C 88.59375 13.691406 89.0625 13.273438 89.164062 13.195312 C 89.511719 12.898438 89.804688 12.6875 90.050781 12.554688 C 90.285156 12.433594 90.488281 12.34375 90.664062 12.292969 C 90.824219 12.253906 91.007812 12.234375 91.210938 12.222656 L 91.210938 12 L 87.769531 12 L 87.769531 12.222656 L 87.984375 12.222656 C 88.21875 12.222656 88.378906 12.261719 88.472656 12.332031 C 88.574219 12.40625 88.617188 12.484375 88.617188 12.585938 C 88.617188 12.707031 88.554688 12.851562 88.429688 13.011719 C 88.144531 13.386719 87.320312 14.136719 85.945312 15.257812 C 85.414062 15.707031 85.089844 15.96875 84.996094 16.050781 L 84.996094 13.476562 C 84.996094 13.0625 85.027344 12.800781 85.089844 12.65625 C 85.140625 12.527344 85.242188 12.433594 85.386719 12.363281 C 85.589844 12.273438 85.792969 12.222656 86.015625 12.222656 L 86.332031 12.222656 L 86.332031 12 L 82.328125 12 L 82.328125 12.222656 L 82.664062 12.222656 C 82.890625 12.222656 83.101562 12.273438 83.296875 12.375 C 83.4375 12.445312 83.542969 12.535156 83.582031 12.628906 C 83.644531 12.769531 83.675781 13.050781 83.675781 13.476562 L 83.675781 18.902344 C 83.675781 19.398438 83.625 19.722656 83.511719 19.855469 C 83.335938 20.058594 83.050781 20.160156 82.664062 20.160156 L 82.328125 20.160156 L 82.328125 20.382812 L 86.332031 20.382812 L 86.332031 20.160156 L 86.015625 20.160156 C 85.792969 20.160156 85.578125 20.109375 85.386719 20.007812 C 85.230469 19.9375 85.140625 19.847656 85.089844 19.746094 C 85.027344 19.601562 84.996094 19.320312 84.996094 18.902344 L 84.996094 16.191406 L 88.238281 19.054688 C 88.480469 19.277344 88.625 19.421875 88.675781 19.5 C 88.714844 19.582031 88.738281 19.664062 88.738281 19.765625 C 88.738281 19.867188 88.675781 19.957031 88.566406 20.039062 C 88.441406 20.121094 88.246094 20.160156 87.984375 20.160156 L 87.984375 20.382812 Z M 81.644531 12.21875 L 81.980469 12.21875 L 81.980469 12 L 78.710938 12 L 78.710938 12.21875 L 79.035156 12.21875 C 79.402344 12.21875 79.679688 12.308594 79.851562 12.476562 C 79.976562 12.597656 80.046875 12.914062 80.046875 13.421875 L 80.046875 18.183594 L 74.308594 12 L 71.761719 12 L 71.761719 12.21875 C 72.039062 12.21875 72.242188 12.238281 72.375 12.277344 C 72.636719 12.347656 72.851562 12.4375 72.984375 12.527344 C 73.128906 12.617188 73.339844 12.796875 73.605469 13.074219 L 73.605469 18.820312 C 73.605469 19.277344 73.554688 19.714844 73.453125 19.84375 C 73.292969 20.054688 73.003906 20.164062 72.609375 20.164062 L 72.28125 20.164062 L 72.28125 20.382812 L 75.542969 20.382812 L 75.542969 20.164062 L 75.214844 20.164062 C 74.847656 20.164062 74.585938 20.074219 74.402344 19.90625 C 74.277344 19.773438 74.21875 19.316406 74.21875 18.820312 L 74.21875 13.730469 L 80.402344 20.382812 L 80.644531 20.382812 L 80.644531 13.421875 C 80.644531 12.964844 80.695312 12.667969 80.800781 12.535156 C 80.972656 12.328125 81.246094 12.21875 81.644531 12.21875 Z M 71.792969 20.15625 C 71.40625 20.136719 71.109375 20.046875 70.898438 19.886719 C 70.683594 19.71875 70.4375 19.363281 70.183594 18.820312 L 66.914062 12 L 66.667969 12 L 63.378906 18.75 C 63.09375 19.332031 62.828125 19.730469 62.59375 19.925781 C 62.480469 20.015625 62.226562 20.09375 61.828125 20.15625 L 61.828125 20.382812 L 64.785156 20.382812 L 64.785156 20.15625 C 64.335938 20.136719 64.039062 20.074219 63.90625 19.976562 C 63.765625 19.878906 63.703125 19.769531 63.703125 19.648438 C 63.703125 19.492188 63.773438 19.253906 63.9375 18.9375 L 64.570312 17.640625 L 68.195312 17.640625 L 68.765625 18.820312 C 68.949219 19.203125 69.042969 19.480469 69.042969 19.660156 C 69.042969 19.789062 68.980469 19.90625 68.847656 19.996094 C 68.714844 20.09375 68.460938 20.144531 68.09375 20.15625 L 68.09375 20.382812 L 71.792969 20.382812 Z M 68.003906 17.195312 L 64.785156 17.195312 L 66.414062 13.878906 Z M 60.28125 16.699219 C 59.953125 16.425781 59.464844 16.230469 58.8125 16.097656 C 59.375 15.9375 59.800781 15.695312 60.085938 15.359375 C 60.371094 15.035156 60.515625 14.652344 60.515625 14.238281 C 60.515625 13.742188 60.332031 13.304688 59.964844 12.929688 C 59.597656 12.554688 59.070312 12.292969 58.386719 12.140625 C 57.929688 12.039062 57.316406 12 56.5625 12 L 52.507812 12 L 52.507812 12.222656 L 52.863281 12.222656 C 53.222656 12.222656 53.484375 12.3125 53.667969 12.496094 C 53.800781 12.628906 53.863281 12.960938 53.863281 13.476562 L 53.863281 18.902344 C 53.863281 19.371094 53.8125 19.675781 53.710938 19.824219 C 53.535156 20.046875 53.25 20.160156 52.863281 20.160156 L 52.507812 20.160156 L 52.507812 20.382812 L 56.941406 20.382812 C 57.988281 20.382812 58.773438 20.300781 59.292969 20.121094 C 59.800781 19.945312 60.210938 19.664062 60.503906 19.289062 C 60.800781 18.902344 60.941406 18.511719 60.941406 18.085938 C 60.941406 17.539062 60.71875 17.070312 60.28125 16.699219 Z M 58.792969 15.066406 C 58.621094 15.328125 58.355469 15.535156 58.019531 15.664062 C 57.683594 15.785156 57.175781 15.855469 56.5 15.855469 C 56.238281 15.855469 56 15.847656 55.777344 15.835938 C 55.554688 15.816406 55.359375 15.796875 55.199219 15.765625 L 55.199219 12.546875 C 55.5625 12.457031 55.980469 12.414062 56.441406 12.414062 C 57.296875 12.414062 57.949219 12.585938 58.394531 12.929688 C 58.84375 13.273438 59.070312 13.691406 59.070312 14.1875 C 59.070312 14.5 58.976562 14.792969 58.792969 15.066406 Z M 59.34375 18.195312 C 59.34375 18.691406 59.121094 19.105469 58.683594 19.441406 C 58.242188 19.773438 57.613281 19.945312 56.777344 19.945312 C 56.257812 19.945312 55.726562 19.886719 55.199219 19.773438 L 55.199219 16.34375 C 55.320312 16.324219 55.480469 16.304688 55.6875 16.292969 C 55.890625 16.28125 56.132812 16.28125 56.421875 16.28125 C 57.070312 16.28125 57.632812 16.375 58.082031 16.546875 C 58.527344 16.71875 58.84375 16.949219 59.046875 17.253906 C 59.242188 17.558594 59.34375 17.871094 59.34375 18.195312 Z M 46.851562 20.382812 L 50.96875 20.382812 L 50.96875 20.011719 C 50.828125 20.011719 50.652344 19.992188 50.449219 19.960938 C 50.246094 19.921875 50.105469 19.890625 50.011719 19.871094 C 49.859375 19.808594 49.757812 19.738281 49.6875 19.648438 C 49.625 19.570312 49.59375 19.457031 49.59375 19.347656 L 49.59375 13.023438 C 49.59375 12.902344 49.625 12.804688 49.6875 12.703125 C 49.734375 12.613281 49.847656 12.542969 50.011719 12.5 C 50.144531 12.460938 50.308594 12.429688 50.492188 12.410156 C 50.675781 12.390625 50.835938 12.382812 50.96875 12.371094 L 50.96875 12 L 46.851562 12 L 46.851562 12.371094 C 46.976562 12.382812 47.140625 12.402344 47.332031 12.441406 C 47.527344 12.472656 47.6875 12.511719 47.820312 12.550781 C 47.996094 12.613281 48.105469 12.683594 48.160156 12.761719 C 48.199219 12.84375 48.230469 13.203125 48.230469 13.324219 L 48.230469 19.40625 C 48.230469 19.550781 48.1875 19.648438 48.128906 19.730469 C 48.066406 19.808594 47.964844 19.871094 47.820312 19.921875 C 47.730469 19.949219 47.578125 19.972656 47.351562 19.980469 C 47.140625 20 46.964844 20.011719 46.851562 20.011719 Z M 43.5 20.382812 L 45.96875 20.382812 L 45.96875 19.96875 C 45.855469 19.96875 45.714844 19.945312 45.539062 19.914062 C 45.375 19.894531 45.234375 19.855469 45.121094 19.804688 C 44.980469 19.734375 44.828125 19.640625 44.671875 19.53125 C 44.519531 19.417969 44.347656 19.246094 44.152344 19.003906 C 43.726562 18.472656 43.359375 18.019531 43.0625 17.640625 C 42.757812 17.265625 42.390625 16.8125 41.933594 16.261719 C 42.257812 16.171875 42.566406 16.070312 42.828125 15.9375 C 43.105469 15.816406 43.339844 15.671875 43.53125 15.5 C 43.734375 15.320312 43.898438 15.105469 44 14.863281 C 44.113281 14.609375 44.164062 14.324219 44.164062 14 C 44.164062 13.644531 44.082031 13.339844 43.929688 13.085938 C 43.765625 12.832031 43.550781 12.617188 43.289062 12.464844 C 43.011719 12.304688 42.707031 12.183594 42.371094 12.113281 C 42.023438 12.039062 41.667969 12 41.28125 12 L 37.0625 12 L 37.0625 12.425781 C 37.175781 12.425781 37.328125 12.445312 37.5 12.476562 C 37.675781 12.507812 37.804688 12.535156 37.917969 12.578125 C 38.070312 12.628906 38.171875 12.710938 38.222656 12.820312 C 38.265625 12.921875 38.285156 13.046875 38.285156 13.1875 L 38.285156 19.246094 C 38.285156 19.398438 38.253906 19.53125 38.195312 19.621094 C 38.144531 19.722656 38.050781 19.804688 37.917969 19.855469 C 37.835938 19.886719 37.703125 19.90625 37.511719 19.925781 C 37.308594 19.945312 37.164062 19.957031 37.0625 19.96875 L 37.0625 20.382812 L 40.925781 20.382812 L 40.925781 19.96875 C 40.792969 19.96875 40.628906 19.945312 40.433594 19.925781 C 40.242188 19.90625 40.109375 19.875 40.027344 19.855469 C 39.875 19.792969 39.773438 19.710938 39.730469 19.609375 C 39.679688 19.507812 39.660156 19.386719 39.660156 19.246094 L 39.660156 16.585938 L 40.589844 16.585938 C 41.109375 17.195312 41.585938 17.785156 42.023438 18.351562 C 42.464844 18.921875 42.960938 19.601562 43.5 20.382812 Z M 40.496094 16.078125 L 39.660156 16.078125 L 39.660156 12.488281 L 40.75 12.488281 C 41.332031 12.488281 41.78125 12.628906 42.097656 12.933594 C 42.410156 13.226562 42.574219 13.621094 42.574219 14.140625 C 42.574219 14.738281 42.382812 15.207031 41.984375 15.5625 C 41.585938 15.90625 41.097656 16.078125 40.496094 16.078125 Z M 35.269531 17.046875 C 35.445312 17.015625 35.574219 17.007812 35.675781 16.988281 L 35.675781 16.578125 L 31.671875 16.578125 L 31.671875 16.988281 C 31.804688 16.996094 32 17.015625 32.246094 17.046875 C 32.488281 17.074219 32.683594 17.113281 32.8125 17.171875 C 32.976562 17.230469 33.078125 17.316406 33.128906 17.441406 C 33.171875 17.558594 33.203125 17.703125 33.203125 17.859375 L 33.203125 18.296875 C 33.203125 18.441406 33.203125 18.605469 33.191406 18.8125 C 33.191406 19.003906 33.171875 19.207031 33.140625 19.402344 C 33.019531 19.519531 32.792969 19.625 32.480469 19.722656 C 32.171875 19.828125 31.828125 19.878906 31.449219 19.878906 C 30.941406 19.878906 30.492188 19.78125 30.085938 19.585938 C 29.6875 19.394531 29.359375 19.128906 29.097656 18.800781 C 28.820312 18.472656 28.617188 18.082031 28.484375 17.625 C 28.34375 17.179688 28.273438 16.707031 28.273438 16.191406 C 28.273438 15.617188 28.34375 15.09375 28.484375 14.628906 C 28.628906 14.164062 28.832031 13.773438 29.097656 13.464844 C 29.359375 13.132812 29.667969 12.890625 30.035156 12.726562 C 30.390625 12.5625 30.796875 12.484375 31.265625 12.484375 C 31.683594 12.484375 32.042969 12.550781 32.347656 12.699219 C 32.652344 12.835938 32.90625 13.027344 33.121094 13.261719 C 33.324219 13.503906 33.496094 13.765625 33.628906 14.066406 C 33.761719 14.367188 33.875 14.667969 33.964844 14.980469 L 34.496094 14.980469 L 34.433594 12.175781 L 33.925781 12.175781 L 33.660156 12.5625 C 33.367188 12.40625 33.027344 12.269531 32.640625 12.164062 C 32.265625 12.058594 31.816406 12 31.296875 12 C 30.65625 12 30.054688 12.105469 29.484375 12.320312 C 28.921875 12.523438 28.433594 12.816406 28.027344 13.191406 C 27.609375 13.582031 27.28125 14.027344 27.046875 14.550781 C 26.824219 15.074219 26.710938 15.636719 26.710938 16.25 C 26.710938 16.878906 26.824219 17.453125 27.070312 17.96875 C 27.3125 18.480469 27.628906 18.917969 28.035156 19.277344 C 28.445312 19.625 28.914062 19.898438 29.464844 20.089844 C 30.003906 20.285156 30.5625 20.382812 31.144531 20.382812 C 31.695312 20.382812 32.246094 20.316406 32.8125 20.199219 C 33.386719 20.082031 33.945312 19.90625 34.515625 19.683594 C 34.515625 19.578125 34.507812 19.453125 34.496094 19.285156 C 34.496094 19.128906 34.484375 18.828125 34.484375 18.375 L 34.484375 17.753906 C 34.484375 17.617188 34.515625 17.492188 34.566406 17.382812 C 34.617188 17.289062 34.710938 17.210938 34.84375 17.152344 C 34.953125 17.101562 35.085938 17.066406 35.269531 17.046875 Z M 22.613281 20.382812 L 26.414062 20.382812 L 26.414062 19.972656 C 26.3125 19.972656 26.179688 19.953125 26.015625 19.910156 C 25.851562 19.871094 25.730469 19.832031 25.628906 19.773438 C 25.484375 19.679688 25.375 19.589844 25.292969 19.5 C 25.199219 19.410156 25.128906 19.28125 25.070312 19.128906 L 22.023438 12 L 21.503906 12 C 21.074219 13.011719 20.574219 14.164062 20.023438 15.453125 C 19.476562 16.746094 18.964844 17.917969 18.507812 18.949219 C 18.414062 19.152344 18.324219 19.308594 18.234375 19.429688 C 18.128906 19.542969 17.996094 19.652344 17.824219 19.761719 C 17.722656 19.820312 17.582031 19.871094 17.417969 19.902344 C 17.253906 19.941406 17.113281 19.960938 17 19.972656 L 17 20.382812 L 20.441406 20.382812 L 20.441406 19.972656 C 20.097656 19.960938 19.789062 19.910156 19.527344 19.820312 C 19.25 19.742188 19.117188 19.609375 19.117188 19.460938 C 19.117188 19.390625 19.128906 19.308594 19.148438 19.199219 C 19.167969 19.101562 19.210938 18.960938 19.261719 18.800781 C 19.320312 18.621094 19.394531 18.4375 19.464844 18.238281 C 19.546875 18.039062 19.636719 17.796875 19.761719 17.527344 L 22.960938 17.527344 L 23.722656 19.378906 C 23.746094 19.421875 23.753906 19.460938 23.765625 19.511719 C 23.765625 19.5625 23.773438 19.601562 23.773438 19.640625 C 23.773438 19.730469 23.664062 19.800781 23.4375 19.863281 C 23.222656 19.910156 22.9375 19.953125 22.613281 19.972656 Z M 22.734375 17.007812 L 19.984375 17.007812 L 21.351562 13.800781 Z M 22.734375 17.007812 "/>
<path style=" stroke:none;fill-rule:evenodd;fill:rgb(100%,100%,100%);fill-opacity:1;" d="M 14.011719 21.882812 L 3.902344 21.882812 C 3.40625 21.882812 3 21.476562 3 20.980469 L 3 10.902344 C 3 10.40625 3.40625 10 3.902344 10 L 14.011719 10 C 14.507812 10 14.914062 10.40625 14.914062 10.902344 L 14.914062 20.980469 C 14.914062 21.476562 14.507812 21.882812 14.011719 21.882812 Z M 14.011719 21.882812 "/>
<path style=" stroke:none;fill-rule:evenodd;fill:rgb(66.665649%,11.764526%,18.823242%);fill-opacity:1;" d="M 14.539062 11.1875 C 14.539062 10.730469 14.171875 10.371094 13.722656 10.371094 L 11.28125 10.371094 L 3.375 18.273438 L 3.375 20.699219 C 3.375 21.144531 3.734375 21.511719 4.191406 21.511719 L 6.589844 21.515625 L 14.539062 13.582031 Z M 14.539062 11.1875 "/>
<path style=" stroke:none;fill-rule:evenodd;fill:rgb(7.058716%,14.901733%,9.803772%);fill-opacity:1;" d="M 3.375 17.765625 L 10.785156 10.371094 L 4.191406 10.371094 C 3.734375 10.371094 3.378906 10.726562 3.378906 11.183594 Z M 14.539062 14.082031 L 7.089844 21.515625 L 13.722656 21.515625 C 14.167969 21.515625 14.535156 21.148438 14.535156 20.703125 Z M 14.539062 14.082031 "/>
<path style=" stroke:none;fill-rule:evenodd;fill:rgb(98.03772%,89.4104%,1.567078%);fill-opacity:1;" d="M 7.371094 21.402344 C 7.371094 21.402344 7.792969 21.230469 8.1875 21.164062 C 8.332031 21.128906 9.195312 20.929688 9.152344 20.042969 C 9.140625 19.816406 8.796875 20.105469 8.796875 20.105469 C 8.796875 20.105469 8.117188 20.203125 7.832031 20.378906 C 7.691406 20.460938 7.375 20.8125 7.371094 21.402344 Z M 7.371094 21.402344 "/>
<path style=" stroke:none;fill-rule:evenodd;fill:rgb(67.0578%,12.156677%,14.117432%);fill-opacity:1;" d="M 7.332031 21.460938 L 7.332031 21.402344 C 7.335938 20.765625 7.6875 20.417969 7.8125 20.347656 C 8.082031 20.175781 8.6875 20.082031 8.78125 20.070312 C 8.820312 20.035156 8.972656 19.917969 9.078125 19.917969 C 9.109375 19.917969 9.183594 19.929688 9.191406 20.042969 C 9.230469 20.878906 8.507812 21.132812 8.195312 21.203125 C 7.808594 21.269531 7.390625 21.4375 7.386719 21.4375 Z M 9.078125 19.996094 C 9.011719 19.996094 8.886719 20.082031 8.820312 20.136719 L 8.8125 20.144531 L 8.800781 20.144531 C 8.796875 20.148438 8.125 20.242188 7.851562 20.414062 C 7.742188 20.476562 7.433594 20.78125 7.410156 21.34375 C 7.539062 21.296875 7.871094 21.179688 8.179688 21.125 C 8.472656 21.058594 9.152344 20.820312 9.113281 20.046875 C 9.109375 19.996094 9.089844 19.996094 9.078125 19.996094 Z M 9.078125 19.996094 "/>
<path style=" stroke:none;fill-rule:evenodd;fill:rgb(98.03772%,89.4104%,1.567078%);fill-opacity:1;" d="M 10.292969 18.570312 C 10.292969 18.570312 10.453125 19.570312 9.65625 19.890625 C 9.316406 20.03125 8.808594 20.1875 8.730469 20.265625 C 8.730469 20.265625 8.546875 19.570312 9.136719 19.152344 C 9.324219 19.015625 9.714844 18.886719 9.964844 18.796875 C 10.203125 18.707031 10.292969 18.570312 10.292969 18.570312 Z M 10.292969 18.570312 "/>
<path style=" stroke:none;fill-rule:evenodd;fill:rgb(67.0578%,12.156677%,14.117432%);fill-opacity:1;" d="M 8.707031 20.34375 L 8.691406 20.277344 C 8.6875 20.269531 8.511719 19.550781 9.113281 19.121094 C 9.285156 18.996094 9.617188 18.878906 9.863281 18.789062 L 9.949219 18.757812 C 10.171875 18.675781 10.257812 18.546875 10.257812 18.546875 L 10.332031 18.5625 C 10.332031 18.574219 10.488281 19.601562 9.667969 19.925781 C 9.546875 19.976562 9.402344 20.027344 9.265625 20.078125 C 9.046875 20.160156 8.800781 20.25 8.757812 20.296875 Z M 10.261719 18.664062 C 10.207031 18.714844 10.117188 18.78125 9.976562 18.832031 L 9.886719 18.867188 C 9.648438 18.949219 9.324219 19.066406 9.160156 19.183594 C 8.695312 19.515625 8.730469 20.03125 8.757812 20.199219 C 8.84375 20.152344 9.007812 20.089844 9.238281 20.003906 C 9.375 19.953125 9.519531 19.902344 9.640625 19.851562 C 10.265625 19.601562 10.277344 18.910156 10.261719 18.664062 Z M 10.261719 18.664062 "/>
<path style=" stroke:none;fill-rule:evenodd;fill:rgb(98.03772%,89.4104%,1.567078%);fill-opacity:1;" d="M 10.703125 17.332031 C 10.703125 17.332031 11.199219 17.9375 10.644531 18.632812 C 10.523438 18.792969 9.925781 19.179688 9.777344 19.359375 C 9.777344 19.359375 9.480469 18.714844 9.839844 18.1875 C 9.9375 18.039062 10.277344 17.761719 10.425781 17.652344 C 10.574219 17.539062 10.703125 17.332031 10.703125 17.332031 Z M 10.703125 17.332031 "/>
<path style=" stroke:none;fill-rule:evenodd;fill:rgb(67.0578%,12.156677%,14.117432%);fill-opacity:1;" d="M 9.765625 19.433594 L 9.742188 19.375 C 9.730469 19.347656 9.4375 18.703125 9.804688 18.164062 C 9.910156 18.007812 10.25 17.730469 10.402344 17.617188 C 10.542969 17.511719 10.667969 17.3125 10.671875 17.3125 L 10.699219 17.265625 L 10.734375 17.304688 C 10.738281 17.3125 11.246094 17.945312 10.675781 18.660156 C 10.613281 18.742188 10.429688 18.882812 10.238281 19.027344 C 10.0625 19.160156 9.878906 19.300781 9.808594 19.386719 Z M 10.703125 17.402344 C 10.65625 17.472656 10.558594 17.601562 10.449219 17.683594 C 10.308594 17.785156 9.96875 18.0625 9.871094 18.207031 C 9.589844 18.625 9.730469 19.125 9.789062 19.289062 C 9.882812 19.199219 10.039062 19.078125 10.191406 18.964844 C 10.371094 18.828125 10.554688 18.6875 10.613281 18.609375 C 11.058594 18.050781 10.800781 17.550781 10.703125 17.402344 Z M 10.703125 17.402344 "/>
<path style=" stroke:none;fill-rule:evenodd;fill:rgb(98.03772%,89.4104%,1.567078%);fill-opacity:1;" d="M 10.097656 16.007812 C 10.097656 16.007812 9.632812 16.28125 9.941406 17.054688 C 9.972656 17.144531 10.332031 17.789062 10.34375 17.96875 C 10.34375 17.96875 10.988281 17.566406 10.730469 16.753906 C 10.6875 16.605469 10.386719 16.128906 10.097656 16.007812 Z M 10.097656 16.007812 "/>
<path style=" stroke:none;fill-rule:evenodd;fill:rgb(67.0578%,12.156677%,14.117432%);fill-opacity:1;" d="M 10.308594 18.035156 L 10.304688 17.96875 C 10.296875 17.855469 10.117188 17.496094 10.007812 17.285156 C 9.949219 17.164062 9.914062 17.09375 9.90625 17.066406 C 9.589844 16.273438 10.074219 15.976562 10.078125 15.976562 L 10.09375 15.964844 L 10.113281 15.972656 C 10.414062 16.097656 10.722656 16.582031 10.765625 16.742188 C 11.035156 17.578125 10.371094 17.996094 10.367188 18 Z M 10.101562 16.054688 C 10.027344 16.109375 9.714844 16.382812 9.976562 17.039062 C 9.988281 17.066406 10.03125 17.148438 10.078125 17.246094 C 10.210938 17.511719 10.332031 17.757812 10.371094 17.898438 C 10.511719 17.789062 10.902344 17.417969 10.691406 16.765625 C 10.65625 16.632812 10.378906 16.183594 10.101562 16.054688 Z M 10.101562 16.054688 "/>
<path style=" stroke:none;fill-rule:evenodd;fill:rgb(98.03772%,89.4104%,1.567078%);fill-opacity:1;" d="M 8.910156 14.953125 C 8.910156 14.953125 8.75 15.441406 9.128906 15.902344 C 9.289062 16.085938 10.007812 16.308594 10.316406 16.535156 C 10.316406 16.535156 10.695312 15.304688 8.910156 14.953125 Z M 8.910156 14.953125 "/>
<path style=" stroke:none;fill-rule:evenodd;fill:rgb(67.0578%,12.156677%,14.117432%);fill-opacity:1;" d="M 10.335938 16.601562 L 10.292969 16.566406 C 10.152344 16.464844 9.921875 16.359375 9.695312 16.257812 C 9.4375 16.140625 9.191406 16.03125 9.101562 15.925781 C 8.710938 15.457031 8.867188 14.960938 8.875 14.941406 L 8.886719 14.90625 L 8.917969 14.914062 C 9.566406 15.042969 10.003906 15.296875 10.230469 15.675781 C 10.484375 16.105469 10.359375 16.53125 10.355469 16.546875 Z M 8.941406 15 C 8.914062 15.113281 8.855469 15.507812 9.160156 15.875 C 9.238281 15.96875 9.488281 16.078125 9.726562 16.1875 C 9.933594 16.277344 10.144531 16.371094 10.289062 16.46875 C 10.3125 16.347656 10.347656 16.027344 10.160156 15.714844 C 9.953125 15.363281 9.542969 15.121094 8.941406 15 Z M 8.941406 15 "/>
<path style=" stroke:none;fill-rule:evenodd;fill:rgb(98.03772%,89.4104%,1.567078%);fill-opacity:1;" d="M 7.917969 14.082031 C 7.917969 14.082031 9.46875 14.191406 9.257812 15.609375 C 9.257812 15.609375 8.910156 15.390625 8.621094 15.273438 C 8.496094 15.210938 7.878906 15.015625 7.917969 14.4375 C 7.925781 14.277344 7.917969 14.082031 7.917969 14.082031 Z M 7.917969 14.082031 "/>
<path style=" stroke:none;fill-rule:evenodd;fill:rgb(67.0578%,12.156677%,14.117432%);fill-opacity:1;" d="M 9.289062 15.671875 L 9.238281 15.640625 C 9.234375 15.640625 8.886719 15.421875 8.609375 15.308594 C 8.59375 15.304688 8.574219 15.296875 8.554688 15.285156 C 8.359375 15.203125 7.84375 14.980469 7.878906 14.433594 C 7.886719 14.277344 7.878906 14.085938 7.878906 14.082031 L 7.875 14.039062 L 7.921875 14.039062 C 7.949219 14.042969 8.671875 14.101562 9.070312 14.597656 C 9.28125 14.863281 9.359375 15.207031 9.296875 15.613281 Z M 7.957031 14.125 C 7.960938 14.191406 7.964844 14.324219 7.957031 14.4375 C 7.925781 14.929688 8.386719 15.128906 8.585938 15.214844 C 8.605469 15.222656 8.625 15.230469 8.640625 15.238281 C 8.859375 15.328125 9.121094 15.476562 9.226562 15.542969 C 9.269531 15.183594 9.195312 14.886719 9.007812 14.648438 C 8.6875 14.246094 8.121094 14.144531 7.957031 14.125 Z M 7.957031 14.125 "/>
<path style=" stroke:none;fill-rule:evenodd;fill:rgb(98.03772%,89.4104%,1.567078%);fill-opacity:1;" d="M 7.945312 12.734375 C 7.945312 12.734375 7.367188 13.171875 7.65625 13.90625 C 7.707031 14.046875 8.007812 14.445312 8.164062 14.515625 C 8.164062 14.515625 8.34375 14.007812 8.453125 13.636719 C 8.496094 13.488281 8.605469 12.902344 8.246094 12.671875 C 8.054688 12.566406 7.945312 12.734375 7.945312 12.734375 Z M 7.945312 12.734375 "/>
<path style=" stroke:none;fill-rule:evenodd;fill:rgb(67.0578%,12.156677%,14.117432%);fill-opacity:1;" d="M 8.1875 14.566406 L 8.148438 14.550781 C 7.976562 14.472656 7.671875 14.066406 7.617188 13.917969 C 7.339844 13.203125 7.859375 12.753906 7.917969 12.707031 C 7.933594 12.683594 8.003906 12.597656 8.121094 12.597656 C 8.167969 12.597656 8.214844 12.613281 8.265625 12.640625 C 8.6875 12.90625 8.5 13.617188 8.492188 13.648438 C 8.382812 14.011719 8.203125 14.523438 8.203125 14.527344 Z M 8.121094 12.675781 C 8.03125 12.675781 7.980469 12.753906 7.976562 12.757812 L 7.96875 12.765625 C 7.945312 12.78125 7.421875 13.195312 7.691406 13.890625 C 7.738281 14.019531 7.992188 14.355469 8.144531 14.457031 C 8.1875 14.324219 8.328125 13.925781 8.417969 13.625 C 8.425781 13.601562 8.597656 12.945312 8.222656 12.707031 C 8.1875 12.6875 8.152344 12.675781 8.121094 12.675781 Z M 8.121094 12.675781 "/>
<path style=" stroke:none;fill-rule:evenodd;fill:rgb(98.03772%,89.4104%,1.567078%);fill-opacity:1;" d="M 7.824219 13.167969 C 7.824219 13.167969 7.378906 11.855469 8.980469 11.5 C 8.980469 11.5 9.339844 12.007812 8.753906 12.535156 C 8.59375 12.683594 7.925781 13.019531 7.824219 13.167969 Z M 7.824219 13.167969 "/>
<path style=" stroke:none;fill-rule:evenodd;fill:rgb(67.0578%,12.156677%,14.117432%);fill-opacity:1;" d="M 7.8125 13.257812 L 7.789062 13.183594 C 7.78125 13.160156 7.609375 12.644531 7.878906 12.164062 C 8.070312 11.816406 8.4375 11.578125 8.972656 11.460938 L 8.996094 11.457031 L 9.011719 11.476562 C 9.015625 11.484375 9.382812 12.019531 8.777344 12.5625 C 8.707031 12.632812 8.539062 12.734375 8.363281 12.839844 C 8.148438 12.96875 7.910156 13.113281 7.859375 13.191406 Z M 8.960938 11.546875 C 8.464844 11.660156 8.125 11.878906 7.945312 12.199219 C 7.75 12.554688 7.808594 12.941406 7.84375 13.089844 C 7.941406 13.003906 8.128906 12.890625 8.320312 12.773438 C 8.496094 12.664062 8.660156 12.566406 8.726562 12.503906 C 9.21875 12.0625 9.019531 11.644531 8.960938 11.546875 Z M 8.960938 11.546875 "/>
<path style=" stroke:none;fill-rule:evenodd;fill:rgb(98.03772%,89.4104%,1.567078%);fill-opacity:1;" d="M 10.324219 10.503906 C 10.324219 10.503906 8.660156 10.464844 8.730469 11.949219 C 8.730469 11.949219 9.773438 11.632812 10.054688 11.324219 C 10.191406 11.164062 10.34375 10.863281 10.324219 10.503906 Z M 10.324219 10.503906 "/>
<path style=" stroke:none;fill-rule:evenodd;fill:rgb(67.0578%,12.156677%,14.117432%);fill-opacity:1;" d="M 8.695312 12.003906 L 8.691406 11.953125 C 8.671875 11.539062 8.785156 11.199219 9.023438 10.949219 C 9.46875 10.476562 10.226562 10.460938 10.3125 10.460938 L 10.363281 10.464844 L 10.363281 10.5 C 10.382812 10.867188 10.230469 11.179688 10.082031 11.351562 C 9.796875 11.664062 8.785156 11.976562 8.742188 11.988281 Z M 10.285156 10.542969 C 10.132812 10.546875 9.472656 10.585938 9.078125 11.003906 C 8.867188 11.230469 8.761719 11.53125 8.769531 11.898438 C 8.976562 11.828125 9.789062 11.554688 10.023438 11.296875 C 10.15625 11.144531 10.292969 10.867188 10.285156 10.542969 Z M 10.285156 10.542969 "/>
</g>
</svg>
