<?xml version="1.0" encoding="UTF-8"?>
<svg xmlns="http://www.w3.org/2000/svg" xmlns:xlink="http://www.w3.org/1999/xlink" width="32pt" height="32pt" viewBox="0 0 32 32" version="1.1">
<defs>
<clipPath id="clip1">
  <path d="M 16 32 C 24.835938 32 32 24.835938 32 16 C 32 7.164062 24.835938 0 16 0 C 7.164062 0 0 7.164062 0 16 C 0 24.835938 7.164062 32 16 32 Z M 16 32 "/>
</clipPath>
<clipPath id="clip2">
  <path d="M 3 7 L 31 7 L 31 26 L 3 26 Z M 3 7 "/>
</clipPath>
<clipPath id="clip3">
  <path d="M 18.273438 11.871094 C 18.421875 11.964844 18.394531 12.101562 18.328125 12.230469 C 18.273438 12.335938 18.210938 12.4375 18.132812 12.585938 C 18.257812 12.585938 18.347656 12.574219 18.433594 12.585938 C 18.5625 12.609375 18.6875 12.652344 18.816406 12.679688 C 18.863281 12.691406 18.921875 12.703125 18.960938 12.6875 C 19.378906 12.496094 19.546875 12.535156 19.828125 12.890625 C 19.925781 13.007812 19.988281 13.136719 20.175781 13.175781 C 20.277344 13.199219 20.34375 13.382812 20.429688 13.5 C 20.222656 13.546875 20.222656 13.546875 20 13.179688 C 19.832031 13.285156 19.832031 13.292969 19.921875 13.578125 C 19.824219 13.578125 19.722656 13.558594 19.636719 13.585938 C 19.546875 13.613281 19.417969 13.675781 19.402344 13.742188 C 19.371094 13.882812 19.5 13.925781 19.621094 13.933594 C 19.660156 13.9375 19.695312 13.941406 19.746094 13.945312 C 19.722656 14.089844 19.460938 14.199219 19.640625 14.347656 C 19.835938 14.507812 19.980469 14.308594 20.117188 14.191406 C 20.257812 14.289062 20.300781 14.570312 20.542969 14.425781 C 20.71875 14.320312 20.640625 14.167969 20.566406 14.023438 C 20.734375 13.9375 21.046875 14.171875 21.054688 13.816406 C 21.058594 13.738281 20.863281 13.652344 20.777344 13.582031 C 20.796875 13.496094 20.824219 13.363281 20.851562 13.230469 C 20.707031 13.238281 20.5625 13.242188 20.40625 13.25 C 20.390625 13.023438 20.535156 12.800781 20.671875 12.578125 C 20.691406 12.542969 20.828125 12.550781 20.886719 12.578125 C 20.945312 12.609375 20.980469 12.691406 21.042969 12.777344 C 21.070312 12.710938 21.082031 12.667969 21.105469 12.625 C 21.140625 12.5625 21.191406 12.449219 21.214844 12.453125 C 21.292969 12.472656 21.394531 12.515625 21.433594 12.578125 C 21.523438 12.738281 21.582031 12.917969 21.679688 13.140625 C 21.824219 12.792969 21.8125 12.355469 22.332031 12.269531 C 22.265625 12.558594 22.207031 12.808594 22.136719 13.109375 C 22.417969 12.910156 22.539062 12.570312 22.847656 12.527344 C 22.898438 12.648438 22.960938 12.730469 22.964844 12.816406 C 22.96875 12.890625 22.925781 12.988281 22.871094 13.042969 C 22.753906 13.171875 22.613281 13.277344 22.484375 13.390625 C 22.5 13.414062 22.515625 13.4375 22.53125 13.457031 L 22.824219 13.285156 C 23.066406 13.140625 23.140625 13.175781 23.191406 13.449219 C 23.195312 13.476562 23.210938 13.519531 23.226562 13.523438 C 23.507812 13.554688 23.34375 13.800781 23.417969 13.933594 C 23.417969 13.933594 23.363281 13.96875 23.328125 13.988281 C 23.359375 14.035156 23.394531 14.074219 23.421875 14.117188 C 23.429688 14.128906 23.429688 14.148438 23.4375 14.199219 C 23.363281 14.222656 23.273438 14.234375 23.203125 14.277344 C 23.121094 14.328125 23.054688 14.410156 22.980469 14.476562 C 23.054688 14.53125 23.125 14.621094 23.207031 14.636719 C 23.519531 14.691406 23.808594 14.597656 24.011719 14.367188 C 24.613281 13.691406 25.21875 14.160156 25.496094 14.746094 C 25.511719 14.777344 25.519531 14.816406 25.546875 14.886719 C 25.703125 14.828125 25.851562 14.773438 26.066406 14.691406 C 25.949219 14.59375 25.875 14.523438 25.789062 14.46875 C 25.570312 14.320312 25.335938 14.191406 25.128906 14.03125 C 24.734375 13.726562 24.683594 13.289062 24.683594 12.773438 C 24.824219 12.914062 24.910156 13.023438 25.023438 13.105469 C 25.28125 13.296875 25.550781 13.46875 25.816406 13.652344 C 25.988281 13.769531 26.152344 13.894531 26.347656 14.03125 C 26.355469 13.667969 26.078125 13.402344 26.085938 13.023438 C 26.320312 13.242188 26.570312 13.449219 26.785156 13.683594 C 27.054688 13.984375 26.792969 14.292969 26.714844 14.613281 C 27.050781 14.671875 27.410156 14.550781 27.589844 14.867188 C 26.949219 15.226562 26.273438 15.351562 25.542969 15.054688 C 25.542969 15.054688 25.535156 14.988281 25.527344 14.925781 C 25.011719 14.980469 24.699219 15.191406 24.914062 15.511719 C 25.027344 15.4375 25.140625 15.355469 25.257812 15.28125 C 25.53125 15.109375 25.882812 15.277344 25.890625 15.597656 C 25.894531 15.828125 25.835938 16.0625 25.789062 16.289062 C 25.757812 16.433594 25.695312 16.570312 25.664062 16.664062 C 25.53125 16.566406 25.394531 16.453125 25.242188 16.363281 C 25.226562 16.351562 25.089844 16.46875 25.097656 16.5 C 25.144531 16.652344 25.21875 16.796875 25.289062 16.949219 C 25.171875 16.996094 24.992188 17.058594 24.832031 17.144531 C 24.773438 17.175781 24.75 17.269531 24.710938 17.335938 C 24.789062 17.371094 24.871094 17.441406 24.941406 17.429688 C 25.078125 17.40625 25.210938 17.335938 25.355469 17.28125 C 25.292969 17.394531 25.21875 17.496094 25.183594 17.613281 C 25.15625 17.6875 25.183594 17.78125 25.183594 17.867188 C 25.277344 17.851562 25.402344 17.863281 25.449219 17.808594 C 25.570312 17.675781 25.652344 17.507812 25.730469 17.386719 C 25.863281 17.460938 26.015625 17.5625 26.179688 17.617188 C 26.214844 17.628906 26.378906 17.445312 26.359375 17.402344 C 26.304688 17.269531 26.191406 17.164062 26.101562 17.046875 C 26.203125 17.007812 26.347656 16.960938 26.484375 16.894531 C 26.621094 16.832031 26.683594 16.71875 26.609375 16.578125 C 26.535156 16.433594 26.40625 16.476562 26.296875 16.539062 C 26.191406 16.597656 26.09375 16.671875 25.953125 16.765625 C 26.039062 16.609375 26.125 16.496094 26.164062 16.367188 C 26.191406 16.292969 26.183594 16.15625 26.132812 16.117188 C 25.984375 16 25.929688 15.863281 26.054688 15.730469 C 26.21875 15.5625 26.296875 15.761719 26.398438 15.867188 C 26.59375 15.734375 26.746094 15.421875 27.023438 15.648438 C 27.273438 15.851562 27.03125 16.050781 26.925781 16.296875 C 27.246094 16.144531 27.519531 16.011719 27.808594 15.867188 C 27.71875 15.773438 27.609375 15.695312 27.550781 15.585938 C 27.503906 15.503906 27.519531 15.386719 27.503906 15.285156 C 27.609375 15.277344 27.722656 15.242188 27.8125 15.273438 C 27.910156 15.308594 27.984375 15.40625 28.078125 15.484375 C 28.183594 15.339844 28.132812 15.03125 28.417969 15.09375 C 28.722656 15.164062 28.488281 15.449219 28.59375 15.632812 C 28.863281 15.617188 29.148438 15.597656 29.496094 15.578125 C 29.351562 15.417969 29.101562 15.359375 29.238281 15.179688 C 29.402344 14.96875 29.574219 15.167969 29.75 15.253906 C 29.832031 15.117188 29.761719 14.816406 30.042969 14.878906 C 30.136719 14.902344 30.191406 15.09375 30.28125 15.234375 C 30.378906 15.226562 30.589844 15.03125 30.683594 15.292969 C 30.769531 15.542969 30.472656 15.480469 30.359375 15.59375 C 30.453125 15.710938 30.726562 15.777344 30.574219 15.980469 C 30.410156 16.199219 30.242188 15.980469 30.078125 15.902344 C 30.042969 16.074219 30.101562 16.308594 29.835938 16.296875 C 29.5625 16.285156 29.65625 16.058594 29.65625 15.921875 C 29.34375 15.953125 29.046875 15.988281 28.703125 16.023438 C 28.835938 16.148438 28.933594 16.238281 29.023438 16.335938 C 29.105469 16.421875 29.140625 16.519531 29.035156 16.613281 C 28.925781 16.707031 28.8125 16.703125 28.714844 16.597656 C 28.644531 16.527344 28.582031 16.449219 28.503906 16.363281 C 28.316406 16.863281 28.246094 16.902344 27.925781 16.707031 C 27.761719 16.886719 27.554688 16.847656 27.339844 16.824219 C 27.105469 16.796875 26.992188 16.875 26.980469 17.058594 C 26.964844 17.242188 27.0625 17.351562 27.25 17.332031 C 27.472656 17.308594 27.703125 17.296875 27.855469 17.082031 C 27.917969 16.988281 27.992188 16.972656 28.09375 17.082031 C 28.160156 17.152344 28.292969 17.171875 28.402344 17.199219 C 28.445312 17.210938 28.503906 17.183594 28.554688 17.167969 C 29.101562 17.019531 29.234375 17.089844 29.457031 17.675781 C 29.292969 17.644531 29.144531 17.601562 28.992188 17.585938 C 28.835938 17.570312 28.671875 17.558594 28.519531 17.582031 C 28.1875 17.640625 28.085938 17.867188 28.253906 18.214844 C 28.089844 18.214844 27.941406 18.199219 27.800781 18.222656 C 27.652344 18.246094 27.484375 18.273438 27.367188 18.355469 C 23.839844 20.796875 20.316406 23.25 16.792969 25.695312 C 16.769531 25.714844 16.742188 25.726562 16.699219 25.753906 C 16.132812 25.359375 15.5625 24.964844 14.992188 24.570312 C 12.402344 22.769531 9.8125 20.96875 7.21875 19.167969 C 6.625 18.753906 6.027344 18.339844 5.429688 17.925781 C 5.308594 17.839844 5.148438 17.75 5.238281 17.566406 C 5.320312 17.398438 5.480469 17.417969 5.636719 17.445312 C 5.757812 17.464844 5.878906 17.492188 5.996094 17.480469 C 6.15625 17.464844 6.257812 17.371094 6.25 17.191406 C 6.234375 16.957031 6.070312 16.871094 5.875 17.007812 C 5.703125 17.128906 5.554688 17.300781 5.316406 17.265625 C 5.242188 17.253906 5.175781 17.191406 5.101562 17.152344 C 5.152344 17.074219 5.1875 16.976562 5.257812 16.929688 C 5.328125 16.878906 5.441406 16.898438 5.515625 16.851562 C 5.699219 16.730469 5.875 16.59375 6.046875 16.453125 C 6.082031 16.421875 6.078125 16.34375 6.070312 16.269531 C 5.910156 16.410156 5.757812 16.636719 5.550781 16.4375 C 5.46875 16.355469 5.519531 16.128906 5.507812 15.917969 C 5.40625 15.855469 5.058594 15.945312 5.105469 15.601562 C 5.140625 15.347656 5.394531 15.5 5.542969 15.4375 C 5.523438 15.273438 5.324219 15.0625 5.574219 14.960938 C 5.859375 14.847656 5.890625 15.160156 6.011719 15.320312 C 6.152344 15.222656 6.21875 14.929688 6.449219 15.078125 C 6.679688 15.222656 6.464844 15.410156 6.394531 15.65625 C 6.789062 15.476562 7.140625 15.292969 7.53125 15.417969 C 7.566406 15.222656 7.335938 15.046875 7.5625 14.953125 C 7.644531 14.917969 7.789062 15.039062 7.902344 15.089844 C 7.949219 15.046875 8.03125 14.980469 8.109375 14.914062 C 8.160156 15.03125 8.207031 15.148438 8.269531 15.261719 C 8.296875 15.316406 8.359375 15.390625 8.40625 15.390625 C 8.574219 15.394531 8.652344 15.476562 8.683594 15.632812 C 8.703125 15.746094 8.765625 15.851562 8.890625 15.808594 C 8.996094 15.769531 9.132812 15.6875 9.164062 15.597656 C 9.203125 15.472656 9.242188 15.417969 9.367188 15.410156 C 9.546875 15.398438 9.535156 15.304688 9.464844 15.183594 C 9.121094 15.285156 9.121094 15.285156 8.917969 15.167969 C 8.769531 15.214844 8.652344 15.253906 8.535156 15.289062 C 8.511719 15.1875 8.488281 15.085938 8.457031 14.933594 C 8.367188 14.859375 8.042969 14.964844 8.097656 14.65625 C 8.117188 14.5625 8.257812 14.488281 8.355469 14.394531 C 8.378906 14.308594 8.375 14.117188 8.449219 14.082031 C 8.558594 14.027344 8.71875 14.089844 8.847656 14.101562 C 8.941406 14.058594 9.058594 13.960938 9.144531 13.980469 C 9.246094 14.007812 9.324219 14.136719 9.386719 14.246094 C 9.597656 14.269531 9.671875 14.378906 9.628906 14.597656 C 9.617188 14.652344 9.664062 14.746094 9.710938 14.777344 C 9.753906 14.800781 9.863281 14.777344 9.890625 14.738281 C 9.925781 14.6875 9.917969 14.601562 9.90625 14.535156 C 9.878906 14.304688 9.8125 14.078125 9.824219 13.855469 C 9.828125 13.75 9.976562 13.652344 10.058594 13.550781 C 10.136719 13.632812 10.226562 13.710938 10.296875 13.800781 C 10.335938 13.851562 10.351562 13.921875 10.367188 13.957031 C 10.542969 13.910156 10.707031 13.867188 10.882812 13.816406 C 10.828125 13.714844 10.765625 13.605469 10.667969 13.433594 C 10.828125 13.460938 10.925781 13.480469 11.039062 13.5 C 11.089844 13.371094 11.113281 13.136719 11.34375 13.355469 C 11.847656 12.890625 12.132812 12.875 12.382812 13.28125 C 12.496094 13.230469 12.609375 13.179688 12.722656 13.132812 C 12.734375 13.253906 12.742188 13.378906 12.753906 13.515625 C 12.824219 13.46875 12.894531 13.421875 12.964844 13.375 C 13.121094 13.550781 13.105469 13.617188 12.804688 14.003906 C 13.003906 14.03125 13.128906 13.9375 13.226562 13.804688 C 13.332031 13.664062 13.226562 13.566406 13.148438 13.464844 C 13.089844 13.386719 13.027344 13.304688 12.992188 13.21875 C 12.917969 13.050781 12.875 12.84375 13.03125 12.734375 C 13.238281 12.59375 13.386719 12.296875 13.691406 12.371094 C 13.820312 12.402344 13.925781 12.542969 14.023438 12.652344 C 14.089844 12.71875 14.117188 12.820312 14.167969 12.925781 C 14.125 12.957031 14.066406 13 14.011719 13.039062 C 14.078125 13.101562 14.183594 13.148438 14.195312 13.214844 C 14.210938 13.277344 14.125 13.359375 14.109375 13.46875 L 14.269531 13.335938 L 14.421875 13.21875 L 14.503906 13.324219 C 14.515625 13.339844 14.527344 13.359375 14.535156 13.378906 C 14.617188 13.554688 14.691406 13.734375 14.765625 13.910156 C 14.792969 13.90625 14.820312 13.902344 14.851562 13.894531 C 14.839844 13.734375 14.824219 13.570312 14.820312 13.40625 C 14.816406 13.234375 14.820312 13.0625 14.820312 12.851562 C 15.425781 13.035156 15.386719 13.519531 15.425781 13.972656 C 15.519531 13.585938 15.441406 13.125 15.96875 12.921875 C 15.957031 13.183594 15.945312 13.410156 15.933594 13.601562 C 16.121094 13.433594 16.304688 13.269531 16.488281 13.101562 C 16.53125 13.0625 16.578125 13.003906 16.582031 12.953125 C 16.601562 12.6875 16.773438 12.640625 16.992188 12.644531 C 17.085938 12.648438 17.183594 12.648438 17.285156 12.648438 C 17.207031 12.503906 17.105469 12.390625 17.074219 12.257812 C 17.054688 12.164062 17.09375 12.019531 17.160156 11.949219 C 17.195312 11.90625 17.363281 11.9375 17.433594 11.988281 C 17.546875 12.070312 17.625 12.195312 17.730469 12.320312 C 17.789062 12.210938 17.839844 12.097656 17.910156 11.996094 C 17.996094 11.867188 18.113281 11.773438 18.273438 11.871094 Z M 6.058594 16.824219 C 6.21875 16.777344 6.359375 16.722656 6.503906 16.695312 C 6.957031 16.609375 7.105469 16.75 7.046875 17.203125 C 7.042969 17.214844 7.054688 17.226562 7.074219 17.269531 C 7.144531 17.257812 7.238281 17.269531 7.289062 17.226562 C 7.320312 17.199219 7.292969 17.089844 7.269531 17.023438 C 7.195312 16.808594 7.238281 16.726562 7.460938 16.765625 C 7.691406 16.808594 7.914062 16.90625 8.152344 16.980469 C 8.136719 16.753906 7.964844 16.636719 7.761719 16.59375 C 7.574219 16.554688 7.367188 16.585938 7.15625 16.585938 L 7.109375 16.511719 L 7.09375 16.488281 C 6.980469 16.519531 6.878906 16.582031 6.8125 16.554688 C 6.433594 16.40625 6.292969 16.441406 6.058594 16.824219 Z M 4.761719 14.902344 C 4.585938 15.09375 4.386719 15.277344 4.234375 15.492188 C 4.015625 15.8125 4.070312 15.910156 4.460938 15.992188 C 4.402344 16.074219 4.34375 16.152344 4.289062 16.230469 C 4.238281 16.304688 4.1875 16.378906 4.144531 16.441406 C 4.042969 16.363281 3.929688 16.214844 3.84375 16.226562 C 3.714844 16.25 3.59375 16.375 3.496094 16.480469 C 3.40625 16.570312 3.347656 16.6875 3.285156 16.800781 C 3.222656 16.90625 3.175781 17.015625 3.113281 17.140625 C 3.070312 17.070312 3.035156 17.007812 3 16.949219 L 3 16.449219 C 3.195312 16.289062 3.386719 16.132812 3.609375 15.949219 C 3.601562 15.921875 3.585938 15.832031 3.558594 15.722656 C 3.859375 15.824219 3.898438 15.652344 3.933594 15.421875 C 4.003906 14.941406 4.308594 14.765625 4.761719 14.902344 Z M 9.800781 15.652344 C 9.765625 15.75 9.730469 15.851562 9.691406 15.964844 C 9.566406 15.882812 9.414062 15.792969 9.238281 16.003906 C 9.378906 16.0625 9.496094 16.109375 9.582031 16.144531 C 9.523438 16.242188 9.464844 16.339844 9.40625 16.4375 C 9.519531 16.417969 9.636719 16.394531 9.757812 16.375 C 9.859375 16.457031 9.96875 16.542969 10.074219 16.628906 C 10.09375 16.523438 10.109375 16.417969 10.125 16.300781 C 10.175781 16.332031 10.238281 16.386719 10.308594 16.410156 C 10.363281 16.425781 10.433594 16.398438 10.496094 16.386719 L 10.453125 16.273438 C 10.445312 16.257812 10.4375 16.238281 10.421875 16.226562 C 10.375 16.175781 10.308594 16.144531 10.261719 16.113281 C 10.320312 16.007812 10.371094 15.925781 10.417969 15.839844 C 10.296875 15.863281 10.175781 15.886719 10.101562 15.902344 C 10 15.816406 9.902344 15.734375 9.800781 15.652344 Z M 27.875 16.125 C 27.867188 16.113281 27.765625 16.167969 27.707031 16.191406 C 27.757812 16.261719 27.8125 16.335938 27.867188 16.40625 C 27.90625 16.386719 27.941406 16.367188 27.976562 16.347656 C 27.945312 16.273438 27.921875 16.191406 27.875 16.125 Z M 22.882812 14.746094 L 22.851562 14.804688 L 23.199219 15.269531 C 23.1875 15.28125 23.171875 15.289062 23.160156 15.300781 C 22.753906 15.164062 22.347656 15.027344 21.9375 14.890625 C 22.042969 15.492188 22.527344 15.617188 23.027344 15.765625 L 22.535156 16.007812 C 22.535156 16.035156 22.535156 16.0625 22.535156 16.089844 C 22.605469 16.097656 22.679688 16.113281 22.75 16.113281 C 22.808594 16.113281 22.871094 16.078125 22.925781 16.085938 C 23.398438 16.148438 23.800781 16.003906 24.195312 15.652344 L 23.5 15.652344 C 23.546875 15.40625 23.652344 15.175781 23.4375 15.027344 C 23.269531 14.910156 23.070312 14.839844 22.882812 14.746094 Z M 7.972656 15.582031 C 7.90625 15.683594 7.839844 15.785156 7.792969 15.894531 C 7.773438 15.941406 7.804688 16.015625 7.8125 16.078125 C 7.875 16.066406 7.9375 16.070312 7.992188 16.042969 C 8.046875 16.015625 8.089844 15.960938 8.089844 15.960938 C 8.234375 15.996094 8.382812 16.066406 8.410156 16.035156 C 8.5625 15.851562 8.316406 15.808594 8.246094 15.6875 C 8.308594 15.664062 8.363281 15.648438 8.453125 15.617188 C 8.183594 15.453125 8.058594 15.445312 7.972656 15.582031 Z M 7.507812 15.65625 L 7.265625 15.949219 C 7.328125 15.992188 7.40625 16.082031 7.453125 16.070312 C 7.542969 16.042969 7.613281 15.957031 7.738281 15.855469 C 7.625 15.757812 7.566406 15.707031 7.507812 15.65625 Z M 18.386719 14.847656 C 18.277344 15.019531 18.183594 15.167969 17.957031 15.007812 C 17.9375 15.097656 17.921875 15.167969 17.90625 15.234375 C 17.246094 15.304688 17.113281 15.421875 17.09375 15.964844 C 17.304688 15.820312 17.488281 15.671875 17.6875 15.558594 C 17.992188 15.382812 18.070312 15.417969 18.203125 15.746094 C 18.324219 15.671875 18.449219 15.601562 18.570312 15.527344 C 18.589844 15.515625 18.601562 15.496094 18.617188 15.480469 C 18.335938 15.28125 18.335938 15.175781 18.648438 14.992188 C 18.835938 14.882812 19.046875 14.808594 19.25 14.714844 C 18.902344 14.472656 18.597656 14.511719 18.386719 14.847656 Z M 11.488281 14.644531 C 11.320312 14.644531 11.175781 14.773438 11.167969 14.933594 C 11.160156 15.105469 11.292969 15.246094 11.476562 15.253906 C 11.65625 15.257812 11.808594 15.121094 11.8125 14.957031 C 11.816406 14.792969 11.664062 14.644531 11.488281 14.644531 Z M 13.914062 13.8125 C 13.632812 13.851562 13.910156 14.074219 13.839844 14.1875 C 13.6875 14.152344 13.550781 14.109375 13.40625 14.09375 C 13.359375 14.089844 13.304688 14.164062 13.253906 14.199219 L 13.328125 14.296875 C 13.339844 14.308594 13.351562 14.320312 13.367188 14.328125 C 13.46875 14.371094 13.582031 14.394531 13.734375 14.433594 C 13.636719 14.496094 13.5625 14.527344 13.519531 14.582031 C 13.46875 14.640625 13.449219 14.722656 13.414062 14.796875 C 13.496094 14.796875 13.605469 14.828125 13.65625 14.785156 C 13.851562 14.613281 13.953125 14.679688 14.023438 14.894531 C 14.035156 14.929688 14.058594 14.976562 14.085938 14.988281 C 14.152344 15.011719 14.226562 15.039062 14.289062 15.023438 C 14.316406 15.019531 14.335938 14.914062 14.332031 14.855469 C 14.324219 14.773438 14.285156 14.695312 14.242188 14.550781 C 14.382812 14.652344 14.460938 14.734375 14.558594 14.761719 C 14.628906 14.785156 14.71875 14.738281 14.800781 14.726562 C 14.769531 14.65625 14.746094 14.578125 14.695312 14.527344 C 14.632812 14.460938 14.546875 14.417969 14.453125 14.355469 C 14.519531 14.300781 14.570312 14.277344 14.597656 14.234375 C 14.640625 14.175781 14.664062 14.101562 14.695312 14.035156 C 14.613281 14.039062 14.527344 14.023438 14.453125 14.050781 C 14.378906 14.078125 14.316406 14.148438 14.226562 14.214844 C 14.195312 13.988281 14.148438 13.777344 13.914062 13.8125 Z M 6.902344 13.421875 C 7.039062 13.351562 7.160156 13.261719 7.292969 13.230469 C 7.375 13.210938 7.542969 13.253906 7.558594 13.304688 C 7.585938 13.386719 7.535156 13.507812 7.492188 13.601562 C 7.46875 13.65625 7.398438 13.6875 7.324219 13.75 C 7.4375 13.777344 7.53125 13.789062 7.617188 13.820312 C 7.746094 13.863281 7.820312 13.945312 7.789062 14.09375 C 7.757812 14.238281 7.671875 14.300781 7.53125 14.28125 C 7.402344 14.265625 7.277344 14.238281 7.125 14.214844 C 7.195312 14.421875 7.328125 14.65625 7.050781 14.761719 C 6.730469 14.886719 6.71875 14.539062 6.574219 14.394531 C 6.230469 14.640625 6.039062 14.683594 5.917969 14.546875 C 5.8125 14.425781 5.863281 14.316406 6.164062 14.050781 C 6.042969 14.027344 5.914062 14.027344 5.816406 13.976562 C 5.75 13.9375 5.683594 13.828125 5.683594 13.75 C 5.683594 13.695312 5.792969 13.597656 5.859375 13.59375 C 6.023438 13.578125 6.1875 13.605469 6.371094 13.621094 C 6.335938 13.421875 6.167969 13.164062 6.511719 13.078125 C 6.785156 13.011719 6.824219 13.246094 6.902344 13.421875 Z M 16.59375 13.925781 C 16.421875 13.925781 16.28125 14.054688 16.277344 14.214844 C 16.273438 14.386719 16.417969 14.535156 16.589844 14.535156 C 16.765625 14.539062 16.925781 14.390625 16.921875 14.230469 C 16.921875 14.0625 16.769531 13.921875 16.59375 13.925781 Z M 28.5 13.019531 C 28.605469 13.066406 28.714844 13.113281 28.832031 13.164062 C 28.9375 13.144531 29.082031 13.113281 29.230469 13.082031 C 29.214844 13.195312 29.203125 13.3125 29.183594 13.464844 C 29.238281 13.496094 29.46875 13.445312 29.425781 13.671875 C 29.378906 13.933594 29.148438 13.761719 29.074219 13.847656 L 28.945312 14.226562 L 28.695312 14.101562 C 28.652344 14.078125 28.605469 14.054688 28.550781 14.027344 C 28.472656 14.078125 28.351562 14.292969 28.179688 14.121094 C 28.128906 14.074219 28.222656 13.882812 28.246094 13.78125 C 28.167969 13.730469 27.980469 13.648438 27.984375 13.589844 C 28.011719 13.3125 28.265625 13.46875 28.34375 13.4375 C 28.40625 13.265625 28.453125 13.140625 28.5 13.019531 Z M 17.796875 13.304688 C 17.738281 13.367188 17.691406 13.417969 17.605469 13.515625 C 17.757812 13.566406 17.875 13.605469 17.992188 13.648438 C 18.003906 13.621094 18.015625 13.597656 18.027344 13.570312 C 17.953125 13.484375 17.878906 13.398438 17.796875 13.304688 Z M 4.640625 12.339844 C 4.660156 12.453125 4.679688 12.566406 4.707031 12.703125 C 4.761719 12.746094 4.84375 12.808594 4.925781 12.871094 C 4.855469 12.953125 4.78125 13.035156 4.722656 13.105469 C 4.691406 13.21875 4.660156 13.328125 4.628906 13.4375 C 4.511719 13.394531 4.394531 13.355469 4.304688 13.324219 C 4.183594 13.351562 4.054688 13.421875 3.953125 13.390625 C 3.894531 13.375 3.878906 13.203125 3.832031 13.074219 L 3.75 12.992188 C 3.714844 12.960938 3.679688 12.921875 3.640625 12.886719 C 3.746094 12.820312 3.847656 12.753906 3.929688 12.703125 C 3.941406 12.601562 3.953125 12.488281 3.96875 12.375 C 4.078125 12.410156 4.1875 12.445312 4.289062 12.480469 C 4.390625 12.4375 4.515625 12.390625 4.640625 12.339844 Z M 18.710938 13.023438 L 18.261719 13.023438 C 18.355469 13.144531 18.417969 13.226562 18.492188 13.324219 C 18.570312 13.21875 18.625 13.140625 18.710938 13.023438 Z M 8.734375 11.503906 C 8.886719 11.550781 9.042969 11.59375 9.195312 11.648438 C 9.570312 11.78125 9.617188 11.839844 9.625 12.234375 C 9.628906 12.410156 9.703125 12.4375 9.851562 12.410156 C 10.023438 12.382812 10.203125 12.367188 10.382812 12.375 L 10.214844 12.558594 C 9.964844 12.835938 9.707031 13.097656 9.273438 13.097656 C 9.144531 13.097656 9.011719 13.195312 8.859375 13.257812 C 8.8125 13.214844 8.742188 13.148438 8.667969 13.082031 C 8.816406 12.957031 8.949219 12.84375 9.128906 12.691406 C 8.433594 12.644531 7.863281 12.496094 7.660156 11.785156 C 8.125 12.070312 8.636719 12.089844 9.207031 12.09375 C 9.023438 11.890625 8.867188 11.714844 8.710938 11.542969 C 8.71875 11.527344 8.726562 11.515625 8.734375 11.503906 Z M 6.535156 11.796875 C 6.617188 11.847656 6.699219 11.902344 6.769531 11.945312 C 6.875 11.925781 6.988281 11.90625 7.101562 11.882812 L 7.101562 12.199219 C 7.140625 12.257812 7.203125 12.335938 7.261719 12.417969 C 7.1875 12.46875 7.113281 12.523438 7.039062 12.574219 C 7.003906 12.65625 6.964844 12.75 6.921875 12.84375 C 6.824219 12.792969 6.726562 12.742188 6.644531 12.699219 C 6.535156 12.707031 6.394531 12.757812 6.359375 12.714844 C 6.300781 12.640625 6.304688 12.515625 6.28125 12.402344 C 6.246094 12.347656 6.199219 12.277344 6.152344 12.203125 C 6.246094 12.160156 6.339844 12.117188 6.421875 12.078125 C 6.457031 11.996094 6.496094 11.898438 6.535156 11.796875 Z M 15.582031 11.265625 C 15.722656 11.175781 15.851562 11.066406 16.003906 11.003906 C 16.082031 10.972656 16.261719 11.003906 16.277344 11.046875 C 16.3125 11.140625 16.292969 11.273438 16.25 11.371094 C 16.21875 11.445312 16.121094 11.488281 16.011719 11.578125 C 16.175781 11.589844 16.273438 11.589844 16.363281 11.609375 C 16.515625 11.640625 16.609375 11.722656 16.585938 11.894531 C 16.566406 12.058594 16.480469 12.140625 16.3125 12.128906 C 16.171875 12.121094 16.027344 12.109375 15.863281 12.097656 C 15.902344 12.171875 15.945312 12.230469 15.96875 12.296875 C 16.035156 12.464844 16 12.613281 15.84375 12.710938 C 15.683594 12.8125 15.570312 12.71875 15.472656 12.601562 C 15.410156 12.519531 15.355469 12.429688 15.304688 12.355469 C 15.175781 12.449219 15.066406 12.574219 14.929688 12.617188 C 14.824219 12.648438 14.6875 12.578125 14.566406 12.550781 C 14.589844 12.441406 14.597656 12.324219 14.648438 12.226562 C 14.6875 12.152344 14.773438 12.105469 14.816406 12 C 14.703125 12 14.582031 12.03125 14.488281 11.992188 C 14.402344 11.957031 14.289062 11.851562 14.285156 11.777344 C 14.285156 11.703125 14.398438 11.574219 14.480469 11.558594 C 14.652344 11.523438 14.835938 11.546875 15.019531 11.546875 C 14.890625 11.125 14.910156 11.007812 15.125 10.929688 C 15.328125 10.859375 15.429688 10.933594 15.582031 11.265625 Z M 26.886719 10.789062 C 27.136719 11.109375 27.496094 11.335938 28.144531 11.554688 C 28.054688 11.363281 27.960938 11.167969 27.867188 10.972656 C 27.875 10.957031 27.882812 10.941406 27.890625 10.925781 C 28.082031 11.046875 28.292969 11.148438 28.457031 11.296875 C 28.671875 11.492188 28.550781 11.722656 28.417969 11.921875 C 28.652344 11.96875 28.863281 12.011719 29.132812 12.066406 C 28.769531 12.285156 28.484375 12.480469 28.101562 12.417969 C 27.953125 12.394531 27.800781 12.4375 27.648438 12.433594 C 27.59375 12.433594 27.535156 12.378906 27.480469 12.351562 C 27.523438 12.292969 27.554688 12.214844 27.613281 12.183594 C 27.699219 12.136719 27.804688 12.117188 27.914062 12.054688 C 27.300781 11.871094 26.898438 11.527344 26.886719 10.789062 Z M 22.882812 10.417969 C 23.050781 10.433594 23.085938 10.542969 23.074219 10.945312 C 23.195312 10.902344 23.308594 10.851562 23.425781 10.824219 C 23.574219 10.792969 23.695312 10.824219 23.746094 10.996094 C 23.792969 11.164062 23.691406 11.230469 23.5625 11.277344 C 23.46875 11.308594 23.375 11.339844 23.253906 11.378906 C 23.347656 11.449219 23.433594 11.503906 23.507812 11.566406 C 23.613281 11.664062 23.699219 11.789062 23.59375 11.921875 C 23.496094 12.046875 23.351562 12.078125 23.207031 11.996094 C 23.109375 11.941406 23.019531 11.867188 22.910156 11.789062 C 22.867188 12.273438 22.8125 12.359375 22.566406 12.34375 C 22.347656 12.332031 22.316406 12.257812 22.34375 11.78125 C 22.113281 11.796875 21.867188 12.179688 21.664062 11.765625 C 21.566406 11.5625 21.632812 11.496094 22.09375 11.285156 C 22.027344 11.253906 21.960938 11.230469 21.910156 11.191406 C 21.796875 11.109375 21.671875 11.015625 21.753906 10.859375 C 21.835938 10.707031 21.984375 10.691406 22.128906 10.753906 C 22.253906 10.804688 22.363281 10.886719 22.496094 10.960938 C 22.5625 10.738281 22.46875 10.378906 22.882812 10.417969 Z M 12.363281 10.726562 C 12.617188 10.753906 12.5 11 12.542969 11.15625 C 12.703125 11.117188 12.894531 10.914062 13.007812 11.167969 C 13.132812 11.453125 12.808594 11.414062 12.6875 11.53125 C 12.789062 11.667969 13.070312 11.75 12.894531 11.976562 C 12.722656 12.199219 12.570312 11.964844 12.414062 11.878906 C 12.355469 12.046875 12.460938 12.324219 12.167969 12.308594 C 11.851562 12.296875 12.03125 12.019531 11.972656 11.867188 C 11.539062 12.03125 11.539062 12.03125 11.46875 11.757812 C 11.722656 11.753906 11.796875 11.636719 11.707031 11.386719 C 11.703125 11.367188 11.710938 11.335938 11.71875 11.308594 C 11.769531 11.140625 11.75 11.09375 11.597656 11.113281 L 11.546875 11.121094 L 11.578125 11.074219 C 11.679688 10.925781 11.78125 10.949219 12.082031 11.15625 C 12.167969 11.007812 12.066406 10.699219 12.363281 10.726562 Z M 11.285156 10.902344 C 11.328125 10.945312 11.398438 10.984375 11.40625 11.035156 C 11.421875 11.109375 11.433594 11.164062 11.496094 11.148438 L 11.539062 11.128906 L 11.558594 11.183594 C 11.574219 11.226562 11.589844 11.265625 11.589844 11.308594 C 11.59375 11.429688 11.617188 11.558594 11.480469 11.640625 C 11.433594 11.667969 11.410156 11.730469 11.375 11.777344 C 11.332031 11.832031 11.285156 11.886719 11.238281 11.945312 C 11.195312 11.886719 11.148438 11.828125 11.109375 11.765625 C 11.101562 11.757812 11.097656 11.742188 11.097656 11.734375 L 11.097656 11.726562 L 10.984375 11.710938 C 10.914062 11.703125 10.851562 11.695312 10.785156 11.683594 C 10.816406 11.585938 10.847656 11.484375 10.878906 11.375 C 10.859375 11.324219 10.828125 11.242188 10.796875 11.164062 C 10.902344 11.148438 11.007812 11.136719 11.144531 11.121094 C 11.144531 11.121094 11.144531 11.066406 11.167969 11.023438 C 11.195312 10.976562 11.246094 10.941406 11.285156 10.902344 Z M 26.054688 10.886719 L 26.054688 11.121094 C 26.109375 11.171875 26.175781 11.234375 26.242188 11.296875 C 26.152344 11.351562 26.058594 11.410156 25.976562 11.457031 C 25.953125 11.535156 25.929688 11.625 25.902344 11.714844 C 25.8125 11.691406 25.71875 11.664062 25.621094 11.632812 C 25.527344 11.652344 25.40625 11.675781 25.285156 11.703125 C 25.296875 11.621094 25.304688 11.539062 25.3125 11.472656 C 25.238281 11.417969 25.167969 11.367188 25.09375 11.320312 C 25.195312 11.257812 25.296875 11.195312 25.40625 11.128906 C 25.421875 11.074219 25.417969 10.9375 25.476562 10.90625 C 25.535156 10.871094 25.652344 10.9375 25.75 10.960938 C 25.835938 10.941406 25.945312 10.914062 26.054688 10.886719 Z M 17.386719 9.875 C 17.460938 9.960938 17.535156 10.050781 17.59375 10.148438 C 17.695312 10.316406 17.808594 10.34375 17.949219 10.195312 C 17.976562 10.171875 18.011719 10.15625 18.058594 10.121094 C 18.09375 10.25 18.125 10.359375 18.152344 10.46875 L 18.785156 10.46875 C 18.785156 10.523438 18.789062 10.582031 18.792969 10.660156 C 18.855469 10.617188 18.902344 10.585938 18.898438 10.589844 C 18.898438 10.464844 18.871094 10.375 18.902344 10.308594 C 19.019531 10.035156 19.253906 10.15625 19.464844 10.167969 C 19.484375 10.117188 19.507812 10.0625 19.527344 10.011719 C 19.546875 10.011719 19.566406 10.007812 19.574219 10.015625 C 19.699219 10.148438 19.761719 10.042969 19.835938 9.949219 C 20.0625 9.660156 20.25 9.660156 20.515625 9.945312 C 20.359375 9.988281 20.195312 10.011719 20.046875 10.074219 C 19.796875 10.183594 19.777344 10.285156 19.964844 10.503906 C 19.859375 10.550781 19.757812 10.597656 19.660156 10.644531 C 19.515625 10.296875 19.410156 10.277344 19.046875 10.515625 C 19.171875 10.800781 19.300781 11.085938 19.425781 11.367188 C 19.40625 11.382812 19.386719 11.398438 19.367188 11.410156 C 19.28125 11.351562 19.199219 11.285156 19.109375 11.230469 C 18.910156 11.109375 18.714844 10.972656 18.503906 10.878906 C 18.074219 10.691406 17.933594 10.785156 17.902344 11.28125 C 17.679688 11.167969 17.464844 11.058594 17.230469 10.9375 C 17.292969 10.902344 17.328125 10.878906 17.367188 10.855469 C 17.574219 10.71875 17.585938 10.539062 17.386719 10.378906 C 17.109375 10.160156 16.78125 10.042969 16.433594 9.996094 C 16.382812 9.988281 16.332031 9.984375 16.273438 9.980469 C 16.53125 9.574219 17.089844 9.523438 17.386719 9.875 Z M 13.117188 8.953125 C 13.292969 9.226562 13.292969 9.226562 13.578125 9.082031 C 13.59375 9.171875 13.613281 9.257812 13.621094 9.296875 C 13.886719 9.371094 14.167969 9.378906 14.347656 9.523438 C 14.503906 9.648438 14.542969 9.921875 14.636719 10.128906 C 14.613281 10.144531 14.589844 10.160156 14.566406 10.171875 C 14.445312 10.078125 14.324219 9.980469 14.199219 9.890625 C 14.109375 9.828125 14.011719 9.769531 13.910156 9.71875 C 13.558594 9.539062 13.441406 9.597656 13.363281 9.996094 C 13.191406 9.894531 13.027344 9.800781 12.84375 9.691406 C 12.886719 9.660156 12.917969 9.640625 12.945312 9.621094 C 13.132812 9.507812 13.164062 9.355469 12.980469 9.234375 C 12.714844 9.0625 12.417969 8.9375 12.136719 8.792969 C 12.488281 8.484375 12.84375 8.53125 13.117188 8.953125 Z M 22.175781 8.890625 C 22.296875 8.921875 22.414062 8.957031 22.539062 8.992188 C 22.621094 8.964844 22.734375 8.894531 22.828125 8.917969 C 22.878906 8.929688 22.894531 9.101562 22.925781 9.199219 C 23.019531 9.253906 23.140625 9.328125 23.261719 9.402344 L 23.023438 9.5625 L 23.023438 9.851562 C 22.902344 9.820312 22.78125 9.785156 22.652344 9.75 C 22.558594 9.78125 22.445312 9.816406 22.335938 9.851562 C 22.3125 9.746094 22.289062 9.644531 22.261719 9.539062 C 22.203125 9.441406 21.964844 9.601562 21.960938 9.359375 C 21.960938 9.296875 22.097656 9.230469 22.175781 9.164062 Z M 8.632812 8.195312 C 8.675781 8.253906 8.730469 8.304688 8.753906 8.371094 C 8.777344 8.4375 8.769531 8.515625 8.777344 8.59375 C 8.90625 8.550781 9.03125 8.511719 9.152344 8.472656 C 9.175781 8.492188 9.199219 8.515625 9.222656 8.539062 C 9.132812 8.675781 9.042969 8.816406 8.976562 8.925781 C 9.027344 9.03125 9.078125 9.140625 9.132812 9.25 L 8.726562 9.25 C 8.667969 9.351562 8.597656 9.46875 8.527344 9.582031 C 8.453125 9.5 8.378906 9.417969 8.320312 9.351562 L 7.984375 9.351562 C 8.054688 9.234375 8.125 9.121094 8.199219 8.996094 C 8.144531 8.945312 8.058594 8.867188 7.976562 8.789062 C 7.984375 8.765625 7.992188 8.742188 8 8.71875 C 8.128906 8.703125 8.257812 8.6875 8.402344 8.671875 C 8.425781 8.574219 8.4375 8.453125 8.484375 8.34375 C 8.507812 8.285156 8.582031 8.246094 8.632812 8.195312 Z M 17.445312 7 C 17.496094 7.070312 17.550781 7.144531 17.570312 7.167969 C 17.734375 7.136719 17.871094 7.109375 18.003906 7.082031 C 17.992188 7.1875 17.976562 7.292969 17.96875 7.367188 C 18.039062 7.433594 18.191406 7.519531 18.1875 7.589844 C 18.164062 7.84375 17.933594 7.679688 17.855469 7.757812 L 17.730469 8.089844 C 17.621094 8.039062 17.507812 7.984375 17.429688 7.945312 C 17.285156 7.96875 17.140625 7.992188 17 8.015625 C 17.015625 7.910156 17.03125 7.804688 17.046875 7.71875 C 16.976562 7.65625 16.890625 7.578125 16.804688 7.503906 C 16.9375 7.445312 17.070312 7.386719 17.1875 7.335938 C 17.222656 7.238281 17.265625 7.121094 17.308594 7 Z M 17.445312 7 "/>
</clipPath>
<linearGradient id="linear0" gradientUnits="userSpaceOnUse" x1="13.84931" y1="0" x2="13.84931" y2="18.753257" gradientTransform="matrix(1,0,0,1,2.999995,7.00001)">
<stop offset="0" style="stop-color:rgb(34.901428%,69.020081%,18.431091%);stop-opacity:1;"/>
<stop offset="0.00390625" style="stop-color:rgb(34.509277%,69.020081%,18.823242%);stop-opacity:1;"/>
<stop offset="0.0078125" style="stop-color:rgb(34.509277%,69.020081%,19.215393%);stop-opacity:1;"/>
<stop offset="0.0117188" style="stop-color:rgb(34.117126%,68.62793%,19.607544%);stop-opacity:1;"/>
<stop offset="0.015625" style="stop-color:rgb(34.117126%,68.62793%,19.999695%);stop-opacity:1;"/>
<stop offset="0.0195312" style="stop-color:rgb(33.724976%,68.62793%,20.391846%);stop-opacity:1;"/>
<stop offset="0.0234375" style="stop-color:rgb(33.724976%,68.62793%,20.783997%);stop-opacity:1;"/>
<stop offset="0.0273438" style="stop-color:rgb(33.332825%,68.235779%,21.176147%);stop-opacity:1;"/>
<stop offset="0.03125" style="stop-color:rgb(32.940674%,68.235779%,21.960449%);stop-opacity:1;"/>
<stop offset="0.0351562" style="stop-color:rgb(32.548523%,68.235779%,22.3526%);stop-opacity:1;"/>
<stop offset="0.0390625" style="stop-color:rgb(32.548523%,68.235779%,22.744751%);stop-opacity:1;"/>
<stop offset="0.0429687" style="stop-color:rgb(32.156372%,67.843628%,23.136902%);stop-opacity:1;"/>
<stop offset="0.046875" style="stop-color:rgb(32.156372%,67.843628%,23.529053%);stop-opacity:1;"/>
<stop offset="0.0507812" style="stop-color:rgb(31.764221%,67.843628%,23.921204%);stop-opacity:1;"/>
<stop offset="0.0546875" style="stop-color:rgb(31.764221%,67.843628%,24.313354%);stop-opacity:1;"/>
<stop offset="0.0585938" style="stop-color:rgb(31.37207%,67.451477%,24.705505%);stop-opacity:1;"/>
<stop offset="0.0625" style="stop-color:rgb(31.37207%,67.451477%,25.097656%);stop-opacity:1;"/>
<stop offset="0.0664062" style="stop-color:rgb(30.979919%,67.451477%,25.489807%);stop-opacity:1;"/>
<stop offset="0.0703125" style="stop-color:rgb(30.979919%,67.451477%,25.881958%);stop-opacity:1;"/>
<stop offset="0.0742187" style="stop-color:rgb(30.587769%,67.059326%,26.274109%);stop-opacity:1;"/>
<stop offset="0.078125" style="stop-color:rgb(30.195618%,67.059326%,26.66626%);stop-opacity:1;"/>
<stop offset="0.0820312" style="stop-color:rgb(29.803467%,67.059326%,27.058411%);stop-opacity:1;"/>
<stop offset="0.0859375" style="stop-color:rgb(29.803467%,67.059326%,27.450562%);stop-opacity:1;"/>
<stop offset="0.0898437" style="stop-color:rgb(29.411316%,66.667175%,28.234863%);stop-opacity:1;"/>
<stop offset="0.09375" style="stop-color:rgb(29.411316%,66.667175%,28.627014%);stop-opacity:1;"/>
<stop offset="0.0976562" style="stop-color:rgb(29.019165%,66.667175%,29.019165%);stop-opacity:1;"/>
<stop offset="0.101562" style="stop-color:rgb(29.019165%,66.667175%,29.411316%);stop-opacity:1;"/>
<stop offset="0.105469" style="stop-color:rgb(28.627014%,66.275024%,29.803467%);stop-opacity:1;"/>
<stop offset="0.109375" style="stop-color:rgb(28.627014%,66.275024%,30.195618%);stop-opacity:1;"/>
<stop offset="0.113281" style="stop-color:rgb(28.234863%,66.275024%,30.587769%);stop-opacity:1;"/>
<stop offset="0.117188" style="stop-color:rgb(28.234863%,66.275024%,30.979919%);stop-opacity:1;"/>
<stop offset="0.121094" style="stop-color:rgb(27.842712%,65.882874%,31.37207%);stop-opacity:1;"/>
<stop offset="0.125" style="stop-color:rgb(27.450562%,65.882874%,31.764221%);stop-opacity:1;"/>
<stop offset="0.128906" style="stop-color:rgb(27.450562%,65.882874%,32.156372%);stop-opacity:1;"/>
<stop offset="0.132812" style="stop-color:rgb(27.058411%,65.882874%,32.548523%);stop-opacity:1;"/>
<stop offset="0.136719" style="stop-color:rgb(26.66626%,65.490723%,32.940674%);stop-opacity:1;"/>
<stop offset="0.140625" style="stop-color:rgb(26.66626%,65.490723%,33.332825%);stop-opacity:1;"/>
<stop offset="0.144531" style="stop-color:rgb(26.274109%,65.490723%,33.724976%);stop-opacity:1;"/>
<stop offset="0.148437" style="stop-color:rgb(26.274109%,65.490723%,34.117126%);stop-opacity:1;"/>
<stop offset="0.152344" style="stop-color:rgb(25.881958%,65.098572%,34.509277%);stop-opacity:1;"/>
<stop offset="0.15625" style="stop-color:rgb(25.881958%,65.098572%,34.901428%);stop-opacity:1;"/>
<stop offset="0.160156" style="stop-color:rgb(25.489807%,65.098572%,35.293579%);stop-opacity:1;"/>
<stop offset="0.164062" style="stop-color:rgb(25.489807%,65.098572%,36.077881%);stop-opacity:1;"/>
<stop offset="0.167969" style="stop-color:rgb(25.097656%,64.706421%,36.470032%);stop-opacity:1;"/>
<stop offset="0.171875" style="stop-color:rgb(25.097656%,64.706421%,36.862183%);stop-opacity:1;"/>
<stop offset="0.175781" style="stop-color:rgb(24.705505%,64.706421%,37.254333%);stop-opacity:1;"/>
<stop offset="0.179687" style="stop-color:rgb(24.313354%,64.706421%,37.646484%);stop-opacity:1;"/>
<stop offset="0.183594" style="stop-color:rgb(23.921204%,64.31427%,38.038635%);stop-opacity:1;"/>
<stop offset="0.1875" style="stop-color:rgb(23.921204%,64.31427%,38.430786%);stop-opacity:1;"/>
<stop offset="0.191406" style="stop-color:rgb(23.529053%,64.31427%,38.822937%);stop-opacity:1;"/>
<stop offset="0.195312" style="stop-color:rgb(23.529053%,64.31427%,39.215088%);stop-opacity:1;"/>
<stop offset="0.199219" style="stop-color:rgb(23.136902%,63.922119%,39.607239%);stop-opacity:1;"/>
<stop offset="0.203125" style="stop-color:rgb(23.136902%,63.922119%,39.99939%);stop-opacity:1;"/>
<stop offset="0.207031" style="stop-color:rgb(22.744751%,63.922119%,40.391541%);stop-opacity:1;"/>
<stop offset="0.210938" style="stop-color:rgb(22.744751%,63.922119%,40.783691%);stop-opacity:1;"/>
<stop offset="0.214844" style="stop-color:rgb(22.3526%,63.922119%,41.175842%);stop-opacity:1;"/>
<stop offset="0.21875" style="stop-color:rgb(22.3526%,63.922119%,41.567993%);stop-opacity:1;"/>
<stop offset="0.222656" style="stop-color:rgb(21.960449%,63.529968%,42.352295%);stop-opacity:1;"/>
<stop offset="0.226562" style="stop-color:rgb(21.568298%,63.529968%,42.744446%);stop-opacity:1;"/>
<stop offset="0.230469" style="stop-color:rgb(21.176147%,63.529968%,43.136597%);stop-opacity:1;"/>
<stop offset="0.234375" style="stop-color:rgb(21.176147%,63.529968%,43.528748%);stop-opacity:1;"/>
<stop offset="0.238281" style="stop-color:rgb(20.783997%,63.137817%,43.920898%);stop-opacity:1;"/>
<stop offset="0.242188" style="stop-color:rgb(20.783997%,63.137817%,44.313049%);stop-opacity:1;"/>
<stop offset="0.246094" style="stop-color:rgb(20.391846%,63.137817%,44.7052%);stop-opacity:1;"/>
<stop offset="0.25" style="stop-color:rgb(20.391846%,63.137817%,45.097351%);stop-opacity:1;"/>
<stop offset="0.253906" style="stop-color:rgb(19.999695%,62.745667%,45.489502%);stop-opacity:1;"/>
<stop offset="0.257812" style="stop-color:rgb(19.999695%,62.745667%,45.881653%);stop-opacity:1;"/>
<stop offset="0.261719" style="stop-color:rgb(19.607544%,62.745667%,46.273804%);stop-opacity:1;"/>
<stop offset="0.265625" style="stop-color:rgb(19.607544%,62.745667%,46.665955%);stop-opacity:1;"/>
<stop offset="0.269531" style="stop-color:rgb(19.215393%,62.353516%,47.058105%);stop-opacity:1;"/>
<stop offset="0.273437" style="stop-color:rgb(18.823242%,62.353516%,47.450256%);stop-opacity:1;"/>
<stop offset="0.277344" style="stop-color:rgb(18.823242%,62.353516%,47.842407%);stop-opacity:1;"/>
<stop offset="0.28125" style="stop-color:rgb(18.431091%,62.353516%,48.626709%);stop-opacity:1;"/>
<stop offset="0.285156" style="stop-color:rgb(18.03894%,61.961365%,49.01886%);stop-opacity:1;"/>
<stop offset="0.289062" style="stop-color:rgb(18.03894%,61.961365%,49.411011%);stop-opacity:1;"/>
<stop offset="0.292969" style="stop-color:rgb(17.64679%,61.961365%,49.803162%);stop-opacity:1;"/>
<stop offset="0.296875" style="stop-color:rgb(17.64679%,61.961365%,50.196838%);stop-opacity:1;"/>
<stop offset="0.300781" style="stop-color:rgb(17.254639%,61.569214%,50.588989%);stop-opacity:1;"/>
<stop offset="0.304687" style="stop-color:rgb(17.254639%,61.569214%,50.98114%);stop-opacity:1;"/>
<stop offset="0.308594" style="stop-color:rgb(16.862488%,61.569214%,51.373291%);stop-opacity:1;"/>
<stop offset="0.3125" style="stop-color:rgb(16.862488%,61.569214%,51.765442%);stop-opacity:1;"/>
<stop offset="0.316406" style="stop-color:rgb(16.470337%,61.177063%,52.157593%);stop-opacity:1;"/>
<stop offset="0.320312" style="stop-color:rgb(16.078186%,61.177063%,52.549744%);stop-opacity:1;"/>
<stop offset="0.324219" style="stop-color:rgb(16.078186%,61.177063%,52.941895%);stop-opacity:1;"/>
<stop offset="0.328125" style="stop-color:rgb(15.686035%,61.177063%,53.334045%);stop-opacity:1;"/>
<stop offset="0.332031" style="stop-color:rgb(15.293884%,60.784912%,53.726196%);stop-opacity:1;"/>
<stop offset="0.335937" style="stop-color:rgb(15.293884%,60.784912%,54.118347%);stop-opacity:1;"/>
<stop offset="0.339844" style="stop-color:rgb(14.901733%,60.784912%,54.510498%);stop-opacity:1;"/>
<stop offset="0.34375" style="stop-color:rgb(14.901733%,60.784912%,54.902649%);stop-opacity:1;"/>
<stop offset="0.347656" style="stop-color:rgb(14.509583%,60.392761%,55.2948%);stop-opacity:1;"/>
<stop offset="0.351562" style="stop-color:rgb(14.509583%,60.392761%,56.079102%);stop-opacity:1;"/>
<stop offset="0.355469" style="stop-color:rgb(14.117432%,60.392761%,56.471252%);stop-opacity:1;"/>
<stop offset="0.359375" style="stop-color:rgb(14.117432%,60.392761%,56.863403%);stop-opacity:1;"/>
<stop offset="0.363281" style="stop-color:rgb(13.725281%,60.00061%,57.255554%);stop-opacity:1;"/>
<stop offset="0.367187" style="stop-color:rgb(13.33313%,60.00061%,57.647705%);stop-opacity:1;"/>
<stop offset="0.371094" style="stop-color:rgb(13.33313%,60.00061%,58.039856%);stop-opacity:1;"/>
<stop offset="0.375" style="stop-color:rgb(12.940979%,60.00061%,58.432007%);stop-opacity:1;"/>
<stop offset="0.378906" style="stop-color:rgb(12.548828%,59.608459%,58.824158%);stop-opacity:1;"/>
<stop offset="0.382812" style="stop-color:rgb(12.548828%,59.608459%,59.216309%);stop-opacity:1;"/>
<stop offset="0.386719" style="stop-color:rgb(12.156677%,59.608459%,59.608459%);stop-opacity:1;"/>
<stop offset="0.390625" style="stop-color:rgb(12.156677%,59.608459%,60.00061%);stop-opacity:1;"/>
<stop offset="0.394531" style="stop-color:rgb(11.764526%,59.216309%,60.392761%);stop-opacity:1;"/>
<stop offset="0.398438" style="stop-color:rgb(11.764526%,59.216309%,60.784912%);stop-opacity:1;"/>
<stop offset="0.402344" style="stop-color:rgb(11.372375%,59.216309%,61.177063%);stop-opacity:1;"/>
<stop offset="0.40625" style="stop-color:rgb(11.372375%,59.216309%,61.569214%);stop-opacity:1;"/>
<stop offset="0.410156" style="stop-color:rgb(10.980225%,58.824158%,61.961365%);stop-opacity:1;"/>
<stop offset="0.414062" style="stop-color:rgb(10.980225%,58.824158%,62.745667%);stop-opacity:1;"/>
<stop offset="0.417969" style="stop-color:rgb(10.588074%,58.824158%,63.137817%);stop-opacity:1;"/>
<stop offset="0.421875" style="stop-color:rgb(10.195923%,58.824158%,63.529968%);stop-opacity:1;"/>
<stop offset="0.425781" style="stop-color:rgb(9.803772%,58.432007%,63.922119%);stop-opacity:1;"/>
<stop offset="0.429688" style="stop-color:rgb(9.803772%,58.432007%,64.31427%);stop-opacity:1;"/>
<stop offset="0.433594" style="stop-color:rgb(9.411621%,58.432007%,64.706421%);stop-opacity:1;"/>
<stop offset="0.4375" style="stop-color:rgb(9.411621%,58.432007%,65.098572%);stop-opacity:1;"/>
<stop offset="0.441406" style="stop-color:rgb(9.01947%,58.432007%,65.490723%);stop-opacity:1;"/>
<stop offset="0.445312" style="stop-color:rgb(9.01947%,58.432007%,65.882874%);stop-opacity:1;"/>
<stop offset="0.449219" style="stop-color:rgb(8.627319%,58.039856%,66.275024%);stop-opacity:1;"/>
<stop offset="0.453125" style="stop-color:rgb(8.627319%,58.039856%,66.667175%);stop-opacity:1;"/>
<stop offset="0.457031" style="stop-color:rgb(8.235168%,58.039856%,67.059326%);stop-opacity:1;"/>
<stop offset="0.460938" style="stop-color:rgb(8.235168%,58.039856%,67.451477%);stop-opacity:1;"/>
<stop offset="0.464844" style="stop-color:rgb(7.843018%,57.647705%,67.843628%);stop-opacity:1;"/>
<stop offset="0.46875" style="stop-color:rgb(7.450867%,57.647705%,68.235779%);stop-opacity:1;"/>
<stop offset="0.472656" style="stop-color:rgb(7.058716%,57.647705%,69.020081%);stop-opacity:1;"/>
<stop offset="0.476562" style="stop-color:rgb(7.058716%,57.647705%,69.412231%);stop-opacity:1;"/>
<stop offset="0.480469" style="stop-color:rgb(6.666565%,57.255554%,69.804382%);stop-opacity:1;"/>
<stop offset="0.484375" style="stop-color:rgb(6.666565%,57.255554%,70.196533%);stop-opacity:1;"/>
<stop offset="0.488281" style="stop-color:rgb(6.274414%,57.255554%,70.588684%);stop-opacity:1;"/>
<stop offset="0.492188" style="stop-color:rgb(6.274414%,57.255554%,70.980835%);stop-opacity:1;"/>
<stop offset="0.496094" style="stop-color:rgb(5.882263%,56.863403%,71.372986%);stop-opacity:1;"/>
<stop offset="0.5" style="stop-color:rgb(5.882263%,56.863403%,71.765137%);stop-opacity:1;"/>
<stop offset="0.503906" style="stop-color:rgb(5.490112%,56.863403%,72.157288%);stop-opacity:1;"/>
<stop offset="0.507812" style="stop-color:rgb(5.490112%,56.863403%,72.549438%);stop-opacity:1;"/>
<stop offset="0.511719" style="stop-color:rgb(5.097961%,56.471252%,72.941589%);stop-opacity:1;"/>
<stop offset="0.515625" style="stop-color:rgb(4.705811%,56.471252%,73.33374%);stop-opacity:1;"/>
<stop offset="0.519531" style="stop-color:rgb(4.31366%,56.471252%,73.725891%);stop-opacity:1;"/>
<stop offset="0.523437" style="stop-color:rgb(4.31366%,56.471252%,74.118042%);stop-opacity:1;"/>
<stop offset="0.527344" style="stop-color:rgb(3.921509%,56.079102%,74.510193%);stop-opacity:1;"/>
<stop offset="0.53125" style="stop-color:rgb(3.921509%,56.079102%,74.902344%);stop-opacity:1;"/>
<stop offset="0.535156" style="stop-color:rgb(3.529358%,56.079102%,75.294495%);stop-opacity:1;"/>
<stop offset="0.539062" style="stop-color:rgb(3.529358%,56.079102%,75.686646%);stop-opacity:1;"/>
<stop offset="0.542969" style="stop-color:rgb(3.137207%,55.686951%,76.470947%);stop-opacity:1;"/>
<stop offset="0.546875" style="stop-color:rgb(3.137207%,55.686951%,76.863098%);stop-opacity:1;"/>
<stop offset="0.550781" style="stop-color:rgb(2.745056%,55.686951%,77.255249%);stop-opacity:1;"/>
<stop offset="0.554687" style="stop-color:rgb(2.745056%,55.686951%,77.6474%);stop-opacity:1;"/>
<stop offset="0.558594" style="stop-color:rgb(2.352905%,55.2948%,78.039551%);stop-opacity:1;"/>
<stop offset="0.5625" style="stop-color:rgb(2.352905%,55.2948%,78.431702%);stop-opacity:1;"/>
<stop offset="0.566406" style="stop-color:rgb(1.960754%,55.2948%,78.823853%);stop-opacity:1;"/>
<stop offset="0.570312" style="stop-color:rgb(1.568604%,55.2948%,79.216003%);stop-opacity:1;"/>
<stop offset="0.574219" style="stop-color:rgb(1.176453%,54.902649%,79.608154%);stop-opacity:1;"/>
<stop offset="0.578125" style="stop-color:rgb(1.176453%,54.902649%,80.000305%);stop-opacity:1;"/>
<stop offset="0.582031" style="stop-color:rgb(0.784302%,54.902649%,80.392456%);stop-opacity:1;"/>
<stop offset="0.585937" style="stop-color:rgb(0.784302%,54.902649%,80.784607%);stop-opacity:1;"/>
<stop offset="0.589844" style="stop-color:rgb(0.392151%,54.510498%,81.176758%);stop-opacity:1;"/>
<stop offset="0.59375" style="stop-color:rgb(0.392151%,54.510498%,81.568909%);stop-opacity:1;"/>
<stop offset="0.597656" style="stop-color:rgb(0%,54.510498%,81.96106%);stop-opacity:1;"/>
<stop offset="0.601562" style="stop-color:rgb(0%,54.510498%,82.35321%);stop-opacity:1;"/>
<stop offset="0.605469" style="stop-color:rgb(0%,54.118347%,81.96106%);stop-opacity:1;"/>
<stop offset="0.609375" style="stop-color:rgb(0%,54.118347%,81.96106%);stop-opacity:1;"/>
<stop offset="0.613281" style="stop-color:rgb(0%,53.726196%,81.568909%);stop-opacity:1;"/>
<stop offset="0.617187" style="stop-color:rgb(0%,53.334045%,81.568909%);stop-opacity:1;"/>
<stop offset="0.621094" style="stop-color:rgb(0%,52.941895%,81.176758%);stop-opacity:1;"/>
<stop offset="0.625" style="stop-color:rgb(0%,52.941895%,81.176758%);stop-opacity:1;"/>
<stop offset="0.628906" style="stop-color:rgb(0%,52.549744%,80.784607%);stop-opacity:1;"/>
<stop offset="0.632812" style="stop-color:rgb(0%,52.549744%,80.784607%);stop-opacity:1;"/>
<stop offset="0.636719" style="stop-color:rgb(0%,52.157593%,80.392456%);stop-opacity:1;"/>
<stop offset="0.640625" style="stop-color:rgb(0%,52.157593%,80.392456%);stop-opacity:1;"/>
<stop offset="0.644531" style="stop-color:rgb(0%,51.765442%,80.000305%);stop-opacity:1;"/>
<stop offset="0.648437" style="stop-color:rgb(0%,51.765442%,80.000305%);stop-opacity:1;"/>
<stop offset="0.652344" style="stop-color:rgb(0%,51.373291%,79.608154%);stop-opacity:1;"/>
<stop offset="0.65625" style="stop-color:rgb(0%,50.98114%,79.608154%);stop-opacity:1;"/>
<stop offset="0.660156" style="stop-color:rgb(0%,50.588989%,79.216003%);stop-opacity:1;"/>
<stop offset="0.664062" style="stop-color:rgb(0%,50.588989%,79.216003%);stop-opacity:1;"/>
<stop offset="0.667969" style="stop-color:rgb(0%,50.196838%,78.823853%);stop-opacity:1;"/>
<stop offset="0.671875" style="stop-color:rgb(0%,50.196838%,78.823853%);stop-opacity:1;"/>
<stop offset="0.675781" style="stop-color:rgb(0%,49.803162%,78.431702%);stop-opacity:1;"/>
<stop offset="0.679687" style="stop-color:rgb(0%,49.803162%,78.431702%);stop-opacity:1;"/>
<stop offset="0.683594" style="stop-color:rgb(0%,49.411011%,78.431702%);stop-opacity:1;"/>
<stop offset="0.6875" style="stop-color:rgb(0%,49.411011%,78.039551%);stop-opacity:1;"/>
<stop offset="0.691406" style="stop-color:rgb(0%,49.01886%,78.039551%);stop-opacity:1;"/>
<stop offset="0.695312" style="stop-color:rgb(0%,48.626709%,78.039551%);stop-opacity:1;"/>
<stop offset="0.699219" style="stop-color:rgb(0%,48.234558%,77.6474%);stop-opacity:1;"/>
<stop offset="0.703125" style="stop-color:rgb(0%,48.234558%,77.6474%);stop-opacity:1;"/>
<stop offset="0.707031" style="stop-color:rgb(0%,47.842407%,77.255249%);stop-opacity:1;"/>
<stop offset="0.710937" style="stop-color:rgb(0%,47.842407%,77.255249%);stop-opacity:1;"/>
<stop offset="0.714844" style="stop-color:rgb(0%,47.450256%,76.863098%);stop-opacity:1;"/>
<stop offset="0.71875" style="stop-color:rgb(0%,47.450256%,76.863098%);stop-opacity:1;"/>
<stop offset="0.722656" style="stop-color:rgb(0%,47.058105%,76.470947%);stop-opacity:1;"/>
<stop offset="0.726562" style="stop-color:rgb(0%,47.058105%,76.470947%);stop-opacity:1;"/>
<stop offset="0.730469" style="stop-color:rgb(0%,46.665955%,76.078796%);stop-opacity:1;"/>
<stop offset="0.734375" style="stop-color:rgb(0%,46.273804%,76.078796%);stop-opacity:1;"/>
<stop offset="0.738281" style="stop-color:rgb(0%,46.273804%,75.686646%);stop-opacity:1;"/>
<stop offset="0.742187" style="stop-color:rgb(0%,45.881653%,75.686646%);stop-opacity:1;"/>
<stop offset="0.746094" style="stop-color:rgb(0%,45.489502%,75.294495%);stop-opacity:1;"/>
<stop offset="0.75" style="stop-color:rgb(0%,45.489502%,75.294495%);stop-opacity:1;"/>
<stop offset="0.753906" style="stop-color:rgb(0%,45.097351%,74.902344%);stop-opacity:1;"/>
<stop offset="0.757812" style="stop-color:rgb(0%,45.097351%,74.902344%);stop-opacity:1;"/>
<stop offset="0.761719" style="stop-color:rgb(0%,44.7052%,74.510193%);stop-opacity:1;"/>
<stop offset="0.765625" style="stop-color:rgb(0%,44.7052%,74.510193%);stop-opacity:1;"/>
<stop offset="0.769531" style="stop-color:rgb(0%,44.313049%,74.118042%);stop-opacity:1;"/>
<stop offset="0.773438" style="stop-color:rgb(0%,44.313049%,74.118042%);stop-opacity:1;"/>
<stop offset="0.777344" style="stop-color:rgb(0%,43.920898%,73.725891%);stop-opacity:1;"/>
<stop offset="0.78125" style="stop-color:rgb(0%,43.528748%,73.725891%);stop-opacity:1;"/>
<stop offset="0.785156" style="stop-color:rgb(0%,43.136597%,73.33374%);stop-opacity:1;"/>
<stop offset="0.789062" style="stop-color:rgb(0%,43.136597%,73.33374%);stop-opacity:1;"/>
<stop offset="0.792969" style="stop-color:rgb(0%,42.744446%,72.941589%);stop-opacity:1;"/>
<stop offset="0.796875" style="stop-color:rgb(0%,42.744446%,72.941589%);stop-opacity:1;"/>
<stop offset="0.800781" style="stop-color:rgb(0%,42.352295%,72.549438%);stop-opacity:1;"/>
<stop offset="0.804688" style="stop-color:rgb(0%,42.352295%,72.549438%);stop-opacity:1;"/>
<stop offset="0.808594" style="stop-color:rgb(0%,41.960144%,72.157288%);stop-opacity:1;"/>
<stop offset="0.8125" style="stop-color:rgb(0%,41.960144%,72.157288%);stop-opacity:1;"/>
<stop offset="0.816406" style="stop-color:rgb(0%,41.567993%,72.157288%);stop-opacity:1;"/>
<stop offset="0.820312" style="stop-color:rgb(0%,41.175842%,72.157288%);stop-opacity:1;"/>
<stop offset="0.824219" style="stop-color:rgb(0%,40.783691%,71.765137%);stop-opacity:1;"/>
<stop offset="0.828125" style="stop-color:rgb(0%,40.783691%,71.765137%);stop-opacity:1;"/>
<stop offset="0.832031" style="stop-color:rgb(0%,40.391541%,71.372986%);stop-opacity:1;"/>
<stop offset="0.835938" style="stop-color:rgb(0%,40.391541%,71.372986%);stop-opacity:1;"/>
<stop offset="0.839844" style="stop-color:rgb(0%,39.99939%,70.980835%);stop-opacity:1;"/>
<stop offset="0.84375" style="stop-color:rgb(0%,39.99939%,70.980835%);stop-opacity:1;"/>
<stop offset="0.847656" style="stop-color:rgb(0%,39.607239%,70.588684%);stop-opacity:1;"/>
<stop offset="0.851562" style="stop-color:rgb(0%,39.607239%,70.588684%);stop-opacity:1;"/>
<stop offset="0.855469" style="stop-color:rgb(0%,39.215088%,70.196533%);stop-opacity:1;"/>
<stop offset="0.859375" style="stop-color:rgb(0%,38.822937%,70.196533%);stop-opacity:1;"/>
<stop offset="0.863281" style="stop-color:rgb(0%,38.430786%,69.804382%);stop-opacity:1;"/>
<stop offset="0.867188" style="stop-color:rgb(0%,38.430786%,69.804382%);stop-opacity:1;"/>
<stop offset="0.871094" style="stop-color:rgb(0%,38.038635%,69.412231%);stop-opacity:1;"/>
<stop offset="0.875" style="stop-color:rgb(0%,38.038635%,69.412231%);stop-opacity:1;"/>
<stop offset="0.878906" style="stop-color:rgb(0%,37.646484%,69.020081%);stop-opacity:1;"/>
<stop offset="0.882812" style="stop-color:rgb(0%,37.646484%,69.020081%);stop-opacity:1;"/>
<stop offset="0.886719" style="stop-color:rgb(0%,37.254333%,68.62793%);stop-opacity:1;"/>
<stop offset="0.890625" style="stop-color:rgb(0%,37.254333%,68.62793%);stop-opacity:1;"/>
<stop offset="0.894531" style="stop-color:rgb(0%,36.862183%,68.235779%);stop-opacity:1;"/>
<stop offset="0.898438" style="stop-color:rgb(0%,36.862183%,68.235779%);stop-opacity:1;"/>
<stop offset="0.902344" style="stop-color:rgb(0%,36.470032%,67.843628%);stop-opacity:1;"/>
<stop offset="0.90625" style="stop-color:rgb(0%,36.077881%,67.843628%);stop-opacity:1;"/>
<stop offset="0.910156" style="stop-color:rgb(0%,35.68573%,67.451477%);stop-opacity:1;"/>
<stop offset="0.914062" style="stop-color:rgb(0%,35.68573%,67.451477%);stop-opacity:1;"/>
<stop offset="0.917969" style="stop-color:rgb(0%,35.293579%,67.059326%);stop-opacity:1;"/>
<stop offset="0.921875" style="stop-color:rgb(0%,35.293579%,67.059326%);stop-opacity:1;"/>
<stop offset="0.925781" style="stop-color:rgb(0%,34.901428%,66.667175%);stop-opacity:1;"/>
<stop offset="0.929688" style="stop-color:rgb(0%,34.901428%,66.667175%);stop-opacity:1;"/>
<stop offset="0.933594" style="stop-color:rgb(0%,34.509277%,66.667175%);stop-opacity:1;"/>
<stop offset="0.9375" style="stop-color:rgb(0%,34.117126%,66.275024%);stop-opacity:1;"/>
<stop offset="0.941406" style="stop-color:rgb(0%,34.117126%,66.275024%);stop-opacity:1;"/>
<stop offset="0.945312" style="stop-color:rgb(0%,33.724976%,66.275024%);stop-opacity:1;"/>
<stop offset="0.949219" style="stop-color:rgb(0%,33.332825%,65.882874%);stop-opacity:1;"/>
<stop offset="0.953125" style="stop-color:rgb(0%,33.332825%,65.882874%);stop-opacity:1;"/>
<stop offset="0.957031" style="stop-color:rgb(0%,32.940674%,65.490723%);stop-opacity:1;"/>
<stop offset="0.960938" style="stop-color:rgb(0%,32.940674%,65.490723%);stop-opacity:1;"/>
<stop offset="0.964844" style="stop-color:rgb(0%,32.548523%,65.098572%);stop-opacity:1;"/>
<stop offset="0.96875" style="stop-color:rgb(0%,32.548523%,65.098572%);stop-opacity:1;"/>
<stop offset="0.972656" style="stop-color:rgb(0%,32.156372%,64.706421%);stop-opacity:1;"/>
<stop offset="0.976562" style="stop-color:rgb(0%,32.156372%,64.706421%);stop-opacity:1;"/>
<stop offset="0.980469" style="stop-color:rgb(0%,31.764221%,64.31427%);stop-opacity:1;"/>
<stop offset="0.984375" style="stop-color:rgb(0%,31.37207%,64.31427%);stop-opacity:1;"/>
<stop offset="0.988281" style="stop-color:rgb(0%,30.979919%,63.922119%);stop-opacity:1;"/>
<stop offset="0.992188" style="stop-color:rgb(0%,30.979919%,63.922119%);stop-opacity:1;"/>
<stop offset="0.996094" style="stop-color:rgb(0%,30.587769%,63.529968%);stop-opacity:1;"/>
<stop offset="1" style="stop-color:rgb(0%,30.587769%,63.529968%);stop-opacity:1;"/>
</linearGradient>
</defs>
<g id="surface1">
<g clip-path="url(#clip1)" clip-rule="evenodd">
<rect x="0" y="0" width="32" height="32" style="fill:rgb(100%,100%,100%);fill-opacity:1;stroke:none;"/>
</g>
<g clip-path="url(#clip2)" clip-rule="nonzero">
<g clip-path="url(#clip3)" clip-rule="nonzero">
<path style=" stroke:none;fill-rule:nonzero;fill:url(#linear0);" d="M 3 7 L 3 25.753906 L 30.769531 25.753906 L 30.769531 7 Z M 3 7 "/>
</g>
</g>
</g>
</svg>
