<?xml version="1.0" encoding="UTF-8"?>
<svg xmlns="http://www.w3.org/2000/svg" xmlns:xlink="http://www.w3.org/1999/xlink" width="24pt" height="24pt" viewBox="0 0 24 24" version="1.1">
<defs>
<clipPath id="clip1">
  <path d="M 2 2 L 22 2 L 22 22 L 2 22 Z M 2 2 "/>
</clipPath>
<clipPath id="clip2">
  <path d="M 12 2 C 14.753906 2 17.109375 2.976562 19.066406 4.933594 C 21.023438 6.890625 22 9.246094 22 12 C 22 14.753906 21.023438 17.109375 19.066406 19.066406 C 17.109375 21.023438 14.753906 22 12 22 C 9.246094 22 6.890625 21.023438 4.933594 19.066406 C 2.976562 17.109375 2 14.753906 2 12 C 2 9.246094 2.976562 6.890625 4.933594 4.933594 C 6.890625 2.976562 9.246094 2 12 2 Z M 12 3.972656 C 9.808594 3.972656 7.921875 4.761719 6.34375 6.34375 C 4.761719 7.921875 3.972656 9.808594 3.972656 12 C 3.972656 14.191406 4.761719 16.078125 6.34375 17.65625 C 7.921875 19.238281 9.808594 20.027344 12 20.027344 C 14.191406 20.027344 16.078125 19.238281 17.65625 17.65625 C 19.238281 16.078125 20.027344 14.191406 20.027344 12 C 20.027344 9.808594 19.238281 7.921875 17.65625 6.34375 C 16.078125 4.761719 14.191406 3.972656 12 3.972656 Z M 12 3.972656 "/>
</clipPath>
<clipPath id="clip3">
  <path d="M 6 6 L 18 6 L 18 18 L 6 18 Z M 6 6 "/>
</clipPath>
<clipPath id="clip4">
  <path d="M 12 6.976562 C 13.378906 6.976562 14.558594 7.46875 15.542969 8.457031 C 16.53125 9.441406 17.023438 10.621094 17.023438 12 C 17.023438 13.378906 16.53125 14.558594 15.542969 15.542969 C 14.558594 16.53125 13.378906 17.023438 12 17.023438 C 10.621094 17.023438 9.441406 16.53125 8.457031 15.542969 C 7.46875 14.558594 6.976562 13.378906 6.976562 12 C 6.976562 10.621094 7.46875 9.441406 8.457031 8.457031 C 9.441406 7.46875 10.621094 6.976562 12 6.976562 Z M 12 6.976562 "/>
</clipPath>
</defs>
<g id="surface1">
<g clip-path="url(#clip1)" clip-rule="nonzero">
<g clip-path="url(#clip2)" clip-rule="evenodd">
<rect x="0" y="0" width="24" height="24" style="fill:rgb(60.784912%,60.784912%,60.784912%);fill-opacity:1;stroke:none;"/>
</g>
</g>
<g clip-path="url(#clip3)" clip-rule="nonzero">
<g clip-path="url(#clip4)" clip-rule="evenodd">
<path style=" stroke:none;fill-rule:nonzero;fill:rgb(100%,83.529663%,0%);fill-opacity:1;" d="M 1.976562 1.976562 L 22.023438 1.976562 L 22.023438 22.023438 L 1.976562 22.023438 Z M 1.976562 1.976562 "/>
</g>
</g>
</g>
</svg>
