<?xml version="1.0" encoding="UTF-8"?>
<svg xmlns="http://www.w3.org/2000/svg" xmlns:xlink="http://www.w3.org/1999/xlink" width="32pt" height="32pt" viewBox="0 0 32 32" version="1.1">
<defs>
<clipPath id="clip1">
  <path d="M 16 32 C 24.835938 32 32 24.835938 32 16 C 32 7.164062 24.835938 0 16 0 C 7.164062 0 0 7.164062 0 16 C 0 24.835938 7.164062 32 16 32 Z M 16 32 "/>
</clipPath>
<clipPath id="clip2">
  <path d="M 5 4 L 28 4 L 28 20 L 5 20 Z M 5 4 "/>
</clipPath>
<clipPath id="clip3">
  <path d="M 16.257812 11.027344 C 14.996094 11.027344 13.734375 11.027344 12.46875 11.027344 C 12.050781 11.027344 12.046875 11.03125 12.046875 11.441406 C 12.046875 13.976562 12.046875 16.511719 12.046875 19.046875 C 12.046875 19.492188 12.039062 19.507812 11.605469 19.421875 C 10.925781 19.285156 10.265625 19.074219 9.664062 18.722656 C 9.097656 18.394531 8.488281 18.117188 7.988281 17.707031 C 7.347656 17.183594 6.730469 16.601562 6.226562 15.953125 C 5.617188 15.164062 5.242188 14.234375 5.058594 13.238281 C 4.902344 12.421875 5.074219 11.660156 5.429688 10.921875 C 5.886719 9.976562 6.554688 9.183594 7.292969 8.460938 C 8.261719 7.507812 9.261719 6.585938 10.265625 5.671875 C 10.949219 5.050781 11.71875 4.539062 12.597656 4.230469 C 13.789062 3.8125 14.914062 3.984375 15.945312 4.707031 C 16.183594 4.871094 16.363281 4.867188 16.605469 4.699219 C 18.046875 3.703125 19.515625 3.828125 20.941406 4.71875 C 21.605469 5.132812 22.234375 5.625 22.8125 6.152344 C 23.8125 7.058594 24.78125 8.003906 25.722656 8.96875 C 26.339844 9.601562 26.851562 10.324219 27.214844 11.148438 C 27.632812 12.097656 27.636719 13.054688 27.289062 14.015625 C 27.164062 14.359375 26.964844 14.675781 26.835938 15.015625 C 26.40625 16.148438 25.535156 16.898438 24.632812 17.621094 C 23.53125 18.5 22.308594 19.140625 20.921875 19.4375 C 20.550781 19.515625 20.507812 19.472656 20.507812 19.097656 C 20.507812 16.535156 20.507812 13.976562 20.507812 11.414062 C 20.507812 11.039062 20.492188 11.027344 20.125 11.027344 C 18.835938 11.027344 17.546875 11.027344 16.257812 11.027344 Z M 16.257812 11.027344 "/>
</clipPath>
<clipPath id="clip4">
  <path d="M 5 12 L 28 12 L 28 28 L 5 28 Z M 5 12 "/>
</clipPath>
<clipPath id="clip5">
  <path d="M 16.265625 20.929688 C 15.003906 20.929688 13.742188 20.929688 12.476562 20.929688 C 12.058594 20.929688 12.054688 20.925781 12.054688 20.515625 C 12.054688 17.980469 12.054688 15.445312 12.054688 12.910156 C 12.054688 12.464844 12.046875 12.449219 11.613281 12.535156 C 10.933594 12.667969 10.273438 12.878906 9.671875 13.230469 C 9.105469 13.558594 8.496094 13.839844 7.996094 14.25 C 7.355469 14.773438 6.738281 15.355469 6.234375 16.003906 C 5.625 16.792969 5.25 17.722656 5.066406 18.714844 C 4.910156 19.535156 5.082031 20.296875 5.4375 21.035156 C 5.898438 21.980469 6.5625 22.773438 7.300781 23.496094 C 8.269531 24.445312 9.269531 25.367188 10.273438 26.28125 C 10.957031 26.90625 11.726562 27.414062 12.605469 27.726562 C 13.800781 28.144531 14.921875 27.96875 15.953125 27.25 C 16.191406 27.085938 16.371094 27.089844 16.613281 27.257812 C 18.054688 28.253906 19.523438 28.128906 20.949219 27.238281 C 21.613281 26.824219 22.242188 26.332031 22.824219 25.804688 C 23.820312 24.898438 24.789062 23.953125 25.730469 22.988281 C 26.347656 22.355469 26.859375 21.632812 27.222656 20.808594 C 27.640625 19.855469 27.644531 18.902344 27.296875 17.941406 C 27.175781 17.597656 26.972656 17.28125 26.84375 16.9375 C 26.417969 15.808594 25.546875 15.054688 24.640625 14.335938 C 23.542969 13.457031 22.316406 12.816406 20.929688 12.519531 C 20.558594 12.441406 20.515625 12.484375 20.515625 12.859375 C 20.515625 15.417969 20.515625 17.980469 20.515625 20.542969 C 20.515625 20.917969 20.503906 20.929688 20.136719 20.929688 C 18.847656 20.929688 17.554688 20.929688 16.265625 20.929688 Z M 16.265625 20.929688 "/>
</clipPath>
<clipPath id="clip6">
  <path d="M 12 20 L 21 20 L 21 28 L 12 28 Z M 12 20 "/>
</clipPath>
<clipPath id="clip7">
  <path d="M 16.253906 20.9375 C 17.535156 20.9375 18.816406 20.9375 20.09375 20.9375 C 20.476562 20.9375 20.53125 20.988281 20.425781 21.347656 C 20.160156 22.265625 19.863281 23.175781 19.304688 23.964844 C 18.925781 24.503906 18.523438 25.03125 18.117188 25.550781 C 18.003906 25.695312 17.820312 25.789062 17.683594 25.917969 C 17.515625 26.078125 17.378906 26.269531 17.203125 26.417969 C 16.972656 26.613281 16.726562 26.804688 16.464844 26.960938 C 16.363281 27.019531 16.164062 27.035156 16.078125 26.976562 C 15.410156 26.523438 14.785156 26.011719 14.257812 25.402344 C 13.929688 25.027344 13.628906 24.621094 13.359375 24.199219 C 12.871094 23.429688 12.429688 22.636719 12.230469 21.734375 C 12.183594 21.539062 12.125 21.347656 12.074219 21.152344 C 12.039062 21.003906 12.109375 20.941406 12.253906 20.941406 C 12.472656 20.945312 12.695312 20.941406 12.914062 20.941406 C 14.027344 20.941406 15.140625 20.941406 16.253906 20.941406 Z M 16.253906 20.9375 "/>
</clipPath>
<clipPath id="clip8">
  <path d="M 12 5 L 21 5 L 21 12 L 12 12 Z M 12 5 "/>
</clipPath>
<clipPath id="clip9">
  <path d="M 16.292969 11.09375 C 15.011719 11.09375 13.734375 11.09375 12.453125 11.097656 C 12.074219 11.097656 12.015625 11.046875 12.121094 10.683594 C 12.390625 9.769531 12.683594 8.859375 13.242188 8.070312 C 13.625 7.53125 14.023438 7.003906 14.429688 6.484375 C 14.546875 6.339844 14.726562 6.246094 14.867188 6.117188 C 15.03125 5.957031 15.167969 5.765625 15.34375 5.617188 C 15.578125 5.417969 15.824219 5.230469 16.085938 5.074219 C 16.183594 5.015625 16.382812 5 16.472656 5.058594 C 17.140625 5.511719 17.761719 6.023438 18.289062 6.632812 C 18.617188 7.007812 18.921875 7.414062 19.1875 7.835938 C 19.675781 8.605469 20.121094 9.398438 20.320312 10.300781 C 20.363281 10.496094 20.421875 10.6875 20.472656 10.882812 C 20.511719 11.03125 20.4375 11.09375 20.292969 11.09375 C 20.074219 11.089844 19.855469 11.09375 19.636719 11.09375 C 18.523438 11.09375 17.40625 11.09375 16.292969 11.09375 Z M 16.292969 11.09375 "/>
</clipPath>
<clipPath id="clip10">
  <path d="M 20 11 L 27 11 L 27 21 L 20 21 Z M 20 11 "/>
</clipPath>
<clipPath id="clip11">
  <path d="M 20.472656 16.03125 C 20.472656 14.753906 20.472656 13.472656 20.472656 12.191406 C 20.472656 11.8125 20.523438 11.753906 20.886719 11.859375 C 21.800781 12.128906 22.710938 12.421875 23.5 12.980469 C 24.039062 13.363281 24.566406 13.761719 25.085938 14.167969 C 25.230469 14.285156 25.324219 14.46875 25.453125 14.605469 C 25.613281 14.769531 25.804688 14.910156 25.953125 15.082031 C 26.152344 15.316406 26.339844 15.5625 26.496094 15.824219 C 26.554688 15.925781 26.570312 16.121094 26.511719 16.210938 C 26.058594 16.878906 25.546875 17.5 24.9375 18.03125 C 24.5625 18.359375 24.15625 18.660156 23.734375 18.929688 C 22.964844 19.417969 22.171875 19.859375 21.269531 20.058594 C 21.074219 20.101562 20.882812 20.164062 20.6875 20.210938 C 20.539062 20.25 20.476562 20.179688 20.476562 20.03125 C 20.480469 19.8125 20.476562 19.59375 20.476562 19.375 C 20.476562 18.261719 20.476562 17.148438 20.476562 16.03125 Z M 20.472656 16.03125 "/>
</clipPath>
<clipPath id="clip12">
  <path d="M 6 11 L 13 11 L 13 21 L 6 21 Z M 6 11 "/>
</clipPath>
<clipPath id="clip13">
  <path d="M 12.074219 16 C 12.074219 17.28125 12.074219 18.5625 12.074219 19.84375 C 12.074219 20.222656 12.023438 20.28125 11.664062 20.175781 C 10.746094 19.90625 9.835938 19.609375 9.046875 19.050781 C 8.507812 18.671875 7.980469 18.273438 7.460938 17.863281 C 7.316406 17.75 7.226562 17.566406 7.09375 17.429688 C 6.933594 17.265625 6.742188 17.125 6.59375 16.949219 C 6.398438 16.71875 6.210938 16.472656 6.054688 16.210938 C 5.992188 16.109375 5.976562 15.914062 6.039062 15.824219 C 6.488281 15.15625 7 14.535156 7.609375 14.003906 C 7.988281 13.675781 8.394531 13.375 8.816406 13.105469 C 9.582031 12.617188 10.375 12.175781 11.277344 11.976562 C 11.472656 11.933594 11.667969 11.871094 11.859375 11.824219 C 12.011719 11.785156 12.070312 11.855469 12.070312 12.003906 C 12.070312 12.222656 12.070312 12.441406 12.070312 12.660156 C 12.070312 13.773438 12.070312 14.886719 12.070312 16 Z M 12.074219 16 "/>
</clipPath>
</defs>
<g id="surface1">
<g clip-path="url(#clip1)" clip-rule="evenodd">
<rect x="0" y="0" width="32" height="32" style="fill:rgb(100%,100%,100%);fill-opacity:1;stroke:none;"/>
</g>
<g clip-path="url(#clip2)" clip-rule="nonzero">
<g clip-path="url(#clip3)" clip-rule="nonzero">
<path style=" stroke:none;fill-rule:nonzero;fill:rgb(65.490723%,23.136902%,53.726196%);fill-opacity:1;" d="M 0 -1 L 32.539062 -1 L 32.539062 24.46875 L 0 24.46875 Z M 0 -1 "/>
</g>
</g>
<g clip-path="url(#clip4)" clip-rule="nonzero">
<g clip-path="url(#clip5)" clip-rule="nonzero">
<path style=" stroke:none;fill-rule:nonzero;fill:rgb(25.881958%,55.2948%,84.706116%);fill-opacity:1;" d="M 0.0078125 7.488281 L 32.546875 7.488281 L 32.546875 32.957031 L 0.0078125 32.957031 Z M 0.0078125 7.488281 "/>
</g>
</g>
<g clip-path="url(#clip6)" clip-rule="nonzero">
<g clip-path="url(#clip7)" clip-rule="nonzero">
<path style=" stroke:none;fill-rule:nonzero;fill:rgb(14.901733%,35.68573%,65.098572%);fill-opacity:1;" d="M 7.066406 15.9375 L 25.472656 15.9375 L 25.472656 32.011719 L 7.066406 32.011719 Z M 7.066406 15.9375 "/>
</g>
</g>
<g clip-path="url(#clip8)" clip-rule="nonzero">
<g clip-path="url(#clip9)" clip-rule="nonzero">
<path style=" stroke:none;fill-rule:nonzero;fill:rgb(50.98114%,12.940979%,50.196838%);fill-opacity:1;" d="M 7.074219 0.0234375 L 25.484375 0.0234375 L 25.484375 16.097656 L 7.074219 16.097656 Z M 7.074219 0.0234375 "/>
</g>
</g>
<g clip-path="url(#clip10)" clip-rule="nonzero">
<g clip-path="url(#clip11)" clip-rule="nonzero">
<path style=" stroke:none;fill-rule:nonzero;fill:rgb(9.411621%,16.078186%,52.157593%);fill-opacity:1;" d="M 15.472656 6.8125 L 31.546875 6.8125 L 31.546875 25.222656 L 15.472656 25.222656 Z M 15.472656 6.8125 "/>
</g>
</g>
<g clip-path="url(#clip12)" clip-rule="nonzero">
<g clip-path="url(#clip13)" clip-rule="nonzero">
<path style=" stroke:none;fill-rule:nonzero;fill:rgb(9.411621%,16.078186%,52.157593%);fill-opacity:1;" d="M 1 6.8125 L 17.074219 6.8125 L 17.074219 25.222656 L 1 25.222656 Z M 1 6.8125 "/>
</g>
</g>
</g>
</svg>
