<?xml version="1.0" encoding="UTF-8"?>
<svg xmlns="http://www.w3.org/2000/svg" xmlns:xlink="http://www.w3.org/1999/xlink" width="16pt" height="16pt" viewBox="0 0 16 16" version="1.1">
<defs>
<clipPath id="clip1">
  <path d="M 2 2 L 14 2 L 14 14 L 2 14 Z M 2 2 "/>
</clipPath>
<clipPath id="clip2">
  <path d="M 8 14 C 11.3125 14 14 11.3125 14 8 C 14 4.6875 11.3125 2 8 2 C 4.6875 2 2 4.6875 2 8 C 2 11.3125 4.6875 14 8 14 Z M 8 14 "/>
</clipPath>
<clipPath id="clip3">
  <path d="M 2 2 L 14 2 L 14 14 L 2 14 Z M 2 2 "/>
</clipPath>
<clipPath id="clip4">
  <path d="M 8 2 C 7.175781 2 6.398438 2.15625 5.667969 2.472656 C 4.9375 2.785156 4.300781 3.214844 3.757812 3.757812 C 3.214844 4.300781 2.785156 4.9375 2.472656 5.664062 C 2.15625 6.390625 2 7.167969 2 7.992188 C 2 8.828125 2.15625 9.609375 2.472656 10.335938 C 2.785156 11.0625 3.214844 11.699219 3.757812 12.242188 C 4.300781 12.785156 4.9375 13.214844 5.667969 13.527344 C 6.398438 13.84375 7.175781 14 8 14 C 8.824219 14 9.601562 13.84375 10.332031 13.527344 C 11.0625 13.214844 11.699219 12.785156 12.242188 12.242188 C 12.785156 11.699219 13.214844 11.0625 13.527344 10.335938 C 13.84375 9.609375 14 8.828125 14 7.992188 C 14 7.167969 13.84375 6.390625 13.527344 5.664062 C 13.214844 4.9375 12.785156 4.300781 12.242188 3.757812 C 11.699219 3.214844 11.0625 2.785156 10.332031 2.472656 C 9.601562 2.15625 8.824219 2 8 2 Z M 7.394531 10.398438 L 5.007812 7.992188 L 5.851562 7.148438 L 7.410156 8.710938 L 10.164062 5.9375 L 10.992188 6.796875 Z M 7.394531 10.398438 "/>
</clipPath>
</defs>
<g id="surface1">
<g clip-path="url(#clip1)" clip-rule="nonzero">
<g clip-path="url(#clip2)" clip-rule="evenodd">
<rect x="0" y="0" width="16" height="16" style="fill:rgb(100%,100%,100%);fill-opacity:1;stroke:none;"/>
</g>
</g>
<g clip-path="url(#clip3)" clip-rule="nonzero">
<g clip-path="url(#clip4)" clip-rule="evenodd">
<rect x="0" y="0" width="16" height="16" style="fill:rgb(6.666565%,40.391541%,22.3526%);fill-opacity:1;stroke:none;"/>
</g>
</g>
</g>
</svg>
