<?xml version="1.0" encoding="UTF-8"?>
<svg xmlns="http://www.w3.org/2000/svg" xmlns:xlink="http://www.w3.org/1999/xlink" width="32pt" height="32pt" viewBox="0 0 32 32" version="1.1">
<defs>
<clipPath id="clip1">
  <path d="M 16 32 C 24.835938 32 32 24.835938 32 16 C 32 7.164062 24.835938 0 16 0 C 7.164062 0 0 7.164062 0 16 C 0 24.835938 7.164062 32 16 32 Z M 16 32 "/>
</clipPath>
<clipPath id="clip2">
  <path d="M 4 4 L 28 4 L 28 28 L 4 28 Z M 4 4 "/>
</clipPath>
<clipPath id="clip3">
  <path d="M 15.707031 9.941406 C 13.632812 12.933594 11.734375 15.675781 9.667969 18.664062 C 10.335938 18.664062 10.710938 18.628906 11.078125 18.671875 C 12.703125 18.855469 14.390625 18.839844 15.929688 19.308594 C 18.917969 20.222656 21.65625 20.332031 24.277344 18.300781 C 25.261719 17.539062 26.496094 17.105469 27.820312 16.414062 C 27.519531 19.578125 26.308594 22.035156 24.246094 24.054688 C 19.40625 28.800781 11.347656 28.429688 6.871094 23.304688 C 2.472656 18.269531 3.210938 10.695312 8.511719 6.53125 C 13.8125 2.359375 21.738281 3.472656 25.644531 8.925781 C 26.765625 10.488281 27.445312 12.121094 26.746094 14.078125 C 25.652344 17.121094 22.152344 17.78125 20.066406 15.292969 C 19.359375 14.449219 18.824219 13.464844 18.132812 12.609375 C 17.457031 11.765625 16.683594 11.003906 15.707031 9.941406 "/>
</clipPath>
</defs>
<g id="surface1">
<g clip-path="url(#clip1)" clip-rule="evenodd">
<rect x="0" y="0" width="32" height="32" style="fill:rgb(100%,100%,100%);fill-opacity:1;stroke:none;"/>
</g>
<g clip-path="url(#clip2)" clip-rule="nonzero">
<g clip-path="url(#clip3)" clip-rule="nonzero">
<rect x="0" y="0" width="32" height="32" style="fill:rgb(99.215698%,0%,0%);fill-opacity:1;stroke:none;"/>
</g>
</g>
</g>
</svg>
