<svg width="32" height="32" viewBox="0 0 32 32" fill="none" xmlns="http://www.w3.org/2000/svg">
<path d="M16 32C24.8366 32 32 24.8366 32 16C32 7.16344 24.8366 0 16 0C7.16344 0 0 7.16344 0 16C0 24.8366 7.16344 32 16 32Z" fill="white"/>
<path d="M19.8043 19.209C19.8043 19.6086 19.4803 19.932 19.0813 19.932H16.4556V26.8043H24.5076C25.7045 26.8043 26.6761 25.8322 26.6761 24.6353V16.5839H19.8043V19.209Z" fill="#D82F32"/>
<path d="M19.0813 12.1387C19.4803 12.1387 19.8043 12.4628 19.8043 12.8623V15.4886H26.6761V7.43545C26.6761 6.23854 25.7045 5.26697 24.5076 5.26697H16.4556V12.1387H19.0813Z" fill="#D82F32"/>
<path d="M12.0109 12.8623C12.0109 12.4628 12.3349 12.1387 12.7345 12.1387H15.3596V5.26697H7.30824C6.11013 5.26697 5.13916 6.23854 5.13916 7.43545V15.4886H12.0109V12.8623Z" fill="#D82F32"/>
<path d="M12.7345 19.932C12.3349 19.932 12.0109 19.6086 12.0109 19.209V16.5839H5.13916V24.6353C5.13916 25.8322 6.11013 26.8043 7.30824 26.8043H15.3596V19.932H12.7345Z" fill="#D82F32"/>
</svg>
