<?xml version="1.0" encoding="UTF-8"?>
<svg xmlns="http://www.w3.org/2000/svg" xmlns:xlink="http://www.w3.org/1999/xlink" width="32pt" height="32pt" viewBox="0 0 32 32" version="1.1">
<defs>
<clipPath id="clip1">
  <path d="M 15.15625 10 L 16.84375 10 L 16.84375 15.15625 L 15.15625 15.15625 Z M 10 15.15625 L 22 15.15625 L 22 16.84375 L 10 16.84375 Z M 15.15625 16.84375 L 16.84375 16.84375 L 16.84375 22 L 15.15625 22 Z M 15.15625 16.84375 "/>
</clipPath>
</defs>
<g id="surface1">
<path style="fill:none;stroke-width:1;stroke-linecap:butt;stroke-linejoin:miter;stroke:rgb(36.077881%,36.077881%,36.077881%);stroke-opacity:1;stroke-dasharray:1,1;stroke-miterlimit:10;" d="M 4 0 L 22 0 C 24.210938 0 26 1.789062 26 4 L 26 22 C 26 24.210938 24.210938 26 22 26 L 4 26 C 1.789062 26 0 24.210938 0 22 L 0 4 C 0 1.789062 1.789062 0 4 0 Z M 4 0 " transform="matrix(1,0,0,1,3,3)"/>
<g clip-path="url(#clip1)" clip-rule="nonzero">
<path style=" stroke:none;fill-rule:nonzero;fill:rgb(36.077881%,36.077881%,36.077881%);fill-opacity:1;" d="M 5 5 L 27 5 L 27 27 L 5 27 Z M 5 5 "/>
</g>
</g>
</svg>
