<?xml version="1.0" encoding="UTF-8"?>
<svg xmlns="http://www.w3.org/2000/svg" xmlns:xlink="http://www.w3.org/1999/xlink" width="32pt" height="32pt" viewBox="0 0 32 32" version="1.1">
<defs>
<clipPath id="clip1">
  <path d="M 5 5 L 27 5 L 27 27 L 5 27 Z M 5 5 "/>
</clipPath>
<clipPath id="clip2">
  <path d="M 16.703125 5 C 18.339844 5.003906 19.511719 6.148438 19.542969 7.789062 C 19.558594 8.648438 19.546875 9.507812 19.542969 10.367188 C 19.542969 10.78125 19.386719 11.117188 18.984375 11.285156 C 18.625 11.433594 18.285156 11.371094 17.996094 11.101562 C 17.769531 10.894531 17.710938 10.617188 17.710938 10.324219 C 17.710938 9.480469 17.714844 8.636719 17.710938 7.792969 C 17.707031 7.203125 17.378906 6.824219 16.792969 6.816406 C 15.425781 6.800781 14.058594 6.8125 12.628906 6.8125 C 12.84375 6.910156 13.011719 6.964844 13.164062 7.054688 C 13.816406 7.441406 14.09375 8.039062 14.09375 8.785156 L 14.09375 22.269531 L 14.347656 22.269531 C 15.117188 22.269531 15.886719 22.273438 16.660156 22.269531 C 17.363281 22.269531 17.710938 21.925781 17.710938 21.226562 C 17.710938 20.09375 17.707031 18.957031 17.710938 17.820312 C 17.714844 17.203125 18.097656 16.808594 18.660156 16.824219 C 19.144531 16.832031 19.53125 17.1875 19.535156 17.714844 C 19.546875 19.027344 19.570312 20.34375 19.496094 21.65625 C 19.425781 22.988281 18.234375 24.054688 16.898438 24.078125 C 16.0625 24.089844 15.226562 24.082031 14.390625 24.082031 L 14.074219 24.082031 C 14.074219 24.441406 14.09375 24.789062 14.070312 25.132812 C 14.007812 26.253906 12.835938 27.113281 11.601562 26.691406 C 10.238281 26.222656 8.867188 25.773438 7.5 25.316406 C 7.054688 25.167969 6.601562 25.035156 6.164062 24.859375 C 5.453125 24.574219 5.070312 24.027344 5.003906 23.261719 L 5 23.164062 L 5 6.933594 C 5 6.011719 5.496094 5.308594 6.347656 5.078125 C 6.628906 5.003906 6.9375 5.003906 7.238281 5.003906 C 10.390625 5 13.546875 5 16.703125 5 Z M 22.890625 9.800781 C 24.097656 11.003906 25.304688 12.203125 26.503906 13.414062 C 26.929688 13.84375 26.921875 14.335938 26.496094 14.765625 C 25.3125 15.957031 24.121094 17.140625 22.933594 18.328125 C 22.652344 18.613281 22.320312 18.71875 21.9375 18.5625 C 21.539062 18.402344 21.355469 18.089844 21.355469 17.667969 L 21.351562 14.988281 L 21.074219 14.988281 C 19.964844 14.988281 18.855469 14.992188 17.742188 14.984375 C 17.023438 14.980469 16.601562 14.285156 16.929688 13.652344 C 17.109375 13.3125 17.421875 13.175781 17.796875 13.175781 L 21.355469 13.175781 C 21.355469 12.269531 21.351562 11.394531 21.355469 10.519531 C 21.355469 9.964844 21.640625 9.628906 22.183594 9.554688 C 22.457031 9.515625 22.699219 9.609375 22.890625 9.800781 Z M 22.890625 9.800781 "/>
</clipPath>
</defs>
<g id="surface1">
<g clip-path="url(#clip1)" clip-rule="nonzero">
<g clip-path="url(#clip2)" clip-rule="evenodd">
<path style=" stroke:none;fill-rule:nonzero;fill:rgb(60.784912%,60.784912%,60.784912%);fill-opacity:1;" d="M 0 0 L 31.820312 0 L 31.820312 31.800781 L 0 31.800781 Z M 0 0 "/>
</g>
</g>
</g>
</svg>
