<svg width="16" height="16" viewBox="0 0 16 16" fill="none" xmlns="http://www.w3.org/2000/svg">
<path fill-rule="evenodd" clip-rule="evenodd" d="M2.37228 4.80619C2.44545 4.84691 2.7239 4.99756 3.20762 5.25814C3.69135 5.51873 4.21166 5.79764 4.76855 6.09487C5.32545 6.3921 5.83559 6.66694 6.29899 6.91938C6.76239 7.17183 7.01442 7.30619 7.05507 7.32248C7.12824 7.36319 7.2136 7.39373 7.31116 7.41409C7.40872 7.43445 7.51034 7.44463 7.61603 7.44463C7.72171 7.44463 7.82334 7.43445 7.92089 7.41409C8.01845 7.39373 8.10382 7.36319 8.17698 7.32248C8.21763 7.30619 8.46966 7.17183 8.93306 6.91938C9.39646 6.66694 9.9066 6.3921 10.4635 6.09487C11.0204 5.79764 11.5407 5.51873 12.0244 5.25814C12.5082 4.99756 12.7866 4.84691 12.8598 4.80619C13.0142 4.72475 13.1301 4.57003 13.2073 4.34202C13.2846 4.11401 13.1809 4 12.8964 4H2.3357C2.05115 4 1.9475 4.11401 2.02473 4.34202C2.10197 4.57003 2.21782 4.72475 2.37228 4.80619ZM13.0061 6.18648C12.9167 6.2272 12.626 6.37581 12.1342 6.63233C11.6423 6.88884 11.1119 7.16572 10.5428 7.46295C9.97367 7.76018 9.45134 8.03298 8.97574 8.28135C8.50014 8.52972 8.23389 8.6702 8.17698 8.70277C8.07129 8.75977 7.9778 8.79438 7.89651 8.8066C7.81521 8.81881 7.72171 8.82492 7.61603 8.82492C7.51034 8.82492 7.41684 8.81881 7.33555 8.8066C7.25425 8.79438 7.16076 8.75977 7.05507 8.70277C6.99816 8.6702 6.73191 8.52972 6.25631 8.28135C5.78071 8.03298 5.26041 7.76018 4.69538 7.46295C4.13036 7.16572 3.60395 6.88884 3.11616 6.63233C2.62837 6.37581 2.33976 6.2272 2.25034 6.18648C2.12839 6.12134 2.05725 6.11319 2.03693 6.16205C2.0166 6.21091 2.00644 6.26384 2.00644 6.32085C2.00644 6.34528 2.00644 6.59772 2.00644 7.07818C2.00644 7.55863 2.00644 8.0798 2.00644 8.64169C2.00644 9.20359 2.00644 9.71661 2.00644 10.1808C2.00644 10.645 2.00644 10.877 2.00644 10.877C2.00644 11.0073 2.07758 11.1437 2.21985 11.2862C2.36212 11.4287 2.49829 11.5 2.62837 11.5H12.6281C12.7581 11.5 12.8943 11.4287 13.0366 11.2862C13.1789 11.1437 13.25 11.0073 13.25 10.877C13.25 10.877 13.25 10.645 13.25 10.1808C13.25 9.71661 13.25 9.20359 13.25 8.64169C13.25 8.0798 13.25 7.55863 13.25 7.07818C13.25 6.59772 13.25 6.34528 13.25 6.32085C13.25 6.26384 13.2398 6.21091 13.2195 6.16205C13.1992 6.11319 13.1281 6.12134 13.0061 6.18648Z" fill="#D90101"/>
</svg>
