<svg width="80" height="80" viewBox="0 0 80 80" fill="none" xmlns="http://www.w3.org/2000/svg">
<g opacity="0.7">
<path fill-rule="evenodd" clip-rule="evenodd" d="M32.4678 28.2479C30.3369 31.7837 28.2115 35.3106 26.0779 38.8374C25.9962 38.8047 25.9452 38.7925 25.8993 38.7815C25.872 38.775 25.8466 38.7689 25.8175 38.7592C24.5173 38.0033 23.2171 37.2435 21.9153 36.4828C19.8529 35.2775 17.7867 34.07 15.7108 32.8724C15.3721 32.664 15.3721 32.4556 15.4503 32.117C16.0754 28.9912 13.132 26.1519 10.0844 26.9594C7.97446 27.5064 6.56786 29.3559 6.67205 31.4397C6.80229 33.6538 8.36518 35.3469 10.6574 35.6335C11.1784 35.6856 11.3607 35.8939 11.4389 36.3628C11.7681 37.5545 12.0973 38.7454 12.4264 39.9358C13.9459 45.4322 15.4623 50.9172 16.9611 56.4199C17.1174 56.993 17.3518 57.1232 17.8988 57.1232C32.616 57.0972 47.3333 57.0972 62.0505 57.1232C62.6496 57.1232 62.858 56.9148 63.0143 56.3678C63.7246 53.78 64.439 51.1962 65.1526 48.6148C66.2708 44.5703 67.3873 40.5317 68.4844 36.4931C68.6407 35.8939 68.8491 35.6595 69.4742 35.5814C71.9748 35.2948 73.668 33.0026 73.2773 30.5801C72.8865 28.0795 70.5682 26.4124 68.1197 26.8552C65.6712 27.298 64.0822 29.6684 64.5772 32.143C64.6553 32.5337 64.5511 32.69 64.2385 32.8724C63.7826 33.1193 63.3404 33.3802 62.892 33.6448C62.7256 33.743 62.5583 33.8416 62.3891 33.9403C60.8683 34.8358 59.3475 35.7234 57.8183 36.616C56.5449 37.3593 55.2656 38.106 53.9756 38.8634C51.835 35.3344 49.7104 31.8053 47.5886 28.2807C45.8891 25.4576 44.1913 22.6373 42.4883 19.8222C44.8326 17.4518 45.0931 15.0294 43.2437 13.0497C41.6548 11.3305 38.9197 11.2003 37.1224 12.7371C36.2367 13.4925 35.7158 14.4823 35.6116 15.6545C35.4553 17.4258 36.1846 18.7542 37.5652 19.7962C35.8581 22.6221 34.1612 25.4378 32.4678 28.2479ZM19.044 69.6785H40.0128H56.6576C57.1603 69.6785 57.6658 69.6814 58.1723 69.6843C59.1881 69.69 60.2079 69.6959 61.216 69.6785C64.3158 69.6003 66.1131 66.5527 64.5502 64C63.7167 62.6454 62.4143 62.2026 60.8774 62.2026H19.0961H18.6533C15.5796 62.385 13.8605 65.4066 15.4233 67.9072C16.2569 69.2096 17.5332 69.6785 19.044 69.6785Z" fill="white"/>
</g>
</svg>
