<?xml version="1.0" encoding="UTF-8"?>
<svg xmlns="http://www.w3.org/2000/svg" xmlns:xlink="http://www.w3.org/1999/xlink" width="265pt" height="370pt" viewBox="0 0 265 370" version="1.1">
<g id="surface1">
<path style=" stroke:none;fill-rule:nonzero;fill:rgb(91.763306%,80.783081%,69.802856%);fill-opacity:1;" d="M 220.242188 217.578125 L 220.910156 212.277344 L 223.179688 212.5 L 223.515625 216.246094 L 224.628906 215.855469 L 223.503906 220.3125 L 221.121094 220.394531 Z M 220.242188 217.578125 "/>
<path style=" stroke:none;fill-rule:nonzero;fill:rgb(34.509277%,6.274414%,8.235168%);fill-opacity:1;" d="M 234.082031 250.644531 C 237.496094 250.949219 241.414062 250.789062 243.675781 248.214844 C 245.519531 246.117188 245.675781 243 245.070312 240.277344 C 245.03125 239.953125 244.875 239.65625 244.632812 239.441406 C 244.363281 239.304688 244.0625 239.261719 243.765625 239.316406 L 234.644531 240.019531 C 232.953125 240.148438 229.527344 241.101562 228.597656 239.769531 C 227.550781 238.269531 227.542969 234.554688 227.1875 232.78125 C 226.253906 228.167969 225.324219 223.550781 224.386719 218.9375 L 219.691406 219.351562 C 219.738281 223.601562 219.785156 227.851562 219.832031 232.101562 C 219.863281 235.136719 219.898438 238.171875 219.929688 241.210938 C 220 249.296875 227.464844 250.050781 234.082031 250.644531 Z M 234.082031 250.644531 "/>
<path style=" stroke:none;fill-rule:nonzero;fill:rgb(34.509277%,6.274414%,8.235168%);fill-opacity:1;" d="M 253.96875 241.492188 C 256.753906 243.613281 257.941406 247.414062 258.632812 250.933594 C 261.472656 265.421875 260.023438 280.371094 258.527344 295.058594 C 258.359375 296.699219 257.964844 297.429688 256.378906 296.703125 C 246.453125 292.285156 236.65625 286.550781 225.789062 285.851562 C 228.5 276.628906 228.800781 266.878906 230.648438 257.445312 C 231.183594 254.707031 231.855469 251.976562 233.019531 249.445312 C 234.546875 246.140625 236.988281 242.574219 239.691406 240.113281 C 242.238281 237.796875 246.28125 238.824219 249.335938 239.597656 C 250.617188 239.863281 251.855469 240.296875 253.027344 240.878906 C 253.351562 241.0625 253.667969 241.269531 253.96875 241.492188 Z M 253.96875 241.492188 "/>
<path style=" stroke:none;fill-rule:nonzero;fill:rgb(39.99939%,39.99939%,39.99939%);fill-opacity:1;" d="M 247.550781 354.6875 L 247.136719 357.464844 L 248.078125 362.746094 L 251.183594 362.453125 L 251.765625 354.628906 L 251.3125 353.378906 Z M 247.550781 354.6875 "/>
<path style=" stroke:none;fill-rule:nonzero;fill:rgb(39.99939%,39.99939%,39.99939%);fill-opacity:1;" d="M 232.957031 363.003906 L 228.097656 366.570312 L 228.703125 369.230469 L 237.605469 367.109375 L 236.878906 363.261719 Z M 232.957031 363.003906 "/>
<path style=" stroke:none;fill-rule:nonzero;fill:rgb(7.450867%,7.450867%,7.450867%);fill-opacity:1;" d="M 231.546875 260.347656 L 233.796875 260.347656 C 233.777344 260.320312 233.777344 260.289062 233.777344 260.253906 C 233.335938 258.460938 233.832031 255.945312 234.011719 254.125 C 234.402344 250.117188 235.269531 246.167969 236.589844 242.363281 C 237.121094 240.824219 237.890625 239.476562 239.492188 238.894531 C 240.863281 238.402344 242.316406 238.179688 243.773438 238.242188 C 242.105469 239.242188 241.199219 241.410156 240.324219 243.148438 C 239.386719 244.996094 238.703125 246.960938 238.289062 248.992188 C 237.925781 251.042969 237.699219 253.113281 237.613281 255.191406 L 237.273438 260.328125 L 246.082031 260.285156 C 245.933594 258.609375 246.304688 256.578125 246.453125 255.042969 C 246.839844 251.03125 247.695312 247.078125 249.011719 243.265625 C 249.367188 242.238281 249.796875 241.171875 250.65625 240.511719 C 251.902344 239.621094 253.617188 239.785156 254.667969 240.898438 C 252.71875 243.582031 251.367188 246.648438 250.707031 249.898438 C 250.339844 251.945312 250.113281 254.015625 250.027344 256.09375 L 249.753906 260.25 L 252.335938 260.25 L 255.308594 289.667969 L 257.9375 296.992188 L 254.832031 326.796875 L 253.179688 354.054688 L 247.136719 354.757812 L 240.191406 319.859375 L 239.585938 311.355469 L 237.902344 324.027344 L 238.320312 363.820312 L 231.683594 363.820312 L 223.539062 329.515625 L 223.378906 292.960938 L 224.230469 289.671875 Z M 231.546875 260.347656 "/>
<path style=" stroke:none;fill-rule:nonzero;fill:rgb(30.979919%,30.979919%,30.979919%);fill-opacity:1;" d="M 231.546875 260.347656 L 231.546875 259.847656 L 231.15625 259.847656 L 231.058594 260.226562 Z M 233.796875 260.347656 L 233.796875 260.847656 L 234.730469 260.847656 L 234.214844 260.070312 Z M 233.777344 260.253906 L 234.277344 260.253906 L 234.277344 260.191406 L 234.261719 260.132812 Z M 234.011719 254.125 L 234.507812 254.175781 Z M 236.589844 242.363281 L 237.0625 242.527344 Z M 239.492188 238.894531 L 239.324219 238.425781 Z M 243.773438 238.242188 L 244.03125 238.671875 L 245.46875 237.8125 L 243.796875 237.742188 Z M 240.324219 243.148438 L 240.769531 243.371094 Z M 238.289062 248.992188 L 237.800781 248.894531 L 237.796875 248.90625 Z M 237.613281 255.191406 L 238.113281 255.226562 L 238.113281 255.214844 Z M 237.273438 260.328125 L 236.773438 260.296875 L 236.738281 260.832031 L 237.277344 260.828125 Z M 246.082031 260.285156 L 246.082031 260.785156 L 246.628906 260.78125 L 246.578125 260.238281 Z M 246.453125 255.042969 L 246.953125 255.09375 L 246.953125 255.089844 Z M 249.011719 243.265625 L 248.539062 243.101562 Z M 250.65625 240.511719 L 250.367188 240.105469 L 250.351562 240.113281 Z M 254.667969 240.898438 L 255.074219 241.191406 L 255.316406 240.855469 L 255.03125 240.554688 Z M 250.707031 249.898438 L 250.214844 249.796875 L 250.214844 249.808594 Z M 250.027344 256.09375 L 250.527344 256.128906 L 250.527344 256.113281 Z M 249.753906 260.25 L 249.253906 260.21875 L 249.21875 260.75 L 249.753906 260.75 Z M 252.335938 260.25 L 252.832031 260.199219 L 252.785156 259.75 L 252.335938 259.75 Z M 255.308594 289.667969 L 254.8125 289.714844 L 254.816406 289.777344 L 254.835938 289.835938 Z M 257.9375 296.992188 L 258.433594 297.042969 L 258.445312 296.929688 L 258.410156 296.824219 Z M 254.832031 326.796875 L 254.335938 326.746094 L 254.332031 326.757812 L 254.332031 326.769531 Z M 253.179688 354.054688 L 253.234375 354.550781 L 253.652344 354.503906 L 253.675781 354.085938 Z M 247.136719 354.757812 L 246.644531 354.855469 L 246.734375 355.304688 L 247.191406 355.253906 Z M 240.191406 319.859375 L 239.691406 319.898438 L 239.695312 319.929688 L 239.699219 319.957031 Z M 239.585938 311.355469 L 240.082031 311.320312 L 239.089844 311.289062 Z M 237.902344 324.027344 L 237.40625 323.960938 L 237.402344 323.996094 L 237.402344 324.03125 Z M 238.320312 363.820312 L 238.320312 364.320312 L 238.824219 364.320312 L 238.820312 363.816406 Z M 231.683594 363.820312 L 231.199219 363.9375 L 231.289062 364.320312 L 231.683594 364.320312 Z M 223.539062 329.515625 L 223.039062 329.519531 L 223.039062 329.574219 L 223.050781 329.632812 Z M 223.378906 292.960938 L 222.894531 292.835938 L 222.878906 292.898438 L 222.878906 292.964844 Z M 224.230469 289.671875 L 224.714844 289.796875 L 224.71875 289.792969 Z M 231.546875 260.847656 L 233.796875 260.847656 L 233.796875 259.847656 L 231.546875 259.847656 Z M 234.214844 260.070312 C 234.25 260.125 234.265625 260.179688 234.273438 260.222656 C 234.277344 260.253906 234.277344 260.277344 234.277344 260.253906 L 233.277344 260.253906 C 233.277344 260.273438 233.265625 260.453125 233.382812 260.625 Z M 234.261719 260.132812 C 234.0625 259.320312 234.070312 258.3125 234.160156 257.242188 C 234.203125 256.710938 234.269531 256.179688 234.332031 255.660156 C 234.398438 255.144531 234.464844 254.636719 234.507812 254.175781 L 233.515625 254.078125 C 233.46875 254.523438 233.40625 255.011719 233.339844 255.535156 C 233.277344 256.058594 233.210938 256.605469 233.164062 257.15625 C 233.070312 258.25 233.050781 259.394531 233.292969 260.375 Z M 234.507812 254.175781 C 234.898438 250.207031 235.753906 246.296875 237.0625 242.527344 L 236.117188 242.199219 C 234.785156 246.042969 233.910156 250.03125 233.515625 254.078125 Z M 237.0625 242.527344 C 237.578125 241.027344 238.277344 239.867188 239.664062 239.367188 L 239.324219 238.425781 C 237.503906 239.082031 236.664062 240.617188 236.117188 242.203125 Z M 239.660156 239.367188 C 240.972656 238.894531 242.363281 238.683594 243.753906 238.742188 L 243.796875 237.742188 C 242.273438 237.679688 240.757812 237.910156 239.324219 238.425781 Z M 243.519531 237.8125 C 242.582031 238.371094 241.886719 239.242188 241.324219 240.15625 C 240.765625 241.0625 240.300781 242.078125 239.875 242.921875 L 240.769531 243.371094 C 241.21875 242.480469 241.648438 241.539062 242.175781 240.679688 C 242.703125 239.824219 243.296875 239.109375 244.03125 238.671875 Z M 239.875 242.921875 C 238.921875 244.808594 238.222656 246.820312 237.800781 248.894531 L 238.78125 249.09375 C 239.183594 247.105469 239.851562 245.183594 240.769531 243.371094 Z M 237.796875 248.90625 C 237.429688 250.976562 237.199219 253.070312 237.113281 255.171875 L 238.113281 255.214844 C 238.199219 253.15625 238.421875 251.109375 238.78125 249.082031 Z M 237.113281 255.160156 L 236.773438 260.296875 L 237.773438 260.363281 L 238.113281 255.226562 Z M 237.277344 260.828125 L 246.082031 260.785156 L 246.078125 259.785156 L 237.269531 259.828125 Z M 246.578125 260.238281 C 246.507812 259.453125 246.5625 258.5625 246.652344 257.664062 C 246.699219 257.214844 246.753906 256.769531 246.808594 256.335938 C 246.863281 255.90625 246.914062 255.484375 246.953125 255.09375 L 245.957031 254.996094 C 245.917969 255.371094 245.871094 255.78125 245.816406 256.214844 C 245.761719 256.644531 245.707031 257.101562 245.660156 257.5625 C 245.5625 258.480469 245.503906 259.445312 245.582031 260.328125 Z M 246.953125 255.089844 C 247.332031 251.117188 248.183594 247.203125 249.484375 243.429688 L 248.539062 243.101562 C 247.210938 246.953125 246.34375 250.945312 245.957031 254.996094 Z M 249.484375 243.429688 C 249.84375 242.394531 250.234375 241.46875 250.960938 240.90625 L 250.351562 240.113281 C 249.359375 240.878906 248.890625 242.085938 248.539062 243.101562 Z M 250.949219 240.917969 C 251.992188 240.171875 253.425781 240.3125 254.304688 241.242188 L 255.03125 240.554688 C 253.804688 239.261719 251.816406 239.070312 250.367188 240.105469 Z M 254.265625 240.605469 C 252.273438 243.34375 250.894531 246.480469 250.214844 249.796875 L 251.195312 250 C 251.84375 246.820312 253.167969 243.816406 255.074219 241.191406 Z M 250.214844 249.808594 C 249.84375 251.878906 249.613281 253.972656 249.527344 256.074219 L 250.527344 256.113281 C 250.609375 254.058594 250.835938 252.011719 251.199219 249.988281 Z M 249.527344 256.0625 L 249.253906 260.21875 L 250.253906 260.285156 L 250.527344 256.128906 Z M 249.753906 260.75 L 252.335938 260.75 L 252.335938 259.75 L 249.753906 259.75 Z M 251.835938 260.300781 L 254.8125 289.714844 L 255.804688 289.617188 L 252.832031 260.199219 Z M 254.835938 289.835938 L 257.46875 297.160156 L 258.410156 296.824219 L 255.777344 289.496094 Z M 257.441406 296.941406 L 254.335938 326.746094 L 255.328125 326.851562 L 258.433594 297.042969 Z M 254.332031 326.769531 L 252.679688 354.023438 L 253.675781 354.085938 L 255.332031 326.828125 Z M 253.121094 353.558594 L 247.078125 354.257812 L 247.191406 355.253906 L 253.234375 354.550781 Z M 247.625 354.660156 L 240.679688 319.761719 L 239.699219 319.957031 L 246.644531 354.855469 Z M 240.6875 319.824219 L 240.082031 311.320312 L 239.085938 311.390625 L 239.691406 319.898438 Z M 239.089844 311.289062 L 237.40625 323.960938 L 238.398438 324.09375 L 240.078125 311.417969 Z M 237.402344 324.03125 L 237.820312 363.828125 L 238.820312 363.816406 L 238.402344 324.023438 Z M 238.320312 363.320312 L 231.683594 363.320312 L 231.683594 364.320312 L 238.320312 364.320312 Z M 232.171875 363.707031 L 224.023438 329.398438 L 223.050781 329.632812 L 231.199219 363.9375 Z M 224.039062 329.511719 L 223.878906 292.957031 L 222.878906 292.964844 L 223.039062 329.519531 Z M 223.863281 293.085938 L 224.714844 289.796875 L 223.746094 289.546875 L 222.894531 292.835938 Z M 224.71875 289.792969 L 232.03125 260.46875 L 231.058594 260.226562 L 223.746094 289.550781 Z M 224.71875 289.792969 "/>
<path style=" stroke:none;fill-rule:nonzero;fill:rgb(91.763306%,80.39093%,69.018555%);fill-opacity:1;" d="M 256.277344 229.066406 C 255.652344 223.105469 248.070312 219.449219 244.835938 225.523438 C 243.863281 227.351562 243.085938 229.34375 243.042969 231.414062 C 243 233.480469 243.789062 235.652344 245.4375 236.859375 L 245.46875 236.859375 L 244.921875 238.363281 C 244.871094 238.46875 244.859375 238.589844 244.890625 238.703125 C 244.953125 238.816406 245.0625 238.894531 245.1875 238.925781 L 246.949219 239.605469 C 247.230469 239.734375 247.539062 239.800781 247.847656 239.792969 C 248.527344 239.722656 248.953125 239.007812 249.125 238.335938 C 249.167969 238.175781 249.203125 237.996094 249.230469 237.847656 C 253.070312 237.375 256.675781 232.964844 256.277344 229.066406 Z M 256.277344 229.066406 "/>
<path style=" stroke:none;fill-rule:nonzero;fill:rgb(32.548523%,27.842712%,25.489807%);fill-opacity:1;" d="M 242.5625 223.988281 C 241.835938 222.84375 241.292969 221.488281 240.476562 220.542969 C 239.492188 219.398438 237.8125 218.800781 237.320312 217.371094 C 236.726562 215.628906 237.792969 213.644531 239.402344 212.925781 C 240.390625 212.53125 241.457031 212.378906 242.515625 212.472656 C 243.042969 212.480469 243.566406 212.582031 244.058594 212.765625 C 244.984375 213.160156 245.640625 214.007812 245.792969 215.003906 C 245.890625 215.703125 245.730469 216.449219 246.003906 217.105469 C 246.917969 219.273438 249.507812 219.574219 251.472656 220.082031 C 253.4375 220.589844 255.339844 220.6875 257.070312 222.003906 C 259.753906 224.039062 260.710938 227.941406 259.621094 231.132812 C 258.53125 234.324219 255.621094 236.730469 252.359375 237.589844 C 250.523438 238.070312 252.058594 236.679688 252.519531 236.234375 C 253.46875 235.347656 254.195312 234.253906 254.644531 233.039062 C 255.1875 231.46875 255.019531 229.574219 253.894531 228.347656 C 252.902344 227.265625 251.382812 226.875 249.945312 226.570312 C 249.042969 226.382812 248.050781 226.058594 247.117188 226.070312 C 246.46875 226.070312 245.9375 226.242188 245.273438 226.117188 C 244.011719 225.890625 243.214844 225.019531 242.5625 223.988281 Z M 242.5625 223.988281 "/>
<path style=" stroke:none;fill-rule:nonzero;fill:rgb(7.450867%,7.450867%,7.450867%);fill-opacity:1;" d="M 252.179688 216.839844 C 254.527344 216.796875 257.238281 217.574219 258.875 219.269531 C 260.113281 220.546875 261.371094 221.851562 262.144531 223.457031 C 263.09375 225.433594 263.242188 227.703125 262.558594 229.785156 C 262.46875 230.050781 262.371094 230.304688 262.257812 230.558594 C 263.4375 232.605469 264.160156 234.902344 264.347656 237.289062 C 264.421875 237.878906 264.371094 238.476562 264.207031 239.042969 C 264.035156 239.621094 263.585938 240.074219 263.007812 240.25 C 262.160156 240.464844 261.351562 239.847656 260.734375 239.234375 C 259.585938 238.085938 258.382812 236.730469 257.644531 235.269531 C 257.347656 234.652344 257.3125 233.9375 257.546875 233.292969 C 257.609375 233.050781 257.648438 232.808594 257.664062 232.5625 C 256.566406 230.277344 255.703125 227.9375 254.148438 225.855469 C 253.207031 224.640625 252.175781 223.5 251.0625 222.441406 C 250.324219 221.722656 247.253906 219.664062 247.671875 218.53125 C 248.136719 217.277344 251.085938 216.859375 252.179688 216.839844 Z M 252.179688 216.839844 "/>
<path style=" stroke:none;fill-rule:nonzero;fill:rgb(30.979919%,30.979919%,30.979919%);fill-opacity:1;" d="M 252.179688 216.839844 L 252.1875 217.339844 Z M 258.875 219.269531 L 259.234375 218.921875 Z M 262.144531 223.457031 L 262.597656 223.238281 L 262.59375 223.238281 Z M 262.558594 229.785156 L 263.03125 229.945312 L 263.035156 229.941406 Z M 262.257812 230.558594 L 261.800781 230.351562 L 261.695312 230.585938 L 261.824219 230.808594 Z M 264.347656 237.289062 L 263.847656 237.328125 L 263.847656 237.339844 L 263.851562 237.351562 Z M 264.207031 239.042969 L 264.6875 239.191406 L 264.6875 239.183594 Z M 263.007812 240.25 L 263.132812 240.734375 L 263.15625 240.726562 Z M 260.734375 239.234375 L 260.382812 239.589844 Z M 257.644531 235.269531 L 257.191406 235.488281 L 257.195312 235.496094 Z M 257.546875 233.292969 L 258.019531 233.464844 L 258.027344 233.441406 L 258.03125 233.417969 Z M 257.664062 232.5625 L 258.160156 232.589844 L 258.167969 232.460938 L 258.113281 232.347656 Z M 254.148438 225.855469 L 254.546875 225.558594 L 254.542969 225.550781 Z M 251.0625 222.441406 L 250.714844 222.800781 L 250.71875 222.804688 Z M 247.671875 218.53125 L 248.140625 218.707031 Z M 252.1875 217.339844 C 254.445312 217.296875 257.007812 218.050781 258.515625 219.617188 L 259.234375 218.921875 C 257.472656 217.097656 254.605469 216.292969 252.167969 216.339844 Z M 258.515625 219.617188 C 259.761719 220.90625 260.960938 222.15625 261.695312 223.671875 L 262.59375 223.238281 C 261.777344 221.550781 260.460938 220.191406 259.234375 218.921875 Z M 261.695312 223.671875 C 262.585938 225.535156 262.726562 227.667969 262.082031 229.632812 L 263.035156 229.941406 C 263.753906 227.734375 263.597656 225.335938 262.597656 223.238281 Z M 262.085938 229.628906 C 262 229.875 261.90625 230.117188 261.800781 230.351562 L 262.714844 230.761719 C 262.832031 230.496094 262.9375 230.222656 263.03125 229.945312 Z M 261.824219 230.808594 C 262.96875 232.789062 263.664062 235.015625 263.847656 237.328125 L 264.84375 237.25 C 264.652344 234.789062 263.90625 232.417969 262.691406 230.308594 Z M 263.851562 237.351562 C 263.914062 237.871094 263.875 238.402344 263.726562 238.90625 L 264.6875 239.183594 C 264.871094 238.550781 264.925781 237.882812 264.84375 237.226562 Z M 263.730469 238.898438 C 263.601562 239.316406 263.277344 239.644531 262.859375 239.773438 L 263.15625 240.726562 C 263.890625 240.5 264.464844 239.925781 264.6875 239.191406 Z M 262.886719 239.765625 C 262.621094 239.832031 262.335938 239.777344 262.019531 239.609375 C 261.699219 239.441406 261.382812 239.171875 261.089844 238.878906 L 260.382812 239.589844 C 260.703125 239.910156 261.101562 240.257812 261.550781 240.496094 C 262.003906 240.734375 262.550781 240.882812 263.132812 240.734375 Z M 261.089844 238.878906 C 259.949219 237.742188 258.789062 236.429688 258.089844 235.046875 L 257.195312 235.496094 C 257.972656 237.03125 259.226562 238.429688 260.382812 239.589844 Z M 258.09375 235.054688 C 257.855469 234.558594 257.828125 233.984375 258.019531 233.464844 L 257.078125 233.121094 C 256.796875 233.894531 256.835938 234.746094 257.191406 235.488281 Z M 258.03125 233.417969 C 258.101562 233.144531 258.144531 232.867188 258.160156 232.589844 L 257.164062 232.535156 C 257.152344 232.746094 257.117188 232.957031 257.0625 233.167969 Z M 258.113281 232.347656 C 257.042969 230.113281 256.144531 227.6875 254.546875 225.558594 L 253.746094 226.15625 C 255.265625 228.183594 256.089844 230.4375 257.210938 232.777344 Z M 254.542969 225.550781 C 253.585938 224.316406 252.539062 223.15625 251.410156 222.082031 L 250.71875 222.804688 C 251.8125 223.847656 252.828125 224.96875 253.75 226.164062 Z M 251.414062 222.085938 C 251.207031 221.882812 250.851562 221.597656 250.476562 221.296875 C 250.09375 220.984375 249.664062 220.632812 249.273438 220.273438 C 248.878906 219.910156 248.546875 219.554688 248.339844 219.242188 C 248.113281 218.90625 248.125 218.75 248.140625 218.707031 L 247.203125 218.359375 C 247.011719 218.882812 247.25 219.40625 247.503906 219.796875 C 247.78125 220.210938 248.183594 220.628906 248.59375 221.007812 C 249.011719 221.394531 249.464844 221.761719 249.847656 222.074219 C 250.246094 222.398438 250.550781 222.640625 250.714844 222.800781 Z M 248.140625 218.707031 C 248.203125 218.542969 248.363281 218.359375 248.675781 218.167969 C 248.984375 217.984375 249.382812 217.828125 249.824219 217.703125 C 250.710938 217.453125 251.679688 217.347656 252.1875 217.339844 L 252.167969 216.339844 C 251.585938 216.351562 250.53125 216.464844 249.554688 216.742188 C 249.066406 216.878906 248.570312 217.066406 248.160156 217.3125 C 247.757812 217.558594 247.375 217.894531 247.203125 218.359375 Z M 248.140625 218.707031 "/>
<path style=" stroke:none;fill-rule:nonzero;fill:rgb(7.450867%,7.450867%,7.450867%);fill-opacity:1;" d="M 238.324219 267.609375 L 249.300781 268.574219 L 248 283.429688 C 242.507812 285.121094 237.265625 284.730469 232.300781 282.054688 L 233.28125 267.171875 Z M 238.324219 267.609375 "/>
<path style=" stroke:none;fill-rule:nonzero;fill:rgb(30.979919%,30.979919%,30.979919%);fill-opacity:1;" d="M 238.324219 267.609375 L 238.367188 267.109375 Z M 249.300781 268.574219 L 249.796875 268.617188 L 249.839844 268.121094 L 249.34375 268.074219 Z M 248 283.429688 L 248.144531 283.90625 L 248.46875 283.808594 L 248.496094 283.472656 Z M 232.300781 282.054688 L 231.800781 282.019531 L 231.78125 282.339844 L 232.0625 282.492188 Z M 233.28125 267.171875 L 233.328125 266.671875 L 232.816406 266.628906 L 232.785156 267.136719 Z M 238.28125 268.105469 L 249.253906 269.070312 L 249.34375 268.074219 L 238.367188 267.109375 Z M 248.800781 268.53125 L 247.5 283.382812 L 248.496094 283.472656 L 249.796875 268.617188 Z M 247.851562 282.949219 C 242.480469 284.609375 237.378906 284.222656 232.539062 281.613281 L 232.0625 282.492188 C 237.15625 285.238281 242.535156 285.636719 248.144531 283.90625 Z M 232.800781 282.085938 L 233.78125 267.203125 L 232.785156 267.136719 L 231.800781 282.019531 Z M 233.238281 267.667969 L 238.28125 268.105469 L 238.367188 267.109375 L 233.328125 266.671875 Z M 233.238281 267.667969 "/>
<path style=" stroke:none;fill-rule:nonzero;fill:rgb(76.861572%,0%,9.411621%);fill-opacity:1;" d="M 245.878906 274.730469 L 244.65625 274.628906 C 243.78125 274.550781 243.007812 275.199219 242.933594 276.070312 C 242.855469 276.945312 243.503906 277.71875 244.378906 277.792969 L 245.601562 277.902344 C 246.460938 277.953125 247.203125 277.308594 247.277344 276.453125 C 247.351562 275.59375 246.734375 274.832031 245.878906 274.730469 Z M 245.695312 276.855469 L 244.464844 276.746094 C 244.167969 276.722656 243.949219 276.460938 243.976562 276.164062 C 244.003906 275.867188 244.265625 275.648438 244.558594 275.675781 L 245.789062 275.777344 C 246.085938 275.808594 246.304688 276.070312 246.28125 276.363281 C 246.269531 276.507812 246.199219 276.640625 246.089844 276.734375 C 245.980469 276.824219 245.839844 276.871094 245.695312 276.855469 Z M 245.695312 276.855469 "/>
<path style=" stroke:none;fill-rule:nonzero;fill:rgb(76.861572%,0%,9.411621%);fill-opacity:1;" d="M 236.652344 275.230469 L 238.308594 274.070312 L 237.078125 273.964844 C 236.921875 273.945312 236.765625 273.984375 236.632812 274.070312 L 235.027344 275.1875 L 235.148438 273.792969 L 234.101562 273.703125 L 233.824219 276.875 L 234.875 276.964844 L 234.917969 276.441406 L 235.777344 275.84375 L 236.539062 276.929688 C 236.636719 277.0625 236.785156 277.140625 236.949219 277.144531 L 238.070312 277.242188 Z M 236.652344 275.230469 "/>
<path style=" stroke:none;fill-rule:nonzero;fill:rgb(76.861572%,0%,9.411621%);fill-opacity:1;" d="M 238.601562 274.09375 L 238.511719 275.144531 L 240.109375 275.285156 L 239.921875 277.40625 L 240.972656 277.496094 L 241.15625 275.375 L 242.753906 275.519531 L 242.847656 274.46875 Z M 238.601562 274.09375 "/>
<path style=" stroke:none;fill-rule:nonzero;fill:rgb(34.509277%,6.274414%,8.235168%);fill-opacity:1;" d="M 256.34375 252.398438 C 256.003906 252.09375 255.621094 251.835938 255.207031 251.632812 C 253.355469 250.730469 251.152344 250.746094 249.152344 251.253906 C 245.988281 252.058594 243.050781 253.867188 239.996094 255.023438 L 229.511719 259.011719 L 208.8125 252.035156 L 206.816406 256.320312 L 230.199219 269.480469 C 234.75 267.5 239.191406 265.542969 243.820312 263.855469 C 247.984375 262.347656 252.769531 261.570312 255.996094 258.3125 C 257.824219 256.484375 258.066406 253.984375 256.34375 252.398438 Z M 256.34375 252.398438 "/>
<path style=" stroke:none;fill-rule:nonzero;fill:rgb(30.979919%,30.979919%,30.979919%);fill-opacity:1;" d="M 64.570312 0 L 62.621094 0 L 62.621094 142.070312 L 64.570312 142.070312 Z M 64.570312 0 "/>
<path style=" stroke:none;fill-rule:nonzero;fill:rgb(30.979919%,30.979919%,30.979919%);fill-opacity:1;" d="M 210.964844 0 L 209.015625 0 L 209.015625 163.894531 L 210.964844 163.894531 Z M 210.964844 0 "/>
<path style=" stroke:none;fill-rule:nonzero;fill:rgb(12.940979%,12.940979%,12.940979%);fill-opacity:1;" d="M 218.320312 123 C 221.578125 123 224.53125 124.324219 226.667969 126.457031 C 228.800781 128.59375 230.125 131.546875 230.125 134.804688 L 230.15625 240.644531 C 230.15625 243.902344 228.835938 246.855469 226.699219 248.992188 C 224.566406 251.128906 221.617188 252.453125 218.355469 252.457031 L 52.839844 252.5 C 49.707031 252.503906 46.703125 251.257812 44.488281 249.046875 C 42.273438 246.832031 41.03125 243.828125 41.03125 240.695312 L 41 134.855469 C 41 131.722656 42.242188 128.71875 44.457031 126.507812 C 46.671875 124.292969 49.671875 123.046875 52.804688 123.046875 Z M 218.320312 123 "/>
<path style=" stroke:none;fill-rule:nonzero;fill:rgb(30.979919%,30.979919%,30.979919%);fill-opacity:1;" d="M 218.320312 123 L 218.320312 122 Z M 230.125 134.804688 L 229.125 134.804688 Z M 230.15625 240.644531 L 231.15625 240.644531 Z M 218.355469 252.457031 L 218.355469 253.457031 L 218.359375 253.457031 Z M 52.839844 252.5 L 52.839844 251.5 L 52.835938 251.5 Z M 44.488281 249.046875 L 43.78125 249.753906 Z M 41.03125 240.695312 L 42.03125 240.695312 Z M 41 134.855469 L 40 134.855469 Z M 44.457031 126.507812 L 43.75 125.800781 Z M 52.804688 123.046875 L 52.804688 124.046875 Z M 218.320312 124 C 221.304688 124 224.003906 125.210938 225.960938 127.164062 L 227.375 125.75 C 225.058594 123.433594 221.855469 122 218.320312 122 Z M 225.960938 127.164062 C 227.914062 129.121094 229.125 131.820312 229.125 134.804688 L 231.125 134.804688 C 231.125 131.269531 229.6875 128.066406 227.375 125.75 Z M 229.125 134.804688 L 229.15625 240.644531 L 231.15625 240.644531 L 231.125 134.804688 Z M 229.15625 240.644531 C 229.15625 243.628906 227.949219 246.328125 225.992188 248.285156 L 227.40625 249.699219 C 229.722656 247.382812 231.15625 244.179688 231.15625 240.644531 Z M 225.992188 248.285156 C 224.039062 250.242188 221.339844 251.453125 218.355469 251.457031 L 218.359375 253.457031 C 221.890625 253.453125 225.09375 252.015625 227.40625 249.699219 Z M 218.355469 251.457031 L 52.839844 251.5 L 52.839844 253.5 L 218.355469 253.457031 Z M 52.835938 251.5 C 49.972656 251.503906 47.222656 250.363281 45.195312 248.339844 L 43.78125 249.753906 C 46.183594 252.152344 49.441406 253.503906 52.839844 253.5 Z M 45.195312 248.339844 C 43.167969 246.3125 42.03125 243.5625 42.03125 240.695312 L 40.03125 240.695312 C 40.03125 244.09375 41.378906 247.351562 43.78125 249.753906 Z M 42.03125 240.695312 L 42 134.855469 L 40 134.855469 L 40.03125 240.695312 Z M 42 134.855469 C 42 131.988281 43.136719 129.238281 45.164062 127.214844 L 43.75 125.800781 C 41.347656 128.203125 40 131.460938 40 134.855469 Z M 45.164062 127.214844 C 47.191406 125.1875 49.9375 124.046875 52.804688 124.046875 L 52.804688 122.046875 C 49.410156 122.046875 46.152344 123.398438 43.75 125.800781 Z M 52.804688 124.046875 L 218.320312 124 L 218.320312 122 L 52.804688 122.046875 Z M 52.804688 124.046875 "/>
<path style=" stroke:none;fill-rule:nonzero;fill:rgb(7.450867%,7.450867%,7.450867%);fill-opacity:1;" d="M 218.324219 123.011719 C 221.457031 123.011719 224.460938 124.253906 226.675781 126.46875 C 228.890625 128.683594 230.136719 131.683594 230.136719 134.816406 L 230.136719 144.296875 L 41.003906 144.34375 L 41.003906 134.867188 C 41.003906 131.738281 42.246094 128.734375 44.460938 126.519531 C 46.671875 124.304688 49.675781 123.058594 52.808594 123.058594 Z M 218.324219 123.011719 "/>
<path style=" stroke:none;fill-rule:nonzero;fill:rgb(30.979919%,30.979919%,30.979919%);fill-opacity:1;" d="M 218.324219 123.011719 L 218.324219 122.011719 Z M 226.675781 126.46875 L 225.96875 127.175781 Z M 230.136719 144.296875 L 230.136719 145.296875 L 231.136719 145.292969 L 231.136719 144.296875 Z M 41.003906 144.34375 L 40.003906 144.34375 L 40.003906 145.34375 L 41.003906 145.34375 Z M 44.460938 126.519531 L 43.753906 125.8125 Z M 52.808594 123.058594 L 52.808594 124.058594 Z M 218.324219 124.011719 C 221.191406 124.011719 223.941406 125.148438 225.96875 127.175781 L 227.382812 125.761719 C 224.976562 123.359375 221.71875 122.011719 218.324219 122.011719 Z M 225.96875 127.175781 C 227.996094 129.203125 229.136719 131.949219 229.136719 134.816406 L 231.136719 134.816406 C 231.136719 131.417969 229.785156 128.164062 227.382812 125.761719 Z M 229.136719 134.816406 L 229.136719 144.296875 L 231.136719 144.296875 L 231.136719 134.816406 Z M 230.132812 143.296875 L 41.003906 143.34375 L 41.003906 145.34375 L 230.136719 145.296875 Z M 42.003906 144.34375 L 42.003906 134.867188 L 40.003906 134.867188 L 40.003906 144.34375 Z M 42.003906 134.867188 C 42.003906 132 43.140625 129.253906 45.167969 127.226562 L 43.753906 125.8125 C 41.351562 128.214844 40.003906 131.472656 40.003906 134.867188 Z M 45.167969 127.226562 C 47.195312 125.199219 49.941406 124.058594 52.808594 124.058594 L 52.808594 122.058594 C 49.410156 122.058594 46.152344 123.410156 43.753906 125.8125 Z M 52.808594 124.058594 L 218.324219 124.011719 L 218.324219 122.011719 L 52.808594 122.058594 Z M 52.808594 124.058594 "/>
<path style=" stroke:none;fill-rule:nonzero;fill:rgb(30.979919%,30.979919%,30.979919%);fill-opacity:1;" d="M 58.425781 136.027344 C 58.425781 137.925781 56.882812 139.46875 54.984375 139.46875 C 53.082031 139.46875 51.542969 137.925781 51.542969 136.027344 C 51.542969 134.125 53.082031 132.585938 54.984375 132.585938 C 56.882812 132.585938 58.421875 134.125 58.425781 136.027344 Z M 58.425781 136.027344 "/>
<path style=" stroke:none;fill-rule:nonzero;fill:rgb(30.979919%,30.979919%,30.979919%);fill-opacity:1;" d="M 75.027344 136.023438 C 75.027344 137.417969 74.1875 138.671875 72.898438 139.203125 C 71.609375 139.734375 70.128906 139.4375 69.144531 138.449219 C 68.164062 137.460938 67.871094 135.980469 68.410156 134.695312 C 68.949219 133.410156 70.207031 132.574219 71.601562 132.582031 C 73.496094 132.589844 75.027344 134.128906 75.027344 136.023438 Z M 75.027344 136.023438 "/>
<path style=" stroke:none;fill-rule:nonzero;fill:rgb(30.979919%,30.979919%,30.979919%);fill-opacity:1;" d="M 92.238281 136.015625 C 92.242188 137.917969 90.703125 139.460938 88.800781 139.460938 C 86.898438 139.464844 85.359375 137.921875 85.355469 136.023438 C 85.355469 134.121094 86.894531 132.578125 88.792969 132.578125 C 89.707031 132.578125 90.582031 132.9375 91.230469 133.582031 C 91.875 134.226562 92.238281 135.101562 92.238281 136.015625 Z M 92.238281 136.015625 "/>
<path style=" stroke:none;fill-rule:nonzero;fill:rgb(91.763306%,80.783081%,69.802856%);fill-opacity:1;" d="M 205.558594 254.945312 L 201.304688 251.710938 L 202.632812 249.863281 L 206.042969 251.441406 L 206.261719 250.28125 L 209.558594 253.484375 L 208.441406 255.589844 Z M 205.558594 254.945312 "/>
<path style=" stroke:none;fill-rule:nonzero;fill:rgb(91.763306%,80.783081%,69.802856%);fill-opacity:1;" d="M 53.613281 255.042969 L 56.027344 255.730469 L 57.960938 254.636719 L 58.402344 254.917969 L 58.0625 255.46875 L 59.925781 255.011719 L 61.324219 255.679688 L 61.664062 257.6875 L 60.640625 259.550781 L 58.578125 259.6875 L 56.378906 258.617188 L 53.027344 257.824219 Z M 53.613281 255.042969 "/>
<path style=" stroke:none;fill-rule:nonzero;fill:rgb(34.509277%,6.274414%,8.235168%);fill-opacity:1;" d="M 54.703125 253.78125 L 30.503906 247.847656 C 29.667969 247.644531 28.667969 246.722656 27.945312 246.277344 L 22.78125 243.109375 C 21.605469 242.390625 19.539062 240.539062 18.113281 240.539062 C 15.785156 240.539062 14.558594 244.011719 14.539062 245.875 C 14.488281 251.589844 19.828125 254.039062 23.8125 257.105469 L 27.648438 259.09375 L 54.535156 259.628906 Z M 54.703125 253.78125 "/>
<path style=" stroke:none;fill-rule:nonzero;fill:rgb(92.155457%,80.783081%,69.410706%);fill-opacity:1;" d="M 25.402344 224.359375 C 22.316406 225.375 19.023438 223.136719 16.046875 224.625 C 14.109375 225.59375 12.792969 228.027344 12.476562 230.492188 C 12.292969 231.617188 12.402344 232.769531 12.792969 233.839844 C 13.058594 234.460938 13.445312 235.027344 13.933594 235.5 C 14.535156 236.097656 15.25 236.566406 16.039062 236.878906 C 15.746094 237.695312 15.382812 238.488281 14.964844 239.25 L 19.523438 240.101562 C 19.71875 239.066406 19.914062 238.03125 20.117188 236.996094 C 20.554688 236.859375 20.972656 236.679688 21.371094 236.453125 C 23.828125 235.0625 25.621094 231.953125 25.804688 228.757812 C 25.835938 227.28125 25.703125 225.804688 25.402344 224.359375 Z M 25.402344 224.359375 "/>
<path style=" stroke:none;fill-rule:nonzero;fill:rgb(32.548523%,27.842712%,25.489807%);fill-opacity:1;" d="M 9.78125 230.957031 C 9.648438 230.734375 9.523438 230.503906 9.410156 230.277344 C 8.054688 227.453125 7.308594 224.140625 9.332031 221.417969 C 11.359375 218.691406 15.613281 217.433594 18.84375 218.257812 C 20.621094 218.707031 22.496094 219.316406 24.242188 218.742188 C 24.773438 218.59375 25.242188 218.269531 25.5625 217.820312 C 25.835938 217.390625 25.902344 216.855469 26.191406 216.429688 C 26.855469 215.445312 28.664062 215.679688 29.046875 216.804688 C 29.117188 217.144531 29.214844 217.480469 29.34375 217.800781 C 29.726562 218.480469 30.65625 218.507812 31.421875 218.605469 C 31.671875 218.613281 31.914062 218.714844 32.097656 218.890625 C 32.386719 219.226562 32.097656 219.792969 31.722656 220.019531 C 31.179688 220.328125 30.234375 220.246094 29.890625 220.851562 C 29.644531 221.292969 30.023438 222.132812 29.960938 222.640625 C 29.738281 224.414062 28.207031 226.027344 26.574219 226.632812 C 25.019531 227.210938 23.632812 226.582031 22.085938 226.1875 C 21.644531 226.074219 21.175781 225.800781 20.730469 225.738281 C 20.1875 225.664062 19.65625 225.933594 19.136719 226.046875 C 18.480469 226.144531 17.8125 226.144531 17.160156 226.046875 C 16.5 225.949219 15.832031 226.011719 15.199219 226.21875 C 14.558594 226.449219 14.125 227.042969 14.101562 227.722656 C 14.152344 228.523438 14.957031 229.148438 14.941406 229.949219 C 14.941406 230.644531 14.308594 231.164062 14.046875 231.804688 C 13.839844 232.304688 13.835938 232.90625 13.460938 233.292969 C 13.296875 233.464844 13.074219 233.578125 12.921875 233.761719 C 12.722656 234.003906 12.664062 234.359375 12.402344 234.53125 C 12.082031 234.6875 11.691406 234.59375 11.476562 234.304688 C 11.277344 234.023438 11.132812 233.703125 11.054688 233.367188 C 10.777344 232.492188 10.242188 231.742188 9.78125 230.957031 Z M 9.78125 230.957031 "/>
<path style=" stroke:none;fill-rule:nonzero;fill:rgb(34.509277%,6.274414%,8.235168%);fill-opacity:1;" d="M 15.601562 238.917969 C 14.921875 238.84375 14.175781 238.785156 13.566406 239.117188 C 13.058594 239.460938 12.65625 239.941406 12.410156 240.503906 C 4.6875 254.617188 1.382812 270.722656 2.925781 286.730469 C 12.117188 285.078125 21.457031 284.347656 30.796875 284.554688 L 28.269531 266.050781 C 27.640625 261.5 27.011719 256.945312 25.96875 252.46875 C 25.054688 248.539062 23.824219 244.6875 22.289062 240.953125 C 21.320312 238.597656 17.796875 239.140625 15.601562 238.917969 Z M 15.601562 238.917969 "/>
<path style=" stroke:none;fill-rule:nonzero;fill:rgb(39.99939%,39.99939%,39.99939%);fill-opacity:1;" d="M 35.585938 356.675781 L 37.382812 358.355469 C 37.929688 358.855469 38.191406 359.601562 38.078125 360.335938 C 37.96875 361.070312 37.496094 361.703125 36.824219 362.019531 C 35.96875 362.390625 34.765625 362.335938 33.097656 361.195312 L 29.277344 356.855469 L 29.898438 355.453125 L 35.414062 354.617188 Z M 35.585938 356.675781 "/>
<path style=" stroke:none;fill-rule:nonzero;fill:rgb(7.450867%,7.450867%,7.450867%);fill-opacity:1;" d="M 23.742188 240.136719 C 24.441406 240.988281 24.691406 242.113281 24.902344 243.183594 C 25.632812 246.976562 26.109375 250.816406 26.324219 254.667969 L 27.207031 254.527344 L 29.277344 275.886719 L 31.699219 283.109375 C 31.785156 283.09375 31.828125 283.085938 31.828125 283.085938 L 40.707031 319.371094 L 38.09375 354.859375 L 29.332031 355.617188 L 27.300781 323.609375 C 27.300781 323.609375 25.703125 320.695312 23.460938 316.53125 L 23.007812 322.621094 L 10.085938 355.40625 L 1 353.585938 L 8.957031 322.515625 C 8.957031 322.515625 7.167969 313.078125 5.492188 303.410156 L 5.289062 302.226562 C 4.542969 297.882812 3.835938 293.570312 3.339844 290.117188 L 3.308594 289.90625 L 2.109375 283.945312 L 5.550781 275.617188 L 17.535156 271.640625 L 15.246094 256.460938 L 15.722656 256.382812 C 15.511719 254.292969 15.878906 251.816406 15.894531 249.839844 C 15.914062 247.492188 15.792969 244.820312 14 243.304688 C 13.609375 242.941406 13.105469 242.726562 12.570312 242.699219 C 11.496094 242.699219 10.761719 243.761719 10.222656 244.695312 C 10.042969 243.300781 9.941406 241.757812 10.761719 240.628906 C 11.804688 239.175781 14.0625 239 15.589844 239.929688 C 17.117188 240.859375 17.960938 242.621094 18.300781 244.378906 C 18.640625 246.136719 18.492188 247.945312 18.492188 249.734375 C 18.527344 251.785156 18.648438 253.835938 18.855469 255.875 L 24.289062 254.996094 C 24.308594 254.640625 24.351562 254.289062 24.351562 254.039062 C 24.347656 251.824219 24.222656 249.609375 23.972656 247.410156 C 23.71875 245.148438 23.167969 242.667969 21.292969 241.371094 C 20.824219 241.050781 20.222656 240.691406 20.25 240.136719 C 20.296875 239.804688 20.503906 239.515625 20.804688 239.363281 C 21.757812 238.808594 23.046875 239.28125 23.742188 240.136719 Z M 23.742188 240.136719 "/>
<path style=" stroke:none;fill-rule:nonzero;fill:rgb(30.979919%,30.979919%,30.979919%);fill-opacity:1;" d="M 23.742188 240.136719 L 24.132812 239.820312 Z M 24.902344 243.183594 L 25.394531 243.089844 Z M 26.324219 254.667969 L 25.824219 254.699219 L 25.855469 255.253906 L 26.40625 255.164062 Z M 27.207031 254.527344 L 27.703125 254.476562 L 27.652344 253.949219 L 27.125 254.03125 Z M 29.277344 275.886719 L 28.777344 275.933594 L 28.785156 275.988281 L 28.800781 276.042969 Z M 31.699219 283.109375 L 31.222656 283.269531 L 31.363281 283.679688 L 31.789062 283.601562 Z M 31.828125 283.085938 L 32.316406 282.96875 L 32.203125 282.511719 L 31.738281 282.59375 Z M 40.707031 319.371094 L 41.207031 319.40625 L 41.214844 319.328125 L 41.195312 319.25 Z M 38.09375 354.859375 L 38.136719 355.355469 L 38.5625 355.320312 L 38.59375 354.894531 Z M 29.332031 355.617188 L 28.835938 355.648438 L 28.867188 356.160156 L 29.375 356.117188 Z M 27.300781 323.609375 L 27.800781 323.578125 L 27.792969 323.464844 L 27.738281 323.367188 Z M 23.460938 316.53125 L 23.898438 316.292969 L 23.085938 314.789062 L 22.960938 316.496094 Z M 23.007812 322.621094 L 23.472656 322.804688 L 23.5 322.734375 L 23.507812 322.660156 Z M 10.085938 355.40625 L 9.988281 355.898438 L 10.398438 355.980469 L 10.550781 355.589844 Z M 1 353.585938 L 0.515625 353.460938 L 0.386719 353.972656 L 0.902344 354.074219 Z M 8.957031 322.515625 L 9.441406 322.636719 L 9.46875 322.53125 L 9.449219 322.421875 Z M 5.492188 303.410156 L 5 303.496094 Z M 5.289062 302.226562 L 4.796875 302.3125 Z M 3.339844 290.117188 L 2.847656 290.1875 Z M 3.308594 289.90625 L 3.804688 289.835938 L 3.804688 289.820312 L 3.800781 289.808594 Z M 2.109375 283.945312 L 1.644531 283.753906 L 1.585938 283.894531 L 1.617188 284.042969 Z M 5.550781 275.617188 L 5.390625 275.144531 L 5.175781 275.214844 L 5.085938 275.425781 Z M 17.535156 271.640625 L 17.691406 272.113281 L 18.089844 271.980469 L 18.027344 271.566406 Z M 15.246094 256.460938 L 15.167969 255.96875 L 14.679688 256.046875 L 14.753906 256.535156 Z M 15.722656 256.382812 L 15.800781 256.878906 L 16.265625 256.804688 L 16.21875 256.335938 Z M 15.894531 249.839844 L 15.394531 249.832031 Z M 14 243.304688 L 13.660156 243.671875 L 13.667969 243.679688 L 13.679688 243.683594 Z M 12.570312 242.699219 L 12.597656 242.203125 L 12.585938 242.199219 L 12.570312 242.199219 Z M 10.222656 244.695312 L 9.726562 244.757812 L 9.917969 246.230469 L 10.65625 244.945312 Z M 10.761719 240.628906 L 11.167969 240.925781 L 11.167969 240.921875 Z M 18.300781 244.378906 L 17.808594 244.472656 Z M 18.492188 249.734375 L 17.992188 249.734375 L 17.992188 249.742188 Z M 18.855469 255.875 L 18.355469 255.925781 L 18.410156 256.457031 L 18.933594 256.371094 Z M 24.289062 254.996094 L 24.371094 255.492188 L 24.769531 255.425781 L 24.789062 255.019531 Z M 24.351562 254.039062 L 23.851562 254.039062 L 23.851562 254.042969 Z M 23.972656 247.410156 L 24.472656 247.355469 L 24.472656 247.351562 Z M 21.292969 241.371094 L 21.574219 240.957031 Z M 20.25 240.136719 L 19.757812 240.070312 L 19.753906 240.089844 L 19.75 240.113281 Z M 20.804688 239.363281 L 21.027344 239.8125 L 21.042969 239.804688 L 21.054688 239.796875 Z M 23.355469 240.453125 C 23.964844 241.195312 24.199219 242.199219 24.410156 243.28125 L 25.394531 243.089844 C 25.1875 242.03125 24.917969 240.785156 24.132812 239.820312 Z M 24.410156 243.28125 C 25.136719 247.050781 25.609375 250.863281 25.824219 254.699219 L 26.824219 254.640625 C 26.605469 250.765625 26.128906 246.90625 25.394531 243.089844 Z M 26.40625 255.164062 L 27.285156 255.019531 L 27.125 254.03125 L 26.246094 254.175781 Z M 26.707031 254.574219 L 28.777344 275.933594 L 29.773438 275.835938 L 27.703125 254.476562 Z M 28.800781 276.042969 L 31.222656 283.269531 L 32.171875 282.953125 L 29.75 275.726562 Z M 31.789062 283.601562 C 31.832031 283.59375 31.863281 283.589844 31.886719 283.585938 C 31.898438 283.582031 31.90625 283.582031 31.910156 283.582031 C 31.914062 283.578125 31.917969 283.578125 31.917969 283.578125 C 31.917969 283.578125 31.917969 283.578125 31.828125 283.085938 C 31.738281 282.59375 31.738281 282.59375 31.738281 282.59375 C 31.738281 282.59375 31.734375 282.597656 31.730469 282.597656 C 31.726562 282.597656 31.71875 282.597656 31.707031 282.601562 C 31.683594 282.605469 31.652344 282.609375 31.609375 282.617188 Z M 31.34375 283.207031 L 40.222656 319.488281 L 41.195312 319.25 L 32.316406 282.96875 Z M 40.210938 319.332031 L 37.59375 354.820312 L 38.59375 354.894531 L 41.207031 319.40625 Z M 38.050781 354.359375 L 29.289062 355.121094 L 29.375 356.117188 L 38.136719 355.355469 Z M 29.832031 355.585938 L 27.800781 323.578125 L 26.800781 323.640625 L 28.835938 355.648438 Z M 27.300781 323.609375 C 27.738281 323.367188 27.738281 323.367188 27.738281 323.367188 C 27.738281 323.363281 27.734375 323.363281 27.734375 323.359375 C 27.730469 323.355469 27.726562 323.347656 27.722656 323.335938 C 27.707031 323.3125 27.691406 323.277344 27.667969 323.234375 C 27.617188 323.148438 27.546875 323.019531 27.457031 322.847656 C 27.269531 322.511719 27 322.015625 26.660156 321.394531 C 25.980469 320.144531 25.023438 318.375 23.898438 316.292969 L 23.019531 316.769531 C 24.140625 318.851562 25.101562 320.621094 25.78125 321.871094 C 26.121094 322.496094 26.394531 322.988281 26.578125 323.328125 C 26.671875 323.496094 26.742188 323.628906 26.789062 323.714844 C 26.8125 323.757812 26.832031 323.792969 26.84375 323.816406 C 26.851562 323.824219 26.855469 323.835938 26.859375 323.839844 C 26.859375 323.84375 26.859375 323.84375 26.859375 323.847656 C 26.863281 323.847656 26.863281 323.847656 26.863281 323.847656 C 26.863281 323.847656 26.863281 323.847656 27.300781 323.609375 Z M 22.960938 316.496094 L 22.511719 322.585938 L 23.507812 322.660156 L 23.957031 316.566406 Z M 22.542969 322.4375 L 9.621094 355.222656 L 10.550781 355.589844 L 23.472656 322.804688 Z M 10.183594 354.917969 L 1.097656 353.09375 L 0.902344 354.074219 L 9.988281 355.898438 Z M 1.484375 353.707031 L 9.441406 322.636719 L 8.472656 322.390625 L 0.515625 353.460938 Z M 8.957031 322.515625 C 9.449219 322.421875 9.449219 322.421875 9.449219 322.421875 C 9.449219 322.421875 9.449219 322.421875 9.449219 322.417969 C 9.449219 322.417969 9.449219 322.417969 9.449219 322.414062 C 9.445312 322.410156 9.445312 322.402344 9.445312 322.394531 C 9.441406 322.375 9.433594 322.347656 9.429688 322.3125 C 9.414062 322.242188 9.394531 322.136719 9.367188 321.996094 C 9.316406 321.722656 9.238281 321.316406 9.144531 320.796875 C 8.949219 319.761719 8.671875 318.28125 8.34375 316.496094 C 7.6875 312.933594 6.824219 308.15625 5.988281 303.324219 L 5 303.496094 C 5.839844 308.332031 6.703125 313.109375 7.363281 316.679688 C 7.691406 318.464844 7.964844 319.945312 8.160156 320.980469 C 8.257812 321.5 8.332031 321.90625 8.386719 322.183594 C 8.410156 322.320312 8.433594 322.425781 8.445312 322.5 C 8.453125 322.535156 8.457031 322.5625 8.460938 322.578125 C 8.460938 322.589844 8.464844 322.597656 8.464844 322.601562 C 8.464844 322.601562 8.464844 322.605469 8.464844 322.605469 C 8.464844 322.609375 8.464844 322.609375 8.957031 322.515625 Z M 5.988281 303.328125 L 5.78125 302.140625 L 4.796875 302.3125 L 5 303.496094 Z M 5.78125 302.140625 C 5.035156 297.800781 4.332031 293.492188 3.835938 290.046875 L 2.847656 290.1875 C 3.34375 293.648438 4.050781 297.96875 4.796875 302.3125 Z M 3.835938 290.046875 L 3.804688 289.835938 L 2.816406 289.976562 L 2.847656 290.1875 Z M 3.800781 289.808594 L 2.597656 283.84375 L 1.617188 284.042969 L 2.820312 290.003906 Z M 2.570312 284.136719 L 6.011719 275.808594 L 5.085938 275.425781 L 1.644531 283.753906 Z M 5.707031 276.09375 L 17.691406 272.113281 L 17.378906 271.164062 L 5.390625 275.144531 Z M 18.027344 271.566406 L 15.742188 256.386719 L 14.753906 256.535156 L 17.039062 271.714844 Z M 15.328125 256.953125 L 15.800781 256.878906 L 15.640625 255.890625 L 15.167969 255.96875 Z M 16.21875 256.335938 C 16.117188 255.332031 16.15625 254.222656 16.222656 253.097656 C 16.289062 251.988281 16.386719 250.847656 16.394531 249.84375 L 15.394531 249.832031 C 15.386719 250.804688 15.292969 251.890625 15.222656 253.039062 C 15.15625 254.167969 15.113281 255.34375 15.222656 256.433594 Z M 16.394531 249.84375 C 16.40625 248.667969 16.382812 247.363281 16.117188 246.152344 C 15.851562 244.9375 15.332031 243.777344 14.324219 242.921875 L 13.679688 243.683594 C 14.460938 244.347656 14.902344 245.28125 15.140625 246.367188 C 15.378906 247.460938 15.40625 248.664062 15.394531 249.832031 Z M 14.339844 242.9375 C 13.863281 242.496094 13.246094 242.234375 12.597656 242.203125 L 12.546875 243.199219 C 12.960938 243.222656 13.355469 243.386719 13.660156 243.671875 Z M 12.570312 242.199219 C 11.855469 242.199219 11.28125 242.558594 10.84375 242.992188 C 10.410156 243.425781 10.0625 243.972656 9.789062 244.445312 L 10.65625 244.945312 C 10.921875 244.484375 11.214844 244.035156 11.546875 243.703125 C 11.878906 243.375 12.210938 243.199219 12.570312 243.199219 Z M 10.71875 244.632812 C 10.539062 243.214844 10.480469 241.871094 11.167969 240.925781 L 10.359375 240.335938 C 9.40625 241.644531 9.550781 243.386719 9.726562 244.757812 Z M 11.167969 240.921875 C 11.589844 240.332031 12.277344 239.980469 13.054688 239.882812 C 13.835938 239.785156 14.667969 239.953125 15.328125 240.355469 L 15.851562 239.503906 C 14.984375 238.976562 13.925781 238.765625 12.933594 238.890625 C 11.9375 239.011719 10.972656 239.476562 10.355469 240.339844 Z M 15.328125 240.355469 C 16.6875 241.183594 17.484375 242.785156 17.808594 244.472656 L 18.792969 244.28125 C 18.4375 242.453125 17.546875 240.539062 15.851562 239.503906 Z M 17.808594 244.472656 C 18.136719 246.167969 17.992188 247.890625 17.992188 249.734375 L 18.992188 249.734375 C 18.992188 248 19.140625 246.101562 18.792969 244.28125 Z M 17.992188 249.742188 C 18.027344 251.808594 18.148438 253.871094 18.355469 255.925781 L 19.351562 255.828125 C 19.148438 253.800781 19.027344 251.761719 18.992188 249.726562 Z M 18.933594 256.371094 L 24.371094 255.492188 L 24.210938 254.503906 L 18.773438 255.382812 Z M 24.789062 255.019531 C 24.796875 254.851562 24.8125 254.683594 24.824219 254.515625 C 24.839844 254.355469 24.851562 254.183594 24.851562 254.035156 L 23.851562 254.042969 C 23.851562 254.140625 23.84375 254.269531 23.828125 254.4375 C 23.816406 254.597656 23.800781 254.785156 23.792969 254.972656 Z M 24.851562 254.039062 C 24.847656 251.804688 24.71875 249.574219 24.472656 247.355469 L 23.476562 247.464844 C 23.722656 249.648438 23.847656 251.84375 23.851562 254.039062 Z M 24.472656 247.351562 C 24.214844 245.101562 23.65625 242.398438 21.574219 240.957031 L 21.007812 241.78125 C 22.679688 242.9375 23.21875 245.195312 23.476562 247.464844 Z M 21.574219 240.957031 C 21.316406 240.78125 21.097656 240.644531 20.933594 240.484375 C 20.777344 240.328125 20.746094 240.230469 20.75 240.160156 L 19.75 240.113281 C 19.726562 240.597656 19.984375 240.957031 20.238281 241.199219 C 20.480469 241.4375 20.800781 241.640625 21.011719 241.78125 Z M 20.746094 240.203125 C 20.769531 240.035156 20.875 239.886719 21.027344 239.8125 L 20.578125 238.917969 C 20.132812 239.140625 19.824219 239.574219 19.757812 240.070312 Z M 21.054688 239.796875 C 21.386719 239.601562 21.800781 239.574219 22.230469 239.703125 C 22.660156 239.828125 23.070312 240.101562 23.355469 240.453125 L 24.132812 239.820312 C 23.71875 239.316406 23.136719 238.925781 22.511719 238.742188 C 21.882812 238.558594 21.175781 238.570312 20.550781 238.933594 Z M 21.054688 239.796875 "/>
<path style=" stroke:none;fill-rule:nonzero;fill:rgb(39.99939%,39.99939%,39.99939%);fill-opacity:1;" d="M 8.410156 356.675781 L 10.203125 358.347656 C 10.753906 358.847656 11.019531 359.59375 10.910156 360.328125 C 10.796875 361.066406 10.328125 361.699219 9.65625 362.015625 C 8.800781 362.390625 7.597656 362.335938 5.929688 361.199219 L 2.101562 356.867188 L 2.101562 354.835938 L 3.546875 353.558594 L 7.761719 354.335938 Z M 8.410156 356.675781 "/>
<path style=" stroke:none;fill-rule:nonzero;fill:rgb(7.450867%,7.450867%,7.450867%);fill-opacity:1;" d="M 28.808594 212.5625 C 29.648438 213.238281 29.457031 214.546875 29.074219 215.550781 C 27.769531 218.960938 25.25 221.773438 22 223.441406 C 21.441406 223.726562 20.6875 223.992188 19.9375 224.074219 C 19.441406 224.683594 18.90625 225.265625 18.335938 225.820312 C 16.082031 227.984375 13.425781 229.632812 10.714844 231.144531 C 10.128906 231.507812 9.5 231.785156 8.839844 231.980469 C 7.546875 230.136719 6.613281 227.964844 6.53125 225.691406 C 6.359375 220.699219 11.40625 216.507812 15.929688 216.234375 C 17.097656 216.164062 18.382812 216.289062 19.617188 216.597656 C 21.378906 214.734375 24.085938 213.382812 26.214844 212.5625 C 27.058594 212.222656 28.097656 211.992188 28.808594 212.5625 Z M 28.808594 212.5625 "/>
<path style=" stroke:none;fill-rule:nonzero;fill:rgb(30.979919%,30.979919%,30.979919%);fill-opacity:1;" d="M 28.808594 212.5625 L 29.121094 212.171875 Z M 29.074219 215.550781 L 29.542969 215.726562 Z M 22 223.441406 L 22.226562 223.886719 Z M 19.9375 224.074219 L 19.882812 223.578125 L 19.679688 223.601562 L 19.550781 223.757812 Z M 18.335938 225.820312 L 18.683594 226.179688 L 18.6875 226.179688 Z M 10.714844 231.144531 L 10.472656 230.710938 L 10.460938 230.714844 L 10.453125 230.71875 Z M 8.839844 231.980469 L 8.429688 232.265625 L 8.636719 232.558594 L 8.980469 232.460938 Z M 6.53125 225.691406 L 6.03125 225.710938 Z M 15.929688 216.234375 L 15.898438 215.734375 Z M 19.617188 216.597656 L 19.496094 217.082031 L 19.777344 217.15625 L 19.980469 216.941406 Z M 26.214844 212.5625 L 26.394531 213.027344 L 26.398438 213.027344 Z M 28.496094 212.949219 C 28.761719 213.167969 28.894531 213.496094 28.902344 213.941406 C 28.910156 214.394531 28.789062 214.902344 28.609375 215.371094 L 29.542969 215.726562 C 29.746094 215.191406 29.910156 214.546875 29.902344 213.925781 C 29.890625 213.296875 29.695312 212.632812 29.121094 212.171875 Z M 28.609375 215.371094 C 27.347656 218.667969 24.910156 221.382812 21.769531 222.996094 L 22.226562 223.886719 C 25.585938 222.160156 28.191406 219.253906 29.542969 215.726562 Z M 21.773438 222.996094 C 21.257812 223.257812 20.558594 223.5 19.882812 223.578125 L 19.996094 224.570312 C 20.8125 224.480469 21.625 224.191406 22.226562 223.886719 Z M 19.550781 223.757812 C 19.066406 224.351562 18.542969 224.921875 17.988281 225.460938 L 18.6875 226.179688 C 19.265625 225.613281 19.816406 225.015625 20.324219 224.390625 Z M 17.992188 225.460938 C 15.78125 227.578125 13.171875 229.199219 10.472656 230.710938 L 10.960938 231.582031 C 13.679688 230.0625 16.378906 228.390625 18.683594 226.179688 Z M 10.453125 230.71875 C 9.90625 231.058594 9.316406 231.320312 8.699219 231.5 L 8.980469 232.460938 C 9.683594 232.253906 10.355469 231.957031 10.976562 231.570312 Z M 9.25 231.691406 C 7.996094 229.902344 7.109375 227.824219 7.03125 225.675781 L 6.03125 225.710938 C 6.117188 228.105469 7.101562 230.371094 8.429688 232.265625 Z M 7.03125 225.675781 C 6.953125 223.355469 8.082031 221.191406 9.8125 219.558594 C 11.546875 217.917969 13.832031 216.863281 15.960938 216.734375 L 15.898438 215.734375 C 13.503906 215.878906 11.003906 217.054688 9.125 218.828125 C 7.246094 220.605469 5.941406 223.035156 6.03125 225.710938 Z M 15.957031 216.734375 C 17.074219 216.667969 18.308594 216.789062 19.496094 217.082031 L 19.738281 216.113281 C 18.457031 215.792969 17.121094 215.664062 15.898438 215.734375 Z M 19.980469 216.941406 C 21.664062 215.160156 24.289062 213.84375 26.394531 213.027344 L 26.03125 212.09375 C 23.886719 212.925781 21.09375 214.308594 19.253906 216.253906 Z M 26.398438 213.027344 C 26.800781 212.867188 27.214844 212.746094 27.59375 212.71875 C 27.96875 212.695312 28.265625 212.769531 28.496094 212.953125 L 29.121094 212.171875 C 28.636719 211.785156 28.0625 211.6875 27.53125 211.722656 C 27 211.753906 26.472656 211.917969 26.027344 212.097656 Z M 26.398438 213.027344 "/>
<path style=" stroke:none;fill-rule:nonzero;fill:rgb(7.450867%,7.450867%,7.450867%);fill-opacity:1;" d="M 27.96875 261.902344 L 22.972656 262.519531 L 18.566406 263.0625 L 20.441406 275.953125 C 23.4375 276.859375 26.625 276.910156 29.648438 276.097656 L 27.953125 261.902344 Z M 27.96875 261.902344 "/>
<path style=" stroke:none;fill-rule:nonzero;fill:rgb(30.979919%,30.979919%,30.979919%);fill-opacity:1;" d="M 27.96875 261.902344 L 28.03125 262.398438 L 27.96875 261.402344 Z M 22.972656 262.519531 L 22.910156 262.019531 Z M 18.566406 263.0625 L 18.507812 262.566406 L 18 262.628906 L 18.074219 263.136719 Z M 20.441406 275.953125 L 19.945312 276.023438 L 19.992188 276.339844 L 20.296875 276.429688 Z M 29.648438 276.097656 L 29.777344 276.582031 L 30.195312 276.46875 L 30.144531 276.039062 Z M 27.953125 261.902344 L 27.953125 261.402344 L 27.390625 261.402344 L 27.457031 261.960938 Z M 27.90625 261.40625 L 22.910156 262.019531 L 23.03125 263.015625 L 28.03125 262.398438 Z M 22.910156 262.019531 L 18.507812 262.566406 L 18.628906 263.558594 L 23.03125 263.015625 Z M 18.074219 263.136719 L 19.945312 276.023438 L 20.9375 275.878906 L 19.0625 262.992188 Z M 20.296875 276.429688 C 23.382812 277.363281 26.664062 277.417969 29.777344 276.582031 L 29.519531 275.617188 C 26.585938 276.402344 23.492188 276.355469 20.585938 275.472656 Z M 30.144531 276.039062 L 28.449219 261.84375 L 27.457031 261.960938 L 29.152344 276.15625 Z M 27.953125 262.402344 L 27.96875 262.402344 L 27.96875 261.402344 L 27.953125 261.402344 Z M 27.953125 262.402344 "/>
<path style=" stroke:none;fill-rule:nonzero;fill:rgb(76.861572%,0%,9.411621%);fill-opacity:1;" d="M 22.914062 269.320312 C 23.316406 268.796875 23.722656 268.25 24.125 267.707031 C 24.125 267.707031 23.394531 267.828125 23.046875 267.902344 C 22.902344 267.933594 22.773438 268.011719 22.6875 268.128906 C 22.296875 268.652344 21.90625 269.148438 21.519531 269.617188 C 21.472656 269.164062 21.421875 268.71875 21.371094 268.261719 L 20.46875 268.484375 C 20.578125 269.386719 20.691406 270.332031 20.808594 271.316406 C 21.109375 271.34375 21.410156 271.355469 21.710938 271.359375 C 21.695312 271.1875 21.675781 271.019531 21.65625 270.839844 C 21.863281 270.613281 22.070312 270.371094 22.28125 270.117188 C 22.5625 270.453125 22.847656 270.769531 23.128906 271.109375 C 23.226562 271.222656 23.375 271.277344 23.519531 271.261719 C 23.859375 271.222656 24.175781 271.179688 24.503906 271.125 C 23.972656 270.535156 23.441406 269.914062 22.914062 269.320312 Z M 22.914062 269.320312 "/>
<path style=" stroke:none;fill-rule:nonzero;fill:rgb(76.861572%,0%,9.411621%);fill-opacity:1;" d="M 24.378906 267.667969 C 24.417969 268.046875 24.457031 268.425781 24.496094 268.804688 C 24.960938 268.734375 25.425781 268.667969 25.894531 268.617188 C 25.96875 269.359375 26.046875 270.097656 26.121094 270.828125 C 26.425781 270.761719 26.730469 270.691406 27.03125 270.621094 C 26.957031 269.941406 26.882812 269.246094 26.804688 268.527344 C 27.269531 268.488281 27.730469 268.46875 28.1875 268.464844 C 28.152344 268.15625 28.113281 267.847656 28.078125 267.527344 C 26.84375 267.417969 25.601562 267.464844 24.378906 267.667969 Z M 24.378906 267.667969 "/>
<path style=" stroke:none;fill-rule:nonzero;fill:rgb(7.450867%,7.450867%,7.450867%);fill-opacity:1;" d="M 68.671875 240.773438 C 66.179688 241.035156 63.980469 242.25 62.453125 244.1875 C 60.925781 246.128906 60.261719 248.554688 60.585938 251.015625 C 60.652344 251.523438 60.785156 252.003906 60.929688 252.480469 C 61.046875 252.84375 60.96875 253.238281 60.730469 253.535156 L 33.695312 286.917969 C 32.933594 287.859375 32.585938 289.046875 32.710938 290.257812 C 32.972656 292.753906 35.214844 294.566406 37.707031 294.304688 C 38.902344 294.179688 40.023438 293.578125 40.769531 292.652344 L 67.804688 259.265625 C 68.042969 258.96875 68.417969 258.820312 68.792969 258.847656 C 69.289062 258.894531 69.789062 258.921875 70.296875 258.882812 C 72.695312 258.707031 75.007812 257.535156 76.585938 255.636719 C 78.167969 253.738281 78.898438 251.335938 78.636719 248.867188 C 78.628906 248.800781 78.621094 248.695312 78.460938 248.648438 C 78.40625 248.628906 78.246094 248.609375 78.136719 248.742188 L 74.644531 253.050781 C 73.464844 254.511719 71.3125 254.738281 69.851562 253.554688 L 65.890625 250.347656 C 64.429688 249.164062 64.203125 247.015625 65.386719 245.554688 L 68.875 241.246094 C 68.988281 241.105469 68.929688 240.960938 68.898438 240.90625 C 68.820312 240.757812 68.710938 240.769531 68.671875 240.773438 Z M 68.671875 240.773438 "/>
<path style=" stroke:none;fill-rule:nonzero;fill:rgb(30.979919%,30.979919%,30.979919%);fill-opacity:1;" d="M 62.453125 244.1875 L 62.058594 243.878906 Z M 60.585938 251.015625 L 60.089844 251.082031 Z M 60.929688 252.480469 L 60.453125 252.628906 Z M 60.730469 253.535156 L 60.339844 253.21875 Z M 33.695312 286.917969 L 34.085938 287.234375 Z M 40.769531 292.652344 L 40.382812 292.335938 Z M 67.804688 259.265625 L 67.417969 258.949219 Z M 68.792969 258.847656 L 68.839844 258.351562 L 68.832031 258.347656 Z M 70.296875 258.882812 L 70.261719 258.382812 L 70.257812 258.382812 Z M 76.585938 255.636719 L 76.203125 255.316406 Z M 78.460938 248.648438 L 78.300781 249.125 L 78.3125 249.128906 L 78.324219 249.128906 Z M 78.136719 248.742188 L 78.523438 249.058594 Z M 74.644531 253.050781 L 74.257812 252.738281 Z M 69.851562 253.554688 L 70.167969 253.167969 Z M 65.890625 250.347656 L 65.574219 250.738281 Z M 65.386719 245.554688 L 64.996094 245.238281 Z M 68.875 241.246094 L 69.265625 241.558594 Z M 68.898438 240.90625 L 68.460938 241.144531 L 68.460938 241.148438 Z M 68.621094 240.277344 C 65.996094 240.554688 63.671875 241.832031 62.058594 243.878906 L 62.84375 244.496094 C 64.289062 242.664062 66.367188 241.519531 68.726562 241.273438 Z M 62.058594 243.878906 C 60.449219 245.925781 59.746094 248.484375 60.089844 251.082031 L 61.082031 250.953125 C 60.773438 248.621094 61.402344 246.332031 62.84375 244.496094 Z M 60.089844 251.082031 C 60.164062 251.628906 60.304688 252.144531 60.453125 252.628906 L 61.410156 252.332031 C 61.265625 251.867188 61.144531 251.414062 61.082031 250.953125 Z M 60.453125 252.628906 C 60.519531 252.832031 60.476562 253.054688 60.339844 253.21875 L 61.117188 253.847656 C 61.460938 253.425781 61.574219 252.855469 61.410156 252.332031 Z M 60.339844 253.21875 L 33.308594 286.601562 L 34.085938 287.234375 L 61.117188 253.847656 Z M 33.308594 286.601562 C 32.460938 287.648438 32.074219 288.96875 32.214844 290.3125 L 33.210938 290.207031 C 33.097656 289.125 33.40625 288.070312 34.085938 287.234375 Z M 32.214844 290.3125 C 32.507812 293.078125 34.992188 295.09375 37.761719 294.800781 L 37.65625 293.808594 C 35.4375 294.039062 33.441406 292.425781 33.210938 290.207031 Z M 37.761719 294.800781 C 39.085938 294.664062 40.324219 293.996094 41.160156 292.964844 L 40.382812 292.335938 C 39.71875 293.15625 38.722656 293.695312 37.65625 293.808594 Z M 41.160156 292.964844 L 68.195312 259.578125 L 67.417969 258.949219 L 40.382812 292.335938 Z M 68.195312 259.578125 C 68.324219 259.417969 68.535156 259.328125 68.753906 259.347656 L 68.832031 258.347656 C 68.300781 258.308594 67.765625 258.519531 67.417969 258.949219 Z M 68.746094 259.34375 C 69.253906 259.394531 69.785156 259.421875 70.335938 259.378906 L 70.257812 258.382812 C 69.789062 258.417969 69.324219 258.394531 68.839844 258.351562 Z M 70.335938 259.378906 C 72.867188 259.195312 75.304688 257.960938 76.96875 255.957031 L 76.203125 255.316406 C 74.710938 257.113281 72.523438 258.214844 70.261719 258.382812 Z M 76.96875 255.957031 C 78.640625 253.953125 79.40625 251.417969 79.132812 248.816406 L 78.140625 248.921875 C 78.386719 251.253906 77.699219 253.523438 76.203125 255.316406 Z M 79.132812 248.816406 C 79.132812 248.789062 79.121094 248.644531 79.039062 248.5 C 78.941406 248.332031 78.785156 248.222656 78.597656 248.167969 L 78.324219 249.128906 C 78.316406 249.128906 78.289062 249.117188 78.257812 249.09375 C 78.222656 249.070312 78.195312 249.035156 78.171875 249 C 78.136719 248.9375 78.136719 248.878906 78.140625 248.921875 Z M 78.621094 248.175781 C 78.480469 248.128906 78.050781 248.054688 77.746094 248.429688 L 78.523438 249.058594 C 78.507812 249.078125 78.484375 249.097656 78.457031 249.109375 C 78.433594 249.125 78.410156 249.128906 78.390625 249.132812 C 78.375 249.136719 78.359375 249.136719 78.347656 249.132812 C 78.339844 249.132812 78.324219 249.128906 78.300781 249.125 Z M 77.746094 248.429688 L 74.257812 252.738281 L 75.035156 253.367188 L 78.523438 249.058594 Z M 74.257812 252.738281 C 73.25 253.984375 71.410156 254.175781 70.167969 253.167969 L 69.535156 253.945312 C 71.210938 255.300781 73.679688 255.042969 75.035156 253.367188 Z M 70.167969 253.167969 L 66.203125 249.960938 L 65.574219 250.738281 L 69.539062 253.945312 Z M 66.203125 249.960938 C 64.957031 248.949219 64.765625 247.113281 65.773438 245.867188 L 64.996094 245.238281 C 63.640625 246.914062 63.898438 249.378906 65.574219 250.738281 Z M 65.773438 245.867188 L 69.265625 241.558594 L 68.488281 240.929688 L 64.996094 245.238281 Z M 69.265625 241.558594 C 69.578125 241.175781 69.398438 240.773438 69.335938 240.664062 L 68.460938 241.148438 C 68.457031 241.140625 68.445312 241.117188 68.441406 241.082031 C 68.441406 241.058594 68.441406 241.03125 68.453125 241 C 68.460938 240.96875 68.476562 240.945312 68.488281 240.929688 Z M 69.339844 240.667969 C 69.246094 240.5 69.109375 240.375 68.941406 240.3125 C 68.785156 240.257812 68.652344 240.273438 68.621094 240.277344 L 68.726562 241.273438 C 68.734375 241.269531 68.671875 241.28125 68.601562 241.253906 C 68.566406 241.242188 68.53125 241.222656 68.503906 241.195312 C 68.476562 241.171875 68.464844 241.152344 68.460938 241.144531 Z M 69.339844 240.667969 "/>
<path style=" stroke:none;fill-rule:nonzero;fill:rgb(7.450867%,7.450867%,7.450867%);fill-opacity:1;" d="M 38.359375 289.871094 C 39.085938 289.796875 39.609375 289.148438 39.535156 288.421875 C 39.457031 287.699219 38.808594 287.175781 38.085938 287.25 C 37.359375 287.324219 36.835938 287.976562 36.910156 288.699219 C 36.988281 289.421875 37.636719 289.949219 38.359375 289.871094 Z M 38.359375 289.871094 "/>
<path style=" stroke:none;fill-rule:nonzero;fill:rgb(30.979919%,30.979919%,30.979919%);fill-opacity:1;" d="M 39.035156 288.476562 C 39.082031 288.925781 38.757812 289.328125 38.308594 289.375 L 38.414062 290.371094 C 39.410156 290.265625 40.136719 289.371094 40.03125 288.371094 Z M 38.308594 289.375 C 37.859375 289.421875 37.457031 289.097656 37.410156 288.648438 L 36.414062 288.75 C 36.519531 289.75 37.414062 290.472656 38.414062 290.371094 Z M 37.410156 288.648438 C 37.363281 288.195312 37.6875 287.792969 38.136719 287.746094 L 38.03125 286.753906 C 37.035156 286.859375 36.308594 287.753906 36.414062 288.75 Z M 38.136719 287.746094 C 38.585938 287.699219 38.988281 288.027344 39.035156 288.476562 L 40.03125 288.371094 C 39.925781 287.371094 39.03125 286.648438 38.03125 286.753906 Z M 38.136719 287.746094 "/>
<path style=" stroke:none;fill-rule:nonzero;fill:rgb(91.763306%,80.783081%,69.802856%);fill-opacity:1;" d="M 36.582031 278.078125 L 38.621094 279.726562 L 40.929688 279.46875 L 41.234375 279.921875 L 40.683594 280.3125 L 42.660156 280.636719 L 43.730469 281.851562 L 43.230469 283.921875 L 41.488281 285.289062 L 39.449219 284.574219 L 37.773438 282.644531 L 34.882812 280.507812 Z M 36.582031 278.078125 "/>
<path style=" stroke:none;fill-rule:nonzero;fill:rgb(34.509277%,6.274414%,8.235168%);fill-opacity:1;" d="M 38.746094 277.636719 L 20.289062 259.277344 C 19.652344 258.640625 19.253906 257.28125 18.84375 256.496094 L 15.9375 250.878906 C 15.261719 249.597656 14.425781 246.828125 13.148438 246.0625 C 11.0625 244.808594 8.09375 247.25 7.074219 248.90625 C 3.945312 253.988281 7.414062 259.070312 9.3125 263.949219 L 11.683594 267.796875 L 35.433594 282.785156 Z M 38.746094 277.636719 "/>
</g>
</svg>
