<?xml version="1.0" encoding="UTF-8"?>
<svg xmlns="http://www.w3.org/2000/svg" xmlns:xlink="http://www.w3.org/1999/xlink" width="32pt" height="32.000061pt" viewBox="0 0 32 32.000061" version="1.1">
<g id="surface1">
<path style=" stroke:none;fill-rule:nonzero;fill:rgb(100%,100%,100%);fill-opacity:1;" d="M 31 16 C 31 24.285156 24.285156 31 16 31 C 7.714844 31 1 24.285156 1 16 C 1 7.714844 7.714844 1 16 1 C 24.285156 1 31 7.714844 31 16 Z M 31 16 "/>
<path style=" stroke:none;fill-rule:evenodd;fill:rgb(0%,0%,0%);fill-opacity:1;" d="M 16.242188 4.523438 C 9.953125 4.386719 4.671875 9.429688 4.523438 15.714844 C 4.378906 22.054688 9.417969 27.332031 15.757812 27.476562 C 22.070312 27.617188 27.335938 22.5625 27.476562 16.226562 C 27.613281 9.933594 22.558594 4.664062 16.242188 4.523438 Z M 3 15.964844 C 3.011719 8.8125 8.871094 2.984375 16.035156 3 C 23.1875 3.015625 29.015625 8.871094 29 16.03125 C 28.984375 23.1875 23.125 29.015625 15.964844 29 C 8.8125 28.984375 2.988281 23.128906 3 15.964844 Z M 3 15.964844 "/>
<path style=" stroke:none;fill-rule:evenodd;fill:rgb(0%,0%,0%);fill-opacity:1;" d="M 7.578125 15.992188 C 7.570312 20.632812 11.328125 24.410156 15.976562 24.421875 C 20.636719 24.4375 24.417969 20.667969 24.421875 16.007812 C 24.425781 11.359375 20.667969 7.585938 16.023438 7.578125 C 11.359375 7.566406 7.585938 11.328125 7.578125 15.992188 Z M 25.953125 16.007812 C 25.941406 21.484375 21.445312 25.96875 15.984375 25.953125 C 10.507812 25.9375 6.027344 21.433594 6.046875 15.976562 C 6.070312 10.507812 10.542969 6.046875 16.003906 6.046875 C 21.472656 6.050781 25.960938 10.546875 25.953125 16.007812 Z M 25.953125 16.007812 "/>
<path style=" stroke:none;fill-rule:evenodd;fill:rgb(100%,74.900818%,0%);fill-opacity:1;" d="M 7.578125 15.992188 C 7.585938 11.328125 11.359375 7.566406 16.023438 7.578125 C 20.667969 7.585938 24.425781 11.359375 24.421875 16.007812 C 24.417969 20.667969 20.636719 24.4375 15.976562 24.421875 C 11.328125 24.410156 7.570312 20.632812 7.578125 15.992188 Z M 7.578125 15.992188 "/>
<path style=" stroke:none;fill-rule:evenodd;fill:rgb(0%,0%,0%);fill-opacity:1;" d="M 14.917969 10.34375 L 17.011719 10.34375 L 17.011719 11.425781 C 18.125 11.675781 19.097656 12.089844 19.785156 13.054688 C 19.28125 13.523438 18.785156 13.984375 18.292969 14.441406 C 16.875 13.277344 15.457031 13.222656 14.503906 14.265625 C 13.566406 15.289062 13.609375 17.179688 14.59375 18.128906 C 15.574219 19.078125 17.015625 18.984375 18.242188 17.847656 C 18.746094 18.308594 19.253906 18.777344 19.789062 19.269531 C 19.113281 20.265625 18.132812 20.65625 17.050781 20.894531 C 17.03125 21.226562 17.015625 21.53125 16.996094 21.875 C 16.34375 21.875 15.710938 21.875 15.078125 21.875 C 15.050781 21.839844 14.992188 21.804688 14.996094 21.777344 C 15.097656 21.015625 14.691406 20.742188 14.027344 20.449219 C 12.222656 19.664062 11.417969 18.136719 11.394531 16.226562 C 11.375 14.34375 12.125 12.804688 13.867188 11.960938 C 14.589844 11.609375 15.222656 11.367188 14.917969 10.34375 Z M 14.917969 10.34375 "/>
</g>
</svg>
