<?xml version="1.0" encoding="UTF-8"?>
<svg xmlns="http://www.w3.org/2000/svg" xmlns:xlink="http://www.w3.org/1999/xlink" width="24pt" height="24pt" viewBox="0 0 24 24" version="1.1">
<defs>
<clipPath id="clip1">
  <path d="M 0 1 L 24 1 L 24 24 L 0 24 Z M 0 1 "/>
</clipPath>
<clipPath id="clip2">
  <path d="M 10.5 12.972656 L 10.5 23.472656 L 3 23.472656 C 2.171875 23.472656 1.5 22.800781 1.5 21.972656 L 1.5 12.972656 Z M 22.5 12.972656 L 22.5 21.972656 C 22.5 22.800781 21.828125 23.472656 21 23.472656 L 13.5 23.472656 L 13.5 12.972656 Z M 14.191406 1.886719 C 15.367188 0.707031 17.414062 0.703125 18.589844 1.886719 C 19.800781 3.105469 19.800781 5.085938 18.589844 6.300781 C 18.386719 6.507812 18.09375 6.738281 17.753906 6.972656 L 22.5 6.972656 C 23.328125 6.972656 24 7.644531 24 8.472656 L 24 10.722656 C 24 11.136719 23.664062 11.472656 23.25 11.472656 L 13.5 11.472656 L 13.5 8.472656 L 10.5 8.472656 L 10.5 11.472656 L 0.75 11.472656 C 0.335938 11.472656 0 11.136719 0 10.722656 L 0 8.472656 C 0 7.644531 0.671875 6.972656 1.5 6.972656 L 6.246094 6.972656 C 5.90625 6.738281 5.613281 6.507812 5.40625 6.300781 C 4.199219 5.085938 4.199219 3.105469 5.410156 1.886719 C 6.582031 0.707031 8.632812 0.707031 9.808594 1.886719 C 10.457031 2.539062 12.183594 5.195312 11.945312 6.972656 L 12.054688 6.972656 C 11.816406 5.195312 13.539062 2.539062 14.191406 1.886719 Z M 7.609375 2.472656 C 7.179688 2.472656 6.777344 2.640625 6.472656 2.945312 C 5.84375 3.578125 5.84375 4.609375 6.472656 5.242188 C 7.117188 5.894531 9.097656 6.972656 10.132812 6.972656 C 10.347656 6.972656 10.410156 6.921875 10.410156 6.921875 C 10.761719 6.558594 9.757812 3.960938 8.746094 2.945312 C 8.441406 2.640625 8.035156 2.472656 7.609375 2.472656 Z M 17.527344 2.945312 C 16.917969 2.332031 15.859375 2.335938 15.253906 2.945312 C 14.242188 3.960938 13.238281 6.558594 13.589844 6.921875 C 13.589844 6.921875 13.652344 6.972656 13.863281 6.972656 C 14.902344 6.972656 16.882812 5.894531 17.527344 5.242188 C 18.15625 4.609375 18.15625 3.578125 17.527344 2.945312 Z M 17.527344 2.945312 "/>
</clipPath>
</defs>
<g id="surface1">
<g clip-path="url(#clip1)" clip-rule="nonzero">
<g clip-path="url(#clip2)" clip-rule="evenodd">
<rect x="0" y="0" width="24" height="24" style="fill:rgb(90.196228%,90.196228%,90.196228%);fill-opacity:1;stroke:none;"/>
</g>
</g>
</g>
</svg>
