<?xml version="1.0" encoding="UTF-8"?>
<svg xmlns="http://www.w3.org/2000/svg" xmlns:xlink="http://www.w3.org/1999/xlink" width="24pt" height="24pt" viewBox="0 0 24 24" version="1.1">
<defs>
<clipPath id="clip1">
  <path d="M 2 2 L 22 2 L 22 22 L 2 22 Z M 2 2 "/>
</clipPath>
<clipPath id="clip2">
  <path d="M 12 2 C 10.625 2 9.332031 2.261719 8.113281 2.785156 C 6.894531 3.308594 5.832031 4.023438 4.925781 4.929688 C 4.023438 5.835938 3.308594 6.894531 2.785156 8.109375 C 2.261719 9.320312 2 10.613281 2 11.988281 C 2 13.378906 2.261719 14.679688 2.785156 15.890625 C 3.308594 17.105469 4.023438 18.164062 4.925781 19.070312 C 5.832031 19.976562 6.894531 20.691406 8.113281 21.214844 C 9.332031 21.738281 10.625 22 12 22 C 13.375 22 14.667969 21.738281 15.886719 21.214844 C 17.105469 20.691406 18.167969 19.976562 19.074219 19.070312 C 19.976562 18.164062 20.691406 17.105469 21.214844 15.890625 C 21.738281 14.679688 22 13.378906 22 11.988281 C 22 10.613281 21.738281 9.320312 21.214844 8.109375 C 20.691406 6.894531 19.976562 5.835938 19.074219 4.929688 C 18.167969 4.023438 17.105469 3.308594 15.886719 2.785156 C 14.667969 2.261719 13.375 2 12 2 Z M 12 2 "/>
</clipPath>
<clipPath id="clip3">
  <path d="M 2 2 L 22 2 L 22 22 L 2 22 Z M 2 2 "/>
</clipPath>
<clipPath id="clip4">
  <path d="M 12 2 C 10.625 2 9.332031 2.261719 8.113281 2.785156 C 6.894531 3.308594 5.832031 4.023438 4.925781 4.929688 C 4.023438 5.835938 3.308594 6.894531 2.785156 8.109375 C 2.261719 9.320312 2 10.613281 2 11.988281 C 2 13.378906 2.261719 14.679688 2.785156 15.890625 C 3.308594 17.105469 4.023438 18.164062 4.925781 19.070312 C 5.832031 19.976562 6.894531 20.691406 8.113281 21.214844 C 9.332031 21.738281 10.625 22 12 22 C 13.375 22 14.667969 21.738281 15.886719 21.214844 C 17.105469 20.691406 18.167969 19.976562 19.074219 19.070312 C 19.976562 18.164062 20.691406 17.105469 21.214844 15.890625 C 21.738281 14.679688 22 13.378906 22 11.988281 C 22 10.613281 21.738281 9.320312 21.214844 8.109375 C 20.691406 6.894531 19.976562 5.835938 19.074219 4.929688 C 18.167969 4.023438 17.105469 3.308594 15.886719 2.785156 C 14.667969 2.261719 13.375 2 12 2 Z M 13.007812 10.019531 L 13.007812 17.007812 L 10.992188 17.007812 L 10.992188 11.003906 L 10.007812 11.003906 L 10.007812 9.996094 L 13.007812 9.996094 Z M 12 8.988281 C 11.71875 8.988281 11.480469 8.890625 11.285156 8.695312 C 11.089844 8.5 10.992188 8.269531 10.992188 8.003906 C 10.992188 7.722656 11.089844 7.484375 11.285156 7.289062 C 11.480469 7.09375 11.71875 6.992188 12 6.992188 C 12.28125 6.992188 12.519531 7.09375 12.714844 7.289062 C 12.910156 7.484375 13.007812 7.722656 13.007812 8.003906 C 13.007812 8.269531 12.910156 8.5 12.714844 8.695312 C 12.519531 8.890625 12.28125 8.988281 12 8.988281 Z M 12 8.988281 "/>
</clipPath>
</defs>
<g id="surface1">
<g clip-path="url(#clip1)" clip-rule="nonzero">
<g clip-path="url(#clip2)" clip-rule="evenodd">
<rect x="0" y="0" width="24" height="24" style="fill:rgb(7.450867%,7.450867%,7.450867%);fill-opacity:1;stroke:none;"/>
</g>
</g>
<g clip-path="url(#clip3)" clip-rule="nonzero">
<g clip-path="url(#clip4)" clip-rule="evenodd">
<rect x="0" y="0" width="24" height="24" style="fill:rgb(100%,83.529663%,0%);fill-opacity:1;stroke:none;"/>
</g>
</g>
</g>
</svg>
