<?xml version="1.0" encoding="UTF-8"?>
<svg xmlns="http://www.w3.org/2000/svg" xmlns:xlink="http://www.w3.org/1999/xlink" width="32pt" height="32pt" viewBox="0 0 32 32" version="1.1">
<g id="surface1">
<path style=" stroke:none;fill-rule:nonzero;fill:rgb(41.567993%,70.195007%,21.176147%);fill-opacity:1;" d="M 26 6.285156 L 6 6.285156 C 3.789062 6.285156 2 8.078125 2 10.285156 L 2 22.285156 C 2 24.496094 3.789062 26.285156 6 26.285156 L 26 26.285156 C 28.210938 26.285156 30 24.496094 30 22.285156 L 30 10.285156 C 30 8.078125 28.210938 6.285156 26 6.285156 Z M 26 6.285156 "/>
<path style=" stroke:none;fill-rule:nonzero;fill:rgb(41.567993%,70.195007%,21.176147%);fill-opacity:0.5;" d="M 22 2 L 10 2 C 7.789062 2 6 3.789062 6 6 L 6 26 C 6 28.210938 7.789062 30 10 30 L 22 30 C 24.210938 30 26 28.210938 26 26 L 26 6 C 26 3.789062 24.210938 2 22 2 Z M 22 2 "/>
<path style=" stroke:none;fill-rule:nonzero;fill:rgb(100%,100%,100%);fill-opacity:1;" d="M 16.519531 23 L 16.519531 21.40625 C 17.617188 21.308594 18.472656 21.007812 19.082031 20.507812 C 19.695312 20.007812 20 19.347656 20 18.523438 C 20 18.066406 19.898438 17.667969 19.691406 17.328125 C 19.488281 16.984375 19.167969 16.671875 18.730469 16.386719 C 18.289062 16.101562 17.554688 15.765625 16.519531 15.378906 L 16.519531 13.085938 C 17.390625 13.15625 18.238281 13.359375 19.066406 13.691406 L 19.816406 11.871094 C 18.835938 11.449219 17.734375 11.210938 16.519531 11.15625 L 16.519531 10 L 15.425781 10 L 15.425781 11.1875 C 14.347656 11.292969 13.507812 11.585938 12.90625 12.070312 C 12.300781 12.554688 12 13.171875 12 13.925781 C 12 14.625 12.21875 15.210938 12.65625 15.683594 C 13.09375 16.15625 13.839844 16.597656 14.890625 17 L 15.425781 17.203125 L 15.425781 19.613281 C 14.917969 19.582031 14.335938 19.480469 13.683594 19.308594 C 13.035156 19.136719 12.476562 18.941406 12.015625 18.71875 L 12.015625 20.769531 C 12.992188 21.191406 14.128906 21.414062 15.425781 21.4375 L 15.425781 23 Z M 15.425781 14.941406 C 15.066406 14.785156 14.804688 14.636719 14.640625 14.488281 C 14.480469 14.339844 14.398438 14.152344 14.398438 13.925781 C 14.398438 13.484375 14.742188 13.214844 15.425781 13.117188 Z M 16.519531 19.558594 L 16.519531 17.621094 C 16.878906 17.785156 17.148438 17.9375 17.332031 18.089844 C 17.511719 18.238281 17.601562 18.421875 17.601562 18.640625 C 17.601562 19.132812 17.242188 19.4375 16.519531 19.558594 Z M 16.519531 19.558594 "/>
</g>
</svg>
