<?xml version="1.0" encoding="UTF-8"?>
<svg xmlns="http://www.w3.org/2000/svg" xmlns:xlink="http://www.w3.org/1999/xlink" width="52pt" height="52pt" viewBox="0 0 52 52" version="1.1">
<defs>
<clipPath id="clip1">
  <path d="M 6 7 L 47 7 L 47 46 L 6 46 Z M 6 7 "/>
</clipPath>
<clipPath id="clip2">
  <path d="M 44.976562 20.234375 L 33.539062 18.707031 L 28.613281 8.332031 C 28.0625 7.171875 26.671875 6.675781 25.503906 7.222656 C 25.011719 7.449219 24.617188 7.84375 24.386719 8.332031 L 19.460938 18.707031 L 8.023438 20.234375 C 6.746094 20.402344 5.847656 21.570312 6.019531 22.835938 C 6.09375 23.367188 6.347656 23.855469 6.742188 24.222656 L 15.132812 31.992188 L 12.980469 43.253906 C 12.742188 44.507812 13.574219 45.722656 14.84375 45.960938 C 15.378906 46.058594 15.929688 45.972656 16.40625 45.710938 L 26.5 40.175781 L 36.59375 45.710938 C 37.722656 46.328125 39.144531 45.921875 39.769531 44.804688 C 40.03125 44.332031 40.121094 43.78125 40.019531 43.253906 L 37.867188 31.992188 L 46.257812 24.222656 C 47.203125 23.347656 47.25 21.882812 46.371094 20.945312 C 46.003906 20.554688 45.511719 20.304688 44.976562 20.234375 Z M 44.976562 20.234375 "/>
</clipPath>
</defs>
<g id="surface1">
<g clip-path="url(#clip1)" clip-rule="nonzero">
<g clip-path="url(#clip2)" clip-rule="evenodd">
<path style=" stroke:none;fill-rule:nonzero;fill:rgb(100%,83.529663%,0%);fill-opacity:1;" d="M 1 2 L 52 2 L 52 51 L 1 51 Z M 1 2 "/>
</g>
</g>
</g>
</svg>
