<?xml version="1.0" encoding="UTF-8"?>
<svg xmlns="http://www.w3.org/2000/svg" xmlns:xlink="http://www.w3.org/1999/xlink" width="96pt" height="32pt" viewBox="0 0 96 32" version="1.1">
<g id="surface1">
<rect x="0" y="0" width="96" height="32" style="fill:rgb(100%,100%,100%);fill-opacity:1;stroke:none;"/>
<path style=" stroke:none;fill-rule:evenodd;fill:rgb(96.861267%,58.03833%,11.764526%);fill-opacity:1;" d="M 11.769531 18.058594 L 12.449219 19.90625 L 12.445312 19.910156 L 12.449219 19.910156 L 13.0625 21.574219 L 12.945312 21.597656 C 12.90625 21.605469 12.867188 21.613281 12.828125 21.617188 C 12.789062 21.625 12.75 21.632812 12.710938 21.640625 L 12.59375 21.660156 L 12.476562 21.675781 C 12.433594 21.683594 12.394531 21.6875 12.355469 21.691406 C 12.316406 21.699219 12.277344 21.703125 12.238281 21.707031 C 12.199219 21.710938 12.15625 21.714844 12.117188 21.722656 L 11.996094 21.734375 C 11.957031 21.738281 11.917969 21.742188 11.875 21.746094 C 11.835938 21.75 11.796875 21.753906 11.757812 21.753906 L 11.695312 21.757812 L 11.511719 21.773438 C 11.472656 21.773438 11.429688 21.777344 11.390625 21.777344 C 11.347656 21.78125 11.308594 21.78125 11.265625 21.78125 L 11.207031 21.785156 L 11.144531 21.785156 C 11.101562 21.789062 11.0625 21.789062 11.019531 21.789062 C 10.980469 21.789062 10.9375 21.789062 10.894531 21.789062 L 9.917969 19.121094 L 10.023438 19.078125 L 10.132812 19.03125 C 10.167969 19.019531 10.203125 19 10.242188 18.984375 C 10.277344 18.96875 10.3125 18.953125 10.347656 18.9375 L 10.402344 18.914062 L 10.453125 18.886719 C 10.488281 18.871094 10.523438 18.851562 10.558594 18.835938 C 10.59375 18.816406 10.628906 18.800781 10.664062 18.78125 L 10.769531 18.726562 C 10.800781 18.707031 10.835938 18.6875 10.871094 18.667969 C 10.90625 18.648438 10.941406 18.628906 10.972656 18.609375 C 11.007812 18.585938 11.042969 18.566406 11.078125 18.546875 C 11.109375 18.527344 11.144531 18.503906 11.175781 18.484375 C 11.210938 18.460938 11.246094 18.441406 11.277344 18.417969 C 11.3125 18.394531 11.34375 18.371094 11.378906 18.351562 L 11.476562 18.28125 C 11.511719 18.257812 11.542969 18.234375 11.574219 18.210938 C 11.609375 18.183594 11.640625 18.160156 11.671875 18.132812 C 11.707031 18.109375 11.738281 18.082031 11.769531 18.058594 Z M 5.546875 17.019531 L 8.433594 18.160156 C 8.484375 18.222656 8.539062 18.28125 8.59375 18.339844 L 8.6875 18.4375 L 8.785156 18.53125 C 8.859375 18.601562 8.9375 18.671875 9.019531 18.738281 C 9.125 18.824219 9.234375 18.90625 9.34375 18.980469 C 9.460938 19.0625 9.585938 19.132812 9.707031 19.199219 L 9.75 19.183594 L 9.808594 19.164062 C 9.84375 19.148438 9.878906 19.136719 9.917969 19.121094 L 10.894531 21.789062 L 10.644531 21.789062 C 10.605469 21.789062 10.5625 21.785156 10.519531 21.785156 L 9.605469 19.285156 C 9.605469 19.285156 9.601562 19.289062 9.601562 19.289062 L 10.519531 21.785156 L 10.394531 21.78125 C 10.351562 21.777344 10.308594 21.777344 10.265625 21.777344 L 9.378906 19.359375 L 10.265625 21.777344 L 10.140625 21.769531 C 10.097656 21.765625 10.054688 21.761719 10.011719 21.757812 C 9.96875 21.757812 9.925781 21.753906 9.882812 21.75 C 9.839844 21.746094 9.796875 21.742188 9.753906 21.738281 C 9.710938 21.734375 9.667969 21.730469 9.625 21.726562 L 9.496094 21.710938 L 8.6875 19.507812 L 9.496094 21.710938 L 9.367188 21.695312 L 9.234375 21.679688 L 9.167969 21.667969 L 8.96875 21.636719 L 8.210938 19.574219 L 8.96875 21.636719 C 8.925781 21.632812 8.882812 21.625 8.835938 21.617188 C 8.792969 21.609375 8.75 21.601562 8.703125 21.59375 C 8.660156 21.585938 8.613281 21.574219 8.570312 21.566406 C 8.523438 21.558594 8.480469 21.550781 8.4375 21.539062 C 8.390625 21.53125 8.34375 21.519531 8.300781 21.511719 L 8.164062 21.480469 L 7.492188 19.644531 C 7.53125 19.644531 7.574219 19.640625 7.613281 19.636719 C 7.640625 19.636719 7.667969 19.632812 7.695312 19.628906 C 7.660156 19.605469 7.617188 19.578125 7.578125 19.546875 C 7.464844 19.46875 7.355469 19.386719 7.25 19.304688 C 7.164062 19.234375 7.074219 19.160156 6.988281 19.085938 L 8.214844 19.570312 L 6.988281 19.085938 C 6.914062 19.019531 6.84375 18.953125 6.773438 18.882812 L 8.417969 19.535156 L 6.773438 18.882812 C 6.710938 18.824219 6.648438 18.761719 6.585938 18.695312 C 6.53125 18.636719 6.480469 18.578125 6.429688 18.519531 C 6.382812 18.460938 6.335938 18.40625 6.289062 18.347656 L 8.988281 19.414062 L 6.289062 18.347656 C 6.246094 18.292969 6.207031 18.238281 6.164062 18.183594 C 6.128906 18.132812 6.09375 18.078125 6.058594 18.027344 C 6.023438 17.976562 5.992188 17.925781 5.960938 17.871094 C 5.929688 17.824219 5.898438 17.773438 5.871094 17.722656 C 5.84375 17.675781 5.820312 17.625 5.792969 17.578125 C 5.769531 17.53125 5.746094 17.480469 5.722656 17.433594 C 5.699219 17.386719 5.679688 17.339844 5.660156 17.292969 C 5.636719 17.246094 5.617188 17.203125 5.601562 17.15625 C 5.582031 17.109375 5.566406 17.066406 5.546875 17.019531 Z M 13.351562 19.65625 L 13.972656 21.34375 L 13.917969 21.359375 L 13.859375 21.378906 L 13.746094 21.410156 C 13.710938 21.421875 13.671875 21.429688 13.636719 21.441406 C 13.597656 21.453125 13.558594 21.460938 13.519531 21.46875 C 13.484375 21.480469 13.445312 21.488281 13.40625 21.5 C 13.367188 21.507812 13.332031 21.515625 13.292969 21.527344 C 13.253906 21.535156 13.214844 21.542969 13.175781 21.550781 L 13.0625 21.574219 L 12.449219 19.910156 C 12.488281 19.898438 12.523438 19.890625 12.5625 19.882812 C 12.601562 19.871094 12.640625 19.863281 12.679688 19.851562 C 12.714844 19.84375 12.753906 19.832031 12.792969 19.824219 C 12.828125 19.8125 12.867188 19.800781 12.90625 19.792969 C 12.941406 19.78125 12.980469 19.769531 13.019531 19.757812 L 13.128906 19.726562 C 13.167969 19.714844 13.203125 19.703125 13.242188 19.691406 C 13.28125 19.679688 13.316406 19.667969 13.351562 19.65625 Z M 3.09375 18.003906 L 5.15625 18.820312 C 5.179688 18.867188 5.203125 18.914062 5.230469 18.964844 C 5.253906 19.011719 5.285156 19.0625 5.3125 19.113281 C 5.34375 19.160156 5.375 19.210938 5.40625 19.261719 C 5.4375 19.316406 5.472656 19.367188 5.507812 19.417969 C 5.546875 19.472656 5.582031 19.527344 5.621094 19.578125 L 5.625 19.585938 L 5.664062 19.589844 C 5.683594 19.589844 5.707031 19.59375 5.726562 19.597656 L 5.921875 19.617188 L 5.988281 19.625 L 6.050781 19.628906 L 6.117188 19.636719 L 6.179688 19.640625 L 6.308594 19.648438 L 6.433594 19.65625 L 6.5 19.65625 C 6.539062 19.660156 6.582031 19.660156 6.625 19.660156 L 7.171875 21.152344 L 6.625 19.660156 L 6.6875 19.664062 L 7.125 19.664062 C 7.164062 19.660156 7.207031 19.660156 7.246094 19.660156 L 7.371094 19.652344 L 7.367188 19.652344 L 7.492188 19.644531 L 8.164062 21.480469 C 8.117188 21.46875 8.074219 21.457031 8.027344 21.445312 L 7.957031 21.429688 L 7.753906 21.375 L 7.613281 21.335938 L 7.472656 21.292969 C 7.425781 21.28125 7.378906 21.265625 7.332031 21.25 C 7.285156 21.234375 7.238281 21.222656 7.191406 21.207031 C 7.144531 21.191406 7.09375 21.171875 7.046875 21.15625 L 6.90625 21.105469 L 6.761719 21.050781 L 6.613281 20.996094 L 6.46875 20.9375 L 6.320312 20.875 C 6.273438 20.851562 6.222656 20.832031 6.171875 20.808594 L 5.757812 19.675781 L 6.171875 20.808594 C 6.125 20.789062 6.074219 20.765625 6.023438 20.742188 L 5.871094 20.667969 L 5.472656 19.582031 L 5.871094 20.667969 C 5.820312 20.644531 5.769531 20.617188 5.71875 20.59375 L 5.566406 20.511719 C 5.515625 20.488281 5.460938 20.460938 5.410156 20.429688 C 5.359375 20.402344 5.304688 20.371094 5.253906 20.34375 C 5.199219 20.3125 5.148438 20.28125 5.09375 20.25 C 5.039062 20.214844 4.988281 20.183594 4.933594 20.152344 C 4.878906 20.117188 4.824219 20.082031 4.769531 20.046875 L 4.535156 19.40625 L 4.769531 20.046875 C 4.714844 20.011719 4.660156 19.972656 4.605469 19.9375 C 4.550781 19.898438 4.496094 19.859375 4.4375 19.820312 C 4.382812 19.78125 4.324219 19.742188 4.269531 19.699219 C 4.210938 19.65625 4.152344 19.609375 4.097656 19.566406 C 4.035156 19.519531 3.976562 19.472656 3.917969 19.425781 L 3.738281 19.277344 L 3.738281 19.273438 L 3.660156 19.207031 C 3.632812 19.183594 3.605469 19.160156 3.578125 19.136719 C 3.574219 19.128906 3.566406 19.117188 3.558594 19.109375 C 3.523438 19.058594 3.488281 19.003906 3.453125 18.953125 C 3.425781 18.902344 3.398438 18.855469 3.371094 18.804688 L 5.175781 19.519531 C 5.179688 19.519531 5.179688 19.519531 5.183594 19.519531 L 3.371094 18.804688 C 3.347656 18.757812 3.324219 18.710938 3.300781 18.660156 C 3.28125 18.617188 3.261719 18.570312 3.246094 18.523438 C 3.226562 18.480469 3.210938 18.433594 3.195312 18.390625 C 3.183594 18.347656 3.167969 18.304688 3.15625 18.257812 C 3.144531 18.214844 3.132812 18.175781 3.121094 18.128906 C 3.113281 18.089844 3.101562 18.046875 3.09375 18.003906 Z M 13.464844 19.617188 L 14.085938 21.308594 C 14.046875 21.320312 14.011719 21.332031 13.972656 21.34375 L 13.351562 19.65625 Z M 13.574219 19.578125 L 14.195312 21.273438 C 14.160156 21.285156 14.121094 21.296875 14.085938 21.308594 L 13.464844 19.617188 Z M 13.792969 19.492188 L 14.417969 21.191406 C 14.378906 21.207031 14.34375 21.21875 14.308594 21.234375 C 14.269531 21.246094 14.234375 21.257812 14.195312 21.273438 L 13.574219 19.578125 C 13.609375 19.5625 13.648438 19.550781 13.683594 19.535156 Z M 14.425781 19.183594 L 15.0625 20.917969 L 15.011719 20.941406 L 14.957031 20.96875 C 14.921875 20.984375 14.886719 21 14.851562 21.015625 C 14.816406 21.035156 14.777344 21.046875 14.742188 21.0625 L 14.6875 21.085938 L 14.636719 21.109375 C 14.597656 21.125 14.5625 21.136719 14.527344 21.152344 C 14.488281 21.164062 14.453125 21.179688 14.417969 21.191406 L 13.792969 19.492188 C 13.828125 19.476562 13.863281 19.460938 13.898438 19.445312 C 13.9375 19.429688 13.972656 19.414062 14.007812 19.398438 C 14.042969 19.382812 14.078125 19.367188 14.113281 19.347656 C 14.148438 19.332031 14.183594 19.3125 14.21875 19.296875 C 14.253906 19.277344 14.289062 19.257812 14.324219 19.242188 Z M 15.304688 18.519531 L 15.980469 20.359375 C 15.949219 20.382812 15.914062 20.40625 15.882812 20.429688 L 15.785156 20.5 C 15.75 20.523438 15.71875 20.546875 15.683594 20.570312 C 15.648438 20.589844 15.617188 20.613281 15.582031 20.632812 L 15.53125 20.664062 L 15.378906 20.753906 L 15.273438 20.808594 C 15.238281 20.828125 15.203125 20.847656 15.167969 20.863281 C 15.132812 20.882812 15.097656 20.898438 15.0625 20.917969 L 14.425781 19.183594 C 14.460938 19.164062 14.496094 19.144531 14.527344 19.121094 C 14.5625 19.101562 14.597656 19.082031 14.628906 19.058594 C 14.664062 19.035156 14.699219 19.015625 14.730469 18.992188 L 14.828125 18.921875 C 14.863281 18.898438 14.894531 18.871094 14.925781 18.847656 C 14.960938 18.824219 14.992188 18.796875 15.023438 18.773438 L 15.070312 18.730469 L 15.117188 18.691406 C 15.148438 18.664062 15.179688 18.636719 15.210938 18.605469 Z M 15.484375 18.328125 L 16.171875 20.203125 C 16.140625 20.230469 16.109375 20.257812 16.078125 20.28125 C 16.046875 20.308594 16.011719 20.335938 15.980469 20.359375 L 15.304688 18.519531 C 15.335938 18.488281 15.367188 18.457031 15.394531 18.425781 C 15.425781 18.394531 15.453125 18.363281 15.484375 18.328125 Z M 17.089844 15.933594 L 17.097656 15.992188 L 17.101562 16.054688 L 17.109375 16.117188 L 17.121094 16.238281 L 17.128906 16.363281 L 17.136719 16.425781 L 17.144531 16.613281 L 17.148438 16.675781 L 17.152344 16.742188 L 17.15625 16.804688 C 17.15625 16.847656 17.15625 16.890625 17.160156 16.933594 L 17.160156 17.199219 L 17.15625 17.464844 C 17.15625 17.511719 17.152344 17.554688 17.148438 17.601562 C 17.148438 17.648438 17.144531 17.691406 17.144531 17.738281 L 17.125 18.019531 L 17.109375 18.164062 C 17.105469 18.210938 17.101562 18.257812 17.09375 18.304688 C 17.089844 18.355469 17.082031 18.40625 17.074219 18.453125 L 16.84375 18.636719 L 17.074219 18.453125 C 17.070312 18.503906 17.0625 18.550781 17.054688 18.601562 L 16.871094 18.746094 L 16.871094 18.75 L 17.054688 18.601562 C 17.027344 18.792969 16.992188 18.984375 16.953125 19.175781 C 16.949219 19.191406 16.941406 19.207031 16.933594 19.21875 C 16.910156 19.269531 16.886719 19.316406 16.863281 19.363281 L 16.863281 19.367188 C 16.839844 19.410156 16.8125 19.453125 16.785156 19.496094 L 16.785156 19.5 C 16.761719 19.539062 16.734375 19.578125 16.707031 19.621094 C 16.679688 19.65625 16.652344 19.695312 16.621094 19.730469 C 16.59375 19.765625 16.566406 19.804688 16.535156 19.835938 C 16.507812 19.871094 16.480469 19.90625 16.449219 19.9375 L 16.359375 20.03125 L 16.171875 20.203125 L 15.484375 18.328125 C 15.515625 18.296875 15.542969 18.261719 15.570312 18.226562 C 15.601562 18.195312 15.628906 18.15625 15.65625 18.121094 C 15.6875 18.085938 15.714844 18.050781 15.742188 18.011719 C 15.769531 17.972656 15.796875 17.933594 15.824219 17.894531 C 15.851562 17.855469 15.878906 17.816406 15.902344 17.773438 C 15.929688 17.734375 15.957031 17.691406 15.980469 17.648438 C 16.007812 17.605469 16.035156 17.558594 16.058594 17.515625 C 16.082031 17.46875 16.109375 17.421875 16.132812 17.375 L 16.203125 17.234375 C 16.226562 17.183594 16.25 17.132812 16.273438 17.082031 L 16.277344 17.074219 L 16.289062 17.097656 C 16.273438 17.0625 16.261719 17.03125 16.246094 16.996094 C 16.234375 16.964844 16.21875 16.929688 16.203125 16.898438 L 16.117188 16.707031 Z M 12.148438 17.730469 L 12.855469 19.65625 L 12.753906 19.722656 L 12.652344 19.785156 C 12.621094 19.804688 12.585938 19.828125 12.550781 19.847656 C 12.519531 19.867188 12.484375 19.886719 12.449219 19.90625 L 11.769531 18.058594 L 11.816406 18.019531 L 11.914062 17.941406 L 11.960938 17.898438 C 11.992188 17.871094 12.023438 17.84375 12.054688 17.816406 Z M 12.242188 17.644531 L 12.957031 19.589844 C 12.921875 19.613281 12.890625 19.632812 12.855469 19.65625 L 12.148438 17.730469 Z M 12.511719 17.363281 L 13.25 19.375 L 13.152344 19.449219 L 13.054688 19.519531 C 13.023438 19.542969 12.988281 19.566406 12.957031 19.589844 L 12.242188 17.644531 C 12.269531 17.613281 12.300781 17.582031 12.332031 17.550781 L 12.429688 17.820312 L 12.332031 17.550781 C 12.363281 17.523438 12.390625 17.492188 12.421875 17.460938 C 12.453125 17.425781 12.484375 17.394531 12.511719 17.363281 Z M 12.941406 16.835938 L 13.726562 18.972656 C 13.695312 19 13.664062 19.027344 13.632812 19.054688 L 13.632812 19.058594 C 13.601562 19.085938 13.570312 19.113281 13.539062 19.140625 L 13.492188 19.179688 L 13.445312 19.222656 L 13.347656 19.300781 C 13.316406 19.324219 13.28125 19.351562 13.25 19.375 L 12.511719 17.363281 L 12.554688 17.3125 L 12.601562 17.261719 C 12.628906 17.230469 12.660156 17.195312 12.6875 17.160156 C 12.714844 17.125 12.746094 17.089844 12.773438 17.054688 L 13.128906 18.027344 L 12.773438 17.054688 L 12.859375 16.945312 L 13.007812 17.359375 L 12.859375 16.945312 C 12.886719 16.910156 12.914062 16.871094 12.941406 16.835938 Z M 13.023438 16.71875 L 13.816406 18.882812 C 13.785156 18.910156 13.757812 18.941406 13.726562 18.972656 L 12.941406 16.835938 C 12.96875 16.796875 12.996094 16.757812 13.023438 16.71875 Z M 13.101562 16.597656 L 13.910156 18.789062 C 13.878906 18.820312 13.847656 18.851562 13.816406 18.882812 L 13.023438 16.71875 Z M 3.050781 17.757812 L 5.027344 18.539062 C 5.046875 18.585938 5.066406 18.632812 5.089844 18.679688 C 5.109375 18.726562 5.132812 18.773438 5.15625 18.820312 L 3.09375 18.003906 C 3.085938 17.964844 3.078125 17.921875 3.070312 17.878906 C 3.0625 17.839844 3.054688 17.796875 3.050781 17.757812 Z M 13.183594 16.472656 L 14 18.695312 C 13.96875 18.726562 13.9375 18.757812 13.910156 18.789062 L 13.105469 16.597656 C 13.128906 16.554688 13.15625 16.515625 13.183594 16.472656 Z M 13.917969 14.402344 L 14.945312 17.199219 L 14.914062 17.28125 L 14.878906 17.359375 C 14.855469 17.410156 14.832031 17.457031 14.808594 17.507812 C 14.785156 17.554688 14.761719 17.605469 14.738281 17.652344 C 14.710938 17.695312 14.6875 17.742188 14.664062 17.789062 L 14.625 17.851562 L 14.585938 17.917969 L 14.507812 18.042969 C 14.480469 18.082031 14.453125 18.121094 14.425781 18.160156 C 14.398438 18.199219 14.371094 18.238281 14.34375 18.277344 C 14.316406 18.3125 14.289062 18.351562 14.257812 18.386719 C 14.230469 18.421875 14.203125 18.457031 14.171875 18.492188 C 14.144531 18.527344 14.117188 18.5625 14.085938 18.597656 C 14.058594 18.628906 14.027344 18.664062 14 18.695312 L 13.183594 16.472656 C 13.207031 16.429688 13.234375 16.386719 13.257812 16.34375 C 13.285156 16.300781 13.3125 16.253906 13.335938 16.210938 L 13.410156 16.070312 C 13.433594 16.023438 13.457031 15.972656 13.480469 15.925781 C 13.503906 15.875 13.527344 15.824219 13.546875 15.773438 L 13.613281 15.613281 C 13.636719 15.554688 13.65625 15.5 13.675781 15.445312 C 13.699219 15.382812 13.71875 15.324219 13.734375 15.265625 C 13.753906 15.203125 13.773438 15.140625 13.789062 15.074219 C 13.808594 15.007812 13.824219 14.941406 13.839844 14.871094 C 13.859375 14.796875 13.871094 14.726562 13.882812 14.652344 L 13.882812 14.648438 C 13.898438 14.566406 13.910156 14.484375 13.917969 14.402344 Z M 3.035156 17.636719 L 4.976562 18.402344 C 4.992188 18.449219 5.007812 18.492188 5.027344 18.539062 L 3.050781 17.757812 C 3.042969 17.714844 3.039062 17.675781 3.035156 17.636719 Z M 3.023438 16.480469 L 4.734375 17.15625 L 4.742188 17.273438 L 4.75 17.394531 C 4.753906 17.433594 4.757812 17.472656 4.761719 17.511719 C 4.765625 17.554688 4.769531 17.59375 4.777344 17.636719 C 4.785156 17.675781 4.789062 17.71875 4.796875 17.757812 C 4.804688 17.800781 4.8125 17.839844 4.824219 17.882812 C 4.832031 17.925781 4.84375 17.96875 4.855469 18.011719 C 4.863281 18.050781 4.875 18.097656 4.886719 18.140625 C 4.902344 18.183594 4.914062 18.226562 4.929688 18.269531 C 4.945312 18.3125 4.960938 18.359375 4.976562 18.402344 L 3.035156 17.636719 C 3.03125 17.59375 3.023438 17.554688 3.019531 17.515625 C 3.015625 17.476562 3.015625 17.4375 3.011719 17.398438 L 3.003906 17.277344 C 3.003906 17.242188 3.003906 17.203125 3 17.164062 L 3 16.933594 C 3 16.894531 3.003906 16.855469 3.003906 16.816406 C 3.003906 16.78125 3.007812 16.742188 3.007812 16.703125 C 3.011719 16.667969 3.011719 16.628906 3.015625 16.59375 C 3.019531 16.554688 3.019531 16.519531 3.023438 16.480469 Z M 5.460938 16.753906 L 8.171875 17.828125 C 8.210938 17.882812 8.253906 17.9375 8.296875 17.992188 C 8.339844 18.050781 8.386719 18.105469 8.433594 18.160156 L 5.546875 17.019531 C 5.53125 16.976562 5.515625 16.929688 5.5 16.886719 C 5.488281 16.84375 5.472656 16.796875 5.460938 16.753906 Z M 5.234375 15.632812 L 7.46875 16.515625 L 7.496094 16.582031 L 7.523438 16.652344 C 7.542969 16.699219 7.5625 16.742188 7.582031 16.789062 C 7.605469 16.835938 7.625 16.882812 7.644531 16.929688 L 5.679688 16.152344 L 7.648438 16.929688 L 7.714844 17.070312 L 7.789062 17.214844 C 7.816406 17.265625 7.84375 17.316406 7.871094 17.363281 C 7.902344 17.414062 7.933594 17.464844 7.964844 17.515625 L 8.011719 17.59375 L 8.0625 17.667969 C 8.097656 17.722656 8.132812 17.777344 8.171875 17.828125 L 5.460938 16.753906 C 5.445312 16.710938 5.433594 16.667969 5.421875 16.625 C 5.410156 16.582031 5.398438 16.539062 5.386719 16.496094 C 5.375 16.453125 5.367188 16.410156 5.355469 16.367188 C 5.347656 16.328125 5.339844 16.285156 5.328125 16.242188 C 5.320312 16.203125 5.3125 16.160156 5.304688 16.117188 C 5.296875 16.078125 5.289062 16.035156 5.285156 15.996094 L 5.265625 15.871094 C 5.261719 15.832031 5.253906 15.792969 5.25 15.75 C 5.246094 15.710938 5.242188 15.671875 5.234375 15.632812 Z M 13.941406 13.785156 L 15.070312 16.859375 C 15.050781 16.917969 15.03125 16.976562 15.007812 17.035156 C 14.988281 17.089844 14.96875 17.144531 14.945312 17.199219 L 13.917969 14.402344 C 13.929688 14.308594 13.9375 14.214844 13.941406 14.125 C 13.945312 14.011719 13.945312 13.898438 13.941406 13.785156 Z M 3.058594 16.152344 L 4.738281 16.816406 C 4.738281 16.851562 4.738281 16.890625 4.734375 16.929688 L 4.734375 17.042969 C 4.734375 17.082031 4.734375 17.121094 4.734375 17.15625 L 3.023438 16.480469 C 3.027344 16.445312 3.03125 16.40625 3.035156 16.371094 C 3.039062 16.335938 3.042969 16.296875 3.046875 16.261719 C 3.050781 16.222656 3.054688 16.1875 3.058594 16.152344 Z M 15.933594 12.09375 C 15.949219 12.125 15.96875 12.15625 15.984375 12.1875 L 14.960938 12.996094 L 15.984375 12.1875 L 16.003906 12.234375 L 16.027344 12.28125 L 16.074219 12.378906 L 16.09375 12.429688 L 16.117188 12.476562 L 16.160156 12.574219 L 16.183594 12.621094 L 16.203125 12.671875 L 16.226562 12.722656 L 16.246094 12.769531 C 16.261719 12.804688 16.273438 12.835938 16.289062 12.871094 L 16.328125 12.96875 C 16.34375 13.003906 16.355469 13.035156 16.367188 13.070312 L 16.445312 13.273438 C 16.457031 13.308594 16.46875 13.339844 16.484375 13.375 L 16.5 13.425781 L 16.519531 13.480469 L 16.539062 13.53125 L 16.574219 13.632812 L 16.589844 13.6875 C 16.601562 13.722656 16.613281 13.757812 16.625 13.792969 L 15.113281 14.988281 C 15.113281 14.988281 15.113281 14.988281 15.113281 14.992188 L 16.625 13.792969 C 16.636719 13.828125 16.644531 13.863281 16.65625 13.898438 L 16.671875 13.949219 C 16.679688 13.96875 16.683594 13.988281 16.6875 14.003906 C 16.699219 14.039062 16.710938 14.074219 16.722656 14.113281 C 16.730469 14.148438 16.742188 14.183594 16.75 14.21875 L 16.78125 14.328125 C 16.789062 14.363281 16.800781 14.402344 16.808594 14.4375 L 15.453125 15.511719 C 15.4375 15.484375 15.417969 15.453125 15.398438 15.425781 L 15.351562 15.355469 L 15.34375 15.449219 C 15.339844 15.480469 15.339844 15.511719 15.335938 15.542969 L 15.335938 15.546875 C 15.328125 15.632812 15.316406 15.71875 15.304688 15.804688 C 15.292969 15.882812 15.28125 15.964844 15.269531 16.042969 L 14.707031 14.511719 L 14.703125 14.507812 L 15.269531 16.042969 L 15.226562 16.269531 C 15.210938 16.335938 15.195312 16.40625 15.179688 16.476562 C 15.160156 16.542969 15.144531 16.609375 15.125 16.671875 C 15.109375 16.734375 15.089844 16.796875 15.070312 16.859375 L 13.941406 13.785156 C 13.941406 13.769531 13.941406 13.753906 13.9375 13.734375 C 13.925781 13.722656 13.914062 13.714844 13.902344 13.703125 Z M 3.128906 15.71875 L 4.785156 16.371094 L 4.769531 16.480469 C 4.765625 16.519531 4.761719 16.554688 4.757812 16.589844 L 4.75 16.648438 L 4.746094 16.703125 C 4.746094 16.738281 4.742188 16.777344 4.738281 16.816406 L 3.058594 16.152344 C 3.066406 16.113281 3.070312 16.078125 3.078125 16.042969 L 3.074219 16.042969 C 3.082031 16.003906 3.085938 15.96875 3.09375 15.933594 C 3.097656 15.898438 3.105469 15.863281 3.109375 15.824219 C 3.117188 15.789062 3.125 15.753906 3.128906 15.71875 Z M 17.042969 15.574219 L 17.058594 15.691406 L 17.074219 15.8125 C 17.078125 15.851562 17.085938 15.894531 17.089844 15.933594 L 16.117188 16.707031 C 16.101562 16.671875 16.085938 16.640625 16.070312 16.609375 C 16.054688 16.578125 16.039062 16.546875 16.023438 16.515625 C 16.007812 16.484375 15.992188 16.449219 15.976562 16.417969 Z M 5.226562 15.511719 L 7.421875 16.378906 C 7.4375 16.425781 7.453125 16.46875 7.46875 16.515625 L 5.234375 15.632812 C 5.230469 15.589844 5.226562 15.550781 5.226562 15.511719 Z M 16.835938 14.546875 L 16.863281 14.660156 L 16.878906 14.714844 L 16.902344 14.824219 L 16.914062 14.882812 L 16.925781 14.9375 L 16.9375 14.996094 L 16.949219 15.050781 L 16.972656 15.167969 L 16.984375 15.222656 L 16.992188 15.28125 L 17.003906 15.339844 L 17.011719 15.398438 L 17.023438 15.457031 C 17.03125 15.496094 17.035156 15.535156 17.042969 15.574219 L 15.976562 16.417969 C 15.960938 16.386719 15.945312 16.359375 15.925781 16.324219 C 15.910156 16.292969 15.894531 16.261719 15.878906 16.234375 C 15.863281 16.203125 15.84375 16.171875 15.828125 16.140625 C 15.8125 16.109375 15.792969 16.078125 15.777344 16.046875 C 15.761719 16.019531 15.742188 15.988281 15.726562 15.957031 L 15.671875 15.867188 L 15.621094 15.777344 C 15.601562 15.746094 15.585938 15.71875 15.566406 15.6875 C 15.546875 15.660156 15.527344 15.628906 15.511719 15.601562 Z M 5.207031 15.273438 L 7.332031 16.117188 C 7.347656 16.160156 7.359375 16.203125 7.375 16.246094 C 7.390625 16.292969 7.40625 16.335938 7.421875 16.378906 L 5.226562 15.511719 C 5.222656 15.472656 5.21875 15.433594 5.214844 15.394531 C 5.210938 15.355469 5.210938 15.316406 5.207031 15.273438 Z M 3.195312 15.398438 L 4.84375 16.050781 L 4.832031 16.105469 L 4.8125 16.210938 L 4.800781 16.265625 C 4.796875 16.300781 4.789062 16.335938 4.785156 16.371094 L 3.128906 15.71875 C 3.136719 15.683594 3.144531 15.648438 3.152344 15.613281 C 3.15625 15.574219 3.164062 15.539062 3.171875 15.503906 C 3.179688 15.46875 3.1875 15.433594 3.195312 15.398438 Z M 5.203125 15.160156 L 7.292969 15.984375 C 7.304688 16.027344 7.320312 16.070312 7.332031 16.117188 L 5.207031 15.273438 C 5.207031 15.238281 5.207031 15.199219 5.203125 15.160156 Z M 3.246094 15.191406 L 4.890625 15.839844 C 4.882812 15.875 4.875 15.910156 4.863281 15.945312 C 4.855469 15.980469 4.851562 16.015625 4.84375 16.050781 L 3.195312 15.398438 C 3.203125 15.363281 3.210938 15.328125 3.21875 15.292969 Z M 5.199219 14.925781 L 7.226562 15.726562 C 7.238281 15.769531 7.246094 15.8125 7.257812 15.855469 C 7.269531 15.898438 7.28125 15.941406 7.292969 15.984375 L 5.203125 15.160156 L 5.199219 15.042969 C 5.199219 15.003906 5.199219 14.964844 5.199219 14.925781 Z M 3.390625 14.671875 L 5.039062 15.324219 L 5.003906 15.425781 C 4.996094 15.460938 4.984375 15.492188 4.972656 15.527344 C 4.964844 15.5625 4.953125 15.597656 4.945312 15.632812 L 4.917969 15.734375 C 4.90625 15.769531 4.898438 15.804688 4.890625 15.839844 L 3.246094 15.1875 C 3.253906 15.15625 3.265625 15.121094 3.273438 15.085938 L 3.289062 15.03125 L 3.300781 14.980469 C 3.3125 14.945312 3.320312 14.910156 3.332031 14.878906 C 3.339844 14.84375 3.351562 14.808594 3.359375 14.773438 C 3.371094 14.738281 3.382812 14.707031 3.390625 14.671875 Z M 3.640625 13.964844 L 7.148438 15.351562 C 7.15625 15.394531 7.160156 15.433594 7.171875 15.476562 L 7.183594 15.539062 L 7.199219 15.601562 C 7.207031 15.644531 7.21875 15.6875 7.226562 15.726562 L 5.199219 14.925781 L 5.199219 14.867188 L 5.140625 15.019531 C 5.128906 15.050781 5.117188 15.085938 5.105469 15.121094 L 5.089844 15.171875 L 5.039062 15.324219 L 3.390625 14.671875 C 3.402344 14.636719 3.414062 14.605469 3.425781 14.570312 L 3.457031 14.46875 C 3.46875 14.433594 3.480469 14.398438 3.492188 14.367188 C 3.503906 14.332031 3.515625 14.300781 3.527344 14.265625 C 3.539062 14.230469 3.550781 14.199219 3.566406 14.164062 L 3.582031 14.113281 Z M 16.808594 14.4375 C 16.820312 14.472656 16.828125 14.511719 16.835938 14.546875 L 15.511719 15.601562 L 15.453125 15.511719 Z M 3.679688 13.867188 L 7.125 15.226562 C 7.132812 15.269531 7.140625 15.3125 7.148438 15.351562 L 3.640625 13.964844 C 3.652344 13.929688 3.667969 13.898438 3.679688 13.867188 Z M 3.980469 13.179688 L 7.042969 14.390625 L 7.042969 14.449219 L 7.046875 14.507812 C 7.050781 14.546875 7.050781 14.585938 7.054688 14.625 C 7.058594 14.664062 7.0625 14.703125 7.066406 14.746094 C 7.066406 14.785156 7.070312 14.824219 7.074219 14.863281 C 7.082031 14.902344 7.085938 14.945312 7.089844 14.984375 C 7.097656 15.023438 7.101562 15.066406 7.105469 15.105469 C 7.113281 15.148438 7.117188 15.1875 7.125 15.226562 L 3.679688 13.867188 C 3.691406 13.832031 3.707031 13.800781 3.71875 13.765625 L 3.761719 13.667969 C 3.773438 13.636719 3.789062 13.601562 3.804688 13.570312 C 3.816406 13.535156 3.832031 13.503906 3.847656 13.472656 L 3.890625 13.375 C 3.90625 13.339844 3.921875 13.308594 3.933594 13.277344 C 3.949219 13.242188 3.964844 13.210938 3.980469 13.179688 Z M 4.433594 12.324219 L 7.070312 13.367188 C 7.070312 13.402344 7.066406 13.441406 7.0625 13.476562 L 7.046875 13.703125 C 7.042969 13.738281 7.042969 13.777344 7.042969 13.816406 L 7.035156 14.042969 L 7.035156 14.15625 C 7.035156 14.195312 7.035156 14.234375 7.035156 14.273438 C 7.039062 14.3125 7.039062 14.351562 7.042969 14.390625 L 3.980469 13.179688 L 4.027344 13.082031 L 4.125 12.890625 L 4.148438 12.84375 L 4.175781 12.796875 C 4.191406 12.765625 4.207031 12.734375 4.222656 12.703125 L 4.25 12.652344 L 4.277344 12.605469 C 4.292969 12.574219 4.3125 12.542969 4.328125 12.511719 L 4.382812 12.417969 C 4.398438 12.386719 4.417969 12.355469 4.433594 12.324219 Z M 15.429688 11.171875 L 15.457031 11.21875 L 15.484375 11.261719 L 15.535156 11.351562 L 15.5625 11.398438 L 15.589844 11.441406 L 15.640625 11.535156 L 15.667969 11.578125 L 15.691406 11.625 L 15.765625 11.765625 L 15.792969 11.808594 L 15.886719 11.996094 L 15.933594 12.09375 L 13.902344 13.703125 C 13.878906 13.679688 13.851562 13.65625 13.824219 13.636719 C 13.796875 13.613281 13.769531 13.589844 13.742188 13.566406 C 13.714844 13.542969 13.6875 13.523438 13.660156 13.5 C 13.632812 13.476562 13.605469 13.457031 13.578125 13.433594 C 13.550781 13.410156 13.523438 13.390625 13.496094 13.371094 L 13.492188 13.367188 L 13.453125 13.335938 L 13.367188 13.273438 L 13.320312 13.242188 C 13.292969 13.21875 13.261719 13.199219 13.234375 13.179688 C 13.203125 13.15625 13.175781 13.136719 13.144531 13.117188 L 13.054688 13.058594 Z M 4.546875 12.136719 L 7.097656 13.148438 L 7.082031 13.257812 C 7.078125 13.292969 7.078125 13.332031 7.070312 13.367188 L 4.4375 12.324219 C 4.453125 12.292969 4.472656 12.261719 4.488281 12.230469 C 4.507812 12.199219 4.527344 12.167969 4.546875 12.136719 Z M 4.601562 12.046875 L 7.113281 13.039062 C 7.105469 13.074219 7.101562 13.109375 7.097656 13.148438 L 4.546875 12.136719 C 4.566406 12.105469 4.582031 12.078125 4.601562 12.046875 Z M 14.726562 10.144531 L 14.757812 10.183594 L 14.820312 10.269531 L 14.882812 10.351562 L 14.914062 10.394531 C 14.933594 10.421875 14.953125 10.449219 14.972656 10.476562 L 15.003906 10.519531 C 15.011719 10.535156 15.023438 10.546875 15.03125 10.5625 L 15.0625 10.605469 L 15.148438 10.734375 L 15.179688 10.777344 L 15.234375 10.863281 L 15.347656 11.039062 L 15.375 11.082031 C 15.394531 11.113281 15.410156 11.144531 15.429688 11.171875 L 13.054688 13.058594 C 13.023438 13.035156 12.992188 13.019531 12.960938 12.996094 C 12.929688 12.980469 12.898438 12.957031 12.867188 12.941406 C 12.835938 12.921875 12.804688 12.902344 12.773438 12.882812 L 12.679688 12.828125 L 12.578125 12.773438 C 12.546875 12.753906 12.515625 12.738281 12.480469 12.71875 C 12.449219 12.703125 12.414062 12.683594 12.378906 12.667969 C 12.347656 12.648438 12.3125 12.632812 12.277344 12.617188 C 12.242188 12.597656 12.210938 12.582031 12.175781 12.566406 C 12.140625 12.550781 12.105469 12.535156 12.066406 12.519531 L 12.015625 12.496094 L 11.960938 12.472656 C 11.925781 12.453125 11.886719 12.441406 11.851562 12.425781 Z M 4.660156 11.953125 L 7.128906 12.929688 L 7.113281 13.039062 L 4.601562 12.046875 C 4.621094 12.015625 4.640625 11.984375 4.660156 11.953125 Z M 6.261719 9.941406 L 7.878906 10.582031 L 7.832031 10.679688 L 6.8125 10.273438 L 7.832031 10.679688 L 7.808594 10.726562 L 7.855469 10.707031 C 7.980469 10.648438 8.105469 10.59375 8.230469 10.542969 C 8.335938 10.5 8.441406 10.457031 8.550781 10.421875 C 8.644531 10.386719 8.738281 10.355469 8.832031 10.328125 C 8.917969 10.304688 9.003906 10.28125 9.089844 10.257812 L 7.484375 11.53125 L 9.085938 10.257812 C 9.164062 10.238281 9.242188 10.222656 9.320312 10.207031 C 9.390625 10.191406 9.464844 10.179688 9.535156 10.167969 C 9.601562 10.15625 9.671875 10.148438 9.738281 10.140625 C 9.800781 10.132812 9.863281 10.125 9.929688 10.121094 L 7.273438 12.222656 L 7.273438 12.226562 L 9.929688 10.121094 C 9.988281 10.113281 10.046875 10.113281 10.109375 10.109375 C 10.164062 10.105469 10.222656 10.105469 10.28125 10.105469 L 7.199219 12.546875 L 7.199219 12.550781 L 10.28125 10.105469 C 10.335938 10.105469 10.390625 10.105469 10.445312 10.105469 C 10.496094 10.109375 10.550781 10.109375 10.601562 10.113281 C 10.652344 10.117188 10.703125 10.121094 10.753906 10.125 C 10.800781 10.128906 10.851562 10.136719 10.902344 10.140625 C 10.949219 10.148438 10.996094 10.152344 11.042969 10.160156 C 11.085938 10.167969 11.132812 10.175781 11.179688 10.183594 L 11.3125 10.210938 C 11.355469 10.21875 11.398438 10.230469 11.445312 10.238281 L 11.570312 10.269531 C 11.609375 10.28125 11.652344 10.292969 11.695312 10.304688 C 11.734375 10.316406 11.773438 10.328125 11.816406 10.339844 L 9.761719 11.96875 C 9.707031 11.96875 9.652344 11.96875 9.597656 11.96875 C 9.539062 11.96875 9.484375 11.96875 9.425781 11.972656 C 9.367188 11.972656 9.308594 11.976562 9.25 11.980469 L 9.15625 11.984375 L 9.0625 11.996094 C 8.996094 12 8.929688 12.011719 8.867188 12.019531 C 8.792969 12.03125 8.726562 12.039062 8.65625 12.054688 L 8.539062 12.078125 L 8.425781 12.105469 C 8.339844 12.125 8.253906 12.148438 8.171875 12.175781 C 8.070312 12.203125 7.972656 12.238281 7.875 12.277344 C 7.742188 12.328125 7.609375 12.386719 7.484375 12.453125 C 7.382812 12.507812 7.28125 12.566406 7.183594 12.628906 L 7.1875 12.605469 C 7.179688 12.644531 7.171875 12.679688 7.164062 12.714844 L 7.144531 12.820312 L 7.128906 12.929688 L 4.660156 11.953125 C 4.679688 11.921875 4.699219 11.890625 4.71875 11.863281 C 4.738281 11.832031 4.757812 11.800781 4.777344 11.769531 C 4.800781 11.738281 4.820312 11.710938 4.839844 11.679688 L 7.164062 12.597656 L 4.839844 11.679688 C 4.859375 11.648438 4.878906 11.617188 4.902344 11.589844 L 7.179688 12.488281 L 4.902344 11.589844 L 5.027344 11.410156 C 5.046875 11.378906 5.070312 11.347656 5.089844 11.320312 C 5.113281 11.289062 5.136719 11.257812 5.15625 11.230469 C 5.179688 11.199219 5.199219 11.171875 5.222656 11.140625 C 5.246094 11.109375 5.269531 11.082031 5.289062 11.050781 L 7.339844 11.863281 L 5.289062 11.050781 L 5.359375 10.964844 C 5.382812 10.933594 5.40625 10.90625 5.429688 10.875 L 5.429688 10.878906 C 5.453125 10.847656 5.476562 10.820312 5.5 10.789062 L 5.605469 10.660156 L 5.644531 10.617188 C 5.667969 10.585938 5.691406 10.558594 5.714844 10.53125 C 5.742188 10.5 5.765625 10.472656 5.789062 10.445312 L 7.605469 11.164062 L 5.789062 10.445312 C 5.816406 10.417969 5.839844 10.386719 5.867188 10.359375 L 6.082031 10.445312 L 5.867188 10.359375 C 5.890625 10.332031 5.917969 10.304688 5.941406 10.277344 L 6.019531 10.191406 C 6.046875 10.164062 6.074219 10.136719 6.101562 10.109375 L 6.101562 10.105469 L 6.140625 10.066406 C 6.152344 10.050781 6.167969 10.039062 6.179688 10.023438 L 6.222656 9.984375 C 6.234375 9.96875 6.246094 9.957031 6.261719 9.941406 Z M 14.128906 9.429688 L 14.199219 9.507812 C 14.222656 9.53125 14.246094 9.558594 14.269531 9.585938 L 14.300781 9.621094 L 14.335938 9.664062 C 14.359375 9.6875 14.378906 9.714844 14.402344 9.742188 L 14.46875 9.820312 C 14.492188 9.847656 14.511719 9.875 14.535156 9.898438 L 14.191406 10.171875 L 14.535156 9.902344 L 14.601562 9.980469 L 14.632812 10.023438 L 14.664062 10.0625 C 14.6875 10.089844 14.707031 10.117188 14.726562 10.144531 L 11.851562 12.425781 C 11.816406 12.410156 11.777344 12.394531 11.742188 12.382812 C 11.703125 12.367188 11.664062 12.351562 11.628906 12.339844 C 11.589844 12.324219 11.550781 12.3125 11.511719 12.296875 L 11.394531 12.257812 C 11.355469 12.246094 11.316406 12.234375 11.277344 12.222656 C 11.234375 12.210938 11.195312 12.199219 11.152344 12.1875 L 11.027344 12.152344 C 10.984375 12.144531 10.945312 12.132812 10.902344 12.121094 C 10.859375 12.113281 10.816406 12.101562 10.773438 12.09375 C 10.726562 12.085938 10.683594 12.074219 10.636719 12.066406 L 12.492188 10.597656 L 12.542969 10.621094 L 12.597656 10.644531 L 12.648438 10.671875 L 12.75 10.71875 L 12.804688 10.746094 C 12.835938 10.761719 12.871094 10.78125 12.902344 10.796875 L 13.003906 10.851562 L 13.050781 10.878906 L 13.101562 10.90625 L 13.179688 10.949219 L 13.125 10.886719 C 13.105469 10.859375 13.082031 10.832031 13.058594 10.808594 L 13.027344 10.765625 L 12.925781 10.648438 C 12.902344 10.625 12.878906 10.597656 12.855469 10.574219 L 12.785156 10.496094 Z M 12.382812 10.550781 C 12.417969 10.566406 12.453125 10.582031 12.492188 10.597656 L 10.636719 12.066406 L 10.503906 12.042969 Z M 12.273438 10.503906 C 12.308594 10.519531 12.347656 10.535156 12.382812 10.550781 L 10.5 12.042969 C 10.453125 12.035156 10.410156 12.027344 10.363281 12.023438 Z M 11.816406 10.339844 L 12.050781 10.417969 L 12.105469 10.441406 L 12.164062 10.460938 C 12.199219 10.476562 12.238281 10.492188 12.273438 10.503906 L 10.363281 12.019531 C 10.316406 12.015625 10.265625 12.007812 10.21875 12.003906 C 10.167969 11.996094 10.121094 11.992188 10.070312 11.988281 C 10.019531 11.984375 9.96875 11.980469 9.917969 11.976562 C 9.863281 11.972656 9.8125 11.972656 9.761719 11.96875 Z M 6.429688 9.777344 L 7.976562 10.390625 L 7.929688 10.484375 C 7.910156 10.515625 7.894531 10.550781 7.878906 10.582031 L 6.261719 9.941406 C 6.289062 9.914062 6.316406 9.886719 6.34375 9.859375 C 6.371094 9.832031 6.398438 9.804688 6.429688 9.777344 Z M 14.058594 9.355469 C 14.082031 9.378906 14.105469 9.402344 14.128906 9.429688 L 12.785156 10.496094 C 12.761719 10.46875 12.738281 10.445312 12.714844 10.417969 Z M 13.84375 9.128906 L 13.878906 9.164062 L 13.914062 9.203125 L 13.988281 9.277344 C 14.011719 9.304688 14.035156 9.328125 14.058594 9.351562 L 12.714844 10.417969 C 12.691406 10.394531 12.667969 10.371094 12.644531 10.34375 C 12.617188 10.320312 12.59375 10.296875 12.570312 10.269531 L 12.496094 10.195312 Z M 6.6875 9.535156 L 8.128906 10.105469 L 8.105469 10.152344 L 8.078125 10.199219 C 8.0625 10.230469 8.042969 10.261719 8.027344 10.292969 L 7.976562 10.390625 L 6.429688 9.777344 C 6.457031 9.75 6.484375 9.722656 6.515625 9.695312 C 6.542969 9.667969 6.570312 9.640625 6.601562 9.617188 L 6.601562 9.613281 L 6.644531 9.574219 C 6.660156 9.5625 6.671875 9.546875 6.6875 9.535156 Z M 13.539062 8.839844 L 13.617188 8.910156 L 13.691406 8.984375 L 13.769531 9.054688 L 13.84375 9.128906 L 12.496094 10.195312 C 12.472656 10.171875 12.445312 10.148438 12.421875 10.125 C 12.394531 10.101562 12.367188 10.078125 12.34375 10.054688 L 12.265625 9.984375 C 12.238281 9.960938 12.210938 9.9375 12.183594 9.914062 Z M 6.960938 9.296875 L 8.292969 9.824219 C 8.273438 9.855469 8.257812 9.886719 8.238281 9.917969 L 8.183594 10.011719 C 8.164062 10.042969 8.148438 10.074219 8.128906 10.105469 L 6.6875 9.535156 C 6.71875 9.507812 6.746094 9.480469 6.777344 9.457031 L 6.867188 9.375 C 6.898438 9.351562 6.929688 9.324219 6.960938 9.296875 Z M 13.054688 8.433594 L 13.140625 8.496094 L 13.222656 8.5625 L 13.304688 8.632812 C 13.328125 8.652344 13.355469 8.675781 13.382812 8.699219 L 13.539062 8.839844 L 12.183594 9.914062 C 12.15625 9.890625 12.132812 9.871094 12.105469 9.847656 L 12.019531 9.78125 C 11.992188 9.761719 11.964844 9.738281 11.933594 9.71875 C 11.90625 9.695312 11.878906 9.675781 11.847656 9.65625 C 11.816406 9.632812 11.789062 9.613281 11.757812 9.59375 C 11.726562 9.574219 11.699219 9.554688 11.667969 9.535156 Z M 10.289062 7.394531 L 10.289062 7.414062 C 10.308594 7.410156 10.332031 7.410156 10.351562 7.40625 L 10.53125 7.398438 L 10.695312 7.398438 L 10.769531 7.40625 L 10.84375 7.410156 C 10.890625 7.417969 10.9375 7.421875 10.988281 7.429688 C 11.03125 7.4375 11.074219 7.445312 11.121094 7.457031 C 11.164062 7.464844 11.207031 7.476562 11.25 7.488281 L 11.375 7.519531 C 11.414062 7.53125 11.453125 7.542969 11.496094 7.558594 L 11.550781 7.578125 L 11.609375 7.597656 L 11.664062 7.621094 L 11.722656 7.640625 L 11.832031 7.6875 L 11.882812 7.710938 L 11.9375 7.734375 L 11.988281 7.757812 L 12.039062 7.785156 L 12.089844 7.808594 L 12.242188 7.890625 L 12.335938 7.945312 L 12.386719 7.972656 L 12.433594 8 L 12.527344 8.058594 L 12.574219 8.089844 L 12.617188 8.117188 L 12.664062 8.148438 L 12.707031 8.179688 L 12.753906 8.210938 L 12.839844 8.273438 L 12.886719 8.304688 C 12.914062 8.324219 12.941406 8.34375 12.972656 8.367188 C 13 8.386719 13.027344 8.410156 13.054688 8.433594 L 11.667969 9.535156 C 11.636719 9.515625 11.605469 9.496094 11.574219 9.476562 L 12.519531 8.726562 L 11.574219 9.476562 C 11.542969 9.457031 11.507812 9.4375 11.476562 9.421875 L 11.378906 9.367188 C 11.34375 9.347656 11.3125 9.332031 11.277344 9.316406 L 11.226562 9.289062 L 11.171875 9.265625 C 11.136719 9.25 11.101562 9.234375 11.066406 9.21875 L 10.953125 9.175781 C 10.914062 9.160156 10.878906 9.148438 10.839844 9.132812 C 10.800781 9.121094 10.761719 9.109375 10.71875 9.09375 C 10.679688 9.082031 10.640625 9.070312 10.597656 9.058594 C 10.554688 9.050781 10.515625 9.039062 10.472656 9.027344 C 10.429688 9.019531 10.386719 9.007812 10.339844 9 L 10.203125 8.976562 C 10.160156 8.96875 10.113281 8.960938 10.0625 8.957031 C 10.015625 8.949219 9.96875 8.945312 9.917969 8.941406 C 9.867188 8.933594 9.816406 8.933594 9.765625 8.929688 L 10.773438 8.128906 L 9.765625 8.929688 C 9.710938 8.925781 9.660156 8.921875 9.605469 8.921875 C 9.550781 8.921875 9.496094 8.921875 9.441406 8.921875 L 10.648438 7.960938 L 9.4375 8.921875 C 9.382812 8.921875 9.324219 8.925781 9.265625 8.929688 C 9.207031 8.929688 9.144531 8.933594 9.085938 8.941406 C 9.023438 8.945312 8.957031 8.953125 8.894531 8.960938 L 8.890625 8.960938 L 8.960938 8.859375 L 8.949219 8.875 C 8.9375 8.890625 8.925781 8.90625 8.914062 8.921875 L 8.878906 8.964844 L 8.847656 9.007812 C 8.824219 9.039062 8.800781 9.066406 8.78125 9.097656 L 8.746094 9.140625 L 8.714844 9.1875 C 8.695312 9.21875 8.671875 9.246094 8.652344 9.277344 C 8.632812 9.308594 8.609375 9.335938 8.589844 9.367188 C 8.570312 9.398438 8.546875 9.429688 8.527344 9.457031 C 8.507812 9.488281 8.488281 9.519531 8.46875 9.550781 L 8.410156 9.640625 L 8.351562 9.734375 L 8.292969 9.824219 L 6.960938 9.296875 C 6.992188 9.269531 7.019531 9.246094 7.050781 9.21875 C 7.085938 9.195312 7.117188 9.167969 7.148438 9.140625 C 7.179688 9.117188 7.210938 9.089844 7.242188 9.066406 L 7.339844 8.988281 L 7.441406 8.914062 C 7.472656 8.886719 7.507812 8.863281 7.542969 8.835938 C 7.574219 8.8125 7.609375 8.789062 7.644531 8.761719 C 7.679688 8.738281 7.714844 8.714844 7.75 8.691406 C 7.785156 8.664062 7.820312 8.640625 7.855469 8.617188 C 7.890625 8.59375 7.925781 8.566406 7.960938 8.542969 C 8 8.519531 8.035156 8.496094 8.074219 8.472656 C 8.109375 8.449219 8.148438 8.425781 8.183594 8.402344 L 8.300781 8.332031 L 9.109375 8.652344 L 8.300781 8.332031 C 8.335938 8.308594 8.375 8.285156 8.414062 8.261719 L 8.53125 8.195312 C 8.574219 8.171875 8.613281 8.148438 8.652344 8.128906 L 9.316406 8.386719 L 8.652344 8.128906 C 8.695312 8.105469 8.734375 8.082031 8.777344 8.0625 L 9.386719 8.300781 L 8.777344 8.0625 C 8.816406 8.039062 8.859375 8.015625 8.902344 7.996094 C 8.945312 7.972656 8.988281 7.953125 9.03125 7.929688 C 9.074219 7.910156 9.117188 7.886719 9.160156 7.867188 L 9.609375 8.046875 C 9.609375 8.046875 9.613281 8.046875 9.613281 8.046875 L 9.160156 7.867188 C 9.203125 7.847656 9.25 7.824219 9.292969 7.804688 L 9.429688 7.742188 C 9.476562 7.722656 9.523438 7.703125 9.570312 7.683594 C 9.617188 7.664062 9.664062 7.644531 9.710938 7.625 L 9.710938 7.394531 Z M 10.289062 7.394531 "/>
<path style=" stroke:none;fill-rule:evenodd;fill:rgb(0%,33.332825%,58.822632%);fill-opacity:1;" d="M 32.410156 17.097656 C 33.921875 17.097656 35.144531 18.292969 35.144531 19.777344 L 35.144531 22.570312 C 35.144531 24.085938 34.035156 25.375 32.65625 25.375 L 30.296875 25.375 C 28.570312 25.375 27.601562 24.128906 27.601562 22.53125 L 27.601562 19.746094 C 27.601562 18.492188 28.488281 17.132812 30.25 17.097656 Z M 48.105469 17.097656 C 49.679688 17.082031 50.671875 18.273438 50.617188 19.777344 L 50.617188 20.035156 L 49.015625 20.035156 L 49.015625 19.679688 C 49.015625 18.8125 48.226562 18.132812 47.660156 18.132812 L 46.507812 18.132812 C 45.941406 18.132812 45.203125 18.8125 45.203125 19.679688 L 45.203125 22.792969 C 45.203125 23.660156 45.957031 24.371094 46.523438 24.371094 L 47.675781 24.371094 C 47.847656 24.375 48.667969 24.261719 49.015625 23.820312 L 49.015625 22.148438 L 47.332031 22.148438 L 47.332031 20.890625 L 50.617188 20.890625 L 50.617188 24.523438 C 50.226562 24.941406 49.34375 25.394531 48.34375 25.375 L 46.054688 25.375 C 44.378906 25.375 43.433594 24.128906 43.433594 22.53125 L 43.433594 19.746094 C 43.433594 18.492188 44.480469 17.144531 46.007812 17.097656 Z M 37.890625 17.226562 L 41.414062 22.707031 L 41.414062 17.230469 L 42.800781 17.230469 L 42.800781 25.375 L 40.949219 25.375 L 37.101562 19.378906 L 37.101562 25.375 L 35.800781 25.375 L 35.800781 18.152344 C 35.800781 17.652344 36.207031 17.238281 36.710938 17.226562 Z M 24.148438 17.234375 C 25.691406 17.234375 26.914062 18.414062 26.914062 19.726562 L 26.914062 22.898438 C 26.914062 24.527344 25.308594 25.351562 23.984375 25.351562 L 19.609375 25.351562 L 19.609375 18.082031 C 19.609375 17.660156 20.125 17.234375 20.585938 17.234375 Z M 55.527344 15.34375 C 55.925781 15.347656 56.324219 15.351562 56.722656 15.351562 C 57.960938 18.667969 59.203125 21.988281 60.445312 25.304688 L 58.503906 25.304688 C 58.136719 24.234375 57.773438 23.167969 57.40625 22.097656 L 53.621094 22.097656 L 52.5625 25.320312 L 51.023438 25.320312 L 54.207031 16.34375 C 54.371094 15.882812 54.84375 15.359375 55.527344 15.34375 Z M 31.953125 18.132812 L 30.769531 18.132812 C 30.183594 18.132812 29.429688 18.8125 29.429688 19.679688 L 29.429688 22.792969 C 29.429688 23.660156 30.203125 24.371094 30.785156 24.371094 L 31.972656 24.371094 C 32.554688 24.371094 33.347656 23.660156 33.347656 22.792969 L 33.347656 19.679688 C 33.347656 18.8125 32.535156 18.132812 31.953125 18.132812 Z M 23.363281 18.269531 L 21.425781 18.269531 L 21.425781 24.273438 L 23.363281 24.273438 C 24.453125 24.273438 25.21875 23.640625 25.21875 22.421875 L 25.21875 20.125 C 25.21875 19.046875 24.4375 18.269531 23.363281 18.269531 Z M 55.496094 16.921875 L 53.988281 20.953125 L 57.003906 20.953125 Z M 55.496094 16.921875 "/>
<path style=" stroke:none;fill-rule:evenodd;fill:rgb(2.351379%,2.351379%,2.351379%);fill-opacity:1;" d="M 58.621094 15.351562 C 58.585938 15.359375 58.546875 15.363281 58.5 15.363281 L 58.367188 15.363281 L 58.367188 14.910156 L 58.519531 14.910156 C 58.5625 14.910156 58.597656 14.910156 58.628906 14.917969 C 58.65625 14.925781 58.679688 14.933594 58.703125 14.949219 C 58.726562 14.96875 58.746094 14.988281 58.757812 15.015625 C 58.769531 15.042969 58.777344 15.074219 58.777344 15.109375 C 58.777344 15.152344 58.769531 15.1875 58.761719 15.21875 C 58.75 15.25 58.734375 15.277344 58.710938 15.300781 C 58.6875 15.328125 58.65625 15.34375 58.621094 15.351562 Z M 59.101562 15.964844 L 58.695312 15.453125 C 58.769531 15.421875 58.828125 15.378906 58.871094 15.320312 C 58.914062 15.261719 58.9375 15.1875 58.9375 15.097656 C 58.9375 15.035156 58.925781 14.980469 58.902344 14.9375 C 58.878906 14.898438 58.84375 14.863281 58.804688 14.835938 C 58.765625 14.808594 58.722656 14.789062 58.679688 14.78125 C 58.632812 14.773438 58.578125 14.769531 58.511719 14.769531 L 58.210938 14.769531 L 58.210938 15.976562 L 58.367188 15.976562 L 58.367188 15.496094 L 58.542969 15.496094 L 58.910156 15.976562 L 59.085938 15.976562 C 58.949219 16.089844 58.773438 16.160156 58.578125 16.160156 C 58.132812 16.160156 57.773438 15.800781 57.773438 15.355469 C 57.773438 14.910156 58.132812 14.550781 58.578125 14.550781 C 59.023438 14.550781 59.382812 14.910156 59.382812 15.355469 C 59.382812 15.601562 59.273438 15.816406 59.101562 15.964844 Z M 58.578125 14.359375 C 58.027344 14.359375 57.582031 14.804688 57.582031 15.355469 C 57.582031 15.90625 58.027344 16.351562 58.578125 16.351562 C 59.128906 16.351562 59.574219 15.90625 59.574219 15.355469 C 59.574219 14.804688 59.128906 14.359375 58.578125 14.359375 Z M 58.578125 14.359375 "/>
<path style=" stroke:none;fill-rule:evenodd;fill:rgb(0%,0%,0%);fill-opacity:1;" d="M 74.648438 18.570312 C 75.6875 18.632812 76.480469 19.140625 76.480469 20.726562 L 76.480469 23.746094 C 76.484375 23.835938 76.53125 24.796875 77.539062 24.371094 L 77.722656 24.738281 C 77.722656 24.738281 76.644531 25.53125 76.277344 25.488281 C 75.910156 25.449219 75.300781 24.675781 75.300781 24.535156 C 75.300781 24.535156 74.222656 25.550781 73.328125 25.488281 C 72.433594 25.429688 71.597656 24.492188 71.699219 23.597656 C 71.800781 22.703125 72.492188 22.253906 73.429688 22.011719 C 74.367188 21.765625 75.34375 21.214844 75.34375 21.214844 C 75.34375 21.214844 75.527344 19.261719 74.019531 19.261719 C 73.050781 19.261719 72.914062 20.089844 72.898438 20.300781 C 72.878906 20.636719 72.316406 20.972656 72.023438 20.648438 C 71.6875 20.265625 71.882812 19.941406 71.964844 19.875 C 71.964844 19.875 73.613281 18.511719 74.648438 18.570312 Z M 82.308594 18.554688 L 82.480469 18.558594 C 83.617188 18.640625 84.351562 19.644531 84.351562 20.835938 L 84.351562 23.8125 L 84.359375 23.8125 L 84.359375 24.316406 C 84.359375 24.820312 85.203125 24.914062 85.203125 24.914062 L 85.203125 25.316406 L 82.105469 25.316406 L 82.105469 24.910156 C 82.90625 24.910156 83.074219 24.328125 83.074219 24.328125 L 83.074219 20.855469 C 83.066406 20.726562 82.941406 19.242188 81.746094 19.398438 C 80.957031 19.5 80.285156 19.917969 79.902344 20.210938 L 79.902344 24.253906 C 79.902344 24.253906 80.0625 24.824219 80.988281 24.933594 L 80.988281 25.285156 L 77.785156 25.285156 L 77.785156 24.878906 C 77.785156 24.878906 78.761719 24.988281 78.761719 24.148438 L 78.761719 20.070312 C 78.757812 20.015625 78.707031 19.5625 77.867188 19.5625 L 77.785156 19.183594 C 77.785156 19.183594 79.792969 18.664062 79.902344 18.585938 L 79.902344 19.785156 C 80.382812 19.390625 81.585938 18.492188 82.480469 18.558594 Z M 87.714844 15.355469 L 87.714844 21.664062 C 87.9375 21.617188 88.253906 21.527344 88.421875 21.378906 C 88.527344 21.285156 88.765625 21.011719 89.023438 20.71875 L 89.242188 20.460938 C 89.496094 20.164062 89.726562 19.882812 89.820312 19.773438 L 89.859375 19.722656 C 89.859375 19.722656 90.320312 19.234375 89.425781 19.128906 L 89.371094 18.71875 L 92.4375 18.71875 L 92.4375 19.019531 C 92.4375 19.019531 91.214844 19.128906 90.726562 19.617188 C 90.238281 20.105469 89.207031 21.324219 89.207031 21.324219 C 89.207031 21.324219 89.277344 21.414062 89.394531 21.566406 L 89.558594 21.777344 C 90.304688 22.722656 92.050781 24.828125 92.871094 24.933594 L 92.871094 25.285156 L 90.972656 25.285156 L 88.285156 22.085938 L 87.714844 22.085938 L 87.714844 24.28125 C 87.714844 24.28125 87.878906 24.851562 88.800781 24.960938 L 88.800781 25.3125 L 85.597656 25.3125 L 85.597656 24.90625 C 85.597656 24.90625 86.574219 25.015625 86.574219 24.175781 L 86.574219 16.84375 C 86.574219 16.785156 86.519531 16.332031 85.679688 16.332031 L 85.597656 15.953125 C 85.597656 15.953125 87.605469 15.4375 87.714844 15.355469 Z M 67.382812 15.320312 C 67.960938 15.320312 68.273438 15.359375 68.558594 15.433594 C 68.847656 15.511719 69.109375 15.628906 69.347656 15.785156 C 69.644531 15.996094 69.886719 16.269531 70.066406 16.597656 C 70.25 16.929688 70.339844 17.28125 70.339844 17.660156 C 70.339844 18.355469 70.03125 18.976562 69.582031 19.285156 C 69.09375 19.617188 68.828125 19.773438 68.199219 19.933594 C 68.917969 19.953125 69.554688 20.28125 70.054688 20.679688 C 70.632812 21.140625 70.921875 21.753906 70.921875 22.519531 C 70.921875 22.804688 70.878906 23.09375 70.800781 23.386719 C 70.71875 23.675781 70.59375 23.929688 70.425781 24.144531 C 70.253906 24.363281 70.082031 24.53125 69.902344 24.652344 C 69.792969 24.726562 69.574219 24.835938 69.242188 24.984375 C 69.113281 25.039062 68.976562 25.082031 68.828125 25.109375 C 68.679688 25.136719 68.554688 25.160156 68.453125 25.179688 C 68.070312 25.234375 67.679688 25.261719 67.28125 25.261719 L 62.78125 25.261719 L 62.78125 24.839844 L 63.136719 24.839844 C 63.238281 24.839844 63.328125 24.832031 63.40625 24.824219 C 63.480469 24.816406 63.628906 24.785156 63.847656 24.726562 C 63.992188 24.710938 64.101562 24.601562 64.179688 24.398438 C 64.1875 24.304688 64.195312 24.03125 64.199219 23.945312 C 64.203125 23.859375 64.207031 23.746094 64.207031 23.609375 L 64.207031 16.421875 C 64.207031 16.207031 64.09375 15.980469 63.867188 15.898438 C 63.746094 15.898438 63.542969 15.890625 63.253906 15.871094 C 63.101562 15.859375 62.988281 15.855469 62.90625 15.847656 L 62.90625 15.320312 Z M 66.621094 20.371094 C 66.503906 20.371094 66.304688 20.382812 66.03125 20.398438 C 65.753906 20.417969 65.605469 20.425781 65.578125 20.425781 L 65.578125 23.59375 C 65.578125 24.042969 65.628906 24.316406 65.722656 24.421875 C 65.820312 24.527344 66.054688 24.578125 66.417969 24.578125 L 66.671875 24.578125 C 67.140625 24.578125 67.53125 24.5625 67.847656 24.523438 C 68.167969 24.488281 68.445312 24.390625 68.683594 24.234375 C 68.917969 24.082031 69.097656 23.84375 69.214844 23.527344 C 69.335938 23.210938 69.394531 22.890625 69.394531 22.570312 C 69.394531 21.65625 69.128906 21.035156 68.59375 20.714844 C 68.210938 20.484375 67.554688 20.371094 66.621094 20.371094 Z M 75.300781 21.746094 C 75.300781 21.746094 72.925781 22.503906 72.925781 23.46875 C 72.925781 25.464844 75.300781 24.023438 75.300781 24.023438 Z M 66.597656 15.917969 C 66.476562 15.917969 66.367188 15.921875 66.257812 15.925781 C 66.152344 15.929688 66.035156 15.945312 65.910156 15.972656 C 65.757812 16.054688 65.65625 16.175781 65.605469 16.328125 C 65.597656 16.410156 65.589844 16.5 65.585938 16.59375 C 65.582031 16.691406 65.578125 16.765625 65.578125 16.820312 L 65.578125 19.769531 L 66.34375 19.769531 C 66.773438 19.769531 67.128906 19.757812 67.410156 19.730469 C 67.691406 19.703125 67.8125 19.644531 68.027344 19.550781 C 68.339844 19.398438 68.566406 19.164062 68.710938 18.855469 C 68.832031 18.59375 68.890625 18.25 68.890625 17.832031 C 68.890625 17.476562 68.832031 17.144531 68.710938 16.839844 C 68.59375 16.535156 68.40625 16.3125 68.152344 16.164062 C 67.949219 16.054688 67.839844 15.988281 67.582031 15.960938 C 67.324219 15.933594 66.996094 15.917969 66.597656 15.917969 Z M 66.597656 15.917969 "/>
</g>
</svg>
