<svg width="32" height="32" viewBox="0 0 32 32" fill="none" xmlns="http://www.w3.org/2000/svg">
<path fill-rule="evenodd" clip-rule="evenodd" d="M24.8694 27.2344C24.8694 25.9208 22.852 24.8147 20.3477 24.8147C17.8433 24.8147 15.8259 25.9208 15.8259 27.2344C15.8259 28.548 17.8433 29.6542 20.3477 29.6542C22.852 29.6542 24.8694 28.548 24.8694 27.2344ZM11.3042 29.6542C8.79986 29.6542 6.78247 28.548 6.78247 27.2344C6.78247 25.9208 8.79986 24.8147 11.3042 24.8147C13.8086 24.8147 15.8259 25.9208 15.8259 27.2344C15.8259 28.548 13.8086 29.6542 11.3042 29.6542Z" fill="#FFC107"/>
<path fill-rule="evenodd" clip-rule="evenodd" d="M25.0087 14.5827C24.9384 14.3753 24.8696 14.1679 24.8 13.8914C24.8696 13.5457 24.8696 13.2 24.8696 12.8543C24.8696 11.8864 24.8 11.0568 24.8 10.3654C24.8 5.73333 20.7645 2 15.8261 2C10.887 2 6.78261 5.73333 6.78261 10.3654V12.8543C6.78261 13.2 6.78261 13.5457 6.85217 13.8914C6.78261 14.0988 6.71304 14.3062 6.64348 14.5827C5.32174 16.4494 4 18.7309 4 20.4593C4 23.7778 4.97391 23.4321 4.97391 23.4321C5.3913 23.4321 6.08696 22.7407 6.71304 21.9802C8.17391 26.0593 11.6522 28.963 15.8261 28.963C20 28.963 23.4783 26.0593 24.9384 21.9802C25.5652 22.7407 26.2609 23.4321 26.6776 23.4321C26.6776 23.4321 27.6522 23.7778 27.6522 20.4593C27.6522 18.7309 26.3297 16.3802 25.0087 14.5827Z" fill="#4D4D4D"/>
<path fill-rule="evenodd" clip-rule="evenodd" d="M9.35659 15.1357C9.00876 16.1727 8.86963 17.2789 8.86963 18.4542C8.86963 23.5011 12.0001 27.5801 15.8262 27.5801C19.6522 27.5801 22.7827 23.5011 22.7827 18.4542C22.7827 17.2789 22.574 16.1727 22.2957 15.1357H9.35659Z" fill="#ECEFF1"/>
<path fill-rule="evenodd" clip-rule="evenodd" d="M18.2608 6.14801C17.2869 6.14801 16.5217 7.25418 16.5217 8.56776C16.5217 9.88134 17.2869 10.9875 18.2608 10.9875C19.2347 10.9875 19.9999 9.88134 19.9999 8.56776C19.9999 7.25418 19.2347 6.14801 18.2608 6.14801ZM15.1304 8.56776C15.1304 9.88134 14.3651 10.9875 13.3912 10.9875C12.4173 10.9875 11.6521 9.88134 11.6521 8.56776C11.6521 7.25418 12.4173 6.14801 13.3912 6.14801C14.3651 6.14801 15.1304 7.25418 15.1304 8.56776Z" fill="white"/>
<path fill-rule="evenodd" clip-rule="evenodd" d="M17.913 7.53073C17.4956 7.53073 17.2174 8.01468 17.2174 8.56777C17.2174 9.12085 17.4956 8.22209 17.913 8.22209C18.3304 8.22209 18.6087 9.12085 18.6087 8.56777C18.6087 8.01468 18.3304 7.53073 17.913 7.53073ZM14.4348 8.56777C14.4348 9.12085 14.1565 9.60481 13.7391 9.60481C13.3217 9.60481 13.0435 9.12085 13.0435 8.56777C13.0435 8.01468 13.3217 7.53073 13.7391 7.53073C14.1565 7.53073 14.4348 8.01468 14.4348 8.56777Z" fill="#37474F"/>
<path fill-rule="evenodd" clip-rule="evenodd" d="M21.3912 12.7159C21.3912 13.269 18.8868 14.4443 15.826 14.4443C12.7651 14.4443 10.2607 13.269 10.2607 12.7159C10.2607 12.1628 12.7651 11.6789 15.826 11.6789C18.8868 11.6789 21.3912 12.1628 21.3912 12.7159Z" fill="#FFC107"/>
<path fill-rule="evenodd" clip-rule="evenodd" d="M26.0522 13.8914C25.774 12.8543 25.3566 12.3704 24.5906 12.9926C24.5906 12.9926 20.487 15.1358 15.8957 15.1358V15.2049V15.1358C11.3044 15.1358 7.20004 12.9926 7.20004 12.9926C6.43482 12.4395 6.01743 12.8543 5.73917 13.8914C5.46091 14.9284 5.25221 15.2741 6.22613 15.8272C6.29569 15.8963 7.20004 16.3803 8.59134 17.0025C8.17395 19.4222 8.24352 21.7037 8.24352 21.842C8.31308 22.879 9.14787 22.7407 10.2609 22.7407C11.374 22.6716 12.2783 22.7407 12.2783 21.6346C12.2783 21.0124 12.2783 19.6296 12.487 18.1778C13.6 18.3852 14.7131 18.5926 15.9653 18.5926C21.0435 18.5926 25.4957 15.8963 25.6341 15.8272C26.4696 15.3432 26.2609 14.9975 26.0522 13.8914Z" fill="#FF3D00"/>
<path fill-rule="evenodd" clip-rule="evenodd" d="M8.31299 18.3852C9.42603 18.8 10.7478 19.284 12.2086 19.5605C12.2086 19.1457 12.2782 18.661 12.3478 18.1778C10.8869 17.8321 9.56516 17.4173 8.52168 17.0025C8.45212 17.4864 8.38255 17.9697 8.31299 18.3852Z" fill="#DD2C00"/>
</svg>
