<?xml version="1.0" encoding="UTF-8"?>
<svg xmlns="http://www.w3.org/2000/svg" xmlns:xlink="http://www.w3.org/1999/xlink" width="32pt" height="32pt" viewBox="0 0 32 32" version="1.1">
<defs>
<clipPath id="clip1">
  <path d="M 16 32 C 24.835938 32 32 24.835938 32 16 C 32 7.164062 24.835938 0 16 0 C 7.164062 0 0 7.164062 0 16 C 0 24.835938 7.164062 32 16 32 Z M 16 32 "/>
</clipPath>
<clipPath id="clip2">
  <path d="M 5 5 L 27 5 L 27 29 L 5 29 Z M 5 5 "/>
</clipPath>
<clipPath id="clip3">
  <path d="M 15.175781 5.816406 C 15.175781 5.816406 17.136719 4.300781 20.503906 5.402344 C 20.503906 5.402344 21.636719 5.816406 22.945312 6.984375 L 27 11.25 L 24.835938 13.417969 L 18.648438 7.121094 C 18.648438 7.121094 17.617188 5.847656 15.175781 5.816406 Z M 24.113281 14.175781 L 21.570312 16.652344 C 21.570312 16.652344 21.15625 17.238281 20.8125 16.6875 L 16.136719 12.113281 C 16.136719 12.113281 15.726562 11.5625 15.417969 12.042969 L 10.707031 16.859375 C 10.707031 16.859375 10.398438 17.34375 10.777344 17.546875 L 15.382812 22.160156 C 15.382812 22.160156 15.761719 22.777344 16.105469 22.296875 L 20.882812 17.480469 C 20.882812 17.480469 21.019531 17.066406 21.777344 17.171875 L 26.65625 17.171875 C 26.65625 17.171875 26.863281 22.125 23.082031 25.222656 C 23.082031 25.222656 18.167969 30.144531 11.429688 27.113281 C 11.429688 27.113281 4.933594 24.84375 5 16.414062 C 5 16.414062 5.171875 10.769531 10.296875 7.777344 C 10.296875 7.777344 14.042969 4.988281 17.03125 7.054688 Z M 24.113281 14.175781 "/>
</clipPath>
</defs>
<g id="surface1">
<g clip-path="url(#clip1)" clip-rule="evenodd">
<rect x="0" y="0" width="32" height="32" style="fill:rgb(100%,100%,100%);fill-opacity:1;stroke:none;"/>
</g>
<g clip-path="url(#clip2)" clip-rule="nonzero">
<g clip-path="url(#clip3)" clip-rule="nonzero">
<rect x="0" y="0" width="32" height="32" style="fill:rgb(9.803772%,24.313354%,49.411011%);fill-opacity:1;stroke:none;"/>
</g>
</g>
</g>
</svg>
