<?xml version="1.0" encoding="UTF-8"?>
<svg xmlns="http://www.w3.org/2000/svg" xmlns:xlink="http://www.w3.org/1999/xlink" width="24pt" height="24pt" viewBox="0 0 24 24" version="1.1">
<g id="surface1">
<path style=" stroke:none;fill-rule:nonzero;fill:rgb(91.371155%,12.548828%,1.567078%);fill-opacity:1;" d="M 4.800781 1 L 19.09375 1 L 19.382812 1.007812 L 19.640625 1.015625 C 20.25 1.050781 20.617188 1.128906 20.929688 1.253906 L 21.050781 1.308594 L 21.167969 1.363281 L 21.226562 1.394531 C 21.707031 1.652344 22.085938 2.035156 22.34375 2.515625 L 22.375 2.574219 L 22.433594 2.691406 L 22.484375 2.8125 C 22.601562 3.101562 22.679688 3.441406 22.71875 3.980469 L 22.730469 4.226562 L 22.734375 4.359375 L 22.742188 4.644531 L 22.742188 18.941406 L 22.738281 19.242188 C 22.738281 19.289062 22.738281 19.335938 22.734375 19.378906 L 22.726562 19.636719 C 22.691406 20.25 22.609375 20.617188 22.484375 20.925781 L 22.433594 21.046875 L 22.375 21.164062 L 22.34375 21.222656 C 22.085938 21.707031 21.707031 22.085938 21.226562 22.34375 L 21.167969 22.375 L 21.050781 22.433594 L 20.929688 22.484375 C 20.640625 22.601562 20.300781 22.679688 19.757812 22.71875 L 19.511719 22.730469 L 19.382812 22.734375 L 19.09375 22.738281 L 4.5 22.738281 C 4.449219 22.738281 4.402344 22.734375 4.359375 22.734375 L 4.101562 22.722656 C 3.492188 22.691406 3.121094 22.609375 2.8125 22.484375 L 2.691406 22.433594 L 2.574219 22.375 L 2.515625 22.34375 C 2.035156 22.085938 1.652344 21.707031 1.394531 21.222656 L 1.363281 21.164062 L 1.308594 21.046875 L 1.253906 20.925781 C 1.136719 20.640625 1.058594 20.296875 1.023438 19.757812 L 1.011719 19.511719 L 1.007812 19.378906 L 1 19.09375 L 1 4.644531 L 1.007812 4.359375 L 1.015625 4.101562 C 1.050781 3.492188 1.128906 3.121094 1.253906 2.8125 L 1.308594 2.691406 L 1.363281 2.574219 L 1.394531 2.515625 C 1.652344 2.035156 2.035156 1.652344 2.515625 1.394531 L 2.574219 1.363281 L 2.691406 1.308594 L 2.8125 1.253906 C 3.101562 1.136719 3.441406 1.058594 3.980469 1.023438 L 4.226562 1.011719 L 4.359375 1.007812 L 4.644531 1 Z M 4.800781 1 "/>
<path style=" stroke:none;fill-rule:nonzero;fill:rgb(100%,87.449646%,0%);fill-opacity:1;" d="M 6.882812 4.351562 L 7.734375 6.964844 L 10.484375 6.964844 L 8.257812 8.582031 L 9.109375 11.199219 L 6.882812 9.582031 L 4.65625 11.199219 L 5.507812 8.582031 L 3.28125 6.964844 L 6.03125 6.964844 Z M 15.453125 9.375 L 15.714844 10.179688 L 16.5625 10.179688 L 15.875 10.679688 L 16.136719 11.488281 L 15.453125 10.988281 L 14.765625 11.488281 L 15.027344 10.679688 L 14.339844 10.179688 L 15.1875 10.179688 Z M 14.972656 5.796875 L 15.578125 6.398438 L 16.332031 6.011719 L 15.949219 6.769531 L 16.550781 7.367188 L 15.710938 7.234375 L 15.324219 7.992188 L 15.191406 7.152344 L 14.351562 7.023438 L 15.109375 6.636719 Z M 12.183594 3.605469 L 12.917969 4.03125 L 13.546875 3.460938 L 13.371094 4.292969 L 14.109375 4.714844 L 13.265625 4.804688 L 13.089844 5.636719 L 12.742188 4.859375 L 11.898438 4.949219 L 12.527344 4.382812 Z M 13.402344 11.894531 L 13.34375 12.742188 L 14.128906 13.058594 L 13.304688 13.265625 L 13.25 14.113281 L 12.796875 13.394531 L 11.972656 13.601562 L 12.519531 12.949219 L 12.066406 12.230469 L 12.855469 12.546875 Z M 13.402344 11.894531 "/>
</g>
</svg>
