<svg width="96" height="32" viewBox="0 0 96 32" fill="none" xmlns="http://www.w3.org/2000/svg">
<g clip-path="url(#clip0_3416_29767)">
<rect width="96" height="32" fill="white"/>
<path d="M17.4968 19.0102C17.5398 19.0421 17.5763 19.0819 17.6044 19.1276L17.7902 19.3036L17.4968 19.0102Z" fill="#005D98"/>
<path d="M66.1243 15.8805H68.8627V18.5114L71.2296 15.8805H75.0047L72.1 19.1471L75.1221 24.7707H71.7577L70.0168 21.4259L68.8627 22.7462V24.7707H66.1243V15.8805Z" fill="#005D98"/>
<path d="M55.6396 15.8805H58.1238L62.124 20.8489V15.8805H64.794V24.7707H62.124L58.2999 20.0567L58.3097 24.7707H55.6396V15.8805Z" fill="#005D98"/>
<path d="M6.74825 18.1104H10.6506V15.8805H4V24.761H10.6506V22.5506H6.74825V21.4357H9.98551V19.2058H6.74825V19.1862V18.1104Z" fill="#005D98"/>
<path d="M37.1355 15.8805H42.2604C42.9694 15.8363 43.6688 16.0636 44.2164 16.5162C44.6647 16.9151 44.915 17.4909 44.901 18.0908C44.915 18.5864 44.7402 19.0688 44.412 19.4405C44.1453 19.7233 43.8075 19.9294 43.434 20.0371C43.9783 20.1299 44.4731 20.4102 44.8326 20.8293C45.1427 21.2279 45.3021 21.7232 45.2824 22.2279C45.288 22.6621 45.1802 23.0902 44.9695 23.47C44.7592 23.8336 44.4553 24.1342 44.0893 24.3404C43.7668 24.5081 43.4146 24.6111 43.0526 24.6436C42.6446 24.7101 42.2331 24.7525 41.8202 24.7707H37.1355V15.8805ZM39.8935 19.3623H41.0867C41.4009 19.3979 41.7173 19.318 41.9767 19.1373C42.1534 18.9749 42.2469 18.7411 42.231 18.5016C42.2408 18.2717 42.1476 18.0494 41.9767 17.8952C41.7202 17.7249 41.4126 17.6489 41.1063 17.68H39.8935V19.3623ZM39.8935 22.844H41.2921C41.6362 22.8734 41.9803 22.7874 42.2701 22.5995C42.4646 22.4378 42.5759 22.1971 42.5733 21.9442C42.5827 21.6976 42.4736 21.4614 42.2799 21.3085C41.9881 21.1261 41.6447 21.0437 41.3019 21.0738H39.8935V22.844Z" fill="#005D98"/>
<path d="M51.6591 23.2939H48.549L48.1089 24.7707H45.3215L48.6566 15.8903H51.6396L54.9746 24.7707H52.109L51.6591 23.2939ZM51.0919 21.3379L50.1139 18.1397L49.1358 21.3379H51.0919Z" fill="#005D98"/>
<path d="M24.509 15.8805H21.7607V24.7707H24.509V15.8805Z" fill="#005D98"/>
<path d="M35.7959 15.8805H33.0574H32.2065L30.8275 20.3305L29.4387 15.8805H28.5879H25.8396V24.7707H28.0793H28.5879V20.3012L29.8006 24.7707H31.8349L33.0574 20.3012V24.7707H33.5562H35.7959H35.8057V15.8805H35.7959Z" fill="#005D98"/>
<path d="M21.0567 23.1961L19.3061 21.4454C18.6929 20.736 18.7313 19.6735 19.3941 19.0101L21.0567 17.4062C21.061 17.3869 21.061 17.3668 21.0567 17.3475C21.062 17.3316 21.062 17.3145 21.0567 17.2986L19.2376 15.4893H19.1789H19.1202L17.4869 17.0541L16.4307 18.1104L17.1838 18.8634C17.5778 19.2272 17.7924 19.7457 17.7706 20.2816C17.7629 20.8531 17.5056 21.3927 17.0664 21.7584L16.4209 22.4039L19.1007 25.1326H19.1594H19.2181L21.0567 23.3135C21.062 23.2976 21.062 23.2804 21.0567 23.2646" fill="#005D98"/>
<mask id="mask0_3416_29767" style="mask-type:alpha" maskUnits="userSpaceOnUse" x="11" y="15" width="5" height="7">
<path d="M13.2327 15.4599L11.4136 17.2791C11.4093 17.2984 11.4093 17.3184 11.4136 17.3378C11.4136 17.3378 11.4136 17.3378 11.4136 17.3867L13.1642 19.1373C13.4207 19.4602 13.5618 19.8595 13.5652 20.2718C13.5622 20.736 13.38 21.181 13.0567 21.5139C13.0567 21.5139 15.9907 19.2645 14.7975 16.8879L13.3403 15.4306H13.2816H13.2327" fill="white"/>
</mask>
<g mask="url(#mask0_3416_29767)">
<path d="M12.0452 13.7789L9.11523 20.5888L15.1884 23.2018L18.1184 16.392L12.0452 13.7789Z" fill="url(#paint0_linear_3416_29767)"/>
</g>
<path d="M16.8806 19.0101L14.7387 16.8781C15.7656 19.1569 13.3304 21.1814 13.0076 21.5041L11.3547 23.1472C11.3505 23.1665 11.3505 23.1865 11.3547 23.2059C11.3495 23.2218 11.3495 23.2389 11.3547 23.2548L13.1641 25.0739H13.2228H13.2815L14.905 23.4406L16.773 21.5824C17.1652 21.2553 17.394 20.7726 17.3989 20.262C17.4149 19.7818 17.2223 19.3182 16.8708 18.9906" fill="#005D98"/>
<mask id="mask1_3416_29767" style="mask-type:alpha" maskUnits="userSpaceOnUse" x="85" y="7" width="2" height="14">
<path d="M85.8311 20.2816H86.5842V7.03912H85.8018L85.8311 20.2816Z" fill="white"/>
</mask>
<g mask="url(#mask1_3416_29767)">
<path d="M86.8098 7.02911H85.8318V20.2814H86.8098V7.02911Z" fill="url(#paint1_linear_3416_29767)"/>
</g>
<mask id="mask2_3416_29767" style="mask-type:alpha" maskUnits="userSpaceOnUse" x="85" y="7" width="8" height="7">
<path d="M85.8606 7V8.36924C85.9427 8.01214 86.2787 7.77274 86.643 7.81176C89.2625 7.98636 91.4473 9.87959 91.9928 12.4476C91.9981 12.5421 91.9981 12.6368 91.9928 12.7312C91.9936 13.3095 91.5829 13.8065 91.0148 13.9146C92.7361 13.8462 92.7948 12.6725 92.785 12.4476C92.2239 9.4194 89.6599 7.17079 86.5843 7.00978H85.8508L85.8606 7Z" fill="white"/>
</mask>
<g mask="url(#mask2_3416_29767)">
<path d="M88.4843 3.62573L82.4824 11.2858L90.1502 17.2937L96.1521 9.63368L88.4843 3.62573Z" fill="url(#paint2_linear_3416_29767)"/>
</g>
<mask id="mask3_3416_29767" style="mask-type:alpha" maskUnits="userSpaceOnUse" x="79" y="13" width="8" height="8">
<path d="M79.6697 14.8731C80.2298 17.8925 82.7844 20.1359 85.8508 20.3011H86.2225H86.5844V18.9417C86.498 19.3002 86.1588 19.5389 85.7922 19.4992C83.1793 19.3215 81.0004 17.434 80.4521 14.8731C80.4468 14.7786 80.4468 14.6839 80.4521 14.5895C80.4513 14.0112 80.8621 13.5142 81.4302 13.4061C79.7088 13.4745 79.6502 14.6482 79.6599 14.8731" fill="white"/>
</mask>
<g mask="url(#mask3_3416_29767)">
<path d="M82.3147 10.0347L76.3127 17.6947L83.9805 23.7027L89.9824 16.0426L82.3147 10.0347Z" fill="url(#paint3_linear_3416_29767)"/>
</g>
<mask id="mask4_3416_29767" style="mask-type:alpha" maskUnits="userSpaceOnUse" x="87" y="12" width="6" height="9">
<path d="M90.8634 13.8117H87.0471V20.1747C90.255 19.7757 92.7539 17.0998 92.8732 13.8146V13.8127V13.8117C92.8761 13.7315 92.8801 13.6503 92.8801 13.5701C92.8801 13.1554 92.84 12.7496 92.7676 12.3564C92.7676 12.3564 92.8184 13.8117 90.8634 13.8117Z" fill="white"/>
</mask>
<g mask="url(#mask4_3416_29767)">
<path fill-rule="evenodd" clip-rule="evenodd" d="M90.8634 13.8117H87.0471V20.1747C90.255 19.7757 92.7539 17.0998 92.8732 13.8146V13.8127V13.8117C92.8761 13.7315 92.8801 13.6503 92.8801 13.5701C92.8801 13.1554 92.84 12.7496 92.7676 12.3564C92.7676 12.3564 92.8184 13.8117 90.8634 13.8117Z" fill="url(#paint4_linear_3416_29767)"/>
</g>
<mask id="mask5_3416_29767" style="mask-type:alpha" maskUnits="userSpaceOnUse" x="79" y="7" width="7" height="8">
<path d="M79.5652 13.3754V13.3784V13.3793C79.5613 13.4595 79.5593 13.5397 79.5593 13.6199C79.5593 14.0346 79.5984 14.4395 79.6708 14.8346C79.6708 14.8346 79.619 13.3793 81.576 13.3793H85.3923V7.0163L85.3913 7.01532C82.1834 7.41435 79.6845 10.0922 79.5652 13.3754Z" fill="white"/>
</mask>
<g mask="url(#mask5_3416_29767)">
<path fill-rule="evenodd" clip-rule="evenodd" d="M79.5652 13.3754V13.3784V13.3793C79.5613 13.4595 79.5593 13.5397 79.5593 13.6199C79.5593 14.0346 79.5984 14.4395 79.6708 14.8346C79.6708 14.8346 79.619 13.3793 81.576 13.3793H85.3923V7.0163L85.3913 7.01532C82.1834 7.41435 79.6845 10.0922 79.5652 13.3754Z" fill="url(#paint5_linear_3416_29767)"/>
</g>
</g>
<defs>
<linearGradient id="paint0_linear_3416_29767" x1="15.6452" y1="20.0156" x2="12.8297" y2="18.8042" gradientUnits="userSpaceOnUse">
<stop stop-color="#153A63"/>
<stop offset="0.35" stop-color="#153A63"/>
<stop offset="1" stop-color="#005D98"/>
</linearGradient>
<linearGradient id="paint1_linear_3416_29767" x1="86.9272" y1="19.815" x2="86.9272" y2="6.67429" gradientUnits="userSpaceOnUse">
<stop stop-color="#153A63"/>
<stop offset="0.1" stop-color="#153A63"/>
<stop offset="0.35" stop-color="#23A8E0"/>
<stop offset="0.5" stop-color="#61CAF4"/>
<stop offset="0.65" stop-color="#109CD8"/>
<stop offset="0.9" stop-color="#153A63"/>
<stop offset="1" stop-color="#153A63"/>
</linearGradient>
<linearGradient id="paint2_linear_3416_29767" x1="85.1005" y1="6.21733" x2="92.3579" y2="11.9037" gradientUnits="userSpaceOnUse">
<stop stop-color="#005D98"/>
<stop offset="0.35" stop-color="#23A8E0"/>
<stop offset="0.53" stop-color="#61CAF4"/>
<stop offset="0.62" stop-color="#3FB6E8"/>
<stop offset="0.71" stop-color="#25A8DF"/>
<stop offset="0.79" stop-color="#159FDA"/>
<stop offset="0.85" stop-color="#109CD8"/>
<stop offset="0.87" stop-color="#1096D1"/>
<stop offset="0.91" stop-color="#1185BD"/>
<stop offset="0.94" stop-color="#136A9C"/>
<stop offset="0.99" stop-color="#14446F"/>
<stop offset="1" stop-color="#153A63"/>
</linearGradient>
<linearGradient id="paint3_linear_3416_29767" x1="87.2838" y1="20.8928" x2="80.3721" y2="15.4772" gradientUnits="userSpaceOnUse">
<stop stop-color="#005D98"/>
<stop offset="0.35" stop-color="#23A8E0"/>
<stop offset="0.53" stop-color="#61CAF4"/>
<stop offset="0.62" stop-color="#3FB6E8"/>
<stop offset="0.71" stop-color="#25A8DF"/>
<stop offset="0.79" stop-color="#159FDA"/>
<stop offset="0.85" stop-color="#109CD8"/>
<stop offset="0.87" stop-color="#1096D1"/>
<stop offset="0.91" stop-color="#1185BD"/>
<stop offset="0.94" stop-color="#136A9C"/>
<stop offset="0.99" stop-color="#14446F"/>
<stop offset="1" stop-color="#153A63"/>
</linearGradient>
<linearGradient id="paint4_linear_3416_29767" x1="91.066" y1="13.8393" x2="87.243" y2="18.5214" gradientUnits="userSpaceOnUse">
<stop stop-color="#005DA3"/>
<stop offset="1" stop-color="#18BAED"/>
</linearGradient>
<linearGradient id="paint5_linear_3416_29767" x1="81.3756" y1="13.3455" x2="85.1987" y2="8.66342" gradientUnits="userSpaceOnUse">
<stop stop-color="#005DA3"/>
<stop offset="1" stop-color="#18BAED"/>
</linearGradient>
<clipPath id="clip0_3416_29767">
<rect width="96" height="32" fill="white"/>
</clipPath>
</defs>
</svg>
