<?xml version="1.0" encoding="UTF-8"?>
<svg xmlns="http://www.w3.org/2000/svg" xmlns:xlink="http://www.w3.org/1999/xlink" width="32pt" height="32pt" viewBox="0 0 32 32" version="1.1">
<defs>
<clipPath id="clip1">
  <path d="M 16 32 C 24.835938 32 32 24.835938 32 16 C 32 7.164062 24.835938 0 16 0 C 7.164062 0 0 7.164062 0 16 C 0 24.835938 7.164062 32 16 32 Z M 16 32 "/>
</clipPath>
<clipPath id="clip2">
  <path d="M 2 12 L 10 12 L 10 22 L 2 22 Z M 2 12 "/>
</clipPath>
<clipPath id="clip3">
  <path d="M 5.128906 13.785156 C 5.125 13.789062 5.125 13.796875 5.125 13.800781 C 4.820312 13.800781 4.511719 13.785156 4.207031 13.804688 C 4.078125 13.816406 3.851562 13.890625 3.847656 13.945312 C 3.816406 14.492188 3.820312 15.042969 3.832031 15.589844 C 3.835938 15.640625 3.988281 15.726562 4.070312 15.726562 C 4.824219 15.722656 5.585938 15.753906 6.332031 15.664062 C 6.804688 15.609375 7.144531 15.265625 7.105469 14.71875 C 7.0625 14.1875 6.71875 13.917969 6.226562 13.84375 C 5.867188 13.792969 5.496094 13.804688 5.128906 13.785156 Z M 3.820312 19.359375 C 4.261719 19.359375 4.664062 19.367188 5.066406 19.355469 C 5.621094 19.34375 6.179688 19.363281 6.722656 19.285156 C 7.191406 19.21875 7.574219 18.960938 7.601562 18.414062 C 7.625 17.953125 7.410156 17.527344 6.976562 17.472656 C 5.9375 17.34375 4.886719 17.328125 3.820312 17.265625 Z M 7.882812 16.414062 C 8.957031 16.847656 9.523438 17.542969 9.472656 18.664062 C 9.429688 19.601562 9 20.265625 8.148438 20.644531 C 7.910156 20.75 7.644531 20.863281 7.390625 20.875 C 5.609375 20.957031 3.832031 21.011719 2 21.074219 L 2 12.132812 C 2.523438 12.132812 3.046875 12.128906 3.574219 12.132812 C 4.457031 12.132812 5.34375 12.113281 6.226562 12.144531 C 7.34375 12.1875 8.375 12.460938 8.839844 13.628906 C 9.285156 14.742188 8.824219 15.621094 7.882812 16.414062 Z M 7.882812 16.414062 "/>
</clipPath>
<clipPath id="clip4">
  <path d="M 11 11 L 21 11 L 21 22 L 11 22 Z M 11 11 "/>
</clipPath>
<clipPath id="clip5">
  <path d="M 20.332031 13.800781 C 19.785156 14.21875 19.230469 14.640625 18.683594 15.054688 C 17.054688 13.832031 15.738281 13.804688 14.757812 14.953125 C 13.875 15.984375 13.914062 17.433594 14.847656 18.359375 C 15.921875 19.421875 17.246094 19.328125 18.75 18.050781 C 19.289062 18.464844 19.839844 18.882812 20.382812 19.300781 C 19.675781 20.699219 17.496094 21.582031 15.71875 21.210938 C 13.601562 20.773438 12.027344 18.960938 11.925781 16.847656 C 11.824219 14.714844 13.15625 12.785156 15.179688 12.132812 C 17.105469 11.511719 19.316406 12.21875 20.332031 13.800781 "/>
</clipPath>
<clipPath id="clip6">
  <path d="M 23 12 L 30 12 L 30 22 L 23 22 Z M 23 12 "/>
</clipPath>
<clipPath id="clip7">
  <path d="M 23.011719 19.714844 C 23.386719 19.265625 23.738281 18.84375 24.070312 18.441406 C 24.636719 18.734375 25.140625 19.078125 25.695312 19.253906 C 26.167969 19.40625 26.703125 19.417969 27.207031 19.398438 C 27.632812 19.378906 28.09375 19.128906 28.039062 18.664062 C 28 18.332031 27.671875 17.96875 27.378906 17.753906 C 27.09375 17.550781 26.6875 17.515625 26.332031 17.410156 C 25.902344 17.277344 25.457031 17.175781 25.039062 17.015625 C 23.839844 16.550781 23.332031 15.820312 23.355469 14.648438 C 23.382812 13.460938 24.007812 12.574219 25.179688 12.222656 C 26.804688 11.734375 28.285156 12.128906 29.71875 13.105469 C 29.378906 13.59375 29.070312 14.042969 28.730469 14.53125 C 28.394531 14.355469 28.089844 14.113281 27.746094 14.039062 C 27.125 13.902344 26.476562 13.804688 25.839844 13.824219 C 25.632812 13.832031 25.316406 14.246094 25.28125 14.503906 C 25.25 14.71875 25.503906 15.085938 25.730469 15.203125 C 26.175781 15.441406 26.691406 15.550781 27.175781 15.714844 C 27.621094 15.867188 28.082031 15.992188 28.507812 16.1875 C 29.558594 16.667969 30.058594 17.464844 29.980469 18.519531 C 29.894531 19.636719 29.378906 20.460938 28.285156 20.863281 C 26.625 21.476562 24.4375 21.019531 23.011719 19.714844 "/>
</clipPath>
<clipPath id="clip8">
  <path d="M 9 9 L 23 9 L 23 13 L 9 13 Z M 9 9 "/>
</clipPath>
<clipPath id="clip9">
  <path d="M 16.324219 9.125 C 18.445312 9.167969 20.457031 9.949219 22.074219 11.644531 C 22.277344 11.859375 22.753906 12.105469 22.332031 12.488281 C 21.960938 12.824219 21.738281 12.398438 21.53125 12.191406 C 20.074219 10.722656 18.316406 9.9375 16.25 9.910156 C 14.125 9.882812 12.339844 10.707031 10.84375 12.1875 C 10.726562 12.300781 10.628906 12.476562 10.492188 12.519531 C 10.34375 12.566406 10.125 12.53125 10.003906 12.445312 C 9.929688 12.386719 9.921875 12.125 9.988281 12.023438 C 10.140625 11.785156 10.347656 11.578125 10.554688 11.378906 C 12.03125 9.960938 14.074219 9.136719 16.324219 9.125 "/>
</clipPath>
<clipPath id="clip10">
  <path d="M 9 20 L 23 20 L 23 25 L 9 25 Z M 9 20 "/>
</clipPath>
<clipPath id="clip11">
  <path d="M 15.984375 24.011719 C 13.761719 23.953125 11.765625 23.089844 10.164062 21.347656 C 9.972656 21.140625 9.691406 20.886719 10.070312 20.65625 C 10.203125 20.578125 10.570312 20.6875 10.707031 20.832031 C 11.925781 22.074219 13.359375 22.890625 15.09375 23.144531 C 17.4375 23.484375 19.472656 22.8125 21.226562 21.238281 C 21.425781 21.058594 21.597656 20.84375 21.820312 20.703125 C 21.953125 20.621094 22.160156 20.660156 22.332031 20.644531 C 22.328125 20.839844 22.398438 21.078125 22.308594 21.214844 C 22.132812 21.484375 21.882812 21.714844 21.636719 21.933594 C 20.0625 23.320312 18.222656 24.015625 15.984375 24.011719 "/>
</clipPath>
</defs>
<g id="surface1">
<g clip-path="url(#clip1)" clip-rule="evenodd">
<rect x="0" y="0" width="32" height="32" style="fill:rgb(100%,100%,100%);fill-opacity:1;stroke:none;"/>
</g>
<g clip-path="url(#clip2)" clip-rule="nonzero">
<g clip-path="url(#clip3)" clip-rule="nonzero">
<path style=" stroke:none;fill-rule:nonzero;fill:rgb(43.920898%,43.528748%,42.744446%);fill-opacity:1;" d="M -3 7.128906 L 14.472656 7.128906 L 14.472656 26.074219 L -3 26.074219 Z M -3 7.128906 "/>
</g>
</g>
<g clip-path="url(#clip4)" clip-rule="nonzero">
<g clip-path="url(#clip5)" clip-rule="nonzero">
<path style=" stroke:none;fill-rule:nonzero;fill:rgb(85.490417%,0%,0%);fill-opacity:1;" d="M 6.921875 6.910156 L 25.382812 6.910156 L 25.382812 26.296875 L 6.921875 26.296875 Z M 6.921875 6.910156 "/>
</g>
</g>
<g clip-path="url(#clip6)" clip-rule="nonzero">
<g clip-path="url(#clip7)" clip-rule="nonzero">
<path style=" stroke:none;fill-rule:nonzero;fill:rgb(43.920898%,43.528748%,42.744446%);fill-opacity:1;" d="M 18.011719 7.015625 L 34.988281 7.015625 L 34.988281 26.132812 L 18.011719 26.132812 Z M 18.011719 7.015625 "/>
</g>
</g>
<g clip-path="url(#clip8)" clip-rule="nonzero">
<g clip-path="url(#clip9)" clip-rule="nonzero">
<path style=" stroke:none;fill-rule:nonzero;fill:rgb(85.490417%,0%,0%);fill-opacity:1;" d="M 4.941406 4.125 L 27.5 4.125 L 27.5 17.613281 L 4.941406 17.613281 Z M 4.941406 4.125 "/>
</g>
</g>
<g clip-path="url(#clip10)" clip-rule="nonzero">
<g clip-path="url(#clip11)" clip-rule="nonzero">
<path style=" stroke:none;fill-rule:nonzero;fill:rgb(85.490417%,0%,0%);fill-opacity:1;" d="M 4.882812 15.628906 L 27.355469 15.628906 L 27.355469 29.011719 L 4.882812 29.011719 Z M 4.882812 15.628906 "/>
</g>
</g>
</g>
</svg>
