<svg width="175" height="157" viewBox="0 0 175 157" fill="none" xmlns="http://www.w3.org/2000/svg">
<path d="M87.5 157C130.854 157 166 121.854 166 78.5C166 35.1456 130.854 0 87.5 0C44.1456 0 9 35.1456 9 78.5C9 121.854 44.1456 157 87.5 157Z" fill="#EDEDED"/>
<path opacity="0.202451" fill-rule="evenodd" clip-rule="evenodd" d="M21.0511 69H119.949C131.575 69 141 78.4021 141 90C141 101.598 131.575 111 119.949 111H21.0511C9.42496 111 0 101.598 0 90C0 78.4021 9.42496 69 21.0511 69Z" fill="#CCCCCC"/>
<path opacity="0.161389" fill-rule="evenodd" clip-rule="evenodd" d="M52.1598 59H153.84C165.526 59 175 68.4021 175 80C175 91.5979 165.526 101 153.84 101H52.1598C40.4736 101 31 91.5979 31 80C31 68.4021 40.4736 59 52.1598 59Z" fill="#A2A2A2"/>
<path fill-rule="evenodd" clip-rule="evenodd" d="M11 59C12.1045 59 13 59.8955 13 61C13 62.1045 12.1045 63 11 63C9.89547 63 9 62.1045 9 61C9 59.8955 9.89547 59 11 59Z" fill="#9A9A9A"/>
<path fill-rule="evenodd" clip-rule="evenodd" d="M125 133C126.105 133 127 133.895 127 135C127 136.105 126.105 137 125 137C123.895 137 123 136.105 123 135C123 133.895 123.895 133 125 133Z" fill="#9A9A9A"/>
<path fill-rule="evenodd" clip-rule="evenodd" d="M66 6C67.1045 6 68 6.89547 68 8C68 9.10453 67.1045 10 66 10C64.8955 10 64 9.10453 64 8C64 6.89547 64.8955 6 66 6Z" fill="#9A9A9A"/>
<path fill-rule="evenodd" clip-rule="evenodd" d="M38 120C39.1045 120 40 120.895 40 122C40 123.105 39.1045 124 38 124C36.8955 124 36 123.105 36 122C36 120.895 36.8955 120 38 120Z" fill="#939393"/>
<path fill-rule="evenodd" clip-rule="evenodd" d="M125 46C126.105 46 127 46.8955 127 48C127 49.1045 126.105 50 125 50C123.895 50 123 49.1045 123 48C123 46.8955 123.895 46 125 46Z" fill="#D8D8D8"/>
<path fill-rule="evenodd" clip-rule="evenodd" d="M104 109.975C103.901 117.325 95.9205 122.432 89.0142 118.804L77.2557 112.626C74.2781 111.063 70.7219 111.063 67.7443 112.626L55.9858 118.804C49.0795 122.432 41.0994 117.325 41 109.975C41.0048 109.404 41.0562 108.834 41.1534 108.271L41.5426 106C44.9688 109.384 49.3153 111.678 54.0852 111.72C62.3778 111.797 70.1222 105.245 78.233 106.965C82.2727 107.817 85.6506 110.656 89.642 111.706C94.4943 113.001 99.6932 111.496 103.903 108.666C103.966 109.099 103.998 109.536 104 109.975Z" fill="#D9D9D9"/>
<path fill-rule="evenodd" clip-rule="evenodd" d="M154 65C155.105 65 156 65.8955 156 67C156 68.1045 155.105 69 154 69C152.895 69 152 68.1045 152 67C152 65.8955 152.895 65 154 65Z" fill="#A7A7A7"/>
<path fill-rule="evenodd" clip-rule="evenodd" d="M75.3886 135.777L71.3172 139.149C70.46 139.854 71.6858 141.06 72.5286 140.36L76.6 136.98C77.4572 136.274 76.2315 135.069 75.3886 135.769V135.777Z" fill="white"/>
<path fill-rule="evenodd" clip-rule="evenodd" d="M76.2515 139.497L72.8801 135.426C72.1744 134.569 70.9687 135.794 71.6687 136.637L75.0401 140.709C75.7458 141.566 76.9515 140.34 76.2515 139.497Z" fill="white"/>
<path fill-rule="evenodd" clip-rule="evenodd" d="M121.389 17.7772L117.317 21.1487C116.46 21.8544 117.686 23.0601 118.529 22.3601L122.6 18.9801C123.457 18.2744 122.231 17.0687 121.389 17.7687V17.7772Z" fill="white"/>
<path fill-rule="evenodd" clip-rule="evenodd" d="M122.252 21.4973L118.88 17.4258C118.174 16.5687 116.969 17.7944 117.669 18.6373L121.04 22.7087C121.746 23.5658 122.952 22.3401 122.252 21.4973Z" fill="white"/>
<path fill-rule="evenodd" clip-rule="evenodd" d="M56.9026 40.6592L129.388 90.149C131.069 91.326 131.518 93.6239 130.341 95.3614L102.311 136.388C101.134 138.069 98.8352 138.518 97.0974 137.341L24.6123 87.851C22.9306 86.674 22.4821 84.3761 23.6593 82.6386L51.6891 41.612C52.8664 39.9306 55.1648 39.4822 56.9026 40.6592Z" fill="#89D7E9"/>
<path fill-rule="evenodd" clip-rule="evenodd" d="M130.537 95.1306L101.412 137.764C100.512 139.057 98.7131 139.395 97.4199 138.495L25 89L126.77 89.0562L129.75 91.081C131.043 92.0372 131.381 93.837 130.537 95.1306Z" fill="#76A1AF"/>
<path fill-rule="evenodd" clip-rule="evenodd" d="M116.347 89.4521C111.944 86.461 108.666 83.6099 109.027 83.084C109.388 82.5581 113.25 84.5568 117.653 87.5479C122.056 90.539 125.334 93.3901 124.973 93.916C124.612 94.4419 120.75 92.4432 116.347 89.4521Z" fill="white"/>
<path fill-rule="evenodd" clip-rule="evenodd" d="M102.89 79.9494C101.551 78.9777 100.739 77.7646 101.076 77.2402C101.413 76.7157 102.771 77.0787 104.11 78.0509C105.448 79.0226 106.261 80.2357 105.924 80.7602C105.587 81.2841 104.229 80.9211 102.89 79.9494Z" fill="white"/>
<path fill-rule="evenodd" clip-rule="evenodd" d="M98.2591 135.896C99.1016 136.459 100.281 136.29 100.843 135.391L128.926 94.2427C129.488 93.3995 129.319 92.219 128.421 91.6569L55.7409 42.0209C54.8984 41.4588 53.7189 41.6274 53.1572 42.5268L25.0738 83.6747C24.5121 84.5179 24.7368 85.6983 25.5793 86.2605L98.2591 135.896ZM99.2701 140C98.1468 140 97.0235 139.663 96.1248 139.044L23.4449 89.4084C20.8613 87.6658 20.2434 84.1244 21.9846 81.5948L50.068 40.4469C51.8092 37.8611 55.3477 37.2428 57.8752 38.9854L130.555 88.5652C133.139 90.3078 133.757 93.8492 132.015 96.3788L103.932 137.527C102.921 139.044 101.18 140 99.2701 140Z" fill="#474747"/>
<path fill-rule="evenodd" clip-rule="evenodd" d="M62 75.3748L59.2431 79L57 77.6252L59.7562 74L62 75.3748Z" fill="#426572"/>
<path fill-rule="evenodd" clip-rule="evenodd" d="M65 78.3753L62.2432 82L60 80.6247L62.7574 77L65 78.3753Z" fill="#426572"/>
<path fill-rule="evenodd" clip-rule="evenodd" d="M68 80.3748L65.2431 84L63 82.6252L65.7562 79L68 80.3748Z" fill="#426572"/>
<path fill-rule="evenodd" clip-rule="evenodd" d="M71 82.3748L68.2431 86L66 84.6252L68.7562 81L71 82.3748Z" fill="#426572"/>
<path fill-rule="evenodd" clip-rule="evenodd" d="M76 85.3748L73.2431 89L71 87.6252L73.7562 84L76 85.3748Z" fill="#426572"/>
<path fill-rule="evenodd" clip-rule="evenodd" d="M80 88.3748L77.2431 92L75 90.6252L77.7562 87L80 88.3748Z" fill="#426572"/>
<path fill-rule="evenodd" clip-rule="evenodd" d="M83 90.3748L80.2431 94L78 92.6252L80.7562 89L83 90.3748Z" fill="#426572"/>
<path fill-rule="evenodd" clip-rule="evenodd" d="M86 92.3753L83.2432 96L81 94.6247L83.7574 91L86 92.3753Z" fill="#426572"/>
<path fill-rule="evenodd" clip-rule="evenodd" d="M91 95.3753L88.2432 99L86 97.6247L88.7574 94L91 95.3753Z" fill="#426572"/>
<path fill-rule="evenodd" clip-rule="evenodd" d="M94 98.3748L91.2431 102L89 100.625L91.7562 97L94 98.3748Z" fill="#426572"/>
<path fill-rule="evenodd" clip-rule="evenodd" d="M97 100.375L94.2432 104L92 102.625L94.7574 99L97 100.375Z" fill="#426572"/>
<path fill-rule="evenodd" clip-rule="evenodd" d="M101 102.375L98.2431 106L96 104.625L98.7562 101L101 102.375Z" fill="#426572"/>
<path fill-rule="evenodd" clip-rule="evenodd" d="M69 93.9137L66.91 97L38 77.0863L40.09 74L69 93.9137Z" fill="#474747"/>
<path fill-rule="evenodd" clip-rule="evenodd" d="M49 87.7844L46.8122 91L34 82.2156L36.1878 79L49 87.7844Z" fill="#474747"/>
<path fill-rule="evenodd" clip-rule="evenodd" d="M96.5 116C99.5373 116 102 118.463 102 121.5C102 124.537 99.5373 127 96.5 127C93.4627 127 91 124.537 91 121.5C91 118.463 93.4627 116 96.5 116Z" fill="white"/>
<path fill-rule="evenodd" clip-rule="evenodd" d="M96.0551 118.693C94.2362 118.693 92.748 120.181 92.748 122C92.748 123.819 94.2362 125.307 96.0551 125.307C97.1575 125.307 98.2047 124.756 98.811 123.874C99.8583 122.386 99.4724 120.291 97.9291 119.299C97.3779 118.913 96.7165 118.693 96.0551 118.693ZM96 129C92.1417 129 89 125.858 89 122C89 118.142 92.1417 115 96 115C99.8583 115 103 118.142 103 122C103 125.362 100.575 128.283 97.2677 128.89C96.8819 128.945 96.4409 129 96 129Z" fill="#426572"/>
<path d="M47.7787 70.5929L49.3804 68.1265C51.2085 69.097 52.8542 69.5072 54.3175 69.357C55.7808 69.2068 56.9265 68.4941 57.7547 67.2188C58.213 66.513 58.4533 65.791 58.4755 65.0527C58.4977 64.3145 58.3074 63.5011 57.9048 62.6124C57.5021 61.7237 56.6816 60.4497 55.4434 58.7903L57.7483 55.2411C59.0453 56.2431 60.1787 57.4238 61.1484 58.7834L64.1545 56.733C63.0363 55.0717 61.5467 53.5799 59.6859 52.2574L60.8501 50.4648L59.1335 49.35L57.9381 51.1908C56.1382 50.25 54.5207 49.8467 53.0856 49.9809C51.6504 50.1152 50.5553 50.7638 49.8 51.9268C49.0968 53.0096 48.8515 54.1417 49.064 55.3232C49.2766 56.5046 50.0067 57.9452 51.2544 59.6449L51.8907 60.5029L49.4687 64.2325C48.698 63.6636 47.887 62.9146 47.0356 61.9854C46.1842 61.0562 45.5071 60.1831 45.0044 59.3663L42.9417 62.5425C44.0568 64.1903 45.6204 65.6961 47.6326 67.0598L46.0621 69.4781L47.7787 70.5929ZM54.1643 57.0018C53.7526 56.3923 53.4935 55.8905 53.3872 55.4965C53.2809 55.1024 53.3423 54.729 53.5715 54.376C54.0142 53.6943 54.8239 53.6271 56.0004 54.1745L54.1643 57.0018ZM51.24 65.2631L53.1854 62.2673C53.592 62.8848 53.8617 63.4021 53.9947 63.8192C54.1276 64.2362 54.0847 64.6132 53.866 64.95C53.3711 65.712 52.4958 65.8164 51.24 65.2631Z" fill="white"/>
<path fill-rule="evenodd" clip-rule="evenodd" d="M103.381 33.2112L139.673 113.205C140.514 115.112 139.673 117.3 137.822 118.142L92.5551 138.673C90.648 139.515 88.4604 138.673 87.619 136.822L51.3269 56.8279C50.4855 54.9206 51.3269 52.7328 53.178 51.8914L98.4449 31.36C100.296 30.4624 102.54 31.3039 103.381 33.2112Z" fill="#89D7E9"/>
<path fill-rule="evenodd" clip-rule="evenodd" d="M138.336 117.577L91.7404 138.739C90.2912 139.409 88.6191 138.739 87.9503 137.288L52 58L138.281 110.542L139.73 113.78C140.399 115.232 139.786 116.907 138.336 117.577Z" fill="#76A1AF"/>
<path fill-rule="evenodd" clip-rule="evenodd" d="M129.978 105.489C127.842 100.526 126.569 96.2837 127.134 96.0136C127.699 95.7429 129.887 99.5472 132.022 104.51C134.157 109.473 135.431 113.716 134.866 113.986C134.302 114.257 132.113 110.452 129.978 105.489Z" fill="white"/>
<path fill-rule="evenodd" clip-rule="evenodd" d="M123.555 90.4948C122.912 88.8605 122.813 87.3147 123.335 87.0416C123.858 86.768 124.802 87.8716 125.446 89.5052C126.089 91.1394 126.187 92.6853 125.665 92.9583C125.143 93.2319 124.198 92.129 123.555 90.4948Z" fill="white"/>
<mask id="mask0_142_2059" style="mask-type:alpha" maskUnits="userSpaceOnUse" x="50" y="28" width="93" height="112">
<path d="M50.0049 28.3929H142.719V139.443H50.0049V28.3929Z" fill="white"/>
</mask>
<g mask="url(#mask0_142_2059)">
<path fill-rule="evenodd" clip-rule="evenodd" d="M90.1712 134.651C90.6194 135.598 91.6839 135.988 92.6363 135.598L137.848 115.204C138.8 114.758 139.192 113.699 138.8 112.752L102.497 33.2378C102.048 32.2905 100.984 31.9005 100.031 32.2905L54.82 52.6846C53.8676 53.1303 53.4754 54.189 53.8676 55.1363L90.1712 134.651ZM91.8519 139.443C89.667 139.443 87.6501 138.161 86.7537 136.155L50.5062 56.6965C49.2176 53.9104 50.5062 50.5671 53.3074 49.2855L98.5188 28.8915C101.32 27.6099 104.681 28.8915 105.97 31.6776L142.218 111.136C143.506 113.922 142.218 117.266 139.416 118.547L94.205 138.941C93.4206 139.276 92.6363 139.443 91.8519 139.443Z" fill="#474747"/>
</g>
<path fill-rule="evenodd" clip-rule="evenodd" d="M87 84.4416L83.5962 86L69 53.5585L72.4038 52L87 84.4416Z" fill="#474747"/>
<path fill-rule="evenodd" clip-rule="evenodd" d="M73 68.4715L69.4482 70L63 56.5285L66.5518 55L73 68.4715Z" fill="#474747"/>
<path fill-rule="evenodd" clip-rule="evenodd" d="M96.5 117C99.5373 117 102 119.463 102 122.5C102 125.537 99.5373 128 96.5 128C93.4627 128 91 125.537 91 122.5C91 119.463 93.4627 117 96.5 117Z" fill="white"/>
<path fill-rule="evenodd" clip-rule="evenodd" d="M95 119.693C93.1811 119.693 91.6929 121.181 91.6929 123C91.6929 124.819 93.1811 126.307 95 126.307C95.4961 126.307 95.937 126.197 96.378 126.031C98.0315 125.26 98.748 123.276 97.9764 121.622C97.4252 120.465 96.2677 119.693 95 119.693ZM95 130C91.1417 130 88 126.858 88 123C88 119.142 91.1417 116 95 116C98.8583 116 102 119.142 102 123C102 125.756 100.402 128.236 97.8661 129.394C96.9843 129.78 95.9921 130 95 130Z" fill="#474747"/>
<path d="M83.1402 54.1332L85.7834 52.8441C86.8506 54.6175 88.0499 55.8167 89.3815 56.4416C90.7132 57.0665 92.0623 57.0457 93.429 56.3791C94.1855 56.0102 94.7633 55.515 95.1625 54.8937C95.5617 54.2723 95.8176 53.4771 95.9302 52.5079C96.0427 51.5388 95.9956 50.0242 95.7889 47.9641L99.5925 46.1089C100.188 47.6358 100.552 49.2316 100.683 50.8965L104.315 50.6872C104.212 48.6872 103.704 46.6413 102.79 44.5493L104.711 43.6123L103.814 41.7727L101.841 42.7348C100.783 41.0014 99.6043 39.8226 98.305 39.1986C97.0057 38.5745 95.7329 38.5664 94.4865 39.1743C93.3261 39.7403 92.5327 40.5843 92.1064 41.7065C91.6801 42.8287 91.564 44.4395 91.7581 46.539L91.8616 47.6022L87.8646 49.5517C87.497 48.6672 87.1876 47.6074 86.9364 46.3724C86.6852 45.1374 86.5545 44.0404 86.5442 43.0813L83.1403 44.7415C83.2474 46.7282 83.8122 48.8243 84.8346 51.0295L82.243 52.2936L83.1402 54.1332ZM95.6137 45.7722C95.5746 45.0377 95.611 44.4742 95.7228 44.0817C95.8347 43.6892 96.0797 43.4007 96.4579 43.2162C97.1885 42.8598 97.9171 43.2192 98.6437 44.2944L95.6137 45.7722ZM88.8521 51.3474L92.0626 49.7815C92.0931 50.5202 92.0579 51.1025 91.9571 51.5285C91.8562 51.9544 91.6253 52.2555 91.2643 52.4315C90.4477 52.8298 89.6436 52.4684 88.8521 51.3474Z" fill="white"/>
</svg>
