<?xml version="1.0" encoding="UTF-8"?>
<svg xmlns="http://www.w3.org/2000/svg" xmlns:xlink="http://www.w3.org/1999/xlink" width="32pt" height="32pt" viewBox="0 0 32 32" version="1.1">
<defs>
<clipPath id="clip1">
  <path d="M 16 32 C 24.835938 32 32 24.835938 32 16 C 32 7.164062 24.835938 0 16 0 C 7.164062 0 0 7.164062 0 16 C 0 24.835938 7.164062 32 16 32 Z M 16 32 "/>
</clipPath>
<clipPath id="clip2">
  <path d="M 5 7 L 27 7 L 27 25 L 5 25 Z M 5 7 "/>
</clipPath>
<clipPath id="clip3">
  <path d="M 13.703125 12.828125 C 11.640625 8.878906 6.429688 9.484375 5.285156 12.84375 C 5.285156 12.84375 5.125 13.933594 5 15.066406 L 5 21.949219 L 8.347656 25 L 8.347656 16.597656 C 8.347656 16.597656 8.710938 12.582031 13.703125 12.828125 Z M 8.789062 19.234375 C 8.789062 19.234375 14.289062 19.972656 14.476562 14.515625 C 14.390625 9.390625 21.164062 9.050781 23.007812 12.734375 C 23.007812 12.734375 18.203125 12.796875 17.699219 16.660156 C 17.699219 16.660156 17.761719 21.425781 13.972656 21.917969 C 13.972656 21.917969 9.863281 22.609375 8.789062 19.234375 Z M 18.296875 19.171875 C 20.355469 23.121094 25.476562 22.46875 26.617188 19.113281 C 26.617188 19.113281 26.96875 18.34375 27 16.933594 L 27 10.050781 L 23.652344 7 L 23.652344 15.402344 C 23.652344 15.402344 23.289062 19.417969 18.296875 19.171875 Z M 18.296875 19.171875 "/>
</clipPath>
</defs>
<g id="surface1">
<g clip-path="url(#clip1)" clip-rule="evenodd">
<rect x="0" y="0" width="32" height="32" style="fill:rgb(100%,100%,100%);fill-opacity:1;stroke:none;"/>
</g>
<g clip-path="url(#clip2)" clip-rule="nonzero">
<g clip-path="url(#clip3)" clip-rule="nonzero">
<path style=" stroke:none;fill-rule:nonzero;fill:rgb(16.078186%,17.64679%,47.058105%);fill-opacity:1;" d="M 0 2 L 32 2 L 32 30 L 0 30 Z M 0 2 "/>
</g>
</g>
</g>
</svg>
