<svg width="44" height="44" viewBox="0 0 44 44" fill="none" xmlns="http://www.w3.org/2000/svg">
<g id="Category=Coin">
<rect id="Button" x="1" y="1" width="42" height="42" rx="7" fill="white" stroke="#303030" stroke-width="2"/>
<g id="_&#229;&#156;&#150;&#229;&#177;&#164;_1" clip-path="url(#clip0_2640_7689)">
<path id="Vector" d="M12.7086 32.5341C12.2953 32.1208 11.8828 31.7082 11.4696 31.2949C11.4308 31.2342 11.3986 31.1677 11.3518 31.1135C9.79177 29.2899 8.75172 27.2052 8.29387 24.852C7.52517 20.9027 8.2573 17.2496 10.5532 13.9294C10.8421 13.5117 11.1639 13.1167 11.4696 12.7107C11.8828 12.2974 12.2953 11.8848 12.7086 11.4716C12.7824 11.4211 12.8592 11.3735 12.9309 11.3194C13.3295 11.0166 13.7128 10.6903 14.1282 10.4109C16.8607 8.57266 19.8814 7.76728 23.1551 8.05769C27.5574 8.4483 31.0549 10.4797 33.5716 14.1144C35.4513 16.8297 36.2237 19.8778 35.9443 23.1637C35.61 27.102 33.8956 30.3506 30.8508 32.8662C28.7539 34.5984 26.3264 35.6107 23.6203 35.907C20.1001 36.2925 16.8673 35.4922 13.9497 33.4711C13.5241 33.1763 13.1218 32.8479 12.7086 32.5348V32.5341ZM30.7514 13.2557C25.9315 8.43001 18.0697 8.43001 13.2491 13.2557C8.43503 18.074 8.42991 25.9097 13.2381 30.7405C18.0441 35.5698 25.9103 35.5786 30.7411 30.7617C35.5676 25.9478 35.5727 18.0828 30.7521 13.2564L30.7514 13.2557Z" fill="#007FDA"/>
<path id="Vector_2" d="M14.3916 29.5709C10.2388 25.3868 10.257 18.5386 14.4318 14.3947C18.6162 10.2413 25.4649 10.2588 29.6061 14.4349C33.7582 18.6212 33.7407 25.4694 29.5659 29.6119C25.3816 33.7638 18.5342 33.7455 14.3909 29.5709H14.3916ZM28.4293 28.4261C31.9678 24.8821 31.9641 19.1091 28.4212 15.5716C24.8762 12.032 19.1069 12.0356 15.5692 15.5797C12.0307 19.1238 12.0343 24.896 15.5772 28.4334C19.1208 31.9717 24.893 31.968 28.4293 28.4254V28.4261Z" fill="#007FDA"/>
<path id="Vector_3" d="M26.0537 26.0663C23.3622 26.0663 20.6458 26.0663 17.9652 26.0663C17.9652 23.3715 17.9652 20.6482 17.9652 17.9556C20.6341 17.9556 23.3571 17.9556 26.0537 17.9556C26.0537 20.6336 26.0537 23.3496 26.0537 26.0671V26.0663ZM24.4147 19.6007C22.81 19.6007 21.1833 19.6007 19.6072 19.6007C19.6072 21.1975 19.6087 22.8244 19.6094 24.3839C21.2002 24.3839 22.8268 24.3839 24.4117 24.3839C24.4132 22.8039 24.4139 21.1836 24.4154 19.6007H24.4147Z" fill="#007FDA"/>
<path id="Vector_4" d="M14.6871 21.2312C15.1655 21.2305 15.6979 21.229 16.2026 21.2275C16.2026 21.7389 16.204 22.2714 16.204 22.7893C15.7001 22.7863 15.175 22.7834 14.6871 22.7812C14.6871 22.2802 14.6871 21.7418 14.6871 21.2312Z" fill="#007FDA"/>
<path id="Vector_5" d="M21.2529 14.6653C21.7364 14.6653 22.2703 14.6639 22.7903 14.6639C22.7903 15.1664 22.7903 15.6909 22.7903 16.1825C22.2783 16.1825 21.7474 16.1825 21.2522 16.1817C21.2522 15.715 21.2522 15.1832 21.2522 14.6661L21.2529 14.6653Z" fill="#007FDA"/>
<path id="Vector_6" d="M22.7552 29.3647C22.2615 29.3647 21.7356 29.3647 21.2375 29.3647C21.2397 28.8512 21.2412 28.3201 21.2434 27.8183C21.721 27.8183 22.2535 27.8198 22.7537 27.8198C22.7537 28.2967 22.7545 28.8299 22.7552 29.3654V29.3647Z" fill="#007FDA"/>
<path id="Vector_7" d="M29.3362 22.7864C28.8235 22.7885 28.2984 22.7907 27.7959 22.7922C27.7966 22.2743 27.7981 21.7418 27.7988 21.2319C28.2954 21.2334 28.8279 21.2341 29.3399 21.2356C29.3391 21.7359 29.3377 22.2692 29.3362 22.7864Z" fill="#007FDA"/>
</g>
</g>
<defs>
<clipPath id="clip0_2640_7689">
<rect width="28" height="28" fill="white" transform="translate(8 8)"/>
</clipPath>
</defs>
</svg>
