<?xml version="1.0" encoding="UTF-8"?>
<svg xmlns="http://www.w3.org/2000/svg" xmlns:xlink="http://www.w3.org/1999/xlink" width="24pt" height="24pt" viewBox="0 0 24 24" version="1.1">
<defs>
<clipPath id="clip1">
  <path d="M 3 1 L 24 1 L 24 22 L 3 22 Z M 3 1 "/>
</clipPath>
<clipPath id="clip2">
  <path d="M 11.363281 4 C 11.128906 4.699219 11 5.453125 11 6.234375 C 11 6.753906 11.058594 7.261719 11.164062 7.75 L 6.75 7.75 L 6.75 10 L 12.097656 10 C 12.566406 10.726562 13.164062 11.363281 13.855469 11.875 L 6.75 11.875 L 6.75 14.125 L 17.25 14.125 L 17.25 13.191406 C 17.496094 13.21875 17.746094 13.234375 18 13.234375 C 19.074219 13.234375 20.089844 12.992188 21 12.558594 L 21 20.125 C 21 20.625 20.8125 21.0625 20.4375 21.4375 C 20.0625 21.8125 19.625 22 19.125 22 L 4.875 22 C 4.375 22 3.9375 21.8125 3.5625 21.4375 C 3.1875 21.0625 3 20.625 3 20.125 L 3 5.875 C 3 5.375 3.1875 4.9375 3.5625 4.5625 C 3.9375 4.1875 4.375 4 4.875 4 Z M 17.25 16 L 6.75 16 L 6.75 18.25 L 17.25 18.25 Z M 18.136719 1 C 21.011719 1.003906 23.351562 3.351562 23.351562 6.234375 C 23.347656 9.109375 20.996094 11.46875 18.125 11.464844 C 15.242188 11.464844 12.890625 9.101562 12.898438 6.210938 C 12.902344 3.335938 15.253906 0.996094 18.136719 1 Z M 18.910156 3.054688 L 17.359375 3.054688 C 17.355469 3.136719 17.339844 3.203125 17.339844 3.269531 C 17.339844 4.558594 17.34375 5.851562 17.339844 7.144531 C 17.339844 7.476562 17.4375 7.757812 17.746094 7.917969 C 18.546875 8.328125 19.347656 8.726562 20.175781 9.144531 L 20.882812 7.738281 C 20.292969 7.441406 19.734375 7.144531 19.164062 6.875 C 18.960938 6.78125 18.902344 6.664062 18.90625 6.449219 C 18.917969 5.414062 18.910156 4.378906 18.910156 3.34375 Z M 18.910156 3.054688 "/>
</clipPath>
</defs>
<g id="surface1">
<g clip-path="url(#clip1)" clip-rule="nonzero">
<g clip-path="url(#clip2)" clip-rule="evenodd">
<rect x="0" y="0" width="24" height="24" style="fill:rgb(90.196228%,90.196228%,90.196228%);fill-opacity:1;stroke:none;"/>
</g>
</g>
</g>
</svg>
