<svg width="32" height="32" viewBox="0 0 32 32" fill="none" xmlns="http://www.w3.org/2000/svg">
<path d="M16 32C24.8366 32 32 24.8366 32 16C32 7.16344 24.8366 0 16 0C7.16344 0 0 7.16344 0 16C0 24.8366 7.16344 32 16 32Z" fill="white"/>
<path d="M12.8873 27.0148C12.2365 27.4028 11.6448 27.6344 11.0248 27.6344C9.41893 27.6344 8.07733 26.3192 8.00024 24.7383L11.128 22.8744L15.9911 25.0492L12.8873 27.0148Z" fill="#78ADD2"/>
<path d="M14.7473 19.0076L12.4242 17.9842C11.3858 17.5195 10.4058 17.1337 10.4058 15.9903C10.4058 15.3986 10.5856 15.0885 10.8694 14.7791L15.7843 16.9458L14.5656 17.6491C14.2301 17.855 13.9978 18.036 13.9978 18.2944C13.9974 18.5741 14.3164 18.8123 14.7473 19.0076Z" fill="#A4D0A0"/>
<path d="M17.03 8.28455L14.6474 9.73002C14.4367 9.85776 14.1533 10.064 14.1533 10.3812C14.1533 10.7416 14.7032 11.018 15.1917 11.2507L12.2112 9.93558C11.3328 9.54906 10.457 9.11006 10.457 8.05146C10.457 7.60659 10.5859 7.2465 10.7922 6.93744L17.2359 3C18.0078 3.4379 18.757 4.32325 18.757 5.51105C18.757 6.78181 18.1131 7.63302 17.03 8.28455Z" fill="#78ADD2"/>
<path d="M22.0966 12.9411L21.5053 13.2759L16.583 11.1032L22.3044 7.65912C23.077 8.10473 23.8332 8.98126 23.8332 10.168C23.8332 11.4391 23.207 12.3153 22.0966 12.9411Z" fill="#A4D0A0"/>
<path d="M17.9422 17.1196L20.8537 18.3985C21.9442 18.8874 22.2793 19.4607 22.2793 20.1857C22.2793 20.5975 22.0474 21.0108 21.7126 21.2942L16.8171 19.1197L17.6452 18.6558C18.3459 18.2682 18.5783 18.0358 18.5783 17.7778C18.5779 17.5105 18.4149 17.334 17.9422 17.1196Z" fill="#78ADD2"/>
<mask id="mask0_142_2016" style="mask-type:alpha" maskUnits="userSpaceOnUse" x="8" y="14" width="16" height="14">
<path d="M8.43823 14.7797H23.938V27.8664H8.43823V14.7797Z" fill="white"/>
</mask>
<g mask="url(#mask0_142_2016)">
<path d="M23.1309 27.8665C21.8924 26.9118 20.571 26.2672 18.9647 25.5382L11.5406 22.2538C9.67522 21.4217 8.43823 20.3142 8.43823 18.4496C8.43823 16.637 9.31624 15.759 10.4567 15.0381L10.8689 14.7797C10.5855 15.0888 10.4053 15.3993 10.4053 15.9907C10.4053 17.1337 11.3853 17.5202 12.4238 17.9845L21.0607 21.7905C22.5634 22.4358 23.938 23.5451 23.938 25.4351C23.9384 26.4735 23.5431 27.4021 23.1309 27.8665Z" fill="#21AA47"/>
</g>
<mask id="mask1_142_2016" style="mask-type:alpha" maskUnits="userSpaceOnUse" x="8" y="6" width="17" height="16">
<path d="M8.59204 6.93811H24.142V21.2945H8.59204V6.93811Z" fill="white"/>
</mask>
<g mask="url(#mask1_142_2016)">
<path d="M22.2543 20.9579L21.7122 21.2945C22.0469 21.0111 22.2789 20.5978 22.2789 20.1853C22.2789 19.4614 21.9427 18.8877 20.8533 18.3988L11.6173 14.334C9.75305 13.5096 8.59204 12.4451 8.59204 10.5881C8.59204 8.87875 9.44362 7.76216 10.7915 6.93811C10.5852 7.24717 10.4563 7.60726 10.4563 8.05213C10.4563 9.11073 11.3329 9.54973 12.2109 9.93625L21.1884 13.8961C22.8203 14.6192 24.1421 15.7086 24.1421 17.7017C24.1425 19.2555 23.4153 20.2356 22.2543 20.9579Z" fill="#0072AA"/>
</g>
</svg>
