<?xml version="1.0" encoding="UTF-8"?>
<svg xmlns="http://www.w3.org/2000/svg" xmlns:xlink="http://www.w3.org/1999/xlink" width="32pt" height="32pt" viewBox="0 0 32 32" version="1.1">
<g id="surface1">
<path style=" stroke:none;fill-rule:nonzero;fill:rgb(100%,100%,100%);fill-opacity:1;" d="M 16 32 C 24.835938 32 32 24.835938 32 16 C 32 7.164062 24.835938 0 16 0 C 7.164062 0 0 7.164062 0 16 C 0 24.835938 7.164062 32 16 32 Z M 16 32 "/>
<path style=" stroke:none;fill-rule:nonzero;fill:rgb(15.293884%,45.881653%,79.214478%);fill-opacity:1;" d="M 16 28 C 22.648438 28 28 22.648438 28 16 C 28 9.351562 22.648438 4 16 4 C 9.351562 4 4 9.351562 4 16 C 4 22.648438 9.351562 28 16 28 Z M 16 28 "/>
<path style=" stroke:none;fill-rule:nonzero;fill:rgb(100%,100%,100%);fill-opacity:1;" d="M 19.300781 17.898438 C 19.300781 16.148438 18.25 15.550781 16.148438 15.300781 C 14.648438 15.101562 14.351562 14.699219 14.351562 14 C 14.351562 13.300781 14.851562 12.851562 15.851562 12.851562 C 16.75 12.851562 17.25 13.148438 17.5 13.898438 C 17.550781 14.050781 17.699219 14.148438 17.851562 14.148438 L 18.648438 14.148438 C 18.851562 14.148438 19 14 19 13.800781 L 19 13.75 C 18.800781 12.648438 17.898438 11.800781 16.75 11.699219 L 16.75 10.5 C 16.75 10.300781 16.601562 10.148438 16.351562 10.101562 L 15.601562 10.101562 C 15.398438 10.101562 15.25 10.25 15.199219 10.5 L 15.199219 11.648438 C 13.699219 11.851562 12.75 12.851562 12.75 14.101562 C 12.75 15.75 13.75 16.398438 15.851562 16.648438 C 17.25 16.898438 17.699219 17.199219 17.699219 18 C 17.699219 18.800781 17 19.351562 16.050781 19.351562 C 14.75 19.351562 14.300781 18.800781 14.148438 18.050781 C 14.101562 17.851562 13.949219 17.75 13.800781 17.75 L 12.949219 17.75 C 12.75 17.75 12.601562 17.898438 12.601562 18.101562 L 12.601562 18.148438 C 12.800781 19.398438 13.601562 20.300781 15.25 20.550781 L 15.25 21.75 C 15.25 21.949219 15.398438 22.101562 15.648438 22.148438 L 16.398438 22.148438 C 16.601562 22.148438 16.75 22 16.800781 21.75 L 16.800781 20.550781 C 18.300781 20.300781 19.300781 19.25 19.300781 17.898438 Z M 19.300781 17.898438 "/>
<path style=" stroke:none;fill-rule:nonzero;fill:rgb(100%,100%,100%);fill-opacity:1;" d="M 13.449219 23.148438 C 9.550781 21.75 7.550781 17.398438 9 13.550781 C 9.75 11.449219 11.398438 9.851562 13.449219 9.101562 C 13.648438 9 13.75 8.851562 13.75 8.601562 L 13.75 7.898438 C 13.75 7.699219 13.648438 7.550781 13.449219 7.5 C 13.398438 7.5 13.300781 7.5 13.25 7.550781 C 8.5 9.050781 5.898438 14.101562 7.398438 18.851562 C 8.300781 21.648438 10.449219 23.800781 13.25 24.699219 C 13.449219 24.800781 13.648438 24.699219 13.699219 24.5 C 13.75 24.449219 13.75 24.398438 13.75 24.300781 L 13.75 23.601562 C 13.75 23.449219 13.601562 23.25 13.449219 23.148438 Z M 18.75 7.550781 C 18.550781 7.449219 18.351562 7.550781 18.300781 7.75 C 18.25 7.800781 18.25 7.851562 18.25 7.949219 L 18.25 8.648438 C 18.25 8.851562 18.398438 9.050781 18.550781 9.148438 C 22.449219 10.550781 24.449219 14.898438 23 18.75 C 22.25 20.851562 20.601562 22.449219 18.550781 23.199219 C 18.351562 23.300781 18.25 23.449219 18.25 23.699219 L 18.25 24.398438 C 18.25 24.601562 18.351562 24.75 18.550781 24.800781 C 18.601562 24.800781 18.699219 24.800781 18.75 24.75 C 23.5 23.25 26.101562 18.199219 24.601562 13.449219 C 23.699219 10.601562 21.5 8.449219 18.75 7.550781 Z M 18.75 7.550781 "/>
</g>
</svg>
