<?xml version="1.0" encoding="UTF-8"?>
<svg xmlns="http://www.w3.org/2000/svg" xmlns:xlink="http://www.w3.org/1999/xlink" width="240pt" height="240pt" viewBox="0 0 240 240" version="1.1">
<g id="surface1">
<path style=" stroke:none;fill-rule:nonzero;fill:rgb(9.01947%,9.411621%,10.195923%);fill-opacity:1;" d="M 221 73 L 228 73 L 228 135 L 221 135 Z M 221 73 "/>
<path style=" stroke:none;fill-rule:nonzero;fill:rgb(39.99939%,39.99939%,39.99939%);fill-opacity:1;" d="M 221 73 L 221 72.5 L 220.5 72.5 L 220.5 73 Z M 228 73 L 228.5 73 L 228.5 72.5 L 228 72.5 Z M 228 135 L 228 135.5 L 228.5 135.5 L 228.5 135 Z M 221 135 L 220.5 135 L 220.5 135.5 L 221 135.5 Z M 221 73.5 L 228 73.5 L 228 72.5 L 221 72.5 Z M 227.5 73 L 227.5 135 L 228.5 135 L 228.5 73 Z M 228 134.5 L 221 134.5 L 221 135.5 L 228 135.5 Z M 221.5 135 L 221.5 73 L 220.5 73 L 220.5 135 Z M 221.5 135 "/>
<path style=" stroke:none;fill-rule:nonzero;fill:rgb(9.01947%,9.411621%,10.195923%);fill-opacity:1;" d="M 231 134.996094 C 231 140.253906 227.835938 144.996094 222.976562 147.007812 C 218.117188 149.023438 212.527344 147.910156 208.808594 144.191406 C 205.089844 140.472656 203.976562 134.882812 205.992188 130.023438 C 208.003906 125.164062 212.746094 122 218.003906 122 C 225.179688 122 231 127.820312 231 134.996094 Z M 231 134.996094 "/>
<path style=" stroke:none;fill-rule:nonzero;fill:rgb(39.99939%,39.99939%,39.99939%);fill-opacity:1;" d="M 218.003906 122 L 218.003906 122.5 Z M 230.5 134.996094 C 230.5 140.054688 227.457031 144.613281 222.785156 146.546875 L 223.167969 147.472656 C 228.210938 145.382812 231.5 140.457031 231.5 134.996094 Z M 222.785156 146.546875 C 218.113281 148.484375 212.738281 147.414062 209.160156 143.839844 L 208.453125 144.546875 C 212.316406 148.40625 218.125 149.5625 223.167969 147.472656 Z M 209.160156 143.839844 C 205.585938 140.261719 204.515625 134.886719 206.453125 130.214844 L 205.527344 129.832031 C 203.4375 134.875 204.59375 140.683594 208.453125 144.546875 Z M 206.453125 130.214844 C 208.386719 125.542969 212.945312 122.5 218.003906 122.5 L 218.003906 121.5 C 212.542969 121.5 207.617188 124.789062 205.527344 129.832031 Z M 218.003906 122.5 C 224.90625 122.5 230.5 128.09375 230.5 134.996094 L 231.5 134.996094 C 231.5 127.542969 225.457031 121.5 218.003906 121.5 Z M 218.003906 122.5 "/>
<path style=" stroke:none;fill-rule:nonzero;fill:rgb(39.99939%,39.99939%,39.99939%);fill-opacity:1;" d="M 209 58 L 207.683594 44 L 73.316406 44 L 72 58 Z M 209 58 "/>
<path style=" stroke:none;fill-rule:nonzero;fill:rgb(9.01947%,9.411621%,10.195923%);fill-opacity:1;" d="M 69 138 L 210 138 L 210 210 L 69 210 Z M 69 138 "/>
<path style=" stroke:none;fill-rule:nonzero;fill:rgb(39.99939%,39.99939%,39.99939%);fill-opacity:1;" d="M 69 138 L 69 137.5 L 68.5 137.5 L 68.5 138 Z M 210 138 L 210.5 138 L 210.5 137.5 L 210 137.5 Z M 210 210 L 210 210.5 L 210.5 210.5 L 210.5 210 Z M 69 210 L 68.5 210 L 68.5 210.5 L 69 210.5 Z M 69 138.5 L 210 138.5 L 210 137.5 L 69 137.5 Z M 209.5 138 L 209.5 210 L 210.5 210 L 210.5 138 Z M 210 209.5 L 69 209.5 L 69 210.5 L 210 210.5 Z M 69.5 210 L 69.5 138 L 68.5 138 L 68.5 210 Z M 69.5 210 "/>
<path style=" stroke:none;fill-rule:nonzero;fill:rgb(9.01947%,9.411621%,10.195923%);fill-opacity:1;" d="M 207.644531 43 L 74.355469 43 L 67 122.5 L 67 135 L 215 135 L 215 122.5 Z M 207.644531 43 "/>
<path style=" stroke:none;fill-rule:nonzero;fill:rgb(39.99939%,39.99939%,39.99939%);fill-opacity:1;" d="M 74.355469 43 L 74.355469 42.5 L 73.902344 42.5 L 73.859375 42.953125 Z M 67 122.5 L 66.503906 122.453125 L 66.5 122.476562 L 66.5 122.5 Z M 67 135 L 66.5 135 L 66.5 135.5 L 67 135.5 Z M 215 135 L 215 135.5 L 215.5 135.5 L 215.5 135 Z M 215 122.5 L 215.5 122.5 L 215.5 122.476562 L 215.496094 122.453125 Z M 207.644531 42.5 L 74.355469 42.5 L 74.355469 43.5 L 207.644531 43.5 Z M 73.859375 42.953125 L 66.503906 122.453125 L 67.496094 122.546875 L 74.855469 43.046875 Z M 66.5 122.5 L 66.5 135 L 67.5 135 L 67.5 122.5 Z M 67 135.5 L 215 135.5 L 215 134.5 L 67 134.5 Z M 215.5 135 L 215.5 122.5 L 214.5 122.5 L 214.5 135 Z M 215.496094 122.453125 L 208.140625 42.953125 L 207.144531 43.046875 L 214.503906 122.546875 Z M 215.496094 122.453125 "/>
<path style=" stroke:none;fill-rule:nonzero;fill:rgb(9.01947%,9.411621%,10.195923%);fill-opacity:1;" d="M 215 134 L 215 145.152344 L 67 145.152344 L 67 134 L 67 200 L 215 200 Z M 215 134 "/>
<path style=" stroke:none;fill-rule:nonzero;fill:rgb(39.99939%,39.99939%,39.99939%);fill-opacity:1;" d="M 215 145.152344 L 215 145.652344 L 215.5 145.652344 L 215.5 145.152344 Z M 67 145.152344 L 66.5 145.152344 L 66.5 145.652344 L 67 145.652344 Z M 67 200 L 66.5 200 L 66.5 200.5 L 67 200.5 Z M 215 200 L 215 200.5 L 215.5 200.5 L 215.5 200 Z M 214.5 134 L 214.5 145.152344 L 215.5 145.152344 L 215.5 134 Z M 215 144.652344 L 67 144.652344 L 67 145.652344 L 215 145.652344 Z M 67.5 145.152344 L 67.5 134 L 66.5 134 L 66.5 145.152344 Z M 66.5 134 L 66.5 200 L 67.5 200 L 67.5 134 Z M 67 200.5 L 215 200.5 L 215 199.5 L 67 199.5 Z M 215.5 200 L 215.5 134 L 214.5 134 L 214.5 200 Z M 215.5 200 "/>
<path style=" stroke:none;fill-rule:nonzero;fill:rgb(9.01947%,9.411621%,10.195923%);fill-opacity:1;" d="M 67 136 L 215 136 L 215 147 L 67 147 Z M 67 136 "/>
<path style=" stroke:none;fill-rule:nonzero;fill:rgb(39.99939%,39.99939%,39.99939%);fill-opacity:1;" d="M 67 136 L 67 135.5 L 66.5 135.5 L 66.5 136 Z M 215 136 L 215.5 136 L 215.5 135.5 L 215 135.5 Z M 215 147 L 215 147.5 L 215.5 147.5 L 215.5 147 Z M 67 147 L 66.5 147 L 66.5 147.5 L 67 147.5 Z M 67 136.5 L 215 136.5 L 215 135.5 L 67 135.5 Z M 214.5 136 L 214.5 147 L 215.5 147 L 215.5 136 Z M 215 146.5 L 67 146.5 L 67 147.5 L 215 147.5 Z M 67.5 147 L 67.5 136 L 66.5 136 L 66.5 147 Z M 67.5 147 "/>
<path style=" stroke:none;fill-rule:nonzero;fill:rgb(9.01947%,9.411621%,10.195923%);fill-opacity:1;" d="M 207.496094 46 L 74.503906 46 C 72.015625 46 70 45.339844 70 44.492188 L 70 29.507812 C 70 28.675781 72.015625 28 74.503906 28 L 207.496094 28 C 209.984375 28 212 28.660156 212 29.507812 L 212 44.492188 C 212 45.328125 209.984375 46 207.496094 46 Z M 207.496094 46 "/>
<path style=" stroke:none;fill-rule:nonzero;fill:rgb(39.99939%,39.99939%,39.99939%);fill-opacity:1;" d="M 207.496094 45.5 L 74.503906 45.5 L 74.503906 46.5 L 207.496094 46.5 Z M 74.503906 45.5 C 73.296875 45.5 72.226562 45.339844 71.476562 45.089844 C 71.097656 44.964844 70.828125 44.824219 70.664062 44.695312 C 70.585938 44.628906 70.539062 44.578125 70.519531 44.542969 C 70.5 44.507812 70.5 44.496094 70.5 44.492188 L 69.5 44.492188 C 69.5 44.921875 69.753906 45.25 70.042969 45.476562 C 70.335938 45.707031 70.726562 45.894531 71.160156 46.039062 C 72.042969 46.332031 73.222656 46.5 74.503906 46.5 Z M 70.5 44.492188 L 70.5 29.507812 L 69.5 29.507812 L 69.5 44.492188 Z M 70.5 29.507812 C 70.5 29.507812 70.5 29.503906 70.5 29.5 C 70.503906 29.492188 70.507812 29.480469 70.519531 29.464844 C 70.539062 29.429688 70.582031 29.378906 70.664062 29.3125 C 70.828125 29.183594 71.101562 29.042969 71.476562 28.917969 C 72.230469 28.664062 73.300781 28.5 74.503906 28.5 L 74.503906 27.5 C 73.222656 27.5 72.039062 27.671875 71.160156 27.96875 C 70.722656 28.113281 70.335938 28.300781 70.042969 28.527344 C 69.757812 28.753906 69.5 29.082031 69.5 29.507812 Z M 74.503906 28.5 L 207.496094 28.5 L 207.496094 27.5 L 74.503906 27.5 Z M 207.496094 28.5 C 208.703125 28.5 209.773438 28.660156 210.523438 28.910156 C 210.902344 29.035156 211.171875 29.175781 211.335938 29.304688 C 211.414062 29.371094 211.460938 29.421875 211.480469 29.457031 C 211.5 29.492188 211.5 29.503906 211.5 29.507812 L 212.5 29.507812 C 212.5 29.078125 212.246094 28.75 211.957031 28.523438 C 211.664062 28.292969 211.273438 28.105469 210.839844 27.960938 C 209.957031 27.667969 208.777344 27.5 207.496094 27.5 Z M 211.5 29.507812 L 211.5 44.492188 L 212.5 44.492188 L 212.5 29.507812 Z M 211.5 44.492188 C 211.5 44.492188 211.5 44.496094 211.5 44.503906 C 211.496094 44.507812 211.492188 44.519531 211.480469 44.535156 C 211.460938 44.570312 211.417969 44.625 211.335938 44.6875 C 211.171875 44.820312 210.898438 44.957031 210.523438 45.085938 C 209.769531 45.335938 208.699219 45.5 207.496094 45.5 L 207.496094 46.5 C 208.777344 46.5 209.960938 46.328125 210.839844 46.035156 C 211.277344 45.886719 211.664062 45.703125 211.957031 45.472656 C 212.242188 45.246094 212.5 44.917969 212.5 44.492188 Z M 211.5 44.492188 "/>
<path style=" stroke:none;fill-rule:nonzero;fill:rgb(39.99939%,39.99939%,39.99939%);fill-opacity:1;" d="M 234 68 C 234 71.640625 231.808594 74.921875 228.445312 76.316406 C 225.082031 77.707031 221.210938 76.9375 218.636719 74.363281 C 216.0625 71.789062 215.292969 67.917969 216.683594 64.554688 C 218.078125 61.191406 221.359375 59 225 59 C 229.96875 59 234 63.03125 234 68 Z M 234 68 "/>
<path style=" stroke:none;fill-rule:nonzero;fill:rgb(23.529053%,23.529053%,23.529053%);fill-opacity:1;" d="M 79 152 L 201 152 L 201 173 L 79 173 Z M 79 152 "/>
<path style=" stroke:none;fill-rule:nonzero;fill:rgb(9.01947%,9.411621%,10.195923%);fill-opacity:1;" d="M 91 157 L 189 157 L 189 167 L 91 167 Z M 91 157 "/>
<path style=" stroke:none;fill-rule:nonzero;fill:rgb(39.99939%,39.99939%,39.99939%);fill-opacity:1;" d="M 91 157 L 91 156.5 L 90.5 156.5 L 90.5 157 Z M 189 157 L 189.5 157 L 189.5 156.5 L 189 156.5 Z M 189 167 L 189 167.5 L 189.5 167.5 L 189.5 167 Z M 91 167 L 90.5 167 L 90.5 167.5 L 91 167.5 Z M 91 157.5 L 189 157.5 L 189 156.5 L 91 156.5 Z M 188.5 157 L 188.5 167 L 189.5 167 L 189.5 157 Z M 189 166.5 L 91 166.5 L 91 167.5 L 189 167.5 Z M 91.5 167 L 91.5 157 L 90.5 157 L 90.5 167 Z M 91.5 167 "/>
<path style=" stroke:none;fill-rule:nonzero;fill:rgb(9.01947%,9.411621%,10.195923%);fill-opacity:1;" d="M 209 129 L 75 129 L 81.148438 63 L 202.855469 63 Z M 209 129 "/>
<path style=" stroke:none;fill-rule:nonzero;fill:rgb(39.99939%,39.99939%,39.99939%);fill-opacity:1;" d="M 75 129 L 74.503906 128.953125 L 74.453125 129.5 L 75 129.5 Z M 81.148438 63 L 81.148438 62.5 L 80.695312 62.5 L 80.652344 62.953125 Z M 202.855469 63 L 203.351562 62.953125 L 203.308594 62.5 L 202.855469 62.5 Z M 209 128.5 L 75 128.5 L 75 129.5 L 209 129.5 Z M 75.496094 129.046875 L 81.648438 63.046875 L 80.652344 62.953125 L 74.503906 128.953125 Z M 81.148438 63.5 L 202.855469 63.5 L 202.855469 62.5 L 81.148438 62.5 Z M 202.355469 63.046875 L 208.503906 129.046875 L 209.496094 128.953125 L 203.351562 62.953125 Z M 202.355469 63.046875 "/>
<path style=" stroke:none;fill-rule:nonzero;fill:rgb(23.529053%,23.529053%,23.529053%);fill-opacity:1;" d="M 94 72 L 124 72 L 124 116 L 94 116 Z M 94 72 "/>
<path style=" stroke:none;fill-rule:nonzero;fill:rgb(76.469421%,5.097961%,13.725281%);fill-opacity:0.64;" d="M 109.921875 92.984375 L 113.621094 87.992188 L 105.816406 87.992188 C 102.1875 87.992188 101.492188 87.570312 100.832031 90.875 L 99.054688 90.875 L 99.476562 82.253906 L 117.953125 82.253906 L 117.953125 86.304688 L 113.664062 93.582031 C 109.570312 100.558594 109.21875 102.28125 109.21875 104.796875 C 109.207031 106.015625 109.613281 107.203125 110.375 108.171875 L 110.109375 108.621094 C 109.320312 108.792969 108.519531 108.878906 107.710938 108.882812 C 104.734375 108.882812 103.230469 107.007812 103.230469 105.210938 C 103.230469 103.128906 102.9375 101.5 107.164062 96.472656 C 108.125 95.339844 109.042969 94.183594 109.921875 92.984375 Z M 109.921875 92.984375 "/>
<path style=" stroke:none;fill-rule:nonzero;fill:rgb(23.529053%,23.529053%,23.529053%);fill-opacity:1;" d="M 160 72 L 190 72 L 190 116 L 160 116 Z M 160 72 "/>
<path style=" stroke:none;fill-rule:nonzero;fill:rgb(76.469421%,5.097961%,13.725281%);fill-opacity:0.64;" d="M 177.929688 92.984375 L 181.625 87.992188 L 173.824219 87.992188 C 170.1875 87.992188 169.492188 87.570312 168.839844 90.875 L 167.066406 90.875 L 167.496094 82.253906 L 185.96875 82.253906 L 185.96875 86.304688 L 181.679688 93.582031 C 177.582031 100.558594 177.234375 102.28125 177.234375 104.796875 C 177.222656 106.015625 177.628906 107.203125 178.394531 108.171875 L 178.125 108.621094 C 177.339844 108.792969 176.535156 108.878906 175.730469 108.882812 C 172.75 108.882812 171.246094 107.007812 171.246094 105.210938 C 171.246094 103.128906 170.957031 101.5 175.175781 96.472656 C 176.128906 95.339844 177.050781 94.183594 177.929688 92.984375 Z M 177.929688 92.984375 "/>
<path style=" stroke:none;fill-rule:nonzero;fill:rgb(23.529053%,23.529053%,23.529053%);fill-opacity:1;" d="M 128 72 L 158 72 L 158 116 L 128 116 Z M 128 72 "/>
<path style=" stroke:none;fill-rule:nonzero;fill:rgb(76.469421%,5.097961%,13.725281%);fill-opacity:0.64;" d="M 142.898438 92.984375 L 146.535156 87.992188 L 138.867188 87.992188 C 135.296875 87.992188 134.617188 87.570312 133.96875 90.875 L 132.234375 90.875 L 132.667969 82.253906 L 150.800781 82.253906 L 150.800781 86.304688 L 146.585938 93.582031 C 142.558594 100.558594 142.21875 102.28125 142.21875 104.796875 C 142.207031 106.015625 142.605469 107.203125 143.355469 108.171875 L 143.09375 108.621094 C 142.320312 108.792969 141.53125 108.878906 140.738281 108.882812 C 137.8125 108.882812 136.335938 107.007812 136.335938 105.210938 C 136.335938 103.128906 136.050781 101.5 140.199219 96.472656 C 141.132812 95.339844 142.035156 94.183594 142.898438 92.984375 Z M 142.898438 92.984375 "/>
<path style=" stroke:none;fill-rule:nonzero;fill:rgb(94.116211%,77.645874%,70.587158%);fill-opacity:1;" d="M 42.300781 53 C 42.300781 53 42.539062 56.1875 42.011719 58.039062 C 41.699219 59.132812 47.65625 64 47.65625 64 C 47.65625 64 51.664062 60.738281 52 58.039062 C 51.867188 55.757812 51.738281 53 51.738281 53 Z M 42.300781 53 "/>
<path style=" stroke:none;fill-rule:nonzero;fill:rgb(94.116211%,77.645874%,70.587158%);fill-opacity:1;" d="M 39.351562 43.125 C 39.351562 43.125 38.066406 42.507812 37.234375 44.015625 C 36.402344 45.527344 37.945312 47.929688 39.371094 48 C 40.796875 48.066406 39.351562 43.125 39.351562 43.125 Z M 39.351562 43.125 "/>
<path style=" stroke:none;fill-rule:nonzero;fill:rgb(94.116211%,77.645874%,70.587158%);fill-opacity:1;" d="M 56.539062 43.054688 C 56.539062 43.054688 58.179688 42.605469 58.871094 44.25 C 59.566406 45.890625 57.285156 48.121094 55.570312 47.996094 C 53.859375 47.867188 56.539062 43.054688 56.539062 43.054688 Z M 56.539062 43.054688 "/>
<path style=" stroke:none;fill-rule:nonzero;fill:rgb(94.116211%,77.645874%,70.587158%);fill-opacity:1;" d="M 56 44 C 56 50.628906 51.972656 56 47 56 C 42.03125 56 38 50.628906 38 44 C 38 37.367188 42.027344 32 47 32 C 51.972656 32 56 37.371094 56 44 Z M 56 44 "/>
<path style=" stroke:none;fill-rule:nonzero;fill:rgb(23.529053%,23.529053%,23.529053%);fill-opacity:1;" d="M 38 41.960938 C 38.316406 42.144531 38.644531 42.292969 38.980469 42.40625 C 41.027344 42.777344 43.027344 41.03125 43.886719 40 C 44.746094 38.96875 45.992188 35.738281 45.992188 35.738281 C 45.992188 35.738281 48.453125 39.449219 50.042969 40.515625 C 52.773438 42.34375 56.546875 43 56.546875 43 L 57 42.40625 C 57 42.40625 56.898438 39.015625 53.113281 37.15625 C 49.328125 35.296875 45.570312 34.785156 44.699219 35.078125 C 43.824219 35.371094 38.753906 38.734375 38 41.960938 Z M 38 41.960938 "/>
<path style=" stroke:none;fill-rule:nonzero;fill:rgb(100%,31.37207%,31.37207%);fill-opacity:1;" d="M 38.011719 40.59375 L 48 38.015625 L 57.988281 41 C 57.988281 41 58.714844 28 48 28 C 37.289062 28 38.011719 40.59375 38.011719 40.59375 Z M 38.011719 40.59375 "/>
<path style=" stroke:none;fill-rule:nonzero;fill:rgb(84.70459%,22.744751%,21.176147%);fill-opacity:1;" d="M 38 40.546875 C 38 40.546875 41.777344 34.007812 48 34 C 54.851562 34 58 41 58 41 C 56.5 40.757812 55.03125 40.292969 53.632812 39.625 C 51.6875 38.613281 46.320312 37.046875 42.976562 39.246094 C 39.632812 41.445312 38 40.546875 38 40.546875 Z M 38 40.546875 "/>
<path style=" stroke:none;fill-rule:nonzero;fill:rgb(100%,51.371765%,51.371765%);fill-opacity:1;" d="M 38.230469 41.585938 C 38.230469 41.585938 43.296875 38.074219 48 38.074219 C 54.023438 38.074219 57.257812 42 57.257812 42 L 58 39.894531 C 55.1875 37.394531 51.65625 36.019531 48 36 C 41.3125 36 38 39.472656 38 39.472656 Z M 38.230469 41.585938 "/>
<path style=" stroke:none;fill-rule:nonzero;fill:rgb(94.116211%,77.645874%,70.587158%);fill-opacity:1;" d="M 22.648438 101.210938 C 24.140625 93.144531 28 84.714844 28 84.714844 L 17.332031 83 C 16.019531 88.128906 15.03125 93.339844 14.367188 98.609375 C 13.898438 102.609375 13.925781 107.554688 14.183594 112 C 16.109375 111.75 18.933594 111.363281 21.414062 110.953125 C 21.65625 107.683594 22.066406 104.433594 22.648438 101.210938 Z M 22.648438 101.210938 "/>
<path style=" stroke:none;fill-rule:nonzero;fill:rgb(94.116211%,77.645874%,70.587158%);fill-opacity:1;" d="M 18.753906 130.941406 C 21.375 132.707031 25.308594 132.601562 24.980469 127.976562 C 24.652344 123.351562 21.453125 118.535156 21.78125 116.929688 C 21.875 116.472656 21.910156 113.871094 22.195312 110.210938 C 21.042969 109.84375 19.492188 110.03125 18.234375 110.210938 C 16.976562 110.390625 15.855469 110.566406 15 111.261719 C 15.15625 114.296875 15.464844 117.320312 15.917969 120.320312 C 16.234375 122.234375 16.125 129.175781 18.753906 130.941406 Z M 18.753906 130.941406 "/>
<path style=" stroke:none;fill-rule:nonzero;fill:rgb(84.70459%,22.744751%,21.176147%);fill-opacity:1;" d="M 77 84.636719 C 77 84.636719 74.085938 75.386719 72.851562 72.34375 C 71.023438 67.84375 69.074219 66.125 64.449219 63.578125 C 61.40625 61.910156 51.710938 58 51.710938 58 C 51.710938 58 50.796875 60.609375 46.804688 60.609375 C 44.816406 60.652344 42.941406 59.667969 41.832031 58 C 41.832031 58 30.269531 62.003906 26.804688 63.757812 C 23.339844 65.507812 21.144531 68.976562 19.277344 74.199219 C 17.679688 78.664062 16 85.46875 16 85.46875 L 24.3125 87.414062 L 26.804688 87.996094 L 29.554688 80.007812 L 31.242188 107 L 61.628906 107 L 62.910156 78.949219 L 66.121094 87.292969 L 68.453125 86.726562 Z M 77 84.636719 "/>
<path style=" stroke:none;fill-rule:nonzero;fill:rgb(39.99939%,39.99939%,39.99939%);fill-opacity:1;" d="M 38.691406 197 L 37.832031 197.046875 L 29.671875 197.507812 C 29.671875 197.507812 28.621094 200.351562 27.382812 203.425781 C 26.472656 205.667969 25.894531 208.496094 26.015625 210.257812 C 26.015625 210.738281 26.144531 211.207031 26.382812 211.617188 C 27.953125 213.683594 31.828125 213.539062 34.363281 210.472656 C 36.894531 207.410156 37.996094 205.382812 38.691406 202.839844 C 39.386719 200.292969 38.691406 197 38.691406 197 Z M 38.691406 197 "/>
<path style=" stroke:none;fill-rule:nonzero;fill:rgb(39.99939%,39.99939%,39.99939%);fill-opacity:1;" d="M 73.613281 203.421875 C 72.359375 200.351562 71.324219 197.507812 71.324219 197.507812 L 63.167969 197.046875 L 62.308594 197 C 62.308594 197 61.613281 200.308594 62.308594 202.847656 C 63 205.390625 64.101562 207.425781 66.632812 210.480469 C 69.164062 213.535156 73.042969 213.683594 74.601562 211.625 C 74.851562 211.210938 74.984375 210.738281 74.984375 210.253906 C 75.097656 208.488281 74.515625 205.667969 73.613281 203.421875 Z M 73.613281 203.421875 "/>
<path style=" stroke:none;fill-rule:nonzero;fill:rgb(9.01947%,9.411621%,10.195923%);fill-opacity:1;" d="M 70.582031 151.671875 C 69.285156 144.015625 61.984375 98.671875 61.984375 98.671875 L 56.285156 71 L 37.050781 71 L 31.316406 98.140625 C 31.316406 98.140625 29.144531 126.332031 27.71875 139.960938 C 26.421875 152.394531 25 200 25 200 L 40.882812 199.625 C 40.882812 199.625 41.554688 157.351562 42.359375 152.335938 C 43.164062 147.320312 47.074219 122.828125 47.074219 122.828125 C 47.074219 122.828125 52.71875 145.816406 53.589844 152.726562 C 54.457031 159.640625 61.34375 199.628906 61.34375 199.628906 L 74 199.628906 C 74 199.628906 71.882812 159.328125 70.582031 151.671875 Z M 70.582031 151.671875 "/>
<path style=" stroke:none;fill-rule:nonzero;fill:rgb(39.99939%,39.99939%,39.99939%);fill-opacity:1;" d="M 70.582031 151.671875 L 71.570312 151.503906 Z M 61.984375 98.671875 L 62.972656 98.511719 L 62.96875 98.488281 L 62.964844 98.46875 Z M 56.285156 71 L 57.265625 70.796875 L 57.101562 70 L 56.285156 70 Z M 37.050781 71 L 37.050781 70 L 36.242188 70 L 36.074219 70.792969 Z M 31.316406 98.140625 L 30.339844 97.933594 L 30.324219 98 L 30.320312 98.066406 Z M 27.71875 139.960938 L 26.726562 139.855469 Z M 25 200 L 24 199.96875 L 23.96875 201.023438 L 25.023438 201 Z M 40.882812 199.625 L 40.90625 200.625 L 41.867188 200.601562 L 41.882812 199.640625 Z M 47.074219 122.828125 L 48.042969 122.589844 L 46.085938 122.667969 Z M 61.34375 199.628906 L 60.359375 199.796875 L 60.5 200.628906 L 61.34375 200.628906 Z M 74 199.628906 L 74 200.628906 L 75.054688 200.628906 L 75 199.578125 Z M 71.570312 151.503906 C 70.921875 147.679688 68.773438 134.4375 66.785156 122.140625 C 65.789062 115.992188 64.835938 110.085938 64.132812 105.714844 C 63.78125 103.53125 63.488281 101.730469 63.289062 100.476562 C 63.1875 99.847656 63.105469 99.355469 63.054688 99.023438 C 63.027344 98.855469 63.003906 98.726562 62.992188 98.640625 C 62.984375 98.597656 62.980469 98.566406 62.976562 98.542969 C 62.972656 98.535156 62.972656 98.523438 62.972656 98.519531 C 62.972656 98.515625 62.972656 98.515625 62.972656 98.511719 C 62.972656 98.511719 62.972656 98.511719 61.984375 98.671875 C 60.996094 98.828125 60.996094 98.828125 60.996094 98.828125 C 60.996094 98.832031 60.996094 98.832031 60.996094 98.832031 C 60.996094 98.832031 60.996094 98.835938 60.996094 98.835938 C 61 98.84375 61 98.851562 61 98.863281 C 61.003906 98.882812 61.011719 98.917969 61.015625 98.960938 C 61.03125 99.046875 61.050781 99.171875 61.078125 99.339844 C 61.132812 99.675781 61.210938 100.164062 61.3125 100.792969 C 61.515625 102.046875 61.804688 103.847656 62.15625 106.035156 C 62.863281 110.40625 63.816406 116.3125 64.808594 122.460938 C 66.796875 134.75 68.945312 148.003906 69.597656 151.835938 Z M 62.964844 98.46875 L 57.265625 70.796875 L 55.304688 71.203125 L 61.003906 98.871094 Z M 56.285156 70 L 37.050781 70 L 37.050781 72 L 56.285156 72 Z M 36.074219 70.792969 L 30.339844 97.933594 L 32.296875 98.347656 L 38.03125 71.207031 Z M 31.316406 98.140625 C 30.320312 98.066406 30.320312 98.066406 30.320312 98.066406 C 30.320312 98.066406 30.320312 98.066406 30.320312 98.070312 C 30.320312 98.074219 30.320312 98.078125 30.320312 98.085938 C 30.320312 98.097656 30.316406 98.121094 30.316406 98.144531 C 30.3125 98.199219 30.304688 98.28125 30.296875 98.382812 C 30.28125 98.59375 30.257812 98.902344 30.226562 99.300781 C 30.164062 100.097656 30.070312 101.253906 29.960938 102.679688 C 29.734375 105.535156 29.417969 109.484375 29.054688 113.859375 C 28.335938 122.609375 27.4375 133.054688 26.726562 139.855469 L 28.714844 140.0625 C 29.425781 133.238281 30.328125 122.773438 31.050781 114.023438 C 31.410156 109.644531 31.726562 105.695312 31.953125 102.839844 C 32.066406 101.410156 32.15625 100.253906 32.21875 99.457031 C 32.25 99.058594 32.273438 98.75 32.289062 98.539062 C 32.296875 98.433594 32.304688 98.355469 32.308594 98.300781 C 32.3125 98.273438 32.3125 98.253906 32.3125 98.238281 C 32.3125 98.234375 32.3125 98.226562 32.316406 98.222656 C 32.316406 98.222656 32.316406 98.222656 32.316406 98.21875 C 32.316406 98.21875 32.316406 98.21875 31.316406 98.140625 Z M 26.726562 139.855469 C 26.070312 146.113281 25.390625 161.164062 24.875 174.605469 C 24.613281 181.335938 24.394531 187.675781 24.242188 192.335938 C 24.167969 194.664062 24.105469 196.574219 24.0625 197.898438 C 24.042969 198.5625 24.027344 199.078125 24.015625 199.433594 C 24.011719 199.609375 24.007812 199.742188 24.003906 199.832031 C 24.003906 199.878906 24.003906 199.914062 24 199.933594 C 24 199.945312 24 199.957031 24 199.960938 C 24 199.964844 24 199.964844 24 199.96875 C 24 199.96875 24 199.96875 25 200 C 26 200.03125 26 200.03125 26 200.03125 C 26 200.027344 26 200.027344 26 200.027344 C 26 200.027344 26 200.023438 26 200.019531 C 26 200.015625 26 200.007812 26 199.996094 C 26 199.972656 26.003906 199.9375 26.003906 199.894531 C 26.007812 199.804688 26.011719 199.667969 26.015625 199.492188 C 26.027344 199.140625 26.042969 198.625 26.0625 197.960938 C 26.105469 196.636719 26.164062 194.726562 26.242188 192.402344 C 26.394531 187.746094 26.613281 181.40625 26.871094 174.683594 C 27.390625 161.210938 28.070312 146.242188 28.714844 140.0625 Z M 25.023438 201 L 40.90625 200.625 L 40.859375 198.625 L 24.976562 199 Z M 40.882812 199.625 C 41.882812 199.640625 41.882812 199.640625 41.882812 199.640625 C 41.882812 199.636719 41.882812 199.636719 41.882812 199.632812 C 41.882812 199.628906 41.882812 199.621094 41.886719 199.609375 C 41.886719 199.589844 41.886719 199.558594 41.886719 199.519531 C 41.886719 199.441406 41.890625 199.320312 41.890625 199.167969 C 41.898438 198.855469 41.90625 198.398438 41.914062 197.816406 C 41.933594 196.652344 41.964844 194.980469 42 192.960938 C 42.078125 188.921875 42.183594 183.480469 42.320312 177.886719 C 42.453125 172.289062 42.613281 166.539062 42.789062 161.878906 C 42.964844 157.179688 43.15625 153.671875 43.34375 152.496094 L 41.371094 152.179688 C 41.15625 153.507812 40.964844 157.167969 40.789062 161.804688 C 40.613281 166.480469 40.453125 172.238281 40.320312 177.835938 C 40.1875 183.4375 40.078125 188.878906 40 192.921875 C 39.964844 194.945312 39.933594 196.617188 39.914062 197.78125 C 39.90625 198.367188 39.898438 198.820312 39.890625 199.132812 C 39.890625 199.289062 39.886719 199.40625 39.886719 199.488281 C 39.886719 199.527344 39.886719 199.558594 39.886719 199.578125 C 39.886719 199.589844 39.886719 199.597656 39.882812 199.601562 C 39.882812 199.605469 39.882812 199.605469 39.882812 199.609375 C 39.882812 199.609375 39.882812 199.609375 40.882812 199.625 Z M 43.34375 152.496094 C 43.746094 149.988281 44.925781 142.609375 46.003906 135.859375 C 46.542969 132.484375 47.058594 129.265625 47.4375 126.890625 C 47.625 125.703125 47.78125 124.726562 47.890625 124.046875 C 47.945312 123.707031 47.988281 123.441406 48.015625 123.261719 C 48.03125 123.171875 48.042969 123.101562 48.050781 123.054688 C 48.050781 123.03125 48.054688 123.015625 48.058594 123.003906 C 48.058594 122.996094 48.058594 122.992188 48.058594 122.988281 C 48.058594 122.988281 48.058594 122.988281 48.058594 122.984375 C 48.058594 122.984375 48.058594 122.984375 47.074219 122.828125 C 46.085938 122.667969 46.085938 122.667969 46.085938 122.667969 C 46.085938 122.671875 46.085938 122.671875 46.085938 122.671875 C 46.085938 122.671875 46.085938 122.671875 46.085938 122.675781 C 46.085938 122.675781 46.082031 122.679688 46.082031 122.6875 C 46.082031 122.699219 46.078125 122.714844 46.074219 122.738281 C 46.066406 122.785156 46.054688 122.855469 46.042969 122.945312 C 46.011719 123.125 45.96875 123.390625 45.914062 123.730469 C 45.808594 124.410156 45.652344 125.386719 45.460938 126.574219 C 45.082031 128.949219 44.570312 132.167969 44.03125 135.542969 C 42.953125 142.292969 41.773438 149.671875 41.371094 152.179688 Z M 47.074219 122.828125 C 46.101562 123.066406 46.101562 123.066406 46.101562 123.066406 C 46.101562 123.066406 46.101562 123.070312 46.101562 123.070312 C 46.101562 123.074219 46.105469 123.078125 46.105469 123.082031 C 46.109375 123.09375 46.113281 123.109375 46.117188 123.132812 C 46.128906 123.175781 46.144531 123.238281 46.164062 123.324219 C 46.207031 123.496094 46.265625 123.742188 46.34375 124.066406 C 46.5 124.707031 46.726562 125.628906 46.996094 126.761719 C 47.539062 129.019531 48.269531 132.109375 49.03125 135.410156 C 50.554688 142.039062 52.167969 149.457031 52.597656 152.851562 L 54.582031 152.601562 C 54.136719 149.085938 52.496094 141.554688 50.980469 134.960938 C 50.21875 131.652344 49.484375 128.558594 48.941406 126.292969 C 48.667969 125.160156 48.445312 124.234375 48.289062 123.59375 C 48.210938 123.269531 48.148438 123.019531 48.109375 122.851562 C 48.085938 122.765625 48.070312 122.699219 48.058594 122.65625 C 48.054688 122.632812 48.050781 122.617188 48.046875 122.605469 C 48.046875 122.601562 48.046875 122.597656 48.042969 122.59375 C 48.042969 122.589844 48.042969 122.589844 48.042969 122.589844 C 48.042969 122.589844 48.042969 122.589844 47.074219 122.828125 Z M 52.597656 152.851562 C 53.035156 156.335938 54.980469 168.089844 56.804688 178.9375 C 57.722656 184.367188 58.609375 189.582031 59.269531 193.441406 C 59.597656 195.371094 59.871094 196.960938 60.0625 198.066406 C 60.15625 198.621094 60.230469 199.054688 60.28125 199.347656 C 60.304688 199.496094 60.324219 199.609375 60.339844 199.683594 C 60.34375 199.722656 60.351562 199.75 60.355469 199.769531 C 60.355469 199.777344 60.355469 199.785156 60.359375 199.792969 C 60.359375 199.792969 60.359375 199.796875 60.359375 199.796875 C 60.359375 199.796875 60.359375 199.796875 61.34375 199.628906 C 62.328125 199.460938 62.328125 199.460938 62.328125 199.457031 C 62.328125 199.457031 62.328125 199.453125 62.328125 199.453125 C 62.328125 199.445312 62.328125 199.441406 62.324219 199.429688 C 62.320312 199.410156 62.316406 199.382812 62.308594 199.34375 C 62.296875 199.269531 62.277344 199.15625 62.253906 199.007812 C 62.203125 198.714844 62.128906 198.28125 62.03125 197.726562 C 61.84375 196.621094 61.570312 195.03125 61.242188 193.105469 C 60.582031 189.246094 59.695312 184.035156 58.777344 178.605469 C 56.945312 167.730469 55.011719 156.03125 54.582031 152.601562 Z M 61.34375 200.628906 L 74 200.628906 L 74 198.628906 L 61.34375 198.628906 Z M 74 199.628906 C 75 199.578125 75 199.578125 75 199.574219 C 75 199.574219 75 199.570312 75 199.570312 C 74.996094 199.5625 74.996094 199.558594 74.996094 199.546875 C 74.996094 199.527344 74.996094 199.5 74.992188 199.460938 C 74.988281 199.382812 74.980469 199.269531 74.972656 199.121094 C 74.957031 198.824219 74.933594 198.386719 74.90625 197.828125 C 74.84375 196.710938 74.757812 195.105469 74.648438 193.15625 C 74.429688 189.257812 74.121094 183.976562 73.777344 178.457031 C 73.085938 167.457031 72.230469 155.398438 71.570312 151.503906 L 69.597656 151.835938 C 70.234375 155.601562 71.085938 167.519531 71.78125 178.582031 C 72.125 184.097656 72.429688 189.371094 72.648438 193.269531 C 72.757812 195.214844 72.847656 196.820312 72.90625 197.9375 C 72.9375 198.496094 72.960938 198.929688 72.976562 199.226562 C 72.984375 199.375 72.992188 199.488281 72.996094 199.566406 C 72.996094 199.605469 73 199.632812 73 199.652344 C 73 199.660156 73 199.667969 73 199.675781 C 73 199.675781 73 199.679688 73 199.679688 C 73 199.679688 73 199.679688 74 199.628906 Z M 74 199.628906 "/>
<path style=" stroke:none;fill-rule:nonzero;fill:rgb(23.529053%,23.529053%,23.529053%);fill-opacity:1;" d="M 38.835938 74.921875 C 37.957031 75.199219 37.019531 74.714844 36.734375 73.835938 L 33 62.1875 L 36.191406 61 L 39.921875 72.824219 C 40.199219 73.703125 39.710938 74.640625 38.835938 74.921875 Z M 38.835938 74.921875 "/>
<path style=" stroke:none;fill-rule:nonzero;fill:rgb(23.529053%,23.529053%,23.529053%);fill-opacity:1;" d="M 53.171875 74.921875 C 54.054688 75.199219 54.996094 74.714844 55.28125 73.835938 L 59 62.328125 L 55.847656 61 L 52.078125 72.824219 C 51.800781 73.703125 52.289062 74.640625 53.171875 74.921875 Z M 53.171875 74.921875 "/>
<path style=" stroke:none;fill-rule:nonzero;fill:rgb(100%,100%,100%);fill-opacity:1;" d="M 40 72.996094 C 40 73.398438 39.757812 73.765625 39.386719 73.921875 C 39.011719 74.078125 38.582031 73.996094 38.292969 73.707031 C 38.007812 73.421875 37.921875 72.992188 38.074219 72.617188 C 38.230469 72.246094 38.59375 72 39 72 C 39.550781 72 39.996094 72.445312 40 72.996094 Z M 40 72.996094 "/>
<path style=" stroke:none;fill-rule:nonzero;fill:rgb(100%,100%,100%);fill-opacity:1;" d="M 55 73 C 55 73.550781 54.550781 74 54 74 C 53.449219 74 53 73.550781 53 73 C 53 72.449219 53.449219 72 54 72 C 54.550781 72 55 72.449219 55 73 Z M 55 73 "/>
<path style=" stroke:none;fill-rule:nonzero;fill:rgb(9.01947%,9.411621%,10.195923%);fill-opacity:1;" d="M 63 109 L 31 109 L 31.390625 104 L 62.214844 104 Z M 63 109 "/>
<path style=" stroke:none;fill-rule:nonzero;fill:rgb(39.99939%,39.99939%,39.99939%);fill-opacity:1;" d="M 31 109 L 30.5 108.960938 L 30.460938 109.5 L 31 109.5 Z M 31.390625 104 L 31.390625 103.5 L 30.929688 103.5 L 30.894531 103.960938 Z M 62.214844 104 L 62.707031 103.921875 L 62.640625 103.5 L 62.214844 103.5 Z M 63 108.5 L 31 108.5 L 31 109.5 L 63 109.5 Z M 31.5 109.039062 L 31.890625 104.039062 L 30.894531 103.960938 L 30.5 108.960938 Z M 31.390625 104.5 L 62.214844 104.5 L 62.214844 103.5 L 31.390625 103.5 Z M 61.71875 104.078125 L 62.507812 109.078125 L 63.492188 108.921875 L 62.707031 103.921875 Z M 61.71875 104.078125 "/>
<path style=" stroke:none;fill-rule:nonzero;fill:rgb(9.01947%,9.411621%,10.195923%);fill-opacity:1;" d="M 32 109 L 61 109 L 61 129 L 32 129 Z M 32 109 "/>
<path style=" stroke:none;fill-rule:nonzero;fill:rgb(39.99939%,39.99939%,39.99939%);fill-opacity:1;" d="M 32 109 L 32 108.5 L 31.5 108.5 L 31.5 109 Z M 61 109 L 61.5 109 L 61.5 108.5 L 61 108.5 Z M 61 129 L 61 129.5 L 61.5 129.5 L 61.5 129 Z M 32 129 L 31.5 129 L 31.5 129.5 L 32 129.5 Z M 32 109.5 L 61 109.5 L 61 108.5 L 32 108.5 Z M 60.5 109 L 60.5 129 L 61.5 129 L 61.5 109 Z M 61 128.5 L 32 128.5 L 32 129.5 L 61 129.5 Z M 32.5 129 L 32.5 109 L 31.5 109 L 31.5 129 Z M 32.5 129 "/>
<path style=" stroke:none;fill-rule:nonzero;fill:rgb(100%,31.37207%,31.37207%);fill-opacity:1;" d="M 42.996094 110.46875 C 43.023438 108.257812 42.792969 106.050781 42.300781 103.890625 C 41.410156 100.207031 40.351562 97.621094 39.335938 98.046875 C 38.320312 98.472656 39.882812 101.679688 40.421875 104.496094 C 40.886719 106.921875 41.351562 111 41.351562 111 Z M 42.996094 110.46875 "/>
<path style=" stroke:none;fill-rule:nonzero;fill:rgb(100%,31.37207%,31.37207%);fill-opacity:1;" d="M 37.300781 112 C 35.886719 110.257812 34.695312 108.367188 33.746094 106.367188 C 32.164062 102.910156 31.425781 100.253906 32.523438 100.011719 C 33.621094 99.769531 34.355469 103.214844 35.679688 105.765625 C 36.820312 107.964844 39 111.472656 39 111.472656 Z M 37.300781 112 "/>
<path style=" stroke:none;fill-rule:nonzero;fill:rgb(100%,81.959534%,18.431091%);fill-opacity:1;" d="M 51 110.46875 C 50.976562 108.257812 51.210938 106.050781 51.703125 103.890625 C 52.589844 100.207031 53.648438 97.621094 54.664062 98.046875 C 55.679688 98.472656 54.121094 101.679688 53.578125 104.496094 C 53.113281 106.921875 52.648438 111 52.648438 111 Z M 51 110.46875 "/>
<path style=" stroke:none;fill-rule:nonzero;fill:rgb(100%,81.959534%,18.431091%);fill-opacity:1;" d="M 53.679688 112 C 55.101562 110.257812 56.300781 108.367188 57.253906 106.367188 C 58.835938 102.910156 59.574219 100.253906 58.476562 100.011719 C 57.378906 99.769531 56.640625 103.214844 55.320312 105.765625 C 54.175781 107.964844 52 111.472656 52 111.472656 Z M 53.679688 112 "/>
<path style=" stroke:none;fill-rule:nonzero;fill:rgb(9.01947%,9.411621%,10.195923%);fill-opacity:1;" d="M 35 109 L 45 109 L 45 126 L 35 126 Z M 35 109 "/>
<path style=" stroke:none;fill-rule:nonzero;fill:rgb(39.99939%,39.99939%,39.99939%);fill-opacity:1;" d="M 35 109 L 35 108.5 L 34.5 108.5 L 34.5 109 Z M 45 109 L 45.5 109 L 45.5 108.5 L 45 108.5 Z M 45 126 L 45 126.5 L 45.5 126.5 L 45.5 126 Z M 35 126 L 34.5 126 L 34.5 126.5 L 35 126.5 Z M 35 109.5 L 45 109.5 L 45 108.5 L 35 108.5 Z M 44.5 109 L 44.5 126 L 45.5 126 L 45.5 109 Z M 45 125.5 L 35 125.5 L 35 126.5 L 45 126.5 Z M 35.5 126 L 35.5 109 L 34.5 109 L 34.5 126 Z M 35.5 126 "/>
<path style=" stroke:none;fill-rule:nonzero;fill:rgb(9.01947%,9.411621%,10.195923%);fill-opacity:1;" d="M 49 109 L 59 109 L 59 126 L 49 126 Z M 49 109 "/>
<path style=" stroke:none;fill-rule:nonzero;fill:rgb(39.99939%,39.99939%,39.99939%);fill-opacity:1;" d="M 49 109 L 49 108.5 L 48.5 108.5 L 48.5 109 Z M 59 109 L 59.5 109 L 59.5 108.5 L 59 108.5 Z M 59 126 L 59 126.5 L 59.5 126.5 L 59.5 126 Z M 49 126 L 48.5 126 L 48.5 126.5 L 49 126.5 Z M 49 109.5 L 59 109.5 L 59 108.5 L 49 108.5 Z M 58.5 109 L 58.5 126 L 59.5 126 L 59.5 109 Z M 59 125.5 L 49 125.5 L 49 126.5 L 59 126.5 Z M 49.5 126 L 49.5 109 L 48.5 109 L 48.5 126 Z M 49.5 126 "/>
<path style=" stroke:none;fill-rule:nonzero;fill:rgb(39.99939%,39.99939%,39.99939%);fill-opacity:1;" d="M 62 105.996094 C 62 106.398438 61.757812 106.765625 61.386719 106.921875 C 61.011719 107.078125 60.582031 106.996094 60.292969 106.707031 C 60.007812 106.421875 59.921875 105.992188 60.074219 105.617188 C 60.230469 105.246094 60.59375 105 61 105 C 61.550781 105 61.996094 105.445312 62 105.996094 Z M 62 105.996094 "/>
<path style=" stroke:none;fill-rule:nonzero;fill:rgb(39.99939%,39.99939%,39.99939%);fill-opacity:1;" d="M 34 105.996094 C 34 106.398438 33.757812 106.765625 33.386719 106.921875 C 33.011719 107.078125 32.582031 106.996094 32.292969 106.707031 C 32.007812 106.421875 31.921875 105.992188 32.074219 105.617188 C 32.230469 105.246094 32.59375 105 33 105 C 33.550781 105 33.996094 105.445312 34 105.996094 Z M 34 105.996094 "/>
<path style=" stroke:none;fill-rule:nonzero;fill:rgb(100%,81.959534%,18.431091%);fill-opacity:1;" d="M 22 138 L 19 138 L 19 129.335938 C 19 128.597656 19.671875 128 20.5 128 C 21.328125 128 22 128.597656 22 129.335938 Z M 22 138 "/>
<path style=" stroke:none;fill-rule:nonzero;fill:rgb(9.01947%,9.411621%,10.195923%);fill-opacity:1;" d="M 8 138 L 10.503906 160 L 31.5 160 L 34 138 Z M 8 138 "/>
<path style=" stroke:none;fill-rule:nonzero;fill:rgb(39.99939%,39.99939%,39.99939%);fill-opacity:1;" d="M 10.503906 160 L 10.007812 160.054688 L 10.058594 160.5 L 10.503906 160.5 Z M 31.5 160 L 31.5 160.5 L 31.949219 160.5 L 31.996094 160.054688 Z M 34 138 L 34.496094 138.054688 L 34.558594 137.5 L 34 137.5 Z M 7.503906 138.054688 L 10.007812 160.054688 L 11.003906 159.945312 L 8.496094 137.945312 Z M 10.503906 160.5 L 31.5 160.5 L 31.5 159.5 L 10.503906 159.5 Z M 31.996094 160.054688 L 34.496094 138.054688 L 33.503906 137.945312 L 31.003906 159.945312 Z M 34 137.5 L 8 137.5 L 8 138.5 L 34 138.5 Z M 34 137.5 "/>
<path style=" stroke:none;fill-rule:nonzero;fill:rgb(35.68573%,35.68573%,35.68573%);fill-opacity:1;" d="M 6 136 L 36 136 L 36 138 L 6 138 Z M 6 136 "/>
<path style=" stroke:none;fill-rule:nonzero;fill:rgb(9.01947%,9.411621%,10.195923%);fill-opacity:1;" d="M 12.359375 160 L 11 145 L 31 145 L 29.324219 160 Z M 12.359375 160 "/>
<path style=" stroke:none;fill-rule:nonzero;fill:rgb(39.99939%,39.99939%,39.99939%);fill-opacity:1;" d="M 11 145 L 11 144.5 L 10.453125 144.5 L 10.503906 145.046875 Z M 31 145 L 31.496094 145.054688 L 31.558594 144.5 L 31 144.5 Z M 29.324219 160 L 29.324219 160.5 L 29.773438 160.5 L 29.824219 160.054688 Z M 12.855469 159.953125 L 11.496094 144.953125 L 10.503906 145.046875 L 11.859375 160.046875 Z M 11 145.5 L 31 145.5 L 31 144.5 L 11 144.5 Z M 30.503906 144.945312 L 28.828125 159.945312 L 29.824219 160.054688 L 31.496094 145.054688 Z M 29.324219 159.5 L 12.359375 159.5 L 12.359375 160.5 L 29.324219 160.5 Z M 29.324219 159.5 "/>
<path style=" stroke:none;fill-rule:nonzero;fill:rgb(35.68573%,35.68573%,35.68573%);fill-opacity:1;" d="M 15.066406 160 L 14 147 L 16.601562 147 L 17 160 Z M 15.066406 160 "/>
<path style=" stroke:none;fill-rule:nonzero;fill:rgb(35.68573%,35.68573%,35.68573%);fill-opacity:1;" d="M 27.933594 160 L 29 147 L 26.398438 147 L 26 160 Z M 27.933594 160 "/>
<path style=" stroke:none;fill-rule:nonzero;fill:rgb(94.116211%,77.645874%,70.587158%);fill-opacity:1;" d="M 77.707031 108 C 78.082031 107.617188 78.433594 107.207031 78.75 106.773438 C 80.894531 103.785156 82.722656 100.113281 81.714844 98.109375 C 81.066406 96.8125 76.710938 85 76.710938 85 L 66 87.574219 L 71.988281 100.015625 C 71.988281 100.015625 71.09375 101.929688 69.886719 104.425781 C 71.875 103.957031 75.308594 103.929688 77.707031 108 Z M 77.707031 108 "/>
<path style=" stroke:none;fill-rule:nonzero;fill:rgb(94.116211%,77.645874%,70.587158%);fill-opacity:1;" d="M 64.835938 126.023438 C 66.664062 128.636719 70.179688 128.417969 70.679688 126.765625 C 70.949219 125.871094 68.6875 124.367188 68.6875 124.367188 C 69.898438 121.980469 70.789062 119.445312 71.335938 116.828125 C 71.976562 113.632812 75.605469 110.71875 78 108.257812 C 77.503906 105.035156 72.554688 103.625 70.582031 104.085938 C 68.851562 107.644531 66.148438 113.074219 64.835938 115.140625 C 61.824219 119.894531 63.023438 123.421875 64.835938 126.023438 Z M 64.835938 126.023438 "/>
<path style=" stroke:none;fill-rule:evenodd;fill:rgb(89.802551%,0%,7.058716%);fill-opacity:1;" d="M 52.527344 84 L 54.472656 84 C 55.867188 84 57 85.121094 57 86.5 C 57 87.878906 55.867188 89 54.472656 89 L 52.527344 89 C 51.132812 89 50 87.878906 50 86.5 C 50 85.121094 51.132812 84 52.527344 84 Z M 52.519531 87.347656 L 54.472656 87.347656 C 54.945312 87.347656 55.332031 86.96875 55.332031 86.5 C 55.332031 86.03125 54.945312 85.652344 54.472656 85.652344 L 52.519531 85.652344 C 52.046875 85.652344 51.664062 86.03125 51.664062 86.5 C 51.664062 86.96875 52.046875 87.347656 52.519531 87.347656 Z M 52.519531 87.347656 "/>
<path style=" stroke:none;fill-rule:nonzero;fill:rgb(89.802551%,0%,7.058716%);fill-opacity:1;" d="M 40.378906 86.050781 L 42.929688 84.007812 L 40.910156 84.007812 C 40.652344 83.996094 40.402344 84.078125 40.199219 84.230469 L 37.730469 86.203125 L 37.730469 84 L 36 84 L 36 89 L 37.730469 89 L 37.730469 88.179688 L 39.050781 87.121094 L 40.453125 88.714844 C 40.628906 88.90625 40.886719 89.007812 41.152344 88.996094 L 43 88.996094 Z M 40.378906 86.050781 "/>
<path style=" stroke:none;fill-rule:nonzero;fill:rgb(89.802551%,0%,7.058716%);fill-opacity:1;" d="M 43 84 L 43 85.65625 L 45.636719 85.65625 L 45.636719 89 L 47.367188 89 L 47.367188 85.65625 L 50 85.65625 L 50 84 Z M 43 84 "/>
</g>
</svg>
