<svg width="584" height="432" viewBox="0 0 584 432" fill="none" xmlns="http://www.w3.org/2000/svg">
<g id="Group 80">
<g id="Group 10">
<path id="Fill 1" fill-rule="evenodd" clip-rule="evenodd" d="M98.416 198.329L413.343 216.237L414.699 192.41L99.7718 174.504L98.416 198.329ZM414.954 219.672L96.4265 201.559C95.4326 201.504 94.6705 200.711 94.7222 199.79L96.2656 172.631C96.3192 171.712 97.1675 171.011 98.1613 171.067L416.687 189.179C417.682 189.235 418.444 190.028 418.393 190.949L416.847 218.108C416.796 219.029 415.947 219.728 414.954 219.672Z" fill="#4F4F4F"/>
<path id="Fill 3" fill-rule="evenodd" clip-rule="evenodd" d="M415.123 218.01L96.9347 199.916L89.7998 325.389L407.988 343.482L415.123 218.01Z" fill="#212121"/>
<g id="Group 7">
<mask id="mask0_1237_25695" style="mask-type:alpha" maskUnits="userSpaceOnUse" x="88" y="198" width="329" height="148">
<path id="Clip 6" fill-rule="evenodd" clip-rule="evenodd" d="M88 198.245H416.922V345.152H88V198.245Z" fill="white"/>
</mask>
<g mask="url(#mask0_1237_25695)">
<path id="Fill 5" fill-rule="evenodd" clip-rule="evenodd" d="M91.6925 323.825L406.286 341.713L413.232 219.575L98.6377 201.686L91.6925 323.825ZM407.893 345.149L89.7048 327.055C88.7129 326.999 87.9508 326.207 88.0025 325.287L95.1373 199.813C95.189 198.894 96.0373 198.193 97.0292 198.248L415.217 216.342C416.211 216.398 416.973 217.191 416.92 218.112L409.785 343.584C409.733 344.505 408.885 345.206 407.893 345.149Z" fill="#4F4F4F"/>
</g>
</g>
<path id="Fill 8" fill-rule="evenodd" clip-rule="evenodd" d="M416.58 192.518C416.499 192.514 416.421 192.504 416.34 192.489L258.698 163.743L98.8127 174.434C97.8227 174.497 96.9553 173.808 96.8749 172.888C96.7964 171.967 97.5336 171.169 98.5236 171.102L258.648 160.396C258.809 160.384 258.968 160.394 259.125 160.422L417.005 189.211C417.981 189.391 418.625 190.268 418.441 191.172C418.272 192.003 417.466 192.568 416.58 192.518Z" fill="#4F4F4F"/>
</g>
<path id="Fill 11" fill-rule="evenodd" clip-rule="evenodd" d="M579.529 84.7571V77.8692L517.083 65.9721V85.2032L579.529 84.7571Z" fill="#6D6D6D"/>
<path id="Fill 12" fill-rule="evenodd" clip-rule="evenodd" d="M296.57 65.9728L234.944 73.8717V84.7578H296.605L296.57 65.9728Z" fill="#6D6D6D"/>
<path id="Fill 13" fill-rule="evenodd" clip-rule="evenodd" d="M489.47 416.429H503.246V278.179H489.47V416.429Z" fill="#6D6D6D"/>
<g id="Group 79">
<mask id="mask1_1237_25695" style="mask-type:alpha" maskUnits="userSpaceOnUse" x="232" y="1" width="350" height="418">
<path id="Clip 15" fill-rule="evenodd" clip-rule="evenodd" d="M232.884 1.91489H581.59V418.49H232.884V1.91489Z" fill="white"/>
</mask>
<g mask="url(#mask1_1237_25695)">
<path id="Fill 14" fill-rule="evenodd" clip-rule="evenodd" d="M491.531 276.118H515.023V86.9184H491.531V276.118ZM517.083 280.239H489.471C488.331 280.239 487.41 279.316 487.41 278.179V84.8599C487.41 83.7206 488.331 82.7976 489.471 82.7976H517.083C518.221 82.7976 519.144 83.7206 519.144 84.8599V278.179C519.144 279.316 518.221 280.239 517.083 280.239Z" fill="#4F4F4F"/>
<path id="Fill 16" fill-rule="evenodd" clip-rule="evenodd" d="M470.588 414.369H535.904V364.383L515.404 280.239H491.088L470.588 364.383V414.369ZM537.965 418.49H468.527C467.39 418.49 466.467 417.567 466.467 416.43V364.136C466.467 363.971 466.486 363.809 466.524 363.648L487.467 277.693C487.693 276.768 488.52 276.118 489.47 276.118H517.024C517.973 276.118 518.799 276.768 519.025 277.693L539.966 363.648C540.006 363.809 540.025 363.971 540.025 364.136V416.43C540.025 417.567 539.102 418.49 537.965 418.49Z" fill="#4F4F4F"/>
<path id="Fill 17" fill-rule="evenodd" clip-rule="evenodd" d="M517.022 418.49C515.885 418.49 514.962 417.567 514.962 416.429V278.179C514.962 277.041 515.885 276.118 517.022 276.118C518.16 276.118 519.083 277.041 519.083 278.179V416.429C519.083 417.567 518.16 418.49 517.022 418.49Z" fill="#4F4F4F"/>
<path id="Fill 18" fill-rule="evenodd" clip-rule="evenodd" d="M489.47 418.49C488.333 418.49 487.41 417.567 487.41 416.429V278.179C487.41 277.041 488.333 276.118 489.47 276.118C490.608 276.118 491.53 277.041 491.53 278.179V416.429C491.53 417.567 490.608 418.49 489.47 418.49Z" fill="#4F4F4F"/>
<path id="Fill 19" fill-rule="evenodd" clip-rule="evenodd" d="M298.666 82.6972H577.469V72.6326L516.798 59.2668H298.666V82.6972ZM579.53 86.8181H296.606C295.468 86.8181 294.545 85.8951 294.545 84.7577V57.2044C294.545 56.067 295.468 55.144 296.606 55.144H517.022C517.171 55.144 517.321 55.1612 517.466 55.1938L579.972 68.9637C580.916 69.1724 581.59 70.0092 581.59 70.9763V84.7577C581.59 85.8951 580.667 86.8181 579.53 86.8181Z" fill="#4F4F4F"/>
<path id="Fill 20" fill-rule="evenodd" clip-rule="evenodd" d="M517.022 86.8177C515.885 86.8177 514.962 85.8947 514.962 84.7573V30.1697L503.272 8.33241L491.53 30.1716V57.2059C491.53 58.3434 490.608 59.2664 489.469 59.2664C488.332 59.2664 487.411 58.3434 487.411 57.2059V29.6527C487.411 29.3119 487.495 28.9768 487.656 28.678L501.462 2.99946C501.82 2.33117 502.517 1.91373 503.275 1.91373H503.279C504.038 1.91564 504.735 2.33309 505.093 3.00138L518.838 28.6819C518.999 28.9806 519.083 29.3138 519.083 29.6527V84.7573C519.083 85.8947 518.16 86.8177 517.022 86.8177Z" fill="#4F4F4F"/>
<path id="Fill 21" fill-rule="evenodd" clip-rule="evenodd" d="M489.47 86.8177C488.333 86.8177 487.41 85.8947 487.41 84.7573V57.2059C487.41 56.0666 488.333 55.1436 489.47 55.1436C490.608 55.1436 491.53 56.0666 491.53 57.2059V84.7573C491.53 85.8947 490.608 86.8177 489.47 86.8177Z" fill="#4F4F4F"/>
<path id="Fill 22" fill-rule="evenodd" clip-rule="evenodd" d="M296.605 86.8177C295.468 86.8177 294.545 85.8947 294.545 84.7573V57.2059C294.545 56.0666 295.468 55.1436 296.605 55.1436C297.743 55.1436 298.666 56.0666 298.666 57.2059V84.7573C298.666 85.8947 297.743 86.8177 296.605 86.8177Z" fill="#4F4F4F"/>
<path id="Fill 23" fill-rule="evenodd" clip-rule="evenodd" d="M237.005 82.6972H294.545L294.547 59.5616L237.005 67.5658V82.6972ZM296.605 86.8181H234.944C233.807 86.8181 232.884 85.8951 232.884 84.7577V65.7735C232.884 64.7452 233.642 63.8739 234.661 63.7322L296.326 55.1555C296.916 55.0732 297.513 55.2512 297.961 55.6419C298.411 56.0325 298.67 56.5993 298.67 57.1948L298.666 84.7577C298.666 85.8951 297.743 86.8181 296.605 86.8181Z" fill="#4F4F4F"/>
<path id="Fill 24" fill-rule="evenodd" clip-rule="evenodd" d="M545.532 93.789H577.469V87.265H545.532V93.789ZM579.529 97.9079H543.472C542.335 97.9079 541.412 96.9869 541.412 95.8494V85.2027C541.412 84.0652 542.335 83.1423 543.472 83.1423H579.529C580.667 83.1423 581.59 84.0652 581.59 85.2027V95.8494C581.59 96.9869 580.667 97.9079 579.529 97.9079Z" fill="#4F4F4F"/>
<path id="Fill 25" fill-rule="evenodd" clip-rule="evenodd" d="M253.105 122.955C251.968 122.955 251.045 122.032 251.045 120.894V84.7565C251.045 83.6191 251.968 82.698 253.105 82.698C254.243 82.698 255.166 83.6191 255.166 84.7565V120.894C255.166 122.032 254.243 122.955 253.105 122.955Z" fill="#4F4F4F"/>
<path id="Fill 26" fill-rule="evenodd" clip-rule="evenodd" d="M250.375 140.506H255.696V122.955H250.375V140.506ZM257.757 144.627H248.314C247.175 144.627 246.254 143.704 246.254 142.567V120.894C246.254 119.757 247.175 118.834 248.314 118.834H257.757C258.896 118.834 259.817 119.757 259.817 120.894V142.567C259.817 143.704 258.896 144.627 257.757 144.627Z" fill="#4F4F4F"/>
<path id="Fill 27" fill-rule="evenodd" clip-rule="evenodd" d="M253.357 169.867C247.038 169.867 241.896 164.726 241.896 158.407C241.896 152.791 245.956 148.105 251.297 147.13V142.567C251.297 141.43 252.22 140.507 253.357 140.507C254.494 140.507 255.417 141.43 255.417 142.567V149.005C255.417 150.144 254.494 151.067 253.357 151.067C249.309 151.067 246.017 154.359 246.017 158.407C246.017 162.453 249.309 165.747 253.357 165.747C257.405 165.747 260.697 162.453 260.697 158.407C260.697 157.268 261.62 156.346 262.757 156.346C263.895 156.346 264.818 157.268 264.818 158.407C264.818 164.726 259.676 169.867 253.357 169.867Z" fill="#4F4F4F"/>
<path id="Fill 28" fill-rule="evenodd" clip-rule="evenodd" d="M579.528 73.0369C579.046 73.0369 578.561 72.8684 578.169 72.5237L502.736 6.24196L297.123 59.1923C296.02 59.4738 294.896 58.8112 294.613 57.7102C294.329 56.6072 294.992 55.4831 296.095 55.1997L502.762 1.97943C503.421 1.80901 504.124 1.97752 504.637 2.4256L580.89 69.4292C581.744 70.1799 581.828 71.482 581.077 72.336C580.669 72.7994 580.101 73.0369 579.528 73.0369Z" fill="#4F4F4F"/>
<path id="Stroke 29" d="M490.927 58.662L515.022 83.1419" stroke="#4F4F4F"/>
<path id="Stroke 30" d="M515.198 59.2662L491.104 83.746" stroke="#4F4F4F"/>
<path id="Stroke 31" d="M489.47 84.9028L515.922 111.778" stroke="#4F4F4F" stroke-linecap="round" stroke-linejoin="round"/>
<path id="Stroke 32" d="M516.116 85.5657L489.664 112.441" stroke="#4F4F4F" stroke-linecap="round" stroke-linejoin="round"/>
<path id="Stroke 33" d="M490.133 85.0142H515.922" stroke="#4F4F4F" stroke-linecap="round" stroke-linejoin="round"/>
<path id="Stroke 34" d="M490.133 112.342H515.922" stroke="#4F4F4F" stroke-linecap="round" stroke-linejoin="round"/>
<path id="Stroke 35" d="M489.472 112.233L515.924 139.108" stroke="#4F4F4F" stroke-linecap="round" stroke-linejoin="round"/>
<path id="Stroke 36" d="M516.118 112.895L489.666 139.77" stroke="#4F4F4F" stroke-linecap="round" stroke-linejoin="round"/>
<path id="Stroke 37" d="M490.135 112.343H515.924" stroke="#4F4F4F" stroke-linecap="round" stroke-linejoin="round"/>
<path id="Stroke 38" d="M490.135 139.671H515.924" stroke="#4F4F4F" stroke-linecap="round" stroke-linejoin="round"/>
<path id="Stroke 39" d="M489.47 139.395L515.922 166.27" stroke="#4F4F4F" stroke-linecap="round" stroke-linejoin="round"/>
<path id="Stroke 40" d="M516.116 140.057L489.664 166.932" stroke="#4F4F4F" stroke-linecap="round" stroke-linejoin="round"/>
<path id="Stroke 41" d="M490.133 139.505H515.922" stroke="#4F4F4F" stroke-linecap="round" stroke-linejoin="round"/>
<path id="Stroke 42" d="M490.133 166.833H515.922" stroke="#4F4F4F" stroke-linecap="round" stroke-linejoin="round"/>
<path id="Stroke 43" d="M489.472 166.724L515.924 193.599" stroke="#4F4F4F" stroke-linecap="round" stroke-linejoin="round"/>
<path id="Stroke 44" d="M516.118 167.387L489.666 194.262" stroke="#4F4F4F" stroke-linecap="round" stroke-linejoin="round"/>
<path id="Stroke 45" d="M490.135 166.835H515.924" stroke="#4F4F4F" stroke-linecap="round" stroke-linejoin="round"/>
<path id="Stroke 46" d="M490.135 194.163H515.924" stroke="#4F4F4F" stroke-linecap="round" stroke-linejoin="round"/>
<path id="Stroke 47" d="M489.47 193.944L515.922 220.819" stroke="#4F4F4F" stroke-linecap="round" stroke-linejoin="round"/>
<path id="Stroke 48" d="M516.116 194.606L489.664 221.481" stroke="#4F4F4F" stroke-linecap="round" stroke-linejoin="round"/>
<path id="Stroke 49" d="M490.133 194.055H515.922" stroke="#4F4F4F" stroke-linecap="round" stroke-linejoin="round"/>
<path id="Stroke 50" d="M490.133 221.382H515.922" stroke="#4F4F4F" stroke-linecap="round" stroke-linejoin="round"/>
<path id="Stroke 51" d="M489.472 221.273L515.924 248.148" stroke="#4F4F4F" stroke-linecap="round" stroke-linejoin="round"/>
<path id="Stroke 52" d="M516.118 221.936L489.666 248.811" stroke="#4F4F4F" stroke-linecap="round" stroke-linejoin="round"/>
<path id="Stroke 53" d="M490.135 221.384H515.924" stroke="#4F4F4F" stroke-linecap="round" stroke-linejoin="round"/>
<path id="Stroke 54" d="M490.135 248.712H515.924" stroke="#4F4F4F" stroke-linecap="round" stroke-linejoin="round"/>
<path id="Stroke 55" d="M487.41 58.1833L460.535 84.6355" stroke="#4F4F4F" stroke-linecap="round" stroke-linejoin="round"/>
<path id="Stroke 56" d="M486.747 84.8291L459.872 58.3769" stroke="#4F4F4F" stroke-linecap="round" stroke-linejoin="round"/>
<path id="Stroke 57" d="M487.299 58.8453V84.6349" stroke="#4F4F4F" stroke-linecap="round" stroke-linejoin="round"/>
<path id="Stroke 58" d="M459.971 58.8463V84.6359" stroke="#4F4F4F" stroke-linecap="round" stroke-linejoin="round"/>
<path id="Stroke 59" d="M459.962 58.1833L433.087 84.6355" stroke="#4F4F4F" stroke-linecap="round" stroke-linejoin="round"/>
<path id="Stroke 60" d="M459.299 84.8291L432.424 58.3769" stroke="#4F4F4F" stroke-linecap="round" stroke-linejoin="round"/>
<path id="Stroke 61" d="M459.851 58.8453V84.6349" stroke="#4F4F4F" stroke-linecap="round" stroke-linejoin="round"/>
<path id="Stroke 62" d="M432.524 58.8463V84.6359" stroke="#4F4F4F" stroke-linecap="round" stroke-linejoin="round"/>
<path id="Stroke 63" d="M432.443 58.1833L405.568 84.6355" stroke="#4F4F4F" stroke-linecap="round" stroke-linejoin="round"/>
<path id="Stroke 64" d="M431.781 84.8291L404.906 58.3769" stroke="#4F4F4F" stroke-linecap="round" stroke-linejoin="round"/>
<path id="Stroke 65" d="M432.333 58.8453V84.6349" stroke="#4F4F4F" stroke-linecap="round" stroke-linejoin="round"/>
<path id="Stroke 66" d="M405.005 58.8463V84.6359" stroke="#4F4F4F" stroke-linecap="round" stroke-linejoin="round"/>
<path id="Stroke 67" d="M405.123 58.1833L378.248 84.6355" stroke="#4F4F4F" stroke-linecap="round" stroke-linejoin="round"/>
<path id="Stroke 68" d="M404.46 84.8291L377.585 58.3769" stroke="#4F4F4F" stroke-linecap="round" stroke-linejoin="round"/>
<path id="Stroke 69" d="M405.012 58.8453V84.6349" stroke="#4F4F4F" stroke-linecap="round" stroke-linejoin="round"/>
<path id="Stroke 70" d="M377.685 58.8463V84.6359" stroke="#4F4F4F" stroke-linecap="round" stroke-linejoin="round"/>
<path id="Stroke 71" d="M377.804 58.1833L350.928 84.6355" stroke="#4F4F4F" stroke-linecap="round" stroke-linejoin="round"/>
<path id="Stroke 72" d="M377.141 84.8291L350.266 58.3769" stroke="#4F4F4F" stroke-linecap="round" stroke-linejoin="round"/>
<path id="Stroke 73" d="M377.692 58.8453V84.6349" stroke="#4F4F4F" stroke-linecap="round" stroke-linejoin="round"/>
<path id="Stroke 74" d="M350.365 58.8463V84.6359" stroke="#4F4F4F" stroke-linecap="round" stroke-linejoin="round"/>
<path id="Stroke 75" d="M350.483 58.1833L323.607 84.6355" stroke="#4F4F4F" stroke-linecap="round" stroke-linejoin="round"/>
<path id="Stroke 76" d="M349.821 84.8291L322.946 58.3769" stroke="#4F4F4F" stroke-linecap="round" stroke-linejoin="round"/>
<path id="Stroke 77" d="M350.372 58.8453V84.6349" stroke="#4F4F4F" stroke-linecap="round" stroke-linejoin="round"/>
<path id="Stroke 78" d="M323.044 58.8463V84.6359" stroke="#4F4F4F" stroke-linecap="round" stroke-linejoin="round"/>
</g>
</g>
<g id="Group 61">
<path id="Fill 1_2" fill-rule="evenodd" clip-rule="evenodd" d="M58.657 215.882C60.881 215.6 60.9307 215.778 62.8625 216.427C64.4026 216.947 66.753 217.424 66.9997 217.519C67.3666 217.658 69.9989 220.409 69.9989 220.409C70.8384 223.107 71.7172 224.291 70.4052 225.039C69.6072 225.495 68.7408 224.49 67.1779 222.208L66.0234 221.337C66.8608 222.388 67.5573 223.168 67.6713 224.399C67.7728 225.487 67.4702 227.019 65.3871 227.336C64.8917 227.412 64.9601 226.979 64.8109 226.48L64.4233 225.153C62.9289 224.687 61.6168 224.21 60.1618 223.65C62.0956 224.562 63.2398 225.203 63.7414 225.858C64.4482 226.782 63.6854 227.607 62.9226 228.422C61.8531 229.562 60.6426 227.614 57.5688 226.697C58.5637 227.178 60.0706 227.723 60.6198 228.739C61.1422 229.709 59.8591 230.285 58.9409 230.35C55.5562 230.59 50.3184 230.434 46.917 229.813C45.4309 229.539 42.9519 227.91 41.9632 227.846C39.5381 227.251 37.3991 227.614 34.9595 227.773L35.9606 217.901L45.4786 219.565C46.6807 218.92 57.3739 216.044 58.657 215.882Z" fill="#7F7F7F"/>
<path id="Fill 3_2" fill-rule="evenodd" clip-rule="evenodd" d="M17.0647 210.355C27.362 213.147 29.5984 217.143 44.9118 219.543C43.3137 222.24 42.5799 224.282 43.1313 228.313C27.1651 228.197 21.6102 228.873 6.10408 225.855C1.68917 223.915 2.12237 224.885 0.368844 217.392C-0.174211 210.846 12.2269 208.116 17.0647 210.355Z" fill="#B4B4B4"/>
<g id="Group 7_2">
<mask id="mask2_1237_25695" style="mask-type:alpha" maskUnits="userSpaceOnUse" x="0" y="164" width="32" height="61">
<path id="Clip 6_2" fill-rule="evenodd" clip-rule="evenodd" d="M0 164.68H31.9385V224.994H0V164.68Z" fill="white"/>
</mask>
<g mask="url(#mask2_1237_25695)">
<path id="Fill 5_2" fill-rule="evenodd" clip-rule="evenodd" d="M13.1993 221.883C8.02785 224.242 4.40057 226.218 2.21385 224.081C0.800247 222.698 -0.229899 218.082 0.0437014 215.837C1.3205 205.403 6.78421 189.12 11.311 181.322C15.0917 174.812 17.9894 168.963 25.2709 165.555C43.2849 157.123 19.8134 212.154 13.1993 221.883Z" fill="#B4B4B4"/>
</g>
</g>
<path id="Fill 8_2" fill-rule="evenodd" clip-rule="evenodd" d="M89.0551 354.844C100.012 354.844 108.889 363.723 108.889 374.678C108.889 385.632 100.012 394.512 89.0551 394.512C78.1008 394.512 69.2212 385.632 69.2212 374.678C69.2212 363.723 78.1008 354.844 89.0551 354.844Z" fill="#E3EDFA"/>
<path id="Fill 10" fill-rule="evenodd" clip-rule="evenodd" d="M89.0556 367.394L92.886 370.176L96.7122 372.958L95.251 377.457L93.7897 381.959H89.0556H84.3235L82.8623 377.457L81.3989 372.958L85.2273 370.176L89.0556 367.394Z" fill="#1B1F24"/>
<path id="Fill 12_2" fill-rule="evenodd" clip-rule="evenodd" d="M89.0556 363.588L85.2273 360.806L81.3989 358.025L82.0166 356.13C84.2033 355.299 86.5766 354.843 89.0556 354.843C91.5366 354.843 93.9078 355.299 96.0966 356.13L96.7122 358.025L92.886 360.806L89.0556 363.588Z" fill="#1B1F24"/>
<path id="Fill 14_2" fill-rule="evenodd" clip-rule="evenodd" d="M95.4556 385.032L100.183 385.225L104.911 385.419L105.15 386.269C102.194 390.365 97.7148 393.287 92.5434 394.204L92.1641 393.905L93.8098 389.469L95.4556 385.032Z" fill="#1B1F24"/>
<path id="Fill 16_2" fill-rule="evenodd" clip-rule="evenodd" d="M82.6581 385.032L77.9302 385.225L73.2003 385.419L72.9619 386.269C75.9176 390.365 80.3968 393.287 85.5682 394.204L85.9476 393.905L84.3018 389.469L82.6581 385.032Z" fill="#1B1F24"/>
<path id="Fill 18_2" fill-rule="evenodd" clip-rule="evenodd" d="M77.638 371.362L73.9444 374.317L70.2508 377.275L69.3202 376.664C69.2559 376.011 69.2207 375.345 69.2207 374.678C69.2207 370.108 70.767 365.902 73.362 362.548L74.2989 362.505L75.9674 366.934L77.638 371.362Z" fill="#1B1F24"/>
<path id="Fill 20_2" fill-rule="evenodd" clip-rule="evenodd" d="M100.474 371.362L104.167 374.317L107.863 377.275L108.791 376.664C108.858 376.011 108.891 375.345 108.891 374.678C108.891 370.108 107.345 365.902 104.75 362.548L103.815 362.505L102.144 366.934L100.474 371.362Z" fill="#1B1F24"/>
<path id="Fill 22_2" fill-rule="evenodd" clip-rule="evenodd" d="M53.2146 275.946C57.8368 287.554 57.5985 296.696 60.89 321.161C63.7026 331.265 64.3742 338.982 66.9962 348.917C71.1189 364.539 69.5913 378.072 75.1047 398.615L63.8166 399.182C58.7157 383.419 52.1513 370.061 48.7438 354.866C47.7074 350.247 48.8557 345.159 47.6597 340.288C40.0072 325.545 37.093 317.954 34.187 306.011L53.2146 275.946Z" fill="#B4B4B4"/>
<path id="Fill 24_2" fill-rule="evenodd" clip-rule="evenodd" d="M66.9966 348.916C71.1192 364.54 69.5916 378.071 75.1051 398.616L63.817 399.182L48.7441 354.865L66.9966 348.916Z" fill="#B22200"/>
<path id="Fill 26_2" fill-rule="evenodd" clip-rule="evenodd" d="M69.8634 386.732C66.089 383.26 62.2648 383.007 59.7983 384.626C57.027 386.442 55.8145 391.313 60.7206 398.194C62.6358 400.883 63.5105 402.221 64.236 404.162C66.8227 411.055 64.5697 418.383 71.4967 425.297C72.7984 426.601 75.8059 426.404 77.3294 425.778C80.4758 424.485 84.3621 422.051 84.2896 417.873C81.8396 409.205 81.6158 403.934 76.0567 397.065C73.0243 393.317 73.6047 390.175 69.8634 386.732Z" fill="#353535"/>
<path id="Fill 28_2" fill-rule="evenodd" clip-rule="evenodd" d="M79.8112 229.901C82.4373 231.624 91.4682 235.187 92.8154 231.932C94.1834 228.629 94.7265 222.81 94.8467 216.412C95.0125 207.466 94.3555 197.386 93.9637 191.429C93.5285 184.782 90.7593 179.959 84.3193 175.635C71.4311 166.986 73.9142 201.221 77.3778 219.969C78.1986 224.402 79.0733 227.969 79.8112 229.901Z" fill="#B4B4B4"/>
<path id="Fill 30" fill-rule="evenodd" clip-rule="evenodd" d="M24.7098 241.257C18.0004 273.289 21.2152 284.369 29.0605 302.613L37.6271 322.537L45.6962 320.217L52.3745 317.999L50.0365 247.757L47.7192 240.326L24.7098 241.257Z" fill="#17181A"/>
<path id="Stroke 32_2" fill-rule="evenodd" clip-rule="evenodd" d="M24.7098 241.257C18.0004 273.289 21.2152 284.369 29.0605 302.613L37.6271 322.537L45.6962 320.217L52.3745 317.999L50.0365 247.757L47.7192 240.326L24.7098 241.257Z" stroke="#6D6D6D" stroke-width="0.5"/>
<path id="Fill 34" fill-rule="evenodd" clip-rule="evenodd" d="M54.1235 318.094L50.0257 259.915C47.4162 277.697 47.895 289.039 34.6357 287.604L39.9585 291.878C40.6819 303.875 40.5865 312.284 41.6436 321.197L54.1235 318.094Z" fill="#363636"/>
<path id="Fill 36" fill-rule="evenodd" clip-rule="evenodd" d="M67.3637 249.71C70.2095 263.859 72.3299 273.116 72.674 280.648C73.2419 293.13 70.0251 301.692 65.1314 325.883C64.4826 336.353 62.5943 343.866 61.8233 354.112C60.6087 370.223 54.7346 382.51 53.2256 403.731L42.3749 400.57C42.7107 384.009 40.8763 369.236 42.6278 353.759C43.1605 349.058 45.911 344.625 46.3732 339.632C43.9667 323.197 43.6952 315.072 44.858 302.832C46.8478 281.867 63.2431 296.693 51.8887 245.623L67.3637 249.71Z" fill="#B4B4B4"/>
<path id="Fill 38" fill-rule="evenodd" clip-rule="evenodd" d="M61.8227 354.111C60.6081 370.222 54.7361 382.512 53.2251 403.73L42.3743 400.571C42.7101 384.008 40.8778 369.236 42.6293 353.761C42.82 352.071 43.2988 350.411 43.8543 348.753C49.9875 345.737 62.5316 350.989 61.8227 354.111Z" fill="#B22200"/>
<path id="Fill 40" fill-rule="evenodd" clip-rule="evenodd" d="M67.3637 249.71C70.2096 263.859 72.33 273.116 72.674 280.648C73.242 293.13 71.8843 301.692 66.9906 325.883L43.9813 321.249C43.6434 314.987 44.2196 309.525 44.858 302.832C46.8479 281.867 54.8838 293.35 43.5273 242.28L67.3637 249.71Z" fill="#17181A"/>
<path id="Stroke 42_2" fill-rule="evenodd" clip-rule="evenodd" d="M67.3637 249.71C70.2096 263.859 72.33 273.116 72.674 280.648C73.242 293.13 71.8843 301.692 66.9906 325.883L43.9813 321.249C43.6434 314.987 44.2196 309.525 44.858 302.832C46.8479 281.867 54.8838 293.35 43.5273 242.28L67.3637 249.71Z" stroke="#6D6D6D" stroke-width="0.5"/>
<g id="Group 46">
<mask id="mask3_1237_25695" style="mask-type:alpha" maskUnits="userSpaceOnUse" x="38" y="385" width="21" height="46">
<path id="Clip 45" fill-rule="evenodd" clip-rule="evenodd" d="M38.8198 385.326H58.7129V430.016H38.8198V385.326Z" fill="white"/>
</mask>
<g mask="url(#mask3_1237_25695)">
<path id="Fill 44" fill-rule="evenodd" clip-rule="evenodd" d="M52.161 390.783C49.7276 386.267 46.1998 384.777 43.3374 385.5C40.1247 386.31 37.3866 390.518 39.7702 398.627C40.7009 401.792 41.0201 403.346 41.1403 405.413C41.617 413.48 34.9118 418.906 42.3466 430.016H56.2132L58.7129 427.193C57.8879 424.89 57.9812 425.47 55.6059 424.934C56.1241 415.94 57.6392 410.881 54.6317 402.575C52.9922 398.044 54.5716 395.263 52.161 390.783Z" fill="#353535"/>
</g>
</g>
<path id="Fill 47" fill-rule="evenodd" clip-rule="evenodd" d="M52.7552 153.231L70.0541 157.941C68.7359 162.608 67.428 167.22 66.2486 171.925L57.2592 182.956L48.4771 167.181L52.7552 153.231Z" fill="#B4B4B4"/>
<path id="Fill 49" fill-rule="evenodd" clip-rule="evenodd" d="M59.4301 162.192C59.3845 162.184 59.3348 162.174 59.2892 162.159C57.5522 161.699 56.6962 161.436 55.8629 160.779C52.0201 157.749 51.3693 152.778 51.9994 148.454C50.8635 148.728 50.5754 145.609 50.6169 144.624C50.679 143.171 50.3288 140.572 50.4469 138.924C50.5132 137.981 50.8138 137.301 51.1744 137.158C51.9476 136.853 52.5362 137.295 53.1373 138.856C53.5 137.769 53.8835 136.65 54.1737 135.431C54.7229 133.154 55.1665 131.263 55.8774 129.75C56.5925 128.22 57.5833 127.062 59.2104 126.249V126.245C60.11 125.802 61.0758 125.478 62.0915 125.271C62.1018 125.271 62.1122 125.269 62.1226 125.267C62.1889 125.259 62.2573 125.246 62.3236 125.229C62.3609 125.223 62.3962 125.219 62.4356 125.209C62.4874 125.196 62.5413 125.188 62.5931 125.182C62.6428 125.178 62.6946 125.167 62.7465 125.161C62.8045 125.147 62.8605 125.142 62.9144 125.138C62.9641 125.126 63.0118 125.12 63.0615 125.113C63.1341 125.103 63.2025 125.095 63.2729 125.091C63.3082 125.089 63.3413 125.08 63.3766 125.078C63.4781 125.066 63.5838 125.057 63.6875 125.051L63.6916 125.047C66.3012 124.834 69.0621 125.327 71.5141 126.401C73.9558 127.468 76.0845 129.116 77.4338 131.191C78.4163 132.712 78.6795 134.204 78.5261 135.877C78.3748 137.533 77.811 139.386 77.1312 141.621C76.7643 142.827 76.5301 143.99 76.2917 145.117C77.5768 144.106 78.2981 144.033 78.806 144.678C79.0464 144.987 78.9593 145.727 78.5386 146.574C77.8048 148.052 76.184 150.113 75.502 151.398C75.044 152.26 73.2531 154.751 72.3992 154.024C70.7783 158.103 67.5842 161.929 62.8957 162.648C61.8821 162.796 61.0365 162.624 59.4301 162.192Z" fill="#B4B4B4"/>
<path id="Fill 51" fill-rule="evenodd" clip-rule="evenodd" d="M51.2007 151.185C51.1758 151.202 52.0422 138.875 52.2537 134.802C52.6247 127.718 54.8757 123.338 60.6441 121.122C70.247 117.429 78.8882 123.833 79.054 126.3C82.8554 128.876 81.7278 136.425 78.6188 143.667C76.4051 148.822 72.9602 153.919 71.5777 156.539C69.5962 160.297 64.205 161.98 59.7777 161.147C55.9887 160.434 51.806 157.264 51.2007 151.185Z" fill="#632404"/>
<path id="Fill 53" fill-rule="evenodd" clip-rule="evenodd" d="M93.965 191.429C93.5297 184.782 90.7605 179.959 84.3185 175.635C83.7278 175.237 83.1785 174.961 82.6499 174.739C78.6765 172.049 71.1878 168.834 69.0466 166.834L69.3285 162.842C64.7478 165.561 53.8432 161.984 50.4563 158.286C48.9661 161.258 48.2199 161.321 47.8074 161.553C40.8451 165.472 32.1977 161.766 26.3422 165.12C26.0002 165.242 25.6499 165.379 25.2706 165.555C17.9891 168.963 15.0915 174.814 11.3129 181.322C8.10638 186.84 4.43351 196.613 2.10791 205.555L19.3945 210.034C20.437 207.766 21.5128 205.31 22.5782 202.761C23.2746 211.412 24.0104 220.062 23.7119 228.089C23.314 238.747 21.8651 243.931 20.4287 254.863L69.8819 257.989C68.1927 245.274 70.9038 234.54 73.3786 222.783C73.8947 220.329 75.0845 217.645 76.5085 214.768C76.7841 216.592 77.0785 218.341 77.379 219.968L94.8479 216.412C95.0138 207.466 94.3546 197.386 93.965 191.429Z" fill="#17181A"/>
<path id="Union" fill-rule="evenodd" clip-rule="evenodd" d="M39.0029 196.402L44.6226 193.063L40.626 192.501C40.1178 192.411 39.5948 192.497 39.1513 192.743L33.7123 195.965L34.3256 191.601L30.8999 191.12L29.5082 201.023L32.9339 201.504L33.1619 199.882L36.0699 198.151L38.4082 201.696C38.7019 202.124 39.1828 202.402 39.713 202.45L43.3729 202.964L39.0029 196.402ZM63.6302 195.72L67.4883 196.262C70.2513 196.65 72.1796 199.182 71.7953 201.917C71.411 204.651 68.8596 206.553 66.0966 206.165L62.2385 205.623C59.4755 205.234 57.5472 202.703 57.9315 199.968C58.3159 197.234 60.8672 195.332 63.6302 195.72ZM62.6843 202.348L66.5566 202.892C67.4932 203.024 68.3581 202.379 68.4883 201.452C68.6186 200.525 67.965 199.667 67.0284 199.535L63.1561 198.991C62.2195 198.859 61.3546 199.504 61.2244 200.431C61.0941 201.358 61.7477 202.216 62.6843 202.348ZM44.3027 196.348L44.7637 193.068L58.6274 195.017L58.1664 198.297L52.9484 197.563L52.0176 204.186L48.5973 203.705L49.5281 197.083L44.3027 196.348Z" fill="#E50012"/>
<path id="Stroke 55_2" fill-rule="evenodd" clip-rule="evenodd" d="M93.965 191.429C93.5297 184.782 90.7605 179.959 84.3185 175.635C83.7278 175.237 83.1785 174.961 82.6499 174.739C78.6765 172.049 71.1878 168.834 69.0466 166.834L69.3285 162.842C64.7478 165.561 53.8432 161.984 50.4563 158.286C48.9661 161.258 48.2199 161.321 47.8074 161.553C40.8451 165.472 32.1977 161.766 26.3422 165.12C26.0002 165.242 25.6499 165.379 25.2706 165.555C17.9891 168.963 15.0915 174.814 11.3129 181.322C8.10638 186.84 4.43351 196.613 2.10791 205.555L19.3945 210.034C20.437 207.766 21.5128 205.31 22.5782 202.761C23.2746 211.412 24.0104 220.062 23.7119 228.089C23.314 238.747 21.8651 243.931 20.4287 254.863L69.8819 257.989C68.1927 245.274 70.9038 234.54 73.3786 222.783C73.8947 220.329 75.0845 217.645 76.5085 214.768C76.7841 216.592 77.0785 218.341 77.379 219.968L94.8479 216.412C95.0138 207.466 94.3546 197.386 93.965 191.429Z" stroke="#6D6D6D" stroke-width="0.5"/>
<path id="Fill 57" fill-rule="evenodd" clip-rule="evenodd" d="M111.696 276.229C112.911 278.111 112.776 278.231 113.029 280.254C113.23 281.869 113.817 284.192 113.84 284.458C113.873 284.847 112.536 288.41 112.536 288.41C110.474 290.338 109.783 291.646 108.542 290.788C107.785 290.268 108.316 289.049 109.692 286.653L109.976 285.231C109.394 286.443 108.994 287.409 107.932 288.048C106.998 288.611 105.484 289.003 104.295 287.264C104.011 286.85 104.429 286.723 104.817 286.375L105.845 285.448C105.615 283.898 105.476 282.509 105.35 280.955C105.366 283.096 105.285 284.402 104.912 285.138C104.388 286.178 103.312 285.848 102.247 285.513C100.757 285.044 101.986 283.108 101.478 279.943C101.478 281.046 101.64 282.64 100.962 283.575C100.315 284.468 99.2393 283.564 98.7833 282.762C97.1003 279.817 94.9654 275.031 94.0513 271.698C93.6513 270.239 94.043 267.298 93.672 266.379C93.1559 263.938 91.9019 262.17 90.6997 260.037L100.027 256.656L102.657 265.954C103.762 266.759 110.994 275.143 111.696 276.229Z" fill="#B4B4B4"/>
<path id="Fill 59" fill-rule="evenodd" clip-rule="evenodd" d="M97.3303 238.772C99.2807 249.26 97.95 250.597 102.433 265.434C99.3097 265.164 97.152 265.386 93.761 267.635C86.9355 253.196 83.9176 248.487 79.909 233.209C79.739 228.39 79.0529 229.198 85.0452 224.369C88.0216 222.619 94.4264 223.494 94.4948 227.459C94.5569 231.14 97.2909 236.245 97.3303 238.772Z" fill="#B4B4B4"/>
</g>
<path id="Title Copy 2" d="M213.042 271.827C208.972 273.055 204.279 273.931 198.923 274.491L199.264 278.675C204.306 278.018 208.842 277.054 212.832 275.821L213.042 271.827ZM206.501 243.005C205.039 247.214 203.396 251.053 201.571 254.523C201.014 255.215 200.428 255.704 199.774 255.951L200.574 259.798C202.426 259.614 204.238 259.429 205.969 259.279C204.249 262.273 202.858 264.364 201.757 265.507C201.212 265.96 200.552 266.326 199.817 266.607L200.698 270.419C204.323 270.048 208.216 269.13 212.378 267.666L212.579 263.832C210.29 264.713 208.011 265.395 205.823 265.881C207.975 263.03 210.688 258.645 213.885 252.685L210.323 251.096C209.518 252.696 208.719 254.176 208.005 255.581L204.624 255.884C206.537 253.021 208.491 249.358 210.412 244.812L206.501 243.005ZM219.948 262.335L225.82 262.643L225.606 266.717L219.734 266.41L219.948 262.335ZM219.535 270.204L225.407 270.512L225.158 275.266L219.286 274.958L219.535 270.204ZM219.083 278.833L235.501 279.693L235.704 275.818L229.153 275.475L229.402 270.721L234.475 270.987L234.674 267.193L229.601 266.927L229.814 262.852L234.887 263.118L235.088 259.283L230.015 259.018L230.235 254.823L235.987 255.125L236.192 251.21L230.6 250.917C230.185 248.893 229.619 246.7 228.904 244.299L224.813 245.166C225.52 246.966 226.103 248.839 226.605 250.708L220.893 250.408C221.624 248.684 222.32 246.878 222.898 245.026L218.985 244.02C217.506 249.31 215.171 254.114 211.981 258.433L213.037 262.734C214.105 261.468 215.135 260.16 216.129 258.77L214.982 280.66L218.976 280.87L219.083 278.833ZM226.24 254.614L226.021 258.808L220.149 258.5L220.369 254.306L226.24 254.614ZM243.517 281.875C246.234 282.018 247.663 280.731 247.805 278.015L248.362 267.389C249.83 266.905 251.259 266.379 252.651 265.811L252.868 261.657C251.477 262.225 250.045 262.791 248.578 263.275L248.921 256.724L252.836 256.929L253.047 252.895L249.133 252.689L249.503 245.619L245.309 245.399L244.938 252.47L240.345 252.229L240.133 256.263L244.727 256.504L244.306 264.533C242.519 265 240.699 265.345 238.842 265.609L239.661 269.857C241.12 269.533 242.623 269.131 244.086 268.727L243.668 276.716C243.622 277.595 243.157 278.051 242.278 278.005C241.16 277.947 240.006 277.806 238.816 277.584L239.523 281.666L243.517 281.875ZM271.757 255.117L271.426 261.428L258.643 260.758L258.974 254.447L271.757 255.117ZM258.394 264.751L275.251 265.634L275.998 251.374L267.65 250.936C267.262 249.153 266.865 247.57 266.421 246.105L261.949 246.592C262.521 247.904 263.012 249.251 263.416 250.714L255.067 250.277L254.37 263.578C253.978 270.287 252.293 275.686 249.355 279.778L252.362 282.78C255.866 277.836 257.864 271.813 258.394 264.751ZM296.495 247.761L296.137 254.592L281.997 253.851L280.975 273.344L285.169 273.564L285.285 271.367L295.231 271.888L294.532 285.23L298.846 285.456L299.545 272.114L309.531 272.638L309.416 274.835L313.61 275.055L314.632 255.561L300.451 254.818L300.809 247.987L296.495 247.761ZM285.498 267.293L285.978 258.145L295.924 258.666L295.444 267.814L285.498 267.293ZM299.759 268.04L300.238 258.893L310.224 259.416L309.745 268.563L299.759 268.04Z" fill="#949494"/>
</g>
</svg>
