<?xml version="1.0" encoding="UTF-8"?>
<svg xmlns="http://www.w3.org/2000/svg" xmlns:xlink="http://www.w3.org/1999/xlink" width="96pt" height="32pt" viewBox="0 0 96 32" version="1.1">
<g id="surface1">
<rect x="0" y="0" width="96" height="32" style="fill:rgb(100%,100%,100%);fill-opacity:1;stroke:none;"/>
<path style=" stroke:none;fill-rule:evenodd;fill:rgb(1.176453%,27.450562%,58.03833%);fill-opacity:1;" d="M 20.21875 15.453125 C 21.34375 15.453125 22.132812 15.589844 22.582031 15.878906 C 23.03125 16.171875 23.257812 16.613281 23.257812 17.210938 C 23.257812 17.441406 23.226562 17.714844 23.175781 18.050781 L 22.550781 21.382812 L 22.46875 21.839844 C 22.5 22.019531 22.601562 22.191406 22.773438 22.359375 L 22.742188 22.484375 L 19.800781 22.484375 L 19.800781 21.734375 C 19.496094 21.964844 19.1875 22.144531 18.871094 22.296875 C 18.289062 22.558594 17.660156 22.695312 16.988281 22.695312 L 16.839844 22.695312 C 16.230469 22.695312 15.699219 22.511719 15.199219 22.175781 C 14.847656 21.933594 14.671875 21.566406 14.671875 21.078125 L 14.671875 20.785156 C 14.703125 20.695312 14.71875 20.617188 14.71875 20.585938 C 14.847656 19.992188 15.121094 19.53125 15.523438 19.210938 C 15.859375 18.949219 16.28125 18.753906 16.777344 18.617188 L 17.5 18.476562 L 18.5625 18.324219 C 18.675781 18.308594 18.769531 18.296875 18.871094 18.277344 C 19.445312 18.203125 19.816406 18.128906 19.960938 18.066406 C 20.265625 17.941406 20.414062 17.773438 20.414062 17.5625 C 20.414062 17.242188 20.136719 17.074219 19.578125 17.074219 C 19.285156 17.074219 19.058594 17.132812 18.871094 17.242188 C 18.675781 17.347656 18.527344 17.515625 18.449219 17.746094 L 15.683594 17.746094 C 15.925781 16.445312 16.988281 15.695312 18.871094 15.5 C 19.222656 15.46875 19.589844 15.453125 20.011719 15.453125 Z M 70.667969 15.453125 C 71.777344 15.453125 72.566406 15.589844 73.015625 15.878906 C 73.480469 16.171875 73.707031 16.613281 73.707031 17.210938 C 73.707031 17.441406 73.675781 17.714844 73.628906 18.050781 L 73 21.382812 L 72.921875 21.839844 C 72.953125 22.019531 73.046875 22.191406 73.226562 22.359375 L 73.191406 22.484375 L 70.234375 22.484375 L 70.234375 21.734375 C 69.949219 21.964844 69.636719 22.144531 69.316406 22.296875 C 68.722656 22.558594 68.097656 22.695312 67.421875 22.695312 L 67.292969 22.695312 C 66.679688 22.695312 66.132812 22.511719 65.648438 22.175781 C 65.296875 21.933594 65.117188 21.566406 65.117188 21.078125 L 65.117188 20.785156 C 65.136719 20.695312 65.167969 20.617188 65.167969 20.585938 C 65.296875 19.992188 65.570312 19.53125 65.972656 19.210938 C 66.308594 18.949219 66.726562 18.753906 67.210938 18.617188 L 67.949219 18.476562 L 68.996094 18.324219 C 69.109375 18.308594 69.21875 18.296875 69.316406 18.277344 C 69.894531 18.203125 70.253906 18.128906 70.410156 18.066406 C 70.699219 17.941406 70.859375 17.773438 70.859375 17.5625 C 70.859375 17.242188 70.570312 17.074219 70.027344 17.074219 C 69.734375 17.074219 69.496094 17.132812 69.316406 17.242188 C 69.125 17.347656 68.980469 17.515625 68.898438 17.746094 L 66.132812 17.746094 C 66.359375 16.445312 67.421875 15.695312 69.316406 15.5 C 69.65625 15.46875 70.039062 15.453125 70.441406 15.453125 Z M 60.855469 11.253906 L 59.941406 16.339844 C 60.132812 16.171875 60.34375 16.019531 60.570312 15.878906 C 60.714844 15.789062 60.859375 15.714844 61 15.636719 C 61.339844 15.511719 61.742188 15.453125 62.207031 15.453125 C 62.902344 15.453125 63.492188 15.679688 63.976562 16.171875 C 64.476562 16.644531 64.71875 17.316406 64.71875 18.171875 C 64.71875 19.363281 64.347656 20.417969 63.609375 21.320312 C 62.871094 22.238281 61.902344 22.695312 60.714844 22.695312 L 60.570312 22.695312 C 59.621094 22.652344 59.007812 22.265625 58.722656 21.519531 L 58.511719 22.484375 L 55.9375 22.484375 L 57.980469 11.253906 Z M 38.214844 15.453125 C 39.179688 15.453125 40 15.667969 40.707031 16.125 C 41.414062 16.566406 41.765625 17.269531 41.765625 18.25 L 41.703125 18.953125 C 41.578125 19.789062 41.253906 20.492188 40.773438 21.078125 C 40.53125 21.351562 40.273438 21.59375 39.984375 21.792969 C 39.726562 21.964844 39.421875 22.117188 39.050781 22.28125 C 38.890625 22.347656 38.730469 22.40625 38.570312 22.453125 C 38.40625 22.5 38.183594 22.558594 37.90625 22.605469 C 37.8125 22.636719 37.699219 22.648438 37.570312 22.664062 C 37.394531 22.679688 37.183594 22.695312 36.957031 22.695312 C 35.933594 22.695312 35.078125 22.453125 34.402344 21.980469 C 33.726562 21.503906 33.386719 20.800781 33.386719 19.886719 L 33.4375 19.472656 L 33.46875 19.121094 C 33.710938 17.882812 34.273438 16.964844 35.160156 16.355469 C 35.867188 15.867188 36.671875 15.574219 37.570312 15.480469 C 37.78125 15.453125 38.003906 15.453125 38.214844 15.453125 Z M 10.226562 9 C 11.640625 9 12.746094 9.304688 13.578125 9.929688 C 14.398438 10.558594 14.800781 11.554688 14.800781 12.890625 L 14.800781 13.113281 L 10.960938 13.113281 L 10.960938 13.042969 C 10.960938 12.332031 10.449219 11.992188 9.453125 11.992188 C 8.667969 11.992188 8.214844 12.230469 8.121094 12.6875 L 8.105469 12.839844 C 8.105469 13.0625 8.203125 13.246094 8.394531 13.417969 C 8.601562 13.582031 8.957031 13.738281 9.453125 13.890625 L 10.753906 14.242188 C 11.878906 14.53125 12.761719 14.9375 13.386719 15.445312 C 14.007812 15.972656 14.316406 16.644531 14.316406 17.476562 L 14.269531 18.234375 C 13.980469 19.792969 13.222656 20.925781 12.007812 21.621094 C 10.800781 22.332031 9.390625 22.683594 7.800781 22.683594 C 6.273438 22.683594 5.074219 22.277344 4.1875 21.46875 C 3.402344 20.773438 3 19.894531 3 18.808594 C 3 18.558594 3.015625 18.40625 3.046875 18.324219 L 6.917969 18.324219 C 6.917969 18.777344 7.09375 19.132812 7.449219 19.367188 C 7.78125 19.589844 8.167969 19.707031 8.601562 19.707031 C 9.597656 19.707031 10.175781 19.402344 10.320312 18.808594 L 10.320312 18.589844 C 10.320312 18.339844 10.175781 18.136719 9.90625 17.945312 C 9.519531 17.78125 8.941406 17.574219 8.152344 17.339844 C 6.882812 17.019531 5.890625 16.613281 5.183594 16.121094 C 4.476562 15.632812 4.125 14.886719 4.125 13.890625 L 4.1875 13.363281 L 4.21875 12.941406 C 4.363281 12.179688 4.6875 11.503906 5.183594 10.929688 C 5.695312 10.355469 6.386719 9.878906 7.269531 9.507812 C 7.71875 9.339844 8.167969 9.203125 8.636719 9.117188 C 8.875 9.085938 9.117188 9.070312 9.390625 9.035156 C 9.644531 9.015625 9.917969 9 10.226562 9 Z M 29.078125 15.453125 C 30.1875 15.453125 31.058594 15.679688 31.699219 16.171875 C 32.214844 16.597656 32.472656 17.164062 32.472656 17.867188 L 32.457031 18.25 L 29.5625 18.25 L 29.578125 18.082031 C 29.578125 17.867188 29.515625 17.667969 29.367188 17.515625 C 29.222656 17.347656 29.015625 17.253906 28.726562 17.253906 C 28.160156 17.253906 27.742188 17.484375 27.5 17.960938 C 27.292969 18.402344 27.132812 18.980469 27.035156 19.730469 C 27.035156 20.476562 27.390625 20.847656 28.082031 20.847656 C 28.660156 20.847656 29.078125 20.511719 29.351562 19.835938 L 32.199219 19.835938 C 31.945312 20.769531 31.398438 21.472656 30.59375 21.945312 C 29.789062 22.417969 28.824219 22.664062 27.714844 22.664062 C 26.554688 22.664062 25.671875 22.40625 25.058594 21.871094 C 24.464844 21.320312 24.160156 20.664062 24.160156 19.851562 L 24.222656 19.484375 L 24.253906 19.164062 C 24.449219 18.125 24.949219 17.242188 25.75 16.523438 C 26.570312 15.804688 27.679688 15.453125 29.078125 15.453125 Z M 80.65625 15.453125 C 81.375 15.453125 81.941406 15.605469 82.359375 15.925781 C 82.777344 16.25 82.988281 16.78125 82.988281 17.53125 C 82.988281 17.792969 82.96875 18.066406 82.90625 18.355469 L 82.136719 22.484375 L 79.289062 22.484375 L 79.960938 18.84375 L 79.980469 18.632812 L 79.980469 18.402344 C 79.980469 17.851562 79.707031 17.589844 79.175781 17.589844 C 78.789062 17.589844 78.5 17.683594 78.308594 17.867188 C 78.097656 18.050781 77.9375 18.417969 77.808594 18.980469 L 77.164062 22.484375 L 74.289062 22.484375 L 75.558594 15.621094 L 78.179688 15.621094 L 77.972656 16.71875 C 78.773438 15.863281 79.671875 15.453125 80.65625 15.453125 Z M 48.394531 15.453125 C 49.535156 15.453125 50.226562 15.867188 50.484375 16.703125 C 51.273438 15.867188 52.191406 15.453125 53.238281 15.453125 C 53.976562 15.453125 54.554688 15.589844 54.921875 15.894531 C 55.308594 16.203125 55.503906 16.703125 55.503906 17.410156 C 55.503906 17.683594 55.484375 18.019531 55.421875 18.386719 L 54.667969 22.484375 L 51.800781 22.484375 L 52.445312 18.980469 C 52.492188 18.707031 52.527344 18.480469 52.527344 18.308594 C 52.527344 18.050781 52.464844 17.867188 52.351562 17.761719 C 52.222656 17.636719 52.027344 17.589844 51.738281 17.589844 C 51.46875 17.589844 51.226562 17.667969 51 17.820312 C 50.773438 17.988281 50.597656 18.375 50.484375 18.980469 L 49.839844 22.484375 L 46.976562 22.484375 L 47.636719 18.921875 L 47.6875 18.324219 C 47.6875 17.835938 47.445312 17.589844 46.945312 17.589844 C 46.640625 17.589844 46.367188 17.699219 46.140625 17.914062 C 45.949219 18.113281 45.789062 18.464844 45.660156 18.980469 L 45.019531 22.484375 L 42.171875 22.484375 L 43.425781 15.621094 L 46.042969 15.621094 L 45.871094 16.644531 C 46.140625 16.324219 46.527344 16.046875 46.996094 15.804688 C 47.476562 15.558594 47.929688 15.453125 48.328125 15.453125 Z M 88.574219 11.261719 L 87.4375 17.441406 L 89.660156 15.359375 L 93 15.359375 L 89.855469 18 L 92.046875 22.480469 L 88.621094 22.480469 L 87.550781 19.777344 L 86.929688 20.304688 L 86.515625 22.484375 L 83.65625 22.484375 L 85.710938 11.261719 Z M 70.507812 19.453125 C 70.28125 19.546875 69.949219 19.640625 69.496094 19.730469 C 69.429688 19.730469 69.367188 19.746094 69.316406 19.746094 C 69.15625 19.777344 69.027344 19.808594 68.914062 19.851562 L 68.496094 20.023438 C 68.304688 20.113281 68.175781 20.296875 68.128906 20.574219 L 68.128906 20.632812 C 68.128906 20.984375 68.386719 21.15625 68.898438 21.15625 C 69.042969 21.15625 69.171875 21.136719 69.316406 21.09375 C 69.382812 21.078125 69.464844 21.046875 69.527344 21.011719 C 69.734375 20.910156 69.894531 20.785156 70.027344 20.632812 C 70.265625 20.339844 70.425781 19.945312 70.507812 19.453125 Z M 20.054688 19.453125 C 19.832031 19.546875 19.496094 19.640625 19.058594 19.730469 C 18.996094 19.730469 18.929688 19.746094 18.871094 19.746094 C 18.707031 19.777344 18.578125 19.808594 18.480469 19.851562 L 18.046875 20.023438 C 17.851562 20.113281 17.742188 20.296875 17.679688 20.574219 L 17.679688 20.632812 C 17.679688 20.984375 17.933594 21.15625 18.449219 21.15625 C 18.59375 21.15625 18.738281 21.136719 18.871094 21.09375 C 18.949219 21.078125 19.015625 21.046875 19.09375 21.011719 C 19.285156 20.910156 19.445312 20.785156 19.578125 20.632812 C 19.816406 20.339844 19.976562 19.945312 20.054688 19.453125 Z M 37.972656 17.253906 C 37.828125 17.253906 37.699219 17.269531 37.570312 17.300781 C 37.214844 17.394531 36.941406 17.605469 36.75 17.960938 C 36.542969 18.433594 36.382812 19.015625 36.285156 19.699219 C 36.285156 20.464844 36.609375 20.847656 37.25 20.847656 C 37.363281 20.847656 37.472656 20.847656 37.570312 20.816406 C 37.957031 20.738281 38.261719 20.511719 38.472656 20.113281 C 38.730469 19.640625 38.875 19.085938 38.875 18.496094 C 38.875 17.667969 38.570312 17.253906 37.972656 17.253906 Z M 60.890625 17.53125 C 60.777344 17.53125 60.664062 17.546875 60.570312 17.5625 C 60.230469 17.621094 59.972656 17.789062 59.8125 18.066406 C 59.605469 18.433594 59.445312 18.921875 59.3125 19.546875 C 59.3125 20.328125 59.636719 20.722656 60.28125 20.722656 C 60.375 20.722656 60.472656 20.707031 60.570312 20.695312 C 60.90625 20.617188 61.179688 20.402344 61.402344 20.066406 C 61.679688 19.640625 61.824219 19.164062 61.824219 18.675781 C 61.824219 17.914062 61.519531 17.53125 60.890625 17.53125 Z M 60.890625 17.53125 "/>
</g>
</svg>
