<svg width="44" height="44" viewBox="0 0 44 44" fill="none" xmlns="http://www.w3.org/2000/svg">
<g id="Category=Crab">
<rect id="Button" x="1" y="1" width="42" height="42" rx="7" fill="white" stroke="#303030" stroke-width="2"/>
<g id="_&#229;&#156;&#150;&#229;&#177;&#164;_1" clip-path="url(#clip0_2640_7669)">
<path id="Vector" d="M14.1436 35.9999C14.0744 35.9999 13.9986 35.9962 13.9198 35.9888C13.6159 35.9601 13.3796 35.6239 13.3833 35.2237C13.3914 34.2762 13.7763 33.4765 14.5616 32.7783C14.6993 32.6555 14.8523 32.5444 14.9878 32.4465C15.0474 32.4031 15.104 32.3619 15.1556 32.3222L15.2358 32.2611L14.9554 31.8698C14.7177 31.538 14.4726 31.1944 14.226 30.8619C14.1752 30.7927 14.0612 30.7214 13.9596 30.7214C13.953 30.7214 13.9471 30.7214 13.9412 30.7221C12.8291 30.8207 11.7384 31.7153 11.458 32.7577C11.4072 32.9475 11.3799 33.1447 11.3542 33.3345C11.3439 33.4081 11.3343 33.4809 11.3225 33.5537C11.2637 33.9333 10.9369 34.2195 10.5623 34.2195C10.5402 34.2195 10.5188 34.2188 10.4968 34.2166C10.2855 34.1975 10.0868 34.0923 9.95138 33.9289C9.82332 33.7737 9.76297 33.5817 9.78137 33.3875C9.96537 31.4909 10.9339 30.174 12.6591 29.4744C12.8328 29.4038 13.0197 29.3493 13.1993 29.2964C13.2854 29.2713 13.3715 29.2456 13.4569 29.2184L13.5408 29.1919L13.2663 27.1783H13.175C13.0852 27.1783 12.9954 27.1754 12.9056 27.1724C12.8144 27.1695 12.7239 27.1666 12.6333 27.1666C12.5097 27.1666 12.4066 27.1717 12.3102 27.1835C10.7426 27.3681 9.90722 28.0096 9.51715 29.3272C9.40528 29.7039 9.12119 29.9379 8.77527 29.9379C8.7002 29.9379 8.62366 29.9261 8.54785 29.9033C8.34104 29.8408 8.1828 29.715 8.08859 29.5391C7.98629 29.3478 7.97083 29.1102 8.04443 28.8697C8.5427 27.2423 9.63859 26.208 11.3019 25.7938C11.703 25.6937 12.1152 25.6525 12.5516 25.6084C12.7511 25.5885 12.9564 25.5672 13.1625 25.5407L13.2449 25.5297L13.3509 24.4526L13.267 24.4291C13.2023 24.4107 13.1382 24.3938 13.0757 24.3761C12.9402 24.3393 12.8122 24.3048 12.6848 24.2636C10.9383 23.7044 9.89986 22.6458 9.51053 21.0273C9.26029 19.9856 9.328 18.8776 9.71807 17.6388C9.79241 17.4033 9.74678 17.2488 9.55542 17.0877C9.03581 16.6485 8.64059 16.0857 8.38004 15.4141C7.83762 14.0155 7.91048 12.4927 8.58539 11.1265C9.26838 9.74491 10.5078 8.70613 11.9871 8.27502C12.269 8.19262 12.5664 8.13524 12.8534 8.08006C12.9866 8.05432 13.1198 8.02857 13.2523 8.00061H14.2599C14.8715 8.36404 14.9502 8.61417 14.6845 9.30865C14.5528 9.65368 14.4196 9.99798 14.2871 10.343C14.1693 10.6483 14.0523 10.9529 13.9353 11.2582C13.9125 11.3185 13.8933 11.3803 13.8705 11.4517C13.8588 11.4892 13.8462 11.5297 13.8315 11.5753L13.7631 11.7872L13.9699 11.704C14.2282 11.6003 14.4807 11.498 14.7302 11.3972C15.3035 11.1648 15.8459 10.9455 16.3972 10.7322C16.5061 10.6903 16.6158 10.6689 16.724 10.6689C17.1221 10.6689 17.4268 10.9477 17.482 11.3634C17.6991 13.0062 17.3753 14.5151 16.5179 15.8466C15.6104 17.2562 14.3784 18.036 12.8556 18.164C12.7562 18.1721 12.6532 18.1765 12.5399 18.1765C12.2992 18.1765 12.06 18.1582 11.8053 18.139C11.6383 18.1265 11.4653 18.1133 11.2909 18.1059L11.2092 18.1022L11.1864 18.1802C10.9361 19.0285 10.8743 19.7943 10.998 20.5226C11.2239 21.8572 12.428 22.9018 13.7388 22.9018H13.8249L13.8551 22.8503C13.9095 22.7584 13.9625 22.6657 14.0148 22.5737C14.1296 22.3736 14.2378 22.1838 14.36 21.9999C15.2277 20.6889 16.4951 19.7686 18.2364 19.1859C18.5352 19.0858 18.5919 18.9188 18.5875 18.6805C18.575 18.0772 18.575 17.4298 18.5853 16.7022C18.5919 16.2513 18.9187 15.9239 19.3632 15.9239C19.3912 15.9239 19.4199 15.9254 19.4493 15.9283C19.8475 15.9658 20.1279 16.2998 20.1316 16.7398C20.1353 17.1701 20.1345 17.599 20.1338 18.0147C20.1338 18.1898 20.1338 18.3619 20.1338 18.5297V18.6341H23.869V18.0073C23.8682 17.599 23.8675 17.1826 23.869 16.767C23.8712 16.2638 24.1832 15.9254 24.6454 15.9254C25.1091 15.9268 25.4204 16.2697 25.4226 16.7773L25.4248 17.1113C25.4278 17.624 25.4307 18.1537 25.4182 18.6739C25.4116 18.9512 25.5117 19.0925 25.7766 19.1778C27.203 19.6376 28.2886 20.3144 29.0945 21.248C29.383 21.5827 29.6318 21.9469 29.8952 22.3317C30.0145 22.5068 30.1389 22.6877 30.2669 22.8672L30.3052 22.9209L30.37 22.9092C31.1045 22.7804 32.0186 22.5171 32.5765 21.621C33.2867 20.4807 33.1078 19.2712 32.809 18.1346L32.7847 18.0426C32.7847 18.0426 32.6206 18.0691 32.589 18.0743C32.5249 18.0846 32.4705 18.0927 32.4167 18.1037C32.0936 18.1677 31.7735 18.2001 31.4651 18.2001C30.5878 18.2001 29.7782 17.9411 29.0584 17.4313C27.1022 16.0438 26.2801 14.0729 26.5457 11.4061C26.5906 10.9536 26.8747 10.6719 27.2869 10.6719C27.4164 10.6719 27.5518 10.6998 27.6909 10.755C28.1377 10.9323 28.5911 11.1155 29.029 11.2928C29.2969 11.4009 29.5648 11.5098 29.8327 11.6172C29.879 11.6356 29.9254 11.6488 29.9799 11.6643C30.0071 11.6724 30.038 11.6805 30.0719 11.6915L30.2765 11.7541L29.3204 9.2623C29.0739 8.61932 29.1931 8.29856 29.7951 8.00355H30.7519C30.7762 8.0087 30.8005 8.01385 30.8248 8.01974C30.8859 8.03372 30.9492 8.04769 31.0139 8.05726C33.3088 8.3942 34.8668 9.60513 35.6463 11.6555C35.764 11.9659 35.8347 12.3051 35.9031 12.6325C35.934 12.7825 35.9664 12.937 36.0032 13.0886V13.9993C35.9988 14.0163 35.9937 14.0339 35.9885 14.0508C35.9738 14.1016 35.9591 14.1538 35.9517 14.2098C35.7868 15.4486 35.2775 16.4124 34.3951 17.1554C34.2486 17.279 34.2133 17.407 34.2744 17.5968C34.5599 18.4848 34.674 19.3132 34.6232 20.1305C34.543 21.4135 34.0955 22.4141 33.2558 23.1895C32.6648 23.7346 31.9214 24.1216 30.983 24.3724C30.8741 24.4019 30.7151 24.5372 30.7181 24.6645C30.7232 24.8749 30.749 25.0861 30.7733 25.2906C30.7821 25.3656 30.7909 25.4407 30.799 25.5164L30.8086 25.6099H31.2347C33.0129 25.6099 34.3259 26.1933 35.2481 27.3939C35.4659 27.6779 35.6279 28.0199 35.7846 28.351C35.8538 28.4981 35.9259 28.6497 36.0025 28.7961V29.4965C35.9789 29.5178 35.9532 29.5428 35.9311 29.5737C35.764 29.8084 35.5528 29.9268 35.3026 29.9268C35.2613 29.9268 35.2187 29.9239 35.176 29.9173C34.844 29.868 34.6254 29.6723 34.5268 29.3346C34.5033 29.2537 34.4709 29.147 34.4319 29.0403C34.0374 27.9677 32.7575 27.1283 31.5166 27.1283C31.2789 27.1283 31.0493 27.1592 30.8351 27.2203L30.7696 27.2387L30.5039 29.2044L30.6783 29.2537C30.7402 29.2713 30.8049 29.2905 30.8704 29.3074C32.7936 29.826 34.122 31.3923 34.2545 33.297C34.2832 33.7045 34.069 34.0246 33.6959 34.132C33.6274 34.1518 33.5568 34.1614 33.4847 34.1614C33.2013 34.1614 32.9378 34.0025 32.8142 33.7568C32.7546 33.6383 32.7148 33.4934 32.7023 33.3485C32.5522 31.5946 31.2311 30.9583 30.1492 30.7331C30.1344 30.7302 30.1182 30.7287 30.1013 30.7287C30.0005 30.7287 29.879 30.7861 29.8246 30.8589C29.5743 31.1951 29.3366 31.5284 29.0849 31.8808L28.9053 32.1324H28.8538L28.8045 32.2707L28.806 32.2722L28.8001 32.281L28.8928 32.3399L28.9488 32.3752C28.9863 32.3987 29.0231 32.4215 29.0592 32.4465C29.9644 33.0733 30.4781 33.834 30.6283 34.7706C30.6732 35.0494 30.6747 35.2944 30.6342 35.4974C30.565 35.8417 30.3199 36.0013 29.8636 36.0013C29.7922 36.0013 29.7149 35.9969 29.6332 35.9888C29.3911 35.9638 29.1202 35.6548 29.1202 35.2789C29.1202 34.6676 28.8428 34.1769 28.2959 33.8193C28.0251 33.642 27.7285 33.503 27.4414 33.3676L27.3362 33.3176C27.2781 33.2896 27.2045 33.2749 27.1301 33.2749C27.0705 33.2749 27.0138 33.2852 26.9675 33.3036C26.0799 33.6611 25.1017 33.901 23.7961 34.0812C23.1874 34.1651 22.5714 34.2078 21.9649 34.2078C20.4635 34.2078 18.9525 33.9473 17.4739 33.4331C17.2767 33.3647 17.0964 33.3316 16.9234 33.3316C16.6754 33.3316 16.4391 33.3992 16.1808 33.5442L16.1278 33.5736C16.0807 33.6001 16.0336 33.6258 15.9872 33.6538C15.2836 34.0761 14.9436 34.6065 14.9171 35.3223C14.8994 35.799 14.6691 36.0021 14.1458 36.0021L14.1436 35.9999ZM21.9723 20.1254C20.3553 20.1254 18.9363 20.4527 17.6344 21.1266C15.999 21.9727 15.0665 23.2321 14.8626 24.8705C14.7361 25.8902 14.7787 26.9723 15.001 28.3804C15.2954 30.2432 16.3361 31.4673 18.0958 32.0198C19.4037 32.4304 20.7285 32.6393 22.0319 32.6393C23.3729 32.6393 24.7279 32.4186 26.0578 31.9838C27.7189 31.4409 28.7073 30.3006 28.9959 28.596C29.0908 28.0347 29.1512 27.4601 29.21 26.9039C29.2365 26.6523 29.2638 26.3926 29.2939 26.1381V26.1329V26.1278C29.3278 23.5801 28.2702 21.9212 25.9636 20.9067C24.998 20.4822 23.9293 20.2284 22.7863 20.1533C22.5111 20.1349 22.2365 20.1261 21.9716 20.1261L21.9723 20.1254ZM12.6944 9.71254C12.6503 9.72063 12.6113 9.72725 12.5752 9.73314C12.5038 9.74491 12.4427 9.75521 12.3809 9.77286C10.4335 10.3335 9.19552 12.4699 9.67833 14.4393C9.99849 15.7436 11.1842 16.6905 12.4979 16.6905C12.7761 16.6905 13.0499 16.6463 13.3119 16.5595C14.7596 16.0806 15.9872 14.2988 15.9401 12.7472L15.9357 12.6038L15.801 12.6523C15.776 12.6611 15.751 12.67 15.726 12.6788C15.6715 12.6979 15.6185 12.7156 15.567 12.7369C15.252 12.8642 14.9362 12.9922 14.6212 13.1202C13.9876 13.3777 13.3333 13.6433 12.6878 13.9015C12.5649 13.9508 12.4457 13.9758 12.3345 13.9758C12.1387 13.9758 11.9621 13.8978 11.8083 13.7441C11.5742 13.5086 11.5183 13.221 11.642 12.8885C11.7001 12.7318 11.7612 12.5765 11.8223 12.4213C11.8613 12.3213 11.901 12.2212 11.9393 12.1204C12.149 11.5753 12.3581 11.0301 12.5737 10.4673L12.8769 9.67796L12.6937 9.71254H12.6944ZM28.0906 12.7156C28.0862 12.7303 28.0832 12.7421 28.0803 12.7516C28.0737 12.773 28.0678 12.7921 28.0663 12.8156C28.0634 12.8532 28.0641 12.887 28.0685 12.9186C28.2643 14.3782 28.8936 15.4545 29.9939 16.2093C30.4553 16.5257 30.9632 16.6861 31.5034 16.6861C32.6294 16.6861 33.7518 15.9577 34.1721 14.9535C34.9007 13.2129 34.1287 11.0463 32.4499 10.1238C32.2232 9.99945 31.9788 9.90382 31.7433 9.81112C31.6351 9.76845 31.5269 9.72652 31.4202 9.6809L31.34 9.64706L31.209 9.84864L31.5556 10.7469C31.8221 11.4377 32.0878 12.1278 32.3549 12.8186C32.5036 13.2033 32.4565 13.5079 32.2099 13.75C32.0568 13.9 31.8868 13.9736 31.6903 13.9736C31.5645 13.9736 31.4261 13.9427 31.2782 13.8816C30.7784 13.6756 30.2691 13.4697 29.776 13.2703L29.394 13.1158C29.1269 13.0077 28.8597 12.9002 28.5911 12.7921L28.1222 12.6038L28.0913 12.7163L28.0906 12.7156Z" fill="#6AB336"/>
</g>
</g>
<defs>
<clipPath id="clip0_2640_7669">
<rect width="28" height="28" fill="white" transform="translate(8 8)"/>
</clipPath>
</defs>
</svg>
