<svg width="82" height="64" viewBox="0 0 82 64" fill="none" xmlns="http://www.w3.org/2000/svg">
<g clip-path="url(#clip0_3780_6285)">
<path fill-rule="evenodd" clip-rule="evenodd" d="M13.1816 53.9453C10.8974 53.945 9.71833 52.7599 9.71704 50.4731C9.71478 45.8451 9.71575 41.2171 9.71672 36.5891C9.71704 34.1982 10.6509 33.1692 13.0309 32.9332C16.1986 32.6189 18.2714 30.6466 18.6958 27.5427C19.111 24.5036 16.6035 21.3553 13.5356 21.0619C13.1077 21.0214 12.6769 20.9919 12.2539 20.9209C10.8106 20.6792 9.74608 19.5638 9.73672 18.1091C9.70478 13.0265 9.69736 7.94356 9.74059 2.86126C9.75511 1.1738 11.1074 0.0199271 12.9167 0.0109375C16.197 -0.00575733 19.4769 0.00162694 22.7572 0.00162694C41.3358 0.00291116 59.9141 0.00419538 78.493 0.00676382C80.3571 0.00708487 81.5152 0.786606 81.8998 2.32671C81.9892 2.68372 81.994 3.06802 81.9943 3.4398C81.9999 8.12143 81.9999 12.8031 81.9979 17.4844C81.9969 19.7279 81.025 20.8079 78.7234 21.0092C76.3866 21.2137 74.6499 22.2976 73.6009 24.3768C71.7246 28.0968 74.2934 32.5788 78.4614 32.9088C80.4778 33.0684 81.4977 33.7535 81.8869 35.2544C81.9795 35.6105 81.9933 35.9941 81.994 36.3656C82.0008 41.1005 82.0017 45.8354 81.9969 50.5707C81.9946 52.7378 80.7817 53.944 78.5966 53.945C67.6805 53.9485 56.7648 53.9466 45.8487 53.9466C34.9595 53.9466 24.0705 53.9482 13.1816 53.9453Z" fill="#595959"/>
<path fill-rule="evenodd" clip-rule="evenodd" d="M58.4193 4.31769C43.921 4.33952 29.4228 4.34195 14.9245 4.32843C14.2509 4.32774 14.0277 4.51108 14.0356 5.20391C14.0682 8.00467 14.0637 10.8058 14.0264 13.6065C14.0183 14.2418 14.2412 14.4893 14.8319 14.6882C20.1971 16.4946 23.722 21.3711 23.7382 26.947C23.7549 32.5433 20.2093 37.4586 14.7972 39.265C14.1705 39.4743 14.0245 39.7766 14.0301 40.3758C14.0554 43.1475 14.062 45.9198 14.0264 48.6914C14.0179 49.3954 14.2055 49.6394 14.9418 49.6316C18.4365 49.595 21.9311 49.6116 25.4258 49.612C36.4294 49.6127 47.433 49.6078 58.4363 49.6307C58.929 49.6318 61.3931 49.6038 65.8285 49.5465C66.067 49.5752 66.207 49.6068 66.3471 49.6071C70.2463 49.6085 74.1451 49.5964 78.044 49.6165C78.6614 49.6199 78.7474 49.3371 78.7453 48.8242C78.7335 45.9943 78.7245 43.1644 78.7632 40.3349C78.7713 39.6941 78.5363 39.4549 77.9508 39.2584C72.5907 37.4562 69.0638 32.5731 69.0503 26.9958C69.0368 21.438 72.5665 16.5113 77.9133 14.7028C78.5404 14.4903 78.772 14.2356 78.7632 13.5656C78.7262 10.7943 78.7262 8.02165 78.7623 5.25035C78.7717 4.53846 78.5692 4.30971 77.8412 4.3163C74.1157 4.34957 70.3901 4.33051 66.6643 4.33432C66.3914 4.33467 66.119 4.37314 65.7841 4.39844C61.3508 4.34391 58.8959 4.31699 58.4193 4.31769Z" fill="#303030"/>
<path fill-rule="evenodd" clip-rule="evenodd" d="M13.0468 9.71214C31.6254 9.71342 50.2036 9.71471 68.7825 9.71727C70.6466 9.7176 71.8047 10.4971 72.1893 12.0372C72.2787 12.3942 72.2835 12.7785 72.2839 13.1503C72.2895 17.8319 72.2895 22.5136 72.2874 27.1949C72.2865 29.4384 71.3146 30.5184 69.0129 30.7197C66.6761 30.9242 64.9395 32.0081 63.8905 34.0873C62.0141 37.8073 64.5829 42.2893 68.7509 42.6193C70.7673 42.7789 71.7873 43.464 72.1764 44.9649C72.269 45.321 72.2829 45.7047 72.2835 46.0761C72.2903 50.811 72.2913 55.5459 72.2865 60.2812C72.2842 62.4483 71.0713 63.6545 68.8861 63.6555C57.9701 63.659 47.0543 63.6571 36.1383 63.6571C25.249 63.6571 14.3601 63.6587 3.47114 63.6558C1.18693 63.6555 0.00788084 62.4705 0.00659014 60.1836C0.00433143 55.5556 0.00529945 50.9276 0.00626747 46.2996C0.00659014 43.9087 0.940408 42.8797 3.32045 42.6437C6.48814 42.3294 8.56099 40.3572 8.98531 37.2532C9.40059 34.2141 6.89309 31.0658 3.82511 30.7724C3.39724 30.7319 2.96648 30.7024 2.54345 30.6314C1.10013 30.3897 0.0356308 29.2743 0.0262732 27.8196C-0.00567146 22.737 -0.0130929 17.6541 0.0301453 12.5718C0.0446656 10.8843 1.39699 9.73044 3.20622 9.72145C6.48652 9.70475 9.7665 9.71214 13.0468 9.71214ZM68.1306 14.0268C64.4051 14.0601 60.6795 14.041 56.9536 14.0448C56.6808 14.0452 56.4083 14.0836 56.0735 14.1089C51.9089 14.0577 49.4901 14.0309 48.8172 14.0284L48.7087 14.0282C34.2104 14.05 19.7121 14.0525 5.21383 14.0389C4.54028 14.0382 4.31703 14.2216 4.325 14.9144C4.35759 17.7152 4.35308 20.5163 4.31576 23.317C4.30767 23.9523 4.53057 24.1998 5.12127 24.3987C10.4865 26.2051 14.0113 31.0816 14.0276 36.6575C14.0443 42.2538 10.4986 47.1691 5.08661 48.9755C4.45985 49.1848 4.31391 49.4871 4.31945 50.0863C4.34476 52.858 4.35135 55.6303 4.31576 58.4019C4.30732 59.1059 4.49486 59.3499 5.23117 59.3421C8.72583 59.3055 12.2205 59.3221 15.7152 59.3225C26.7188 59.3232 37.7224 59.3183 48.7257 59.3412L48.9089 59.3408C49.6827 59.337 52.0857 59.3091 56.1178 59.257C56.3563 59.2857 56.4964 59.3173 56.6364 59.3176C60.5356 59.319 64.4345 59.3069 68.3334 59.327C68.9508 59.3305 69.0368 59.0476 69.0347 58.5347C69.0229 55.7048 69.0139 52.8749 69.0526 50.0454C69.0607 49.4046 68.8256 49.1654 68.2401 48.9689C62.8801 47.1667 59.3532 42.2836 59.3397 36.7064C59.3262 31.1485 62.8558 26.2218 68.2027 24.4133C68.8298 24.2008 69.0614 23.9461 69.0526 23.2761C69.0156 20.5048 69.0156 17.7322 69.0517 14.9609C69.061 14.249 68.8586 14.0202 68.1306 14.0268Z" fill="#595959"/>
<path fill-rule="evenodd" clip-rule="evenodd" d="M48.7086 14.0282C34.2104 14.05 19.7121 14.0525 5.21377 14.0389C4.54021 14.0382 4.31696 14.2216 4.32494 14.9144C4.35752 17.7152 4.35302 20.5163 4.3157 23.317C4.3076 23.9523 4.5305 24.1998 5.12121 24.3987C10.4864 26.2051 14.0113 31.0816 14.0276 36.6575C14.0442 42.2538 10.4986 47.1691 5.08654 48.9755C4.45979 49.1848 4.31384 49.4871 4.31939 50.0863C4.3447 52.858 4.35128 55.6303 4.3157 58.402C4.30726 59.1059 4.4948 59.3499 5.2311 59.3421C8.72576 59.3055 12.2204 59.3221 15.7151 59.3225C26.7187 59.3232 37.7223 59.3183 48.7256 59.3412C49.2183 59.3424 51.6824 59.3143 56.1178 59.257C56.3563 59.2857 56.4963 59.3173 56.6364 59.3176C60.5356 59.319 64.4345 59.3069 68.3333 59.327C68.9507 59.3305 69.0367 59.0476 69.0346 58.5347C69.0228 55.7048 69.0138 52.8749 69.0525 50.0454C69.0606 49.4046 68.8256 49.1654 68.2401 48.9689C62.88 47.1667 59.3531 42.2836 59.3396 36.7064C59.3261 31.1485 62.8558 26.2218 68.2026 24.4133C68.8297 24.2008 69.0613 23.9461 69.0525 23.2762C69.0155 20.5048 69.0155 17.7322 69.0516 14.9609C69.061 14.249 68.8585 14.0202 68.1305 14.0268C64.405 14.0601 60.6794 14.041 56.9536 14.0448C56.6807 14.0452 56.4083 14.0837 56.0734 14.109C51.6401 14.0544 49.1852 14.0275 48.7086 14.0282Z" fill="#131313"/>
<path d="M44.2365 38.8421C47.3602 38.8421 49.9012 41.3832 49.9012 44.5069C49.9012 47.63 47.3602 50.1711 44.2365 50.1711C41.1134 50.1711 38.5723 47.63 38.5723 44.5069C38.5723 41.3832 41.1134 38.8421 44.2365 38.8421ZM42.9076 26.3127C43.6059 25.6139 44.7385 25.6139 45.4373 26.3127C46.1356 27.011 46.1356 28.1437 45.4373 28.842L28.5725 45.7071C28.2229 46.0567 27.7654 46.2313 27.3075 46.2313C26.85 46.2313 26.392 46.0567 26.0428 45.7071C25.3441 45.0088 25.3441 43.8761 26.0428 43.1773L42.9076 26.3127ZM44.2365 43.0906C43.4556 43.0906 42.8202 43.726 42.8202 44.5069C42.8202 45.2878 43.4556 45.9232 44.2365 45.9232C45.0174 45.9232 45.6528 45.2878 45.6528 44.5069C45.6528 43.726 45.0174 43.0906 44.2365 43.0906ZM28.1871 22.7928C31.3108 22.7928 33.8519 25.3339 33.8519 28.457C33.8519 31.5807 31.3108 34.1217 28.1871 34.1217C25.064 34.1217 22.5229 31.5807 22.5229 28.457C22.5229 25.3339 25.064 22.7928 28.1871 22.7928ZM28.1871 27.0412C27.4062 27.0412 26.7714 27.6761 26.7714 28.457C26.7714 29.2379 27.4062 29.8733 28.1871 29.8733C28.9681 29.8733 29.6035 29.2379 29.6035 28.457C29.6035 27.6761 28.9681 27.0412 28.1871 27.0412Z" fill="#595959"/>
</g>
<defs>
<clipPath id="clip0_3780_6285">
<rect width="82" height="64" fill="white"/>
</clipPath>
</defs>
</svg>
