<?xml version="1.0" encoding="UTF-8"?>
<svg xmlns="http://www.w3.org/2000/svg" xmlns:xlink="http://www.w3.org/1999/xlink" width="24pt" height="24pt" viewBox="0 0 24 24" version="1.1">
<g id="surface1">
<path style=" stroke:none;fill-rule:nonzero;fill:rgb(100%,100%,100%);fill-opacity:1;" d="M 12 24 C 18.628906 24 24 18.628906 24 12 C 24 5.371094 18.628906 0 12 0 C 5.371094 0 0 5.371094 0 12 C 0 18.628906 5.371094 24 12 24 Z M 12 24 "/>
<path style=" stroke:none;fill-rule:evenodd;fill:rgb(31.37207%,68.626404%,58.430481%);fill-opacity:1;" d="M 6.34375 5.078125 L 3.015625 12.121094 C 3.003906 12.148438 3 12.179688 3.003906 12.207031 C 3.007812 12.234375 3.023438 12.261719 3.042969 12.28125 L 12.03125 20.960938 C 12.058594 20.984375 12.089844 21 12.125 21 C 12.160156 21 12.195312 20.984375 12.222656 20.960938 L 21.207031 12.28125 C 21.230469 12.261719 21.242188 12.238281 21.25 12.207031 C 21.253906 12.179688 21.25 12.148438 21.238281 12.125 L 17.910156 5.078125 C 17.898438 5.054688 17.882812 5.035156 17.859375 5.019531 C 17.839844 5.007812 17.8125 5 17.789062 5 L 6.464844 5 C 6.441406 5 6.414062 5.007812 6.394531 5.019531 C 6.371094 5.035156 6.355469 5.054688 6.34375 5.078125 Z M 6.34375 5.078125 "/>
<path style=" stroke:none;fill-rule:evenodd;fill:rgb(100%,100%,100%);fill-opacity:1;" d="M 13.28125 12.847656 C 13.214844 12.851562 12.882812 12.871094 12.136719 12.871094 C 11.546875 12.871094 11.125 12.851562 10.980469 12.847656 C 8.695312 12.746094 6.988281 12.34375 6.988281 11.863281 C 6.988281 11.382812 8.695312 10.984375 10.980469 10.878906 L 10.980469 12.445312 C 11.128906 12.457031 11.558594 12.484375 12.148438 12.484375 C 12.859375 12.484375 13.214844 12.453125 13.277344 12.449219 L 13.277344 10.882812 C 15.558594 10.984375 17.261719 11.386719 17.261719 11.863281 C 17.261719 12.34375 15.558594 12.742188 13.277344 12.847656 Z M 13.28125 10.71875 L 13.28125 9.316406 L 16.460938 9.316406 L 16.460938 7.179688 L 7.796875 7.179688 L 7.796875 9.316406 L 10.980469 9.316406 L 10.980469 10.71875 C 8.390625 10.839844 6.445312 11.355469 6.445312 11.972656 C 6.445312 12.59375 8.390625 13.109375 10.980469 13.230469 L 10.980469 17.722656 L 13.277344 17.722656 L 13.277344 13.226562 C 15.859375 13.109375 17.800781 12.589844 17.800781 11.972656 C 17.800781 11.355469 15.863281 10.839844 13.277344 10.71875 Z M 13.28125 10.71875 "/>
</g>
</svg>
