<svg width="129" height="128" viewBox="0 0 129 128" fill="none" xmlns="http://www.w3.org/2000/svg">
<g clip-path="url(#clip0_2619_584)">
<path d="M24.5 73.2792C24.9167 72.3604 25.6417 71.8625 26.6021 71.6125C27.5042 71.3708 28.3854 71.0521 29.275 70.7688C30.6708 70.325 31.8042 70.7958 32.2188 71.9854C32.6333 73.175 32.0104 74.2771 30.6396 74.7396C29.7063 75.0604 28.7646 75.3646 27.825 75.6563C26.0792 76.2188 25.3875 75.9521 24.4917 74.3792L24.5 73.2792Z" fill="#595959"/>
<path d="M104.5 74.3708C103.613 75.9458 102.921 76.2125 101.177 75.65C100.187 75.3312 99.1938 75.025 98.2125 74.6854C97 74.2687 96.4083 73.175 96.7542 72.0541C97.1 70.9333 98.25 70.3166 99.5 70.6875C100.669 71.0354 101.867 71.3458 102.965 71.8562C103.567 72.1354 103.994 72.7937 104.498 73.2791L104.5 74.3708Z" fill="#595959"/>
<path d="M66.5833 99.4833C66.5833 100.156 66.6312 100.835 66.5833 101.504C66.5187 102.01 66.2707 102.475 65.8863 102.81C65.502 103.145 65.0079 103.328 64.4979 103.323C63.9879 103.319 63.4973 103.127 63.1191 102.785C62.7409 102.443 62.5013 101.974 62.4458 101.467C62.3833 100.094 62.3833 98.7146 62.4458 97.3437C62.4643 96.8171 62.6901 96.3191 63.0741 95.9581C63.458 95.5972 63.9691 95.4026 64.4958 95.4166C65.0332 95.4004 65.555 95.5982 65.9464 95.9666C66.3379 96.3351 66.567 96.8439 66.5833 97.3812C66.6354 98.0791 66.5937 98.7812 66.5937 99.4812L66.5833 99.4833Z" fill="#595959"/>
<path d="M41.4229 27.2396C41.7292 27.4479 42.3771 27.7083 42.7833 28.1812C43.577 29.1427 44.3163 30.1477 44.9979 31.1916C45.7125 32.2333 45.4958 33.4646 44.5312 34.1541C43.5667 34.8437 42.3687 34.65 41.6146 33.6771C40.8229 32.6479 40.0646 31.5937 39.3229 30.5229C39.0922 30.2034 38.9624 29.8221 38.9501 29.4282C38.9379 29.0343 39.0438 28.6457 39.2542 28.3125C39.6583 27.625 40.2875 27.3021 41.4229 27.2396Z" fill="#595959"/>
<path d="M83.4688 32.3708C83.6274 31.9387 83.8218 31.5206 84.05 31.1208C84.7063 30.1542 85.4021 29.2125 86.1021 28.2792C86.9354 27.1792 88.1729 26.9542 89.1708 27.6958C90.125 28.4062 90.2833 29.6583 89.5188 30.7417C88.8 31.7604 88.075 32.7771 87.3042 33.7562C87.0378 34.118 86.6576 34.3797 86.2247 34.4995C85.7917 34.6192 85.3311 34.5901 84.9167 34.4167C84.5104 34.242 84.1602 33.9585 83.9047 33.5976C83.6493 33.2366 83.4984 32.8121 83.4688 32.3708Z" fill="#595959"/>
<path d="M99.8645 51.8625C99.8645 53.4042 99.2395 54.6729 98.1499 55.7375C94.0833 59.6903 90.0194 63.6424 85.9583 67.5938C85.7126 67.8002 85.5292 68.0708 85.4284 68.3754C85.3276 68.68 85.3134 69.0066 85.3874 69.3188C86.3833 74.9688 87.352 80.6236 88.2937 86.2833C88.6458 88.3667 87.9374 90.0979 86.2666 91.3563C84.5958 92.6146 82.7249 92.8146 80.8249 91.8813C78.5437 90.75 76.3041 89.5375 74.0479 88.3563C71.1708 86.8479 68.2874 85.3479 65.4229 83.8167C65.1483 83.6481 64.8325 83.5589 64.5104 83.5589C64.1882 83.5589 63.8724 83.6481 63.5979 83.8167C58.5687 86.4792 53.5291 89.1236 48.4791 91.75C45.3895 93.3563 41.7749 91.9125 40.8874 88.6625C40.6601 87.7062 40.6332 86.7131 40.8083 85.7458C41.6979 80.2625 42.6479 74.7875 43.6249 69.3188C43.7645 68.5396 43.5333 68.0438 42.9999 67.5354C38.9833 63.6542 34.9916 59.7354 30.9583 55.8542C29.2916 54.2542 28.6833 52.3688 29.402 50.1896C30.1208 48.0104 31.7458 46.8896 34.0312 46.5709C39.5937 45.7979 45.1458 44.9479 50.7083 44.1604C51.4479 44.0563 51.8499 43.7042 52.1666 43.0625C54.6583 37.982 57.1631 32.9077 59.6812 27.8396C60.9833 25.2271 63.7395 24.1 66.3749 25.0813C67.7624 25.6 68.7062 26.5834 69.3541 27.9C71.8416 32.9542 74.3541 37.9959 76.8312 43.0563C76.9582 43.3643 77.1686 43.6308 77.4387 43.8259C77.7088 44.0209 78.028 44.1368 78.3604 44.1604C83.9999 44.9521 89.6333 45.7896 95.2708 46.6084C97.9583 47 99.8708 49.1792 99.8645 51.8625ZM64.4999 28.6188C64.0083 29.175 63.5979 29.4854 63.3916 29.8979C60.8722 34.9368 58.3722 39.9854 55.8916 45.0438C54.9854 46.8938 53.5645 47.9979 51.527 48.2959C48.5937 48.7271 45.6583 49.1417 42.7229 49.5688C39.9437 49.9709 37.1604 50.3584 34.3895 50.8188C34.0291 50.8771 33.5437 51.2354 33.4479 51.5542C33.352 51.8729 33.5979 52.3667 33.8083 52.7125C34.0187 53.0584 34.3479 53.2688 34.6291 53.5459C38.4499 57.2653 42.2729 60.9834 46.0979 64.7C47.5437 66.1042 48.152 67.7667 47.802 69.7834C46.8312 75.3854 45.8895 80.9917 44.9187 86.5938C44.8249 87.1396 44.7749 87.6354 45.2645 88.0063C45.7999 88.4125 46.2895 88.1563 46.7874 87.8938C51.7104 85.3083 56.6499 82.7521 61.5562 80.1313C63.5437 79.0688 65.4291 79.0625 67.4166 80.1208C72.3708 82.7625 77.3541 85.3459 82.3228 87.9604C82.7874 88.2042 83.2395 88.3646 83.7062 88.0125C84.1729 87.6604 84.1749 87.2167 84.0833 86.6833C83.1229 81.1854 82.2083 75.6792 81.2229 70.1854C80.8062 67.9104 81.4312 66.0834 83.0979 64.4854C87.1208 60.6375 91.0854 56.7271 95.0812 52.8521C95.4833 52.4625 95.8437 52.0063 95.5416 51.5C95.3333 51.1625 94.8354 51.0042 94.4604 50.7729C94.3885 50.7422 94.3114 50.7253 94.2333 50.7229C88.6972 49.9229 83.1624 49.1257 77.6291 48.3313C75.5979 48.0438 74.0874 47.0646 73.1812 45.2063C72.6937 44.2042 72.1916 43.2063 71.6958 42.2063C69.6708 38.1104 67.6541 34.0104 65.6041 29.925C65.402 29.4959 64.9937 29.1813 64.4999 28.6188Z" fill="#595959"/>
<path d="M64.5 28.6188C64.9875 29.1813 65.3958 29.4959 65.6021 29.9084C67.6521 33.9938 69.6687 38.0938 71.6937 42.2C72.1896 43.2 72.6917 44.1979 73.1792 45.2C74.0854 47.075 75.5958 48.0438 77.6271 48.325C83.1632 49.1111 88.6979 49.9084 94.2312 50.7167C94.3094 50.719 94.3864 50.736 94.4583 50.7667C94.8333 50.9979 95.3396 51.1563 95.5396 51.4938C95.8417 52 95.4812 52.4563 95.0792 52.8459C91.0833 56.7209 87.1187 60.6313 83.0958 64.4792C81.4292 66.0771 80.8167 67.9042 81.2208 70.1792C82.2083 75.6729 83.1208 81.1792 84.0812 86.6771C84.1729 87.2104 84.1604 87.6646 83.7042 88.0063C83.2479 88.3479 82.7854 88.1979 82.3208 87.9542C77.3625 85.3354 72.3792 82.75 67.4167 80.1104C65.4292 79.0521 63.5437 79.0584 61.5562 80.1209C56.6583 82.75 51.7187 85.2979 46.7917 87.8834C46.2937 88.1459 45.8042 88.4021 45.2687 87.9959C44.7792 87.6209 44.8292 87.1292 44.9229 86.5834C45.8937 80.9813 46.8354 75.375 47.8062 69.7729C48.1562 67.7563 47.5479 66.0938 46.1021 64.6896C42.2757 60.9743 38.4562 57.2563 34.6437 53.5354C34.3625 53.2625 34.0187 53.0292 33.8229 52.7021C33.6271 52.375 33.3646 51.8688 33.4625 51.5438C33.5604 51.2188 34.0437 50.8667 34.4042 50.8084C37.175 50.3542 39.9583 49.975 42.7375 49.5584C45.6729 49.1417 48.6083 48.725 51.5417 48.2854C53.5792 47.9875 55 46.8834 55.9062 45.0334C58.384 39.975 60.884 34.9264 63.4062 29.8875C63.6042 29.4854 64.0146 29.175 64.5 28.6188Z" fill="#303030"/>
</g>
<defs>
<clipPath id="clip0_2619_584">
<rect width="80" height="80" fill="white" transform="translate(24.5 24)"/>
</clipPath>
</defs>
</svg>
