<?xml version="1.0" encoding="UTF-8"?>
<svg xmlns="http://www.w3.org/2000/svg" xmlns:xlink="http://www.w3.org/1999/xlink" width="24pt" height="24pt" viewBox="0 0 24 24" version="1.1">
<defs>
<clipPath id="clip1">
  <path d="M 4 6 L 21 6 L 21 19 L 4 19 Z M 4 6 "/>
</clipPath>
<clipPath id="clip2">
  <path d="M 4 16.726562 L 14.527344 16.726562 C 14.777344 16.144531 15.234375 15.855469 15.90625 15.855469 C 16.574219 15.855469 17.035156 16.144531 17.28125 16.726562 L 20.667969 16.726562 L 20.667969 17.882812 L 17.28125 17.882812 C 17.035156 18.464844 16.574219 18.753906 15.90625 18.753906 C 15.234375 18.753906 14.777344 18.464844 14.527344 17.882812 L 4 17.882812 Z M 4 11.796875 L 7.386719 11.796875 C 7.632812 11.21875 8.09375 10.925781 8.761719 10.925781 C 9.429688 10.925781 9.890625 11.21875 10.136719 11.796875 L 20.667969 11.796875 L 20.667969 12.957031 L 10.136719 12.957031 C 9.890625 13.535156 9.429688 13.824219 8.761719 13.824219 C 8.09375 13.824219 7.632812 13.535156 7.386719 12.957031 L 4 12.957031 Z M 4 6.871094 L 14.527344 6.871094 C 14.777344 6.289062 15.234375 6 15.90625 6 C 16.574219 6 17.035156 6.289062 17.28125 6.871094 L 20.667969 6.871094 L 20.667969 8.027344 L 17.28125 8.027344 C 17.035156 8.609375 16.574219 8.898438 15.90625 8.898438 C 15.234375 8.898438 14.777344 8.609375 14.527344 8.027344 L 4 8.027344 Z M 4 6.871094 "/>
</clipPath>
</defs>
<g id="surface1">
<g clip-path="url(#clip1)" clip-rule="nonzero">
<g clip-path="url(#clip2)" clip-rule="evenodd">
<path style=" stroke:none;fill-rule:nonzero;fill:rgb(100%,100%,100%);fill-opacity:1;" d="M -1 1 L 25.667969 1 L 25.667969 23.753906 L -1 23.753906 Z M -1 1 "/>
</g>
</g>
</g>
</svg>
