<svg width="32" height="32" viewBox="0 0 32 32" fill="none" xmlns="http://www.w3.org/2000/svg">
<path d="M16 32C24.8366 32 32 24.8366 32 16C32 7.16344 24.8366 0 16 0C7.16344 0 0 7.16344 0 16C0 24.8366 7.16344 32 16 32Z" fill="white"/>
<path d="M15.9694 4.04053C9.37689 4.04053 4 9.41754 4 16.0101C4 22.6027 9.37689 27.9798 15.9694 27.9798C22.562 27.9798 27.9393 22.6027 27.9393 16.0101C27.9393 9.41754 22.562 4.04053 15.9694 4.04053Z" fill="url(#paint0_radial_142_1972)"/>
<path d="M22.5843 20.143C21.2158 20.143 20.0998 21.259 20.0998 22.6274C20.0998 23.9954 21.2158 25.1114 22.5843 25.1114C23.9525 25.1114 25.0685 23.9954 25.0685 22.6274C25.0685 21.259 23.9525 20.143 22.5843 20.143ZM26.8653 20.9572C26.2323 19.1632 24.519 17.8717 22.5137 17.8717C19.9724 17.8717 17.8996 19.9442 17.8996 22.4855C17.8996 24.5077 19.2125 26.233 21.0296 26.8531C23.6038 25.6448 25.6834 23.5461 26.8653 20.9572ZM27.5614 13.0249C26.0858 12.2773 24.4196 11.8554 22.6575 11.8554C16.6528 11.8554 11.7554 16.7526 11.7554 22.7577C11.7554 24.4849 12.1613 26.1199 12.8816 27.5737C13.8677 27.8378 14.9025 27.9798 15.9698 27.9798C15.9994 27.9798 16.0293 27.9787 16.0593 27.9785C14.921 26.5436 14.2396 24.7314 14.2396 22.7647C14.2396 18.1318 18.0181 14.3536 22.6506 14.3536C24.6505 14.3536 26.4902 15.0578 27.9364 16.2306C27.9377 16.1572 27.9393 16.0839 27.9393 16.0101C27.9393 14.9801 27.8078 13.9796 27.5614 13.0249ZM22.349 5.89056C23.358 6.5296 24.2659 7.31512 25.0421 8.21698C24.3773 8.1252 23.6994 8.07692 23.0104 8.07692C14.8391 8.07692 8.17594 14.7404 8.17594 22.9114C8.17594 23.7024 8.23922 24.479 8.35926 25.237C7.44159 24.4782 6.63864 23.585 5.97949 22.589C6.14863 13.5748 13.3777 6.23593 22.349 5.89056Z" fill="white"/>
<path d="M4.97464 11.2875C5.74389 12.8315 7.33969 13.897 9.17662 13.897C11.7604 13.897 13.868 11.7895 13.868 9.20576C13.868 7.37138 12.8061 5.77737 11.266 5.00665C10.2175 5.45722 9.24566 6.05328 8.37615 6.76935C8.58663 6.71219 8.80758 6.68162 9.03591 6.68162C10.4269 6.68162 11.5617 7.81643 11.5617 9.20803C11.5617 10.5993 10.4269 11.7341 9.03591 11.7341C7.64443 11.7341 6.50962 10.5993 6.50962 9.20803C6.50962 8.99661 6.53609 8.79107 6.58539 8.59461C5.93715 9.41272 5.3933 10.3175 4.97464 11.2875ZM15.9698 4.04053C16.954 4.04053 17.9105 4.16097 18.8265 4.38691C19.5149 5.81438 19.9011 7.41318 19.9011 9.09918C19.9011 15.1039 15.0041 20.001 8.99922 20.001C7.34609 20.001 5.7773 19.6289 4.37086 18.9657C4.12892 18.0197 4 17.0296 4 16.0101C4 15.9628 4.00122 15.9159 4.00191 15.8687C5.39938 16.9034 7.12636 17.5168 8.99228 17.5168C13.6247 17.5168 17.4029 13.7387 17.4029 9.10627C17.4029 7.20828 16.7683 5.45401 15.7013 4.04389C15.7905 4.04187 15.88 4.04053 15.9698 4.04053Z" fill="white"/>
<defs>
<radialGradient id="paint0_radial_142_1972" cx="0" cy="0" r="1" gradientUnits="userSpaceOnUse" gradientTransform="translate(15.9696 16.0102) scale(16.9275 16.9275)">
<stop stop-color="#FFF000"/>
<stop offset="1" stop-color="#EF8300"/>
</radialGradient>
</defs>
</svg>
