<?xml version="1.0" encoding="UTF-8"?>
<svg xmlns="http://www.w3.org/2000/svg" xmlns:xlink="http://www.w3.org/1999/xlink" width="80pt" height="81pt" viewBox="0 0 80 81" version="1.1">
<g id="surface1">
<path style=" stroke:none;fill-rule:evenodd;fill:rgb(34.901428%,34.901428%,34.901428%);fill-opacity:1;" d="M 70.753906 39.097656 L 70.753906 42.546875 L 73.53125 42.546875 C 72.578125 41.367188 71.714844 40.292969 70.753906 39.097656 Z M 9.21875 39.046875 C 8.210938 40.296875 7.347656 41.371094 6.402344 42.546875 L 9.21875 42.546875 Z M 66.5625 35.378906 L 13.367188 35.378906 L 13.367188 42.613281 L 14.316406 42.613281 C 18.867188 42.613281 23.417969 42.621094 27.96875 42.605469 C 28.835938 42.601562 29.582031 42.832031 30.277344 43.367188 C 31.65625 44.425781 33.074219 45.441406 34.476562 46.472656 C 36.296875 47.808594 38.117188 49.144531 39.953125 50.496094 C 40.238281 50.292969 40.492188 50.117188 40.742188 49.9375 C 43.695312 47.765625 46.65625 45.609375 49.59375 43.414062 C 50.339844 42.855469 51.117188 42.597656 52.042969 42.601562 C 56.566406 42.621094 61.089844 42.613281 65.613281 42.613281 L 66.5625 42.613281 Z M 75.820312 46.742188 C 75.53125 46.726562 75.28125 46.699219 75.027344 46.699219 C 67.585938 46.699219 60.144531 46.691406 52.703125 46.71875 C 52.277344 46.71875 51.78125 46.890625 51.433594 47.144531 C 48.171875 49.507812 44.933594 51.910156 41.6875 54.300781 C 40.28125 55.332031 39.652344 55.335938 38.257812 54.308594 C 35.03125 51.9375 31.816406 49.546875 28.570312 47.203125 C 28.164062 46.914062 27.585938 46.722656 27.085938 46.71875 C 19.75 46.691406 12.410156 46.699219 5.074219 46.699219 L 4.113281 46.699219 L 4.113281 75.945312 L 75.820312 75.945312 Z M 0 44.113281 C 1.820312 41.816406 3.632812 39.511719 5.457031 37.21875 C 6.703125 35.652344 7.980469 34.109375 9.210938 32.53125 C 9.921875 31.621094 10.777344 31.214844 11.957031 31.214844 C 30.632812 31.238281 49.3125 31.238281 67.988281 31.214844 C 69.171875 31.214844 70.011719 31.644531 70.726562 32.542969 C 73.617188 36.160156 76.542969 39.746094 79.417969 43.375 C 79.714844 43.75 79.90625 44.320312 79.90625 44.804688 C 79.933594 55.859375 79.933594 66.914062 79.921875 77.96875 C 79.921875 79.15625 79.132812 79.972656 77.957031 80.078125 C 77.671875 80.101562 77.382812 80.097656 77.097656 80.097656 C 52.332031 80.097656 27.570312 80.089844 2.804688 80.117188 C 1.53125 80.117188 0.585938 79.769531 0 78.613281 Z M 0 44.113281 "/>
<path style=" stroke:none;fill-rule:evenodd;fill:rgb(18.823242%,18.823242%,18.823242%);fill-opacity:1;" d="M 75.820312 46.742188 L 75.820312 75.945312 L 4.113281 75.945312 L 4.113281 46.699219 L 5.074219 46.699219 C 12.410156 46.699219 19.75 46.6875 27.085938 46.71875 C 27.585938 46.722656 28.164062 46.910156 28.570312 47.203125 C 31.816406 49.546875 35.03125 51.9375 38.257812 54.308594 C 39.652344 55.335938 40.28125 55.332031 41.6875 54.300781 C 44.933594 51.910156 48.171875 49.507812 51.433594 47.144531 C 51.78125 46.890625 52.277344 46.71875 52.703125 46.71875 C 60.144531 46.691406 67.585938 46.699219 75.027344 46.699219 C 75.28125 46.699219 75.53125 46.726562 75.820312 46.742188 Z M 75.820312 46.742188 "/>
<path style=" stroke:none;fill-rule:nonzero;fill:rgb(34.901428%,34.901428%,34.901428%);fill-opacity:1;" d="M 41 0 L 40 0 C 38.894531 0 38 0.894531 38 2 L 38 12 C 38 13.105469 38.894531 14 40 14 L 41 14 C 42.105469 14 43 13.105469 43 12 L 43 2 C 43 0.894531 42.105469 0 41 0 Z M 41 0 "/>
<path style=" stroke:none;fill-rule:nonzero;fill:rgb(34.901428%,34.901428%,34.901428%);fill-opacity:1;" d="M 19.902344 3.695312 L 19.195312 4.402344 C 18.414062 5.183594 18.414062 6.453125 19.195312 7.230469 L 26.269531 14.304688 C 27.046875 15.085938 28.316406 15.085938 29.097656 14.304688 L 29.804688 13.597656 C 30.585938 12.816406 30.585938 11.546875 29.804688 10.769531 L 22.730469 3.695312 C 21.953125 2.914062 20.683594 2.914062 19.902344 3.695312 Z M 19.902344 3.695312 "/>
<path style=" stroke:none;fill-rule:nonzero;fill:rgb(34.901428%,34.901428%,34.901428%);fill-opacity:1;" d="M 61.804688 4.402344 L 61.097656 3.695312 C 60.316406 2.914062 59.046875 2.914062 58.269531 3.695312 L 51.195312 10.769531 C 50.414062 11.546875 50.414062 12.816406 51.195312 13.597656 L 51.902344 14.304688 C 52.683594 15.085938 53.953125 15.085938 54.730469 14.304688 L 61.804688 7.230469 C 62.585938 6.453125 62.585938 5.183594 61.804688 4.402344 Z M 61.804688 4.402344 "/>
</g>
</svg>
