<?xml version="1.0" encoding="UTF-8"?>
<svg xmlns="http://www.w3.org/2000/svg" xmlns:xlink="http://www.w3.org/1999/xlink" width="32pt" height="32pt" viewBox="0 0 32 32" version="1.1">
<g id="surface1">
<path style=" stroke:none;fill-rule:nonzero;fill:rgb(100%,100%,100%);fill-opacity:1;" d="M 16 32 C 24.835938 32 32 24.835938 32 16 C 32 7.164062 24.835938 0 16 0 C 7.164062 0 0 7.164062 0 16 C 0 24.835938 7.164062 32 16 32 Z M 16 32 "/>
<path style=" stroke:none;fill-rule:evenodd;fill:rgb(31.37207%,68.626404%,58.430481%);fill-opacity:1;" d="M 8.457031 6.769531 L 4.019531 16.164062 C 4.003906 16.199219 4 16.238281 4.003906 16.277344 C 4.011719 16.316406 4.03125 16.351562 4.058594 16.375 L 16.042969 27.949219 C 16.074219 27.980469 16.121094 28 16.167969 28 C 16.214844 28 16.261719 27.980469 16.296875 27.949219 L 28.277344 16.378906 C 28.304688 16.351562 28.324219 16.316406 28.332031 16.277344 C 28.339844 16.238281 28.332031 16.199219 28.316406 16.164062 L 23.878906 6.773438 C 23.867188 6.742188 23.84375 6.714844 23.8125 6.695312 C 23.785156 6.675781 23.75 6.667969 23.714844 6.667969 L 8.621094 6.667969 C 8.585938 6.667969 8.554688 6.675781 8.523438 6.695312 C 8.496094 6.714844 8.472656 6.738281 8.457031 6.769531 Z M 8.457031 6.769531 "/>
<path style=" stroke:none;fill-rule:evenodd;fill:rgb(100%,100%,100%);fill-opacity:1;" d="M 17.707031 17.128906 C 17.621094 17.136719 17.175781 17.160156 16.183594 17.160156 C 15.394531 17.160156 14.835938 17.136719 14.640625 17.128906 C 11.59375 16.992188 9.316406 16.457031 9.316406 15.820312 C 9.316406 15.179688 11.59375 14.644531 14.640625 14.507812 L 14.640625 16.597656 C 14.839844 16.609375 15.410156 16.644531 16.199219 16.644531 C 17.144531 16.644531 17.617188 16.605469 17.703125 16.597656 L 17.703125 14.507812 C 20.746094 14.644531 23.015625 15.179688 23.015625 15.820312 C 23.015625 16.457031 20.746094 16.992188 17.703125 17.128906 Z M 17.707031 14.292969 L 17.707031 12.421875 L 21.949219 12.421875 L 21.949219 9.574219 L 10.394531 9.574219 L 10.394531 12.421875 L 14.636719 12.421875 L 14.636719 14.292969 C 11.191406 14.453125 8.597656 15.140625 8.597656 15.964844 C 8.597656 16.789062 11.191406 17.476562 14.636719 17.636719 L 14.636719 23.628906 L 17.707031 23.628906 L 17.707031 17.636719 C 21.148438 17.476562 23.734375 16.789062 23.734375 15.964844 C 23.734375 15.140625 21.148438 14.453125 17.707031 14.292969 Z M 17.707031 14.292969 "/>
</g>
</svg>
