<svg width="32" height="32" viewBox="0 0 32 32" fill="none" xmlns="http://www.w3.org/2000/svg">
<path d="M16 32C24.8366 32 32 24.8366 32 16C32 7.16344 24.8366 0 16 0C7.16344 0 0 7.16344 0 16C0 24.8366 7.16344 32 16 32Z" fill="white"/>
<path d="M6.12984 25.8H6V6H7.10361C7.16713 6.00811 7.23042 6.01983 7.29421 6.02382C8.22753 6.08261 9.16326 6.11617 10.0937 6.20511C11.0287 6.2945 11.9351 6.52304 12.7899 6.92972C13.5786 7.30495 14.2695 7.8228 14.9281 8.38736C15.2557 8.6682 15.5743 8.95948 15.9056 9.25372C15.2237 9.86989 14.6124 10.5118 14.4874 11.4605C14.163 11.1575 13.8625 10.8537 13.538 10.5781C12.4941 9.69153 11.3401 9.00794 9.98402 8.7152C9.64697 8.64246 9.30628 8.59675 8.95461 8.63285V22.3776C9.00882 22.3659 9.05209 22.3623 9.09104 22.3473C9.67598 22.1227 10.2736 21.9255 10.8418 21.6645C11.7837 21.2319 12.634 20.6594 13.2946 19.8423C13.6528 19.3992 13.9333 18.915 14.006 18.3369C14.0331 18.1207 14.0434 17.8973 13.8767 17.7235C13.158 16.9738 12.4206 16.2483 11.3794 15.9011C11.92 15.7428 12.3666 15.4525 12.8038 15.1419C13.7357 14.4798 14.4773 13.666 14.9173 12.593C15.0789 12.1991 15.2634 11.8096 15.4822 11.4449C16.0869 10.4368 16.8114 9.51297 17.5528 8.60308C18.5116 7.42644 19.7346 6.68979 21.2226 6.37919C22.3235 6.14938 23.4371 6.06404 24.5573 6.02964C24.6904 6.02555 24.8231 6.01016 24.9561 6H25.8V25.8H25.2157C25.1751 25.7904 25.1348 25.7744 25.0937 25.7722C24.1125 25.7185 23.1505 25.5462 22.2026 25.2945C20.0021 24.7102 17.9504 23.783 16.0134 22.5942C15.9738 22.5699 15.9377 22.54 15.8864 22.503C16.6877 21.8519 17.257 21.0346 17.7644 20.1388C17.8092 20.1927 17.8381 20.2318 17.8713 20.2668C18.5275 20.9595 19.2329 21.5969 20.0103 22.1517C20.7005 22.6442 21.4264 23.0685 22.2589 23.2763C22.5676 23.3535 22.8806 23.3987 23.1988 23.3549V8.74123C23.0845 8.74123 22.9828 8.73779 22.8813 8.74178C21.8326 8.78304 20.8722 9.07974 20.0901 9.80082C19.6066 10.2467 19.144 10.7214 18.7195 11.2234C18.302 11.7171 18.0061 12.2929 17.8491 12.929C17.7436 13.3561 17.7755 13.7557 18.094 14.0955C18.138 14.1425 18.1692 14.2014 18.2098 14.2519C18.8062 14.9926 19.3868 15.7525 20.3651 16.047C19.8961 16.3103 19.5165 16.6731 19.1812 17.0773C18.7603 17.5845 18.3574 18.1072 17.9591 18.6327C16.9887 19.9127 15.9186 21.1004 14.6775 22.1229C13.3197 23.2414 11.8048 24.1027 10.1809 24.7727C9.12327 25.2091 8.03781 25.5543 6.90058 25.7147C6.64473 25.7508 6.38681 25.772 6.12984 25.8Z" fill="#A72134"/>
</svg>
