<svg width="44" height="44" viewBox="0 0 44 44" fill="none" xmlns="http://www.w3.org/2000/svg">
<g id="Category=Shrimp">
<rect id="Button" x="1" y="1" width="42" height="42" rx="7" fill="white" stroke="#303030" stroke-width="2"/>
<g id="_&#229;&#156;&#150;&#229;&#177;&#164;_1" clip-path="url(#clip0_2640_7684)">
<path id="Vector" d="M8 20.2506C8.0913 19.7144 8.15995 19.173 8.27828 18.6427C9.13575 14.7904 12.4663 11.595 16.36 11.0208C19.7519 10.5203 23.0766 10.882 26.2925 12.1203C28.5932 13.0064 30.7551 14.13 32.6366 15.7482C33.0412 16.0959 33.153 16.1076 33.5963 15.8044C34.0893 15.4677 34.3457 14.995 34.3501 14.3952C34.3691 11.8521 32.2517 9.67216 29.7092 9.64806C27.5407 9.6276 25.3722 9.64367 23.2037 9.64075C23.0773 9.64075 22.9466 9.63856 22.8253 9.60641C22.4309 9.50195 22.1789 9.13594 22.2169 8.74582C22.2564 8.34328 22.5858 8.02841 22.9992 8.00431C23.1175 7.997 23.2358 8.00211 23.3541 8.00211C25.4131 8.00211 27.4728 7.99773 29.5317 8.00285C32.6278 8.01088 35.1922 10.074 35.851 13.0999C36.0701 14.1074 36.0993 15.1097 35.553 16.0448C35.0249 16.947 34.2405 17.4869 33.2143 17.6805C33.1208 17.698 33.0135 17.7295 32.9477 17.7916C31.6031 19.0664 30.1043 20.1213 28.4559 20.9651C28.4413 20.9724 28.4325 20.9899 28.4069 21.0184C28.6604 21.5386 29.0723 21.8279 29.653 21.9002C29.8465 21.9243 30.0539 21.9638 30.2205 22.0573C30.5243 22.2282 30.6492 22.6081 30.5564 22.9369C30.4549 23.297 30.1511 23.5418 29.7706 23.5366C28.5574 23.5198 27.6517 22.9661 27.0316 21.9323C26.9849 21.8549 26.9462 21.7731 26.8987 21.684C26.1632 21.9228 25.4321 22.1603 24.6352 22.4196C24.8595 22.7228 25.0318 23.0545 25.2918 23.2868C25.7228 23.6718 26.2041 24.0027 26.6781 24.3373C26.9885 24.5565 27.1441 24.8641 27.0747 25.2264C27.0119 25.5544 26.7285 25.8437 26.375 25.8569C26.1698 25.8642 25.939 25.7999 25.7564 25.6998C24.5242 25.0226 23.5579 24.0904 23.0357 22.7462C22.2995 22.82 21.5698 22.893 20.8044 22.9697C20.8431 23.0954 20.8723 23.2254 20.9212 23.3474C21.3156 24.3242 21.9795 25.0336 22.9758 25.4134C23.4922 25.6107 23.7215 26.0578 23.5448 26.5107C23.3658 26.9681 22.9093 27.1507 22.3878 26.9418C20.6408 26.2412 19.5875 24.9459 19.1566 23.1268C19.1486 23.0917 19.142 23.0567 19.1252 22.98C18.9755 23.007 18.8258 23.0231 18.6819 23.0611C17.6126 23.343 16.7814 24.2599 16.6521 25.3601C16.5141 26.5356 16.9268 27.5116 17.9595 28.099C19.1354 28.7682 20.3705 29.3329 21.5756 29.9414C21.8649 29.6141 22.1285 29.2898 22.4185 28.991C23.3753 28.0033 24.5629 27.6205 25.9141 27.7045C26.7015 27.7534 27.4596 27.939 28.19 28.2385C28.7896 28.4847 28.9657 28.8799 28.7349 29.4804C28.4281 30.2782 28.003 31.0051 27.4436 31.6531C27.391 31.7138 27.3398 31.7759 27.334 31.7832C27.7452 32.4531 28.1433 33.0909 28.5282 33.7352C28.6253 33.8974 28.6889 34.0822 28.7553 34.2605C28.9518 34.7879 28.794 35.2299 28.2674 35.4126C27.6429 35.6288 26.9936 35.7727 26.3553 35.9481C26.2874 35.967 26.218 35.9839 26.15 36.0021H25.0567C24.6542 35.8955 24.2379 35.8253 23.8515 35.6763C22.8801 35.3008 22.1972 34.571 21.61 33.741C21.5282 33.6249 21.4581 33.5431 21.2864 33.5548C19.478 33.6731 17.72 33.413 16.0452 32.7234C11.79 30.9679 9.18103 27.8221 8.22131 23.3175C8.11686 22.8302 8.07231 22.3305 8 21.8366C8 21.3077 8 20.7795 8 20.2506ZM31.5257 16.9565C31.3752 16.8294 31.3073 16.7688 31.2364 16.7125C29.5858 15.3931 27.7357 14.4325 25.7673 13.6873C24.3255 13.1408 22.8436 12.7449 21.3098 12.5622C21.1308 12.5411 20.9577 12.4797 20.8036 12.6908C19.0303 15.1331 19.0339 18.7259 20.8328 21.1346C20.8935 21.2164 21.0388 21.2822 21.1403 21.2778C21.5399 21.258 21.9394 21.2208 22.336 21.1645C24.7638 20.8182 27.0316 20.0161 29.1001 18.6967C29.9247 18.1714 30.693 17.5578 31.5249 16.9573L31.5257 16.9565ZM18.9638 12.514C18.9382 12.5016 18.9229 12.4885 18.9083 12.4885C18.6081 12.487 18.3072 12.4819 18.007 12.4885C15.9867 12.5345 14.198 13.2022 12.654 14.507C12.5576 14.5888 12.4692 14.7444 12.47 14.8657C12.4729 15.3464 12.4634 15.8359 12.5466 16.3071C13.0141 18.9371 14.4734 20.8109 16.907 21.9185C16.9793 21.9513 17.0962 21.9681 17.1576 21.9323C17.7221 21.6043 18.332 21.418 18.9872 21.3362C17.4446 18.3833 17.4431 15.4479 18.9638 12.5133V12.514ZM10.8492 16.6C10.7112 16.8652 10.5585 17.1238 10.438 17.3963C9.14889 20.3054 9.49437 23.1436 10.8215 25.9351C10.858 26.0118 10.961 26.0739 11.0464 26.1067C12.0865 26.4998 13.1645 26.6181 14.2674 26.5246C14.5172 26.5034 14.7641 26.4516 15.0285 26.4114C14.8868 25.2381 15.1212 24.1788 15.7735 23.2196C13.082 21.7789 11.4686 19.5792 10.8492 16.6ZM26.9162 29.5265C26.7095 29.4797 26.5437 29.4337 26.3757 29.4045C25.351 29.2262 24.3862 29.319 23.6178 30.1124C23.322 30.4177 23.0759 30.7713 22.8136 31.1081C22.7662 31.1688 22.7326 31.2535 22.7253 31.3309C22.653 32.0593 22.7136 32.749 23.3183 33.2713C23.3454 33.2947 23.3658 33.3261 23.3899 33.3539C24.2386 34.3386 25.3802 34.6111 26.898 34.1385C26.5883 33.538 26.199 33.0112 25.6512 32.6123C24.9946 32.1346 24.9975 31.553 25.6585 31.0731C26.2012 30.6786 26.5824 30.154 26.9162 29.5257V29.5265ZM12.3772 28.1925C13.632 30.2775 18.5803 32.4151 21.052 31.9044C21.1381 31.6495 21.0658 31.5004 20.8066 31.3748C19.7008 30.8407 18.6088 30.2804 17.5089 29.7339C16.758 29.3614 16.1372 28.8419 15.6888 28.1304C15.6062 27.9996 15.5281 27.9843 15.3805 28.0033C14.8043 28.0792 14.2258 28.1479 13.6459 28.1859C13.2157 28.2144 12.7818 28.1917 12.3765 28.1917L12.3772 28.1925Z" fill="#6AB336"/>
<path id="Vector_2" d="M24.6739 16.7957C24.679 17.2383 24.3146 17.6152 23.8712 17.6247C23.4191 17.6342 23.0335 17.2551 23.0357 16.8016C23.0378 16.359 23.4089 15.9879 23.8515 15.9865C24.2941 15.985 24.6681 16.3531 24.6732 16.7957H24.6739Z" fill="#6AB336"/>
</g>
</g>
<defs>
<clipPath id="clip0_2640_7684">
<rect width="28" height="28" fill="white" transform="translate(8 8)"/>
</clipPath>
</defs>
</svg>
