<?xml version="1.0" encoding="UTF-8"?>
<svg xmlns="http://www.w3.org/2000/svg" xmlns:xlink="http://www.w3.org/1999/xlink" width="32pt" height="32pt" viewBox="0 0 32 32" version="1.1">
<defs>
<clipPath id="clip1">
  <path d="M 16 32 C 24.835938 32 32 24.835938 32 16 C 32 7.164062 24.835938 0 16 0 C 7.164062 0 0 7.164062 0 16 C 0 24.835938 7.164062 32 16 32 Z M 16 32 "/>
</clipPath>
<clipPath id="clip2">
  <path d="M 2 2 L 30 2 L 30 30 L 2 30 Z M 2 2 "/>
</clipPath>
<clipPath id="clip3">
  <path d="M 2.175781 15.808594 C 2.175781 8.203125 8.339844 2.039062 15.945312 2.039062 C 23.550781 2.039062 29.714844 8.203125 29.714844 15.808594 C 29.714844 23.410156 23.550781 29.574219 15.945312 29.574219 C 8.339844 29.574219 2.175781 23.410156 2.175781 15.808594 "/>
</clipPath>
<clipPath id="clip4">
  <path d="M 8 8 L 24 8 L 24 24 L 8 24 Z M 8 8 "/>
</clipPath>
<clipPath id="clip5">
  <path d="M 17.914062 8.5625 C 17.984375 8.917969 18.378906 9.097656 18.636719 9.285156 C 19.882812 9.558594 21.214844 9.757812 22.542969 9.671875 C 22.753906 9.746094 23.019531 9.804688 23.121094 10.054688 C 23.070312 10.890625 22.953125 11.742188 22.15625 12.226562 C 21.640625 12.476562 20.507812 11.855469 20.519531 12.753906 C 20.921875 13.765625 22.152344 13.1875 22.878906 13.621094 C 23.207031 13.839844 22.847656 14.273438 23.023438 14.585938 C 23.03125 14.824219 22.90625 15.046875 22.734375 15.164062 C 22.542969 15.246094 22.3125 15.246094 22.109375 15.308594 C 21.847656 15.65625 21.125 15.65625 21.339844 16.226562 C 21.375 16.5 21.679688 16.746094 21.914062 16.851562 C 22.25 16.972656 22.695312 16.808594 22.976562 16.949219 C 23.058594 17.609375 23.0625 18.355469 22.785156 18.925781 C 22.382812 19.199219 22.117188 19.714844 21.53125 19.648438 C 21.300781 19.789062 20.992188 19.941406 20.902344 20.226562 C 20.902344 20.742188 21.511719 20.601562 21.773438 20.902344 C 22.152344 20.953125 22.464844 20.691406 22.832031 20.855469 C 23.386719 21.378906 23 22.234375 22.976562 22.878906 L 22.542969 23.410156 C 22.152344 23.566406 21.742188 23.671875 21.339844 23.792969 L 21.339844 23.890625 L 20.757812 23.890625 C 20.777344 23.617188 20.46875 23.730469 20.324219 23.648438 C 19.972656 23.820312 19.683594 23.554688 19.363281 23.503906 C 17.6875 23.746094 16.550781 22.683594 14.878906 22.925781 C 14.269531 22.46875 13.371094 22.589844 12.613281 22.636719 C 11.867188 23.167969 10.949219 23.289062 10.058594 23.457031 C 9.558594 23.542969 9.4375 22.921875 9.09375 22.734375 C 9.070312 22.226562 8.4375 21.910156 8.707031 21.335938 C 9.117188 20.855469 9.074219 20.183594 9.480469 19.695312 C 9.457031 19.167969 9.574219 18.578125 9.191406 18.203125 C 9.300781 17.492188 9.34375 16.757812 9.527344 16.082031 C 9.753906 15.835938 10.019531 15.335938 10.445312 15.597656 C 10.921875 16.355469 12.386719 15.445312 12.417969 16.5625 C 12.433594 17.4375 12.328125 18.382812 11.503906 18.78125 C 11.070312 19.496094 9.953125 18.527344 9.816406 19.550781 C 9.675781 20 10.207031 20.21875 10.445312 20.46875 C 10.929688 20.292969 11.460938 20.222656 11.839844 19.792969 C 12.402344 19.769531 12.597656 19.171875 13.144531 19.117188 C 13.566406 19.292969 14.082031 19.34375 14.347656 19.792969 C 14.597656 19.851562 14.652344 20.074219 14.878906 20.179688 C 15.484375 20.664062 16.257812 19.871094 16.757812 20.613281 C 17.046875 20.683594 17.433594 20.683594 17.722656 20.613281 C 17.972656 20.464844 18.183594 20.210938 18.109375 19.890625 C 18.152344 19.703125 18.054688 19.570312 17.914062 19.457031 C 17.722656 19.324219 17.53125 19.488281 17.335938 19.503906 C 16.582031 19.5625 16.03125 19.113281 15.3125 19.070312 C 14.808594 18.742188 14.199219 18.429688 14.105469 17.769531 C 13.867188 17.570312 13.988281 17.222656 13.816406 16.996094 C 13.773438 16.707031 14.054688 16.515625 14.253906 16.371094 C 14.847656 16.199219 15.292969 16.699219 15.792969 16.46875 C 16.117188 16.234375 16.632812 16.378906 16.804688 15.886719 C 16.988281 15.613281 16.886719 15.21875 16.710938 14.972656 C 16.550781 14.875 16.386719 14.875 16.226562 14.972656 C 15.882812 15.34375 15.296875 15.277344 14.832031 15.214844 C 14.585938 15.101562 14.285156 15.015625 14.15625 14.730469 C 14.226562 14.285156 14.15625 13.777344 14.589844 13.476562 C 14.632812 13.148438 14.339844 12.925781 14.105469 12.753906 C 13.488281 12.980469 13.101562 11.683594 12.613281 12.5625 C 12.574219 13.1875 12.890625 13.71875 12.710938 14.347656 C 12.144531 14.691406 11.519531 14.3125 10.925781 14.296875 C 10.308594 14.007812 9.570312 13.59375 9.285156 12.902344 C 9.417969 12.382812 9.035156 11.902344 9.238281 11.359375 C 8.949219 10.691406 9.542969 10.261719 9.574219 9.671875 C 9.902344 9.382812 10.253906 9.019531 10.734375 9.234375 C 11.015625 9.5 11.417969 9.472656 11.648438 9.863281 C 12.128906 9.960938 12.582031 10.273438 13.09375 10.152344 C 13.5 9.992188 13.640625 9.488281 14.105469 9.476562 C 14.816406 9.476562 15.761719 9.765625 16.226562 9.042969 C 16.472656 8.933594 16.800781 8.816406 16.902344 8.5625 L 17.914062 8.5625 "/>
</clipPath>
</defs>
<g id="surface1">
<g clip-path="url(#clip1)" clip-rule="evenodd">
<rect x="0" y="0" width="32" height="32" style="fill:rgb(100%,100%,100%);fill-opacity:1;stroke:none;"/>
</g>
<g clip-path="url(#clip2)" clip-rule="nonzero">
<g clip-path="url(#clip3)" clip-rule="nonzero">
<rect x="0" y="0" width="32" height="32" style="fill:rgb(69.412231%,19.607544%,19.607544%);fill-opacity:1;stroke:none;"/>
</g>
</g>
<g clip-path="url(#clip4)" clip-rule="nonzero">
<g clip-path="url(#clip5)" clip-rule="nonzero">
<path style=" stroke:none;fill-rule:nonzero;fill:rgb(100%,100%,100%);fill-opacity:1;" d="M 3.640625 3.5625 L 28.128906 3.5625 L 28.128906 28.890625 L 3.640625 28.890625 Z M 3.640625 3.5625 "/>
</g>
</g>
</g>
</svg>
