<svg width="48" height="48" viewBox="0 0 48 48" fill="none" xmlns="http://www.w3.org/2000/svg">
<path fill-rule="evenodd" clip-rule="evenodd" d="M30.1508 5.54773L42.4523 17.8492C45.8492 21.2462 45.8492 26.7538 42.4523 30.1508L30.1508 42.4523C26.7538 45.8492 21.2462 45.8492 17.8492 42.4523L5.54773 30.1508C2.15076 26.7538 2.15076 21.2462 5.54773 17.8492L17.8492 5.54773C21.2462 2.15076 26.7538 2.15076 30.1508 5.54773ZM24.0016 8.75445C23.5549 8.7532 23.137 8.92822 22.824 9.2483L11.8837 20.4177C11.5717 20.7365 11.4 21.1613 11.4 21.6149C11.4 22.0679 11.5719 22.4928 11.8837 22.8116L12.8773 23.8254C13.1891 24.1445 13.6054 24.3195 14.0494 24.3195C14.4932 24.3195 14.8876 24.1445 15.1996 23.8254L21.6316 17.2361V38.0115C21.6316 38.945 22.4197 39.7295 23.3336 39.7295H24.7389C25.6528 39.7295 26.3688 38.9702 26.3688 38.0367V17.3096L32.7651 23.8254C33.0774 24.1445 33.5004 24.3195 33.9444 24.3195C34.3884 24.3195 34.8085 24.1445 35.1215 23.8254L36.1151 22.8116C36.4273 22.4928 36.6 22.0679 36.6 21.6149C36.6 21.1616 36.4286 20.7365 36.1163 20.4177L25.177 9.2483C24.8634 8.92822 24.4458 8.7532 24.0016 8.75445Z" fill="white"/>
</svg>
