<?xml version="1.0" encoding="UTF-8"?>
<svg xmlns="http://www.w3.org/2000/svg" xmlns:xlink="http://www.w3.org/1999/xlink" width="24pt" height="24pt" viewBox="0 0 24 24" version="1.1">
<g id="surface1">
<path style=" stroke:none;fill-rule:nonzero;fill:rgb(100%,100%,100%);fill-opacity:1;" d="M 12 24 C 18.628906 24 24 18.628906 24 12 C 24 5.371094 18.628906 0 12 0 C 5.371094 0 0 5.371094 0 12 C 0 18.628906 5.371094 24 12 24 Z M 12 24 "/>
<path style=" stroke:none;fill-rule:nonzero;fill:rgb(20.391846%,20.391846%,20.391846%);fill-opacity:1;" d="M 11.710938 15.167969 L 11.828125 15.285156 L 17.121094 12.15625 L 11.828125 3.375 L 11.710938 3.765625 Z M 11.710938 15.167969 "/>
<path style=" stroke:none;fill-rule:nonzero;fill:rgb(54.901123%,54.901123%,54.901123%);fill-opacity:1;" d="M 11.828125 15.285156 L 11.828125 3.375 L 6.535156 12.15625 Z M 11.828125 15.285156 "/>
<path style=" stroke:none;fill-rule:nonzero;fill:rgb(23.529053%,23.529053%,23.136902%);fill-opacity:1;" d="M 11.761719 20.425781 L 11.828125 20.617188 L 17.121094 13.160156 L 11.828125 16.285156 L 11.761719 16.363281 Z M 11.761719 20.425781 "/>
<path style=" stroke:none;fill-rule:nonzero;fill:rgb(54.901123%,54.901123%,54.901123%);fill-opacity:1;" d="M 6.535156 13.160156 L 11.828125 20.617188 L 11.828125 16.285156 Z M 6.535156 13.160156 "/>
<path style=" stroke:none;fill-rule:nonzero;fill:rgb(7.843018%,7.843018%,7.843018%);fill-opacity:1;" d="M 11.828125 9.75 L 11.828125 15.285156 L 17.121094 12.15625 Z M 11.828125 9.75 "/>
<path style=" stroke:none;fill-rule:nonzero;fill:rgb(22.3526%,22.3526%,22.3526%);fill-opacity:1;" d="M 11.828125 9.75 L 6.535156 12.15625 L 11.828125 15.285156 Z M 11.828125 9.75 "/>
</g>
</svg>
