<svg width="64" height="16" viewBox="0 0 64 16" fill="none" xmlns="http://www.w3.org/2000/svg">
<path fill-rule="evenodd" clip-rule="evenodd" d="M56.0599 -4.57764e-05C60.4449 -4.57764e-05 63.9999 3.58195 63.9999 7.99995C63.9999 12.418 60.4449 16 56.0599 16H49.9399C45.5549 16 41.9999 12.418 41.9999 7.99995C41.9999 3.58195 45.5549 -4.57764e-05 49.9399 -4.57764e-05H56.0599ZM5.5 5.42236e-05V7.03105L12.891 0.714054C12.891 0.714054 13.649 5.42236e-05 15.069 5.42236e-05H21.322L13.493 6.54005L21.5 16.0001H15.816C14.332 16.0001 13.666 15.1001 13.666 15.1001L9.354 9.99805L5.5 13.3751V16.0001H0V5.42236e-05H5.5ZM41.9999 5.42236e-05V5.00005H34.9999V16.0001H28.9999V5.00005H21.9999V5.42236e-05H41.9999ZM55.9309 4.99995H50.0679C48.6519 4.99995 47.4999 6.34595 47.4999 7.99995C47.4999 9.65395 48.6519 11 50.0679 11H55.9309C57.3479 11 58.4999 9.65395 58.4999 7.99995C58.4999 6.34595 57.3479 4.99995 55.9309 4.99995Z" fill="#F20000"/>
<rect y="3" width="64" height="10" fill="#FCED5D" fill-opacity="0.7"/>
<path d="M12.156 9.81995H11.386V5.47295H10V4.82195H13.535V5.47295H12.156V9.81995Z" fill="black"/>
<path d="M15.5497 5.97695C15.8624 5.97695 16.1331 6.04695 16.3617 6.18695C16.5904 6.32229 16.7654 6.51829 16.8867 6.77495C17.0127 7.03162 17.0757 7.33495 17.0757 7.68495V8.09095H14.7027C14.7121 8.47829 14.8054 8.77462 14.9827 8.97995C15.1601 9.18529 15.4097 9.28795 15.7317 9.28795C15.9604 9.28795 16.1634 9.26695 16.3407 9.22495C16.5227 9.17829 16.7071 9.11062 16.8937 9.02195V9.63795C16.7164 9.72195 16.5344 9.78495 16.3477 9.82695C16.1657 9.86895 15.9441 9.88995 15.6827 9.88995C15.3421 9.88995 15.0387 9.81762 14.7727 9.67295C14.5067 9.52829 14.2991 9.31362 14.1497 9.02895C14.0004 8.73962 13.9257 8.38495 13.9257 7.96495C13.9257 7.54029 13.9934 7.18095 14.1287 6.88695C14.2641 6.59295 14.4531 6.36895 14.6957 6.21495C14.9431 6.05629 15.2277 5.97695 15.5497 5.97695ZM15.5497 6.55095C15.3117 6.55095 15.1204 6.63729 14.9757 6.80995C14.8311 6.98262 14.7471 7.22762 14.7237 7.54495H16.3267C16.3267 7.34895 16.2987 7.17629 16.2427 7.02695C16.1867 6.87762 16.1004 6.76095 15.9837 6.67695C15.8717 6.59295 15.7271 6.55095 15.5497 6.55095Z" fill="black"/>
<path d="M20.7435 8.75595C20.7435 9.00329 20.6875 9.21095 20.5755 9.37895C20.4635 9.54695 20.3002 9.67529 20.0855 9.76395C19.8709 9.84795 19.6072 9.88995 19.2945 9.88995C19.0472 9.88995 18.8302 9.86895 18.6435 9.82695C18.4615 9.78962 18.2935 9.73362 18.1395 9.65895V9.00795C18.3029 9.08729 18.4895 9.15962 18.6995 9.22495C18.9095 9.28562 19.1102 9.31595 19.3015 9.31595C19.5489 9.31595 19.7285 9.27162 19.8405 9.18295C19.9525 9.09429 20.0085 8.97529 20.0085 8.82595C20.0085 8.74195 19.9852 8.66729 19.9385 8.60195C19.8965 8.53195 19.8149 8.46195 19.6935 8.39195C19.5722 8.31729 19.3972 8.23329 19.1685 8.13995C18.9445 8.04195 18.7555 7.94629 18.6015 7.85295C18.4522 7.75495 18.3355 7.64062 18.2515 7.50995C18.1722 7.37462 18.1325 7.20195 18.1325 6.99195C18.1325 6.66529 18.2585 6.41562 18.5105 6.24295C18.7625 6.06562 19.0915 5.97695 19.4975 5.97695C19.7215 5.97695 19.9292 6.00029 20.1205 6.04695C20.3119 6.08895 20.4985 6.15429 20.6805 6.24295L20.4495 6.80995C20.3422 6.75862 20.2325 6.71662 20.1205 6.68395C20.0132 6.64662 19.9059 6.61629 19.7985 6.59295C19.6912 6.56962 19.5839 6.55795 19.4765 6.55795C19.2759 6.55795 19.1242 6.59295 19.0215 6.66295C18.9189 6.73295 18.8675 6.83095 18.8675 6.95695C18.8675 7.05029 18.8909 7.12962 18.9375 7.19495C18.9889 7.26029 19.0752 7.32562 19.1965 7.39095C19.3225 7.45629 19.4952 7.53329 19.7145 7.62195C19.9339 7.71062 20.1205 7.80162 20.2745 7.89495C20.4285 7.98829 20.5452 8.10262 20.6245 8.23795C20.7039 8.37329 20.7435 8.54595 20.7435 8.75595Z" fill="black"/>
<path d="M23.3124 9.28795C23.4104 9.28795 23.5061 9.27862 23.5994 9.25995C23.6927 9.24129 23.7744 9.22029 23.8444 9.19695V9.75695C23.7651 9.79429 23.6601 9.82462 23.5294 9.84795C23.4034 9.87595 23.2704 9.88995 23.1304 9.88995C22.9344 9.88995 22.7547 9.85495 22.5914 9.78495C22.4281 9.71495 22.2974 9.59362 22.1994 9.42095C22.1014 9.24829 22.0524 9.00795 22.0524 8.69995V6.61395H21.5694V6.27795L22.0874 5.99795L22.3464 5.19995H22.8154V6.04695H23.8164V6.61395H22.8154V8.68595C22.8154 8.89129 22.8621 9.04295 22.9554 9.14095C23.0487 9.23895 23.1677 9.28795 23.3124 9.28795Z" fill="black"/>
<path d="M25.7287 6.04695V9.81995H24.9657V6.04695H25.7287ZM25.3577 4.61195C25.4697 4.61195 25.5677 4.64462 25.6517 4.70995C25.7357 4.77529 25.7777 4.88495 25.7777 5.03895C25.7777 5.18829 25.7357 5.29795 25.6517 5.36795C25.5677 5.43329 25.4697 5.46595 25.3577 5.46595C25.2364 5.46595 25.1337 5.43329 25.0497 5.36795C24.9657 5.29795 24.9237 5.18829 24.9237 5.03895C24.9237 4.88495 24.9657 4.77529 25.0497 4.70995C25.1337 4.64462 25.2364 4.61195 25.3577 4.61195Z" fill="black"/>
<path d="M29.0589 5.97695C29.4696 5.97695 29.7846 6.08662 30.0039 6.30595C30.2279 6.52529 30.3399 6.87762 30.3399 7.36295V9.81995H29.5839V7.46795C29.5839 7.17395 29.5256 6.95462 29.4089 6.80995C29.2969 6.66062 29.1219 6.58595 28.8839 6.58595C28.5339 6.58595 28.2936 6.70029 28.1629 6.92895C28.0323 7.15762 27.9669 7.48662 27.9669 7.91595V9.81995H27.2109V6.04695H27.8059L27.9109 6.55095H27.9529C28.0323 6.42029 28.1279 6.31295 28.2399 6.22895C28.3519 6.14495 28.4779 6.08195 28.6179 6.03995C28.7579 5.99795 28.9049 5.97695 29.0589 5.97695Z" fill="black"/>
<path d="M33.0258 5.97695C33.2545 5.97695 33.4575 6.02362 33.6348 6.11695C33.8168 6.21029 33.9708 6.35262 34.0968 6.54395H34.1248L34.2088 6.04695H34.8318V9.86895C34.8318 10.2236 34.7712 10.5223 34.6498 10.765C34.5285 11.0076 34.3442 11.1896 34.0968 11.311C33.8495 11.437 33.5368 11.5 33.1588 11.5C32.8975 11.5 32.6595 11.4813 32.4448 11.444C32.2348 11.4066 32.0388 11.3483 31.8568 11.269V10.618C31.9782 10.6833 32.1088 10.737 32.2488 10.779C32.3888 10.8256 32.5358 10.8583 32.6898 10.877C32.8485 10.9003 33.0118 10.912 33.1798 10.912C33.4692 10.912 33.6908 10.8233 33.8448 10.646C34.0035 10.4733 34.0828 10.2283 34.0828 9.91095V9.78495C34.0828 9.72429 34.0852 9.64495 34.0898 9.54695C34.0945 9.44429 34.0992 9.36962 34.1038 9.32295H34.0758C33.9592 9.51895 33.8122 9.66362 33.6348 9.75695C33.4622 9.84562 33.2568 9.88995 33.0188 9.88995C32.5802 9.88995 32.2348 9.71962 31.9828 9.37895C31.7308 9.03362 31.6048 8.55529 31.6048 7.94395C31.6048 7.53329 31.6608 7.18329 31.7728 6.89395C31.8895 6.59995 32.0528 6.37362 32.2628 6.21495C32.4775 6.05629 32.7318 5.97695 33.0258 5.97695ZM33.2078 6.59295C33.0305 6.59295 32.8812 6.64662 32.7598 6.75395C32.6385 6.85662 32.5452 7.00829 32.4798 7.20895C32.4192 7.40962 32.3888 7.65695 32.3888 7.95095C32.3888 8.38962 32.4588 8.72329 32.5988 8.95195C32.7388 9.18062 32.9442 9.29495 33.2148 9.29495C33.3735 9.29495 33.5088 9.27162 33.6208 9.22495C33.7328 9.17829 33.8238 9.10595 33.8938 9.00795C33.9685 8.90995 34.0222 8.78629 34.0548 8.63695C34.0922 8.48295 34.1108 8.29862 34.1108 8.08395V7.94395C34.1108 7.62195 34.0782 7.36295 34.0128 7.16695C33.9522 6.96629 33.8542 6.82162 33.7188 6.73295C33.5882 6.63962 33.4178 6.59295 33.2078 6.59295Z" fill="black"/>
<path d="M42.7006 7.31395C42.7006 7.70129 42.6539 8.05362 42.5606 8.37095C42.4719 8.68362 42.3342 8.95429 42.1476 9.18295C41.9656 9.41162 41.7369 9.58662 41.4616 9.70795C41.1862 9.82929 40.8666 9.88995 40.5026 9.88995C40.1292 9.88995 39.8026 9.82929 39.5226 9.70795C39.2472 9.58195 39.0186 9.40695 38.8366 9.18295C38.6546 8.95429 38.5192 8.68129 38.4306 8.36395C38.3419 8.04662 38.2976 7.69429 38.2976 7.30695C38.2976 6.79362 38.3769 6.34562 38.5356 5.96295C38.6989 5.58029 38.9439 5.28162 39.2706 5.06695C39.5972 4.85229 40.0102 4.74495 40.5096 4.74495C40.9949 4.74495 41.3986 4.85229 41.7206 5.06695C42.0472 5.27695 42.2922 5.57562 42.4556 5.96295C42.6189 6.34562 42.7006 6.79595 42.7006 7.31395ZM39.1166 7.31395C39.1166 7.71529 39.1632 8.06062 39.2566 8.34995C39.3546 8.63462 39.5062 8.85629 39.7116 9.01495C39.9216 9.16895 40.1852 9.24595 40.5026 9.24595C40.8246 9.24595 41.0859 9.16895 41.2866 9.01495C41.4919 8.85629 41.6412 8.63462 41.7346 8.34995C41.8326 8.06062 41.8816 7.71529 41.8816 7.31395C41.8816 6.71195 41.7719 6.24295 41.5526 5.90695C41.3332 5.56629 40.9856 5.39595 40.5096 5.39595C40.1876 5.39595 39.9216 5.47295 39.7116 5.62695C39.5062 5.78095 39.3546 6.00029 39.2566 6.28495C39.1632 6.56962 39.1166 6.91262 39.1166 7.31395Z" fill="black"/>
<path d="M45.8874 5.97695C46.298 5.97695 46.613 6.08662 46.8324 6.30595C47.0564 6.52529 47.1684 6.87762 47.1684 7.36295V9.81995H46.4124V7.46795C46.4124 7.17395 46.354 6.95462 46.2374 6.80995C46.1254 6.66062 45.9504 6.58595 45.7124 6.58595C45.3624 6.58595 45.122 6.70029 44.9914 6.92895C44.8607 7.15762 44.7954 7.48662 44.7954 7.91595V9.81995H44.0394V6.04695H44.6344L44.7394 6.55095H44.7814C44.8607 6.42029 44.9564 6.31295 45.0684 6.22895C45.1804 6.14495 45.3064 6.08195 45.4464 6.03995C45.5864 5.99795 45.7334 5.97695 45.8874 5.97695Z" fill="black"/>
<path d="M49.3853 9.81995H48.6293V4.49995H49.3853V9.81995Z" fill="black"/>
<path d="M50.3426 6.04695H51.1546L51.8756 8.18895C51.913 8.29629 51.9456 8.40129 51.9736 8.50395C52.0063 8.60662 52.032 8.70929 52.0506 8.81195C52.074 8.90995 52.0926 9.00795 52.1066 9.10595H52.1276C52.151 8.98462 52.1836 8.84229 52.2256 8.67895C52.2676 8.51095 52.3143 8.34529 52.3656 8.18195L53.0516 6.04695H53.8706L52.3586 10.331C52.27 10.5736 52.1626 10.7813 52.0366 10.954C51.9153 11.1313 51.766 11.2666 51.5886 11.36C51.416 11.4533 51.2083 11.5 50.9656 11.5C50.863 11.5 50.7696 11.493 50.6856 11.479C50.6063 11.4696 50.5363 11.458 50.4756 11.444V10.856C50.5223 10.8653 50.5806 10.8746 50.6506 10.884C50.7206 10.8933 50.793 10.898 50.8676 10.898C51.003 10.898 51.1196 10.87 51.2176 10.814C51.3156 10.758 51.3973 10.6786 51.4626 10.576C51.528 10.478 51.5816 10.3613 51.6236 10.226L51.7636 9.81995L50.3426 6.04695Z" fill="black"/>
</svg>
