<svg width="32" height="32" viewBox="0 0 32 32" fill="none" xmlns="http://www.w3.org/2000/svg">
<path d="M16 32C24.8366 32 32 24.8366 32 16C32 7.16344 24.8366 0 16 0C7.16344 0 0 7.16344 0 16C0 24.8366 7.16344 32 16 32Z" fill="white"/>
<path d="M18.576 10.995V26.6668C19.3342 26.4783 20.0706 26.211 20.7733 25.8694V7.9353C20.3986 8.09868 20.0438 8.30422 19.7157 8.54794C18.9555 9.12581 18.5292 10.0413 18.576 10.995Z" fill="#D91920"/>
<path d="M12.145 8.54794C11.8184 8.30366 11.4647 8.09808 11.0908 7.9353V25.8694C11.7928 26.2125 12.5294 26.4798 13.2881 26.6668V10.995C13.3335 10.0408 12.9059 9.12545 12.145 8.54794Z" fill="#D91920"/>
<path d="M20.3111 5.77909C17.518 4.57384 14.3522 4.57013 11.5563 5.76882C11.2881 5.88144 11.1038 6.13282 11.0771 6.42252C11.0771 7.00777 11.8917 6.88456 12.9082 7.69228C13.8241 8.41098 14.3519 9.51606 14.3354 10.6802V26.8687C15.3942 27.0239 16.4699 27.0239 17.5286 26.8687V10.6699C17.5121 9.50579 18.0399 8.40072 18.9558 7.68201C19.9826 6.8743 20.7869 6.99751 20.7869 6.41225C20.7573 6.12958 20.5744 5.88618 20.3111 5.77909Z" fill="#D91920"/>
<path d="M15.9303 3C8.7891 3 3 8.7891 3 15.9303C3 23.0715 8.7891 28.8606 15.9303 28.8606C23.0715 28.8606 28.8606 23.0715 28.8606 15.9303C28.8616 12.5007 27.4996 9.21131 25.0744 6.7862C22.6493 4.3611 19.3599 2.99909 15.9303 3ZM15.9303 27.7894C11.1335 27.7908 6.80817 24.9023 4.97153 20.471C3.13489 16.0396 4.14866 10.9383 7.54006 7.54591C10.9315 4.15353 16.0325 3.13829 20.4644 4.97364C24.8962 6.809 27.786 11.1335 27.786 15.9303C27.786 22.4786 22.4786 27.7875 15.9303 27.7894Z" fill="#D91920"/>
<path d="M4.87552 15.9303C4.87251 19.717 6.81022 23.241 10.0093 25.267V16.7996C9.22183 16.7548 8.48366 17.1845 8.13377 17.8914C8.02082 18.1344 7.94553 18.3911 7.72649 18.3911C7.3637 18.3911 7.06594 17.3336 7.06594 16.033C7.06594 14.7324 7.3637 13.6749 7.72649 13.6749C7.94553 13.6749 8.02082 13.9316 8.13377 14.1746C8.48198 14.876 9.21355 15.3037 9.99562 15.2629V6.59366C6.79604 8.61917 4.85817 12.1435 4.86182 15.9303" fill="#D91920"/>
<path d="M25.178 17.8914C25.0651 18.1344 24.9898 18.3911 24.7707 18.3911C24.4045 18.3911 24.1102 17.3336 24.1102 16.033C24.1102 14.7324 24.4045 13.6749 24.7707 13.6749C24.9898 13.6749 25.0651 13.9316 25.178 14.1746C25.5122 14.8494 26.2048 15.2716 26.9577 15.2595C26.745 11.7188 24.8455 8.49539 21.8513 6.59366V25.2636C24.7894 23.4035 26.681 20.2694 26.9577 16.8031C26.2063 16.7934 25.5163 17.217 25.1849 17.8914" fill="#D91920"/>
</svg>
