<?xml version="1.0" encoding="UTF-8"?>
<svg xmlns="http://www.w3.org/2000/svg" xmlns:xlink="http://www.w3.org/1999/xlink" width="24pt" height="24pt" viewBox="0 0 24 24" version="1.1">
<defs>
<clipPath id="clip1">
  <path d="M 3 1 L 21 1 L 21 23 L 3 23 Z M 3 1 "/>
</clipPath>
<clipPath id="clip2">
  <path d="M 15 20 C 14.667969 21.707031 13.226562 23 11.5 23 C 9.773438 23 8.332031 21.707031 8 20 Z M 12 1 C 12.496094 1 12.898438 1.402344 12.898438 1.898438 L 12.898438 2.871094 C 15.949219 3.3125 18.300781 5.933594 18.300781 9.101562 L 18.300781 11.609375 C 18.300781 13.390625 19.082031 15.070312 20.449219 16.230469 C 20.800781 16.527344 21 16.964844 21 17.425781 C 21 18.292969 20.292969 19 19.425781 19 L 4.574219 19 C 3.707031 19 3 18.292969 3 17.425781 C 3 16.964844 3.199219 16.527344 3.550781 16.230469 C 4.847656 15.132812 5.617188 13.566406 5.695312 11.890625 L 5.699219 11.609375 L 5.699219 9.101562 C 5.699219 6.015625 7.933594 3.445312 10.867188 2.910156 L 11.101562 2.871094 L 11.101562 1.898438 C 11.101562 1.441406 11.445312 1.0625 11.886719 1.007812 Z M 12 1 "/>
</clipPath>
</defs>
<g id="surface1">
<g clip-path="url(#clip1)" clip-rule="nonzero">
<g clip-path="url(#clip2)" clip-rule="evenodd">
<rect x="0" y="0" width="24" height="24" style="fill:rgb(90.196228%,90.196228%,90.196228%);fill-opacity:1;stroke:none;"/>
</g>
</g>
</g>
</svg>
