<?xml version="1.0" encoding="UTF-8"?>
<svg xmlns="http://www.w3.org/2000/svg" xmlns:xlink="http://www.w3.org/1999/xlink" width="24pt" height="24pt" viewBox="0 0 24 24" version="1.1">
<g id="surface1">
<path style=" stroke:none;fill-rule:nonzero;fill:rgb(100%,100%,100%);fill-opacity:1;" d="M 12 24 C 18.628906 24 24 18.628906 24 12 C 24 5.371094 18.628906 0 12 0 C 5.371094 0 0 5.371094 0 12 C 0 18.628906 5.371094 24 12 24 Z M 12 24 "/>
<path style=" stroke:none;fill-rule:nonzero;fill:rgb(15.293884%,45.881653%,79.214478%);fill-opacity:1;" d="M 12 21 C 16.988281 21 21 16.988281 21 12 C 21 7.011719 16.988281 3 12 3 C 7.011719 3 3 7.011719 3 12 C 3 16.988281 7.011719 21 12 21 Z M 12 21 "/>
<path style=" stroke:none;fill-rule:nonzero;fill:rgb(100%,100%,100%);fill-opacity:1;" d="M 14.476562 13.425781 C 14.476562 12.113281 13.6875 11.664062 12.113281 11.476562 C 10.988281 11.324219 10.761719 11.023438 10.761719 10.5 C 10.761719 9.976562 11.136719 9.636719 11.886719 9.636719 C 12.5625 9.636719 12.9375 9.863281 13.125 10.425781 C 13.164062 10.539062 13.273438 10.613281 13.386719 10.613281 L 13.988281 10.613281 C 14.136719 10.613281 14.25 10.5 14.25 10.351562 L 14.25 10.3125 C 14.101562 9.488281 13.425781 8.851562 12.5625 8.773438 L 12.5625 7.875 C 12.5625 7.726562 12.449219 7.613281 12.261719 7.574219 L 11.699219 7.574219 C 11.550781 7.574219 11.4375 7.6875 11.398438 7.875 L 11.398438 8.738281 C 10.273438 8.886719 9.5625 9.636719 9.5625 10.574219 C 9.5625 11.8125 10.3125 12.300781 11.886719 12.488281 C 12.9375 12.675781 13.273438 12.898438 13.273438 13.5 C 13.273438 14.101562 12.75 14.511719 12.039062 14.511719 C 11.0625 14.511719 10.726562 14.101562 10.613281 13.539062 C 10.574219 13.386719 10.460938 13.3125 10.351562 13.3125 L 9.710938 13.3125 C 9.5625 13.3125 9.449219 13.425781 9.449219 13.574219 L 9.449219 13.613281 C 9.601562 14.550781 10.199219 15.226562 11.4375 15.414062 L 11.4375 16.3125 C 11.4375 16.460938 11.550781 16.574219 11.738281 16.613281 L 12.300781 16.613281 C 12.449219 16.613281 12.5625 16.5 12.601562 16.3125 L 12.601562 15.414062 C 13.726562 15.226562 14.476562 14.4375 14.476562 13.425781 Z M 14.476562 13.425781 "/>
<path style=" stroke:none;fill-rule:nonzero;fill:rgb(100%,100%,100%);fill-opacity:1;" d="M 10.085938 17.363281 C 7.164062 16.3125 5.664062 13.050781 6.75 10.164062 C 7.3125 8.585938 8.550781 7.386719 10.085938 6.824219 C 10.238281 6.75 10.3125 6.636719 10.3125 6.449219 L 10.3125 5.925781 C 10.3125 5.773438 10.238281 5.664062 10.085938 5.625 C 10.050781 5.625 9.976562 5.625 9.9375 5.664062 C 6.375 6.789062 4.425781 10.574219 5.550781 14.136719 C 6.226562 16.238281 7.835938 17.851562 9.9375 18.523438 C 10.085938 18.601562 10.238281 18.523438 10.273438 18.375 C 10.3125 18.335938 10.3125 18.300781 10.3125 18.226562 L 10.3125 17.699219 C 10.3125 17.585938 10.199219 17.4375 10.085938 17.363281 Z M 14.0625 5.664062 C 13.914062 5.585938 13.761719 5.664062 13.726562 5.8125 C 13.6875 5.851562 13.6875 5.886719 13.6875 5.960938 L 13.6875 6.488281 C 13.6875 6.636719 13.800781 6.789062 13.914062 6.863281 C 16.835938 7.914062 18.335938 11.175781 17.25 14.0625 C 16.6875 15.636719 15.449219 16.835938 13.914062 17.398438 C 13.761719 17.476562 13.6875 17.585938 13.6875 17.773438 L 13.6875 18.300781 C 13.6875 18.449219 13.761719 18.5625 13.914062 18.601562 C 13.949219 18.601562 14.023438 18.601562 14.0625 18.5625 C 17.625 17.4375 19.574219 13.648438 18.449219 10.085938 C 17.773438 7.949219 16.125 6.335938 14.0625 5.664062 Z M 14.0625 5.664062 "/>
</g>
</svg>
