<?xml version="1.0" encoding="UTF-8"?>
<svg xmlns="http://www.w3.org/2000/svg" xmlns:xlink="http://www.w3.org/1999/xlink" width="24pt" height="24pt" viewBox="0 0 24 24" version="1.1">
<defs>
<clipPath id="clip1">
  <path d="M 2 2 L 22 2 L 22 22 L 2 22 Z M 2 2 "/>
</clipPath>
<clipPath id="clip2">
  <path d="M 20.699219 9.265625 L 15.316406 8.542969 L 12.996094 3.613281 C 12.738281 3.066406 12.082031 2.828125 11.53125 3.085938 C 11.300781 3.195312 11.113281 3.382812 11.003906 3.613281 L 8.683594 8.542969 L 3.300781 9.265625 C 2.699219 9.347656 2.277344 9.902344 2.355469 10.503906 C 2.390625 10.753906 2.511719 10.988281 2.695312 11.160156 L 6.648438 14.851562 L 5.632812 20.199219 C 5.519531 20.796875 5.914062 21.371094 6.511719 21.484375 C 6.761719 21.53125 7.023438 21.492188 7.246094 21.367188 L 12 18.738281 L 16.753906 21.367188 C 17.285156 21.660156 17.953125 21.46875 18.246094 20.9375 C 18.371094 20.710938 18.414062 20.453125 18.367188 20.199219 L 17.351562 14.851562 L 21.304688 11.160156 C 21.746094 10.746094 21.773438 10.050781 21.355469 9.605469 C 21.183594 9.421875 20.953125 9.300781 20.699219 9.265625 Z M 20.699219 9.265625 "/>
</clipPath>
</defs>
<g id="surface1">
<g clip-path="url(#clip1)" clip-rule="nonzero">
<g clip-path="url(#clip2)" clip-rule="evenodd">
<rect x="0" y="0" width="24" height="24" style="fill:rgb(90.196228%,90.196228%,90.196228%);fill-opacity:1;stroke:none;"/>
</g>
</g>
</g>
</svg>
