<?xml version="1.0" encoding="UTF-8"?>
<svg xmlns="http://www.w3.org/2000/svg" xmlns:xlink="http://www.w3.org/1999/xlink" width="57pt" height="56pt" viewBox="0 0 57 56" version="1.1">
<defs>
<clipPath id="clip1">
  <path d="M 28.332031 56 C 43.796875 56 56.332031 43.464844 56.332031 28 C 56.332031 12.535156 43.796875 0 28.332031 0 C 12.871094 0 0.332031 12.535156 0.332031 28 C 0.332031 43.464844 12.871094 56 28.332031 56 Z M 28.332031 56 "/>
</clipPath>
<clipPath id="clip2">
  <path d="M 17 16 L 39 16 L 39 40 L 17 40 Z M 17 16 "/>
</clipPath>
<clipPath id="clip3">
  <path d="M 35.582031 24.261719 C 30.988281 20.976562 29.40625 18.347656 28.332031 16.3125 C 27.257812 18.347656 25.675781 20.976562 21.085938 24.261719 C 13.257812 29.859375 20.625 37.675781 27.105469 33.371094 C 26.683594 36.042969 25.242188 37.988281 23.78125 38.824219 L 23.78125 39.6875 L 32.886719 39.6875 L 32.886719 38.824219 C 31.425781 37.988281 29.984375 36.042969 29.5625 33.371094 C 36.039062 37.675781 43.40625 29.859375 35.582031 24.261719 Z M 35.582031 24.261719 "/>
</clipPath>
</defs>
<g id="surface1">
<g clip-path="url(#clip1)" clip-rule="evenodd">
<rect x="0" y="0" width="57" height="56" style="fill:rgb(94.902039%,0%,0%);fill-opacity:0.5;stroke:none;"/>
</g>
<g clip-path="url(#clip2)" clip-rule="nonzero">
<g clip-path="url(#clip3)" clip-rule="evenodd">
<path style=" stroke:none;fill-rule:nonzero;fill:rgb(100%,100%,100%);fill-opacity:1;" d="M 12.707031 11.3125 L 43.957031 11.3125 L 43.957031 44.6875 L 12.707031 44.6875 Z M 12.707031 11.3125 "/>
</g>
</g>
</g>
</svg>
