<?xml version="1.0" encoding="UTF-8"?>
<svg xmlns="http://www.w3.org/2000/svg" xmlns:xlink="http://www.w3.org/1999/xlink" width="20pt" height="20pt" viewBox="0 0 20 20" version="1.1">
<defs>
<clipPath id="clip1">
  <path d="M 14.96875 6.871094 C 15.144531 6.34375 15.230469 5.796875 15.230469 5.230469 C 15.230469 2.347656 12.882812 0 10 0 C 7.117188 0 4.769531 2.347656 4.769531 5.230469 C 4.769531 5.796875 4.855469 6.34375 5.03125 6.871094 C 2.238281 6.976562 0 9.28125 0 12.097656 C 0 14.980469 2.347656 17.328125 5.230469 17.328125 C 6.570312 17.328125 7.789062 16.824219 8.714844 15.996094 L 7.589844 19.8125 L 12.378906 19.8125 L 11.242188 15.953125 C 12.171875 16.804688 13.410156 17.328125 14.769531 17.328125 C 17.652344 17.328125 20 14.980469 20 12.097656 C 20 9.28125 17.761719 6.976562 14.96875 6.871094 Z M 14.96875 6.871094 "/>
</clipPath>
</defs>
<g id="surface1">
<g clip-path="url(#clip1)" clip-rule="evenodd">
<rect x="0" y="0" width="20" height="20" style="fill:rgb(0%,0%,0%);fill-opacity:1;stroke:none;"/>
</g>
</g>
</svg>
