<?xml version="1.0" encoding="UTF-8"?>
<svg xmlns="http://www.w3.org/2000/svg" xmlns:xlink="http://www.w3.org/1999/xlink" width="20pt" height="20pt" viewBox="0 0 20 20" version="1.1">
<defs>
<clipPath id="clip1">
  <path d="M 3 3 L 18 3 L 18 18 L 3 18 Z M 3 3 "/>
</clipPath>
<clipPath id="clip2">
  <path d="M 5.542969 5.195312 C 6.816406 4.007812 8.496094 3.332031 10.277344 3.332031 C 14.113281 3.332031 17.222656 6.441406 17.222656 10.277344 C 17.222656 14.113281 14.113281 17.222656 10.277344 17.222656 C 6.441406 17.222656 3.332031 14.113281 3.332031 10.277344 L 4.722656 10.277344 C 4.722656 13.347656 7.210938 15.832031 10.277344 15.832031 C 13.347656 15.832031 15.832031 13.347656 15.832031 10.277344 C 15.832031 7.210938 13.347656 4.722656 10.277344 4.722656 C 8.867188 4.722656 7.542969 5.25 6.527344 6.179688 L 7.949219 7.601562 C 8.085938 7.738281 8.085938 7.957031 7.949219 8.09375 C 7.882812 8.15625 7.796875 8.195312 7.703125 8.195312 L 4.027344 8.195312 C 3.835938 8.195312 3.679688 8.039062 3.679688 7.847656 L 3.679688 4.171875 C 3.679688 3.980469 3.835938 3.824219 4.027344 3.824219 C 4.121094 3.824219 4.207031 3.859375 4.273438 3.925781 Z M 10.625 7.5 L 10.625 9.988281 L 12.503906 11.871094 C 12.777344 12.140625 12.777344 12.582031 12.503906 12.851562 C 12.234375 13.125 11.792969 13.125 11.523438 12.851562 L 9.441406 10.769531 C 9.308594 10.636719 9.234375 10.460938 9.234375 10.277344 L 9.234375 7.5 C 9.234375 7.117188 9.546875 6.804688 9.929688 6.804688 C 10.3125 6.804688 10.625 7.117188 10.625 7.5 Z M 10.625 7.5 "/>
</clipPath>
</defs>
<g id="surface1">
<g clip-path="url(#clip1)" clip-rule="nonzero">
<g clip-path="url(#clip2)" clip-rule="evenodd">
<rect x="0" y="0" width="20" height="20" style="fill:rgb(60.784912%,60.784912%,60.784912%);fill-opacity:1;stroke:none;"/>
</g>
</g>
</g>
</svg>
