<?xml version="1.0" encoding="UTF-8"?>
<svg xmlns="http://www.w3.org/2000/svg" xmlns:xlink="http://www.w3.org/1999/xlink" width="32pt" height="32pt" viewBox="0 0 32 32" version="1.1">
<defs>
<clipPath id="clip1">
  <path d="M 16 32 C 24.835938 32 32 24.835938 32 16 C 32 7.164062 24.835938 0 16 0 C 7.164062 0 0 7.164062 0 16 C 0 24.835938 7.164062 32 16 32 Z M 16 32 "/>
</clipPath>
<clipPath id="clip2">
  <path d="M 4 14 L 14 14 L 14 25 L 4 25 Z M 4 14 "/>
</clipPath>
<clipPath id="clip3">
  <path d="M 5.890625 14.296875 C 4.859375 14.300781 4.222656 14.847656 4.085938 15.875 C 4.011719 16.421875 4.003906 16.980469 4.003906 17.535156 C 3.996094 19.878906 4.003906 22.21875 4.003906 24.558594 C 4.003906 24.777344 4.085938 24.847656 4.296875 24.808594 C 4.339844 24.800781 4.382812 24.785156 4.425781 24.773438 C 7.402344 23.960938 10.375 23.144531 13.351562 22.332031 L 13.351562 14.292969 C 10.863281 14.292969 8.378906 14.285156 5.890625 14.296875 "/>
</clipPath>
<clipPath id="clip4">
  <path d="M 13 14 L 22 14 L 22 23 L 13 23 Z M 13 14 "/>
</clipPath>
<clipPath id="clip5">
  <path d="M 21.21875 14.28125 C 21.164062 14.28125 21.113281 14.28125 21.058594 14.28125 C 18.539062 14.273438 16.023438 14.277344 13.507812 14.277344 L 13.507812 14.292969 C 13.453125 14.292969 13.402344 14.292969 13.351562 14.292969 L 13.351562 22.332031 C 15.984375 21.609375 18.621094 20.886719 21.253906 20.160156 Z M 21.21875 14.28125 "/>
</clipPath>
<clipPath id="clip6">
  <path d="M 21 14 L 28 14 L 28 21 L 21 21 Z M 21 14 "/>
</clipPath>
<clipPath id="clip7">
  <path d="M 27.296875 14.742188 C 27.265625 14.464844 27.164062 14.363281 26.890625 14.339844 C 26.628906 14.316406 26.367188 14.332031 26.105469 14.328125 C 24.476562 14.3125 22.847656 14.289062 21.21875 14.28125 L 21.253906 20.160156 C 21.367188 20.128906 21.480469 20.097656 21.59375 20.066406 C 23.25 19.613281 24.894531 19.113281 26.539062 18.628906 C 27.109375 18.464844 27.277344 18.25 27.285156 17.65625 C 27.296875 16.898438 27.296875 16.136719 27.300781 15.375 C 27.300781 15.164062 27.320312 14.949219 27.296875 14.742188 "/>
</clipPath>
<clipPath id="clip8">
  <path d="M 13 7 L 22 7 L 22 14 L 13 14 Z M 13 7 "/>
</clipPath>
<clipPath id="clip9">
  <path d="M 21.15625 9.691406 C 19.027344 8.976562 16.902344 8.257812 14.773438 7.550781 C 14.546875 7.472656 14.308594 7.417969 14.070312 7.386719 C 13.703125 7.339844 13.492188 7.480469 13.414062 7.84375 C 13.355469 8.113281 13.332031 8.394531 13.328125 8.671875 C 13.3125 9.921875 13.308594 11.171875 13.296875 12.421875 C 13.289062 13.054688 13.457031 13.246094 14.089844 13.300781 C 14.125 13.304688 14.164062 13.304688 14.199219 13.304688 C 16.335938 13.347656 18.46875 13.386719 21.160156 13.441406 L 21.160156 9.691406 C 21.15625 9.691406 21.15625 9.691406 21.15625 9.691406 "/>
</clipPath>
<clipPath id="clip10">
  <path d="M 21 9 L 28 9 L 28 14 L 21 14 Z M 21 9 "/>
</clipPath>
<clipPath id="clip11">
  <path d="M 26.796875 11.617188 C 26.675781 11.566406 26.550781 11.523438 26.425781 11.480469 C 24.671875 10.882812 22.914062 10.285156 21.160156 9.691406 L 21.160156 13.441406 C 22.089844 13.441406 23.574219 13.441406 25.058594 13.441406 C 25.726562 13.4375 26.390625 13.433594 27.058594 13.441406 C 27.226562 13.441406 27.289062 13.386719 27.292969 13.21875 C 27.300781 12.976562 27.339844 12.738281 27.351562 12.496094 C 27.371094 11.996094 27.253906 11.8125 26.796875 11.617188 "/>
</clipPath>
<clipPath id="clip12">
  <path d="M 21 6 L 28 6 L 28 11 L 21 11 Z M 21 6 "/>
</clipPath>
<clipPath id="clip13">
  <path d="M 27.390625 10.996094 C 26.542969 10.695312 25.738281 10.410156 24.933594 10.125 C 23.914062 9.757812 22.898438 9.386719 21.882812 9.023438 C 21.5625 8.90625 21.382812 8.683594 21.375 8.351562 C 21.359375 7.753906 21.351562 7.152344 21.371094 6.554688 C 21.390625 6.003906 21.664062 5.855469 22.136719 6.140625 C 23.09375 6.722656 24.039062 7.320312 24.988281 7.910156 C 25.585938 8.28125 26.183594 8.652344 26.785156 9.011719 C 27.1875 9.25 27.390625 9.59375 27.390625 10.058594 C 27.390625 10.355469 27.390625 10.65625 27.390625 10.996094 "/>
</clipPath>
</defs>
<g id="surface1">
<g clip-path="url(#clip1)" clip-rule="evenodd">
<rect x="0" y="0" width="32" height="32" style="fill:rgb(100%,100%,100%);fill-opacity:1;stroke:none;"/>
</g>
<g clip-path="url(#clip2)" clip-rule="nonzero">
<g clip-path="url(#clip3)" clip-rule="nonzero">
<path style=" stroke:none;fill-rule:nonzero;fill:rgb(0%,28.234863%,45.489502%);fill-opacity:1;" d="M -1 9.289062 L 18.351562 9.289062 L 18.351562 29.820312 L -1 29.820312 Z M -1 9.289062 "/>
</g>
</g>
<g clip-path="url(#clip4)" clip-rule="nonzero">
<g clip-path="url(#clip5)" clip-rule="nonzero">
<path style=" stroke:none;fill-rule:nonzero;fill:rgb(0%,37.646484%,48.234558%);fill-opacity:1;" d="M 8.351562 9.277344 L 26.253906 9.277344 L 26.253906 27.332031 L 8.351562 27.332031 Z M 8.351562 9.277344 "/>
</g>
</g>
<g clip-path="url(#clip6)" clip-rule="nonzero">
<g clip-path="url(#clip7)" clip-rule="nonzero">
<path style=" stroke:none;fill-rule:nonzero;fill:rgb(3.921509%,58.039856%,40.783691%);fill-opacity:1;" d="M 16.21875 9.28125 L 32.308594 9.28125 L 32.308594 25.160156 L 16.21875 25.160156 Z M 16.21875 9.28125 "/>
</g>
</g>
<g clip-path="url(#clip8)" clip-rule="nonzero">
<g clip-path="url(#clip9)" clip-rule="nonzero">
<path style=" stroke:none;fill-rule:nonzero;fill:rgb(94.117737%,0%,0%);fill-opacity:1;" d="M 8.296875 2.378906 L 26.160156 2.378906 L 26.160156 18.441406 L 8.296875 18.441406 Z M 8.296875 2.378906 "/>
</g>
</g>
<g clip-path="url(#clip10)" clip-rule="nonzero">
<g clip-path="url(#clip11)" clip-rule="nonzero">
<path style=" stroke:none;fill-rule:nonzero;fill:rgb(97.647095%,36.470032%,0%);fill-opacity:1;" d="M 16.160156 4.691406 L 32.351562 4.691406 L 32.351562 18.441406 L 16.160156 18.441406 Z M 16.160156 4.691406 "/>
</g>
</g>
<g clip-path="url(#clip12)" clip-rule="nonzero">
<g clip-path="url(#clip13)" clip-rule="nonzero">
<path style=" stroke:none;fill-rule:nonzero;fill:rgb(80.392456%,0%,16.862488%);fill-opacity:1;" d="M 16.359375 1 L 32.390625 1 L 32.390625 15.996094 L 16.359375 15.996094 Z M 16.359375 1 "/>
</g>
</g>
</g>
</svg>
