<svg width="16" height="24" viewBox="0 0 16 24" fill="none" xmlns="http://www.w3.org/2000/svg">
<path d="M7.98609 4.44C5.78609 4.44 4.06609 5.14 2.82609 6.58C1.62609 7.94 1.04609 9.7 1.04609 11.88C1.04609 14.04 1.62609 15.8 2.82609 17.16C4.06609 18.56 5.78609 19.28 7.98609 19.28C9.42609 19.28 10.6861 18.96 11.7261 18.36C12.2461 19.04 12.7661 19.78 13.3061 20.56L14.8261 19.24C14.3061 18.48 13.7661 17.76 13.2461 17.08C14.3661 15.76 14.9461 14.02 14.9461 11.88C14.9461 9.68 14.3461 7.9 13.1461 6.56C11.8861 5.14 10.1661 4.44 7.98609 4.44ZM7.98609 6.5C9.46609 6.5 10.6061 6.96 11.4061 7.92C12.1861 8.88 12.5861 10.2 12.5861 11.88C12.5861 13.26 12.3061 14.4 11.7861 15.28C11.1061 14.48 10.4061 13.7 9.70609 12.96L8.34609 14.28C9.00609 14.98 9.68609 15.76 10.4061 16.64C9.72609 17.02 8.92609 17.22 7.98609 17.22C6.50609 17.22 5.34609 16.72 4.54609 15.74C3.76609 14.78 3.38609 13.5 3.38609 11.88C3.38609 10.24 3.76609 8.96 4.54609 8C5.36609 7 6.50609 6.5 7.98609 6.5Z" fill="#D90101"/>
</svg>
