<svg width="48" height="48" viewBox="0 0 48 48" fill="none" xmlns="http://www.w3.org/2000/svg">
<path fill-rule="evenodd" clip-rule="evenodd" d="M24 4C35.0457 4 44 12.9543 44 24C44 35.0457 35.0457 44 24 44C17.2471 44 11.2758 40.6532 7.65449 35.5278L34.6641 35.5625C35.0547 35.5625 35.25 35.3672 35.25 34.9766V17.3984C35.25 17.0078 35.0547 16.8125 34.6641 16.8125H16.5V12.125L7.125 19.1562L16.5 26.1875V21.5H30.5625V30.875L5.19902 30.8367C4.42318 28.7037 4 26.4013 4 24C4 12.9543 12.9543 4 24 4Z" fill="white"/>
</svg>
