<svg width="32" height="32" viewBox="0 0 32 32" fill="none" xmlns="http://www.w3.org/2000/svg">
<path d="M16 32C24.8366 32 32 24.8366 32 16C32 7.16344 24.8366 0 16 0C7.16344 0 0 7.16344 0 16C0 24.8366 7.16344 32 16 32Z" fill="white"/>
<path d="M16.6352 22.0505L20.0203 26.2589H25.349L22.2524 22.8824L22.1084 22.6622L22.084 22.5641L22.0603 22.4664V22.1972L22.084 22.0996L22.1084 22.0014L22.1566 21.8789L22.2524 21.7321L22.3726 21.512L22.5166 21.341L25.6132 17.6705L25.8291 17.4018L25.9969 17.1568L26.117 16.9125L26.2611 16.6675L26.3574 16.4225L26.4288 16.1781L26.4776 15.9331V15.2243L26.4288 14.9793L26.3574 14.7591L26.2611 14.5141L26.117 14.2698L25.9969 14.0739L25.8291 13.8295L19.1797 5.8772L18.1237 6.8317L21.3167 10.7708L21.5082 11.0401L21.6521 11.3087L21.724 11.4561L21.7486 11.5786L21.7723 11.7247V11.8471L21.7486 12.1407L21.676 12.4099L21.5563 12.6798L21.388 12.9484L16.7554 18.3799L16.6352 18.4782L16.5875 18.6L16.4429 18.7717L16.3234 18.9918L16.2515 19.2119L16.155 19.4327L16.1075 19.6527L16.0831 19.8972L16.0349 20.1172V20.3622L16.0831 20.6067L16.1075 20.8759L16.1794 21.096L16.2752 21.341L16.3717 21.5854L16.4912 21.8304L16.5875 21.9522L16.6352 22.0505Z" fill="black"/>
<path fill-rule="evenodd" clip-rule="evenodd" d="M16.6352 22.0505L20.0203 26.2589H25.349L22.2524 22.8824L22.1084 22.6622L22.084 22.5641L22.0603 22.4664V22.1972L22.084 22.0996L22.1084 22.0014L22.1566 21.8789L22.2524 21.7321L22.3726 21.512L22.5166 21.341L25.6132 17.6705L25.8291 17.4018L25.9969 17.1568L26.117 16.9125L26.2611 16.6675L26.3574 16.4225L26.4288 16.1781L26.4776 15.9331V15.2243L26.4288 14.9793L26.3574 14.7591L26.2611 14.5141L26.117 14.2698L25.9969 14.0739L25.8291 13.8295L19.1797 5.8772L18.1237 6.8317L21.3167 10.7708L21.5082 11.0401L21.6521 11.3087L21.724 11.4561L21.7486 11.5786L21.7723 11.7247V11.8471L21.7486 12.1407L21.676 12.4099L21.5563 12.6798L21.388 12.9484L16.7554 18.3799L16.6352 18.4782L16.5875 18.6L16.4429 18.7717L16.3234 18.9918L16.2515 19.2119L16.155 19.4327L16.1075 19.6527L16.0831 19.8972L16.0349 20.1172V20.3622L16.0831 20.6067L16.1075 20.8759L16.1794 21.096L16.2752 21.341L16.3717 21.5854L16.4912 21.8304L16.5875 21.9522L16.6352 22.0505Z" fill="url(#paint0_linear_142_2018)"/>
<path d="M11.7139 11.7496L11.7383 11.3578L11.8103 10.9418L11.8346 10.7466L11.9061 10.5265L12.0506 10.159L12.2183 9.81639L12.3141 9.64539L12.4106 9.47373L12.6503 9.18024L12.8668 8.86254L13.1786 8.61754L13.4665 8.39739L13.8027 8.17735L14.1388 8.00569L14.4987 7.88374L14.7147 7.81039L14.9069 7.78554L15.099 7.73704L15.3149 7.71219H15.5071L15.7231 7.6637L16.0831 7.71219L16.4429 7.78554L16.8035 7.83469L17.1389 7.98139L17.3074 8.05474L17.4751 8.12819L17.8112 8.29919L18.1237 8.49504L18.3878 8.74004L18.6037 9.00924L18.7478 9.13108L18.8435 9.27854L19.0839 9.54708L19.4199 10.2324L19.4437 10.4039L19.5157 10.5749L19.6121 10.9418L19.6836 11.3087H17.3556L15.7231 9.64539L13.6105 11.7496L15.7231 13.8538L17.3556 12.1898H19.6836L19.6121 12.6058L19.5157 12.9484L19.4437 13.1194L19.4199 13.291L19.0839 13.9756L18.8435 14.2455L18.6037 14.5141L18.3878 14.7833L18.1237 15.0284L17.9558 15.126L17.8112 15.2243L17.6435 15.3218L17.4751 15.3953L17.1389 15.542L16.8035 15.6645L16.4429 15.7621L16.0831 15.8112L15.7231 15.8355L15.3149 15.8112L14.9069 15.7378L14.7147 15.713L14.4987 15.6396L14.1388 15.4928L13.8027 15.3218L13.6349 15.2243L13.4665 15.126L13.1786 14.8816L12.8668 14.6366L12.6503 14.3431L12.4106 14.0248L12.2183 13.6821L12.0506 13.3644L11.9061 12.9733L11.8346 12.7774L11.8103 12.5815L11.762 12.3614L11.7139 11.9697V11.7496Z" fill="black"/>
<path fill-rule="evenodd" clip-rule="evenodd" d="M11.7139 11.7496L11.7383 11.3578L11.8103 10.9418L11.8346 10.7466L11.9061 10.5265L12.0506 10.159L12.2183 9.81639L12.3141 9.64539L12.4106 9.47373L12.6503 9.18024L12.8668 8.86254L13.1786 8.61754L13.4665 8.39739L13.8027 8.17735L14.1388 8.00569L14.4987 7.88374L14.7147 7.81039L14.9069 7.78554L15.099 7.73704L15.3149 7.71219H15.5071L15.7231 7.6637L16.0831 7.71219L16.4429 7.78554L16.8035 7.83469L17.1389 7.98139L17.3074 8.05474L17.4751 8.12819L17.8112 8.29919L18.1237 8.49504L18.3878 8.74004L18.6037 9.00924L18.7478 9.13108L18.8435 9.27854L19.0839 9.54708L19.4199 10.2324L19.4437 10.4039L19.5157 10.5749L19.6121 10.9418L19.6836 11.3087H17.3556L15.7231 9.64539L13.6105 11.7496L15.7231 13.8538L17.3556 12.1898H19.6836L19.6121 12.6058L19.5157 12.9484L19.4437 13.1194L19.4199 13.291L19.0839 13.9756L18.8435 14.2455L18.6037 14.5141L18.3878 14.7833L18.1237 15.0284L17.9558 15.126L17.8112 15.2243L17.6435 15.3218L17.4751 15.3953L17.1389 15.542L16.8035 15.6645L16.4429 15.7621L16.0831 15.8112L15.7231 15.8355L15.3149 15.8112L14.9069 15.7378L14.7147 15.713L14.4987 15.6396L14.1388 15.4928L13.8027 15.3218L13.6349 15.2243L13.4665 15.126L13.1786 14.8816L12.8668 14.6366L12.6503 14.3431L12.4106 14.0248L12.2183 13.6821L12.0506 13.3644L11.9061 12.9733L11.8346 12.7774L11.8103 12.5815L11.762 12.3614L11.7139 11.9697V11.7496Z" fill="url(#paint1_linear_142_2018)"/>
<path d="M14.7385 22.0505L11.3783 26.2589H6.02512L9.14556 22.8824L9.26576 22.6622L9.31393 22.5641L9.33769 22.4664V22.1972L9.31393 22.0996L9.26576 22.0014L9.24201 21.8789L9.00149 21.512L8.83378 21.341L5.76107 17.6705L5.56884 17.4018L5.40112 17.1568L5.25706 16.9125L5.13696 16.6675L5.04063 16.4225L4.96859 16.1781L4.89722 15.9331V15.2243L4.96859 14.9793L5.04063 14.7591L5.23275 14.2698L5.40112 14.0739L5.56884 13.8295L12.2183 5.8772L13.2744 6.8317L10.082 10.7708L9.86601 11.0401L9.74581 11.3087L9.67388 11.4561L9.65002 11.5786L9.60185 11.7247V11.8471L9.65002 12.1407L9.69764 12.4099L9.8416 12.6798L10.01 12.9484L14.6427 18.3799L14.7385 18.4782L14.811 18.6L14.9306 18.7717L15.0508 18.9918L15.1471 19.2119L15.2429 19.4327L15.2668 19.6527L15.3148 19.8972L15.3387 20.1172V20.3622L15.3148 20.6067L15.2668 20.8759L15.2192 21.096L15.099 21.341L15.0026 21.5854L14.883 21.8304L14.811 21.9522L14.7385 22.0505Z" fill="black"/>
<path fill-rule="evenodd" clip-rule="evenodd" d="M14.7385 22.0505L11.3783 26.2589H6.02512L9.14556 22.8824L9.26576 22.6622L9.31393 22.5641L9.33769 22.4664V22.1972L9.31393 22.0996L9.26576 22.0014L9.24201 21.8789L9.00149 21.512L8.83378 21.341L5.76107 17.6705L5.56884 17.4018L5.40112 17.1568L5.25706 16.9125L5.13696 16.6675L5.04063 16.4225L4.96859 16.1781L4.89722 15.9331V15.2243L4.96859 14.9793L5.04063 14.7591L5.23275 14.2698L5.40112 14.0739L5.56884 13.8295L12.2183 5.8772L13.2744 6.8317L10.082 10.7708L9.86601 11.0401L9.74581 11.3087L9.67388 11.4561L9.65002 11.5786L9.60185 11.7247V11.8471L9.65002 12.1407L9.69764 12.4099L9.8416 12.6798L10.01 12.9484L14.6427 18.3799L14.7385 18.4782L14.811 18.6L14.9306 18.7717L15.0508 18.9918L15.1471 19.2119L15.2429 19.4327L15.2668 19.6527L15.3148 19.8972L15.3387 20.1172V20.3622L15.3148 20.6067L15.2668 20.8759L15.2192 21.096L15.099 21.341L15.0026 21.5854L14.883 21.8304L14.811 21.9522L14.7385 22.0505Z" fill="url(#paint2_linear_142_2018)"/>
<defs>
<linearGradient id="paint0_linear_142_2018" x1="21.288" y1="23.8073" x2="21.0783" y2="13.3697" gradientUnits="userSpaceOnUse">
<stop stop-color="#FBE108"/>
<stop offset="1" stop-color="#FD1000"/>
</linearGradient>
<linearGradient id="paint1_linear_142_2018" x1="18.4622" y1="18.5881" x2="15.5743" y2="11.7531" gradientUnits="userSpaceOnUse">
<stop stop-color="#FBE108"/>
<stop offset="1" stop-color="#FD1000"/>
</linearGradient>
<linearGradient id="paint2_linear_142_2018" x1="10.1147" y1="26.0576" x2="10.1346" y2="12.6966" gradientUnits="userSpaceOnUse">
<stop stop-color="#FBE108"/>
<stop offset="1" stop-color="#FD1000"/>
</linearGradient>
</defs>
</svg>
