<?xml version="1.0" encoding="UTF-8"?>
<svg xmlns="http://www.w3.org/2000/svg" xmlns:xlink="http://www.w3.org/1999/xlink" width="96pt" height="32pt" viewBox="0 0 96 32" version="1.1">
<g id="surface1">
<rect x="0" y="0" width="96" height="32" style="fill:rgb(100%,100%,100%);fill-opacity:1;stroke:none;"/>
<path style=" stroke:none;fill-rule:evenodd;fill:rgb(0%,34.901428%,57.254028%);fill-opacity:1;" d="M 19.769531 18.730469 C 21.960938 18.730469 23.738281 20.550781 23.738281 22.792969 C 23.738281 23.019531 23.714844 23.242188 23.679688 23.460938 L 23.425781 23.460938 L 23.425781 23.480469 L 17.851562 23.480469 C 18.097656 24.464844 18.867188 25.1875 19.789062 25.1875 C 20.472656 25.1875 21.074219 24.792969 21.441406 24.1875 L 23.492188 24.1875 C 22.9375 25.742188 21.480469 26.855469 19.769531 26.855469 C 17.578125 26.855469 15.800781 25.035156 15.800781 22.792969 C 15.800781 20.550781 17.578125 18.730469 19.769531 18.730469 Z M 53.824219 18.710938 C 54.785156 18.710938 55.65625 19.128906 56.304688 19.8125 L 56.304688 18.898438 L 58.511719 18.898438 L 58.511719 26.585938 L 56.304688 26.585938 L 56.304688 25.730469 C 55.65625 26.414062 54.785156 26.835938 53.824219 26.835938 C 51.824219 26.835938 50.199219 25.015625 50.199219 22.773438 C 50.199219 20.527344 51.824219 18.710938 53.824219 18.710938 Z M 45.304688 15.542969 C 45.304688 15.542969 45.445312 15.535156 45.675781 15.542969 L 46.054688 15.542969 L 46.054688 15.570312 C 47.160156 15.679688 49.09375 16.175781 49.09375 18.355469 C 49.09375 20.148438 47.785156 20.648438 47.785156 20.648438 C 47.90625 20.667969 49.636719 21.019531 49.628906 23.324219 C 49.613281 26.078125 46.957031 26.5 46.472656 26.554688 L 46.472656 26.605469 L 41.28125 26.605469 L 41.28125 15.5625 L 43.59375 15.5625 L 43.59375 15.542969 Z M 63.972656 18.667969 C 65.492188 18.710938 66.679688 19.875 66.679688 21.3125 L 66.679688 26.585938 L 64.410156 26.585938 L 64.410156 21.875 C 64.410156 21.875 64.285156 20.710938 63.242188 20.710938 C 62.539062 20.710938 62.085938 21.210938 61.847656 21.589844 L 61.847656 26.585938 L 59.617188 26.585938 L 59.617188 18.9375 L 61.847656 18.9375 L 61.847656 19.6875 C 62.164062 19.308594 62.878906 18.636719 63.972656 18.667969 Z M 37.40625 18.667969 C 38.929688 18.710938 40.117188 19.875 40.117188 21.3125 L 40.117188 26.585938 L 37.84375 26.585938 L 37.84375 21.875 C 37.84375 21.875 37.71875 20.710938 36.675781 20.710938 C 35.972656 20.710938 35.523438 21.210938 35.28125 21.585938 L 35.28125 26.585938 L 33.050781 26.585938 L 33.050781 18.9375 L 35.28125 18.9375 L 35.28125 19.6875 C 35.597656 19.308594 36.3125 18.636719 37.40625 18.667969 Z M 67.996094 15.4375 C 68.441406 15.445312 70.117188 15.585938 70.242188 17.355469 L 70.242188 21.707031 L 72.742188 18.917969 L 75.640625 18.917969 L 72.367188 22.355469 L 75.574219 26.542969 L 72.535156 26.542969 L 70.390625 23.292969 L 70.242188 23.210938 L 70.242188 26.585938 L 67.910156 26.585938 L 67.847656 26.355469 L 67.886719 15.4375 C 67.886719 15.4375 67.890625 15.4375 67.894531 15.4375 Z M 14.863281 18.917969 L 14.863281 26.566406 L 12.632812 26.566406 L 12.632812 20.667969 C 12.632812 20.667969 12.863281 18.9375 14.863281 18.917969 Z M 31.949219 18.917969 L 31.949219 26.566406 L 29.71875 26.566406 L 29.71875 20.667969 C 29.71875 20.667969 29.949219 18.9375 31.949219 18.917969 Z M 5.839844 15.480469 L 8.644531 22.449219 L 11.332031 15.480469 L 13.707031 15.480469 C 13.707031 15.480469 12.804688 17.789062 11.828125 20.246094 L 11.601562 20.8125 C 10.660156 23.183594 9.710938 25.535156 9.488281 25.949219 C 9.019531 26.824219 7.363281 26.480469 7.363281 26.480469 L 3 15.480469 Z M 27.511719 17 L 27.511719 18.917969 L 28.78125 18.917969 L 28.78125 20.710938 L 27.511719 20.710938 L 27.511719 23.4375 C 27.511719 23.960938 27.78125 24.3125 28.074219 24.5 C 28.363281 24.691406 28.71875 24.667969 28.71875 24.667969 L 28.71875 26.542969 L 27.386719 26.542969 C 25.441406 26.070312 25.289062 24.523438 25.28125 24.132812 L 25.28125 24.066406 C 25.28125 24.050781 25.28125 24.042969 25.28125 24.042969 L 25.28125 20.710938 L 24.136719 20.710938 L 24.136719 18.917969 L 25.28125 18.917969 L 25.28125 17 Z M 54.4375 20.792969 C 53.386719 20.792969 52.53125 21.675781 52.53125 22.761719 C 52.53125 23.847656 53.386719 24.730469 54.4375 24.730469 C 55.359375 24.730469 56.121094 24.058594 56.304688 23.167969 L 56.304688 22.355469 C 56.121094 21.460938 55.359375 20.792969 54.4375 20.792969 Z M 46.21875 21.875 L 43.824219 21.875 L 43.824219 24.523438 L 46.296875 24.523438 C 46.820312 24.347656 47.304688 24.011719 47.304688 23.105469 C 47.304688 22.167969 46.21875 21.875 46.21875 21.875 Z M 19.789062 20.4375 C 18.945312 20.4375 18.222656 21.039062 17.917969 21.898438 L 21.664062 21.898438 C 21.359375 21.039062 20.636719 20.4375 19.789062 20.4375 Z M 45.65625 17.5625 L 43.824219 17.5625 L 43.824219 19.855469 L 45.824219 19.855469 C 45.824219 19.855469 46.824219 19.5625 46.824219 18.667969 C 46.824219 17.773438 45.867188 17.5625 45.65625 17.5625 Z M 45.65625 17.5625 "/>
<path style=" stroke:none;fill-rule:evenodd;fill:rgb(84.312439%,6.666565%,28.627014%);fill-opacity:1;" d="M 83.683594 22.375 C 86.847656 22.375 89.621094 20.726562 91.207031 18.246094 C 88.957031 17.066406 86.398438 16.398438 83.683594 16.398438 C 80.964844 16.398438 78.40625 17.066406 76.15625 18.246094 C 77.742188 20.726562 80.515625 22.375 83.683594 22.375 Z M 83.683594 22.375 "/>
<path style=" stroke:none;fill-rule:evenodd;fill:rgb(0%,34.117126%,56.469727%);fill-opacity:1;" d="M 81.054688 15.351562 L 81.054688 10.773438 L 86.308594 10.773438 L 86.308594 15.351562 C 88.265625 15.648438 90.117188 16.261719 91.808594 17.148438 C 92.324219 16.015625 92.621094 14.761719 92.621094 13.4375 C 92.621094 8.5 88.617188 4.5 83.679688 4.5 C 78.746094 4.5 74.742188 8.5 74.742188 13.4375 C 74.742188 14.761719 75.039062 16.015625 75.558594 17.148438 C 77.246094 16.261719 79.097656 15.648438 81.054688 15.351562 Z M 81.054688 15.351562 "/>
</g>
</svg>
