<?xml version="1.0" encoding="UTF-8"?>
<svg xmlns="http://www.w3.org/2000/svg" xmlns:xlink="http://www.w3.org/1999/xlink" width="32pt" height="32pt" viewBox="0 0 32 32" version="1.1">
<defs>
<clipPath id="clip1">
  <path d="M 5 5 L 27 5 L 27 27 L 5 27 Z M 5 5 "/>
</clipPath>
<clipPath id="clip2">
  <path d="M 22.601562 5 C 25.03125 5 27 6.96875 27 9.398438 L 27 22.601562 C 27 25.03125 25.03125 27 22.601562 27 L 9.398438 27 C 6.96875 27 5 25.03125 5 22.601562 L 5 9.398438 C 5 6.96875 6.96875 5 9.398438 5 Z M 13.5625 8 C 13.117188 8 12.738281 8.078125 12.421875 8.238281 C 12.105469 8.394531 11.839844 8.609375 11.625 8.878906 C 11.410156 9.152344 11.253906 9.46875 11.152344 9.828125 C 11.050781 10.1875 11 10.574219 11 10.980469 C 11 11.160156 11.003906 11.410156 11.007812 11.734375 C 11.015625 12.058594 11.03125 12.316406 11.058594 12.511719 L 12.269531 12.511719 C 12.308594 12.257812 12.371094 12.058594 12.453125 11.914062 C 12.535156 11.773438 12.628906 11.667969 12.734375 11.597656 C 12.84375 11.53125 12.96875 11.492188 13.105469 11.476562 C 13.246094 11.460938 13.390625 11.453125 13.542969 11.453125 C 13.808594 11.453125 14.066406 11.492188 14.320312 11.566406 C 14.574219 11.640625 14.828125 11.722656 15.089844 11.8125 C 15.347656 11.902344 15.613281 11.988281 15.886719 12.0625 C 16.15625 12.136719 16.445312 12.175781 16.75 12.175781 C 17.039062 12.175781 17.324219 12.140625 17.601562 12.074219 C 17.875 12.007812 18.183594 11.890625 18.539062 11.71875 L 18.570312 11.703125 C 17.8125 12.183594 17.070312 12.734375 16.339844 13.359375 C 15.613281 13.984375 14.964844 14.691406 14.398438 15.480469 C 13.828125 16.269531 13.367188 17.140625 13.019531 18.085938 C 12.671875 19.035156 12.5 20.066406 12.5 21.179688 C 12.5 22.035156 12.707031 22.722656 13.125 23.234375 C 13.542969 23.746094 14.214844 24 15.136719 24 C 15.605469 24 15.996094 23.941406 16.3125 23.820312 C 16.628906 23.699219 16.882812 23.535156 17.070312 23.324219 C 17.261719 23.113281 17.394531 22.863281 17.46875 22.578125 C 17.546875 22.292969 17.585938 21.976562 17.585938 21.628906 C 17.585938 21.238281 17.566406 20.851562 17.527344 20.46875 C 17.488281 20.085938 17.46875 19.71875 17.46875 19.375 C 17.46875 18.425781 17.5 17.597656 17.554688 16.890625 C 17.613281 16.183594 17.753906 15.484375 17.984375 14.792969 C 18.210938 14.101562 18.5625 13.367188 19.035156 12.59375 C 19.511719 11.816406 20.164062 10.886719 21 9.804688 L 20.261719 8.316406 C 20.160156 8.496094 20.066406 8.648438 19.984375 8.765625 C 19.902344 8.886719 19.820312 8.980469 19.738281 9.050781 C 19.65625 9.117188 19.558594 9.164062 19.445312 9.183594 C 19.332031 9.207031 19.183594 9.21875 19.007812 9.21875 C 18.488281 9.21875 18.0625 9.15625 17.726562 9.027344 C 17.390625 8.898438 17.042969 8.757812 16.683594 8.609375 C 16.324219 8.457031 15.910156 8.320312 15.441406 8.191406 C 14.972656 8.0625 14.347656 8 13.5625 8 Z M 13.5625 8 "/>
</clipPath>
</defs>
<g id="surface1">
<g clip-path="url(#clip1)" clip-rule="nonzero">
<g clip-path="url(#clip2)" clip-rule="evenodd">
<rect x="0" y="0" width="32" height="32" style="fill:rgb(60.784912%,60.784912%,60.784912%);fill-opacity:1;stroke:none;"/>
</g>
</g>
</g>
</svg>
