<?xml version="1.0" encoding="UTF-8"?>
<svg xmlns="http://www.w3.org/2000/svg" xmlns:xlink="http://www.w3.org/1999/xlink" width="25pt" height="32pt" viewBox="0 0 25 32" version="1.1">
<defs>
<clipPath id="clip1">
  <path d="M 16.011719 15.582031 L 16.011719 15.453125 C 22.269531 11.699219 22.53125 5.675781 22.449219 3.808594 L 24.941406 3.808594 L 24.941406 0 L 0.015625 0 L 0.015625 3.808594 L 2.550781 3.808594 C 2.46875 5.675781 2.730469 11.699219 8.988281 15.453125 L 8.988281 16.503906 C 2.679688 20.289062 2.464844 26.378906 2.550781 28.191406 L 0.0585938 28.191406 L 0.0585938 32 L 24.984375 32 L 24.984375 28.191406 L 22.449219 28.191406 C 22.535156 26.378906 22.320312 20.289062 16.011719 16.503906 Z M 14.523438 17.957031 C 20.644531 21.324219 20.550781 26.949219 20.449219 28.191406 L 4.550781 28.191406 C 4.449219 26.949219 4.355469 21.324219 10.476562 17.957031 L 10.992188 17.671875 L 10.992188 14.285156 L 10.476562 14 C 4.429688 10.671875 4.449219 5.140625 4.546875 3.808594 L 20.453125 3.808594 C 20.550781 5.140625 20.570312 10.671875 14.523438 14 L 14.007812 14.285156 L 14.007812 17.671875 Z M 14.523438 17.957031 "/>
</clipPath>
</defs>
<g id="surface1">
<g clip-path="url(#clip1)" clip-rule="nonzero">
<rect x="0" y="0" width="25" height="32" style="fill:rgb(34.901428%,34.901428%,34.901428%);fill-opacity:1;stroke:none;"/>
</g>
</g>
</svg>
