<?xml version="1.0" encoding="UTF-8"?>
<svg xmlns="http://www.w3.org/2000/svg" xmlns:xlink="http://www.w3.org/1999/xlink" width="32pt" height="32pt" viewBox="0 0 32 32" version="1.1">
<defs>
<clipPath id="clip1">
  <path d="M 16 32 C 24.835938 32 32 24.835938 32 16 C 32 7.164062 24.835938 0 16 0 C 7.164062 0 0 7.164062 0 16 C 0 24.835938 7.164062 32 16 32 Z M 16 32 "/>
</clipPath>
<clipPath id="clip2">
  <path d="M 4 14 L 17 14 L 17 27 L 4 27 Z M 4 14 "/>
</clipPath>
<clipPath id="clip3">
  <path d="M 4 18.53125 C 4.371094 18.1875 4.738281 17.839844 5.117188 17.5 C 6.554688 16.203125 8.175781 15.222656 10.058594 14.710938 C 11.449219 14.332031 12.851562 14.222656 14.234375 14.75 C 15.671875 15.300781 16.59375 16.671875 16.621094 18.214844 C 16.652344 20.019531 15.96875 21.574219 14.96875 23.019531 C 14.097656 24.277344 13.011719 25.320312 11.761719 26.191406 C 11.652344 26.269531 11.5 26.316406 11.367188 26.320312 C 10.460938 26.332031 9.554688 26.324219 8.574219 26.324219 C 8.8125 26.144531 9 26.003906 9.191406 25.863281 C 10.875 24.578125 12.320312 23.074219 13.398438 21.238281 C 13.917969 20.355469 14.3125 19.421875 14.457031 18.402344 C 14.652344 16.996094 14.160156 15.785156 12.820312 15.3125 C 12 15.027344 11.15625 15.058594 10.324219 15.230469 C 8.019531 15.703125 6.078125 16.890625 4.296875 18.371094 C 4.210938 18.441406 4.128906 18.507812 4.042969 18.578125 C 4.03125 18.5625 4.015625 18.546875 4 18.53125 "/>
</clipPath>
<clipPath id="clip4">
  <path d="M 4 18 L 13 18 L 13 24 L 4 24 Z M 4 18 "/>
</clipPath>
<clipPath id="clip5">
  <path d="M 12.007812 18.199219 C 11.949219 18.285156 11.902344 18.386719 11.832031 18.460938 C 10.539062 19.820312 9.722656 21.453125 9.105469 23.203125 C 8.980469 23.554688 8.851562 23.617188 8.476562 23.496094 C 8.046875 23.363281 7.621094 23.203125 7.183594 23.113281 C 6.40625 22.953125 5.632812 23.039062 4.863281 23.214844 C 4.667969 23.261719 4.453125 23.238281 4.25 23.246094 C 4.367188 23.082031 4.460938 22.894531 4.605469 22.761719 C 5.800781 21.710938 6.796875 20.511719 7.34375 18.988281 C 7.402344 18.824219 7.46875 18.660156 7.5 18.488281 C 7.550781 18.214844 7.738281 18.183594 7.9375 18.269531 C 9.179688 18.808594 10.40625 18.601562 11.628906 18.195312 C 11.734375 18.160156 11.851562 18.152344 11.964844 18.128906 C 11.980469 18.152344 11.992188 18.175781 12.007812 18.199219 "/>
</clipPath>
<clipPath id="clip6">
  <path d="M 18 14 L 28 14 L 28 27 L 18 27 Z M 18 14 "/>
</clipPath>
<clipPath id="clip7">
  <path d="M 20.921875 14.667969 L 20.539062 15.324219 C 21.554688 15.167969 22.480469 15.113281 23.164062 15.324219 C 24.855469 15.761719 25.574219 16.984375 24.859375 19.367188 C 24.40625 20.742188 23.667969 21.921875 22.699219 22.949219 C 21.90625 24.03125 20.285156 25.207031 18.570312 26.394531 L 21.878906 26.394531 C 23.902344 25.027344 25.609375 23.386719 26.660156 21.171875 C 27.710938 18.902344 27.449219 17.089844 26.113281 15.652344 C 24.695312 14.574219 22.765625 14.429688 20.921875 14.667969 "/>
</clipPath>
<clipPath id="clip8">
  <path d="M 8 6 L 22 6 L 22 18 L 8 18 Z M 8 6 "/>
</clipPath>
<clipPath id="clip9">
  <path d="M 16.691406 15.597656 C 17.175781 16.277344 17.457031 16.992188 17.347656 17.78125 C 19.015625 16.238281 20.675781 14.691406 21.101562 13.082031 C 22.3125 9.472656 21.628906 7.390625 19.535156 6.445312 C 18.089844 5.953125 16.59375 5.96875 15.050781 6.445312 C 13.582031 6.828125 12.144531 7.839844 10.714844 8.929688 L 8.746094 10.929688 C 11.195312 8.777344 13.746094 7.023438 16.691406 6.847656 C 18.574219 7.011719 19.859375 7.789062 19.460938 10.273438 C 19.320312 12.199219 18.105469 13.917969 16.691406 15.597656 "/>
</clipPath>
<clipPath id="clip10">
  <path d="M 10 9 L 18 9 L 18 15 L 10 15 Z M 10 9 "/>
</clipPath>
<clipPath id="clip11">
  <path d="M 17.066406 10.019531 C 17.011719 10.109375 16.96875 10.210938 16.902344 10.289062 C 15.671875 11.707031 15.851562 12.046875 15.316406 13.820312 C 15.210938 14.179688 15.085938 14.246094 14.703125 14.144531 C 14.269531 14.03125 13.835938 13.890625 13.394531 13.820312 C 12.613281 13.699219 11.082031 13.863281 11.082031 13.863281 C 11.082031 13.863281 10.738281 13.996094 10.535156 14.015625 C 10.644531 13.847656 10.726562 13.652344 10.867188 13.515625 C 12.015625 12.410156 12.210938 11.992188 12.6875 10.445312 C 12.738281 10.277344 12.796875 10.109375 12.824219 9.941406 C 12.863281 9.660156 13.046875 9.621094 13.25 9.699219 C 14.515625 10.179688 15.484375 10.496094 16.6875 10.035156 C 16.792969 9.996094 16.90625 9.980469 17.019531 9.953125 C 17.035156 9.976562 17.050781 9.996094 17.066406 10.019531 "/>
</clipPath>
<clipPath id="clip12">
  <path d="M 15 17 L 22 17 L 22 24 L 15 24 Z M 15 17 "/>
</clipPath>
<clipPath id="clip13">
  <path d="M 22 17.480469 C 21.960938 17.582031 21.9375 17.6875 21.882812 17.773438 C 20.902344 19.375 21.015625 20.234375 20.78125 22.074219 C 20.730469 22.445312 20.617188 22.53125 20.226562 22.492188 C 19.777344 22.453125 19.328125 22.382812 18.878906 22.386719 C 18.089844 22.394531 17.351562 22.636719 16.636719 22.96875 C 16.453125 23.054688 16.15625 23.242188 15.957031 23.292969 C 16.039062 23.109375 16.089844 22.902344 16.203125 22.746094 C 17.15625 21.464844 17.382812 20.582031 17.601562 18.976562 C 17.625 18.804688 17.65625 18.632812 17.652344 18.457031 C 17.644531 18.175781 17.820312 18.109375 18.03125 18.152344 C 19.363281 18.417969 20.515625 18.210938 21.628906 17.558594 C 21.726562 17.5 21.839844 17.46875 21.945312 17.425781 C 21.960938 17.445312 21.980469 17.464844 22 17.480469 "/>
</clipPath>
</defs>
<g id="surface1">
<g clip-path="url(#clip1)" clip-rule="evenodd">
<rect x="0" y="0" width="32" height="32" style="fill:rgb(100%,100%,100%);fill-opacity:1;stroke:none;"/>
</g>
<g clip-path="url(#clip2)" clip-rule="nonzero">
<g clip-path="url(#clip3)" clip-rule="nonzero">
<path style=" stroke:none;fill-rule:nonzero;fill:rgb(14.901733%,35.68573%,65.098572%);fill-opacity:1;" d="M -1 9.390625 L 21.621094 9.390625 L 21.621094 31.328125 L -1 31.328125 Z M -1 9.390625 "/>
</g>
</g>
<g clip-path="url(#clip4)" clip-rule="nonzero">
<g clip-path="url(#clip5)" clip-rule="nonzero">
<path style=" stroke:none;fill-rule:nonzero;fill:rgb(14.901733%,35.68573%,65.098572%);fill-opacity:1;" d="M -0.75 13.128906 L 17.007812 13.128906 L 17.007812 28.554688 L -0.75 28.554688 Z M -0.75 13.128906 "/>
</g>
</g>
<g clip-path="url(#clip6)" clip-rule="nonzero">
<g clip-path="url(#clip7)" clip-rule="nonzero">
<path style=" stroke:none;fill-rule:nonzero;fill:rgb(26.66626%,57.255554%,56.471252%);fill-opacity:1;" d="M 13.570312 9.570312 L 32.308594 9.570312 L 32.308594 31.394531 L 13.570312 31.394531 Z M 13.570312 9.570312 "/>
</g>
</g>
<g clip-path="url(#clip8)" clip-rule="nonzero">
<g clip-path="url(#clip9)" clip-rule="nonzero">
<path style=" stroke:none;fill-rule:nonzero;fill:rgb(26.66626%,57.255554%,56.471252%);fill-opacity:1;" d="M 3.746094 1.082031 L 26.699219 1.082031 L 26.699219 22.78125 L 3.746094 22.78125 Z M 3.746094 1.082031 "/>
</g>
</g>
<g clip-path="url(#clip10)" clip-rule="nonzero">
<g clip-path="url(#clip11)" clip-rule="nonzero">
<path style=" stroke:none;fill-rule:nonzero;fill:rgb(26.66626%,57.255554%,56.471252%);fill-opacity:1;" d="M 5.535156 4.664062 L 22.066406 4.664062 L 22.066406 19.1875 L 5.535156 19.1875 Z M 5.535156 4.664062 "/>
</g>
</g>
<g clip-path="url(#clip12)" clip-rule="nonzero">
<g clip-path="url(#clip13)" clip-rule="nonzero">
<path style=" stroke:none;fill-rule:nonzero;fill:rgb(26.66626%,57.255554%,56.471252%);fill-opacity:1;" d="M 10.957031 12.425781 L 27 12.425781 L 27 28.292969 L 10.957031 28.292969 Z M 10.957031 12.425781 "/>
</g>
</g>
</g>
</svg>
