<svg width="24" height="24" viewBox="0 0 24 24" fill="none" xmlns="http://www.w3.org/2000/svg">
<path d="M4.7998 1H19.0952L19.3815 1.00593L19.639 1.01609C20.2506 1.04913 20.619 1.1296 20.9282 1.25496L21.0493 1.30832L21.1662 1.36507L21.2247 1.39557C21.7075 1.65391 22.0869 2.03338 22.3453 2.51619L22.3758 2.57464L22.4325 2.69153L22.4859 2.81265C22.6028 3.10065 22.6807 3.442 22.718 3.98241L22.7307 4.2272L22.7349 4.35934L22.7408 4.64564V18.9402L22.7383 19.2409C22.7383 19.2892 22.7366 19.3358 22.7349 19.3807L22.7248 19.6382C22.6917 20.2497 22.6113 20.6182 22.4859 20.9273L22.4325 21.0485L22.3758 21.1654L22.3453 21.2238C22.0869 21.7066 21.7075 22.0861 21.2247 22.3444L21.1662 22.3749L21.0493 22.4317L20.9282 22.485C20.6402 22.6019 20.2988 22.6799 19.7584 22.7171L19.5136 22.7298L19.3815 22.7341L19.0952 22.74H4.7998L4.4991 22.7375C4.45082 22.7375 4.40423 22.7358 4.35934 22.7341L4.10184 22.7239C3.49028 22.6909 3.12182 22.6104 2.81266 22.485L2.69153 22.4317L2.57464 22.3749L2.51619 22.3444C2.03338 22.0861 1.65391 21.7066 1.39557 21.2238L1.36507 21.1654L1.30832 21.0485L1.25496 20.9273C1.13807 20.6394 1.06014 20.298 1.02287 19.7576L1.01016 19.5128L1.00593 19.3807L1 19.0944V4.64564L1.00593 4.35934L1.01609 4.10184C1.04913 3.49028 1.1296 3.12182 1.25496 2.81265L1.30832 2.69153L1.36507 2.57464L1.39557 2.51619C1.65391 2.03338 2.03338 1.65391 2.51619 1.39557L2.57464 1.36507L2.69153 1.30832L2.81266 1.25496C3.10065 1.13807 3.442 1.06014 3.98241 1.02287L4.2272 1.01016L4.35934 1.00593L4.64564 1H4.7998Z" fill="#E92004"/>
<path d="M12.011 5.39999L8.12798 17.335L18.292 9.96499H5.72998L15.894 17.335L12.011 5.39999Z" fill="#FFFF00"/>
</svg>
