<svg width="48" height="48" viewBox="0 0 48 48" fill="none" xmlns="http://www.w3.org/2000/svg">
<path fill-rule="evenodd" clip-rule="evenodd" d="M46.8371 17.1243L40.7042 4.84808C40.4072 4.32655 39.9904 4 39.3324 4H8.66753C8.02643 4 7.59774 4.31836 7.29579 4.84808L1.16282 17.1243C0.878859 17.7279 0.976067 18.3344 1.37849 18.8184L22.8439 43.4731C23.1352 43.8077 23.5564 44 24 44C24.4436 44 24.8647 43.8077 25.156 43.4731L46.6215 18.8184C47.0213 18.3369 47.1228 17.731 46.8371 17.1243ZM41.1278 17.369L36.5281 8.1174C36.3054 7.72435 35.9928 7.47826 35.4993 7.47826H12.5007C12.0198 7.47826 11.6983 7.71819 11.4718 8.1174L6.87211 17.369C6.65914 17.8239 6.73205 18.281 7.03387 18.6458L23.1329 37.2261C23.3514 37.4782 23.6673 37.6232 24 37.6232C24.3327 37.6232 24.6485 37.4782 24.867 37.2261L40.9661 18.6458C41.266 18.2829 41.3421 17.8263 41.1278 17.369ZM33.6387 9.79117L30.7033 15.6953L26.2998 9.79117H33.6387ZM28.5997 16.7299H19.4002L24 10.5621L28.5997 16.7299ZM21.7001 9.79117L17.2966 15.6953L14.3612 9.79117H21.7001ZM12.5007 11.2205L15.2398 16.7299H9.76151L12.5007 11.2205ZM10.4285 19.0428H16.3407L22.0098 32.4099L10.4285 19.0428ZM24 31.2064L18.8414 19.0428H29.1586L24 31.2064ZM25.9901 32.4099L31.6593 19.0428H37.5715L25.9901 32.4099ZM32.7602 16.7299L35.4993 11.2205L38.2384 16.7299H32.7602Z" fill="white"/>
</svg>
