<svg width="22" height="24" viewBox="0 0 22 24" fill="none" xmlns="http://www.w3.org/2000/svg">
<path d="M5.54234 4.72C5.06234 5.22 4.46234 5.68 3.74234 6.12C3.02234 6.52 2.34234 6.8 1.70234 6.96V9.28C3.02234 8.9 4.10234 8.32 4.96234 7.54V19H7.30234V4.72H5.54234ZM15.1055 4.44C13.4255 4.44 12.1255 5.12 11.2055 6.52C10.3255 7.84 9.88547 9.62 9.88547 11.86C9.88547 14.1 10.3255 15.88 11.2055 17.2C12.1255 18.58 13.4255 19.28 15.1055 19.28C16.7655 19.28 18.0655 18.58 19.0055 17.2C19.8855 15.88 20.3255 14.1 20.3255 11.86C20.3255 9.62 19.8855 7.84 19.0055 6.52C18.0655 5.12 16.7655 4.44 15.1055 4.44ZM15.1055 6.42C16.2255 6.42 17.0255 7.04 17.5055 8.32C17.8255 9.18 17.9855 10.36 17.9855 11.86C17.9855 13.34 17.8255 14.52 17.5055 15.4C17.0255 16.66 16.2255 17.3 15.1055 17.3C13.9655 17.3 13.1655 16.66 12.7055 15.4C12.3855 14.52 12.2255 13.34 12.2255 11.86C12.2255 10.36 12.3855 9.18 12.7055 8.32C13.1655 7.04 13.9655 6.42 15.1055 6.42Z" fill="#D90101"/>
</svg>
