<svg width="292" height="239" viewBox="0 0 292 239" fill="none" xmlns="http://www.w3.org/2000/svg">
<g clip-path="url(#clip0_3274_33078)">
<path d="M7.532 213.572H13.468V212.82H7.532V213.572ZM7.484 211.356L7.796 212.116L13.732 209.708V209.684L7.796 207.276L7.484 208.036L11.58 209.684V209.708L7.484 211.356ZM16.364 213.596C17.308 213.596 18.084 213.004 18.084 211.98C18.084 211.172 17.66 210.684 17.164 210.5V210.468C17.652 210.22 17.948 209.788 17.948 209.116C17.948 208.164 17.308 207.612 16.332 207.612C15.732 207.612 15.22 207.9 14.764 208.348L15.38 209.06C15.676 208.74 15.924 208.54 16.22 208.54C16.612 208.54 16.836 208.788 16.836 209.228C16.836 209.732 16.54 210.116 15.74 210.116V210.956C16.684 210.956 16.964 211.308 16.964 211.884C16.964 212.388 16.636 212.636 16.212 212.636C15.844 212.636 15.5 212.404 15.22 212.036L14.636 212.772C14.996 213.244 15.548 213.596 16.364 213.596ZM20.5 213.596C21.516 213.596 22.188 212.612 22.188 210.564C22.188 208.524 21.516 207.612 20.5 207.612C19.492 207.612 18.812 208.524 18.812 210.564C18.812 212.612 19.492 213.596 20.5 213.596ZM20.5 212.684C20.188 212.684 19.932 212.236 19.932 210.564C19.932 208.892 20.188 208.516 20.5 208.516C20.812 208.516 21.068 208.892 21.068 210.564C21.068 212.236 20.812 212.684 20.5 212.684ZM24.5 213.596C25.516 213.596 26.188 212.612 26.188 210.564C26.188 208.524 25.516 207.612 24.5 207.612C23.492 207.612 22.812 208.524 22.812 210.564C22.812 212.612 23.492 213.596 24.5 213.596ZM24.5 212.684C24.188 212.684 23.932 212.236 23.932 210.564C23.932 208.892 24.188 208.516 24.5 208.516C24.812 208.516 25.068 208.892 25.068 210.564C25.068 212.236 24.812 212.684 24.5 212.684Z" fill="#4D4C4D"/>
<path fill-rule="evenodd" clip-rule="evenodd" d="M0 203.128H36V159.421V37.4995H0V203.128Z" fill="#FBEDCA"/>
<path fill-rule="evenodd" clip-rule="evenodd" d="M0 203.5H36V173.5H0V203.5Z" fill="#F2B819"/>
<path d="M15.33 189.62C16.51 189.62 17.48 188.88 17.48 187.6C17.48 186.59 16.95 185.98 16.33 185.75V185.71C16.94 185.4 17.31 184.86 17.31 184.02C17.31 182.83 16.51 182.14 15.29 182.14C14.54 182.14 13.9 182.5 13.33 183.06L14.1 183.95C14.47 183.55 14.78 183.3 15.15 183.3C15.64 183.3 15.92 183.61 15.92 184.16C15.92 184.79 15.55 185.27 14.55 185.27V186.32C15.73 186.32 16.08 186.76 16.08 187.48C16.08 188.11 15.67 188.42 15.14 188.42C14.68 188.42 14.25 188.13 13.9 187.67L13.17 188.59C13.62 189.18 14.31 189.62 15.33 189.62ZM20.5 189.62C21.77 189.62 22.61 188.39 22.61 185.83C22.61 183.28 21.77 182.14 20.5 182.14C19.24 182.14 18.39 183.28 18.39 185.83C18.39 188.39 19.24 189.62 20.5 189.62ZM20.5 188.48C20.11 188.48 19.79 187.92 19.79 185.83C19.79 183.74 20.11 183.27 20.5 183.27C20.89 183.27 21.21 183.74 21.21 185.83C21.21 187.92 20.89 188.48 20.5 188.48Z" fill="#FEFEFE"/>
<path d="M49.032 213.572H54.968V212.82H49.032V213.572ZM48.984 211.356L49.296 212.116L55.232 209.708V209.684L49.296 207.276L48.984 208.036L53.08 209.684V209.708L48.984 211.356ZM57.92 210.46C57.632 210.46 57.424 210.164 57.424 209.516C57.424 208.836 57.616 208.508 57.92 208.508C58.24 208.508 58.512 208.9 58.576 209.988C58.368 210.34 58.128 210.46 57.92 210.46ZM56.376 212.932C56.656 213.292 57.112 213.596 57.696 213.596C58.784 213.596 59.68 212.66 59.68 210.444C59.68 208.516 58.816 207.612 57.888 207.612C57.048 207.612 56.328 208.332 56.328 209.516C56.328 210.732 56.928 211.308 57.648 211.308C58.016 211.308 58.328 211.124 58.576 210.812C58.512 212.18 58.104 212.636 57.68 212.636C57.424 212.636 57.16 212.46 57.008 212.22L56.376 212.932ZM62 213.596C63.016 213.596 63.688 212.612 63.688 210.564C63.688 208.524 63.016 207.612 62 207.612C60.992 207.612 60.312 208.524 60.312 210.564C60.312 212.612 60.992 213.596 62 213.596ZM62 212.684C61.688 212.684 61.432 212.236 61.432 210.564C61.432 208.892 61.688 208.516 62 208.516C62.312 208.516 62.568 208.892 62.568 210.564C62.568 212.236 62.312 212.684 62 212.684ZM66 213.596C67.016 213.596 67.688 212.612 67.688 210.564C67.688 208.524 67.016 207.612 66 207.612C64.992 207.612 64.312 208.524 64.312 210.564C64.312 212.612 64.992 213.596 66 213.596ZM66 212.684C65.688 212.684 65.432 212.236 65.432 210.564C65.432 208.892 65.688 208.516 66 208.516C66.312 208.516 66.568 208.892 66.568 210.564C66.568 212.236 66.312 212.684 66 212.684Z" fill="#4D4C4D"/>
<path fill-rule="evenodd" clip-rule="evenodd" d="M41.5 203.128H77.5V37.4995H41.5V203.128Z" fill="#FBEDCA"/>
<path fill-rule="evenodd" clip-rule="evenodd" d="M41.5 203.5H77.5V153.5H41.5V203.5Z" fill="#F2B819"/>
<path d="M56.9 165.7C56.54 165.7 56.28 165.33 56.28 164.52C56.28 163.67 56.52 163.26 56.9 163.26C57.3 163.26 57.64 163.75 57.72 165.11C57.46 165.55 57.16 165.7 56.9 165.7ZM54.97 168.79C55.32 169.24 55.89 169.62 56.62 169.62C57.98 169.62 59.1 168.45 59.1 165.68C59.1 163.27 58.02 162.14 56.86 162.14C55.81 162.14 54.91 163.04 54.91 164.52C54.91 166.04 55.66 166.76 56.56 166.76C57.02 166.76 57.41 166.53 57.72 166.14C57.64 167.85 57.13 168.42 56.6 168.42C56.28 168.42 55.95 168.2 55.76 167.9L54.97 168.79ZM62 169.62C63.27 169.62 64.11 168.39 64.11 165.83C64.11 163.28 63.27 162.14 62 162.14C60.74 162.14 59.89 163.28 59.89 165.83C59.89 168.39 60.74 169.62 62 169.62ZM62 168.48C61.61 168.48 61.29 167.92 61.29 165.83C61.29 163.74 61.61 163.27 62 163.27C62.39 163.27 62.71 163.74 62.71 165.83C62.71 167.92 62.39 168.48 62 168.48Z" fill="#FEFEFE"/>
<path d="M85.532 213.572H91.468V212.82H85.532V213.572ZM85.484 211.356L85.796 212.116L91.732 209.708V209.684L85.796 207.276L85.484 208.036L89.58 209.684V209.708L85.484 211.356ZM94.364 213.596C95.308 213.596 96.084 213.004 96.084 211.98C96.084 211.172 95.66 210.684 95.164 210.5V210.468C95.652 210.22 95.948 209.788 95.948 209.116C95.948 208.164 95.308 207.612 94.332 207.612C93.732 207.612 93.22 207.9 92.764 208.348L93.38 209.06C93.676 208.74 93.924 208.54 94.22 208.54C94.612 208.54 94.836 208.788 94.836 209.228C94.836 209.732 94.54 210.116 93.74 210.116V210.956C94.684 210.956 94.964 211.308 94.964 211.884C94.964 212.388 94.636 212.636 94.212 212.636C93.844 212.636 93.5 212.404 93.22 212.036L92.636 212.772C92.996 213.244 93.548 213.596 94.364 213.596ZM97.86 215.212C98.82 214.892 99.364 214.156 99.364 213.228C99.364 212.508 99.052 212.068 98.516 212.068C98.1 212.068 97.756 212.332 97.756 212.764C97.756 213.212 98.108 213.476 98.5 213.476C98.524 213.476 98.548 213.476 98.572 213.476C98.556 213.932 98.212 214.34 97.596 214.564L97.86 215.212ZM102.5 213.596C103.516 213.596 104.188 212.612 104.188 210.564C104.188 208.524 103.516 207.612 102.5 207.612C101.492 207.612 100.812 208.524 100.812 210.564C100.812 212.612 101.492 213.596 102.5 213.596ZM102.5 212.684C102.188 212.684 101.932 212.236 101.932 210.564C101.932 208.892 102.188 208.516 102.5 208.516C102.812 208.516 103.068 208.892 103.068 210.564C103.068 212.236 102.812 212.684 102.5 212.684ZM106.5 213.596C107.516 213.596 108.188 212.612 108.188 210.564C108.188 208.524 107.516 207.612 106.5 207.612C105.492 207.612 104.812 208.524 104.812 210.564C104.812 212.612 105.492 213.596 106.5 213.596ZM106.5 212.684C106.188 212.684 105.932 212.236 105.932 210.564C105.932 208.892 106.188 208.516 106.5 208.516C106.812 208.516 107.068 208.892 107.068 210.564C107.068 212.236 106.812 212.684 106.5 212.684ZM110.5 213.596C111.516 213.596 112.188 212.612 112.188 210.564C112.188 208.524 111.516 207.612 110.5 207.612C109.492 207.612 108.812 208.524 108.812 210.564C108.812 212.612 109.492 213.596 110.5 213.596ZM110.5 212.684C110.188 212.684 109.932 212.236 109.932 210.564C109.932 208.892 110.188 208.516 110.5 208.516C110.812 208.516 111.068 208.892 111.068 210.564C111.068 212.236 110.812 212.684 110.5 212.684Z" fill="#4D4C4D"/>
<path fill-rule="evenodd" clip-rule="evenodd" d="M83 203.128H119V37.4995H83V203.128Z" fill="#FBEDCA"/>
<path fill-rule="evenodd" clip-rule="evenodd" d="M83 203.5H119V133.5H83V203.5Z" fill="#F2B819"/>
<path d="M93.87 149.5H98.13V148.28H96.9C96.55 148.28 96.22 148.31 95.83 148.35C96.93 146.93 97.85 145.58 97.85 144.31C97.85 142.99 97.05 142.12 95.87 142.12C94.99 142.12 94.4 142.5 93.79 143.17L94.62 143.99C94.91 143.61 95.26 143.29 95.68 143.29C96.17 143.29 96.43 143.7 96.43 144.39C96.43 145.64 95.42 146.92 93.87 148.66V149.5ZM101.1 148.5C100.7 148.5 100.36 148.01 100.28 146.65C100.54 146.21 100.84 146.06 101.1 146.06C101.46 146.06 101.72 146.42 101.72 147.24C101.72 148.09 101.48 148.5 101.1 148.5ZM103.03 142.97C102.68 142.52 102.11 142.14 101.38 142.14C100.02 142.14 98.9 143.31 98.9 146.07C98.9 148.48 99.98 149.62 101.14 149.62C102.19 149.62 103.09 148.72 103.09 147.24C103.09 145.72 102.34 145 101.44 145C100.98 145 100.59 145.23 100.28 145.62C100.36 143.91 100.87 143.34 101.4 143.34C101.72 143.34 102.05 143.56 102.24 143.85L103.03 142.97ZM106 149.62C107.27 149.62 108.11 148.39 108.11 145.83C108.11 143.28 107.27 142.14 106 142.14C104.74 142.14 103.89 143.28 103.89 145.83C103.89 148.39 104.74 149.62 106 149.62ZM106 148.48C105.61 148.48 105.29 147.92 105.29 145.83C105.29 143.74 105.61 143.27 106 143.27C106.39 143.27 106.71 143.74 106.71 145.83C106.71 147.92 106.39 148.48 106 148.48Z" fill="#FEFEFE"/>
<path d="M127.113 213.075H133.049V212.323H127.113V213.075ZM127.065 210.859L127.377 211.619L133.313 209.211V209.187L127.377 206.779L127.065 207.539L131.161 209.187V209.211L127.065 210.859ZM136.001 209.963C135.713 209.963 135.505 209.667 135.505 209.019C135.505 208.339 135.697 208.011 136.001 208.011C136.321 208.011 136.593 208.403 136.657 209.491C136.449 209.843 136.209 209.963 136.001 209.963ZM134.457 212.435C134.737 212.795 135.193 213.099 135.777 213.099C136.865 213.099 137.761 212.163 137.761 209.947C137.761 208.019 136.897 207.115 135.969 207.115C135.129 207.115 134.409 207.835 134.409 209.019C134.409 210.235 135.009 210.811 135.729 210.811C136.097 210.811 136.409 210.627 136.657 210.315C136.593 211.683 136.185 212.139 135.761 212.139C135.505 212.139 135.241 211.963 135.089 211.723L134.457 212.435ZM139.441 214.715C140.401 214.395 140.945 213.659 140.945 212.731C140.945 212.011 140.633 211.571 140.097 211.571C139.681 211.571 139.337 211.835 139.337 212.267C139.337 212.715 139.689 212.979 140.081 212.979C140.105 212.979 140.129 212.979 140.153 212.979C140.137 213.435 139.793 213.843 139.177 214.067L139.441 214.715ZM144.081 213.099C145.097 213.099 145.769 212.115 145.769 210.067C145.769 208.027 145.097 207.115 144.081 207.115C143.073 207.115 142.393 208.027 142.393 210.067C142.393 212.115 143.073 213.099 144.081 213.099ZM144.081 212.187C143.769 212.187 143.513 211.739 143.513 210.067C143.513 208.395 143.769 208.019 144.081 208.019C144.393 208.019 144.649 208.395 144.649 210.067C144.649 211.739 144.393 212.187 144.081 212.187ZM148.081 213.099C149.097 213.099 149.769 212.115 149.769 210.067C149.769 208.027 149.097 207.115 148.081 207.115C147.073 207.115 146.393 208.027 146.393 210.067C146.393 212.115 147.073 213.099 148.081 213.099ZM148.081 212.187C147.769 212.187 147.513 211.739 147.513 210.067C147.513 208.395 147.769 208.019 148.081 208.019C148.393 208.019 148.649 208.395 148.649 210.067C148.649 211.739 148.393 212.187 148.081 212.187ZM152.081 213.099C153.097 213.099 153.769 212.115 153.769 210.067C153.769 208.027 153.097 207.115 152.081 207.115C151.073 207.115 150.393 208.027 150.393 210.067C150.393 212.115 151.073 213.099 152.081 213.099ZM152.081 212.187C151.769 212.187 151.513 211.739 151.513 210.067C151.513 208.395 151.769 208.019 152.081 208.019C152.393 208.019 152.649 208.395 152.649 210.067C152.649 211.739 152.393 212.187 152.081 212.187Z" fill="#4D4C4D"/>
<path fill-rule="evenodd" clip-rule="evenodd" d="M124.5 203.128H160.5V37.4995H124.5V203.128Z" fill="#FBEDCA"/>
<path fill-rule="evenodd" clip-rule="evenodd" d="M124.5 203.003H160.5V113.003H124.5V203.003Z" fill="#F2B819"/>
<path d="M137.581 129.123C138.941 129.123 139.711 128.283 139.711 127.203C139.711 126.263 139.211 125.693 138.641 125.273V125.233C139.091 124.843 139.471 124.273 139.471 123.503C139.471 122.413 138.731 121.643 137.611 121.643C136.431 121.643 135.611 122.383 135.611 123.513C135.611 124.263 136.001 124.883 136.461 125.293V125.333C135.901 125.773 135.451 126.263 135.451 127.223C135.451 128.323 136.281 129.123 137.581 129.123ZM137.801 124.783C137.301 124.493 136.951 124.073 136.951 123.503C136.951 122.963 137.211 122.673 137.581 122.673C137.991 122.673 138.241 123.063 138.241 123.583C138.241 124.033 138.091 124.423 137.801 124.783ZM137.591 128.103C137.101 128.103 136.761 127.733 136.761 127.153C136.761 126.583 136.981 126.173 137.261 125.853C137.911 126.273 138.281 126.623 138.281 127.283C138.281 127.793 138.051 128.103 137.591 128.103ZM142.581 129.123C143.851 129.123 144.691 127.893 144.691 125.333C144.691 122.783 143.851 121.643 142.581 121.643C141.321 121.643 140.471 122.783 140.471 125.333C140.471 127.893 141.321 129.123 142.581 129.123ZM142.581 127.983C142.191 127.983 141.871 127.423 141.871 125.333C141.871 123.243 142.191 122.773 142.581 122.773C142.971 122.773 143.291 123.243 143.291 125.333C143.291 127.423 142.971 127.983 142.581 127.983ZM147.581 129.123C148.851 129.123 149.691 127.893 149.691 125.333C149.691 122.783 148.851 121.643 147.581 121.643C146.321 121.643 145.471 122.783 145.471 125.333C145.471 127.893 146.321 129.123 147.581 129.123ZM147.581 127.983C147.191 127.983 146.871 127.423 146.871 125.333C146.871 123.243 147.191 122.773 147.581 122.773C147.971 122.773 148.291 123.243 148.291 125.333C148.291 127.423 147.971 127.983 147.581 127.983Z" fill="#FEFEFE"/>
<path d="M167.032 213.572H172.968V212.82H167.032V213.572ZM166.984 211.356L167.296 212.116L173.232 209.708V209.684L167.296 207.276L166.984 208.036L171.08 209.684V209.708L166.984 211.356ZM174.384 213.5H177.704V212.548H176.712V207.708H175.848C175.488 207.948 175.128 208.1 174.568 208.204V208.94H175.536V212.548H174.384V213.5ZM179.872 213.596C180.8 213.596 181.6 212.884 181.6 211.604C181.6 210.372 180.904 209.804 180.184 209.804C180 209.804 179.848 209.844 179.688 209.908L179.792 208.7H181.424V207.708H178.776L178.624 210.54L179.16 210.884C179.4 210.708 179.528 210.636 179.752 210.636C180.128 210.636 180.424 211.004 180.424 211.628C180.424 212.284 180.128 212.636 179.712 212.636C179.32 212.636 179.016 212.42 178.776 212.156L178.224 212.884C178.608 213.292 179.112 213.596 179.872 213.596ZM183.36 215.212C184.32 214.892 184.864 214.156 184.864 213.228C184.864 212.508 184.552 212.068 184.016 212.068C183.6 212.068 183.256 212.332 183.256 212.764C183.256 213.212 183.608 213.476 184 213.476C184.024 213.476 184.048 213.476 184.072 213.476C184.056 213.932 183.712 214.34 183.096 214.564L183.36 215.212ZM188 213.596C189.016 213.596 189.688 212.612 189.688 210.564C189.688 208.524 189.016 207.612 188 207.612C186.992 207.612 186.312 208.524 186.312 210.564C186.312 212.612 186.992 213.596 188 213.596ZM188 212.684C187.688 212.684 187.432 212.236 187.432 210.564C187.432 208.892 187.688 208.516 188 208.516C188.312 208.516 188.568 208.892 188.568 210.564C188.568 212.236 188.312 212.684 188 212.684ZM192 213.596C193.016 213.596 193.688 212.612 193.688 210.564C193.688 208.524 193.016 207.612 192 207.612C190.992 207.612 190.312 208.524 190.312 210.564C190.312 212.612 190.992 213.596 192 213.596ZM192 212.684C191.688 212.684 191.432 212.236 191.432 210.564C191.432 208.892 191.688 208.516 192 208.516C192.312 208.516 192.568 208.892 192.568 210.564C192.568 212.236 192.312 212.684 192 212.684ZM196 213.596C197.016 213.596 197.688 212.612 197.688 210.564C197.688 208.524 197.016 207.612 196 207.612C194.992 207.612 194.312 208.524 194.312 210.564C194.312 212.612 194.992 213.596 196 213.596ZM196 212.684C195.688 212.684 195.432 212.236 195.432 210.564C195.432 208.892 195.688 208.516 196 208.516C196.312 208.516 196.568 208.892 196.568 210.564C196.568 212.236 196.312 212.684 196 212.684Z" fill="#4D4C4D"/>
<path fill-rule="evenodd" clip-rule="evenodd" d="M167 203.128H203V37.4995H167V203.128Z" fill="#FBEDCA"/>
<path fill-rule="evenodd" clip-rule="evenodd" d="M167 203.5H203V93.4995H167V203.5Z" fill="#F2B819"/>
<path d="M172.98 109.5H177.13V108.31H175.89V102.26H174.81C174.36 102.56 173.91 102.75 173.21 102.88V103.8H174.42V108.31H172.98V109.5ZM179.2 111.64C180.4 111.24 181.08 110.32 181.08 109.16C181.08 108.26 180.69 107.71 180.02 107.71C179.5 107.71 179.07 108.04 179.07 108.58C179.07 109.14 179.51 109.47 180 109.47C180.03 109.47 180.06 109.47 180.09 109.47C180.07 110.04 179.64 110.55 178.87 110.83L179.2 111.64ZM182.87 109.5H187.13V108.28H185.9C185.55 108.28 185.22 108.31 184.83 108.35C185.93 106.93 186.85 105.58 186.85 104.31C186.85 102.99 186.05 102.12 184.87 102.12C183.99 102.12 183.4 102.5 182.79 103.17L183.62 103.99C183.91 103.61 184.26 103.29 184.68 103.29C185.17 103.29 185.43 103.7 185.43 104.39C185.43 105.64 184.42 106.92 182.87 108.66V109.5ZM190 109.62C191.27 109.62 192.11 108.39 192.11 105.83C192.11 103.28 191.27 102.14 190 102.14C188.74 102.14 187.89 103.28 187.89 105.83C187.89 108.39 188.74 109.62 190 109.62ZM190 108.48C189.61 108.48 189.29 107.92 189.29 105.83C189.29 103.74 189.61 103.27 190 103.27C190.39 103.27 190.71 103.74 190.71 105.83C190.71 107.92 190.39 108.48 190 108.48ZM195 109.62C196.27 109.62 197.11 108.39 197.11 105.83C197.11 103.28 196.27 102.14 195 102.14C193.74 102.14 192.89 103.28 192.89 105.83C192.89 108.39 193.74 109.62 195 109.62ZM195 108.48C194.61 108.48 194.29 107.92 194.29 105.83C194.29 103.74 194.61 103.27 195 103.27C195.39 103.27 195.71 103.74 195.71 105.83C195.71 107.92 195.39 108.48 195 108.48Z" fill="#FEFEFE"/>
<path d="M210.532 213.075H216.468V212.323H210.532V213.075ZM210.484 210.859L210.796 211.619L216.732 209.211V209.187L210.796 206.779L210.484 207.539L214.58 209.187V209.211L210.484 210.859ZM219.364 213.099C220.308 213.099 221.084 212.507 221.084 211.483C221.084 210.675 220.66 210.187 220.164 210.003V209.971C220.652 209.723 220.948 209.291 220.948 208.619C220.948 207.667 220.308 207.115 219.332 207.115C218.732 207.115 218.22 207.403 217.764 207.851L218.38 208.563C218.676 208.243 218.924 208.043 219.22 208.043C219.612 208.043 219.836 208.291 219.836 208.731C219.836 209.235 219.54 209.619 218.74 209.619V210.459C219.684 210.459 219.964 210.811 219.964 211.387C219.964 211.891 219.636 212.139 219.212 212.139C218.844 212.139 218.5 211.907 218.22 211.539L217.636 212.275C217.996 212.747 218.548 213.099 219.364 213.099ZM223.5 213.099C224.516 213.099 225.188 212.115 225.188 210.067C225.188 208.027 224.516 207.115 223.5 207.115C222.492 207.115 221.812 208.027 221.812 210.067C221.812 212.115 222.492 213.099 223.5 213.099ZM223.5 212.187C223.188 212.187 222.932 211.739 222.932 210.067C222.932 208.395 223.188 208.019 223.5 208.019C223.812 208.019 224.068 208.395 224.068 210.067C224.068 211.739 223.812 212.187 223.5 212.187ZM226.86 214.715C227.82 214.395 228.364 213.659 228.364 212.731C228.364 212.011 228.052 211.571 227.516 211.571C227.1 211.571 226.756 211.835 226.756 212.267C226.756 212.715 227.108 212.979 227.5 212.979C227.524 212.979 227.548 212.979 227.572 212.979C227.556 213.435 227.212 213.843 226.596 214.067L226.86 214.715ZM231.5 213.099C232.516 213.099 233.188 212.115 233.188 210.067C233.188 208.027 232.516 207.115 231.5 207.115C230.492 207.115 229.812 208.027 229.812 210.067C229.812 212.115 230.492 213.099 231.5 213.099ZM231.5 212.187C231.188 212.187 230.932 211.739 230.932 210.067C230.932 208.395 231.188 208.019 231.5 208.019C231.812 208.019 232.068 208.395 232.068 210.067C232.068 211.739 231.812 212.187 231.5 212.187ZM235.5 213.099C236.516 213.099 237.188 212.115 237.188 210.067C237.188 208.027 236.516 207.115 235.5 207.115C234.492 207.115 233.812 208.027 233.812 210.067C233.812 212.115 234.492 213.099 235.5 213.099ZM235.5 212.187C235.188 212.187 234.932 211.739 234.932 210.067C234.932 208.395 235.188 208.019 235.5 208.019C235.812 208.019 236.068 208.395 236.068 210.067C236.068 211.739 235.812 212.187 235.5 212.187ZM239.5 213.099C240.516 213.099 241.188 212.115 241.188 210.067C241.188 208.027 240.516 207.115 239.5 207.115C238.492 207.115 237.812 208.027 237.812 210.067C237.812 212.115 238.492 213.099 239.5 213.099ZM239.5 212.187C239.188 212.187 238.932 211.739 238.932 210.067C238.932 208.395 239.188 208.019 239.5 208.019C239.812 208.019 240.068 208.395 240.068 210.067C240.068 211.739 239.812 212.187 239.5 212.187Z" fill="#4D4C4D"/>
<path fill-rule="evenodd" clip-rule="evenodd" d="M210.699 203.128H246.699V37.4995H210.699V203.128Z" fill="#FBEDCA"/>
<path fill-rule="evenodd" clip-rule="evenodd" d="M210.5 203.003H246.5V73.0034H210.5V203.003Z" fill="#F2B819"/>
<path d="M216.37 89.0034H220.63V87.7834H219.4C219.05 87.7834 218.72 87.8134 218.33 87.8534C219.43 86.4334 220.35 85.0834 220.35 83.8134C220.35 82.4934 219.55 81.6234 218.37 81.6234C217.49 81.6234 216.9 82.0034 216.29 82.6734L217.12 83.4934C217.41 83.1134 217.76 82.7934 218.18 82.7934C218.67 82.7934 218.93 83.2034 218.93 83.8934C218.93 85.1434 217.92 86.4234 216.37 88.1634V89.0034ZM222.7 91.1434C223.9 90.7434 224.58 89.8234 224.58 88.6634C224.58 87.7634 224.19 87.2134 223.52 87.2134C223 87.2134 222.57 87.5434 222.57 88.0834C222.57 88.6434 223.01 88.9734 223.5 88.9734C223.53 88.9734 223.56 88.9734 223.59 88.9734C223.57 89.5434 223.14 90.0534 222.37 90.3334L222.7 91.1434ZM228.6 88.0034C228.2 88.0034 227.86 87.5134 227.78 86.1534C228.04 85.7134 228.34 85.5634 228.6 85.5634C228.96 85.5634 229.22 85.9234 229.22 86.7434C229.22 87.5934 228.98 88.0034 228.6 88.0034ZM230.53 82.4734C230.18 82.0234 229.61 81.6434 228.88 81.6434C227.52 81.6434 226.4 82.8134 226.4 85.5734C226.4 87.9834 227.48 89.1234 228.64 89.1234C229.69 89.1234 230.59 88.2234 230.59 86.7434C230.59 85.2234 229.84 84.5034 228.94 84.5034C228.48 84.5034 228.09 84.7334 227.78 85.1234C227.86 83.4134 228.37 82.8434 228.9 82.8434C229.22 82.8434 229.55 83.0634 229.74 83.3534L230.53 82.4734ZM233.5 89.1234C234.77 89.1234 235.61 87.8934 235.61 85.3334C235.61 82.7834 234.77 81.6434 233.5 81.6434C232.24 81.6434 231.39 82.7834 231.39 85.3334C231.39 87.8934 232.24 89.1234 233.5 89.1234ZM233.5 87.9834C233.11 87.9834 232.79 87.4234 232.79 85.3334C232.79 83.2434 233.11 82.7734 233.5 82.7734C233.89 82.7734 234.21 83.2434 234.21 85.3334C234.21 87.4234 233.89 87.9834 233.5 87.9834ZM238.5 89.1234C239.77 89.1234 240.61 87.8934 240.61 85.3334C240.61 82.7834 239.77 81.6434 238.5 81.6434C237.24 81.6434 236.39 82.7834 236.39 85.3334C236.39 87.8934 237.24 89.1234 238.5 89.1234ZM238.5 87.9834C238.11 87.9834 237.79 87.4234 237.79 85.3334C237.79 83.2434 238.11 82.7734 238.5 82.7734C238.89 82.7734 239.21 83.2434 239.21 85.3334C239.21 87.4234 238.89 87.9834 238.5 87.9834Z" fill="#FEFEFE"/>
<path d="M254.193 213.075H260.129V212.323H254.193V213.075ZM254.145 210.859L254.457 211.619L260.393 209.211V209.187L254.457 206.779L254.145 207.539L258.241 209.187V209.211L254.145 210.859ZM263.081 209.963C262.793 209.963 262.585 209.667 262.585 209.019C262.585 208.339 262.777 208.011 263.081 208.011C263.401 208.011 263.673 208.403 263.737 209.491C263.529 209.843 263.289 209.963 263.081 209.963ZM261.537 212.435C261.817 212.795 262.273 213.099 262.857 213.099C263.945 213.099 264.841 212.163 264.841 209.947C264.841 208.019 263.977 207.115 263.049 207.115C262.209 207.115 261.489 207.835 261.489 209.019C261.489 210.235 262.089 210.811 262.809 210.811C263.177 210.811 263.489 210.627 263.737 210.315C263.673 211.683 263.265 212.139 262.841 212.139C262.585 212.139 262.321 211.963 262.169 211.723L261.537 212.435ZM267.161 213.099C268.177 213.099 268.849 212.115 268.849 210.067C268.849 208.027 268.177 207.115 267.161 207.115C266.153 207.115 265.473 208.027 265.473 210.067C265.473 212.115 266.153 213.099 267.161 213.099ZM267.161 212.187C266.849 212.187 266.593 211.739 266.593 210.067C266.593 208.395 266.849 208.019 267.161 208.019C267.473 208.019 267.729 208.395 267.729 210.067C267.729 211.739 267.473 212.187 267.161 212.187ZM270.521 214.715C271.481 214.395 272.025 213.659 272.025 212.731C272.025 212.011 271.713 211.571 271.177 211.571C270.761 211.571 270.417 211.835 270.417 212.267C270.417 212.715 270.769 212.979 271.161 212.979C271.185 212.979 271.209 212.979 271.233 212.979C271.217 213.435 270.873 213.843 270.257 214.067L270.521 214.715ZM275.161 213.099C276.177 213.099 276.849 212.115 276.849 210.067C276.849 208.027 276.177 207.115 275.161 207.115C274.153 207.115 273.473 208.027 273.473 210.067C273.473 212.115 274.153 213.099 275.161 213.099ZM275.161 212.187C274.849 212.187 274.593 211.739 274.593 210.067C274.593 208.395 274.849 208.019 275.161 208.019C275.473 208.019 275.729 208.395 275.729 210.067C275.729 211.739 275.473 212.187 275.161 212.187ZM279.161 213.099C280.177 213.099 280.849 212.115 280.849 210.067C280.849 208.027 280.177 207.115 279.161 207.115C278.153 207.115 277.473 208.027 277.473 210.067C277.473 212.115 278.153 213.099 279.161 213.099ZM279.161 212.187C278.849 212.187 278.593 211.739 278.593 210.067C278.593 208.395 278.849 208.019 279.161 208.019C279.473 208.019 279.729 208.395 279.729 210.067C279.729 211.739 279.473 212.187 279.161 212.187ZM283.161 213.099C284.177 213.099 284.849 212.115 284.849 210.067C284.849 208.027 284.177 207.115 283.161 207.115C282.153 207.115 281.473 208.027 281.473 210.067C281.473 212.115 282.153 213.099 283.161 213.099ZM283.161 212.187C282.849 212.187 282.593 211.739 282.593 210.067C282.593 208.395 282.849 208.019 283.161 208.019C283.473 208.019 283.729 208.395 283.729 210.067C283.729 211.739 283.473 212.187 283.161 212.187Z" fill="#4D4C4D"/>
<path fill-rule="evenodd" clip-rule="evenodd" d="M254 203.355H290V37.4995H254V203.355Z" fill="#FBEDCA"/>
<path fill-rule="evenodd" clip-rule="evenodd" d="M254 203.003H290V53.0034H254V203.003Z" fill="#F2B819"/>
<path d="M262.001 69.1234C263.161 69.1234 264.161 68.2334 264.161 66.6334C264.161 65.0934 263.291 64.3834 262.391 64.3834C262.161 64.3834 261.971 64.4334 261.771 64.5134L261.901 63.0034H263.941V61.7634H260.631L260.441 65.3034L261.111 65.7334C261.411 65.5134 261.571 65.4234 261.851 65.4234C262.321 65.4234 262.691 65.8834 262.691 66.6634C262.691 67.4834 262.321 67.9234 261.801 67.9234C261.311 67.9234 260.931 67.6534 260.631 67.3234L259.941 68.2334C260.421 68.7434 261.051 69.1234 262.001 69.1234ZM266.361 71.1434C267.561 70.7434 268.241 69.8234 268.241 68.6634C268.241 67.7634 267.851 67.2134 267.181 67.2134C266.661 67.2134 266.231 67.5434 266.231 68.0834C266.231 68.6434 266.671 68.9734 267.161 68.9734C267.191 68.9734 267.221 68.9734 267.251 68.9734C267.231 69.5434 266.801 70.0534 266.031 70.3334L266.361 71.1434ZM272.161 69.1234C273.521 69.1234 274.291 68.2834 274.291 67.2034C274.291 66.2634 273.791 65.6934 273.221 65.2734V65.2334C273.671 64.8434 274.051 64.2734 274.051 63.5034C274.051 62.4134 273.311 61.6434 272.191 61.6434C271.011 61.6434 270.191 62.3834 270.191 63.5134C270.191 64.2634 270.581 64.8834 271.041 65.2934V65.3334C270.481 65.7734 270.031 66.2634 270.031 67.2234C270.031 68.3234 270.861 69.1234 272.161 69.1234ZM272.381 64.7834C271.881 64.4934 271.531 64.0734 271.531 63.5034C271.531 62.9634 271.791 62.6734 272.161 62.6734C272.571 62.6734 272.821 63.0634 272.821 63.5834C272.821 64.0334 272.671 64.4234 272.381 64.7834ZM272.171 68.1034C271.681 68.1034 271.341 67.7334 271.341 67.1534C271.341 66.5834 271.561 66.1734 271.841 65.8534C272.491 66.2734 272.861 66.6234 272.861 67.2834C272.861 67.7934 272.631 68.1034 272.171 68.1034ZM277.161 69.1234C278.431 69.1234 279.271 67.8934 279.271 65.3334C279.271 62.7834 278.431 61.6434 277.161 61.6434C275.901 61.6434 275.051 62.7834 275.051 65.3334C275.051 67.8934 275.901 69.1234 277.161 69.1234ZM277.161 67.9834C276.771 67.9834 276.451 67.4234 276.451 65.3334C276.451 63.2434 276.771 62.7734 277.161 62.7734C277.551 62.7734 277.871 63.2434 277.871 65.3334C277.871 67.4234 277.551 67.9834 277.161 67.9834ZM282.161 69.1234C283.431 69.1234 284.271 67.8934 284.271 65.3334C284.271 62.7834 283.431 61.6434 282.161 61.6434C280.901 61.6434 280.051 62.7834 280.051 65.3334C280.051 67.8934 280.901 69.1234 282.161 69.1234ZM282.161 67.9834C281.771 67.9834 281.451 67.4234 281.451 65.3334C281.451 63.2434 281.771 62.7734 282.161 62.7734C282.551 62.7734 282.871 63.2434 282.871 65.3334C282.871 67.4234 282.551 67.9834 282.161 67.9834Z" fill="#FEFEFE"/>
<mask id="mask0_3274_33078" style="mask-type:alpha" maskUnits="userSpaceOnUse" x="28" y="1" width="235" height="113">
<path d="M28.7521 1.13574H262.84V113.766H28.7521V1.13574Z" fill="white"/>
</mask>
<g mask="url(#mask0_3274_33078)">
<path fill-rule="evenodd" clip-rule="evenodd" d="M259.632 1.21299L233.461 7.71599C231.5 8.20399 230.832 10.651 232.274 12.067L236.285 16.006C235.968 16.324 235.643 16.65 235.304 16.989C234.724 17.568 234.112 18.179 233.471 18.82C232.809 19.437 232.115 20.083 231.393 20.755C229.946 22.104 228.383 23.562 226.711 25.12C225.87 25.894 225.022 26.717 224.112 27.522C223.195 28.317 222.252 29.136 221.283 29.976C219.344 31.659 217.305 33.428 215.177 35.275C210.783 38.796 206.102 42.738 200.879 46.557C199.586 47.532 198.277 48.52 196.95 49.521C195.593 50.478 194.22 51.448 192.831 52.427C190.046 54.38 187.224 56.419 184.239 58.317C181.273 60.243 178.296 62.28 175.159 64.135C172.044 66.028 168.919 68.007 165.658 69.806C164.039 70.729 162.414 71.656 160.783 72.586C159.156 73.525 157.472 74.364 155.812 75.262C154.144 76.148 152.472 77.036 150.799 77.924L145.7 80.446C138.909 83.843 131.948 86.901 125.046 89.82C123.318 90.543 121.575 91.208 119.851 91.9C118.119 92.573 116.415 93.299 114.683 93.912C111.231 95.172 107.832 96.472 104.434 97.588C97.6781 99.952 91.0351 101.905 84.7131 103.711C78.3691 105.421 72.3341 106.956 66.7121 108.148C61.0951 109.367 55.9111 110.352 51.2931 111.093C46.6771 111.864 42.6301 112.392 39.2891 112.784C32.6061 113.558 28.7521 113.689 28.7521 113.689C28.7521 113.689 29.7141 113.737 31.5211 113.759C33.3261 113.77 35.9801 113.785 39.3541 113.667C42.7271 113.556 46.8271 113.367 51.5211 112.982C56.2171 112.627 61.5061 112.074 67.2631 111.322C73.0251 110.595 79.2331 109.559 85.7931 108.368C92.3291 107.081 99.2291 105.665 106.284 103.842C109.831 102.998 113.39 101.969 117.014 100.979C118.831 100.502 120.624 99.911 122.446 99.373C124.262 98.815 126.098 98.284 127.923 97.696C135.21 95.311 142.599 92.776 149.854 89.879L155.307 87.727C157.103 86.959 158.897 86.191 160.687 85.425C162.472 84.645 164.282 83.922 166.037 83.097C167.798 82.281 169.553 81.466 171.302 80.656C174.824 79.078 178.218 77.31 181.607 75.622C185.016 73.968 188.269 72.126 191.515 70.383C194.778 68.671 197.883 66.806 200.949 65.018C202.48 64.119 203.994 63.229 205.49 62.35C206.958 61.425 208.408 60.512 209.838 59.611C215.618 56.08 220.848 52.386 225.76 49.077C228.151 47.332 230.441 45.659 232.619 44.068C233.71 43.271 234.772 42.494 235.804 41.739C236.829 40.974 237.791 40.189 238.741 39.451C240.635 37.962 242.406 36.567 244.045 35.278C244.864 34.632 245.651 34.013 246.403 33.421C247.133 32.806 247.829 32.219 248.49 31.662C249.202 31.058 249.87 30.494 250.498 29.962L254.711 34.098C256.232 35.592 258.806 34.705 259.082 32.59L262.817 4.05599C263.053 2.25099 261.399 0.774989 259.632 1.21299Z" fill="#DF0716"/>
</g>
<path d="M22.38 57.4995H23.86V51.3295H25.96V50.0995H20.3V51.3295H22.38V57.4995ZM27.04 57.4995H28.5V53.6495C28.92 53.2395 29.21 53.0195 29.67 53.0195C30.22 53.0195 30.46 53.3295 30.46 54.1895V57.4995H31.93V54.0095C31.93 52.5995 31.41 51.7595 30.2 51.7595C29.44 51.7595 28.89 52.1595 28.44 52.5795L28.5 51.5295V49.5195H27.04V57.4995ZM37.9665 50.2095C38.0565 50.3695 38.1465 50.6095 38.1465 50.8495C38.1465 51.6895 37.6665 51.8595 37.2165 51.8995H36.7665V55.6795C36.3865 56.1795 36.0865 56.3795 35.6265 56.3795C35.0865 56.3795 34.8465 56.0795 34.8465 55.2095V51.8995H33.3765V55.3995C33.3765 56.7995 33.8965 57.6395 35.0965 57.6395C35.8665 57.6395 36.4065 57.2695 36.8865 56.6995H36.9265L37.0365 57.4995H38.2365V52.3695C38.8565 52.1595 39.3865 51.6395 39.3865 50.7495C39.3865 50.3595 39.2265 49.9595 39.0665 49.7295L37.9665 50.2095ZM41.6837 51.0395C42.4837 50.9695 43.1937 50.6395 43.1937 49.8995C43.1937 49.1395 42.6437 48.6395 41.2837 48.5995L41.1937 49.5195C41.8437 49.5495 42.1037 49.7195 42.1037 49.9995C42.1037 50.2695 41.8637 50.3795 41.5637 50.4395L41.6837 51.0395ZM42.1437 56.4395C41.3837 56.4395 40.9537 55.7595 40.9537 54.7095C40.9537 53.6495 41.3837 52.9595 42.1437 52.9595C42.9037 52.9595 43.3337 53.6495 43.3337 54.7095C43.3337 55.7595 42.9037 56.4395 42.1437 56.4395ZM43.8837 50.3195C43.9737 50.4795 44.0637 50.7195 44.0637 50.9595C44.0637 51.5795 43.7437 51.8795 43.2437 51.9895C42.8937 51.8395 42.5237 51.7595 42.1437 51.7595C40.7437 51.7595 39.4537 52.8395 39.4537 54.7095C39.4537 56.5595 40.7437 57.6395 42.1437 57.6395C43.5437 57.6395 44.8337 56.5595 44.8337 54.7095C44.8337 53.7495 44.4937 52.9895 43.9737 52.4895C44.7037 52.2595 45.2937 51.7595 45.2937 50.8595C45.2937 50.4695 45.1437 50.0695 44.9737 49.8395L43.8837 50.3195ZM46.0634 57.4995H47.5234V53.6495C47.9434 53.2395 48.2334 53.0195 48.6934 53.0195C49.2434 53.0195 49.4834 53.3295 49.4834 54.1895V57.4995H50.9534V54.0095C50.9534 52.5995 50.4334 51.7595 49.2234 51.7595C48.4634 51.7595 47.8934 52.1595 47.4034 52.6395H47.3634L47.2634 51.8995H46.0634V57.4995ZM54.4397 59.9295C56.3097 59.9295 57.4797 59.0695 57.4797 57.9395C57.4797 56.9595 56.7497 56.5395 55.3997 56.5395H54.4497C53.7897 56.5395 53.5697 56.3795 53.5697 56.0795C53.5697 55.8595 53.6497 55.7295 53.8097 55.5995C54.0497 55.6795 54.3097 55.7295 54.5297 55.7295C55.7297 55.7295 56.6897 55.0895 56.6897 53.8295C56.6897 53.4795 56.5797 53.1695 56.4297 52.9795H57.3897V51.8995H55.3697C55.1397 51.8195 54.8397 51.7595 54.5297 51.7595C53.3397 51.7595 52.2697 52.4695 52.2697 53.7895C52.2697 54.4395 52.6297 54.9695 53.0097 55.2495V55.2895C52.6797 55.5295 52.3897 55.9195 52.3897 56.3395C52.3897 56.7995 52.6097 57.0895 52.8997 57.2795V57.3295C52.3897 57.6195 52.0997 58.0195 52.0997 58.4895C52.0997 59.4795 53.1197 59.9295 54.4397 59.9295ZM54.5297 54.8195C54.0397 54.8195 53.6497 54.4495 53.6497 53.7895C53.6497 53.1295 54.0297 52.7595 54.5297 52.7595C55.0297 52.7595 55.3997 53.1295 55.3997 53.7895C55.3997 54.4495 55.0197 54.8195 54.5297 54.8195ZM54.6597 58.9995C53.8397 58.9995 53.3197 58.7295 53.3197 58.2595C53.3197 58.0295 53.4397 57.8095 53.6897 57.6095C53.8897 57.6595 54.1297 57.6895 54.4697 57.6895H55.1497C55.7497 57.6895 56.0797 57.7895 56.0797 58.1895C56.0797 58.6295 55.4997 58.9995 54.6597 58.9995ZM64.0021 57.6395C65.0321 57.6395 65.9021 57.2395 66.4021 56.7495V53.4095H63.7721V54.6195H65.0821V56.0795C64.8721 56.2595 64.5121 56.3595 64.1521 56.3595C62.7021 56.3595 61.9621 55.3895 61.9621 53.7795C61.9621 52.1895 62.8221 51.2295 64.0521 51.2295C64.7221 51.2295 65.1421 51.4995 65.5021 51.8495L66.2921 50.9095C65.8121 50.4195 65.0721 49.9595 64.0021 49.9595C62.0321 49.9595 60.4521 51.3895 60.4521 53.8295C60.4521 56.2995 61.9821 57.6395 64.0021 57.6395ZM67.8701 57.4995H69.3301V51.8995H67.8701V57.4995ZM68.6101 50.9995C69.1101 50.9995 69.4801 50.6595 69.4801 50.1995C69.4801 49.7195 69.1101 49.3995 68.6101 49.3995C68.1001 49.3995 67.7301 49.7195 67.7301 50.1995C67.7301 50.6595 68.1001 50.9995 68.6101 50.9995ZM72.2872 57.6395C72.9272 57.6395 73.4872 57.3195 73.9772 56.8995H74.0072L74.1172 57.4995H75.3172V54.2295C75.3172 52.6095 74.5872 51.7595 73.1672 51.7595C72.2872 51.7595 71.4872 52.0895 70.8272 52.4995L71.3572 53.4695C71.8772 53.1695 72.3772 52.9395 72.8972 52.9395C73.5872 52.9395 73.8272 53.3595 73.8472 53.9095C71.5972 54.1495 70.6272 54.7795 70.6272 55.9795C70.6272 56.9295 71.2872 57.6395 72.2872 57.6395ZM72.7672 56.4895C72.3372 56.4895 72.0272 56.2995 72.0272 55.8595C72.0272 55.3595 72.4872 54.9895 73.8472 54.8095V55.9395C73.4972 56.2895 73.1872 56.4895 72.7672 56.4895ZM72.7472 51.0395C73.5472 50.9695 74.2572 50.6395 74.2572 49.8995C74.2572 49.1395 73.6972 48.6395 72.3472 48.5995L72.2572 49.5195C72.9072 49.5495 73.1672 49.7195 73.1672 49.9995C73.1672 50.2695 72.9272 50.3795 72.6272 50.4395L72.7472 51.0395ZM76.8154 57.4995H78.2754V51.8995H76.8154V57.4995ZM77.5554 50.9995C78.0554 50.9995 78.4254 50.6595 78.4254 50.1995C78.4254 49.7195 78.0554 49.3995 77.5554 49.3995C77.0454 49.3995 76.6754 49.7195 76.6754 50.1995C76.6754 50.6595 77.0454 50.9995 77.5554 50.9995ZM85.2581 57.6395C86.2181 57.6395 87.0081 57.2595 87.6181 56.5495L86.8381 55.6295C86.4381 56.0595 85.9381 56.3595 85.3081 56.3595C84.1381 56.3595 83.3781 55.3895 83.3781 53.7795C83.3781 52.1895 84.2181 51.2295 85.3381 51.2295C85.8981 51.2295 86.3281 51.4895 86.6981 51.8495L87.4781 50.9095C86.9981 50.4095 86.2481 49.9595 85.3081 49.9595C83.4381 49.9595 81.8681 51.3895 81.8681 53.8295C81.8681 56.2995 83.3881 57.6395 85.2581 57.6395ZM92.8832 49.2395L91.8832 48.2595L90.1832 50.2895L90.9132 50.9995L92.8832 49.2395ZM93.1032 50.2095C93.1932 50.3695 93.2832 50.6095 93.2832 50.8495C93.2832 51.6895 92.8032 51.8595 92.3532 51.8995H91.9032V55.6795C91.5232 56.1795 91.2232 56.3795 90.7632 56.3795C90.2232 56.3795 89.9832 56.0795 89.9832 55.2095V51.8995H88.5132V55.3995C88.5132 56.7995 89.0332 57.6395 90.2332 57.6395C91.0032 57.6395 91.5432 57.2695 92.0232 56.6995H92.0632L92.1732 57.4995H93.3732V52.3695C93.9932 52.1595 94.5232 51.6395 94.5232 50.7495C94.5232 50.3595 94.3632 49.9595 94.2032 49.7295L93.1032 50.2095ZM96.6004 57.6395C97.3704 57.6395 97.9104 57.2695 98.3904 56.6995H98.4304L98.5404 57.4995H99.7404V51.8995H98.2704V55.6795C97.8904 56.1795 97.5904 56.3795 97.1304 56.3795C96.5904 56.3795 96.3504 56.0795 96.3504 55.2095V51.8995H94.8804V55.3995C94.8804 56.7995 95.4004 57.6395 96.6004 57.6395Z" fill="#4D4C4D"/>
<path fill-rule="evenodd" clip-rule="evenodd" d="M8 57.4995H16V49.4995H8V57.4995Z" fill="#F2B819"/>
<path d="M113.365 237.5H117.845V236.26H114.845V230.1H113.365V237.5ZM121.21 238.4C120.72 238.4 120.37 238.74 120.37 239.2C120.37 239.67 120.72 240 121.21 240C121.7 240 122.05 239.67 122.05 239.2C122.05 238.74 121.7 238.4 121.21 238.4ZM121.21 236.44C120.45 236.44 120.02 235.76 120.02 234.71C120.02 233.65 120.45 232.96 121.21 232.96C121.97 232.96 122.4 233.65 122.4 234.71C122.4 235.76 121.97 236.44 121.21 236.44ZM122.95 230.32C123.04 230.48 123.13 230.72 123.13 230.96C123.13 231.58 122.81 231.88 122.31 231.99C121.96 231.84 121.59 231.76 121.21 231.76C119.81 231.76 118.52 232.84 118.52 234.71C118.52 236.56 119.81 237.64 121.21 237.64C122.61 237.64 123.9 236.56 123.9 234.71C123.9 233.75 123.56 232.99 123.04 232.49C123.77 232.26 124.36 231.76 124.36 230.86C124.36 230.47 124.21 230.07 124.04 229.84L122.95 230.32ZM125.13 237.5H126.59V231.9H125.13V237.5ZM125.87 231C126.37 231 126.74 230.66 126.74 230.2C126.74 229.72 126.37 229.4 125.87 229.4C125.36 229.4 124.99 229.72 124.99 230.2C124.99 230.66 125.36 231 125.87 231ZM130.553 237.5H131.953V234.53C131.953 233.68 131.843 232.75 131.773 231.95H131.823L132.573 233.54L134.713 237.5H136.213V230.1H134.813V233.05C134.813 233.89 134.923 234.87 135.003 235.64H134.953L134.213 234.04L132.063 230.1H130.553V237.5ZM137.923 237.5H139.383V233.65C139.803 233.24 140.093 233.02 140.553 233.02C141.103 233.02 141.343 233.33 141.343 234.19V237.5H142.813V234.01C142.813 232.6 142.293 231.76 141.083 231.76C140.323 231.76 139.773 232.16 139.323 232.58L139.383 231.53V229.52H137.923V237.5ZM145.979 237.64C146.749 237.64 147.289 237.27 147.769 236.7H147.809L147.919 237.5H149.119V231.9H147.649V235.68C147.269 236.18 146.969 236.38 146.509 236.38C145.969 236.38 145.729 236.08 145.729 235.21V231.9H144.259V235.4C144.259 236.8 144.779 237.64 145.979 237.64ZM152.066 237.64C152.706 237.64 153.266 237.32 153.756 236.9H153.786L153.896 237.5H155.096V234.23C155.096 232.61 154.366 231.76 152.946 231.76C152.066 231.76 151.266 232.09 150.606 232.5L151.136 233.47C151.656 233.17 152.156 232.94 152.676 232.94C153.366 232.94 153.606 233.36 153.626 233.91C151.376 234.15 150.406 234.78 150.406 235.98C150.406 236.93 151.066 237.64 152.066 237.64ZM152.546 236.49C152.116 236.49 151.806 236.3 151.806 235.86C151.806 235.36 152.266 234.99 153.626 234.81V235.94C153.276 236.29 152.966 236.49 152.546 236.49ZM150.996 230.58L151.566 231.11L152.966 230.01H153.006L154.406 231.11L154.976 230.58L153.726 229.07H152.236L150.996 230.58ZM152.796 240C153.286 240 153.636 239.67 153.636 239.2C153.636 238.74 153.286 238.4 152.796 238.4C152.306 238.4 151.956 238.74 151.956 239.2C151.956 239.67 152.306 240 152.796 240ZM156.595 237.5H158.055V233.65C158.475 233.24 158.765 233.02 159.225 233.02C159.775 233.02 160.015 233.33 160.015 234.19V237.5H161.485V234.01C161.485 232.6 160.965 231.76 159.755 231.76C158.995 231.76 158.425 232.16 157.935 232.64H157.895L157.795 231.9H156.595V237.5ZM167.627 228.71H167.667L168.877 229.68L169.507 229.28L168.437 228.02H166.857L165.787 229.28L166.427 229.68L167.627 228.71ZM166.777 234.45L166.997 233.64C167.217 232.87 167.437 232.03 167.627 231.22H167.667C167.887 232.02 168.087 232.87 168.317 233.64L168.537 234.45H166.777ZM169.377 237.5H170.927L168.547 230.1H166.807L164.437 237.5H165.937L166.457 235.6H168.857L169.377 237.5ZM171.673 237.5H173.133V233.65C173.533 233.23 173.893 233.02 174.213 233.02C174.743 233.02 174.993 233.33 174.993 234.19V237.5H176.463V233.65C176.863 233.23 177.223 233.02 177.543 233.02C178.073 233.02 178.323 233.33 178.323 234.19V237.5H179.793V234.01C179.793 232.6 179.243 231.76 178.053 231.76C177.323 231.76 176.783 232.2 176.273 232.74C176.003 232.12 175.533 231.76 174.733 231.76C174.003 231.76 173.483 232.16 173.013 232.65H172.973L172.873 231.9H171.673V237.5Z" fill="#4D4C4D"/>
</g>
<defs>
<clipPath id="clip0_3274_33078">
<rect width="292" height="238" fill="white" transform="translate(0 0.5)"/>
</clipPath>
</defs>
</svg>
