<svg width="32" height="32" viewBox="0 0 32 32" fill="none" xmlns="http://www.w3.org/2000/svg">
<path d="M16 32C24.8366 32 32 24.8366 32 16C32 7.16344 24.8366 0 16 0C7.16344 0 0 7.16344 0 16C0 24.8366 7.16344 32 16 32Z" fill="white"/>
<path fill-rule="evenodd" clip-rule="evenodd" d="M20.2494 6.92628C20.5868 6.64918 20.9242 6.37208 21.2616 6.09585C21.2546 6.07837 21.2476 6.06089 21.2441 6.03991C21.2221 6.03603 21.2006 6.03023 21.1792 6.02447C21.1428 6.01466 21.1067 6.00494 21.0693 6.00494C19.3805 6.00145 17.6882 5.99795 15.9994 6.00145C15.9224 6.00145 15.8315 6.01543 15.7651 6.0539C15.7269 6.07612 15.6886 6.09816 15.6502 6.12022C15.453 6.23346 15.2554 6.34699 15.0798 6.48746C14.7616 6.7462 14.391 6.79865 14.0064 6.80215C13.578 6.80564 13.1497 6.80564 12.7214 6.80564C12.2931 6.80564 11.8648 6.80564 11.4364 6.80914C11.3385 6.80914 11.2197 6.83012 11.1427 6.88606C10.8197 7.1126 10.5011 7.34489 10.1821 7.57739C10.0039 7.70734 9.82549 7.83736 9.64623 7.96648C9.60776 7.99446 9.55532 8.01893 9.50637 8.01893C9.40966 8.01957 9.31295 8.02043 9.21626 8.0213C8.7816 8.0252 8.34736 8.0291 7.91546 8.01194C7.63923 8.00145 7.3735 8.01543 7.13923 8.1518C7.00636 8.22872 6.85602 8.35809 6.81406 8.49446C6.74017 8.73519 6.6939 8.98406 6.64756 9.23329C6.62593 9.34967 6.60428 9.46612 6.57979 9.58187C6.54307 9.76548 6.50442 9.94812 6.46587 10.1303C6.431 10.2951 6.39622 10.4594 6.36301 10.6238C6.29657 10.9455 6.23364 11.2637 6.1707 11.5819C6.14972 11.6903 6.19168 11.7497 6.30706 11.7497C6.92245 11.7462 7.54133 11.7427 8.15671 11.7427C9.26161 11.7392 10.3665 11.7392 11.4714 11.7392C12.8141 11.7392 14.1602 11.7392 15.5064 11.7427C15.9812 11.745 16.4565 11.7477 16.932 11.7504C17.8885 11.7559 18.846 11.7614 19.8036 11.7637C19.8979 11.7637 19.9923 11.7638 20.0868 11.7638C20.6541 11.7643 21.2236 11.7647 21.7931 11.7497C21.9539 11.7462 21.9924 11.8196 21.9959 11.9385C22.0029 12.2637 21.9994 12.5924 21.9959 12.9175C21.9959 13.0574 21.919 13.1203 21.7721 13.1203C21.356 13.1203 20.9399 13.1212 20.5238 13.1221C20.1078 13.123 19.6917 13.1238 19.2756 13.1238C18.9635 13.1238 18.6502 13.1201 18.3363 13.1163C18.1263 13.1138 17.916 13.1112 17.7057 13.1098C17.4994 13.1063 17.4574 13.1483 17.4539 13.3511C17.4434 14.0539 17.4329 14.7602 17.4294 15.463C17.4259 15.984 17.4259 16.5084 17.4294 17.0294C17.4329 17.3668 17.4373 17.7042 17.4417 18.0417C17.4461 18.3791 17.4504 18.7165 17.4539 19.0539C17.4557 19.3039 17.4557 19.5548 17.4557 19.8056C17.4557 20.0565 17.4557 20.3074 17.4574 20.5574C17.4574 20.7777 17.5343 20.8511 17.7476 20.8406C17.8006 20.8383 17.8531 20.8351 17.9056 20.832C18.0089 20.8258 18.1118 20.8196 18.2162 20.8196C19.3875 20.8126 20.5588 20.8056 21.7301 20.8021C21.9259 20.8021 21.9994 20.8791 22.0029 21.0749C22.0037 21.1387 22.0048 21.2028 22.0059 21.2671C22.0092 21.4631 22.0125 21.6606 22.0099 21.8581C22.0029 22.1588 21.9714 22.1868 21.6707 22.1833C21.3948 22.1815 21.119 22.1795 20.8435 22.1776C20.0227 22.1717 19.2033 22.1658 18.384 22.1658C17.8805 22.1658 17.377 22.1693 16.8735 22.1728C16.37 22.1763 15.8665 22.1798 15.363 22.1798C14.3607 22.1821 13.3583 22.1813 12.356 22.1805C11.8548 22.1802 11.3537 22.1798 10.8525 22.1798C10.5602 22.1798 10.2683 22.1813 9.9765 22.1828C9.27701 22.1864 8.57875 22.19 7.88049 22.1728C7.27909 22.1588 6.8735 22.4665 6.53084 22.8931C6.19518 23.3126 6.10776 23.8231 6.02385 24.3371C5.97521 24.64 6.01044 24.9359 6.04559 25.231C6.06602 25.4026 6.08642 25.5739 6.09028 25.7462C6.09378 25.921 6.20217 25.9945 6.38049 25.998C6.5728 26.0014 6.76511 26.0049 6.95741 26.0049H6.96547C11.8894 26.0049 16.8167 26.0049 21.7441 26.0014C21.8315 26.0014 21.9224 26.0014 22.0064 25.9875C22.5064 25.907 22.9924 25.7777 23.4504 25.5504C23.9749 25.2952 24.4225 24.949 24.7966 24.5049C25.2162 24.0084 25.4644 23.4315 25.6113 22.7987C25.8001 21.998 25.7826 21.1938 25.6672 20.3931C25.5763 19.7812 25.3455 19.2112 24.9994 18.6903C24.6707 18.1973 24.2721 17.7882 23.7546 17.4945C23.6392 17.4315 23.5238 17.3511 23.4399 17.2532C23.1567 16.9175 23.2336 16.4455 23.5728 16.2532C24.1357 15.9315 24.6183 15.5294 24.9959 14.998C25.3665 14.47 25.6252 13.8931 25.6952 13.2567C25.7511 12.7532 25.7476 12.2357 25.7197 11.7252C25.6672 10.8126 25.3455 9.98397 24.7336 9.30215C23.8945 8.36159 22.8071 7.89655 21.5623 7.81613C21.1669 7.78962 20.7699 7.79634 20.3724 7.80307C20.1933 7.80611 20.0142 7.80914 19.835 7.80914H19.2406C19.2406 7.8004 19.2398 7.79166 19.2389 7.78292C19.238 7.77418 19.2371 7.76543 19.2371 7.75669C19.5745 7.48047 19.912 7.20337 20.2494 6.92628ZM15.877 20.5539V16.9525C15.877 16.651 15.8767 16.3494 15.8765 16.0479C15.8759 15.1429 15.8752 14.2375 15.8804 13.3301C15.8804 13.1588 15.821 13.1063 15.6567 13.1063C15.363 13.1081 15.0693 13.1063 14.7756 13.1046C14.4819 13.1028 14.1881 13.1011 13.8944 13.1028C13.4825 13.1044 13.0713 13.1087 12.6601 13.113C12.1464 13.1184 11.6329 13.1238 11.1182 13.1238C9.60435 13.1203 8.09047 13.1098 6.57659 13.0993L6.57628 13.0993C6.3525 13.0993 6.31055 13.1273 6.31055 13.3581C6.31055 13.7755 6.31142 14.1937 6.31229 14.6124C6.31317 15.032 6.31404 15.452 6.31404 15.8721C6.31404 15.9805 6.3595 16.0399 6.46439 16.0434C6.57628 16.0457 6.68817 16.0449 6.80006 16.0442C6.856 16.0438 6.91194 16.0434 6.96789 16.0434H12.1567C12.3735 16.0434 12.4329 16.1098 12.4294 16.3406C12.4268 16.5498 12.43 16.7571 12.4333 16.9654C12.4344 17.0355 12.4355 17.1058 12.4364 17.1763C12.4399 17.3231 12.363 17.4245 12.2371 17.4245H11.5903C11.0367 17.4233 10.4835 17.4218 9.93054 17.4202C8.82808 17.4171 7.72666 17.414 6.62523 17.414C6.31754 17.414 6.31754 17.4245 6.32104 17.7252V17.9175C6.32104 18.8056 6.32104 19.6972 6.31754 20.5888C6.31754 20.7427 6.38048 20.7916 6.52733 20.7916C6.98363 20.7956 7.43993 20.801 7.89624 20.8064C8.65671 20.8154 9.41719 20.8244 10.1777 20.8266C11.2545 20.8313 12.3297 20.8297 13.4054 20.8282C13.9435 20.8274 14.4817 20.8266 15.0203 20.8266C15.1951 20.8266 15.37 20.8266 15.5413 20.8476C15.807 20.8791 15.877 20.8266 15.877 20.5539Z" fill="#EFC046"/>
</svg>
