<svg width="48" height="48" viewBox="0 0 48 48" fill="none" xmlns="http://www.w3.org/2000/svg">
<path fill-rule="evenodd" clip-rule="evenodd" d="M24 4C35.0457 4 44 12.9543 44 24C44 35.0457 35.0457 44 24 44C12.9543 44 4 35.0457 4 24C4 12.9543 12.9543 4 24 4ZM24.0543 13C20.3901 13.0045 17.409 15.9669 17.409 19.6081V21.9052H17.2552C16.2871 21.9052 15.5 22.6874 15.5 23.6494V33.2558C15.5 34.2178 16.2871 35 17.2552 35H30.7448C31.7129 35 32.5 34.2178 32.5 33.2558V23.6449C32.5 22.6829 31.7129 21.9007 30.7448 21.9007H30.6996V19.6036C30.6996 15.9624 27.7185 13 24.0543 13ZM24.0543 15.895C26.1171 15.895 27.7908 17.5627 27.7908 19.6081V21.9052H20.3177V19.6081C20.3177 17.5582 21.996 15.895 24.0543 15.895Z" fill="white"/>
</svg>
