<svg width="32" height="32" viewBox="0 0 32 32" fill="none" xmlns="http://www.w3.org/2000/svg">
<path d="M16 32C24.8366 32 32 24.8366 32 16C32 7.16344 24.8366 0 16 0C7.16344 0 0 7.16344 0 16C0 24.8366 7.16344 32 16 32Z" fill="white"/>
<path d="M12.5564 13.8136V15.3596C12.5564 15.3596 15.03 14.1228 15.6484 15.0504V15.978C15.6484 15.978 12.2472 15.1535 12.041 17.8333C12.041 17.8333 12.041 19.9977 13.9993 20.1008C13.9993 20.1008 16.8853 19.7916 17.2975 19.7916V14.6381C17.1945 14.6381 16.8853 12.3706 12.5564 13.8136ZM15.6484 17.0087V18.6578C15.6484 18.6578 13.6901 19.1732 13.3809 18.1425V17.6271C13.3809 17.6271 13.484 16.6995 15.6484 17.0087ZM17.7098 13.6074V19.9977H19.1528V14.8443C19.1528 14.8443 21.008 14.3289 21.1111 15.0504V19.8947H22.7602L22.6572 14.6381C22.6572 14.6381 22.5541 13.2982 21.1111 13.2982C19.6681 13.2982 17.7098 13.6074 17.7098 13.6074ZM23.3786 11.3399H24.9247V15.4627H25.0277L26.9861 13.4013H28.6352L26.0584 16.1842V16.3903L28.6352 19.8947H26.9861L24.9247 17.2149H24.8216V19.8947H23.2756V11.3399H23.3786Z" fill="#651C80"/>
<path d="M4.00171 19.9977H9.25824C9.25824 19.9977 9.87666 19.9977 10.0828 19.7916V19.5854H9.25824V19.3793H10.8043C10.8043 19.3793 11.0104 19.2762 11.0104 19.0701H9.25824V18.7609H11.2166C11.2166 18.7609 11.3196 18.7609 11.3196 18.4517H5.54775V18.1425H11.5258V17.8333H5.54775V17.5241H11.6288V17.2148H5.54775V16.9056H11.6288V16.5964H5.54775V16.2872H11.5258C11.5258 16.2872 11.6288 15.978 11.3196 15.978H5.54775V15.6688H11.2166C11.2166 15.6688 11.2166 15.3596 11.0104 15.3596H8.7429V15.1535H10.4951C10.4951 15.1535 10.4951 14.8443 10.1859 14.8443H8.7429V14.535H9.56745C9.56745 14.535 9.97973 14.432 10.1859 14.2258H5.54775V13.9166H10.5981C10.5981 13.9166 10.8043 13.7105 10.8043 13.6074H5.54775V13.2982H11.1135C11.1135 13.2982 11.2166 13.1951 11.2166 12.989H5.54775V12.6798H11.2166V12.3706H5.54775V12.0614H11.2166V11.8552H5.54775V11.546H11.1135C11.1135 11.546 11.1135 11.2368 11.0104 11.2368H9.25824V10.9276H10.9074C10.9074 10.9276 10.9074 10.6184 10.7012 10.6184H9.36131V10.3092H10.1859C10.1859 10.3092 10.1859 10 9.56745 10H4.00171V19.9977Z" fill="#DEA014"/>
</svg>
