<svg width="129" height="128" viewBox="0 0 129 128" fill="none" xmlns="http://www.w3.org/2000/svg">
<g clip-path="url(#clip0_5882_5584)">
<path fill-rule="evenodd" clip-rule="evenodd" d="M36.6816 85.9453C34.3974 85.945 33.2183 84.7599 33.217 82.4731C33.2148 77.8451 33.2157 73.2171 33.2167 68.5891C33.217 66.1982 34.1509 65.1692 36.5309 64.9332C39.6986 64.6189 41.7714 62.6466 42.1958 59.5427C42.611 56.5036 40.1035 53.3553 37.0356 53.0619C36.6077 53.0214 36.1769 52.9919 35.7539 52.9209C34.3106 52.6792 33.2461 51.5638 33.2367 50.1091C33.2048 45.0265 33.1974 39.9436 33.2406 34.8613C33.2551 33.1738 34.6074 32.0199 36.4167 32.0109C39.697 31.9942 42.9769 32.0016 46.2572 32.0016C64.8358 32.0029 83.4141 32.0042 101.993 32.0068C103.857 32.0071 105.015 32.7866 105.4 34.3267C105.489 34.6837 105.494 35.068 105.494 35.4398C105.5 40.1214 105.5 44.8031 105.498 49.4844C105.497 51.7279 104.525 52.8079 102.223 53.0092C99.8866 53.2137 98.1499 54.2976 97.1009 56.3768C95.2246 60.0968 97.7934 64.5788 101.961 64.9088C103.978 65.0684 104.998 65.7535 105.387 67.2544C105.479 67.6105 105.493 67.9941 105.494 68.3656C105.501 73.1005 105.502 77.8354 105.497 82.5707C105.495 84.7378 104.282 85.944 102.097 85.945C91.1805 85.9485 80.2648 85.9466 69.3487 85.9466C58.4595 85.9466 47.5705 85.9482 36.6816 85.9453Z" fill="#595959"/>
<path fill-rule="evenodd" clip-rule="evenodd" d="M81.9193 36.3177C67.421 36.3395 52.9228 36.3419 38.4245 36.3284C37.7509 36.3277 37.5277 36.5111 37.5356 37.2039C37.5682 40.0047 37.5637 42.8058 37.5264 45.6065C37.5183 46.2418 37.7412 46.4893 38.3319 46.6882C43.6971 48.4946 47.222 53.3711 47.2382 58.947C47.2549 64.5433 43.7093 69.4586 38.2972 71.265C37.6705 71.4743 37.5245 71.7766 37.5301 72.3758C37.5554 75.1475 37.562 77.9198 37.5264 80.6914C37.5179 81.3954 37.7055 81.6394 38.4418 81.6316C41.9365 81.595 45.4311 81.6116 48.9258 81.612C59.9294 81.6127 70.933 81.6078 81.9363 81.6307C82.429 81.6318 84.8931 81.6038 89.3285 81.5465C89.567 81.5752 89.707 81.6068 89.8471 81.6071C93.7463 81.6085 97.6451 81.5964 101.544 81.6165C102.161 81.6199 102.247 81.3371 102.245 80.8242C102.234 77.9943 102.225 75.1644 102.263 72.3349C102.271 71.6941 102.036 71.4549 101.451 71.2584C96.0907 69.4562 92.5638 64.5731 92.5503 58.9958C92.5368 53.438 96.0665 48.5113 101.413 46.7028C102.04 46.4903 102.272 46.2356 102.263 45.5656C102.226 42.7943 102.226 40.0217 102.262 37.2503C102.272 36.5385 102.069 36.3097 101.341 36.3163C97.6157 36.3496 93.8901 36.3305 90.1643 36.3343C89.8914 36.3347 89.619 36.3731 89.2841 36.3984C84.8508 36.3439 82.3959 36.317 81.9193 36.3177Z" fill="#303030"/>
<path fill-rule="evenodd" clip-rule="evenodd" d="M36.5468 41.7121C55.1254 41.7134 73.7036 41.7147 92.2825 41.7173C94.1466 41.7176 95.3047 42.4971 95.6893 44.0372C95.7787 44.3942 95.7835 44.7785 95.7839 45.1503C95.7895 49.8319 95.7895 54.5136 95.7874 59.1949C95.7865 61.4384 94.8146 62.5184 92.5129 62.7197C90.1761 62.9242 88.4395 64.0081 87.3905 66.0873C85.5141 69.8073 88.0829 74.2893 92.2509 74.6193C94.2673 74.7789 95.2873 75.464 95.6764 76.9649C95.769 77.321 95.7829 77.7047 95.7835 78.0761C95.7903 82.811 95.7913 87.5459 95.7865 92.2812C95.7842 94.4483 94.5713 95.6545 92.3861 95.6555C81.4701 95.659 70.5543 95.6571 59.6383 95.6571C48.749 95.6571 37.8601 95.6587 26.9711 95.6558C24.6869 95.6555 23.5079 94.4705 23.5066 92.1836C23.5043 87.5556 23.5053 82.9276 23.5063 78.2996C23.5066 75.9087 24.4404 74.8797 26.8204 74.6437C29.9881 74.3294 32.061 72.3572 32.4853 69.2532C32.9006 66.2141 30.3931 63.0658 27.3251 62.7724C26.8972 62.7319 26.4665 62.7024 26.0435 62.6314C24.6001 62.3897 23.5356 61.2743 23.5263 59.8196C23.4943 54.737 23.4869 49.6541 23.5301 44.5718C23.5447 42.8843 24.897 41.7304 26.7062 41.7214C29.9865 41.7048 33.2665 41.7121 36.5468 41.7121ZM91.6306 46.0268C87.9051 46.0601 84.1795 46.041 80.4536 46.0448C80.1808 46.0452 79.9083 46.0836 79.5735 46.1089C75.4089 46.0577 72.9901 46.0309 72.3172 46.0284L72.2087 46.0282C57.7104 46.05 43.2121 46.0525 28.7138 46.0389C28.0403 46.0382 27.817 46.2216 27.825 46.9144C27.8576 49.7152 27.8531 52.5163 27.8158 55.317C27.8077 55.9523 28.0306 56.1998 28.6213 56.3987C33.9865 58.2051 37.5113 63.0816 37.5276 68.6575C37.5443 74.2538 33.9986 79.1691 28.5866 80.9755C27.9599 81.1848 27.8139 81.4871 27.8195 82.0863C27.8448 84.858 27.8513 87.6303 27.8158 90.4019C27.8073 91.1059 27.9949 91.3499 28.7312 91.3421C32.2258 91.3055 35.7205 91.3221 39.2152 91.3225C50.2188 91.3232 61.2224 91.3183 72.2257 91.3412L72.4089 91.3408C73.1827 91.337 75.5857 91.3091 79.6178 91.257C79.8563 91.2857 79.9964 91.3173 80.1364 91.3176C84.0356 91.319 87.9345 91.3069 91.8334 91.327C92.4508 91.3305 92.5368 91.0476 92.5347 90.5347C92.5229 87.7048 92.5139 84.8749 92.5526 82.0454C92.5607 81.4046 92.3256 81.1654 91.7401 80.9689C86.3801 79.1667 82.8532 74.2836 82.8397 68.7064C82.8262 63.1485 86.3558 58.2218 91.7027 56.4133C92.3298 56.2008 92.5614 55.9461 92.5526 55.2761C92.5156 52.5048 92.5156 49.7322 92.5517 46.9609C92.561 46.249 92.3586 46.0202 91.6306 46.0268Z" fill="#595959"/>
<path fill-rule="evenodd" clip-rule="evenodd" d="M72.2086 46.0282C57.7104 46.05 43.2121 46.0525 28.7138 46.0389C28.0402 46.0382 27.817 46.2216 27.8249 46.9144C27.8575 49.7152 27.853 52.5163 27.8157 55.317C27.8076 55.9523 28.0305 56.1998 28.6212 56.3987C33.9864 58.2051 37.5113 63.0816 37.5276 68.6575C37.5442 74.2538 33.9986 79.1691 28.5865 80.9755C27.9598 81.1848 27.8138 81.4871 27.8194 82.0863C27.8447 84.858 27.8513 87.6303 27.8157 90.402C27.8073 91.1059 27.9948 91.3499 28.7311 91.3421C32.2258 91.3055 35.7204 91.3221 39.2151 91.3225C50.2187 91.3232 61.2223 91.3183 72.2256 91.3412C72.7183 91.3424 75.1824 91.3143 79.6178 91.257C79.8563 91.2857 79.9963 91.3173 80.1364 91.3176C84.0356 91.319 87.9345 91.3069 91.8333 91.327C92.4507 91.3305 92.5367 91.0476 92.5346 90.5347C92.5228 87.7048 92.5138 84.8749 92.5525 82.0454C92.5606 81.4046 92.3256 81.1654 91.7401 80.9689C86.38 79.1667 82.8531 74.2836 82.8396 68.7064C82.8261 63.1485 86.3558 58.2218 91.7026 56.4133C92.3297 56.2008 92.5613 55.9461 92.5525 55.2762C92.5155 52.5048 92.5155 49.7322 92.5516 46.9609C92.561 46.249 92.3585 46.0202 91.6305 46.0268C87.905 46.0601 84.1794 46.041 80.4536 46.0448C80.1807 46.0452 79.9083 46.0837 79.5734 46.109C75.1401 46.0544 72.6852 46.0275 72.2086 46.0282Z" fill="#131313"/>
<path d="M67.7365 70.8421C70.8602 70.8421 73.4012 73.3832 73.4012 76.5069C73.4012 79.63 70.8602 82.1711 67.7365 82.1711C64.6134 82.1711 62.0723 79.63 62.0723 76.5069C62.0723 73.3832 64.6134 70.8421 67.7365 70.8421ZM66.4076 58.3127C67.1059 57.6139 68.2385 57.6139 68.9373 58.3127C69.6356 59.011 69.6356 60.1437 68.9373 60.842L52.0725 77.7071C51.7229 78.0567 51.2654 78.2313 50.8075 78.2313C50.35 78.2313 49.892 78.0567 49.5428 77.7071C48.8441 77.0088 48.8441 75.8761 49.5428 75.1773L66.4076 58.3127ZM67.7365 75.0906C66.9556 75.0906 66.3202 75.726 66.3202 76.5069C66.3202 77.2878 66.9556 77.9232 67.7365 77.9232C68.5174 77.9232 69.1528 77.2878 69.1528 76.5069C69.1528 75.726 68.5174 75.0906 67.7365 75.0906ZM51.6871 54.7928C54.8108 54.7928 57.3519 57.3339 57.3519 60.457C57.3519 63.5807 54.8108 66.1217 51.6871 66.1217C48.564 66.1217 46.0229 63.5807 46.0229 60.457C46.0229 57.3339 48.564 54.7928 51.6871 54.7928ZM51.6871 59.0412C50.9062 59.0412 50.2714 59.6761 50.2714 60.457C50.2714 61.2379 50.9062 61.8733 51.6871 61.8733C52.4681 61.8733 53.1035 61.2379 53.1035 60.457C53.1035 59.6761 52.4681 59.0412 51.6871 59.0412Z" fill="#595959"/>
</g>
<defs>
<clipPath id="clip0_5882_5584">
<rect width="82" height="64" fill="white" transform="translate(23.5 32)"/>
</clipPath>
</defs>
</svg>
