<svg width="128" height="128" viewBox="0 0 128 128" fill="none" xmlns="http://www.w3.org/2000/svg">
<path fill-rule="evenodd" clip-rule="evenodd" d="M97.6798 78.1043L91.3346 65.9082C90.8458 64.9704 89.8783 64.3825 88.8214 64.3825H71.4687V54.5537C75.0188 52.1354 77.3549 48.054 77.3549 43.4343C77.3549 36.0265 71.3468 30 63.9618 30C56.5767 30 50.57 36.0265 50.57 43.4343C50.57 48.0597 52.9118 52.1453 56.469 54.5636V64.3825H39.0539C37.9886 64.3825 37.0139 64.9789 36.5308 65.9281L30.3103 78.1242C30.1063 78.5223 30 78.9643 30 79.4119V95.1667C30 96.7307 31.2693 98 32.8333 98H95.1667C96.7307 98 98 96.7307 98 95.1667V79.4119C98 78.9572 97.8909 78.5081 97.6798 78.1043ZM65.8003 56.7254V73.7197H62.1339V56.7268C62.7332 56.809 63.3395 56.8671 63.96 56.8671C64.5862 56.8685 65.1982 56.8104 65.8003 56.7254ZM35.6653 92.3334H92.332V80.1047L87.1002 70.0492H71.4673V73.7212H73.299C74.863 73.7212 76.1324 74.9905 76.1324 76.5545C76.1324 78.1185 74.863 79.3879 73.299 79.3879H68.6339H59.301H54.6359C53.0719 79.3879 51.8025 78.1185 51.8025 76.5545C51.8025 74.9905 53.0719 73.7212 54.6359 73.7212H56.4676V70.0492H40.7879L35.6667 80.0919H35.6653V92.3334Z" fill="#595959"/>
<path d="M92.332 92.3334H35.6653V80.0919H35.6667L40.788 70.0492H56.4676V73.7212H54.6359C53.0719 73.7212 51.8025 74.9905 51.8025 76.5545C51.8025 78.1185 53.0719 79.3879 54.6359 79.3879H59.301H68.6339H73.299C74.863 79.3879 76.1324 78.1185 76.1324 76.5545C76.1324 74.9905 74.863 73.7212 73.299 73.7212H71.4673V70.0492H87.1002L92.332 80.1047V92.3334Z" fill="#303030"/>
</svg>
