<svg width="76" height="110" viewBox="0 0 76 110" fill="none" xmlns="http://www.w3.org/2000/svg">
<g clip-path="url(#clip0_2188_26644)">
<path d="M15.5376 17.5337C16.1544 14.2267 18.4772 11.7596 21.443 11.0509C21.6005 11.0116 21.7448 11.0116 21.9285 10.9722C22.3222 10.8935 22.834 10.8016 23.3327 10.8541C23.3458 10.8541 23.3721 10.8541 23.3721 10.8541C23.7658 10.9066 24.1463 10.9197 24.5663 10.9853C24.96 11.0509 25.3668 11.1953 25.7211 11.3265C25.813 11.3659 25.9967 11.5103 26.1017 11.484L26.1148 11.4446C26.5872 10.9722 26.9809 10.4079 27.4796 9.96173C28.6213 8.93813 30.3142 8.20324 32.322 8.20324C33.1487 8.20324 33.8443 8.38697 34.566 8.5182C34.1855 6.90406 35.091 5.43428 35.9308 4.86999C36.2589 4.6469 36.6264 4.52879 37.0069 4.34507V2.9409H35.629V1.458H37.0069C37.0069 0.972449 37.0069 0.421281 37.02 -0.0249023H37.7418H38.4636C38.4767 0.434404 38.4767 0.972449 38.4767 1.458H39.8546V2.9409H38.4767V4.34507C38.8573 4.51567 39.2247 4.6469 39.5528 4.86999C40.3927 5.43428 41.2982 6.90406 40.9176 8.5182C41.6394 8.40009 42.3349 8.21637 43.1616 8.20324C45.1826 8.20324 46.8754 8.93813 48.004 9.96173C48.5027 10.4079 48.8964 10.9722 49.3688 11.4446L49.3819 11.484C49.4869 11.5103 49.6707 11.3659 49.7625 11.3265C50.1168 11.1953 50.5237 11.0509 50.9173 10.9853C51.3242 10.9066 51.7178 10.8935 52.1115 10.8541C52.1115 10.8541 52.1247 10.8541 52.1509 10.8541C52.6365 10.8016 53.1483 10.8935 53.5551 10.9722C53.7257 11.0116 53.87 11.0116 54.0406 11.0509C57.0064 11.7596 59.3161 14.2267 59.946 17.5337C60.0641 18.1636 60.1166 18.9641 60.0641 19.7384C59.8279 23.1898 58.7518 25.5125 57.5445 27.8616C57.0064 28.8983 56.3897 30.1712 55.471 30.7749C55.6023 30.9848 55.786 31.1948 55.891 31.4441C56.1272 32.0216 56.1141 32.8089 55.9303 33.4126C55.2086 35.6173 51.9016 36.1816 49.8937 34.9349C49.0014 34.3837 48.5158 33.7276 48.3715 32.3628C46.7048 34.1475 43.0698 34.0688 41.7312 31.9822C41.5606 31.7197 41.4556 31.4048 41.3506 31.0767C41.1144 31.431 40.9045 31.7985 40.5895 32.0609C39.8677 32.6777 38.8179 32.9927 37.7549 33.0058C36.692 32.9927 35.6421 32.6908 34.9204 32.0609C34.6185 31.7985 34.3954 31.431 34.1592 31.0767C34.0542 31.4048 33.9493 31.7197 33.7787 31.9822C32.4401 34.0688 28.805 34.1475 27.1384 32.3628C27.0072 33.7276 26.5216 34.3706 25.6161 34.9349C23.5952 36.1816 20.2882 35.6173 19.5795 33.4126C19.3827 32.8089 19.3696 32.0216 19.6189 31.4441C19.7239 31.1948 19.8945 30.9848 20.0388 30.7749C19.1202 30.1712 18.5034 28.8983 17.9654 27.8616C16.7581 25.5125 15.682 23.1898 15.4458 19.7384C15.3933 18.9773 15.4458 18.1768 15.5639 17.5337H15.5376Z" fill="#F4BF3D"/>
<path d="M23.044 15.6571C21.8105 15.7489 20.9837 16.3526 20.4588 17.245C19.527 18.8329 20.1963 21.7462 20.7212 23.2816C20.9968 24.1083 21.4168 24.8695 21.8105 25.5912C22.0598 26.0768 22.3879 26.5361 22.6897 26.9823C23.0965 27.599 23.6214 28.1896 23.5033 29.3313C24.002 29.41 24.3695 29.4625 24.7631 29.5806C25.4455 29.7906 25.918 30.2368 26.4166 30.6436C26.4166 29.8168 26.6791 29.3313 27.0203 28.8851C27.204 28.6489 27.3877 28.4389 27.624 28.2683C27.7289 28.1896 27.8208 28.124 27.9389 28.0584C27.8208 27.9534 27.6896 27.7959 27.5715 27.6778C27.1122 27.1397 26.8497 26.2999 26.5479 25.5912C25.6555 23.4784 24.8681 21.3 24.5532 18.531C24.4482 17.6911 24.3957 16.7332 24.5138 15.8539C24.107 15.7227 23.4771 15.6308 23.044 15.6571Z" fill="#FF1118"/>
<path d="M33.0832 12.9406C34.028 13.0193 34.8023 13.308 35.4978 13.6755V24.712C35.4978 25.145 35.4716 25.5912 35.5372 25.9718C35.6028 26.418 35.7734 26.7985 35.9703 27.1135C34.881 27.6909 34.4611 28.0715 33.9362 29.2919C33.49 28.3339 32.5976 27.7828 31.5609 27.4809C31.6134 27.166 31.7315 26.8641 31.6921 26.4573C31.6396 25.6699 31.2984 25.1581 31.0491 24.5807C30.8129 24.0164 30.5636 23.4522 30.3405 22.8879C29.6712 21.2081 28.4376 17.3499 29.2906 15.0928C29.4875 14.5547 29.8287 14.1742 30.2092 13.833C30.8654 13.2424 31.8234 12.8356 33.0832 12.9406Z" fill="#FF1118"/>
<path d="M52.4003 15.6571C53.6338 15.7489 54.4606 16.3526 54.9855 17.245C55.9172 18.8329 55.248 21.7462 54.723 23.2816C54.4475 24.1083 54.0275 24.8695 53.6338 25.5912C53.3845 26.0768 53.0564 26.5361 52.7546 26.9823C52.3478 27.599 51.836 28.1896 51.941 29.3313C51.4423 29.41 51.0748 29.4625 50.6811 29.5806C49.9987 29.7906 49.5263 30.2368 49.0276 30.6436C49.0276 29.8168 48.7652 29.3313 48.424 28.8851C48.2403 28.6489 48.0565 28.4389 47.8203 28.2683C47.7153 28.1896 47.6235 28.124 47.5054 28.0584C47.6235 27.9534 47.7547 27.7959 47.8728 27.6778C48.3321 27.1397 48.5946 26.2999 48.8964 25.5912C49.7888 23.4784 50.5762 21.3 50.8911 18.531C50.9961 17.6911 51.0486 16.7332 50.9305 15.8539C51.3373 15.7227 51.9672 15.6308 52.4003 15.6571Z" fill="#FF1118"/>
<path d="M42.3611 12.9406C41.4162 13.0193 40.6419 13.308 39.9464 13.6755V24.712C39.9464 25.145 39.9727 25.5912 39.9071 25.9718C39.8414 26.418 39.6708 26.7985 39.474 27.1135C40.5632 27.6909 40.9831 28.0715 41.5081 29.2919C41.9543 28.3339 42.8466 27.7828 43.8833 27.4809C43.8308 27.166 43.7127 26.8641 43.7521 26.4573C43.8046 25.6699 44.1458 25.1581 44.3951 24.5807C44.6314 24.0164 44.8807 23.4522 45.1038 22.8879C45.7731 21.2081 47.0066 17.3499 46.1536 15.0928C45.9568 14.5547 45.6156 14.1742 45.235 13.833C44.5789 13.2424 43.6209 12.8356 42.3611 12.9406Z" fill="#FF1118"/>
<path d="M-0.0131836 72.2174C-0.0131836 51.3386 16.8762 34.4099 37.7156 34.4099C58.5549 34.4099 75.4443 51.3386 75.4443 72.2174C75.4443 93.0962 58.5549 110.025 37.7156 110.025C16.8762 110.025 -0.0131836 93.0962 -0.0131836 72.2174Z" fill="#FF1118"/>
<path d="M5.03918 71.8763C5.03918 72.598 5.73471 73.1886 6.60083 73.1886C7.46695 73.1886 8.16247 72.598 8.16247 71.8763C8.16247 71.1545 7.46695 70.564 6.60083 70.564C5.73471 70.564 5.03918 71.1545 5.03918 71.8763Z" fill="black"/>
<path d="M8.18871 83.7396C9.89471 83.2278 11.0102 81.4299 10.5902 79.6189L10.0391 77.2961L3.45129 79.0153L4.00246 81.338C4.44865 83.2146 6.40398 84.2645 8.18871 83.7396ZM5.47224 80.9575L5.31477 80.2882L8.94985 79.3302L9.10733 79.9995C9.33042 80.9312 8.66114 81.7842 7.7819 82.0598C6.85016 82.3354 5.70846 81.9417 5.47224 80.9575Z" fill="black"/>
<path d="M12.06 86.9678L13.1755 89.0937L14.5009 88.3195L12.5849 84.6975L6.65332 88.1489L8.62178 91.8627L9.9472 91.1016L8.76613 88.8706L9.89471 88.2145L10.8527 90.0255L12.1781 89.2643L11.2201 87.4402L12.06 86.9678Z" fill="black"/>
<path d="M19.9863 93.8049L18.5428 92.6238L14.3696 98.2273L15.9444 99.5134C17.0467 100.419 18.4903 100.668 19.2776 99.6052C19.7632 98.9491 19.6976 98.1486 19.2645 97.4399C19.9207 97.5974 20.5375 97.4268 20.9574 96.8625C21.6923 95.8783 21.0099 94.6316 19.9863 93.7917V93.8049ZM18.0966 98.3979C17.8079 98.7916 17.3354 98.6341 16.7974 98.1879L16.5874 98.0173L17.3748 96.9544L17.5848 97.125C18.1622 97.5974 18.3853 98.0173 18.0966 98.3979ZM19.4482 96.1014C19.2383 96.377 18.9364 96.3638 18.4378 95.957L18.2409 95.7996L18.8971 94.9203L19.0808 95.0778C19.5795 95.4846 19.6582 95.8258 19.4482 96.1014Z" fill="black"/>
<path d="M21.1805 102.676L22.5191 103.713L23.4508 102.584L25.4193 103.503L25.2487 104.986L26.8891 105.327L27.3746 97.9255L26.1148 97.335L21.1937 102.663L21.1805 102.676ZM25.6161 101.849L24.5007 101.324L25.8786 99.6577L25.6161 101.849Z" fill="black"/>
<path d="M50.2218 103.175L47.899 103.923L47.5185 102.637L49.4082 102.02L48.962 100.511L47.0723 101.114L46.7967 100.156L49.0145 99.4476L48.5683 97.9385L44.802 99.1458L46.7836 105.944L50.6549 104.697L50.2218 103.175Z" fill="black"/>
<path d="M57.1114 99.474L55.038 100.668L52.479 95.8521L51.0486 96.6788L54.3425 102.886L57.8463 100.852L57.1114 99.474Z" fill="black"/>
<path d="M57.2426 91.9676C55.9303 93.2931 56.324 95.5109 57.5969 96.8888C58.8567 98.2536 60.9695 98.7523 62.2687 97.4268C63.581 96.1014 63.1873 93.8836 61.9144 92.5188C60.6546 91.1409 58.5418 90.6553 57.2426 91.9808V91.9676ZM61.232 96.2982C60.5365 97.0069 59.5654 96.5345 58.778 95.6815C57.9906 94.8285 57.5838 93.8049 58.2793 93.0962C58.9748 92.3876 59.9459 92.86 60.7333 93.713C61.5207 94.566 61.9275 95.5896 61.232 96.2982Z" fill="black"/>
<path d="M66.3631 86.3508L61.875 86.5346L61.0876 88.0306L67.0193 91.4688L67.8066 89.9859L64.4471 88.0306L68.9352 87.8469L69.7226 86.3508L63.791 82.9126L63.0036 84.3955L66.3631 86.3508Z" fill="black"/>
<path d="M70.7726 78.3722L72.203 78.241L72.1898 76.4956L65.1821 77.5323L64.8934 78.9496L70.8907 82.8865L71.5862 81.2986L70.3395 80.5769L70.7857 78.3722H70.7726ZM68.9353 79.7632L67.0981 78.7003L69.1978 78.5165L68.9485 79.7632H68.9353Z" fill="black"/>
<path d="M67.6624 72.6375C67.6624 73.3593 68.3579 73.9498 69.224 73.9498C70.0901 73.9498 70.7856 73.3593 70.7856 72.6375C70.7856 71.9157 70.0901 71.3252 69.224 71.3252C68.3579 71.3252 67.6624 71.9157 67.6624 72.6375Z" fill="black"/>
<path d="M64.3159 64.3043L65.287 68.3725L66.7568 67.9919L66.1794 65.5773L71.2974 64.2387L70.9037 62.5852L64.3159 64.3043Z" fill="black"/>
<path d="M62.2556 59.6457C63.1611 61.2992 65.3133 61.4304 66.8881 60.4855C68.4628 59.5275 69.4208 57.5197 68.5153 55.8662C67.6098 54.2127 65.4577 54.0815 63.8829 55.0263C62.3081 55.9843 61.3502 57.9922 62.2556 59.6457ZM64.7097 56.5224C65.6939 55.9318 66.7437 55.7612 67.2293 56.6405C67.7148 57.5197 67.0456 58.3858 66.0613 58.9895C65.0771 59.58 64.0273 59.7506 63.5417 58.8714C63.0561 57.9922 63.7254 57.126 64.7097 56.5224Z" fill="black"/>
<path d="M59.2111 51.3255L57.3345 53.1628L58.4631 54.4226L60.3397 52.5985L64.7359 51.5224L64.0272 49.9214L60.8777 50.8794L61.0877 50.2757L61.2714 50.2363L62.1375 47.7167L61.98 47.6248L60.5496 46.7981L59.2111 51.3255Z" fill="black"/>
<path d="M53.647 41.4177L50.0513 47.4412L51.4292 48.3467L53.4633 44.9347L53.4108 49.6459L54.7887 50.5514L58.3844 44.5279L56.9934 43.6224L54.9593 47.0344L54.9724 46.3651L55.0905 46.1551L55.1299 42.402L55.0249 42.3232L53.647 41.4177Z" fill="black"/>
<path d="M47.0329 45.0134L47.1116 46.5094L48.7782 46.5488L48.0302 39.1737L46.6917 38.8193L42.7285 44.9609L44.2245 45.7352L44.9594 44.4491L47.046 45.0003L47.0329 45.0134ZM46.8492 41.1552L46.9541 43.3599L45.7731 43.045L46.8492 41.1552Z" fill="black"/>
<path d="M38.5948 42.9006H38.8572C40.3008 42.9006 41.6918 41.8639 41.6918 40.3547C41.6918 38.8324 40.3008 37.8088 38.8572 37.8088H36.9675V44.9215H38.5948V42.9137V42.9006ZM38.5948 39.3967H38.8572C39.4347 39.3967 40.0383 39.751 40.0383 40.3547C40.0383 40.9584 39.4347 41.3127 38.8572 41.3127H38.5948V39.3967Z" fill="black"/>
<path d="M31.9939 42.7561C32.322 42.8611 32.637 42.9924 32.7026 43.3467C32.7551 43.701 32.5582 44.0422 32.2302 44.1472C31.7577 44.3047 31.2328 44.1865 31.0228 43.7404L30.2486 45.1314C30.9047 45.7744 31.8102 45.8663 32.5451 45.6957C33.7262 45.4332 34.5267 44.2259 34.2905 42.9792C34.0936 41.9294 33.2931 41.457 32.2958 41.1682L31.8233 41.0239C31.3247 40.8795 30.9047 40.8008 30.931 40.3809C30.9441 40.1184 31.1016 39.8822 31.3509 39.8297C31.7184 39.7378 32.112 39.7116 32.3614 39.9872L33.0963 38.6486C32.4664 38.1631 31.8233 38.0975 31.036 38.2681C30.0517 38.4911 29.1331 39.5804 29.3431 40.7221C29.5531 41.8638 30.5242 42.2575 31.6002 42.5987L31.9939 42.7299V42.7561Z" fill="black"/>
<path d="M27.742 44.9347L25.5242 45.9714L24.9993 44.7378L26.8103 43.8849L26.1935 42.4413L24.3825 43.2812L23.9888 42.3757L26.1148 41.3915L25.498 39.9348L21.8892 41.6146L24.645 48.1105L28.3588 46.3782L27.742 44.9347Z" fill="black"/>
<path d="M18.1885 52.7823C19.4746 51.3912 19.2777 49.0947 17.9129 47.7955C16.6006 46.5488 14.5403 46.5095 13.3068 47.848L11.7189 49.5671L16.6006 54.5014L18.1885 52.7823ZM14.396 48.9503C15.0259 48.2548 16.0757 48.3992 16.7581 49.0422C17.4799 49.7246 17.7686 50.945 17.0862 51.6799L16.6269 52.1786L13.9235 49.449L14.3828 48.9503H14.396Z" fill="black"/>
<path d="M9.47475 59.1338C11.0495 60.0393 13.2017 59.908 14.0678 58.2676C14.5534 57.3622 14.6584 56.5485 14.3303 55.5774L14.2909 55.4593L12.8211 55.8136L12.8474 55.8924C13.123 56.4304 13.0836 56.9947 12.7686 57.5065C12.2437 58.3464 11.1151 58.1102 10.2753 57.6246C9.43538 57.1391 8.67425 56.2861 9.04169 55.3543C9.27791 54.79 9.64535 54.4751 10.2096 54.3701L9.77658 52.9397C8.8186 53.1628 8.21494 53.6877 7.72939 54.5932C6.90264 56.1548 7.88686 58.2152 9.46163 59.1338H9.47475Z" fill="black"/>
<path d="M10.8396 65.3409L8.66119 64.816L8.71368 64.5667L11.5483 63.1887L11.1808 61.5615L11.1283 61.3515L8.59557 62.6901C8.33311 61.9683 7.78194 61.4696 7.12579 61.299C5.80036 60.9841 4.61929 62.0995 4.30434 63.4906L3.8844 65.4197L10.4984 67.0207L10.8659 65.354L10.8396 65.3409ZM7.2439 64.1861L7.19141 64.4486L5.7085 64.0942L5.76099 63.8318C5.93159 63.0575 6.25967 62.8607 6.7321 62.9657C7.20453 63.0838 7.34888 63.6874 7.2439 64.1861Z" fill="black"/>
<path d="M34.0412 103.988C34.7104 103.66 35.1566 103.057 35.2616 102.348C35.4716 100.944 34.3167 99.7758 32.9782 99.5527L31.1147 99.2378L30.0518 106.259L31.6659 106.521L32.0202 104.198L32.2696 104.238L33.7787 107.098L35.3141 106.6V106.587L35.4978 106.534L34.0543 103.962L34.0412 103.988ZM33.6343 102.072C33.5556 102.571 32.9913 102.768 32.5058 102.689L32.2433 102.65L32.4795 101.075L32.742 101.114C33.49 101.246 33.7 101.561 33.6343 102.059V102.072Z" fill="black"/>
<path d="M42.243 104.644L42.1905 104.749C41.9018 105.274 41.4425 105.537 40.8651 105.55C39.9071 105.55 39.4871 104.421 39.4215 103.424C39.3559 102.413 39.6184 101.285 40.5632 101.101C41.1406 100.996 41.6 101.154 41.9936 101.587L42.8991 100.432C42.1905 99.7101 41.4556 99.4739 40.4582 99.5395C38.7523 99.6576 37.6368 101.652 37.768 103.542C37.8993 105.419 39.1722 107.243 40.97 107.112C41.9674 107.033 42.6629 106.692 43.2666 105.878L43.3191 105.786L42.243 104.658V104.644Z" fill="black"/>
<path d="M4.59302 72.2569C4.59302 72.9787 5.28854 73.5692 6.15466 73.5692C7.02078 73.5692 7.7163 72.9787 7.7163 72.2569C7.7163 71.5351 7.02078 70.9446 6.15466 70.9446C5.28854 70.9446 4.59302 71.5351 4.59302 72.2569Z" fill="#F4BF3D"/>
<path d="M67.2424 72.2569C67.2424 72.9787 67.938 73.5692 68.8041 73.5692C69.6702 73.5692 70.3657 72.9787 70.3657 72.2569C70.3657 71.5351 69.6702 70.9446 68.8041 70.9446C67.938 70.9446 67.2424 71.5351 67.2424 72.2569Z" fill="#F4BF3D"/>
<path d="M9.01552 59.2781C10.5903 60.1967 12.7425 60.0523 13.6086 58.4119C14.0941 57.5064 14.1991 56.6928 13.871 55.7217L12.3881 56.0367C12.6637 56.5747 12.6244 57.139 12.3094 57.6508C11.7845 58.5038 10.6559 58.2545 9.81603 57.7689C8.97615 57.2834 8.21502 56.4304 8.58246 55.4986C8.81868 54.9475 9.18612 54.6194 9.75041 54.5144L9.31735 53.084C8.35937 53.3071 7.75571 53.832 7.27016 54.7375C6.44341 56.2991 7.42763 58.3594 9.0024 59.2781H9.01552Z" fill="#F4BF3D"/>
<path d="M17.598 52.8084C18.884 51.4174 18.6872 49.1208 17.3224 47.8216C16.0101 46.575 13.9497 46.5356 12.7162 47.8741L11.1283 49.5933L16.0101 54.5275L17.598 52.8084ZM13.8054 48.9765C14.4353 48.281 15.4851 48.4253 16.1675 49.0683C16.8893 49.7507 17.178 50.9712 16.4956 51.7061L16.0363 52.2047L13.333 49.4751L13.7923 48.9765H13.8054Z" fill="#F4BF3D"/>
<path d="M54.6312 49.9869L58.2138 43.9503L56.8359 43.0579L54.8018 46.4699L54.8674 41.7588L53.4895 40.8533L49.8938 46.8767L51.2717 47.7822L53.3058 44.3702L53.2402 49.0814L54.6312 49.9869Z" fill="#F4BF3D"/>
<path d="M46.5999 44.6067L46.6786 46.1027L48.3453 46.1421L47.5972 38.7669L46.2587 38.4126L42.2955 44.5542L43.7916 45.3284L44.5265 44.0424L46.613 44.5935L46.5999 44.6067ZM46.4162 40.7485L46.5212 42.9532L45.3401 42.6382L46.4162 40.7485Z" fill="#F4BF3D"/>
<path d="M38.1749 42.4938H38.4373C39.8809 42.4938 41.2719 41.4571 41.2719 39.948C41.2719 38.4257 39.8809 37.4021 38.4373 37.4021H36.5476V44.5148H38.1749V42.507V42.4938ZM38.1749 38.99H38.4373C39.0147 38.99 39.6184 39.3443 39.6184 39.948C39.6184 40.5516 39.0147 40.906 38.4373 40.906H38.1749V38.99Z" fill="#F4BF3D"/>
<path d="M31.6396 42.3756C31.9676 42.4806 32.2826 42.6118 32.3482 42.9661C32.4007 43.3204 32.2039 43.6616 31.8758 43.7797C31.4034 43.9372 30.8784 43.8191 30.6685 43.3729L29.8942 44.764C30.5504 45.407 31.4558 45.4989 32.1907 45.3283C33.3718 45.0658 34.1723 43.8585 33.9361 42.6118C33.7393 41.5619 32.9387 41.0895 31.9414 40.8008L31.469 40.6565C30.9703 40.5121 30.5504 40.4334 30.5766 40.0134C30.5897 39.751 30.7472 39.5148 30.9965 39.4623C31.364 39.3704 31.7577 39.3442 32.007 39.6197L32.7419 38.2812C32.112 37.7956 31.469 37.73 30.6816 37.9006C29.6974 38.1237 28.7787 39.2129 28.9887 40.3678C29.1987 41.5095 30.1698 41.9031 31.2459 42.2443L31.6396 42.3756Z" fill="#F4BF3D"/>
<path d="M24.9862 45.7876L24.4612 44.554L26.2591 43.7141L25.6423 42.2575L23.8445 43.0974L23.4508 42.1919L25.5767 41.2076L24.9599 39.751L21.3511 41.4307L24.1069 47.9266L27.8207 46.1944L27.204 44.7509L24.9862 45.7876Z" fill="#F4BF3D"/>
<path d="M64.0404 49.3176L60.8909 50.2756L62.0195 47.0473L60.5628 46.1943L59.2243 50.7218L57.3477 52.559L58.4762 53.8188L60.3528 51.9947L64.7491 50.9055L64.0404 49.3176Z" fill="#F4BF3D"/>
<path d="M62.2294 59.0683C63.1349 60.7218 65.2871 60.853 66.8618 59.9081C68.4366 58.9502 69.3946 56.9292 68.4891 55.2888C67.5836 53.6353 65.4314 53.5041 63.8567 54.449C62.2819 55.4069 61.3239 57.4148 62.2294 59.0683ZM64.6834 55.945C65.6676 55.3544 66.7175 55.1838 67.203 56.0631C67.6886 56.9423 67.0193 57.8085 66.0351 58.4121C65.0509 59.0026 64.001 59.1732 63.5155 58.294C63.0299 57.4148 63.6992 56.5355 64.6834 55.945Z" fill="#F4BF3D"/>
<path d="M65.5626 67.8476L67.0455 67.4539L66.4681 65.0392L71.573 63.7138L71.1793 62.0603L64.6046 63.7794L65.5626 67.8476Z" fill="#F4BF3D"/>
<path d="M8.46435 83.2015C10.1703 82.6897 11.2989 80.8918 10.8659 79.0808L10.3147 76.7581L3.72693 78.4772L4.2781 80.7999C4.72428 82.6765 6.67961 83.7264 8.46435 83.2015ZM5.74788 80.4194L5.5904 79.7501L9.22548 78.8052L9.38296 79.4745C9.60605 80.4063 8.93678 81.2593 8.05753 81.5348C7.1258 81.8104 5.98409 81.4167 5.74788 80.4325V80.4194Z" fill="#F4BF3D"/>
<path d="M13.3329 88.4768L14.6584 87.7157L12.7555 84.0938L6.81079 87.5451L8.77925 91.2589L10.1047 90.4978L8.93672 88.2669L10.0522 87.6107L11.0102 89.4217L12.3356 88.6606L11.3776 86.8365L12.2175 86.364L13.3329 88.4768Z" fill="#F4BF3D"/>
<path d="M19.9076 93.1882L18.464 92.0071L14.2909 97.6106L15.8657 98.8967C16.968 99.8022 18.4115 100.051 19.1989 98.9885C19.6845 98.3324 19.6188 97.5319 19.1858 96.8232C19.8419 96.9807 20.4587 96.8101 20.8787 96.2589C21.6136 95.2747 20.9312 94.028 19.9076 93.1882ZM18.0178 97.7812C17.7291 98.1749 17.2567 98.0174 16.7187 97.5712L16.5087 97.4006L17.2961 96.3377L17.506 96.5083C18.0835 96.9807 18.3065 97.4006 18.0178 97.7812ZM19.3695 95.4847C19.1595 95.7603 18.8577 95.7603 18.359 95.3403L18.1622 95.1829L18.8183 94.3036L19.0021 94.4611C19.5007 94.8679 19.5795 95.2091 19.3695 95.4847Z" fill="#F4BF3D"/>
<path d="M20.8131 102.177L22.1517 103.214L23.0965 102.085L25.065 103.004L24.8944 104.487L26.5216 104.828L27.0072 97.4267L25.7474 96.8362L20.8262 102.164L20.8131 102.177ZM25.2487 101.351L24.1332 100.826L25.5112 99.159L25.2487 101.351Z" fill="#F4BF3D"/>
<path d="M34.8941 101.862C35.104 100.458 33.9492 99.2902 32.6106 99.0672L30.7472 98.7522L29.6842 105.773L31.2983 106.035L31.6527 103.713L31.902 103.752L33.4111 106.613L34.9465 106.114L33.4899 103.568C34.2641 103.28 34.7891 102.61 34.9072 101.836L34.8941 101.862ZM33.2668 101.587C33.1881 102.085 32.6238 102.282 32.1382 102.204L31.8758 102.164L32.112 100.603L32.3744 100.642C33.1224 100.76 33.3324 101.088 33.2668 101.587Z" fill="#F4BF3D"/>
<path d="M40.432 105.235C39.4741 105.235 39.0541 104.119 38.9885 103.109C38.9229 102.099 39.1853 100.97 40.1433 100.786C40.7207 100.681 41.18 100.839 41.5737 101.272L42.4792 100.117C41.7706 99.3952 41.0357 99.159 40.0383 99.2246C38.3323 99.3558 37.23 101.337 37.3481 103.227C37.4794 105.104 38.7523 106.928 40.537 106.797C41.5344 106.718 42.2299 106.377 42.8336 105.563L41.7706 104.434C41.4819 104.959 41.0226 105.235 40.432 105.248V105.235Z" fill="#F4BF3D"/>
<path d="M47.361 103.66L46.9935 102.374L48.8832 101.77L48.437 100.248L46.5473 100.852L46.2717 99.9069L48.4764 99.1983L48.0434 97.676L44.2639 98.8833L46.2455 105.681L50.1299 104.434L49.6837 102.925L47.361 103.66Z" fill="#F4BF3D"/>
<path d="M56.7177 91.8494C55.4054 93.1749 55.7991 95.3927 57.072 96.7575C58.3318 98.1354 60.4446 98.6209 61.7438 97.2955C63.0561 95.9701 62.6624 93.7523 61.3895 92.3875C60.1297 91.0227 58.0169 90.524 56.7177 91.8494ZM60.7071 96.1801C60.0116 96.8887 59.0405 96.4163 58.2531 95.5633C57.4657 94.7103 57.0589 93.6867 57.7544 92.978C58.4499 92.2694 59.421 92.7418 60.2084 93.5948C60.9958 94.4478 61.4026 95.4714 60.7071 96.1801Z" fill="#F4BF3D"/>
<path d="M54.4737 100.524L51.9278 95.6946L50.4974 96.5213L53.7913 102.729L57.2952 100.708L56.5603 99.3165L54.4737 100.524Z" fill="#F4BF3D"/>
<path d="M70.405 78.8707L71.8354 78.7395L71.8223 76.9941L64.8146 78.0309L64.5259 79.4481L70.5231 83.3851L71.2186 81.7972L69.9719 81.0754L70.4181 78.8707H70.405ZM68.5678 80.2618L66.7305 79.1988L68.8302 79.0151L68.5809 80.2618H68.5678Z" fill="#F4BF3D"/>
<path d="M61.3239 86.7184L60.5365 88.2013L66.4812 91.6526L67.2686 90.1566L63.896 88.2144L68.3972 88.0307L69.1846 86.5347L63.253 83.0964L62.4525 84.5793L65.8251 86.5347L61.3239 86.7184Z" fill="#F4BF3D"/>
<path d="M10.3672 65.6691L8.18877 65.1442L8.24127 64.8948L11.0758 63.5169L10.7084 61.8897L8.18877 63.2413C7.96568 62.4146 7.36202 61.8109 6.64026 61.6403C5.31483 61.3254 4.13375 62.4408 3.83192 63.8319L3.41199 65.761L10.026 67.362L10.3934 65.6953L10.3672 65.6691ZM6.77149 64.5143L6.71899 64.7767L5.23609 64.4224L5.30171 64.16C5.4723 63.3857 5.80038 63.1889 6.27281 63.307C6.74524 63.4251 6.88959 64.0287 6.78461 64.5274L6.77149 64.5143Z" fill="#F4BF3D"/>
<path d="M46.4293 48.8323L14.7765 81.9679C15.4589 83.5952 16.3119 85.1175 17.3224 86.5479L51.1142 51.1813C49.6575 50.2496 48.0828 49.4622 46.4293 48.8454V48.8323Z" fill="white"/>
<path d="M12.9261 69.8554L34.2773 47.5068C22.9259 49.0816 14.0154 58.3333 12.9261 69.8554Z" fill="white"/>
<path d="M58.1219 57.9001L24.3301 93.2667C25.7867 94.1984 27.3615 94.9858 29.0019 95.6026L60.6547 62.4669C59.9723 60.8528 59.1193 59.3174 58.1219 57.887V57.9001Z" fill="white"/>
<path d="M62.5181 74.5928L41.1669 96.9413C52.5183 95.3666 61.4288 86.1148 62.5181 74.5928Z" fill="white"/>
<path d="M51.1142 51.1812L17.3224 86.5477C19.199 89.2248 21.5743 91.5083 24.3301 93.2667L58.1219 57.9001C56.2453 55.223 53.8701 52.9396 51.1142 51.1812Z" fill="#1D6BBF"/>
<path d="M62.6363 72.2175C62.6363 68.753 61.9276 65.4591 60.6678 62.467L29.015 95.6027C31.7315 96.6132 34.6579 97.1775 37.7287 97.1775C38.8967 97.1775 40.0515 97.0987 41.1801 96.9413L62.5313 74.5927C62.61 73.8185 62.6494 73.0311 62.6494 72.2306L62.6363 72.2175Z" fill="#1D6BBF"/>
<path d="M37.7156 47.2704C36.5476 47.2704 35.3928 47.3492 34.2642 47.5067L12.913 69.8552C12.8343 70.6295 12.7949 71.43 12.7949 72.2174C12.7949 75.6818 13.5036 78.9757 14.7634 81.9678L46.4162 48.8321C43.6997 47.8216 40.7733 47.2573 37.7025 47.2573L37.7156 47.2704Z" fill="#1D6BBF"/>
</g>
<defs>
<clipPath id="clip0_2188_26644">
<rect width="75.4444" height="110" fill="white"/>
</clipPath>
</defs>
</svg>
