<?xml version="1.0" encoding="UTF-8"?>
<svg xmlns="http://www.w3.org/2000/svg" xmlns:xlink="http://www.w3.org/1999/xlink" width="32pt" height="32pt" viewBox="0 0 32 32" version="1.1">
<defs>
<clipPath id="clip1">
  <path d="M 16 32 C 24.835938 32 32 24.835938 32 16 C 32 7.164062 24.835938 0 16 0 C 7.164062 0 0 7.164062 0 16 C 0 24.835938 7.164062 32 16 32 Z M 16 32 "/>
</clipPath>
<clipPath id="clip2">
  <path d="M 3 4 L 29 4 L 29 28 L 3 28 Z M 3 4 "/>
</clipPath>
<clipPath id="clip3">
  <path d="M 12.695312 27.449219 C 12.234375 27.308594 11.898438 27.242188 11.589844 27.105469 C 10.820312 26.769531 10.015625 26.46875 9.316406 26.015625 C 9.007812 25.816406 8.808594 25.300781 8.738281 24.902344 C 8.648438 24.375 8.738281 23.816406 8.746094 23.273438 C 8.75 23.03125 8.75 22.789062 8.75 22.425781 C 8.105469 22.746094 7.605469 22.980469 7.113281 23.238281 C 6.636719 23.492188 6.148438 23.609375 5.769531 23.132812 C 5.371094 22.636719 5.316406 22.042969 5.761719 21.570312 C 6.496094 20.785156 7.292969 20.058594 8.074219 19.316406 C 8.738281 18.683594 9.417969 18.066406 10.089844 17.445312 C 10.035156 17.375 9.976562 17.308594 9.917969 17.238281 C 9.386719 17.539062 8.878906 17.886719 8.320312 18.128906 C 7.460938 18.507812 6.59375 18.902344 5.6875 19.128906 C 4.414062 19.445312 3.699219 19.042969 3.238281 17.8125 C 2.867188 16.808594 2.921875 15.792969 3.464844 14.792969 C 4.46875 15.941406 4.570312 15.902344 6.035156 15.40625 C 7.480469 14.921875 8.960938 14.511719 10.457031 14.21875 C 11.476562 14.015625 12.296875 14.550781 12.792969 15.46875 C 13.015625 15.882812 13.300781 15.84375 13.617188 15.695312 C 14.066406 15.484375 14.535156 15.289062 14.914062 14.984375 C 15.058594 14.867188 15.082031 14.414062 14.972656 14.21875 C 14.773438 13.863281 14.433594 13.585938 14.207031 13.332031 C 15.976562 12.671875 17.761719 12.003906 19.605469 11.316406 C 19.652344 12.554688 20.222656 13.601562 21.160156 14.542969 C 20.730469 14.738281 20.296875 14.878906 19.941406 15.125 C 19.722656 15.273438 19.621094 15.585938 19.46875 15.824219 C 19.71875 15.96875 19.957031 16.214844 20.21875 16.242188 C 21.152344 16.339844 22.238281 15.554688 22.5625 14.617188 C 23.222656 12.710938 22.28125 10.605469 20.378906 9.808594 C 18.214844 8.90625 16.042969 8.796875 13.847656 9.761719 C 12.835938 10.210938 11.796875 10.597656 10.757812 10.972656 C 9.386719 11.472656 7.960938 11.433594 6.546875 11.253906 C 5.652344 11.140625 4.609375 9.390625 4.964844 8.570312 C 5.0625 8.347656 5.527344 8.152344 5.8125 8.164062 C 6.914062 8.214844 7.984375 8.164062 8.996094 7.667969 C 9.140625 7.597656 9.347656 7.542969 9.40625 7.421875 C 10.074219 6.046875 11.4375 5.84375 12.691406 5.484375 C 15.097656 4.800781 17.511719 4.921875 19.914062 5.53125 C 20.28125 5.625 20.632812 5.792969 21.003906 5.839844 C 21.390625 5.890625 21.820312 5.929688 22.179688 5.808594 C 22.84375 5.589844 22.941406 5.105469 22.515625 4.539062 C 22.433594 4.429688 22.347656 4.324219 22.265625 4.21875 C 22.285156 4.144531 22.304688 4.074219 22.324219 4 C 23.214844 4.136719 24.117188 4.210938 24.988281 4.421875 C 25.769531 4.613281 26.234375 5.238281 26.285156 6.019531 C 26.332031 6.714844 25.9375 7.273438 25.289062 7.601562 C 24.84375 7.824219 24.984375 8.023438 25.277344 8.277344 C 28.015625 10.65625 29.40625 13.554688 28.71875 17.25 C 28.691406 17.386719 28.621094 17.535156 28.644531 17.664062 C 29.125 20.089844 27.792969 21.8125 26.390625 23.511719 C 24.835938 25.394531 22.679688 26.359375 20.503906 27.25 C 19.875 27.507812 19.105469 27.488281 18.40625 27.472656 C 17.589844 27.453125 17.195312 26.75 16.847656 26.164062 C 15.882812 24.539062 16.285156 22.804688 17.820312 21.554688 C 19.273438 20.371094 20.941406 20.503906 22.621094 20.796875 C 22.832031 20.832031 23 21.089844 23.34375 21.371094 C 22.914062 21.371094 22.691406 21.386719 22.472656 21.371094 C 21.355469 21.277344 20.382812 21.582031 19.539062 22.339844 C 18.671875 23.117188 18.503906 23.945312 19.085938 24.859375 C 19.652344 25.753906 20.839844 26.113281 21.769531 25.625 C 23.328125 24.804688 24.785156 23.800781 25.660156 22.25 C 26.117188 21.449219 26.34375 20.4375 26.390625 19.507812 C 26.445312 18.429688 25.683594 17.800781 24.59375 17.875 C 22.914062 17.984375 21.3125 18.445312 19.730469 19.03125 C 18.179688 19.601562 17.035156 20.640625 15.96875 21.816406 C 14.949219 22.953125 15.0625 24.34375 15.152344 25.722656 C 15.164062 25.910156 15.191406 26.097656 15.199219 26.28125 C 15.203125 26.320312 15.15625 26.363281 15.132812 26.402344 C 14.132812 26.328125 12.664062 24.078125 12.46875 22.621094 C 12.195312 20.570312 12.949219 18.757812 14.351562 18.316406 C 14.96875 19.125 15.78125 18.699219 16.453125 18.445312 C 17.234375 18.148438 17.941406 17.632812 18.632812 17.144531 C 18.832031 17.003906 19.023438 16.566406 18.945312 16.382812 C 18.832031 16.113281 18.46875 15.773438 18.214844 15.773438 C 17.746094 15.773438 17.265625 15.976562 16.808594 16.140625 C 16.507812 16.246094 16.238281 16.4375 15.953125 16.59375 C 15.421875 15.382812 15.449219 15.414062 14.347656 16.214844 C 13.226562 17.03125 12.300781 18.011719 11.585938 19.191406 C 11.445312 19.421875 11.328125 19.707031 11.308594 19.972656 C 11.144531 22.398438 11.082031 24.808594 12.488281 26.972656 C 12.550781 27.066406 12.578125 27.175781 12.695312 27.449219 "/>
</clipPath>
</defs>
<g id="surface1">
<g clip-path="url(#clip1)" clip-rule="evenodd">
<rect x="0" y="0" width="32" height="32" style="fill:rgb(100%,100%,100%);fill-opacity:1;stroke:none;"/>
</g>
<g clip-path="url(#clip2)" clip-rule="nonzero">
<g clip-path="url(#clip3)" clip-rule="nonzero">
<rect x="0" y="0" width="32" height="32" style="fill:rgb(73.33374%,15.293884%,12.156677%);fill-opacity:1;stroke:none;"/>
</g>
</g>
</g>
</svg>
