<svg width="128" height="128" viewBox="0 0 128 128" fill="none" xmlns="http://www.w3.org/2000/svg">
<path d="M65.625 117C71.2842 117 76.0191 112.967 77.108 107.625H96.0938V103.908C96.0938 101.145 95.0175 98.5467 93.0634 96.5927C91.9947 95.5239 91.4062 94.1031 91.4062 92.5917V79.0537C92.1823 79.142 92.9641 79.1875 93.75 79.1875C105.467 79.1875 115 69.7248 115 58.0938C115 46.4627 105.467 37 93.75 37C87.2436 37 81.4164 39.9617 77.5439 44.6072C74.5684 43.0538 71.3205 42.1009 67.9688 41.7973V37H63.2813V41.7939C50.0736 42.9755 39.6875 54.0383 39.6875 67.4688V92.5917C39.6875 94.1031 39.0989 95.5241 38.0303 96.5927C36.0763 98.5467 35 101.145 35 103.908V107.625H54.142C55.2309 112.967 59.9658 117 65.625 117ZM65.625 112.312C62.5695 112.312 59.9644 110.353 58.9969 107.623H72.253C71.2856 110.353 68.6805 112.312 65.625 112.312ZM93.75 41.6875C102.882 41.6875 110.312 49.0473 110.312 58.0938C110.312 67.1402 102.882 74.5 93.75 74.5C89.6319 74.5 86.8653 72.9152 86.3902 72.7522L82.0312 73.8419V69.4972C81.782 69.1011 77.3438 65.0813 77.3438 58.0938C77.3438 49.0473 84.7036 41.6875 93.75 41.6875ZM41.3447 99.9073C43.2988 97.9533 44.375 95.3552 44.375 92.5917V67.4688C44.375 55.8377 53.9077 46.375 65.625 46.375C68.8798 46.375 72.0619 47.1191 74.9463 48.5413C73.4827 51.4109 72.6562 54.6575 72.6562 58.0938C72.6562 62.8309 74.3148 67.4613 77.3438 71.2291V79.8456L85.9886 77.6844C86.2309 77.7811 86.4745 77.8717 86.7188 77.9591V92.5917C86.7188 95.3553 87.795 97.9533 89.7491 99.9073C90.5853 100.744 91.1275 101.795 91.3239 102.938H39.77C39.9663 101.795 40.5086 100.743 41.3447 99.9073Z" fill="#595959"/>
<path fill-rule="evenodd" clip-rule="evenodd" d="M93.75 41.6875C102.882 41.6875 110.312 49.0473 110.312 58.0938C110.312 67.1402 102.882 74.5 93.75 74.5C89.6319 74.5 86.8653 72.9152 86.3902 72.7522L82.0312 73.8419V69.4972C81.782 69.1011 77.3438 65.0813 77.3438 58.0938C77.3438 49.0473 84.7036 41.6875 93.75 41.6875Z" fill="#303030"/>
<path d="M82.0312 55.75H86.7188V60.4375H82.0312V55.75Z" fill="#595959"/>
<path d="M91.4062 55.75H96.0938V60.4375H91.4062V55.75Z" fill="#595959"/>
<path d="M100.781 55.75H105.469V60.4375H100.781V55.75Z" fill="#595959"/>
<path d="M31.1967 28.9896L30.4896 29.6967C29.7085 30.4777 29.7085 31.7441 30.4896 32.5251L37.5607 39.5962C38.3417 40.3772 39.608 40.3772 40.3891 39.5962L41.0962 38.8891C41.8772 38.108 41.8772 36.8417 41.0962 36.0606L34.0251 28.9896C33.2441 28.2085 31.9777 28.2085 31.1967 28.9896Z" fill="#595959"/>
<path d="M18.8934 46.5208V47.5208C18.8934 48.6254 19.7888 49.5208 20.8934 49.5208H30.8934C31.9979 49.5208 32.8934 48.6254 32.8934 47.5208V46.5208C32.8934 45.4162 31.9979 44.5208 30.8934 44.5208H20.8934C19.7888 44.5208 18.8934 45.4162 18.8934 46.5208Z" fill="#595959"/>
<path d="M49.0208 17.3934H48.0208C46.9162 17.3934 46.0208 18.2888 46.0208 19.3934V29.3934C46.0208 30.4979 46.9162 31.3934 48.0208 31.3934H49.0208C50.1254 31.3934 51.0208 30.4979 51.0208 29.3934V19.3934C51.0208 18.2888 50.1254 17.3934 49.0208 17.3934Z" fill="#595959"/>
</svg>
