<?xml version="1.0" encoding="UTF-8"?>
<svg xmlns="http://www.w3.org/2000/svg" xmlns:xlink="http://www.w3.org/1999/xlink" width="22pt" height="22pt" viewBox="0 0 22 22" version="1.1">
<defs>
<clipPath id="clip1">
  <path d="M 1 1 L 21 1 L 21 21 L 1 21 Z M 1 1 "/>
</clipPath>
<clipPath id="clip2">
  <path d="M 15.507812 13 L 21 18.308594 L 18.492188 20.734375 L 13 15.425781 Z M 15 2.015625 C 16.085938 0.945312 17.695312 0.726562 19 1.335938 L 16.65625 3.648438 L 18.3125 5.285156 L 20.65625 2.972656 C 21.296875 4.296875 21.023438 5.882812 19.96875 6.921875 C 18.183594 8.683594 16.070312 7.625 15.953125 7.613281 L 7.703125 15.753906 C 7.710938 15.871094 8.789062 17.953125 7 19.71875 C 5.925781 20.78125 4.3125 21.015625 3 20.394531 L 5.34375 18.082031 L 3.6875 16.445312 L 1.339844 18.761719 C 0.703125 17.4375 0.976562 15.851562 2.027344 14.8125 C 3.824219 13.042969 5.929688 14.109375 6.046875 14.121094 L 14.296875 5.976562 C 14.285156 5.863281 13.210938 3.78125 15 2.015625 Z M 13.796875 11.398438 L 14.601562 12.203125 L 12.203125 14.601562 L 11.398438 13.796875 Z M 2.886719 1 L 7.042969 3.90625 L 7.042969 6.050781 L 9.800781 8.726562 L 8.96875 9.535156 L 6.210938 6.859375 L 3.996094 6.859375 L 1 2.828125 Z M 2.886719 1 "/>
</clipPath>
</defs>
<g id="surface1">
<g clip-path="url(#clip1)" clip-rule="nonzero">
<g clip-path="url(#clip2)" clip-rule="nonzero">
<rect x="0" y="0" width="22" height="22" style="fill:rgb(100%,100%,100%);fill-opacity:1;stroke:none;"/>
</g>
</g>
</g>
</svg>
