<svg width="32" height="32" viewBox="0 0 32 32" fill="none" xmlns="http://www.w3.org/2000/svg">
<path d="M16 32C24.8366 32 32 24.8366 32 16C32 7.16344 24.8366 0 16 0C7.16344 0 0 7.16344 0 16C0 24.8366 7.16344 32 16 32Z" fill="white"/>
<path d="M25.9657 7.69077C25.9657 7.69077 28.8192 10.8259 28.9871 15.4321C28.9871 15.4321 28.9972 15.5783 28.9995 15.8362L28.9996 16.0501C28.9901 17.1798 28.8207 19.6655 27.6438 21.8703C26.061 24.8364 24.3342 26.405 21.5056 27.8274C18.676 29.2509 14.1206 29.4437 11.123 28.0441C8.12546 26.6455 6.27948 25.1755 4.52882 21.9916C4.52882 21.9916 2.17909 17.94 3.30574 13.2373C3.30574 13.2373 3.59283 10.4402 6.13539 7.40153L6.15181 7.38172C6.42475 7.0561 10.0847 2.82652 15.894 3.01194C15.894 3.01194 15.9914 3.00364 16.1705 3.00088L16.4057 3.00082C17.8948 3.02157 22.3499 3.46052 25.9657 7.69077ZM14.672 5.90547C12.7654 5.87514 9.97145 7.54561 9.54029 7.95619C9.10913 8.36568 6.92731 9.98199 5.99131 14.0098C5.0564 18.0364 7.3108 21.268 7.3108 21.268C9.92379 25.8504 14.672 26.1158 14.672 26.1158V21.3882H12.7285C9.89995 21.0751 9.82845 18.3495 9.82845 18.3495V13.9123C9.92379 10.8746 12.6581 10.7046 12.6581 10.7046H14.672V5.90547ZM17.3088 5.90655V10.7046H19.0595C21.7212 10.8259 22.1047 13.3576 22.1047 13.3576V18.3983C21.9617 20.9061 19.5632 21.3882 19.5632 21.3882H17.3088V26.1158C19.0118 25.9706 22.6561 24.6197 24.5747 21.6775C26.4933 18.7352 26.3015 15.287 26.0372 14.0813C25.7739 12.8755 25.1499 10.6331 22.7287 8.38951C20.3064 6.14705 17.3088 5.90655 17.3088 5.90655ZM19.3953 13.8884C19.3476 13.3338 18.8439 13.4302 18.8439 13.4302H12.9214C12.5617 13.4302 12.4902 13.8884 12.4902 13.8884V18.1328C12.5617 18.6875 13.0405 18.5673 13.0405 18.5673H19.0356C19.5156 18.6637 19.3953 18.0126 19.3953 18.0126V13.8884Z" fill="#DA0000"/>
</svg>
