<svg width="18" height="18" viewBox="0 0 18 18" fill="none" xmlns="http://www.w3.org/2000/svg">
<g id="Poker/Clover">
<path id="Path" d="M12.7269 6.701C12.8576 6.30294 12.9236 5.88764 12.9236 5.46028C12.9236 3.27659 11.1635 1.5 9 1.5C6.83653 1.5 5.07639 3.27659 5.07639 5.46028C5.07639 5.88764 5.14236 6.30294 5.27306 6.701C3.1791 6.78119 1.5 8.52561 1.5 10.6584C1.5 12.8421 3.26014 14.6187 5.42361 14.6187C6.42639 14.6187 7.34229 14.2367 8.03667 13.6096L7.19181 16.5H10.7844L9.93069 13.5796C10.6289 14.2243 11.5578 14.6187 12.5764 14.6187C14.7399 14.6187 16.5 12.8421 16.5 10.6584C16.5 8.52561 14.8209 6.78119 12.7269 6.701Z" fill="black"/>
</g>
</svg>
