<svg width="45" height="44" viewBox="0 0 45 44" fill="none" xmlns="http://www.w3.org/2000/svg">
<rect x="0.5" y="22" width="44" height="6.47059" fill="#D90101"/>
<ellipse cx="22.5" cy="28.4708" rx="22" ry="15.5294" fill="#D90101"/>
<ellipse cx="22.5" cy="22.0001" rx="22" ry="15.5294" fill="#F20000"/>
<rect x="0.5" y="15.5293" width="44" height="6.47059" fill="#9B9B9B"/>
<ellipse cx="22.5" cy="22.0001" rx="22" ry="15.5294" fill="#9B9B9B"/>
<path d="M43.5 15.5294C43.5 19.4057 41.2757 23.0139 37.4797 25.6934C33.6863 28.3711 28.3933 30.0588 22.5 30.0588C16.6067 30.0588 11.3137 28.3711 7.52033 25.6934C3.72433 23.0139 1.5 19.4057 1.5 15.5294C1.5 11.6532 3.72433 8.04496 7.52033 5.36543C11.3137 2.68774 16.6067 1 22.5 1C28.3933 1 33.6863 2.68774 37.4797 5.36543C41.2757 8.04496 43.5 11.6532 43.5 15.5294Z" fill="white" stroke="#9B9B9B" stroke-width="2"/>
<path d="M38 15.5295C38 17.921 36.4525 20.2357 33.6358 22.003C30.8326 23.7618 26.8982 24.8824 22.5 24.8824C18.1018 24.8824 14.1674 23.7618 11.3642 22.003C8.54751 20.2357 7 17.921 7 15.5295C7 13.1379 8.54751 10.8232 11.3642 9.05588C14.1674 7.29706 18.1018 6.17651 22.5 6.17651C26.8982 6.17651 30.8326 7.29706 33.6358 9.05588C36.4525 10.8232 38 13.1379 38 15.5295Z" fill="white" stroke="#9B9B9B" stroke-width="2"/>
</svg>
