<?xml version="1.0" encoding="UTF-8"?>
<svg xmlns="http://www.w3.org/2000/svg" xmlns:xlink="http://www.w3.org/1999/xlink" width="16pt" height="16pt" viewBox="0 0 16 16" version="1.1">
<defs>
<clipPath id="clip1">
  <path d="M 2 2 L 14 2 L 14 14 L 2 14 Z M 2 2 "/>
</clipPath>
<clipPath id="clip2">
  <path d="M 8 14 C 11.3125 14 14 11.3125 14 8 C 14 4.6875 11.3125 2 8 2 C 4.6875 2 2 4.6875 2 8 C 2 11.3125 4.6875 14 8 14 Z M 8 14 "/>
</clipPath>
<clipPath id="clip3">
  <path d="M 2 2 L 14 2 L 14 14 L 2 14 Z M 2 2 "/>
</clipPath>
<clipPath id="clip4">
  <path d="M 8 2 C 4.691406 2 2 4.691406 2 8 C 2 11.308594 4.691406 14 8 14 C 11.308594 14 14 11.308594 14 8 C 14 4.691406 11.308594 2 8 2 Z M 10.425781 9.71875 C 10.523438 9.816406 10.523438 9.976562 10.425781 10.074219 L 10.074219 10.425781 C 9.976562 10.523438 9.816406 10.523438 9.71875 10.425781 L 8 8.707031 L 6.28125 10.425781 C 6.183594 10.523438 6.023438 10.523438 5.925781 10.425781 L 5.574219 10.074219 C 5.476562 9.976562 5.476562 9.816406 5.574219 9.71875 L 7.292969 8 L 5.574219 6.28125 C 5.476562 6.183594 5.476562 6.023438 5.574219 5.925781 L 5.925781 5.574219 C 6.023438 5.476562 6.183594 5.476562 6.28125 5.574219 L 8 7.292969 L 9.71875 5.574219 C 9.816406 5.476562 9.976562 5.476562 10.074219 5.574219 L 10.425781 5.925781 C 10.523438 6.023438 10.523438 6.183594 10.425781 6.28125 L 8.707031 8 Z M 10.425781 9.71875 "/>
</clipPath>
</defs>
<g id="surface1">
<g clip-path="url(#clip1)" clip-rule="nonzero">
<g clip-path="url(#clip2)" clip-rule="evenodd">
<rect x="0" y="0" width="16" height="16" style="fill:rgb(100%,100%,100%);fill-opacity:1;stroke:none;"/>
</g>
</g>
<g clip-path="url(#clip3)" clip-rule="nonzero">
<g clip-path="url(#clip4)" clip-rule="evenodd">
<rect x="0" y="0" width="16" height="16" style="fill:rgb(94.902039%,0%,0%);fill-opacity:1;stroke:none;"/>
</g>
</g>
</g>
</svg>
