<?xml version="1.0" encoding="UTF-8"?>
<svg xmlns="http://www.w3.org/2000/svg" xmlns:xlink="http://www.w3.org/1999/xlink" width="27pt" height="17pt" viewBox="0 0 27 17" version="1.1">
<defs>
<clipPath id="clip1">
  <path d="M 13.5 0 C 14.328125 0 15 0.671875 15 1.5 C 15 2.097656 14.648438 2.613281 14.144531 2.855469 C 15.871094 4.601562 19.648438 8.671875 19.71875 8.816406 C 20.738281 8.320312 22.90625 7.375 24.605469 6.703125 C 24.238281 6.429688 24 5.992188 24 5.5 C 24 4.671875 24.671875 4 25.5 4 C 26.328125 4 27 4.671875 27 5.5 C 27 6.328125 26.328125 7 25.5 7 C 25.488281 7 25.480469 7 25.46875 7 L 25.496094 6.699219 C 25.230469 9.875 24.964844 13.046875 24.6875 16.222656 C 24.675781 16.347656 24.652344 16.5625 24.503906 16.574219 C 22.222656 16.777344 18.210938 16.785156 14.121094 16.742188 L 12.894531 16.730469 C 8.804688 16.675781 4.796875 16.585938 2.535156 16.597656 C 2.367188 16.597656 2.335938 16.339844 2.324219 16.203125 C 2.054688 13.136719 1.796875 10.066406 1.542969 7 L 1.5 7 C 0.671875 7 0 6.328125 0 5.5 C 0 4.671875 0.671875 4 1.5 4 C 2.328125 4 3 4.671875 3 5.5 C 3 5.992188 2.761719 6.429688 2.394531 6.703125 C 4.125 7.371094 5.082031 7.78125 7.289062 8.816406 C 7.34375 8.703125 8.875 6.960938 10.492188 5.15625 L 10.855469 4.753906 C 11.492188 4.046875 12.125 3.34375 12.671875 2.746094 C 12.265625 2.480469 12 2.019531 12 1.5 C 12 0.671875 12.671875 0 13.5 0 Z M 13.5 0 "/>
</clipPath>
</defs>
<g id="surface1">
<g clip-path="url(#clip1)" clip-rule="evenodd">
<rect x="0" y="0" width="27" height="17" style="fill:rgb(100%,83.529663%,0%);fill-opacity:1;stroke:none;"/>
</g>
</g>
</svg>
