<svg width="32" height="32" viewBox="0 0 32 32" fill="none" xmlns="http://www.w3.org/2000/svg">
<path d="M16 32C24.8366 32 32 24.8366 32 16C32 7.16344 24.8366 0 16 0C7.16344 0 0 7.16344 0 16C0 24.8366 7.16344 32 16 32Z" fill="white"/>
<path d="M20.3369 15.9648V18.8158C20.3369 19.1238 20.4019 19.5138 20.3369 19.8193C20.2646 20.1589 19.877 20.2271 19.565 20.2271H17.8628C17.8035 20.2271 17.485 20.1833 17.4387 20.2271C17.4184 20.2466 17.4387 20.3953 17.4387 20.4213V23.5243V26.3485C17.8726 26.2518 18.3122 26.2209 18.7282 26.0698C18.9215 25.9999 19.1206 25.9552 19.3205 25.9057C19.5325 25.8521 19.7194 25.7529 19.9242 25.6766C20.7204 25.3784 21.5021 24.9226 22.1748 24.4115C22.9109 23.8525 23.5293 23.2707 24.1264 22.5671C24.6871 21.9066 25.0884 21.1631 25.4768 20.3921C25.6816 19.9842 25.8075 19.5511 25.9432 19.1164C26.005 18.9182 26.0838 18.7273 26.148 18.5298C26.2121 18.3324 26.2073 18.1301 26.2446 17.9261C26.4071 17.0299 26.5014 16.163 26.4055 15.2481C26.3568 14.7769 26.3202 14.3341 26.2186 13.8693C26.1285 13.4549 25.9976 13.0479 25.8636 12.6457C25.736 12.2622 25.615 11.8568 25.4224 11.5009C25.2079 11.1052 25.0048 10.6608 24.7651 10.2813C24.5286 9.90676 24.1833 9.54926 23.8989 9.20963C23.6333 8.89195 23.3546 8.5962 23.0466 8.31995C22.4112 7.74876 21.7231 7.22957 20.9682 6.82657C20.761 6.71526 20.5474 6.61614 20.3369 6.51051V12.0485V14.9703C20.3369 15.1328 20.3702 15.3798 20.3093 15.5276C20.176 15.8526 19.8145 15.8559 19.5017 15.8559H17.5793C17.3055 15.8559 16.597 15.7308 16.3995 15.9648V12.7099C16.3995 12.3979 16.3142 11.9551 16.7302 11.9218C17.2039 11.8836 17.7036 11.9892 18.1708 11.9023C18.5778 11.8259 18.6957 11.6845 18.6957 11.3091V9.67601V6.09857V3.28651C19.2855 3.46364 19.8803 3.62858 20.4645 3.82114C21.086 4.02508 21.641 4.32164 22.2317 4.59545C22.7501 4.83595 23.2554 5.2032 23.7259 5.52739C24.2321 5.87514 24.6952 6.33014 25.1283 6.76401C25.9968 7.63339 26.6866 8.54989 27.3017 9.6102C27.9517 10.7306 28.3929 11.9291 28.7049 13.1868C28.9909 14.3414 29.047 15.6064 28.9665 16.7903C28.8796 18.0667 28.6675 19.3009 28.2109 20.5009C27.7689 21.6636 27.1847 22.78 26.4201 23.7623C26.0318 24.2612 25.6572 24.7479 25.2095 25.1947C24.7626 25.6408 24.2792 26.0154 23.7803 26.4029C22.7988 27.1667 21.6792 27.7736 20.51 28.2026C19.2993 28.6462 18.0936 28.8526 16.8163 28.9599C14.4064 29.1614 11.8381 28.5991 9.74185 27.3836C7.55458 26.1161 5.77845 24.3961 4.57187 22.1649C3.38399 19.9671 2.81524 17.3948 3.0533 14.9069C3.28974 12.4499 4.14937 10.1724 5.63219 8.19726C6.39351 7.18245 7.29621 6.33989 8.30696 5.58182C9.30309 4.83433 10.391 4.18108 11.5854 3.79676C12.1477 3.61639 12.7172 3.45551 13.2827 3.28651V9.21613V11.0499C13.2827 11.3652 13.1893 11.6723 13.5297 11.8031C14.0083 11.9876 14.5178 11.9218 15.0248 11.9218C15.1978 11.9218 15.4326 11.8795 15.5439 12.0493C15.6008 12.1354 15.5797 12.2784 15.5797 12.3873V15.9648C15.4107 15.7486 14.8541 15.8559 14.6112 15.8559H12.7952C12.506 15.8559 12.1046 15.903 11.8617 15.7462C11.6642 15.6194 11.6447 15.3692 11.6415 15.1506C11.6163 13.0219 11.6415 10.8907 11.6415 8.76195V6.51051C10.8371 6.91351 10.1302 7.40589 9.40303 7.93482C8.7059 8.44101 8.18184 9.07963 7.67971 9.77107C7.17433 10.4658 6.61451 11.2214 6.35532 12.0509C6.22045 12.4832 6.03763 12.8959 5.93526 13.3379C5.83857 13.7523 5.73457 14.1683 5.66713 14.5884C5.52576 15.4691 5.55176 16.4043 5.66226 17.2867C5.76951 18.1414 5.94338 18.9548 6.28707 19.7461C6.4642 20.154 6.58851 20.5676 6.79895 20.9616C7.02727 21.3906 7.29458 21.7384 7.58546 22.1284C7.83652 22.4639 8.05265 22.8166 8.35002 23.1139C8.67178 23.4341 8.99759 23.7444 9.33316 24.0507C9.95716 24.6211 10.7282 24.9884 11.4635 25.3881C11.8503 25.5977 12.2566 25.7854 12.6815 25.9114C13.0975 26.0341 13.5265 26.1641 13.9531 26.2274C14.1513 26.2567 14.3447 26.3046 14.5397 26.3485V20.6383C14.5397 20.5554 14.5787 20.3571 14.5397 20.2816C14.4991 20.1995 14.5519 20.2515 14.4219 20.2271C14.1968 20.1857 13.9214 20.2271 13.6922 20.2271H12.7506C12.5872 20.2271 12.4117 20.2458 12.2492 20.2271C12.0932 20.2101 11.8682 20.1394 11.7682 20.0264C11.596 19.8314 11.6415 19.4626 11.6415 19.2091V15.9648C11.99 16.3279 12.3963 16.293 12.8594 16.293H15.0337C15.1832 16.293 15.3684 16.2621 15.4879 16.3645C15.6138 16.4734 15.5797 16.6278 15.5797 16.7854V18.9036V19.8997C15.5797 20.1012 15.5212 20.141 15.6967 20.1735C15.821 20.1963 16.3402 20.2247 16.3995 20.1467C16.4718 20.0516 16.3995 19.6218 16.3995 19.5048V17.2347C16.3995 16.8943 16.2768 16.3336 16.7359 16.293C17.4306 16.2321 18.157 16.293 18.8541 16.293C19.3692 16.293 19.955 16.3938 20.3369 15.9648ZM14.8127 3.06795C15.4489 3.01026 16.1046 2.97208 16.7424 3.0257C16.8123 3.03139 17.1226 3.02001 17.1641 3.0712C17.1811 3.09151 17.1616 3.18739 17.1641 3.21339C17.1893 3.46689 17.1641 3.73583 17.1641 3.99095V9.61588C17.1641 10.04 17.225 10.5145 17.1641 10.937C17.1235 11.223 16.8984 11.3197 16.6148 11.3197C16.1891 11.3197 15.7316 11.3693 15.3091 11.3197C15.1994 11.3075 15.0857 11.2742 15.0044 11.21C14.9541 11.171 14.9589 11.2198 14.924 11.1824C14.9443 11.2043 14.8915 11.0613 14.8964 11.0735C14.8655 10.9963 14.8241 10.9199 14.8127 10.8281C14.7981 10.7054 14.8127 10.5722 14.8127 10.4487V8.08351V3.06795Z" fill="#20967B"/>
</svg>
