<?xml version="1.0" encoding="UTF-8"?>
<svg xmlns="http://www.w3.org/2000/svg" xmlns:xlink="http://www.w3.org/1999/xlink" width="56pt" height="56pt" viewBox="0 0 56 56" version="1.1">
<defs>
<clipPath id="clip1">
  <path d="M 28 56 C 43.464844 56 56 43.464844 56 28 C 56 12.535156 43.464844 0 28 0 C 12.535156 0 0 12.535156 0 28 C 0 43.464844 12.535156 56 28 56 Z M 28 56 "/>
</clipPath>
<clipPath id="clip2">
  <path d="M 15 15 L 41 15 L 41 41 L 15 41 Z M 15 15 "/>
</clipPath>
<clipPath id="clip3">
  <path d="M 28 15.25 C 35.042969 15.25 40.75 20.957031 40.75 28 C 40.75 35.042969 35.042969 40.75 28 40.75 C 20.957031 40.75 15.25 35.042969 15.25 28 C 15.25 20.957031 20.957031 15.25 28 15.25 Z M 29.679688 18.4375 C 25.230469 18.4375 21.625 22.042969 21.625 26.492188 C 21.625 30.9375 25.230469 34.542969 29.679688 34.542969 C 34.125 34.542969 37.730469 30.9375 37.730469 26.492188 C 37.730469 22.042969 34.125 18.4375 29.679688 18.4375 Z M 32.761719 23.21875 C 33.675781 23.21875 34.351562 23.394531 34.789062 23.742188 C 35.226562 24.089844 35.445312 24.527344 35.445312 25.058594 C 35.445312 25.367188 35.355469 25.65625 35.183594 25.921875 C 35.050781 26.121094 34.847656 26.3125 34.566406 26.5 C 34.9375 26.679688 35.214844 26.914062 35.394531 27.207031 C 35.578125 27.5 35.667969 27.824219 35.667969 28.175781 C 35.667969 28.519531 35.589844 28.839844 35.433594 29.136719 C 35.277344 29.433594 35.082031 29.664062 34.855469 29.824219 C 34.625 29.988281 34.339844 30.105469 34 30.183594 C 33.660156 30.257812 33.296875 30.296875 32.910156 30.296875 C 32.183594 30.296875 31.628906 30.210938 31.246094 30.039062 C 30.863281 29.871094 30.574219 29.617188 30.375 29.285156 C 30.175781 28.949219 30.074219 28.578125 30.074219 28.167969 C 30.074219 27.765625 30.167969 27.425781 30.355469 27.148438 C 30.542969 26.871094 30.828125 26.652344 31.21875 26.5 C 30.921875 26.34375 30.703125 26.164062 30.566406 25.96875 C 30.378906 25.703125 30.285156 25.394531 30.285156 25.042969 C 30.285156 24.472656 30.554688 24.003906 31.09375 23.640625 C 31.511719 23.359375 32.070312 23.21875 32.761719 23.21875 Z M 26.539062 23.21875 C 27 23.21875 27.378906 23.277344 27.675781 23.390625 C 27.972656 23.503906 28.210938 23.652344 28.398438 23.832031 C 28.585938 24.015625 28.734375 24.207031 28.839844 24.40625 C 28.949219 24.609375 29.035156 24.84375 29.097656 25.109375 C 29.226562 25.621094 29.289062 26.152344 29.289062 26.707031 C 29.289062 27.949219 29.082031 28.859375 28.660156 29.433594 C 28.238281 30.007812 27.515625 30.296875 26.488281 30.296875 C 25.914062 30.296875 25.449219 30.207031 25.09375 30.023438 C 24.738281 29.839844 24.445312 29.570312 24.21875 29.214844 C 24.054688 28.960938 23.925781 28.617188 23.835938 28.179688 C 23.742188 27.742188 23.695312 27.257812 23.695312 26.730469 C 23.695312 25.429688 23.929688 24.519531 24.398438 24 C 24.867188 23.480469 25.582031 23.21875 26.539062 23.21875 Z M 32.851562 27.066406 C 32.617188 27.066406 32.410156 27.160156 32.234375 27.347656 C 32.058594 27.53125 31.96875 27.785156 31.96875 28.101562 C 31.96875 28.40625 32.0625 28.652344 32.246094 28.84375 C 32.429688 29.035156 32.640625 29.128906 32.875 29.128906 C 33.105469 29.128906 33.308594 29.03125 33.488281 28.839844 C 33.667969 28.644531 33.757812 28.398438 33.757812 28.097656 C 33.757812 27.796875 33.667969 27.546875 33.484375 27.355469 C 33.304688 27.164062 33.09375 27.066406 32.851562 27.066406 Z M 26.476562 24.484375 C 26.160156 24.484375 25.933594 24.644531 25.792969 24.960938 C 25.652344 25.28125 25.582031 25.871094 25.582031 26.734375 C 25.582031 27.605469 25.660156 28.203125 25.8125 28.519531 C 25.96875 28.839844 26.191406 29 26.484375 29 C 26.675781 29 26.84375 28.929688 26.984375 28.796875 C 27.128906 28.660156 27.230469 28.445312 27.300781 28.152344 C 27.367188 27.863281 27.398438 27.40625 27.398438 26.785156 C 27.398438 25.878906 27.324219 25.265625 27.167969 24.953125 C 27.015625 24.640625 26.785156 24.484375 26.476562 24.484375 Z M 32.851562 24.375 C 32.621094 24.375 32.433594 24.449219 32.289062 24.59375 C 32.144531 24.738281 32.074219 24.925781 32.074219 25.15625 C 32.074219 25.394531 32.148438 25.582031 32.296875 25.726562 C 32.441406 25.875 32.640625 25.945312 32.886719 25.945312 C 33.105469 25.945312 33.28125 25.875 33.421875 25.730469 C 33.5625 25.585938 33.632812 25.402344 33.632812 25.175781 C 33.632812 24.9375 33.558594 24.746094 33.414062 24.597656 C 33.265625 24.449219 33.082031 24.375 32.851562 24.375 Z M 32.851562 24.375 "/>
</clipPath>
</defs>
<g id="surface1">
<g clip-path="url(#clip1)" clip-rule="evenodd">
<rect x="0" y="0" width="56" height="56" style="fill:rgb(94.902039%,0%,0%);fill-opacity:0.5;stroke:none;"/>
</g>
<g clip-path="url(#clip2)" clip-rule="nonzero">
<g clip-path="url(#clip3)" clip-rule="evenodd">
<path style=" stroke:none;fill-rule:nonzero;fill:rgb(100%,100%,100%);fill-opacity:1;" d="M 10.25 10.25 L 45.75 10.25 L 45.75 45.75 L 10.25 45.75 Z M 10.25 10.25 "/>
</g>
</g>
</g>
</svg>
