<?xml version="1.0" encoding="UTF-8"?>
<svg xmlns="http://www.w3.org/2000/svg" xmlns:xlink="http://www.w3.org/1999/xlink" width="32pt" height="32pt" viewBox="0 0 32 32" version="1.1">
<g id="surface1">
<path style=" stroke:none;fill-rule:evenodd;fill:rgb(60.783386%,60.783386%,60.783386%);fill-opacity:1;" d="M 14.898438 16.222656 L 7.929688 16.222656 L 7.800781 16.234375 C 7.507812 16.273438 7.25 16.457031 7.113281 16.722656 L 5.101562 20.667969 L 5.058594 20.769531 C 5.019531 20.871094 5 20.976562 5 21.085938 L 5 26.183594 L 5.007812 26.296875 C 5.0625 26.75 5.449219 27.101562 5.917969 27.101562 L 26.082031 27.101562 L 26.199219 27.09375 C 26.648438 27.035156 27 26.652344 27 26.183594 L 27 21.085938 L 26.992188 20.976562 C 26.980469 20.867188 26.949219 20.761719 26.894531 20.664062 L 24.84375 16.71875 L 24.777344 16.609375 C 24.605469 16.371094 24.328125 16.222656 24.03125 16.222656 L 17.101562 16.222656 L 17.101562 20.5 C 17.101562 21.109375 16.605469 21.601562 16 21.601562 C 15.390625 21.601562 14.898438 21.109375 14.898438 20.5 Z M 20.398438 22.824219 L 22.601562 22.824219 C 23.207031 22.824219 23.699219 23.316406 23.699219 23.921875 C 23.699219 24.53125 23.207031 25.023438 22.601562 25.023438 L 20.398438 25.023438 C 19.792969 25.023438 19.300781 24.53125 19.300781 23.921875 C 19.300781 23.316406 19.792969 22.824219 20.398438 22.824219 Z M 20.398438 22.824219 "/>
<path style=" stroke:none;fill-rule:evenodd;fill:rgb(60.783386%,60.783386%,60.783386%);fill-opacity:1;" d="M 18.601562 10.601562 L 18.601562 20.5 C 18.601562 21.9375 17.4375 23.101562 16 23.101562 C 14.5625 23.101562 13.398438 21.9375 13.398438 20.5 L 13.398438 10.601562 C 13.398438 9.164062 14.5625 8 16 8 C 17.4375 8 18.601562 9.164062 18.601562 10.601562 Z M 16 9.5 C 15.390625 9.5 14.898438 9.992188 14.898438 10.601562 L 14.898438 20.5 C 14.898438 21.109375 15.390625 21.601562 16 21.601562 C 16.605469 21.601562 17.101562 21.109375 17.101562 20.5 L 17.101562 10.601562 C 17.101562 9.992188 16.605469 9.5 16 9.5 Z M 16 9.5 "/>
<path style=" stroke:none;fill-rule:nonzero;fill:rgb(60.783386%,60.783386%,60.783386%);fill-opacity:1;" d="M 16 12.800781 C 18.429688 12.800781 20.398438 10.828125 20.398438 8.398438 C 20.398438 5.96875 18.429688 4 16 4 C 13.570312 4 11.601562 5.96875 11.601562 8.398438 C 11.601562 10.828125 13.570312 12.800781 16 12.800781 Z M 16 12.800781 "/>
</g>
</svg>
