<svg width="32" height="32" viewBox="0 0 32 32" fill="none" xmlns="http://www.w3.org/2000/svg">
<path d="M16 32C24.8366 32 32 24.8366 32 16C32 7.16344 24.8366 0 16 0C7.16344 0 0 7.16344 0 16C0 24.8366 7.16344 32 16 32Z" fill="white"/>
<path d="M18.3256 5C18.3823 5.01169 18.4384 5.02951 18.4957 5.03419C19.603 5.12484 20.6675 5.38943 21.6818 5.8413C23.745 6.76054 25.3373 8.21895 26.5264 10.126C27.2132 11.2273 27.7006 12.4077 27.8676 13.7059C27.9008 13.9645 27.9326 14.2233 27.965 14.482V16.1738C27.9526 16.2369 27.9371 16.2997 27.9281 16.3634C27.859 16.856 27.819 17.3547 27.7181 17.8407C27.2555 20.0693 26.3494 22.0686 24.6792 23.6737C23.0852 25.2055 21.2141 26.1686 19.0209 26.488C18.6198 26.5465 18.2165 26.5893 17.8142 26.6393H16.5552C16.1731 26.5887 15.7887 26.5513 15.4093 26.4851C13.0381 26.0717 11.0675 24.9354 9.42519 23.1888C7.9183 21.5861 7.17879 19.6461 6.88154 17.5101C6.67884 16.0536 6.79872 14.6151 7.27495 13.2218C8.09736 10.8157 9.63179 9.01752 11.9214 7.88287C12.0091 7.8394 12.1035 7.80922 12.1956 7.77503C12.2186 7.76645 12.2447 7.76633 12.3021 7.75697C12.1167 7.97895 11.9469 8.17414 11.786 8.37649C10.6826 9.76443 9.94422 11.3124 9.73923 13.0898C9.51297 15.052 9.94441 16.8677 10.9893 18.5366C11.9906 20.1358 13.3327 21.3554 15.1353 21.9628C17.4919 22.7567 19.8423 22.7042 22.0423 21.4743C23.7913 20.4966 25.1412 19.0761 25.8105 17.1496C26.64 14.762 26.5276 12.4045 25.309 10.1495C24.7147 9.04978 23.8486 8.17953 22.9242 7.35275C21.8981 6.43508 20.6841 5.88898 19.407 5.44703C18.9805 5.29941 18.5549 5.14908 18.1289 5H18.3256ZM19.8905 8.57591C20.745 8.61522 21.5011 8.93509 22.1605 9.46006C23.3796 10.4306 24.3129 11.62 24.67 13.1634C25.2831 15.8139 24.5378 18.1088 22.6671 20.0281C21.9954 20.7173 21.0964 21.108 20.1789 21.4107C19.0653 21.778 17.9342 21.8455 16.7868 21.5929C16.7129 21.5766 16.6406 21.5526 16.5415 21.5249C16.9095 21.4011 17.2521 21.3012 17.5829 21.1711C18.2194 20.9209 18.7974 20.5765 19.2111 20.0143C19.8571 19.1364 19.9688 18.1572 19.7398 17.1155C19.5867 16.4187 19.2025 15.8697 18.6648 15.4229C18.3477 15.1595 18.0231 14.901 17.6792 14.6747C16.8378 14.1209 16.3814 13.3335 16.2678 12.3536C16.1323 11.1849 16.4235 10.1418 17.3603 9.37079C18.0868 8.77283 18.9518 8.53271 19.8905 8.57591ZM10.9616 7.3189C11.1232 7.40376 11.2724 7.51247 11.4263 7.61177C11.4518 7.62822 11.4719 7.65293 11.5128 7.69074C10.3279 7.9761 9.32371 8.51878 8.46758 9.34477C8.05533 9.74242 7.54012 9.97943 6.9998 10.1544C6.19234 10.4158 5.36831 10.5392 4.52289 10.386C4.34387 10.3535 4.17406 10.2704 4 10.2107L4.00991 10.1434C4.1143 10.1142 4.2171 10.0761 4.32333 10.0572C5.50083 9.84854 6.40094 9.19558 7.13759 8.28975C7.46556 7.88648 7.79534 7.49091 8.26083 7.23651C9.17739 6.73558 10.076 6.85412 10.9616 7.3189Z" fill="#D20010"/>
</svg>
