<?xml version="1.0" encoding="UTF-8"?>
<svg xmlns="http://www.w3.org/2000/svg" xmlns:xlink="http://www.w3.org/1999/xlink" width="18pt" height="18pt" viewBox="0 0 18 18" version="1.1">
<defs>
<clipPath id="clip1">
  <path d="M 2 3 L 16 3 L 16 15 L 2 15 Z M 2 3 "/>
</clipPath>
<clipPath id="clip2">
  <path d="M 13.773438 3.390625 C 14.179688 2.917969 14.890625 2.867188 15.359375 3.273438 C 15.800781 3.652344 15.875 4.300781 15.546875 4.769531 L 15.476562 4.859375 L 7.710938 13.859375 C 7.25 14.394531 6.421875 14.371094 5.988281 13.835938 L 5.921875 13.746094 L 2.4375 8.496094 C 2.09375 7.980469 2.234375 7.28125 2.753906 6.9375 C 3.238281 6.613281 3.886719 6.71875 4.25 7.164062 L 4.3125 7.253906 L 6.976562 11.265625 Z M 13.773438 3.390625 "/>
</clipPath>
</defs>
<g id="surface1">
<g clip-path="url(#clip1)" clip-rule="nonzero">
<g clip-path="url(#clip2)" clip-rule="nonzero">
<rect x="0" y="0" width="18" height="18" style="fill:rgb(94.902039%,0%,0%);fill-opacity:1;stroke:none;"/>
</g>
</g>
</g>
</svg>
