<?xml version="1.0" encoding="UTF-8"?>
<svg xmlns="http://www.w3.org/2000/svg" xmlns:xlink="http://www.w3.org/1999/xlink" width="72pt" height="72pt" viewBox="0 0 72 72" version="1.1">
<defs>
<clipPath id="clip1">
  <path d="M 7 0 L 64 0 L 64 70 L 7 70 Z M 7 0 "/>
</clipPath>
<clipPath id="clip2">
  <path d="M 44.777344 0.96875 L 44.878906 1.054688 L 62.625 18.4375 C 63.058594 18.867188 63.328125 19.433594 63.390625 20.035156 L 63.402344 20.292969 L 63.402344 65.292969 C 63.402344 67.585938 61.617188 69.464844 59.359375 69.613281 L 59.074219 69.621094 L 11.632812 69.621094 C 9.339844 69.621094 7.464844 67.835938 7.316406 65.578125 L 7.308594 65.292969 L 7.308594 4.714844 C 7.308594 2.421875 9.09375 0.546875 11.351562 0.398438 L 11.632812 0.390625 L 43 0.390625 C 43.515625 0.355469 44.046875 0.476562 44.523438 0.785156 Z M 40.546875 5.582031 L 12.5 5.582031 L 12.5 64.429688 L 58.210938 64.429688 L 58.210938 22.890625 L 44.875 22.890625 C 42.582031 22.890625 40.703125 21.105469 40.554688 18.847656 L 40.546875 18.5625 Z M 40.546875 5.582031 "/>
</clipPath>
</defs>
<g id="surface1">
<g clip-path="url(#clip1)" clip-rule="nonzero">
<g clip-path="url(#clip2)" clip-rule="evenodd">
<path style=" stroke:none;fill-rule:nonzero;fill:rgb(34.901428%,34.901428%,34.901428%);fill-opacity:1;" d="M 2.308594 -4.617188 L 68.402344 -4.617188 L 68.402344 74.621094 L 2.308594 74.621094 Z M 2.308594 -4.617188 "/>
</g>
</g>
</g>
</svg>
