<?xml version="1.0" encoding="UTF-8"?>
<svg xmlns="http://www.w3.org/2000/svg" xmlns:xlink="http://www.w3.org/1999/xlink" width="32pt" height="32pt" viewBox="0 0 32 32" version="1.1">
<defs>
<clipPath id="clip1">
  <path d="M 3 3 L 29 3 L 29 29 L 3 29 Z M 3 3 "/>
</clipPath>
<clipPath id="clip2">
  <path d="M 16 3 C 23.179688 3 29 8.820312 29 16 C 29 23.179688 23.179688 29 16 29 C 8.820312 29 3 23.179688 3 16 C 3 8.820312 8.820312 3 16 3 Z M 16.015625 6 C 10.507812 5.988281 6.015625 10.460938 6 15.980469 C 5.984375 21.496094 10.472656 25.996094 15.996094 26 C 21.507812 26.003906 25.992188 21.527344 26 16.011719 C 26.007812 10.5 21.53125 6.011719 16.015625 6 Z M 16 20.375 L 18.042969 20.382812 C 18.136719 20.382812 18.253906 20.441406 18.316406 20.511719 C 18.664062 20.910156 19.003906 21.316406 19.335938 21.726562 C 19.378906 21.78125 19.398438 21.90625 19.367188 21.972656 C 19.019531 22.75 18.660156 23.527344 18.296875 24.296875 C 18.257812 24.375 18.160156 24.464844 18.078125 24.476562 C 17.367188 24.597656 16.65625 24.703125 15.945312 24.8125 C 15.941406 24.792969 15.9375 24.769531 15.9375 24.75 C 15.089844 24.746094 14.265625 24.601562 13.457031 24.355469 C 13.386719 24.332031 13.304688 24.257812 13.285156 24.1875 C 13.046875 23.46875 12.8125 22.746094 12.59375 22.023438 C 12.570312 21.949219 12.59375 21.828125 12.644531 21.765625 C 12.988281 21.335938 13.335938 20.914062 13.699219 20.496094 C 13.753906 20.429688 13.871094 20.382812 13.957031 20.378906 C 15.320312 20.375 16.679688 20.371094 18.042969 20.382812 Z M 9.414062 14.550781 C 10.03125 14.855469 10.632812 15.148438 11.226562 15.449219 C 11.292969 15.484375 11.351562 15.558594 11.375 15.625 C 11.835938 16.914062 12.292969 18.199219 12.742188 19.492188 C 12.765625 19.5625 12.742188 19.679688 12.695312 19.742188 C 12.359375 20.160156 12.019531 20.570312 11.667969 20.972656 C 11.609375 21.039062 11.492188 21.085938 11.40625 21.082031 C 10.574219 21.046875 9.742188 21 8.914062 20.945312 C 8.847656 20.941406 8.761719 20.886719 8.726562 20.832031 C 7.941406 19.664062 7.46875 18.378906 7.3125 16.980469 C 7.304688 16.914062 7.324219 16.824219 7.363281 16.78125 C 8.039062 16.039062 8.722656 15.300781 9.414062 14.550781 Z M 22.449219 14.625 C 22.570312 14.558594 22.640625 14.578125 22.730469 14.679688 C 23.351562 15.367188 23.980469 16.054688 24.605469 16.742188 C 24.652344 16.792969 24.683594 16.859375 24.726562 16.925781 C 24.632812 17.378906 24.558594 17.828125 24.445312 18.265625 C 24.257812 18.976562 23.976562 19.65625 23.597656 20.292969 C 23.550781 20.375 23.441406 20.449219 23.351562 20.46875 C 22.429688 20.660156 21.503906 20.84375 20.578125 21.019531 C 20.496094 21.03125 20.371094 20.988281 20.316406 20.925781 C 19.972656 20.539062 19.640625 20.140625 19.3125 19.734375 C 19.265625 19.675781 19.246094 19.554688 19.269531 19.484375 C 19.722656 18.203125 20.179688 16.921875 20.640625 15.644531 C 20.671875 15.558594 20.753906 15.472656 20.835938 15.429688 C 21.371094 15.15625 21.914062 14.894531 22.449219 14.625 Z M 19.070312 7.941406 C 19.140625 7.902344 19.257812 7.894531 19.332031 7.925781 C 20.644531 8.472656 21.765625 9.285156 22.6875 10.367188 C 22.785156 10.480469 22.8125 10.585938 22.78125 10.726562 C 22.597656 11.554688 22.421875 12.382812 22.234375 13.207031 C 22.214844 13.285156 22.144531 13.375 22.070312 13.414062 C 21.507812 13.699219 20.941406 13.976562 20.371094 14.246094 C 20.304688 14.277344 20.183594 14.261719 20.121094 14.21875 C 18.992188 13.410156 17.871094 12.589844 16.75 11.769531 C 16.6875 11.722656 16.640625 11.613281 16.636719 11.535156 C 16.625 11.175781 16.632812 10.820312 16.632812 10.464844 C 16.632812 10.113281 16.625 9.765625 16.640625 9.414062 C 16.644531 9.332031 16.707031 9.21875 16.777344 9.179688 C 17.535156 8.757812 18.300781 8.347656 19.070312 7.941406 Z M 12.65625 7.9375 C 12.742188 7.902344 12.878906 7.902344 12.960938 7.945312 C 13.714844 8.34375 14.464844 8.757812 15.21875 9.15625 C 15.34375 9.21875 15.390625 9.292969 15.386719 9.429688 C 15.375 9.78125 15.382812 10.128906 15.382812 10.480469 C 15.382812 10.828125 15.390625 11.179688 15.375 11.527344 C 15.371094 11.617188 15.320312 11.730469 15.253906 11.78125 C 14.140625 12.601562 13.019531 13.414062 11.898438 14.222656 C 11.839844 14.265625 11.714844 14.273438 11.648438 14.242188 C 11.078125 13.976562 10.507812 13.699219 9.945312 13.414062 C 9.875 13.378906 9.800781 13.289062 9.78125 13.210938 C 9.589844 12.363281 9.402344 11.515625 9.226562 10.664062 C 9.210938 10.578125 9.246094 10.453125 9.304688 10.386719 C 10.230469 9.3125 11.332031 8.464844 12.65625 7.9375 Z M 12.65625 7.9375 "/>
</clipPath>
</defs>
<g id="surface1">
<g clip-path="url(#clip1)" clip-rule="nonzero">
<g clip-path="url(#clip2)" clip-rule="evenodd">
<rect x="0" y="0" width="32" height="32" style="fill:rgb(60.784912%,60.784912%,60.784912%);fill-opacity:1;stroke:none;"/>
</g>
</g>
</g>
</svg>
