<svg width="80" height="80" viewBox="0 0 80 80" fill="none" xmlns="http://www.w3.org/2000/svg">
<g opacity="0.7">
<path fill-rule="evenodd" clip-rule="evenodd" d="M40.0001 6.66675C58.4096 6.66675 73.3334 21.5906 73.3334 40.0001C73.3334 58.4096 58.4096 73.3334 40.0001 73.3334C21.5906 73.3334 6.66675 58.4096 6.66675 40.0001C6.66675 21.5906 21.5906 6.66675 40.0001 6.66675ZM41.8344 16.6667H37.9682V20.9345C34.149 21.3065 31.1718 22.3618 29.0364 24.1005C26.9011 25.8392 25.8334 28.0568 25.8334 30.7532C25.8334 33.2637 26.6095 35.3697 28.1616 37.0712C29.6224 38.6727 32.0457 40.1629 35.4313 41.542L36.0774 41.7992L37.9682 42.5245V51.1716C36.1621 51.0601 34.1067 50.6974 31.802 50.0838C29.7534 49.5383 27.9687 48.9193 26.4478 48.2269L25.8899 47.9638V55.3278C29.1208 56.7337 32.8434 57.524 37.0576 57.6987L37.9682 57.7267V63.3334H41.8344V57.6151C45.7288 57.2618 48.7578 56.1879 50.9214 54.3934C53.085 52.5989 54.1668 50.2232 54.1668 47.2665C54.1668 45.63 53.8046 44.1981 53.0803 42.9708C52.3559 41.7435 51.2177 40.6184 49.6656 39.5956C48.2048 38.633 45.8065 37.5057 42.4708 36.2136L41.8344 35.9694V27.7407C44.6113 27.975 47.3272 28.5859 49.9822 29.5733L50.865 29.9164L53.5177 23.3892C50.2858 21.9733 46.697 21.1345 42.7513 20.873L41.8344 20.823V16.6667ZM41.8344 44.0308C43.1137 44.6072 44.0732 45.1651 44.7129 45.7044C45.3526 46.2437 45.6724 46.9038 45.6724 47.6849C45.6724 49.4515 44.3931 50.5487 41.8344 50.9764V44.0308ZM37.9682 27.8522V34.4073C36.6889 33.8495 35.7623 33.3055 35.1885 32.7755C34.6147 32.2456 34.3278 31.5714 34.3278 30.7532C34.3278 29.2558 35.4169 28.3091 37.5951 27.9131L37.9682 27.8522Z" fill="white"/>
</g>
</svg>
