<svg width="40" height="32" viewBox="0 0 40 32" fill="none" xmlns="http://www.w3.org/2000/svg">
<path d="M0 16C0 7.16344 7.16344 0 16 0H40V32H16C7.16344 32 0 24.8366 0 16Z" fill="#131313"/>
<rect x="14" y="8" width="16" height="16" fill="#131313"/>
<path fill-rule="evenodd" clip-rule="evenodd" d="M20.8053 13.7307C20.3258 14.5263 19.8476 15.3198 19.3675 16.1134C19.3492 16.106 19.3377 16.1033 19.3273 16.1008C19.3212 16.0994 19.3155 16.098 19.3089 16.0958C19.0164 15.9257 18.7239 15.7548 18.431 15.5836C17.9669 15.3124 17.502 15.0407 17.0349 14.7713C16.9587 14.7244 16.9587 14.6775 16.9763 14.6013C17.117 13.898 16.4547 13.2592 15.769 13.4409C15.2943 13.5639 14.9778 13.98 15.0012 14.4489C15.0305 14.9471 15.3822 15.328 15.8979 15.3925C16.0151 15.4042 16.0562 15.4511 16.0738 15.5566C16.1478 15.8247 16.2219 16.0926 16.2959 16.3604C16.6378 17.5972 16.979 18.8313 17.3163 20.0695C17.3514 20.1984 17.4042 20.2277 17.5272 20.2277C20.8386 20.2218 24.15 20.2218 27.4614 20.2277C27.5962 20.2277 27.6431 20.1808 27.6782 20.0577C27.838 19.4755 27.9988 18.8942 28.1593 18.3134C28.4109 17.4034 28.6621 16.4946 28.909 15.5859C28.9442 15.4511 28.991 15.3984 29.1317 15.3808C29.6943 15.3163 30.0753 14.8006 29.9874 14.2555C29.8995 13.6929 29.3779 13.3178 28.8269 13.4174C28.276 13.517 27.9185 14.0504 28.0299 14.6072C28.0475 14.6951 28.024 14.7302 27.9537 14.7713C27.8511 14.8268 27.7516 14.8855 27.6507 14.9451C27.6133 14.9671 27.5756 14.9894 27.5376 15.0116C27.1954 15.213 26.8532 15.4128 26.5091 15.6136C26.2226 15.7808 25.9348 15.9488 25.6445 16.1193C25.1629 15.3252 24.6849 14.5312 24.2074 13.7381C23.825 13.1029 23.443 12.4684 23.0599 11.835C23.5874 11.3016 23.646 10.7566 23.2298 10.3112C22.8723 9.92435 22.2569 9.89504 21.8525 10.2408C21.6533 10.4108 21.5361 10.6335 21.5126 10.8972C21.4774 11.2958 21.6416 11.5947 21.9522 11.8291C21.5681 12.4649 21.1863 13.0985 20.8053 13.7307ZM17.7849 23.0527H22.5029H26.248C26.3611 23.0527 26.4748 23.0533 26.5888 23.054C26.8174 23.0553 27.0468 23.0566 27.2736 23.0527C27.9711 23.0351 28.3755 22.3494 28.0238 21.775C27.8363 21.4702 27.5432 21.3706 27.1974 21.3706H17.7967H17.697C17.0054 21.4116 16.6186 22.0915 16.9703 22.6541C17.1578 22.9472 17.445 23.0527 17.7849 23.0527Z" fill="#FED500"/>
</svg>
