<svg width="156" height="80" viewBox="0 0 156 80" fill="none" xmlns="http://www.w3.org/2000/svg">
<g clip-path="url(#clip0_5430_33151)">
<path d="M34.7103 41.644C34.7829 41.6295 34.8556 41.5859 34.9137 41.5859C35.4077 41.644 35.829 41.4842 36.2504 41.2517C36.3957 41.1645 36.5991 41.15 36.7589 41.1645C37.064 41.2226 37.2965 41.179 37.4708 40.8884C37.558 40.7431 37.7469 40.6559 37.834 40.467C37.6161 40.5542 37.3982 40.714 37.1657 40.7286C36.9623 40.7431 36.7589 40.6123 36.4974 40.5251C37.1657 39.9584 37.6597 39.1737 38.6622 39.2028C39.6938 39.2318 40.6236 38.825 41.568 38.5053C42.5996 38.1565 43.6457 37.8804 44.7499 37.9386C44.8226 37.9386 44.9243 37.9095 44.9824 37.8659C46.3627 36.965 47.9173 36.4273 49.4719 35.9478C50.6924 35.57 51.8692 35.105 53.0025 34.5383C53.2205 34.4365 53.4529 34.3639 53.6709 34.2767C53.6709 34.2476 53.6709 34.204 53.6709 34.175C53.3658 34.204 53.0461 34.2331 52.7701 34.2476C53.3076 33.7972 57.957 32.0825 62.0106 30.8328C65.5848 29.743 68.7958 29.0455 71.7307 28.7694C71.2803 28.5659 70.8444 28.3625 70.4085 28.1591C70.423 28.1155 70.423 28.0719 70.4376 28.0137C70.8589 28.0137 71.2948 28.0428 71.7161 28.0137C72.4281 27.9556 73.14 27.8539 73.8374 27.7667C75.5954 27.5487 77.2808 27.9266 78.9662 28.3625C81.8139 29.0891 84.4873 30.2516 86.812 32.068C88.3085 33.2305 89.5435 34.6109 90.2554 36.3983C91.5776 39.6968 90.4879 42.9954 87.3786 44.7828C83.6591 46.9043 79.8525 46.977 76.0604 44.899C74.8399 44.2306 74.157 43.2134 74.2151 41.7603C74.2733 40.3653 75.1305 39.6532 76.4962 39.9729C77.2372 40.1473 77.9637 40.4525 78.6756 40.7431C79.4602 41.0628 80.2302 41.3243 81.102 41.0482C82.4968 40.6123 83.4121 38.8104 82.9181 37.4445C82.2062 35.4683 80.7388 34.3639 78.7628 33.7826C75.9296 32.9253 73.0819 32.9689 70.2196 33.5211C67.0523 34.1169 64.0592 35.2503 61.1098 36.5436C60.2671 36.9068 59.3808 37.1829 58.5236 37.4881C58.4074 37.5317 58.2766 37.5462 58.0877 37.5172C58.233 37.3283 58.3783 37.1393 58.48 37.0086C56.3733 37.7787 54.2085 38.607 52.0291 39.3772C49.8497 40.1473 47.743 41.15 45.3892 41.3534C45.52 41.2517 45.6362 41.15 45.8106 41.0192C43.4423 41.6731 41.1322 42.327 38.822 42.9664C38.8075 42.9373 38.7784 42.8937 38.7639 42.8646C39.0545 42.6612 39.3451 42.4432 39.6938 42.1962C39.6357 42.3125 39.6066 42.3851 39.5775 42.4578C39.9408 42.4287 40.2604 42.3706 40.4202 42.0218C39.7374 41.8039 39.069 42.0218 38.4152 42.2253C38.1392 42.3125 37.8776 42.4432 37.6016 42.545C37.587 42.5595 37.558 42.574 37.5435 42.574C36.9913 42.4868 36.4683 42.5304 35.9888 42.8501C35.9452 42.8792 35.8581 42.9082 35.8145 42.8792C35.2188 42.6612 34.8556 43.0971 34.3616 43.3587C34.4923 43.3732 34.565 43.3878 34.6086 43.4023C34.4052 43.5185 34.1727 43.6493 33.9402 43.7656C33.9112 43.7801 33.8676 43.7801 33.824 43.7801C33.7078 43.7946 33.606 43.7946 33.4898 43.8237C33.3736 43.8382 33.2428 43.8818 33.1266 43.9109C33.1266 43.8818 33.1121 43.8528 33.1121 43.8237C33.3445 43.6203 33.5915 43.4314 33.853 43.1989C33.4172 42.9954 33.1556 43.2279 32.8796 43.4895C32.9522 43.5185 33.0104 43.5331 33.1702 43.5767C32.8505 43.7801 32.589 43.94 32.3275 44.0998C32.2984 44.0707 32.2839 44.0271 32.2548 43.9981C32.2984 43.94 32.342 43.8673 32.4582 43.7075C32.1531 43.751 31.9352 43.7656 31.7027 43.8092C31.4993 43.8382 31.325 43.8237 31.2233 43.6057C31.0925 43.3296 30.9327 43.3442 30.6712 43.4604C30.4242 43.5767 30.119 43.5767 29.843 43.6203C29.6977 43.6493 29.5524 43.6348 29.4071 43.6493C29.0148 43.722 28.9131 43.9109 29.0439 44.3614C29.3345 44.2306 29.625 44.0707 29.9156 43.969C30.0609 43.9109 30.2498 43.8673 30.366 43.9254C30.6276 44.0707 30.8746 44.1143 31.1506 43.969C30.8019 44.187 30.4968 44.4485 30.0464 44.3032C29.872 44.2451 29.6541 44.3032 29.4652 44.3468C29.2037 44.4195 28.9712 44.652 28.6952 44.3468C28.6371 44.2887 28.3901 44.3904 28.2302 44.4195C28.2157 44.3904 28.2012 44.2887 28.1576 44.2887C27.7944 44.216 27.4602 44.2887 27.1696 44.5067C26.8354 44.7537 26.4867 44.7682 26.0799 44.7392C25.6005 44.6956 25.0919 44.8118 24.5979 44.8118C24.3509 44.8118 24.1185 44.681 23.8715 44.6229C24.1185 44.6084 24.3509 44.6084 24.5834 44.5648C25.0048 44.4921 25.4697 44.5939 25.8329 44.2887C25.862 44.2742 25.9201 44.2887 25.9927 44.3032C25.9056 44.405 25.8475 44.4631 25.7893 44.5357C26.2543 44.4776 26.7337 44.7537 27.1987 44.3323C26.8645 44.3323 26.603 44.3323 26.3269 44.3323C26.4867 44.1289 26.8645 44.0707 26.6756 43.7801C26.109 43.5331 25.6586 44.2887 25.121 43.8528C25.1065 43.8382 25.0774 43.8528 25.0629 43.8673C24.7578 44.1434 24.4236 43.9545 24.104 43.9109C24.0168 43.8964 23.9151 43.8382 23.8279 43.8673C23.4937 43.969 23.1596 44.0998 22.8109 44.216C22.869 44.4921 23.0869 44.6374 23.2467 44.4195C23.5518 43.969 23.9587 44.1579 24.351 44.216C24.0604 44.3032 23.7698 44.3759 23.5083 44.4485C23.6245 44.5212 23.7407 44.5793 23.8715 44.652C23.2322 44.6665 22.5784 44.6956 21.9391 44.7101C21.9391 44.7392 21.9391 44.7682 21.9391 44.7828C22.0263 44.7392 22.1135 44.681 22.2006 44.6374C22.2006 44.6084 22.1861 44.5939 22.1861 44.5648C21.8519 44.5939 21.5323 44.6375 21.1981 44.6665C21.1836 44.6229 21.1836 44.5648 21.1691 44.5212C21.4161 44.4631 21.6485 44.3904 21.8955 44.3759C22.128 44.3468 22.375 44.3759 22.622 44.3759C22.622 44.3323 22.622 44.2887 22.622 44.2451C22.157 44.2451 21.7066 44.2306 21.2417 44.2596C21.1691 44.2596 21.0528 44.3759 21.0238 44.4631C20.8058 45.0298 20.3264 45.0153 19.8469 44.9717C19.6435 44.9571 19.4401 44.899 19.2367 44.8118C19.5273 44.8409 19.8033 44.5503 20.1084 44.8264C20.1956 44.899 20.399 44.8409 20.5443 44.8409C20.5443 44.8118 20.5588 44.7828 20.5588 44.7537C20.5007 44.7101 20.4281 44.6665 20.3554 44.6084C20.399 44.5793 20.4571 44.5648 20.4717 44.5212C20.5298 44.4195 20.5588 44.3178 20.6024 44.2015C20.4862 44.216 20.2973 44.187 20.2392 44.2596C19.9631 44.6229 19.5418 44.5648 19.1931 44.5503C18.4957 44.5357 17.8128 44.4195 17.1154 44.3759C16.9846 44.3614 16.7812 44.2887 16.7376 44.5793C16.7231 44.6665 16.4471 44.7101 16.2727 44.7828C16.1274 44.5503 16.2727 44.4921 16.5197 44.4776C16.0984 44.1725 15.6915 44.3759 15.2847 44.4631C15.3719 44.5067 15.4591 44.5503 15.648 44.6374C15.3719 44.5939 15.1976 44.5648 14.9941 44.5357C15.0523 44.4631 15.0959 44.3904 15.2121 44.2451C15.0232 44.3032 14.9215 44.3468 14.8343 44.3468C14.7326 44.3614 14.5583 44.3759 14.5292 44.3178C14.3694 44.0417 14.0788 44.0707 13.8609 44.0853C13.3669 44.1143 12.8584 44.2015 12.3644 44.2742C12.3062 44.2887 12.2481 44.3614 12.19 44.3904C12.0157 44.5067 11.8994 44.6229 11.6234 44.5648C11.202 44.4631 10.7371 44.5357 10.2867 44.5357C10.0687 44.5357 9.86534 44.5067 9.6474 44.4921C9.44399 44.4921 9.22606 44.5067 9.02265 44.4921C8.8483 44.4776 8.67395 44.4485 8.45601 44.4195C8.63036 44.3032 8.79018 44.187 8.95 44.0853C8.95 44.0562 8.95 44.0417 8.95 44.0126C8.68848 44.0707 8.41242 44.1289 8.1509 44.187C8.1509 44.1725 8.13637 44.1579 8.13637 44.1289C8.23807 44.0998 8.3543 44.0562 8.47054 44.0126C7.93296 43.7075 7.19197 43.9981 7.03215 44.5648C6.90138 44.5357 6.75609 44.5067 6.55268 44.4631C6.77062 44.3032 6.91591 44.2015 7.0612 44.0853C7.11932 44.0417 7.13385 43.9545 7.16291 43.8818C7.07573 43.8673 6.98856 43.8237 6.91591 43.8237C6.72703 43.8382 6.53815 43.8964 6.34927 43.9109C6.08775 43.94 5.79716 43.8237 5.60829 44.1579C5.57923 44.2015 5.25958 44.1579 5.15788 44.0562C4.83824 43.7656 4.53312 43.8237 4.18442 43.9981C4.06819 43.4168 3.5742 43.6348 3.21097 43.5912C3.51608 43.4895 3.77761 43.3878 4.05366 43.3151C4.38783 43.2425 4.722 43.1843 5.05618 43.1407C5.55017 43.0681 6.05869 42.9954 6.55268 42.9082C6.79968 42.8646 7.04668 42.7775 7.29367 42.6467C7.09026 42.6757 6.88685 42.7339 6.68345 42.7339C6.33475 42.7339 6.02963 42.9228 5.63734 42.6903C5.36129 42.5304 4.88183 42.7339 4.50407 42.7048C4.18442 42.6903 3.87931 42.574 3.55967 42.5014C3.55967 42.4578 3.5742 42.3996 3.5742 42.356C3.93743 42.356 4.28613 42.356 4.64936 42.356C4.83824 42.356 5.04165 42.4432 5.12882 42.1671C5.12882 42.1526 5.37582 42.1671 5.44846 42.2253C5.60829 42.3415 5.70999 42.4432 5.9134 42.2689C6.04416 42.1526 6.18945 42.1671 6.37833 42.2253C6.58174 42.2834 6.81421 42.1671 7.04668 42.109C7.19197 42.08 7.33726 41.9928 7.48255 41.9928C7.6569 41.9928 7.83125 42.0364 8.04919 42.0654C7.96202 42.1381 7.88937 42.1962 7.78766 42.2979C8.12184 42.3415 8.36883 42.3996 8.63036 42.1817C8.80471 42.0364 9.10982 42.0364 9.35682 42.0218C9.69099 41.9928 10.0252 42.0218 10.3448 42.0218C10.5482 42.0218 10.7662 42.0218 11.0567 42.0218C10.955 42.1526 10.9114 42.1962 10.8097 42.3125C11.1003 42.3851 11.3473 42.4868 11.5943 42.5014C12.1174 42.5304 12.6549 42.5304 13.1925 42.4723C13.701 42.4142 14.195 42.2834 14.7907 42.1671C14.7326 42.3851 14.7036 42.4868 14.6454 42.6903C15.0232 42.5304 15.3574 42.3851 15.7061 42.2543C15.8078 42.2107 15.9385 42.2689 16.0548 42.2543C16.3018 42.2253 16.5488 42.1817 16.7958 42.1526C16.8975 42.1526 17.0428 42.1671 17.0864 42.2253C17.2607 42.545 17.5222 42.4432 17.7547 42.356C18.0889 42.2253 18.394 42.1817 18.7281 42.2834C18.8153 42.3125 18.9316 42.2107 19.0333 42.1671C19.164 42.109 19.3238 41.9928 19.411 42.0218C19.8905 42.2398 20.3554 42.0218 20.8204 42.0073C21.0674 42.0073 21.2562 42.0218 21.5032 42.1671C21.8519 42.3706 22.2878 42.6176 22.7673 42.3996C22.7382 42.3125 22.7092 42.2253 22.6656 42.08C22.9561 41.9928 23.2322 41.9056 23.5228 41.8184C23.5373 41.8475 23.5373 41.8765 23.5518 41.9056C23.4066 41.9346 23.2613 41.9492 23.116 41.9782C23.3194 42.5304 23.7407 42.2398 24.1621 42.2834C23.7698 42.4723 23.4647 42.6176 23.145 42.7775C23.1596 42.8065 23.1741 42.8356 23.1741 42.8646C23.8715 42.6467 24.5544 42.4432 25.2518 42.2253C25.2518 42.1962 25.2372 42.1526 25.2372 42.1236C24.9757 42.109 24.7142 42.0945 24.4381 42.08C24.4381 42.0509 24.4236 42.0218 24.4236 42.0073C24.7432 41.9492 25.0919 41.8039 25.3971 41.8475C26.0509 41.9492 26.6175 41.8039 27.2277 41.6004C27.4311 41.5278 27.6927 41.615 27.9106 41.6731C28.361 41.8039 28.7678 41.6731 29.1746 41.4987C29.4216 41.397 29.596 41.4115 29.8575 41.5278C30.1626 41.6586 30.5549 41.6004 30.9036 41.615C30.9181 41.615 30.9472 41.5423 30.9908 41.4696C30.8019 41.4406 30.6421 41.4115 30.4968 41.3825C30.4968 41.3534 30.4968 41.3243 30.5113 41.2953C30.7002 41.3098 30.8891 41.3243 31.107 41.3389C31.078 41.2517 31.0489 41.1645 30.9908 41.0046C31.2814 41.0337 31.5138 41.0628 31.848 41.0918C31.6155 41.2807 31.4267 41.4406 31.2378 41.5859C31.2523 41.6295 31.2814 41.6731 31.2959 41.7021C31.4121 41.6876 31.5429 41.7167 31.6155 41.6586C31.9207 41.4551 32.1677 41.1645 32.589 41.1645C32.6326 41.1645 32.7052 41.0918 32.7052 41.0482C32.7634 40.5542 33.1556 40.4815 33.5189 40.4089C34.3325 40.249 35.1607 40.1182 35.9743 39.9875C36.0615 39.9729 36.1777 39.9584 36.2504 40.002C36.323 40.0456 36.3521 40.1618 36.3957 40.2345C36.3085 40.2636 36.1777 40.3653 36.1196 40.3362C35.7854 40.1473 35.5094 40.3071 35.2043 40.4089C35.1026 40.4379 35.0009 40.4525 34.8846 40.4815C34.6957 40.5106 34.5359 40.5396 34.5214 40.8012C34.5214 40.9901 34.3906 41.0773 34.2017 40.9611C34.1146 40.9029 34.0129 40.8593 33.8966 40.8012C34.0565 40.7286 34.2017 40.6704 34.347 40.5978C34.3325 40.5687 34.3325 40.5396 34.318 40.5106C34.1582 40.5396 33.9838 40.5832 33.824 40.6123C33.6351 40.6414 33.4462 40.6559 33.2719 40.6995C33.1702 40.7286 33.0103 40.7576 32.9813 40.8303C32.836 41.1354 32.7198 41.4406 32.589 41.8039C33.3445 41.7457 34.0274 41.6876 34.7103 41.644C34.6086 41.8039 34.4923 41.8184 34.2744 41.7893C33.8385 41.7457 33.4026 41.862 33.0103 42.0509C33.4172 42.08 33.8095 42.0654 34.2017 42.08C34.4633 42.0945 34.6812 41.9928 34.841 41.7893C34.9573 41.644 34.8846 41.5859 34.7103 41.644ZM17.4932 43.2425C17.0864 43.257 16.7812 43.4168 16.4907 43.1553C16.4471 43.1117 16.3018 43.1553 16.2001 43.1698C15.9676 43.2134 15.7642 43.3587 15.5027 43.1698C15.2847 43.01 14.9796 43.1698 14.8343 43.4604C15.4155 43.4604 15.9821 43.4604 16.5342 43.4604C16.6359 43.4604 16.7377 43.4314 16.8248 43.475C17.3915 43.7656 17.9 43.6203 18.394 43.286C18.4812 43.2279 18.6119 43.2134 18.7136 43.1989C18.7282 43.1989 18.7572 43.2425 18.7863 43.257C18.6991 43.3006 18.6264 43.3442 18.4666 43.4314C18.6555 43.5185 18.7863 43.6057 18.9025 43.6057C19.164 43.6203 19.4256 43.5476 19.6725 43.5621C20.1375 43.5912 20.5879 43.6784 21.0528 43.6784C21.4306 43.6784 21.8083 43.5476 22.1861 43.504C22.5057 43.4604 22.8254 43.475 23.1305 43.4604C23.2031 43.4604 23.2903 43.4314 23.363 43.4168C23.3775 43.3878 23.392 43.3442 23.4066 43.3151C23.2031 43.2134 22.9997 43.0535 22.7963 43.039C22.3169 43.01 21.8374 43.0535 21.3579 43.0681C21.1836 43.0681 21.0238 43.1117 20.8494 43.1262C20.8204 43.1262 20.8058 43.0826 20.7768 43.0681C20.8639 42.9954 20.9511 42.9228 21.0674 42.8356C20.8785 42.792 20.7187 42.7629 20.5588 42.7193C20.5588 42.6903 20.5734 42.6612 20.5734 42.6176C20.9366 42.6612 21.2998 42.7048 21.663 42.7339C21.663 42.7193 21.663 42.7048 21.6776 42.6903C21.4887 42.6176 21.2998 42.5304 21.1109 42.4578C21.0964 42.3415 21.0819 42.2253 21.0674 42.0654C20.7041 42.1381 20.3845 42.2107 20.0503 42.2689C20.0503 42.2834 20.0648 42.2979 20.0648 42.327C20.2828 42.3706 20.5007 42.4142 20.7187 42.4578C20.4281 42.5885 20.0358 42.5595 19.8324 42.7484C19.5708 42.9809 19.382 42.821 19.1495 42.8065C18.8299 42.792 18.4666 42.7193 18.2342 42.8501C18.0307 42.9664 17.9726 42.9373 17.7983 42.8356C17.5513 42.6903 17.2898 42.7193 17.1299 43.0535C17.2316 43.1117 17.3188 43.1553 17.4932 43.2425ZM10.3448 42.7775C10.3739 42.9664 10.3884 43.1117 10.4174 43.257C11.667 43.6348 12.931 43.3151 14.2822 43.0681C14.0788 42.9809 13.9335 42.9228 13.8028 42.8792C14.0207 42.792 14.2241 42.7048 14.4275 42.6031C14.2822 42.5304 14.1515 42.4723 13.9771 42.3996C13.9916 42.5014 14.0062 42.5595 14.0062 42.574C13.5703 42.7193 13.178 42.8356 12.7712 42.9664C12.8002 43.0245 12.8293 43.0971 12.9165 43.2715C12.3934 43.1698 11.9721 43.0826 11.5362 43.01C11.6088 42.7339 11.4781 42.6903 11.2166 42.7629C11.0858 42.792 10.926 42.7629 10.7952 42.7048C10.5918 42.574 10.4465 42.6757 10.3448 42.7775ZM24.4527 42.7048C24.4527 42.7484 24.4672 42.792 24.4672 42.8356C24.5544 42.821 24.6415 42.821 24.6996 42.8065C24.7287 42.9373 24.7432 43.039 24.7723 43.1843C25.1355 43.0826 25.4697 42.9809 25.7748 42.8937C25.7603 42.8356 25.7312 42.7629 25.7022 42.6903C25.7893 42.6903 25.9056 42.6612 25.9637 42.7048C26.2833 42.9518 26.5884 42.792 26.9226 42.7339C26.85 42.3996 26.6175 42.2979 26.3996 42.3415C25.7458 42.4432 25.0919 42.5886 24.4527 42.7048ZM28.2884 43.039C28.7969 42.9809 29.2328 42.9373 29.7268 42.8937C29.4362 42.7629 29.2182 42.6757 28.9712 42.5595C28.7678 42.7048 28.5499 42.8501 28.2884 43.039ZM27.7653 42.5014C27.7508 42.4287 27.7363 42.356 27.7217 42.2834C27.4747 42.2979 27.2423 42.327 26.9953 42.3415C26.9807 42.3851 26.9662 42.4287 26.9517 42.4578C27.0243 42.545 27.126 42.7048 27.1841 42.6903C27.4021 42.6612 27.5764 42.574 27.7653 42.5014ZM30.3224 42.2253C30.337 42.2689 30.3515 42.2979 30.366 42.3415C30.7147 42.4287 30.8164 42.08 31.0634 41.9782C31.0489 41.9346 31.0198 41.8911 31.0053 41.862C30.7874 41.9782 30.5549 42.109 30.3224 42.2253Z" fill="#77151E"/>
<path d="M132.274 35.5257C132.928 35.5111 133.567 35.4966 134.221 35.4675C134.221 35.4385 134.221 35.4094 134.221 35.3949C134.134 35.4385 134.032 35.4821 133.945 35.5257C133.945 35.5547 133.959 35.5693 133.959 35.5983C134.293 35.5693 134.613 35.5402 134.947 35.4966C134.947 35.5547 134.962 35.6129 134.962 35.671C134.482 35.7291 134.003 35.7872 133.509 35.8454C133.509 35.8744 133.509 35.9035 133.523 35.9325C133.974 35.9325 134.424 35.9471 134.875 35.918C134.962 35.918 135.092 35.7872 135.122 35.7C135.369 35.0897 135.892 35.1769 136.371 35.2205C136.531 35.235 136.691 35.2932 136.851 35.3222C136.604 35.4821 136.269 35.4821 136.037 35.3513C135.906 35.2932 135.746 35.3077 135.586 35.2932C135.572 35.3222 135.572 35.3658 135.557 35.3949C135.616 35.453 135.688 35.5111 135.761 35.5693C135.717 35.5983 135.659 35.6129 135.645 35.6419C135.586 35.7291 135.543 35.8308 135.499 35.9325C135.616 35.9325 135.819 35.9616 135.848 35.9035C136.022 35.5983 136.313 35.6419 136.574 35.6129C137.025 35.5693 137.475 35.4675 137.911 35.7146C137.998 35.7582 138.129 35.7291 138.231 35.7436C138.478 35.7582 138.739 35.7872 138.986 35.7727C139.117 35.7582 139.35 35.9325 139.379 35.5838C139.379 35.4966 139.684 35.4239 139.844 35.3513C139.873 35.3658 139.902 35.3949 139.931 35.4094C139.858 35.5111 139.771 35.6129 139.684 35.7291C139.829 35.9035 140.381 35.918 140.875 35.6855C140.759 35.6419 140.657 35.5983 140.555 35.5547C140.555 35.5402 140.57 35.5257 140.57 35.5111C140.744 35.5547 140.933 35.5838 141.122 35.6274C141.064 35.7 141.02 35.7582 140.904 35.9035C141.079 35.8599 141.151 35.8308 141.224 35.8308C141.384 35.8018 141.543 35.6855 141.689 35.9325C141.747 36.0343 142.023 36.0779 142.183 36.0633C142.72 36.0197 143.258 35.9471 143.781 35.8744C143.825 35.8744 143.883 35.8308 143.926 35.8018C144.086 35.6129 144.217 35.5402 144.522 35.5983C144.972 35.6855 145.452 35.6129 145.931 35.6129C146.033 35.6129 146.12 35.5838 146.222 35.5838C146.716 35.6419 147.21 35.7 147.689 35.7727C147.544 35.8599 147.37 35.9761 147.123 36.1214C147.689 36.1069 148.198 36.383 148.721 36.1214C148.837 36.0633 148.968 36.0488 149.099 36.0197H149.084C149.055 36.1214 149.026 36.2232 149.011 36.3249C149.113 36.3104 149.2 36.2958 149.302 36.2958C149.505 36.2813 149.723 36.2958 149.927 36.2522C150.145 36.2086 150.363 36.136 150.595 36.0633C150.595 36.0197 150.595 35.9616 150.595 35.918C150.813 36.0343 151.016 36.1941 151.234 36.2522C151.467 36.3104 151.714 36.2668 151.975 36.2668C152.092 36.3685 152.266 36.5138 152.498 36.7318C152.164 36.8335 151.845 37.0369 151.554 37.0079C150.61 36.9207 149.752 37.2404 148.881 37.5164C149.2 37.4728 149.535 37.4583 149.854 37.3857C150.043 37.3421 150.159 37.3566 150.348 37.4147C150.682 37.531 151.075 37.5019 151.452 37.4874C151.874 37.4728 152.266 37.5164 152.629 37.8361C152.281 37.8361 151.917 37.8361 151.569 37.8361C151.38 37.8361 151.147 37.7344 151.06 38.025C151.06 38.0396 150.813 38.025 150.74 37.9669C150.581 37.8361 150.479 37.778 150.276 37.9088C150.159 37.9814 149.97 37.9524 149.825 37.9378C149.578 37.9088 149.331 37.8652 149.113 38.0832C149.026 38.1703 148.837 38.1849 148.677 38.1849C148.517 38.1849 148.343 38.1413 148.111 38.0686C148.198 38.0396 148.3 38.0105 148.387 37.9814C148.038 37.8361 147.806 37.8071 147.529 38.025C147.341 38.1703 147.021 38.1558 146.759 38.1703C146.469 38.1849 146.164 38.1703 145.873 38.1558C145.641 38.1558 145.408 38.1558 145.103 38.1558C145.19 38.0541 145.234 38.0105 145.35 37.8797C145.03 37.8071 144.769 37.7344 144.507 37.6908C144.26 37.6618 143.999 37.6618 143.752 37.6763C143.054 37.7489 142.343 37.8361 141.645 37.9233C141.573 37.9378 141.5 37.9233 141.34 37.9233C141.456 37.7635 141.543 37.6472 141.631 37.531C141.805 37.5891 141.994 37.6472 142.183 37.7053C142.168 37.6327 142.154 37.5746 142.154 37.5746C142.59 37.4293 142.982 37.2985 143.374 37.1677C143.345 37.1241 143.316 37.0514 143.229 36.8625C143.752 36.9643 144.173 37.0369 144.595 37.1241C144.58 37.313 144.595 37.4583 144.871 37.3857C145.016 37.3566 145.19 37.4293 145.365 37.4293C145.524 37.4293 145.684 37.4147 145.859 37.4002C145.83 37.3711 145.815 37.3275 145.786 37.2985C145.771 37.1677 145.742 37.0224 145.728 36.8771C144.464 36.5283 143.2 36.8189 141.878 37.066C142.081 37.1532 142.212 37.2113 142.357 37.2694C142.096 37.3711 141.849 37.4583 141.616 37.5455C141.224 37.6618 140.788 37.6472 140.439 37.9378C140.367 37.996 140.178 37.9088 140.047 37.9233C139.814 37.9524 139.582 37.996 139.335 38.025C139.248 38.0396 139.103 38.025 139.073 37.9669C138.856 37.6036 138.565 37.778 138.274 37.8361C138.086 37.8797 137.882 37.9378 137.693 37.9233C137.446 37.8943 137.199 37.8216 137.01 38.0686C136.967 38.1268 136.792 38.1703 136.705 38.1413C136.197 37.9088 135.688 38.1558 135.194 38.1558C135.005 38.1558 134.86 38.1122 134.686 38.0105C134.293 37.7925 133.872 37.5455 133.364 37.7344C133.393 37.8361 133.422 37.9233 133.451 38.0686C133.175 38.1558 132.899 38.2285 132.608 38.3157C132.593 38.2866 132.593 38.2575 132.579 38.2285C132.724 38.1994 132.87 38.1703 133.015 38.1413C132.782 37.6327 132.39 37.8797 131.94 37.8507C132.346 37.6618 132.666 37.5019 132.971 37.3566C132.957 37.3275 132.942 37.2985 132.942 37.2694C132.245 37.4874 131.562 37.6908 130.865 37.9088C130.865 37.9378 130.879 37.9814 130.879 38.0105C131.141 38.025 131.417 38.0396 131.678 38.0541C131.678 38.0832 131.693 38.1122 131.693 38.1413C131.344 38.1849 130.995 38.3011 130.647 38.2721C130.051 38.2139 129.513 38.3447 128.961 38.5046C128.743 38.5772 128.467 38.4464 128.22 38.461C127.813 38.49 127.392 38.5191 127 38.6063C126.796 38.6499 126.622 38.8243 126.404 38.5918C126.331 38.5046 126.128 38.5046 125.983 38.5046C125.721 38.49 125.445 38.5046 125.184 38.5046C125.184 38.5482 125.184 38.6063 125.184 38.6499C125.358 38.6789 125.518 38.7225 125.692 38.7516C125.692 38.7807 125.678 38.8097 125.678 38.8243C125.489 38.8097 125.285 38.7952 125.067 38.7661C125.096 38.8533 125.125 38.9405 125.169 39.1003C124.878 39.0713 124.646 39.0422 124.341 38.9986C124.559 38.8097 124.748 38.6499 124.922 38.5046C124.893 38.461 124.864 38.4174 124.835 38.3738C124.704 38.4174 124.559 38.4174 124.457 38.49C124.196 38.6644 123.978 38.926 123.614 38.9114C123.556 38.9114 123.513 39.0713 123.44 39.1439C123.353 39.2457 123.237 39.3328 123.135 39.42V39.4346C123.266 39.0713 123.396 38.6935 123.527 38.3011C122.801 38.3593 122.118 38.4174 121.45 38.4755C121.595 38.4319 121.74 38.3447 121.9 38.3447C122.35 38.3157 122.786 38.2721 123.222 38.0541C122.67 38.0541 122.162 38.0396 121.668 38.0686C121.537 38.0832 121.421 38.2575 121.29 38.3738C121.348 38.4028 121.406 38.4464 121.464 38.4755C121.391 38.49 121.319 38.5336 121.261 38.5336C120.767 38.461 120.345 38.6353 119.924 38.8678C119.779 38.955 119.561 38.9696 119.386 38.9405C119.081 38.8969 118.878 38.955 118.718 39.2166C118.631 39.3619 118.442 39.4491 118.311 39.6235C118.762 39.3619 119.198 39.391 119.677 39.5944C119.256 39.9722 118.907 40.3936 118.457 40.6697C118.166 40.8586 117.745 40.8732 117.381 40.9458C116.989 41.0185 116.582 41.0039 116.19 41.1202C115.522 41.3091 114.882 41.6288 114.214 41.7741C113.342 41.9775 112.456 42.0647 111.57 42.1955C111.439 42.21 111.294 42.1955 111.192 42.2536C109.87 43.111 108.388 43.605 106.906 44.1136C105.409 44.6367 103.942 45.218 102.46 45.7702C102.474 45.8283 102.489 45.8864 102.504 45.9445C102.809 45.9155 103.099 45.901 103.361 45.8719C102.794 46.3369 97.7089 48.2259 94.1492 49.2722C90.9818 50.2022 87.7854 51.0159 84.4437 51.3647C84.7052 51.4809 84.9377 51.5536 85.1411 51.6553C85.3445 51.757 85.5479 51.8733 85.7513 51.9895C85.7223 52.0331 85.7077 52.0767 85.6932 52.0767C84.6326 52.1639 83.572 52.222 82.5113 52.3528C80.9858 52.5417 79.5183 52.3237 78.0509 51.9895C74.8109 51.263 71.7888 50.0423 69.1735 47.9499C67.7351 46.8019 66.5437 45.436 65.8609 43.7067C64.5968 40.5244 65.5412 37.3421 68.4761 35.5402C72.3264 33.1861 76.2928 33.099 80.2448 35.3513C81.6541 36.165 82.2207 37.6618 81.7558 39.1149C81.5233 39.8269 81.0148 40.2047 80.2738 40.2192C79.5183 40.2338 78.8209 39.9722 78.138 39.6961C77.5714 39.4782 77.0338 39.1875 76.4527 39.0422C75.4065 38.7661 74.5348 39.1003 73.8229 39.9141C72.9656 40.9167 72.8203 41.963 73.387 43.1691C74.1716 44.782 75.4501 45.7266 77.121 46.2642C80.1576 47.2378 83.2233 47.1506 86.3034 46.5113C89.1948 45.9155 91.9553 44.8983 94.6432 43.7213C95.6167 43.2999 96.6337 42.9802 97.6362 42.6169C97.7379 42.5733 97.8542 42.5588 98.014 42.6024C97.8542 42.8058 97.6798 42.9947 97.5055 43.2127C98.3191 42.8785 99.1182 42.5152 99.9318 42.2246C102.968 41.1347 106.02 40.0594 109.071 38.9986C109.594 38.8243 110.146 38.7661 110.698 38.6644C110.713 38.6935 110.727 38.7225 110.727 38.7516C110.596 38.8533 110.466 38.9696 110.262 39.1439C110.654 39.0713 110.959 39.0713 111.206 38.9405C112.441 38.3157 113.807 38.1849 115.1 37.778C115.681 37.6036 116.263 37.4147 116.844 37.2549C116.989 37.2113 117.149 37.2258 117.338 37.2839C117.047 37.4874 116.757 37.7053 116.408 37.9524C116.466 37.8216 116.495 37.7635 116.539 37.6618C116.19 37.7344 115.827 37.7199 115.696 38.1268C116.393 38.3157 117.076 38.1268 117.745 37.8797C117.977 37.7925 118.224 37.7053 118.457 37.6036C118.486 37.5891 118.515 37.5746 118.558 37.56C118.645 37.5455 118.733 37.5019 118.805 37.531C119.241 37.6763 119.604 37.5164 119.982 37.3275C120.142 37.2549 120.345 37.313 120.52 37.2839C120.723 37.2549 120.941 37.2113 121.13 37.1241C121.319 37.0369 121.493 36.8916 121.697 36.7463C121.624 36.7318 121.566 36.7172 121.508 36.7027C121.726 36.5719 122.002 36.2958 122.162 36.3539C122.467 36.4411 122.568 36.2958 122.743 36.165C122.786 36.136 122.902 36.2377 122.99 36.2813C122.728 36.4993 122.51 36.6882 122.234 36.9061C122.67 37.095 122.917 36.8771 123.208 36.63C123.135 36.601 123.077 36.5719 122.932 36.5138C123.251 36.3249 123.513 36.1796 123.774 36.0197C123.789 36.0488 123.818 36.0779 123.832 36.1069C123.789 36.1796 123.731 36.2522 123.614 36.3975C123.934 36.3539 124.152 36.3249 124.384 36.2958C124.602 36.2668 124.762 36.2958 124.864 36.5138C124.995 36.8044 125.155 36.7754 125.431 36.63C125.678 36.4993 126.012 36.5138 126.302 36.4993C126.651 36.4847 126.971 36.4266 127.174 36.0924C127.13 36.0052 127.101 35.918 127.029 35.7436C126.753 35.8744 126.477 36.0197 126.186 36.136C125.939 36.2377 125.692 36.2813 125.46 36.0488C125.431 36.0197 125.329 36.0343 125.271 36.0488C125.155 36.0779 125.038 36.1214 124.849 36.1941C125.242 35.8163 125.663 35.7291 126.055 35.8018C126.244 35.8308 126.462 35.7872 126.666 35.7291C126.913 35.671 127.116 35.4821 127.377 35.7436C127.45 35.8163 127.697 35.7146 127.871 35.6855C127.901 35.7146 127.959 35.8163 128.017 35.8163C128.307 35.7872 128.598 35.7436 128.889 35.7L128.874 35.6855C129.165 35.7291 129.455 35.7727 129.746 35.8163C129.615 36.0052 129.223 36.0488 129.426 36.3539C129.993 36.5719 130.458 35.8599 131.01 36.2813C131.01 36.2813 131.039 36.2522 131.068 36.2522C131.228 36.2086 131.402 36.136 131.562 36.1505C131.969 36.2086 132.376 36.3539 132.739 36.0197C132.797 35.9761 132.928 36.0197 133.015 36.0197C133.117 36.0197 133.218 36.0197 133.334 36.0197C133.189 35.6129 133.015 35.4966 132.87 35.7C132.564 36.165 132.158 35.9616 131.765 35.918C132.056 35.8308 132.361 35.7582 132.623 35.6855C132.521 35.671 132.405 35.5983 132.274 35.5257ZM135.063 38.0832C135.427 38.0105 135.761 37.9378 136.095 37.8797C136.095 37.8652 136.08 37.8361 136.08 37.8216C135.863 37.778 135.63 37.7344 135.31 37.6763C135.47 37.6618 135.528 37.6618 135.586 37.6472C135.906 37.5164 136.211 37.3711 136.531 37.2549C136.574 37.2403 136.647 37.2549 136.705 37.2694C137.068 37.2985 137.417 37.3421 137.78 37.3566C137.868 37.3566 137.955 37.2985 138.042 37.2694C138.115 37.2549 138.202 37.1968 138.231 37.2258C138.594 37.4728 138.768 37.4583 139.015 37.0805C138.928 37.0369 138.841 36.9933 138.725 36.9352C139.204 36.8189 139.233 36.8335 139.669 37.0079C139.742 37.0369 139.844 37.0079 139.931 36.9933C140.178 36.9352 140.396 36.8044 140.686 36.9788C140.904 37.1241 141.18 36.9643 141.311 36.6882C140.73 36.6882 140.149 36.6882 139.567 36.6882C139.451 36.6882 139.335 36.6446 139.219 36.6155C139.117 36.5864 139.001 36.5429 138.899 36.5283C138.449 36.4847 138.042 36.5864 137.679 36.8916C137.592 36.9643 137.432 36.9352 137.315 36.9497C137.315 36.9207 137.315 36.9061 137.315 36.8771C137.403 36.848 137.49 36.8044 137.577 36.7754C137.577 36.7463 137.577 36.7172 137.592 36.6882C137.475 36.63 137.359 36.5429 137.228 36.5429C136.952 36.5429 136.662 36.5864 136.386 36.5864C135.616 36.601 134.86 36.4121 134.075 36.6155C133.712 36.7027 133.334 36.6736 132.957 36.7027C132.884 36.7027 132.811 36.7463 132.652 36.8044C133.552 37.4293 134.468 37.095 135.427 37.0224C135.267 37.1677 135.18 37.2403 135.063 37.3421C135.252 37.3857 135.412 37.4147 135.557 37.4583C135.557 37.4874 135.543 37.531 135.543 37.56C135.194 37.5164 134.831 37.4728 134.482 37.4293C134.482 37.4438 134.482 37.4583 134.468 37.4874C134.657 37.56 134.831 37.6327 135.005 37.7053C135.034 37.7925 135.049 37.9088 135.063 38.0832ZM131.533 37.4728C131.46 37.2403 131.417 37.1096 131.358 36.9352C130.995 37.0369 130.661 37.1386 130.356 37.2258C130.371 37.2839 130.4 37.3566 130.429 37.4293C130.356 37.4293 130.24 37.4728 130.196 37.4293C129.877 37.1822 129.571 37.3275 129.237 37.3711C129.266 37.7199 129.513 37.7925 129.731 37.778C130.341 37.7053 130.952 37.5746 131.533 37.4728ZM128.38 37.6327C128.395 37.7053 128.395 37.778 128.409 37.8361C128.656 37.8216 128.889 37.8071 129.136 37.7925C129.15 37.7635 129.165 37.7199 129.194 37.6908C129.121 37.6036 129.034 37.4293 128.976 37.4438C128.772 37.4728 128.583 37.5746 128.38 37.6327ZM125.053 38.1413C125.082 38.1849 125.111 38.2285 125.14 38.2721C125.372 38.1413 125.605 38.025 125.837 37.8943C125.808 37.8361 125.779 37.7925 125.75 37.7344C125.503 37.8652 125.285 38.0105 125.053 38.1413Z" fill="#77151E"/>
<path d="M113.27 43.1981C113.197 43.4306 113.11 43.6486 113.008 43.9538C113.27 43.8956 113.415 43.8666 113.604 43.8375C113.502 43.9247 113.429 43.9828 113.357 44.0409C113.793 43.9392 114.229 44.07 114.606 43.6486C114.853 43.358 115.362 43.2999 115.769 43.1545C116.016 43.0674 116.277 42.9656 116.553 42.9366C117.004 42.8784 117.381 42.7186 117.759 42.4861C118.021 42.3263 118.398 42.3553 118.704 42.2827C118.849 42.2536 118.98 42.181 119.11 42.1083C119.183 42.0647 119.256 41.9485 119.299 41.963C119.997 42.1519 120.607 41.6724 121.275 41.6869C121.464 41.6869 121.638 41.527 121.769 41.4544C121.944 41.498 122.118 41.6142 122.205 41.5561C122.859 41.1783 123.6 41.1347 124.312 41.0039C125.213 40.8295 126.128 40.6842 127.058 40.6697C127.348 40.6697 127.639 40.6116 127.93 40.597C128.424 40.5825 128.932 40.5825 129.426 40.5535C129.615 40.5535 129.804 40.5099 129.978 40.4953C129.935 40.6116 129.876 40.7278 129.804 40.8877C129.382 40.9167 128.932 40.9313 128.482 40.9749C128.133 41.0039 127.799 41.0475 127.45 41.0911C126.883 41.1638 126.317 41.3236 125.75 41.2945C125.46 41.28 125.184 41.2655 124.98 41.3963C124.472 41.716 123.905 41.6288 123.367 41.745C123.193 41.7886 123.019 41.8613 122.873 41.963C122.554 42.181 122.22 42.2245 121.842 42.1519C121.74 42.1374 121.624 42.2245 121.508 42.2681C121.348 42.3408 121.203 42.457 121.043 42.5006C120.825 42.5588 120.607 42.5733 120.374 42.6024C120.331 42.6024 120.287 42.5733 120.244 42.5588C120.171 42.5297 120.084 42.4716 120.04 42.5006C119.474 42.7477 118.907 43.0092 118.34 43.2708C118.282 43.2999 118.224 43.3289 118.166 43.3289C117.498 43.3434 116.96 43.7067 116.364 43.9247C116.306 43.9392 116.248 43.9974 116.205 43.9974C115.594 43.9538 115.144 44.3606 114.635 44.5641C114.316 44.6948 114.069 44.9855 113.735 45.1453C113.749 45.0872 113.778 45.0291 113.793 44.9709C113.778 44.9564 113.735 44.9419 113.735 44.9419C113.284 45.3923 112.645 45.4505 112.107 45.7266C111.294 46.1625 110.349 46.3659 109.463 46.6856C109.143 46.8019 108.853 46.9763 108.548 47.1216C108.562 47.1506 108.577 47.1942 108.591 47.2233C108.693 47.2233 108.809 47.2088 109.013 47.2088C102.402 50.1295 95.8782 52.9922 89.1366 55.3172C89.1366 55.3608 89.1511 55.4044 89.1511 55.4334C89.2528 55.477 89.3546 55.5206 89.558 55.6078C88.7734 55.7531 88.076 55.9129 87.3786 56.0147C84.1676 56.5233 80.9276 56.6831 77.6876 56.7703C76.9902 56.7848 76.2783 56.6395 75.5663 56.5378C75.1305 56.4797 74.7091 56.3634 74.2587 56.6976C74.8108 56.8284 75.3339 56.9447 75.8424 57.0754C75.1014 57.1336 74.375 56.9883 73.6776 56.7703C73.2562 56.6395 72.8203 56.4942 72.4135 56.3198C71.164 55.7531 69.8128 55.5061 68.4906 55.1719C67.5898 54.9539 66.6745 54.7214 65.9626 54.0094C66.0061 54.1983 66.0352 54.3872 66.0933 54.6633C65.5121 54.2273 64.96 53.8495 64.4515 53.4136C62.4174 51.7134 60.8483 49.6791 59.9184 47.1652C58.4074 43.0674 60.3979 38.9696 62.7807 37.2403C63.7977 36.4992 64.9165 35.9907 66.2095 36.0052C66.3548 36.0052 66.4856 36.0342 66.7035 36.0633C66.5582 36.3249 66.4711 36.5574 66.3403 36.7317C65.9771 37.1967 65.6284 37.6763 65.2216 38.1122C63.8849 39.5217 63.6815 42.5297 64.8002 44.1717C65.2942 44.8983 65.672 45.712 66.166 46.4531C67.4155 48.3858 69.188 49.7662 71.1349 50.9433C72.2973 51.6408 73.4887 52.3237 74.8254 52.5998C75.9586 52.8323 77.121 52.9631 78.2688 53.0503C79.4311 53.1375 80.5935 53.123 81.7558 53.152C83.4121 53.1956 85.0249 52.8905 86.6521 52.6144C88.0469 52.3819 89.4417 52.1203 90.7639 51.6117C90.8801 51.5681 90.9964 51.51 91.0981 51.3937C90.822 51.3937 90.5605 51.3937 90.2844 51.3937C90.2699 51.3647 90.2699 51.3356 90.2554 51.3066C90.5314 51.2048 90.7929 51.0595 91.069 50.9869C92.086 50.7108 93.1031 50.4492 94.1347 50.2167C95.7619 49.8534 97.3166 49.2722 98.8567 48.6619C100.658 47.9498 102.489 47.2523 104.291 46.5403C104.741 46.3659 105.177 46.148 105.642 45.9881C105.961 45.8719 106.31 45.8138 106.644 45.7266C106.978 45.6394 107.298 45.5522 107.618 45.4359C107.836 45.3633 108.112 45.3923 108.228 45.1017C108.257 45.0145 108.46 44.9855 108.577 44.9419C108.795 44.8692 109.013 44.8111 109.216 44.7239C109.55 44.5786 109.899 44.4914 110.248 44.3897C110.8 44.2299 111.337 44.0119 111.918 43.9683C112.006 43.9683 112.064 43.7213 112.165 43.5614C112.209 43.5614 112.311 43.5614 112.412 43.5614C112.34 43.6922 112.267 43.8084 112.194 43.9247C112.224 43.9538 112.238 43.9683 112.267 43.9974C112.354 43.9538 112.471 43.9392 112.5 43.8811C112.659 43.5905 113.11 43.5759 113.153 43.1836C113.11 43.2127 113.211 43.2127 113.27 43.1981Z" fill="#825A2B"/>
<path d="M42.8757 36.9207C42.9628 36.7027 43.0355 36.4847 43.1372 36.1796C42.8757 36.2232 42.7304 36.2522 42.556 36.2958C42.6577 36.2086 42.7304 36.1505 42.803 36.0778C42.3671 36.2086 41.9022 36.0488 41.5244 36.4993C41.292 36.7753 40.7689 36.8189 40.3621 36.9642C40.1151 37.0514 39.8681 37.1532 39.6211 37.1822C39.1707 37.2403 38.7784 37.4002 38.3861 37.6617C38.1391 37.8216 37.7759 37.7925 37.4708 37.8507C37.3255 37.8797 37.1512 37.9088 37.064 38.0105C36.9332 38.1703 36.7879 38.1267 36.6281 38.1413C36.1777 38.1849 35.7128 38.2866 35.2769 38.4028C34.9718 38.4755 34.6812 38.5917 34.3761 38.6935C34.347 38.708 34.318 38.708 34.3034 38.708C33.8385 38.3302 33.5334 38.8097 33.1702 38.926C32.9958 38.9841 32.8069 38.9841 32.618 39.0131C32.4001 39.0422 32.1822 39.0422 31.9788 39.0858C31.0344 39.3183 30.0754 39.4346 29.102 39.4491C28.8259 39.4491 28.5499 39.5072 28.2738 39.5217C27.7943 39.5508 27.3149 39.5799 26.8354 39.5944C26.6175 39.6089 26.4141 39.5944 26.1961 39.5944C26.2397 39.5072 26.2833 39.3764 26.385 39.1585C26.8645 39.1585 27.4021 39.173 27.9396 39.1585C28.1576 39.1585 28.361 39.1003 28.5789 39.0713C29.1746 38.9841 29.7848 38.8388 30.3805 38.8388C30.6711 38.8388 30.9617 38.8678 31.1942 38.7371C31.601 38.5046 32.0369 38.5046 32.4728 38.4319C32.7633 38.3883 33.0249 38.2285 33.3154 38.1558C33.6351 38.0686 33.9547 38.0396 34.2889 37.9669C34.4051 37.9378 34.5359 37.8942 34.6521 37.8361C34.8265 37.7635 34.9863 37.6472 35.1607 37.6036C35.3931 37.5455 35.6256 37.56 35.8581 37.5746C35.9452 37.5891 36.0469 37.6472 36.1051 37.6327C36.6717 37.3857 37.2383 37.1241 37.805 36.8625C37.8486 36.848 37.8921 36.8189 37.9357 36.8044C38.6331 36.7608 39.2288 36.4121 39.8681 36.1505C40.1587 36.0343 40.4929 36.0052 40.7835 35.8744C41.3356 35.5983 41.8731 35.2641 42.4398 34.9444C42.4107 35.0171 42.3671 35.0897 42.3381 35.1769C42.3817 35.1769 42.4253 35.1914 42.4398 35.1624C42.8757 34.6828 43.544 34.6538 44.0816 34.3632C44.8807 33.9272 45.8251 33.7383 46.6968 33.4186C46.9874 33.3169 47.2635 33.1571 47.525 32.9972C47.5686 32.9682 47.5541 32.8519 47.5686 32.7066C53.9324 29.8875 60.3833 27.0685 67.0522 24.7726C67.0377 24.729 67.0377 24.6999 67.0232 24.6563C66.9215 24.6127 66.8198 24.5691 66.6164 24.4819C67.4009 24.3366 68.0984 24.1768 68.7958 24.0751C71.3674 23.6973 73.9536 23.4357 76.5398 23.3921C76.9612 23.3921 77.3825 23.3485 77.8039 23.3194C78.8064 23.2758 79.8089 23.2758 80.7969 23.5665C81.1456 23.6682 81.5088 23.6973 81.8866 23.3776C81.3344 23.2468 80.8405 23.116 80.3319 22.9998C81.1892 22.9562 82.0319 23.1015 82.8164 23.4212C84.5163 24.1187 86.2598 24.6127 88.0469 25.0051C88.8315 25.1794 89.6161 25.4555 90.2118 26.1094C90.1827 25.906 90.1537 25.7171 90.0956 25.4119C90.7348 25.8915 91.316 26.2983 91.8536 26.7633C93.9894 28.5943 95.6021 30.774 96.4448 33.5058C97.6072 37.2839 95.6312 41.3672 93.1758 42.9802C92.2023 43.6195 91.1562 44.0845 89.9503 44.0555C89.4999 44.0409 89.4272 43.9538 89.6887 43.576C90.0229 43.0819 90.3716 42.5733 90.793 42.1374C92.3912 40.5389 92.4929 37.4147 91.316 35.7582C90.6331 34.7991 90.1537 33.6947 89.4272 32.7938C88.0324 31.0355 86.2308 29.7568 84.2839 28.6669C82.4532 27.6643 80.4918 27.1266 78.3705 27.0685C77.397 27.0394 76.4381 27.0104 75.4647 26.9522C73.4596 26.8215 71.4691 27.0976 69.5077 27.4899C68.1565 27.7515 66.8343 28.1147 65.4831 28.449C65.3378 28.478 65.207 28.5652 65.0763 28.696C65.3523 28.696 65.6284 28.696 65.9044 28.696C65.919 28.7396 65.919 28.7832 65.9335 28.8122C65.3233 29.0157 64.713 29.2336 64.1028 29.408C62.7225 29.7713 61.2987 30.0183 59.962 30.4688C57.986 31.1372 56.0536 31.9655 54.1067 32.7211C53.3803 32.9972 52.6393 33.2733 51.8983 33.5639C51.4479 33.7383 51.012 33.9563 50.5471 34.1161C50.242 34.2324 49.9078 34.276 49.5881 34.3632C49.2394 34.4503 48.9053 34.5375 48.5711 34.6683C48.3677 34.741 48.1933 34.8863 47.9899 34.988C47.8737 35.0461 47.7575 35.1043 47.6267 35.1478C47.4088 35.235 47.1618 35.2786 46.9584 35.3803C46.6387 35.5257 46.3336 35.7291 45.9558 35.671C45.9268 35.671 45.8832 35.671 45.8541 35.7C45.3892 35.9907 44.8662 36.0633 44.3286 36.1214C44.2269 36.136 44.1542 36.3539 44.0671 36.4702C44.0961 36.4993 44.1106 36.5138 44.1397 36.5428C44.0235 36.5428 43.9072 36.5428 43.8055 36.5428C43.8782 36.4121 43.9508 36.2958 44.0235 36.1796C43.9944 36.1505 43.9799 36.136 43.9508 36.1069C43.8782 36.1505 43.7474 36.165 43.7183 36.2232C43.5585 36.5138 43.0936 36.5138 43.0645 36.9207C43.05 36.9207 42.9338 36.9207 42.8757 36.9207Z" fill="#825A2B"/>
<path d="M115.58 42.7048C116.074 41.9637 117.352 41.397 118.05 41.6585C117.934 41.7167 117.846 41.7893 117.759 41.7893C117.265 41.8184 116.887 42.08 116.524 42.4142C116.277 42.6467 116.016 42.9373 115.58 42.7048Z" fill="#77151E"/>
<path d="M40.5801 37.4436C40.1878 37.9522 39.81 38.4317 39.069 38.3881C38.793 38.3736 38.5169 38.5335 38.2409 38.6061C38.2263 38.548 38.1973 38.5044 38.1827 38.4463C38.2699 38.4172 38.3716 38.3881 38.4588 38.3446C38.7494 38.2283 39.04 38.1266 39.3015 37.9813C39.4613 37.8941 39.5921 37.7342 39.7374 37.618C39.9844 37.4146 40.2314 37.2547 40.5801 37.4436Z" fill="#77151E"/>
<path d="M38.9673 36.0785C38.793 36.1512 38.6186 36.2093 38.4443 36.282C38.328 36.3401 38.2118 36.4127 38.0956 36.4709C37.9793 36.5435 37.8776 36.6307 37.7614 36.6743C37.34 36.8051 36.9042 36.9213 36.4828 37.0521C36.4102 37.0666 36.3375 37.0957 36.2794 37.1102C35.9888 37.1684 35.6982 37.2119 35.4077 37.2701C35.4077 37.2555 35.4077 37.1829 35.4077 37.0812C36.5555 36.7324 37.7469 36.3691 38.9382 36.0059C38.9382 36.0204 38.9528 36.0495 38.9673 36.0785Z" fill="#77151E"/>
<path d="M120.738 43.0677C119.561 43.431 118.384 43.7797 117.207 44.143C117.193 44.1285 117.193 44.0994 117.178 44.0849C117.251 44.0413 117.323 43.9977 117.41 43.9541C118.122 43.5908 118.878 43.3583 119.619 43.0968C119.721 43.0677 119.822 43.0386 119.939 43.0241C120.2 42.966 120.476 42.9224 120.738 42.8643C120.738 42.8933 120.738 42.9805 120.738 43.0677Z" fill="#77151E"/>
<path d="M121.682 39.6091C121.929 39.5655 122.162 39.5073 122.409 39.4783C122.656 39.4492 122.903 39.4638 123.135 39.4638V39.4492C122.99 39.5364 122.859 39.6817 122.699 39.7108C122.191 39.798 121.668 39.827 121.159 39.8997C120.868 39.9433 120.578 40.045 120.287 40.1177C120.171 40.1467 120.04 40.1758 119.939 40.1467C119.851 40.1177 119.822 39.9869 119.75 39.8997C119.851 39.8706 119.953 39.827 120.055 39.8125C120.345 39.7834 120.636 39.7689 120.912 39.7253C121.13 39.6962 121.348 39.6527 121.58 39.6091C121.609 39.6091 121.638 39.6091 121.682 39.6091Z" fill="#77151E"/>
<path d="M128.932 35.7438C129.136 35.4386 129.455 35.395 129.789 35.3805C130.4 35.366 131.01 35.3224 131.62 35.3369C131.838 35.3369 132.056 35.4532 132.274 35.5258V35.5113C132.129 35.5549 131.983 35.6275 131.838 35.6275C131.3 35.5985 130.763 35.5839 130.269 35.8746C130.254 35.8891 130.211 35.86 130.153 35.8455C130.254 35.7438 130.341 35.6711 130.501 35.5113C129.906 35.5985 129.412 35.6711 128.932 35.7438Z" fill="#77151E"/>
<path d="M37.1948 42.8203C37.2383 42.9075 37.2819 42.9947 37.34 43.0964C37.093 43.3289 36.8751 43.605 36.4392 43.387C36.323 43.3289 36.0905 43.5033 35.9162 43.5759C35.8726 43.5905 35.829 43.6631 35.7854 43.6631C35.6547 43.6341 35.5239 43.5905 35.3786 43.5614C35.4658 43.4887 35.5384 43.4016 35.6256 43.3289C35.9307 43.0819 36.2794 42.9802 36.6717 42.9656C36.8606 42.9511 37.0204 42.8784 37.1948 42.8203Z" fill="#77151E"/>
<path d="M118.762 37.0806C118.892 36.9789 118.994 36.8772 119.11 36.79C119.256 36.6883 119.386 36.6447 119.59 36.7173C119.764 36.7755 120.011 36.6156 120.229 36.572C120.389 36.543 120.563 36.543 120.738 36.543C120.723 36.6156 120.723 36.7173 120.68 36.7609C120.2 37.1242 119.604 37.1533 119.052 37.255C118.965 37.255 118.878 37.1533 118.762 37.0806Z" fill="#77151E"/>
<path d="M2.58619 43.5907C2.38278 43.6343 2.17937 43.6634 1.99049 43.7361C1.88879 43.7796 1.83067 43.9104 1.75803 43.9976C1.77255 44.0267 1.80161 44.0557 1.81614 44.0993C1.62726 44.0703 1.42385 44.0412 1.29309 44.0267C1.32215 43.8523 1.32215 43.7215 1.35121 43.6053C1.36574 43.5471 1.45291 43.46 1.51103 43.46C1.85973 43.46 2.1939 43.489 2.5426 43.5036C2.55713 43.5326 2.57166 43.5617 2.58619 43.5907Z" fill="#77151E"/>
<path d="M153.574 36.5429C153.792 36.4993 154.01 36.4702 154.213 36.383C154.286 36.354 154.329 36.2087 154.431 36.0488C154.518 36.0634 154.721 36.0779 154.852 36.0924C154.823 36.2668 154.823 36.4121 154.794 36.5429C154.78 36.5865 154.721 36.6591 154.692 36.6591C154.329 36.6591 153.966 36.6301 153.588 36.6155C153.574 36.601 153.574 36.572 153.574 36.5429Z" fill="#77151E"/>
<path d="M113.27 43.2128C113.328 43.1256 113.357 42.9948 113.429 42.9657C113.996 42.7768 114.577 42.6024 115.158 42.4281C115.202 42.4135 115.275 42.4717 115.362 42.5007C114.955 42.617 114.606 42.7332 114.229 42.8349C114.199 42.9512 114.185 43.0674 114.156 43.1982C114.054 43.1692 113.982 43.1401 113.88 43.111C113.952 43.0384 114.011 42.9948 114.069 42.9367C114.054 42.9076 114.04 42.8931 114.04 42.864C113.778 42.9948 113.517 43.0965 113.27 43.2128Z" fill="#77151E"/>
<path d="M139.495 35.4098C138.957 35.4388 138.42 35.4679 137.882 35.497C137.882 35.4388 137.882 35.3807 137.882 35.3226C138.405 35.2063 138.957 35.2645 139.495 35.4098Z" fill="#77151E"/>
<path d="M18.2777 44.8255C17.7401 44.8255 17.2026 44.8255 16.665 44.8255C16.665 44.7964 16.665 44.7674 16.665 44.7383C17.159 44.6947 17.6384 44.6511 18.1324 44.6221C18.176 44.6221 18.2341 44.7093 18.2922 44.7529C18.2777 44.7819 18.2777 44.7964 18.2777 44.8255Z" fill="#77151E"/>
<path d="M153.806 36.005C153.748 36.0486 153.675 36.0922 153.617 36.1358C153.661 36.1649 153.704 36.1794 153.748 36.2085C153.748 36.2375 153.733 36.2666 153.733 36.2957C153.559 36.2521 153.399 36.2085 153.225 36.1794C153.051 36.1649 152.862 36.1794 152.687 36.1794C152.687 36.1504 152.673 36.1068 152.673 36.0777C153.036 36.0196 153.399 35.9614 153.777 35.9033C153.777 35.9324 153.792 35.976 153.806 36.005Z" fill="#77151E"/>
<path d="M39.9989 35.8162C40.0425 35.7145 40.0715 35.6128 40.1006 35.5982C40.4057 35.4965 40.7254 35.4093 41.0886 35.3076C40.8271 35.7436 40.4348 35.7726 39.9989 35.8162Z" fill="#77151E"/>
<path d="M37.558 42.574C37.5725 42.5595 37.6016 42.5595 37.6161 42.5449C37.8631 42.6757 38.1246 42.792 38.3716 42.9227C38.3716 42.9518 38.3571 42.9954 38.3571 43.0245C37.9648 42.9663 37.5871 42.9082 37.1948 42.8501C37.311 42.7338 37.4272 42.6612 37.558 42.574Z" fill="#77151E"/>
<path d="M42.8757 36.9209C42.8321 36.9936 42.8175 37.1389 42.7594 37.1534C42.3671 37.2842 41.9748 37.3859 41.5244 37.5021C41.7424 37.3132 41.8877 37.1825 42.033 37.0517C42.0184 37.0226 42.0039 36.979 41.9894 36.95C42.0766 36.9645 42.1492 36.979 42.2654 37.0081C42.1783 37.0807 42.1201 37.1389 42.0766 37.1825C42.0911 37.2115 42.1056 37.2261 42.1201 37.2551C42.3671 37.1534 42.6287 37.0371 42.8757 36.9209Z" fill="#77151E"/>
<path d="M2.54261 43.8672C2.78961 43.8962 3.13831 43.9544 3.47248 43.998C3.47248 44.0125 3.48701 44.0416 3.48701 44.0561C3.12378 44.1142 2.76055 44.1723 2.32468 44.245C2.41185 44.0997 2.44091 44.027 2.54261 43.8672Z" fill="#77151E"/>
<path d="M116.146 44.39C116.088 44.4627 116.03 44.5789 115.958 44.5935C115.812 44.6371 115.652 44.5935 115.522 44.6371C115.391 44.6807 115.275 44.7679 115.129 44.8114C115.318 44.3755 115.725 44.39 116.088 44.3174C116.088 44.3464 116.117 44.361 116.146 44.39Z" fill="#77151E"/>
<path d="M1.06063 43.4453C0.828165 43.8958 0.828164 43.7941 0 43.5761C0.334172 43.5325 0.653814 43.4889 1.06063 43.4453Z" fill="#77151E"/>
<path d="M155.07 36.6888C155.375 36.2674 155.448 36.2674 156 36.5725C155.724 36.6161 155.448 36.6452 155.07 36.6888Z" fill="#77151E"/>
<path d="M14.8924 44.7388C14.6745 44.7388 14.442 44.7388 14.1369 44.7388C14.2386 44.5934 14.3113 44.4336 14.3694 44.4336C14.5582 44.4481 14.7471 44.5353 14.936 44.5934C14.9215 44.637 14.9069 44.6952 14.8924 44.7388Z" fill="#77151E"/>
<path d="M119.401 41.4841C119.517 41.2952 119.59 41.1208 119.706 40.99C119.75 40.9464 119.895 40.9755 119.982 40.9609C119.982 41.0627 120.011 41.237 119.953 41.2661C119.779 41.3678 119.575 41.4114 119.401 41.4841Z" fill="#77151E"/>
<path d="M36.7734 38.6504C36.6572 38.8538 36.57 39.0137 36.4537 39.159C36.4247 39.2026 36.323 39.2316 36.2649 39.2171C36.2068 39.2026 36.1341 39.1299 36.1341 39.0718C36.1196 38.9991 36.1486 38.8829 36.2068 38.8538C36.3811 38.7812 36.57 38.723 36.7734 38.6504Z" fill="#77151E"/>
<path d="M141.282 35.3955C141.5 35.3955 141.718 35.3955 142.052 35.3955C141.921 35.5408 141.849 35.7152 141.79 35.7007C141.602 35.6716 141.427 35.5844 141.253 35.5263C141.253 35.4827 141.267 35.4391 141.282 35.3955Z" fill="#77151E"/>
<path d="M121.682 39.609C121.638 39.609 121.609 39.609 121.566 39.609C121.566 39.5363 121.58 39.4637 121.58 39.4056C121.609 39.1295 121.711 39.0278 121.973 39.2312C122.045 39.2893 122.132 39.3039 122.234 39.3474C122.045 39.4346 121.856 39.5218 121.682 39.609Z" fill="#77151E"/>
<path d="M118.587 37.5891C118.558 37.6036 118.529 37.6182 118.486 37.6327C118.34 37.531 118.195 37.4293 118.006 37.313C118.268 37.2985 118.529 37.2839 118.834 37.2549C118.733 37.3857 118.66 37.4874 118.587 37.5891Z" fill="#77151E"/>
<path d="M121.421 38.9119C121.028 38.97 120.709 39.0281 120.345 39.0862C120.563 38.8392 121.086 38.752 121.421 38.9119Z" fill="#77151E"/>
<path d="M35.7128 41.2661C35.4077 41.2951 35.1025 41.3242 34.7974 41.3532C34.7974 41.3096 34.7829 41.2661 34.7829 41.237C35.088 41.1789 35.3786 41.1353 35.6837 41.0771C35.6982 41.1353 35.6982 41.1934 35.7128 41.2661Z" fill="#77151E"/>
<path d="M122.074 42.457C121.885 42.9802 121.479 42.5878 121.261 42.8348C121.246 42.8058 121.232 42.7622 121.232 42.7331C121.493 42.6459 121.755 42.5733 122.074 42.457Z" fill="#77151E"/>
<path d="M34.9137 37.4003C34.6521 37.4875 34.3906 37.5747 34.0855 37.6619C34.2308 37.1097 34.6812 37.5747 34.8701 37.2695C34.8846 37.3131 34.8991 37.3567 34.9137 37.4003Z" fill="#77151E"/>
<path d="M38.4007 37.9523C38.6767 37.8797 38.9673 37.807 39.2434 37.7344C39.2579 37.7634 39.2579 37.7925 39.2724 37.807C38.9964 37.9087 38.7203 37.9959 38.4443 38.0977C38.4297 38.0395 38.4152 37.9959 38.4007 37.9523Z" fill="#77151E"/>
<path d="M122.626 42.3993C122.83 42.3557 123.048 42.3121 123.251 42.2686C123.266 42.3121 123.266 42.3557 123.28 42.3993C123.077 42.4429 122.859 42.5011 122.656 42.5446C122.656 42.5011 122.641 42.4429 122.626 42.3993Z" fill="#77151E"/>
<path d="M149.055 36.0349C149.07 35.9041 149.084 35.7734 149.084 35.6426C149.215 35.6571 149.346 35.6716 149.476 35.6862C149.476 35.7152 149.491 35.7298 149.491 35.7588C149.346 35.846 149.2 35.9477 149.055 36.0349Z" fill="#77151E"/>
<path d="M117.745 42.1961C117.469 42.2687 117.192 42.3414 116.902 42.3995C116.887 42.3705 116.887 42.3414 116.873 42.3269C117.149 42.2397 117.425 42.138 117.686 42.0508C117.716 42.0944 117.73 42.1525 117.745 42.1961Z" fill="#77151E"/>
<path d="M20.2828 43.0527C19.905 43.4451 19.629 43.2126 19.3384 43.0527C19.6435 43.0527 19.9341 43.0527 20.2828 43.0527Z" fill="#77151E"/>
<path d="M135.921 37.0811C136.168 36.805 136.168 36.805 136.792 37.0811C136.516 37.0811 136.226 37.0811 135.921 37.0811Z" fill="#77151E"/>
</g>
<defs>
<clipPath id="clip0_5430_33151">
<rect width="156" height="80" fill="white"/>
</clipPath>
</defs>
</svg>
