<svg width="128" height="128" viewBox="0 0 128 128" fill="none" xmlns="http://www.w3.org/2000/svg">
<g clip-path="url(#clip0_3423_28851)">
<path fill-rule="evenodd" clip-rule="evenodd" d="M94.7531 62.0971V65.5461H97.531C96.5799 64.3654 95.7163 63.293 94.7531 62.0971ZM33.2188 62.0452C32.2123 63.2962 31.3464 64.3725 30.4022 65.5459H33.2188V62.0452ZM90.5637 58.3784H37.3658V65.6119H38.3161C42.8668 65.6119 47.4175 65.6199 51.9682 65.6052C52.8368 65.6024 53.5816 65.8313 54.2772 66.366C55.6579 67.4268 57.0755 68.4395 58.4783 69.4715C60.2966 70.8091 62.1157 72.1459 63.9542 73.4977C64.2394 73.2947 64.493 73.1191 64.7412 72.9366C67.6945 70.7662 70.6579 68.6097 73.592 66.4136C74.3382 65.8549 75.1159 65.5993 76.0411 65.6032C80.5656 65.6225 85.0904 65.6119 89.6149 65.6119H90.5637V58.3784ZM99.8214 69.7405C99.5328 69.7254 99.28 69.7007 99.0268 69.7007C91.5862 69.6986 84.1453 69.6919 76.7049 69.7174C76.2774 69.7187 75.7823 69.8917 75.4339 70.144C72.1704 72.5094 68.9323 74.91 65.6856 77.299C64.2802 78.3332 63.6521 78.3358 62.2566 77.3092C59.0305 74.9362 55.8162 72.547 52.5684 70.2045C52.1632 69.9122 51.5842 69.7219 51.085 69.7198C43.7485 69.6895 36.4117 69.699 29.0752 69.699H28.1124V98.9453H99.8214V69.7405ZM24 67.1131C25.8186 64.8149 27.6329 62.5135 29.4573 60.2199C30.704 58.6527 31.9808 57.1094 33.2125 55.5308C33.9215 54.6222 34.776 54.2147 35.9572 54.2162C54.6346 54.24 73.3118 54.24 91.9892 54.2162C93.1736 54.2147 94.0102 54.6465 94.7274 55.544C97.616 59.1608 100.542 62.7479 103.418 66.3753C103.715 66.7505 103.907 67.3221 103.908 67.8032C103.935 78.8586 103.932 89.9141 103.924 100.97C103.923 102.157 103.131 102.974 101.956 103.077C101.671 103.102 101.384 103.097 101.098 103.097C76.3338 103.098 51.5693 103.091 26.805 103.116C25.5315 103.118 24.5846 102.77 24 101.614V67.1131Z" fill="#595959"/>
<path fill-rule="evenodd" clip-rule="evenodd" d="M99.8215 69.7404V98.9454H28.1125V69.6989H29.0751C36.4118 69.6989 43.7484 69.6894 51.0849 69.7199C51.5843 69.722 52.1634 69.9121 52.5685 70.2044C55.8163 72.5469 59.0306 74.9363 62.2565 77.3091C63.6522 78.3357 64.2801 78.3333 65.6857 77.2989C68.9324 74.9099 72.1703 72.5093 75.4341 70.1441C75.7822 69.8918 76.2773 69.7188 76.705 69.7175C84.1454 69.6918 91.5861 69.6987 99.0267 69.7006C99.2799 69.7006 99.5329 69.7255 99.8215 69.7404Z" fill="#303030"/>
<path d="M65 23H64C62.8954 23 62 23.8954 62 25V35C62 36.1046 62.8954 37 64 37H65C66.1046 37 67 36.1046 67 35V25C67 23.8954 66.1046 23 65 23Z" fill="#595959"/>
<path d="M43.9038 26.6967L43.1967 27.4038C42.4156 28.1849 42.4156 29.4512 43.1967 30.2322L50.2678 37.3033C51.0488 38.0844 52.3151 38.0844 53.0962 37.3033L53.8033 36.5962C54.5843 35.8151 54.5843 34.5488 53.8033 33.7678L46.7322 26.6967C45.9512 25.9157 44.6848 25.9157 43.9038 26.6967Z" fill="#595959"/>
<path d="M85.8032 27.4038L85.0961 26.6967C84.315 25.9157 83.0487 25.9157 82.2677 26.6967L75.1966 33.7678C74.4156 34.5488 74.4156 35.8151 75.1966 36.5962L75.9037 37.3033C76.6848 38.0843 77.9511 38.0843 78.7321 37.3033L85.8032 30.2322C86.5843 29.4512 86.5843 28.1849 85.8032 27.4038Z" fill="#595959"/>
</g>
<defs>
<clipPath id="clip0_3423_28851">
<rect width="80" height="81" fill="white" transform="translate(24 23)"/>
</clipPath>
</defs>
</svg>
