<?xml version="1.0" encoding="UTF-8"?>
<svg xmlns="http://www.w3.org/2000/svg" xmlns:xlink="http://www.w3.org/1999/xlink" width="32pt" height="32pt" viewBox="0 0 32 32" version="1.1">
<defs>
<clipPath id="clip1">
  <path d="M 4 5 L 28 5 L 28 27 L 4 27 Z M 4 5 "/>
</clipPath>
<clipPath id="clip2">
  <path d="M 16 5 C 19.789062 5 23.078125 7.210938 24.746094 10.488281 C 26.648438 11.246094 28 13.160156 28 15.421875 C 28 17.679688 26.648438 19.589844 24.75 20.351562 C 23.347656 23.101562 20.804688 25.105469 17.769531 25.671875 C 17.511719 26.441406 16.824219 27 16 27 C 14.953125 27 14.105469 26.109375 14.105469 25.015625 C 14.105469 23.917969 14.953125 23.03125 16 23.03125 C 16.75 23.03125 17.394531 23.492188 17.699219 24.15625 C 19.910156 23.683594 21.8125 22.332031 23.042969 20.449219 C 23.050781 20.433594 23.0625 20.421875 23.070312 20.40625 C 23.988281 18.980469 24.527344 17.265625 24.527344 15.421875 C 24.527344 13.574219 23.988281 11.859375 23.070312 10.4375 C 23.0625 10.421875 23.050781 10.40625 23.042969 10.394531 C 21.503906 8.039062 18.921875 6.488281 16 6.488281 C 11.296875 6.488281 7.472656 10.496094 7.472656 15.421875 C 7.472656 17.402344 8.097656 19.226562 9.140625 20.710938 C 9.109375 20.710938 9.082031 20.714844 9.050781 20.714844 C 6.261719 20.714844 4 18.34375 4 15.421875 C 4 13.160156 5.351562 11.246094 7.25 10.488281 C 8.917969 7.214844 12.210938 5 16 5 Z M 16 8.472656 C 19.664062 8.472656 22.632812 11.582031 22.632812 15.421875 C 22.632812 19.257812 19.664062 22.367188 16 22.367188 C 12.335938 22.367188 9.367188 19.257812 9.367188 15.421875 C 9.367188 11.582031 12.335938 8.472656 16 8.472656 Z M 18.367188 13.339844 C 17.84375 13.339844 17.421875 14.007812 17.421875 14.828125 C 17.421875 15.652344 17.84375 16.320312 18.367188 16.320312 C 18.890625 16.320312 19.316406 15.652344 19.316406 14.828125 C 19.316406 14.007812 18.890625 13.339844 18.367188 13.339844 Z M 13.632812 13.339844 C 13.109375 13.339844 12.683594 14.007812 12.683594 14.828125 C 12.683594 15.652344 13.109375 16.320312 13.632812 16.320312 C 14.152344 16.320312 14.578125 15.652344 14.578125 14.828125 C 14.578125 14.007812 14.152344 13.339844 13.632812 13.339844 Z M 13.632812 13.339844 "/>
</clipPath>
</defs>
<g id="surface1">
<g clip-path="url(#clip1)" clip-rule="nonzero">
<g clip-path="url(#clip2)" clip-rule="evenodd">
<rect x="0" y="0" width="32" height="32" style="fill:rgb(60.784912%,60.784912%,60.784912%);fill-opacity:1;stroke:none;"/>
</g>
</g>
</g>
</svg>
