<?xml version="1.0" encoding="UTF-8"?>
<svg xmlns="http://www.w3.org/2000/svg" xmlns:xlink="http://www.w3.org/1999/xlink" width="32pt" height="32pt" viewBox="0 0 32 32" version="1.1">
<defs>
<clipPath id="clip1">
  <path d="M 16 32 C 24.835938 32 32 24.835938 32 16 C 32 7.164062 24.835938 0 16 0 C 7.164062 0 0 7.164062 0 16 C 0 24.835938 7.164062 32 16 32 Z M 16 32 "/>
</clipPath>
<clipPath id="clip2">
  <path d="M 3 6 L 29 6 L 29 26 L 3 26 Z M 3 6 "/>
</clipPath>
<clipPath id="clip3">
  <path d="M 7.480469 10.753906 C 10.328125 13.6875 13.058594 16.5 15.949219 19.480469 C 18.808594 16.519531 21.53125 13.703125 24.363281 10.769531 C 25.90625 12.351562 27.289062 13.792969 28.703125 15.210938 C 29.160156 15.667969 28.816406 15.917969 28.527344 16.203125 C 26.484375 18.230469 24.441406 20.257812 22.398438 22.28125 C 21.574219 23.101562 20.78125 23.957031 19.902344 24.714844 C 19.542969 25.023438 19 25.261719 18.527344 25.28125 C 16.816406 25.34375 15.097656 25.355469 13.386719 25.273438 C 12.863281 25.25 12.234375 25 11.863281 24.640625 C 9.019531 21.894531 6.246094 19.078125 3.410156 16.320312 C 2.847656 15.773438 2.875 15.457031 3.414062 14.929688 C 4.761719 13.609375 6.050781 12.230469 7.480469 10.753906 Z M 18.835938 6.023438 C 19.152344 6.027344 19.539062 6.167969 19.761719 6.378906 C 20.8125 7.382812 21.8125 8.433594 22.800781 9.433594 C 20.535156 11.761719 18.292969 14.066406 16.023438 16.402344 C 13.738281 14.011719 11.5 11.671875 9.214844 9.285156 C 10.078125 8.410156 11.15625 7.292969 12.269531 6.214844 C 12.433594 6.058594 12.753906 6.015625 13.003906 6.011719 C 14.945312 5.996094 16.890625 5.992188 18.835938 6.023438 Z M 18.835938 6.023438 "/>
</clipPath>
</defs>
<g id="surface1">
<g clip-path="url(#clip1)" clip-rule="evenodd">
<rect x="0" y="0" width="32" height="32" style="fill:rgb(100%,100%,100%);fill-opacity:1;stroke:none;"/>
</g>
<g clip-path="url(#clip2)" clip-rule="nonzero">
<g clip-path="url(#clip3)" clip-rule="nonzero">
<path style=" stroke:none;fill-rule:nonzero;fill:rgb(12.548828%,42.352295%,67.451477%);fill-opacity:1;" d="M -2 1 L 33.925781 1 L 33.925781 30.332031 L -2 30.332031 Z M -2 1 "/>
</g>
</g>
</g>
</svg>
