<?xml version="1.0" encoding="UTF-8"?>
<svg xmlns="http://www.w3.org/2000/svg" xmlns:xlink="http://www.w3.org/1999/xlink" width="32pt" height="32pt" viewBox="0 0 32 32" version="1.1">
<g id="surface1">
<path style=" stroke:none;fill-rule:evenodd;fill:rgb(100%,100%,100%);fill-opacity:1;" d="M 24.515625 6.621094 L 25.402344 6.621094 C 25.402344 6.78125 25.402344 6.898438 25.414062 7.015625 L 25.414062 10.660156 C 25.414062 11.441406 25.984375 12.03125 26.722656 12.03125 C 27.460938 12.03125 28.03125 11.441406 28.03125 10.660156 L 28.03125 5.386719 C 28.03125 4.5625 27.472656 4.003906 26.648438 4.003906 C 25.476562 3.996094 24.308594 4 23.140625 4.003906 C 22.558594 4.003906 21.976562 4.003906 21.394531 4.003906 C 20.589844 4.003906 19.992188 4.574219 20.003906 5.324219 C 20.003906 6.074219 20.601562 6.621094 21.40625 6.621094 Z M 6.628906 6.621094 L 6.628906 8.851562 C 6.628906 9.058594 6.628906 9.265625 6.628906 9.472656 C 6.632812 9.890625 6.636719 10.3125 6.628906 10.726562 C 6.605469 11.421875 6.089844 11.96875 5.4375 12.023438 C 4.773438 12.078125 4.195312 11.648438 4.042969 10.984375 C 4.011719 10.863281 4.011719 10.746094 4.011719 10.617188 L 4.011719 5.421875 C 4.011719 4.5625 4.558594 4.015625 5.417969 4.003906 L 10.636719 4.003906 C 11.441406 4.003906 12.03125 4.574219 12.03125 5.324219 C 12.03125 6.074219 11.441406 6.621094 10.625 6.621094 Z M 16.015625 14.550781 L 27.054688 14.550781 C 27.558594 14.550781 27.65625 14.648438 27.65625 15.140625 L 27.65625 16.289062 C 27.65625 16.671875 27.527344 16.800781 27.140625 16.800781 L 4.996094 16.800781 C 4.492188 16.800781 4.394531 16.707031 4.394531 16.210938 L 4.394531 15.085938 C 4.394531 14.667969 4.515625 14.550781 4.933594 14.550781 Z M 7.601562 24.734375 L 6.625 24.734375 C 6.625 24.582031 6.625 24.476562 6.613281 24.359375 C 6.613281 23.949219 6.617188 23.542969 6.617188 23.136719 C 6.621094 22.320312 6.621094 21.507812 6.613281 20.691406 C 6.605469 19.898438 6.046875 19.320312 5.308594 19.320312 C 4.558594 19.320312 4 19.910156 4 20.714844 L 4 25.964844 C 4 26.792969 4.558594 27.347656 5.382812 27.347656 C 6.554688 27.355469 7.722656 27.355469 8.886719 27.351562 L 8.890625 27.351562 C 9.472656 27.351562 10.054688 27.347656 10.632812 27.347656 C 11.4375 27.347656 12.027344 26.78125 12.027344 26.03125 C 12.027344 25.28125 11.4375 24.734375 10.625 24.734375 Z M 25.402344 24.734375 L 25.402344 24.390625 C 25.402344 23.980469 25.402344 23.570312 25.402344 23.15625 C 25.398438 22.335938 25.398438 21.515625 25.402344 20.691406 C 25.414062 19.769531 26.21875 19.140625 27.066406 19.375 C 27.632812 19.535156 28.019531 20.027344 28.019531 20.628906 C 28.03125 22.429688 28.03125 24.230469 28.019531 26.042969 C 28.019531 26.769531 27.472656 27.347656 26.734375 27.347656 C 24.921875 27.371094 23.109375 27.371094 21.296875 27.347656 C 20.558594 27.339844 19.992188 26.726562 20 26.019531 C 20.011719 25.300781 20.589844 24.746094 21.339844 24.734375 C 22.164062 24.726562 22.984375 24.730469 23.808594 24.730469 C 24.21875 24.730469 24.628906 24.734375 25.039062 24.734375 Z M 25.402344 24.734375 "/>
</g>
</svg>
