<svg width="16" height="17" viewBox="0 0 16 17" fill="none" xmlns="http://www.w3.org/2000/svg">
<path fill-rule="evenodd" clip-rule="evenodd" d="M13.7998 6.85904L10.2097 6.37562L8.66343 3.0905C8.49094 2.72406 8.05406 2.56683 7.68761 2.73931C7.53327 2.81197 7.40907 2.93616 7.33642 3.0905L5.7901 6.37562L2.20001 6.85904C1.79862 6.91309 1.51705 7.28229 1.5711 7.68368C1.59369 7.85142 1.6736 8.00618 1.79728 8.12171L4.43147 10.5823L3.75618 14.1474C3.6808 14.5453 3.94228 14.929 4.34022 15.0044C4.50817 15.0362 4.68196 15.0084 4.83156 14.9257L7.99993 13.1737L11.1683 14.9257C11.5227 15.1216 11.9689 14.9932 12.1649 14.6388C12.2476 14.4892 12.2755 14.3154 12.2437 14.1474L11.5684 10.5823L14.2026 8.12171C14.4985 7.84525 14.5143 7.38119 14.2379 7.08523C14.1223 6.96154 13.9676 6.88163 13.7998 6.85904Z" fill="#D90101"/>
</svg>
