<svg width="64" height="70" viewBox="0 0 64 70" fill="none" xmlns="http://www.w3.org/2000/svg">
<g clip-path="url(#clip0_3779_9124)">
<path d="M14.5166 48.5308H30.5876V53.9231H14.5166V48.5308ZM48.6517 31.4101H14.5166V36.8024H48.6517V31.4101ZM48.6517 15.2334H14.5166V20.6256H48.6517V15.2334ZM5.89226 60.9335V8.08865C5.89226 6.60166 7.10166 5.39226 8.58865 5.39226H55.3924C56.8789 5.39226 58.0883 6.60166 58.0883 8.08865V38.5554H63.4805V8.08865C63.4805 3.62872 59.8523 0 55.3924 0H8.58865C4.12872 0 0.5 3.62872 0.5 8.08865V60.9335C0.5 65.3934 4.12872 69.0216 8.58865 69.0216H33.688V63.6294H8.58865C7.10166 63.6294 5.89226 62.42 5.89226 60.9335ZM59.6869 69.0411L54.3173 63.6715C52.5006 64.7571 50.3783 65.3818 48.1128 65.3818C41.4227 65.3818 35.9799 59.939 35.9799 53.2494C35.9799 46.5592 41.4227 41.1164 48.1128 41.1164C54.8024 41.1164 60.2453 46.5592 60.2453 53.2494C60.2453 55.7245 59.4994 58.0285 58.222 59.9501L63.5 65.228L59.6869 69.0411ZM48.1128 59.9896C51.8295 59.9896 54.853 56.9661 54.853 53.2494C54.853 49.5327 51.8295 46.5087 48.1128 46.5087C44.3961 46.5087 41.3721 49.5327 41.3721 53.2494C41.3721 56.9661 44.3961 59.9896 48.1128 59.9896Z" fill="#595959"/>
<path fill-rule="evenodd" clip-rule="evenodd" d="M48.1128 59.9896C51.8295 59.9896 54.853 56.9661 54.853 53.2494C54.853 49.5327 51.8295 46.5087 48.1128 46.5087C44.3961 46.5087 41.3721 49.5327 41.3721 53.2494C41.3721 56.9661 44.3961 59.9896 48.1128 59.9896Z" fill="#303030"/>
</g>
<defs>
<clipPath id="clip0_3779_9124">
<rect width="63" height="70" fill="white" transform="translate(0.5)"/>
</clipPath>
</defs>
</svg>
