<?xml version="1.0" encoding="UTF-8"?>
<svg xmlns="http://www.w3.org/2000/svg" xmlns:xlink="http://www.w3.org/1999/xlink" width="32pt" height="32pt" viewBox="0 0 32 32" version="1.1">
<defs>
<clipPath id="clip1">
  <path d="M 16 32 C 24.835938 32 32 24.835938 32 16 C 32 7.164062 24.835938 0 16 0 C 7.164062 0 0 7.164062 0 16 C 0 24.835938 7.164062 32 16 32 Z M 16 32 "/>
</clipPath>
<clipPath id="clip2">
  <path d="M 6 5 L 27 5 L 27 27 L 6 27 Z M 6 5 "/>
</clipPath>
<clipPath id="clip3">
  <path d="M 8.894531 5.042969 C 9.523438 5.015625 10.15625 5.035156 10.789062 5.035156 L 12.820312 5.039062 L 14.605469 5.042969 L 16.386719 5.042969 C 17.621094 5.042969 18.855469 5.042969 20.089844 5.042969 C 21.207031 5.039062 22.328125 5.035156 23.445312 5.035156 C 23.664062 5.035156 23.890625 5.011719 24.109375 5.042969 C 24.492188 5.089844 24.867188 5.183594 25.191406 5.417969 C 25.511719 5.648438 25.75 5.941406 25.875 6.320312 C 25.976562 6.609375 26.042969 6.90625 26.042969 7.21875 C 26.039062 12.984375 26.046875 18.75 26.035156 24.511719 C 26.035156 25.3125 25.589844 26.109375 24.714844 26.425781 C 24.457031 26.519531 24.195312 26.578125 23.914062 26.578125 C 18.648438 26.574219 13.382812 26.578125 8.117188 26.570312 C 7.242188 26.570312 6.59375 26.148438 6.191406 25.363281 C 6.140625 25.265625 6.128906 25.148438 6.089844 25.046875 C 5.960938 24.714844 6.007812 24.371094 6.007812 24.03125 C 6.003906 21.292969 6.007812 18.554688 6.007812 15.816406 C 6.007812 12.894531 5.992188 9.972656 6.015625 7.050781 C 6.023438 6.257812 6.40625 5.628906 7.144531 5.269531 C 7.292969 5.199219 7.464844 5.179688 7.617188 5.121094 C 8.035156 4.957031 8.46875 5.058594 8.894531 5.042969 Z M 23.898438 5.753906 C 21.792969 5.761719 19.6875 5.757812 17.585938 5.757812 C 14.4375 5.757812 11.289062 5.757812 8.140625 5.757812 C 8.011719 5.757812 7.875 5.753906 7.753906 5.785156 C 7.195312 5.949219 6.730469 6.5 6.730469 7.15625 C 6.742188 10.554688 6.734375 13.953125 6.730469 17.351562 C 6.730469 19.738281 6.730469 22.125 6.726562 24.507812 C 6.726562 24.699219 6.742188 24.878906 6.835938 25.042969 C 7.144531 25.570312 7.570312 25.871094 8.21875 25.867188 C 11.230469 25.855469 14.246094 25.863281 17.257812 25.863281 C 19.488281 25.863281 21.71875 25.863281 23.949219 25.863281 C 24.226562 25.863281 24.480469 25.804688 24.707031 25.644531 C 25.117188 25.351562 25.316406 24.964844 25.316406 24.441406 C 25.304688 21.5625 25.308594 18.683594 25.308594 15.800781 L 25.308594 15.613281 C 25.308594 12.777344 25.308594 9.9375 25.3125 7.101562 C 25.3125 6.902344 25.292969 6.707031 25.195312 6.535156 C 24.914062 6.027344 24.503906 5.75 23.898438 5.753906 Z M 21.59375 22.578125 C 21.691406 22.574219 21.707031 22.625 21.707031 22.703125 C 21.703125 22.910156 21.707031 23.113281 21.707031 23.320312 L 21.703125 23.320312 C 21.703125 23.515625 21.714844 23.714844 21.699219 23.90625 C 21.675781 24.179688 21.582031 24.417969 21.320312 24.558594 C 21.085938 24.679688 20.585938 24.628906 20.410156 24.441406 C 20.332031 24.355469 20.253906 24.238281 20.246094 24.128906 C 20.214844 23.644531 20.210938 23.160156 20.199219 22.675781 C 20.199219 22.59375 20.25 22.582031 20.316406 22.578125 C 20.40625 22.574219 20.429688 22.625 20.429688 22.703125 C 20.425781 23.085938 20.417969 23.464844 20.433594 23.847656 C 20.4375 24.042969 20.476562 24.242188 20.660156 24.363281 C 20.988281 24.578125 21.398438 24.40625 21.445312 24.027344 C 21.5 23.59375 21.488281 23.152344 21.496094 22.714844 C 21.5 22.636719 21.5 22.582031 21.59375 22.578125 Z M 19.628906 23.003906 C 19.707031 23.140625 19.742188 23.3125 19.746094 23.609375 C 19.765625 23.910156 19.675781 24.195312 19.429688 24.421875 C 19.304688 24.539062 19.15625 24.605469 18.980469 24.609375 C 18.722656 24.621094 18.464844 24.625 18.253906 24.445312 C 18.105469 24.320312 18.019531 24.160156 17.960938 23.976562 C 17.871094 23.699219 17.886719 23.433594 17.96875 23.164062 C 18.046875 22.910156 18.199219 22.714844 18.441406 22.609375 C 18.917969 22.40625 19.367188 22.558594 19.628906 23.003906 Z M 16.433594 22.578125 C 16.65625 22.589844 16.878906 22.585938 17.097656 22.597656 C 17.316406 22.613281 17.484375 22.773438 17.53125 22.988281 C 17.570312 23.148438 17.46875 23.363281 17.304688 23.46875 C 17.292969 23.480469 17.277344 23.488281 17.261719 23.496094 C 17.121094 23.582031 17.136719 23.570312 17.230469 23.703125 C 17.328125 23.839844 17.390625 23.996094 17.460938 24.144531 C 17.507812 24.242188 17.550781 24.34375 17.585938 24.445312 C 17.601562 24.492188 17.613281 24.570312 17.589844 24.59375 C 17.535156 24.644531 17.394531 24.59375 17.367188 24.527344 C 17.289062 24.335938 17.214844 24.140625 17.132812 23.949219 C 17.039062 23.726562 16.878906 23.644531 16.640625 23.683594 C 16.558594 23.695312 16.539062 23.75 16.539062 23.828125 C 16.539062 24.039062 16.535156 24.253906 16.539062 24.464844 C 16.542969 24.558594 16.515625 24.605469 16.414062 24.605469 C 16.308594 24.605469 16.304688 24.542969 16.304688 24.464844 C 16.304688 24.171875 16.304688 23.878906 16.304688 23.589844 C 16.304688 23.296875 16.308594 23.003906 16.304688 22.710938 C 16.300781 22.613281 16.335938 22.574219 16.433594 22.578125 Z M 15.578125 22.613281 C 15.621094 22.617188 15.671875 22.65625 15.699219 22.691406 C 15.710938 22.707031 15.695312 22.765625 15.675781 22.792969 C 15.664062 22.808594 15.617188 22.8125 15.589844 22.804688 C 15.355469 22.726562 15.121094 22.722656 14.886719 22.785156 C 14.644531 22.847656 14.480469 23.011719 14.382812 23.238281 C 14.207031 23.644531 14.351562 24.070312 14.675781 24.292969 C 14.914062 24.460938 15.183594 24.4375 15.445312 24.390625 C 15.488281 24.382812 15.542969 24.296875 15.546875 24.242188 C 15.5625 24.097656 15.554688 23.949219 15.550781 23.804688 C 15.550781 23.722656 15.511719 23.679688 15.425781 23.683594 C 15.347656 23.683594 15.265625 23.6875 15.191406 23.675781 C 15.15625 23.671875 15.128906 23.628906 15.101562 23.605469 C 15.128906 23.570312 15.15625 23.515625 15.183594 23.511719 C 15.347656 23.503906 15.511719 23.507812 15.675781 23.507812 C 15.742188 23.507812 15.765625 23.542969 15.761719 23.613281 C 15.757812 23.746094 15.761719 23.878906 15.761719 24.015625 L 15.757812 24.015625 C 15.757812 24.144531 15.761719 24.273438 15.753906 24.402344 C 15.75 24.445312 15.722656 24.511719 15.691406 24.519531 C 15.246094 24.648438 14.808594 24.664062 14.410156 24.375 C 14.226562 24.242188 14.117188 24.046875 14.101562 23.8125 C 14.097656 23.675781 14.085938 23.535156 14.101562 23.398438 C 14.136719 23.039062 14.316406 22.789062 14.664062 22.660156 C 14.964844 22.546875 15.269531 22.578125 15.578125 22.613281 Z M 9.007812 22.695312 C 9.132812 22.882812 9.253906 23.070312 9.375 23.261719 C 9.433594 23.355469 9.503906 23.363281 9.5625 23.269531 C 9.683594 23.082031 9.808594 22.898438 9.914062 22.707031 C 9.984375 22.574219 10.082031 22.5625 10.234375 22.601562 C 10.140625 22.742188 10.054688 22.871094 9.96875 22.996094 C 9.867188 23.148438 9.765625 23.304688 9.660156 23.449219 C 9.609375 23.519531 9.613281 23.574219 9.660156 23.640625 C 9.867188 23.929688 10.066406 24.222656 10.269531 24.515625 C 10.28125 24.53125 10.285156 24.550781 10.292969 24.570312 C 10.140625 24.636719 10.054688 24.617188 9.972656 24.488281 C 9.832031 24.265625 9.695312 24.042969 9.550781 23.820312 C 9.460938 23.671875 9.433594 23.671875 9.34375 23.816406 C 9.199219 24.042969 9.054688 24.265625 8.917969 24.496094 C 8.84375 24.617188 8.742188 24.617188 8.617188 24.589844 C 8.628906 24.566406 8.632812 24.542969 8.644531 24.523438 C 8.839844 24.238281 9.035156 23.949219 9.234375 23.667969 C 9.292969 23.578125 9.296875 23.503906 9.234375 23.417969 C 9.046875 23.152344 8.867188 22.878906 8.683594 22.609375 C 8.835938 22.546875 8.925781 22.570312 9.007812 22.695312 Z M 10.960938 22.578125 C 11.0625 22.582031 11.066406 22.644531 11.066406 22.722656 C 11.0625 23.308594 11.0625 23.894531 11.066406 24.480469 C 11.066406 24.5625 11.046875 24.605469 10.957031 24.605469 C 10.875 24.605469 10.835938 24.574219 10.835938 24.488281 C 10.839844 24.191406 10.839844 23.894531 10.839844 23.597656 C 10.839844 23.304688 10.839844 23.011719 10.835938 22.71875 C 10.835938 22.628906 10.859375 22.574219 10.960938 22.578125 Z M 22.40625 22.578125 C 22.605469 22.589844 22.808594 22.574219 23.003906 22.601562 C 23.375 22.652344 23.464844 22.820312 23.488281 23.128906 C 23.511719 23.421875 23.34375 23.640625 23.058594 23.699219 C 22.929688 23.726562 22.796875 23.742188 22.664062 23.75 C 22.566406 23.757812 22.53125 23.796875 22.53125 23.890625 C 22.53125 24.085938 22.527344 24.285156 22.53125 24.480469 C 22.535156 24.570312 22.503906 24.605469 22.410156 24.605469 C 22.316406 24.605469 22.28125 24.574219 22.285156 24.480469 C 22.289062 24.183594 22.285156 23.890625 22.285156 23.59375 C 22.285156 23.296875 22.289062 23 22.285156 22.703125 C 22.28125 22.613281 22.308594 22.574219 22.40625 22.578125 Z M 11.917969 22.578125 C 12.132812 22.589844 12.351562 22.578125 12.566406 22.605469 C 12.730469 22.625 12.863281 22.703125 12.953125 22.863281 C 13.066406 23.0625 12.957031 23.328125 12.777344 23.4375 C 12.644531 23.519531 12.644531 23.535156 12.777344 23.601562 C 12.972656 23.699219 13.050781 23.859375 13.035156 24.070312 C 13.019531 24.300781 12.921875 24.460938 12.691406 24.542969 C 12.410156 24.640625 12.128906 24.574219 11.847656 24.597656 C 11.828125 24.597656 11.78125 24.527344 11.78125 24.488281 C 11.777344 24.191406 11.777344 23.894531 11.777344 23.597656 L 11.78125 23.597656 C 11.78125 23.304688 11.785156 23.011719 11.78125 22.71875 C 11.777344 22.617188 11.8125 22.574219 11.917969 22.578125 Z M 18.6875 22.714844 C 18.460938 22.773438 18.300781 22.933594 18.226562 23.160156 C 18.144531 23.425781 18.136719 23.699219 18.21875 23.972656 C 18.285156 24.191406 18.421875 24.332031 18.625 24.414062 C 18.859375 24.507812 19.070312 24.445312 19.25 24.285156 C 19.464844 24.097656 19.5 23.84375 19.480469 23.566406 C 19.496094 23.347656 19.46875 23.132812 19.316406 22.949219 C 19.152344 22.75 18.941406 22.648438 18.6875 22.714844 Z M 12.125 23.632812 C 12.09375 23.628906 12.042969 23.695312 12.035156 23.734375 C 12.019531 23.820312 12.03125 23.910156 12.03125 23.996094 L 12.027344 23.996094 C 12.027344 24.101562 12.023438 24.207031 12.03125 24.308594 C 12.035156 24.34375 12.078125 24.402344 12.105469 24.40625 C 12.28125 24.417969 12.460938 24.445312 12.617188 24.335938 C 12.734375 24.257812 12.828125 24.144531 12.8125 23.996094 C 12.792969 23.84375 12.71875 23.710938 12.554688 23.675781 C 12.414062 23.648438 12.269531 23.636719 12.125 23.632812 Z M 22.605469 22.746094 C 22.574219 22.753906 22.539062 22.816406 22.535156 22.859375 C 22.523438 22.953125 22.53125 23.050781 22.53125 23.148438 L 22.53125 23.273438 C 22.53125 23.59375 22.492188 23.605469 22.871094 23.574219 C 23.179688 23.546875 23.367188 23.179688 23.195312 22.925781 C 23.082031 22.757812 22.765625 22.699219 22.605469 22.746094 Z M 16.539062 22.894531 C 16.539062 23.019531 16.539062 23.144531 16.539062 23.269531 C 16.539062 23.496094 16.550781 23.507812 16.789062 23.535156 C 16.894531 23.5 17.003906 23.476562 17.101562 23.425781 C 17.347656 23.292969 17.371094 22.980469 17.128906 22.839844 C 17.007812 22.765625 16.847656 22.757812 16.699219 22.734375 C 16.59375 22.71875 16.539062 22.785156 16.539062 22.894531 Z M 12.15625 22.734375 C 12.070312 22.722656 12.027344 22.78125 12.027344 22.867188 C 12.027344 22.945312 12.027344 23.023438 12.027344 23.101562 L 12.03125 23.101562 L 12.027344 23.261719 C 12.027344 23.289062 12.027344 23.316406 12.035156 23.339844 C 12.042969 23.382812 12.089844 23.445312 12.125 23.449219 C 12.246094 23.453125 12.378906 23.457031 12.496094 23.421875 C 12.632812 23.378906 12.738281 23.289062 12.753906 23.121094 C 12.769531 22.960938 12.683594 22.855469 12.554688 22.804688 C 12.433594 22.757812 12.292969 22.75 12.15625 22.734375 Z M 13.230469 6.730469 C 13.734375 7.328125 14.175781 7.964844 14.535156 8.65625 C 14.707031 8.988281 14.875 9.324219 15.023438 9.671875 C 15.152344 9.976562 15.257812 10.292969 15.355469 10.609375 C 15.460938 10.945312 15.554688 11.285156 15.636719 11.628906 C 15.683594 11.824219 15.710938 12.023438 15.730469 12.222656 C 15.742188 12.34375 15.792969 12.398438 15.910156 12.398438 L 15.945312 12.398438 C 16.265625 12.390625 16.253906 12.390625 16.320312 12.078125 C 16.398438 11.699219 16.492188 11.324219 16.597656 10.953125 C 16.695312 10.609375 16.792969 10.261719 16.929688 9.933594 C 17.109375 9.484375 17.3125 9.042969 17.539062 8.617188 C 17.902344 7.925781 18.34375 7.28125 18.847656 6.683594 C 18.902344 6.617188 18.949219 6.601562 19.03125 6.628906 C 19.519531 6.804688 19.976562 7.050781 20.40625 7.335938 C 20.976562 7.714844 21.496094 8.15625 21.953125 8.664062 C 22.382812 9.148438 22.765625 9.664062 23.066406 10.238281 C 23.195312 10.484375 23.308594 10.738281 23.425781 10.992188 C 23.476562 11.097656 23.476562 11.1875 23.367188 11.265625 C 22.945312 11.570312 22.539062 11.898438 22.097656 12.175781 C 21.648438 12.457031 21.175781 12.699219 20.699219 12.929688 C 20.355469 13.09375 19.988281 13.210938 19.625 13.335938 C 19.332031 13.4375 19.035156 13.53125 18.730469 13.609375 C 18.449219 13.683594 18.164062 13.734375 17.875 13.78125 C 17.722656 13.808594 17.699219 13.820312 17.6875 13.976562 C 17.6875 13.996094 17.683594 14.015625 17.683594 14.039062 C 17.671875 14.320312 17.699219 14.328125 17.976562 14.371094 C 18.269531 14.414062 18.5625 14.484375 18.855469 14.558594 C 19.15625 14.632812 19.460938 14.714844 19.753906 14.820312 C 20.097656 14.941406 20.4375 15.070312 20.761719 15.226562 C 21.210938 15.445312 21.660156 15.671875 22.082031 15.941406 C 22.539062 16.230469 22.964844 16.574219 23.402344 16.890625 C 23.496094 16.960938 23.464844 17.042969 23.429688 17.117188 C 23.277344 17.429688 23.132812 17.742188 22.964844 18.042969 C 22.484375 18.898438 21.851562 19.628906 21.097656 20.253906 C 20.582031 20.683594 20.019531 21.042969 19.410156 21.328125 C 19.269531 21.394531 19.117188 21.445312 18.957031 21.507812 C 18.929688 21.484375 18.890625 21.46875 18.867188 21.4375 C 18.308594 20.769531 17.8125 20.054688 17.433594 19.269531 C 17.210938 18.8125 17.003906 18.347656 16.832031 17.871094 C 16.660156 17.402344 16.535156 16.914062 16.398438 16.429688 C 16.351562 16.253906 16.332031 16.070312 16.308594 15.886719 C 16.292969 15.78125 16.242188 15.730469 16.136719 15.722656 L 16.050781 15.722656 C 15.757812 15.722656 15.769531 15.726562 15.722656 16.015625 C 15.679688 16.304688 15.605469 16.589844 15.535156 16.871094 C 15.460938 17.160156 15.386719 17.453125 15.28125 17.730469 C 15.121094 18.15625 14.957031 18.582031 14.761719 18.988281 C 14.554688 19.414062 14.324219 19.832031 14.066406 20.230469 C 13.792969 20.648438 13.476562 21.039062 13.171875 21.4375 C 13.144531 21.472656 13.054688 21.492188 13.011719 21.476562 C 12.457031 21.257812 11.941406 20.964844 11.453125 20.628906 C 10.871094 20.230469 10.363281 19.753906 9.90625 19.222656 C 9.46875 18.707031 9.09375 18.140625 8.804688 17.523438 C 8.746094 17.398438 8.683594 17.269531 8.621094 17.140625 C 8.566406 17.035156 8.566406 16.949219 8.671875 16.859375 C 9.140625 16.464844 9.636719 16.105469 10.167969 15.808594 C 10.597656 15.566406 11.03125 15.332031 11.480469 15.136719 C 11.917969 14.949219 12.375 14.796875 12.835938 14.660156 C 13.21875 14.542969 13.617188 14.464844 14.011719 14.375 C 14.058594 14.363281 14.109375 14.363281 14.160156 14.359375 C 14.199219 14.355469 14.242188 14.359375 14.273438 14.34375 C 14.445312 14.25 14.359375 14.085938 14.371094 13.949219 C 14.378906 13.855469 14.316406 13.804688 14.21875 13.785156 C 13.792969 13.695312 13.367188 13.613281 12.953125 13.496094 C 12.539062 13.382812 12.125 13.261719 11.734375 13.089844 C 11.199219 12.859375 10.671875 12.605469 10.167969 12.308594 C 9.679688 12.019531 9.222656 11.667969 8.757812 11.335938 C 8.535156 11.179688 8.539062 11.144531 8.683594 10.828125 C 8.964844 10.214844 9.304688 9.640625 9.722656 9.109375 C 10.144531 8.566406 10.636719 8.089844 11.1875 7.671875 C 11.667969 7.308594 12.179688 6.996094 12.726562 6.742188 C 12.789062 6.714844 12.847656 6.683594 12.910156 6.660156 C 13.082031 6.582031 13.109375 6.585938 13.230469 6.730469 Z M 17.863281 16.023438 C 17.878906 16.082031 17.902344 16.148438 17.917969 16.21875 C 18.003906 16.539062 18.070312 16.867188 18.179688 17.179688 C 18.328125 17.589844 18.492188 17.996094 18.6875 18.390625 C 18.871094 18.761719 19.097656 19.113281 19.304688 19.476562 C 19.355469 19.5625 19.417969 19.59375 19.519531 19.523438 C 20.304688 19 20.964844 18.359375 21.460938 17.558594 C 21.554688 17.402344 21.550781 17.386719 21.402344 17.292969 C 20.933594 16.996094 20.449219 16.730469 19.933594 16.515625 C 19.308594 16.257812 18.664062 16.066406 18.003906 15.925781 C 17.929688 15.910156 17.867188 15.914062 17.863281 16.023438 Z M 14.046875 15.921875 C 13.765625 15.988281 13.453125 16.050781 13.152344 16.148438 C 12.765625 16.273438 12.386719 16.425781 12.007812 16.574219 C 11.507812 16.765625 11.046875 17.035156 10.59375 17.320312 C 10.503906 17.378906 10.488281 17.4375 10.554688 17.527344 C 10.71875 17.742188 10.867188 17.972656 11.035156 18.179688 C 11.464844 18.710938 11.96875 19.15625 12.546875 19.523438 C 12.644531 19.585938 12.703125 19.570312 12.757812 19.46875 C 12.816406 19.367188 12.882812 19.273438 12.945312 19.171875 C 13.222656 18.699219 13.476562 18.210938 13.667969 17.695312 C 13.789062 17.363281 13.90625 17.027344 14.011719 16.691406 C 14.078125 16.480469 14.121094 16.265625 14.171875 16.050781 C 14.1875 15.976562 14.175781 15.914062 14.046875 15.921875 Z M 19.273438 8.667969 C 19.109375 8.945312 18.929688 9.210938 18.789062 9.5 C 18.585938 9.914062 18.402344 10.335938 18.234375 10.769531 C 18.117188 11.070312 18.042969 11.386719 17.957031 11.699219 C 17.917969 11.839844 17.898438 11.984375 17.863281 12.15625 C 17.859375 12.222656 17.902344 12.242188 18.019531 12.210938 C 18.1875 12.167969 18.359375 12.132812 18.527344 12.082031 C 18.792969 12.007812 19.066406 11.9375 19.324219 11.835938 C 19.722656 11.679688 20.117188 11.511719 20.5 11.320312 C 20.824219 11.15625 21.132812 10.960938 21.441406 10.773438 C 21.519531 10.730469 21.554688 10.667969 21.496094 10.578125 C 21.242188 10.1875 20.96875 9.808594 20.628906 9.492188 C 20.289062 9.183594 19.921875 8.90625 19.566406 8.617188 C 19.417969 8.5 19.371094 8.507812 19.273438 8.667969 Z M 12.53125 8.582031 C 12.324219 8.734375 12.113281 8.886719 11.914062 9.046875 C 11.386719 9.472656 10.945312 9.976562 10.570312 10.542969 C 10.488281 10.667969 10.492188 10.707031 10.613281 10.785156 C 10.835938 10.921875 11.058594 11.0625 11.289062 11.1875 C 11.792969 11.464844 12.3125 11.707031 12.867188 11.875 C 13.253906 11.996094 13.648438 12.105469 14.039062 12.21875 C 14.117188 12.238281 14.171875 12.222656 14.179688 12.105469 C 14.101562 11.804688 14.035156 11.476562 13.933594 11.160156 C 13.8125 10.785156 13.660156 10.417969 13.515625 10.050781 C 13.3125 9.546875 13.046875 9.078125 12.753906 8.621094 C 12.6875 8.519531 12.617188 8.519531 12.53125 8.582031 Z M 12.53125 8.582031 "/>
</clipPath>
</defs>
<g id="surface1">
<g clip-path="url(#clip1)" clip-rule="evenodd">
<rect x="0" y="0" width="32" height="32" style="fill:rgb(100%,100%,100%);fill-opacity:1;stroke:none;"/>
</g>
<g clip-path="url(#clip2)" clip-rule="nonzero">
<g clip-path="url(#clip3)" clip-rule="nonzero">
<path style=" stroke:none;fill-rule:nonzero;fill:rgb(0%,38.430786%,69.020081%);fill-opacity:1;" d="M 1 0.0234375 L 31.042969 0.0234375 L 31.042969 31.578125 L 1 31.578125 Z M 1 0.0234375 "/>
</g>
</g>
</g>
</svg>
