<?xml version="1.0" encoding="UTF-8"?>
<svg xmlns="http://www.w3.org/2000/svg" xmlns:xlink="http://www.w3.org/1999/xlink" width="32pt" height="32pt" viewBox="0 0 32 32" version="1.1">
<defs>
<clipPath id="clip1">
  <path d="M 6 5 L 26 5 L 26 28 L 6 28 Z M 6 5 "/>
</clipPath>
<clipPath id="clip2">
  <path d="M 23.628906 21.089844 L 26 23.410156 L 26 24.542969 L 6 24.542969 L 6 23.410156 L 8.371094 21.089844 L 8.371094 14.773438 C 8.371094 13.042969 8.921875 11.496094 10.023438 10.128906 C 11.125 8.761719 12.519531 7.878906 14.210938 7.484375 L 14.210938 6.726562 C 14.210938 6.261719 14.382812 5.855469 14.734375 5.511719 C 15.082031 5.171875 15.496094 5 15.972656 5 C 16.449219 5 16.863281 5.171875 17.210938 5.511719 C 17.5625 5.855469 17.734375 6.261719 17.734375 6.726562 L 17.734375 7.484375 C 19.425781 7.878906 20.832031 8.761719 21.949219 10.128906 C 23.070312 11.496094 23.628906 13.042969 23.628906 14.773438 Z M 15.972656 28 C 15.347656 28 14.804688 27.773438 14.347656 27.324219 C 13.886719 26.875 13.660156 26.34375 13.660156 25.730469 L 18.339844 25.730469 C 18.339844 26.34375 18.101562 26.875 17.625 27.324219 C 17.148438 27.773438 16.597656 28 15.972656 28 Z M 15.972656 28 "/>
</clipPath>
</defs>
<g id="surface1">
<g clip-path="url(#clip1)" clip-rule="nonzero">
<g clip-path="url(#clip2)" clip-rule="evenodd">
<path style=" stroke:none;fill-rule:nonzero;fill:rgb(60.784912%,60.784912%,60.784912%);fill-opacity:1;" d="M 1 0 L 31 0 L 31 33 L 1 33 Z M 1 0 "/>
</g>
</g>
</g>
</svg>
