<?xml version="1.0" encoding="UTF-8"?>
<svg xmlns="http://www.w3.org/2000/svg" xmlns:xlink="http://www.w3.org/1999/xlink" width="32pt" height="32pt" viewBox="0 0 32 32" version="1.1">
<defs>
<clipPath id="clip1">
  <path d="M 16 32 C 24.835938 32 32 24.835938 32 16 C 32 7.164062 24.835938 0 16 0 C 7.164062 0 0 7.164062 0 16 C 0 24.835938 7.164062 32 16 32 Z M 16 32 "/>
</clipPath>
<clipPath id="clip2">
  <path d="M 4 4 L 28 4 L 28 28 L 4 28 Z M 4 4 "/>
</clipPath>
<clipPath id="clip3">
  <path d="M 15.84375 14.28125 C 14.691406 14.105469 13.816406 14.191406 13.886719 15.789062 C 13.941406 16.984375 14.007812 17.800781 15.550781 17.707031 C 16.695312 17.636719 17.609375 17.6875 17.503906 16.09375 C 17.425781 14.953125 17.492188 13.90625 15.84375 14.28125 M 19.847656 19.941406 L 11.714844 19.941406 L 11.714844 11.765625 C 13.160156 11.765625 14.582031 11.714844 16.003906 11.785156 C 17.046875 11.835938 17.464844 11.515625 17.503906 10.402344 C 17.632812 6.742188 17.023438 6.238281 13.449219 7.277344 C 9.070312 8.546875 6.183594 12.890625 6.949219 17.21875 C 7.804688 22.039062 11.925781 25.148438 16.742188 24.8125 C 20.824219 24.53125 24.660156 20.878906 24.902344 16.542969 C 24.984375 15.039062 24.539062 13.507812 24.335938 11.96875 C 26.945312 11.351562 27.300781 11.578125 27.757812 14.296875 C 28.804688 20.492188 23.886719 26.925781 17.574219 27.628906 C 10.574219 28.410156 4.40625 23.5625 4.023438 16.984375 C 3.550781 8.902344 10.210938 2.835938 18.039062 4.191406 C 19.265625 4.402344 19.9375 4.765625 19.894531 6.285156 C 19.761719 10.769531 19.847656 15.257812 19.847656 19.941406 "/>
</clipPath>
</defs>
<g id="surface1">
<g clip-path="url(#clip1)" clip-rule="evenodd">
<rect x="0" y="0" width="32" height="32" style="fill:rgb(100%,100%,100%);fill-opacity:1;stroke:none;"/>
</g>
<g clip-path="url(#clip2)" clip-rule="nonzero">
<g clip-path="url(#clip3)" clip-rule="nonzero">
<rect x="0" y="0" width="32" height="32" style="fill:rgb(0%,47.058105%,26.274109%);fill-opacity:1;stroke:none;"/>
</g>
</g>
</g>
</svg>
