<svg width="26" height="26" viewBox="0 0 26 26" fill="none" xmlns="http://www.w3.org/2000/svg">
<path fill-rule="evenodd" clip-rule="evenodd" d="M21.304 12.2714C21.9821 11.6379 21.6195 10.5012 20.6999 10.3774L15.6641 9.69927L13.4953 5.09169C13.0989 4.24965 11.9011 4.24965 11.5047 5.09169L9.33594 9.69927L4.30012 10.3774C3.3805 10.5012 3.01793 11.638 3.69603 12.2714L7.39062 15.7225L6.44353 20.7225C6.27019 21.6376 7.24154 22.3406 8.0566 21.8899L12.5 19.4329L16.9434 21.8899C17.7585 22.3406 18.7298 21.6376 18.5565 20.7225L17.6094 15.7225L21.304 12.2714Z" fill="black" fill-opacity="0.297389"/>
<g filter="url(#filter0_d_105_7723)">
<path fill-rule="evenodd" clip-rule="evenodd" d="M13.5916 4.52609C13.3028 4.05288 12.6978 3.86352 12.1847 4.105C11.9532 4.21398 11.7669 4.40027 11.658 4.63179L9.33848 9.55946L3.95333 10.2846L3.83541 10.307C3.29718 10.4397 2.9343 10.9596 3.00997 11.5215C3.04385 11.7732 3.16372 12.0053 3.34924 12.1786L7.30053 15.8696L6.28759 21.2172L6.27162 21.3361C6.22773 21.8887 6.60654 22.3971 7.16364 22.5027C7.41558 22.5504 7.67627 22.5086 7.90066 22.3845L12.6532 19.7566L17.4058 22.3845L17.5138 22.4369C18.025 22.6513 18.6263 22.4504 18.9007 21.9542C19.0248 21.7298 19.0666 21.4691 19.0188 21.2172L18.0059 15.8696L21.9572 12.1786L22.0459 12.0856C22.4023 11.6657 22.3952 11.0361 22.0101 10.6239C21.8368 10.4383 21.6047 10.3185 21.3531 10.2846L15.9679 9.55946L13.6485 4.63179L13.5916 4.52609ZM12.6532 6.03839L14.9585 10.9371L20.3172 11.6584L16.3784 15.3372L17.3862 20.6594L12.6532 18.0425L7.91921 20.6594L8.92804 15.3372L4.98821 11.6584L10.3479 10.9371L12.6532 6.03839Z" fill="url(#paint0_linear_105_7723)"/>
</g>
<defs>
<filter id="filter0_d_105_7723" x="0" y="1" width="25.3063" height="24.5221" filterUnits="userSpaceOnUse" color-interpolation-filters="sRGB">
<feFlood flood-opacity="0" result="BackgroundImageFix"/>
<feColorMatrix in="SourceAlpha" type="matrix" values="0 0 0 0 0 0 0 0 0 0 0 0 0 0 0 0 0 0 127 0" result="hardAlpha"/>
<feOffset/>
<feGaussianBlur stdDeviation="1.5"/>
<feColorMatrix type="matrix" values="0 0 0 0 0 0 0 0 0 0 0 0 0 0 0 0 0 0 0.435451 0"/>
<feBlend mode="normal" in2="BackgroundImageFix" result="effect1_dropShadow_105_7723"/>
<feBlend mode="normal" in="SourceGraphic" in2="effect1_dropShadow_105_7723" result="shape"/>
</filter>
<linearGradient id="paint0_linear_105_7723" x1="-13.137" y1="15.9759" x2="14.3836" y2="45.4173" gradientUnits="userSpaceOnUse">
<stop stop-color="#E0EDF8"/>
<stop offset="1" stop-color="#657482"/>
</linearGradient>
</defs>
</svg>
