<?xml version="1.0" encoding="UTF-8"?>
<svg xmlns="http://www.w3.org/2000/svg" xmlns:xlink="http://www.w3.org/1999/xlink" width="96pt" height="32pt" viewBox="0 0 96 32" version="1.1">
<defs>
<clipPath id="clip1">
  <path d="M 62 2 L 81 2 L 81 20 L 62 20 Z M 62 2 "/>
</clipPath>
<clipPath id="clip2">
  <path d="M 68.8125 2 C 67.53125 2.257812 67.066406 2.84375 67.105469 3.679688 C 67.167969 4.855469 68.5 7.097656 69.085938 8.09375 C 70.164062 9.824219 71.433594 11.425781 72.867188 12.875 C 74.015625 14.007812 74.734375 14.265625 75.96875 12.574219 C 77.070312 11.183594 78.027344 9.6875 78.824219 8.101562 C 79.210938 7.289062 79.542969 6.453125 79.828125 5.601562 C 80.261719 4.605469 79.898438 3.441406 78.976562 2.863281 C 79.902344 3.316406 80.492188 4.25 80.503906 5.28125 C 80.503906 6.226562 80.351562 7.167969 80.050781 8.066406 C 79.515625 10.019531 78.792969 11.917969 77.890625 13.730469 C 77.191406 15.160156 76.390625 16.535156 75.488281 17.847656 C 73.585938 20.472656 71.753906 19.625 69.609375 17.847656 C 68.179688 16.644531 66.90625 15.265625 65.816406 13.746094 C 64.585938 11.960938 63.539062 10.058594 62.699219 8.058594 C 61.6875 5.644531 62.472656 4.390625 63.722656 3.625 C 65.296875 2.753906 67.027344 2.203125 68.8125 2 Z M 68.8125 2 "/>
</clipPath>
<linearGradient id="linear0" gradientUnits="userSpaceOnUse" x1="-0.352734" y1="0" x2="1.148599" y2="0" gradientTransform="matrix(-14.192981,-9.934418,-9.934418,14.192981,88.10434,-1.04015)">
<stop offset="0" style="stop-color:rgb(0%,40.783691%,25.097656%);stop-opacity:1;"/>
<stop offset="0.125" style="stop-color:rgb(0%,40.783691%,25.097656%);stop-opacity:1;"/>
<stop offset="0.1875" style="stop-color:rgb(0%,40.783691%,25.097656%);stop-opacity:1;"/>
<stop offset="0.21875" style="stop-color:rgb(0%,40.783691%,25.097656%);stop-opacity:1;"/>
<stop offset="0.234375" style="stop-color:rgb(0%,40.783691%,25.097656%);stop-opacity:1;"/>
<stop offset="0.242188" style="stop-color:rgb(0%,40.879822%,25.140381%);stop-opacity:1;"/>
<stop offset="0.25" style="stop-color:rgb(0%,41.078186%,25.228882%);stop-opacity:1;"/>
<stop offset="0.257812" style="stop-color:rgb(0%,41.285706%,25.320435%);stop-opacity:1;"/>
<stop offset="0.265625" style="stop-color:rgb(0%,41.493225%,25.411987%);stop-opacity:1;"/>
<stop offset="0.273438" style="stop-color:rgb(0%,41.699219%,25.50354%);stop-opacity:1;"/>
<stop offset="0.28125" style="stop-color:rgb(0%,41.906738%,25.596619%);stop-opacity:1;"/>
<stop offset="0.289062" style="stop-color:rgb(0%,42.114258%,25.688171%);stop-opacity:1;"/>
<stop offset="0.296875" style="stop-color:rgb(0%,42.320251%,25.779724%);stop-opacity:1;"/>
<stop offset="0.304688" style="stop-color:rgb(0%,42.527771%,25.872803%);stop-opacity:1;"/>
<stop offset="0.3125" style="stop-color:rgb(0%,42.733765%,25.964355%);stop-opacity:1;"/>
<stop offset="0.320312" style="stop-color:rgb(0%,42.941284%,26.055908%);stop-opacity:1;"/>
<stop offset="0.328125" style="stop-color:rgb(0%,43.148804%,26.147461%);stop-opacity:1;"/>
<stop offset="0.335938" style="stop-color:rgb(0%,43.354797%,26.24054%);stop-opacity:1;"/>
<stop offset="0.34375" style="stop-color:rgb(0%,43.562317%,26.332092%);stop-opacity:1;"/>
<stop offset="0.351562" style="stop-color:rgb(0%,43.769836%,26.423645%);stop-opacity:1;"/>
<stop offset="0.359375" style="stop-color:rgb(0%,43.97583%,26.516724%);stop-opacity:1;"/>
<stop offset="0.367188" style="stop-color:rgb(0%,44.18335%,26.608276%);stop-opacity:1;"/>
<stop offset="0.375" style="stop-color:rgb(0%,44.390869%,26.699829%);stop-opacity:1;"/>
<stop offset="0.382812" style="stop-color:rgb(0%,44.596863%,26.792908%);stop-opacity:1;"/>
<stop offset="0.390625" style="stop-color:rgb(0%,44.804382%,26.88446%);stop-opacity:1;"/>
<stop offset="0.398437" style="stop-color:rgb(0%,45.011902%,26.976013%);stop-opacity:1;"/>
<stop offset="0.40625" style="stop-color:rgb(0%,45.217896%,27.067566%);stop-opacity:1;"/>
<stop offset="0.414062" style="stop-color:rgb(0%,45.425415%,27.160645%);stop-opacity:1;"/>
<stop offset="0.421875" style="stop-color:rgb(0%,45.632935%,27.252197%);stop-opacity:1;"/>
<stop offset="0.429688" style="stop-color:rgb(0%,45.838928%,27.34375%);stop-opacity:1;"/>
<stop offset="0.4375" style="stop-color:rgb(0%,46.046448%,27.436829%);stop-opacity:1;"/>
<stop offset="0.445312" style="stop-color:rgb(0%,46.253967%,27.528381%);stop-opacity:1;"/>
<stop offset="0.453125" style="stop-color:rgb(0%,46.459961%,27.619934%);stop-opacity:1;"/>
<stop offset="0.460938" style="stop-color:rgb(0%,46.66748%,27.711487%);stop-opacity:1;"/>
<stop offset="0.46875" style="stop-color:rgb(0%,46.873474%,27.804565%);stop-opacity:1;"/>
<stop offset="0.476563" style="stop-color:rgb(0%,47.080994%,27.896118%);stop-opacity:1;"/>
<stop offset="0.484375" style="stop-color:rgb(0%,47.288513%,27.987671%);stop-opacity:1;"/>
<stop offset="0.492188" style="stop-color:rgb(0%,47.494507%,28.08075%);stop-opacity:1;"/>
<stop offset="0.5" style="stop-color:rgb(0%,47.702026%,28.172302%);stop-opacity:1;"/>
<stop offset="0.503906" style="stop-color:rgb(0.422668%,48.057556%,28.201294%);stop-opacity:1;"/>
<stop offset="0.507812" style="stop-color:rgb(0.845337%,48.309326%,28.184509%);stop-opacity:1;"/>
<stop offset="0.511719" style="stop-color:rgb(1.358032%,48.59314%,28.152466%);stop-opacity:1;"/>
<stop offset="0.515625" style="stop-color:rgb(1.872253%,48.876953%,28.121948%);stop-opacity:1;"/>
<stop offset="0.519531" style="stop-color:rgb(2.386475%,49.160767%,28.091431%);stop-opacity:1;"/>
<stop offset="0.523438" style="stop-color:rgb(2.900696%,49.44458%,28.060913%);stop-opacity:1;"/>
<stop offset="0.527344" style="stop-color:rgb(3.413391%,49.728394%,28.030396%);stop-opacity:1;"/>
<stop offset="0.53125" style="stop-color:rgb(3.927612%,50.012207%,27.999878%);stop-opacity:1;"/>
<stop offset="0.535156" style="stop-color:rgb(4.440308%,50.294495%,27.96936%);stop-opacity:1;"/>
<stop offset="0.539062" style="stop-color:rgb(4.954529%,50.578308%,27.938843%);stop-opacity:1;"/>
<stop offset="0.542969" style="stop-color:rgb(5.467224%,50.862122%,27.908325%);stop-opacity:1;"/>
<stop offset="0.546875" style="stop-color:rgb(5.981445%,51.145935%,27.877808%);stop-opacity:1;"/>
<stop offset="0.550781" style="stop-color:rgb(6.494141%,51.429749%,27.84729%);stop-opacity:1;"/>
<stop offset="0.554688" style="stop-color:rgb(7.008362%,51.713562%,27.816772%);stop-opacity:1;"/>
<stop offset="0.558594" style="stop-color:rgb(7.522583%,51.997375%,27.784729%);stop-opacity:1;"/>
<stop offset="0.5625" style="stop-color:rgb(8.036804%,52.281189%,27.754211%);stop-opacity:1;"/>
<stop offset="0.566406" style="stop-color:rgb(8.5495%,52.563477%,27.723694%);stop-opacity:1;"/>
<stop offset="0.570312" style="stop-color:rgb(9.063721%,52.84729%,27.693176%);stop-opacity:1;"/>
<stop offset="0.574219" style="stop-color:rgb(9.576416%,53.131104%,27.662659%);stop-opacity:1;"/>
<stop offset="0.578125" style="stop-color:rgb(10.090637%,53.414917%,27.632141%);stop-opacity:1;"/>
<stop offset="0.582031" style="stop-color:rgb(10.603333%,53.69873%,27.601624%);stop-opacity:1;"/>
<stop offset="0.585938" style="stop-color:rgb(11.117554%,53.982544%,27.571106%);stop-opacity:1;"/>
<stop offset="0.589844" style="stop-color:rgb(11.631775%,54.266357%,27.540588%);stop-opacity:1;"/>
<stop offset="0.59375" style="stop-color:rgb(12.145996%,54.550171%,27.510071%);stop-opacity:1;"/>
<stop offset="0.597656" style="stop-color:rgb(12.658691%,54.833984%,27.478027%);stop-opacity:1;"/>
<stop offset="0.601562" style="stop-color:rgb(13.172913%,55.117798%,27.44751%);stop-opacity:1;"/>
<stop offset="0.605469" style="stop-color:rgb(13.685608%,55.400085%,27.416992%);stop-opacity:1;"/>
<stop offset="0.609375" style="stop-color:rgb(14.199829%,55.683899%,27.386475%);stop-opacity:1;"/>
<stop offset="0.613281" style="stop-color:rgb(14.712524%,55.967712%,27.355957%);stop-opacity:1;"/>
<stop offset="0.617188" style="stop-color:rgb(15.226746%,56.251526%,27.325439%);stop-opacity:1;"/>
<stop offset="0.621094" style="stop-color:rgb(15.739441%,56.535339%,27.294922%);stop-opacity:1;"/>
<stop offset="0.625" style="stop-color:rgb(16.253662%,56.819153%,27.264404%);stop-opacity:1;"/>
<stop offset="0.628906" style="stop-color:rgb(16.767883%,57.102966%,27.233887%);stop-opacity:1;"/>
<stop offset="0.632812" style="stop-color:rgb(17.282104%,57.38678%,27.203369%);stop-opacity:1;"/>
<stop offset="0.636719" style="stop-color:rgb(17.7948%,57.669067%,27.171326%);stop-opacity:1;"/>
<stop offset="0.640625" style="stop-color:rgb(18.309021%,57.952881%,27.140808%);stop-opacity:1;"/>
<stop offset="0.644531" style="stop-color:rgb(18.821716%,58.236694%,27.110291%);stop-opacity:1;"/>
<stop offset="0.648438" style="stop-color:rgb(19.335938%,58.520508%,27.079773%);stop-opacity:1;"/>
<stop offset="0.652344" style="stop-color:rgb(19.848633%,58.804321%,27.049255%);stop-opacity:1;"/>
<stop offset="0.65625" style="stop-color:rgb(20.362854%,59.088135%,27.018738%);stop-opacity:1;"/>
<stop offset="0.660156" style="stop-color:rgb(20.877075%,59.371948%,26.98822%);stop-opacity:1;"/>
<stop offset="0.664062" style="stop-color:rgb(21.391296%,59.655762%,26.957703%);stop-opacity:1;"/>
<stop offset="0.667969" style="stop-color:rgb(21.903992%,59.939575%,26.927185%);stop-opacity:1;"/>
<stop offset="0.671875" style="stop-color:rgb(22.418213%,60.223389%,26.896667%);stop-opacity:1;"/>
<stop offset="0.675781" style="stop-color:rgb(22.930908%,60.505676%,26.864624%);stop-opacity:1;"/>
<stop offset="0.679688" style="stop-color:rgb(23.445129%,60.78949%,26.834106%);stop-opacity:1;"/>
<stop offset="0.683594" style="stop-color:rgb(23.957825%,61.073303%,26.803589%);stop-opacity:1;"/>
<stop offset="0.6875" style="stop-color:rgb(24.472046%,61.357117%,26.773071%);stop-opacity:1;"/>
<stop offset="0.691406" style="stop-color:rgb(24.984741%,61.64093%,26.742554%);stop-opacity:1;"/>
<stop offset="0.695313" style="stop-color:rgb(25.498962%,61.924744%,26.712036%);stop-opacity:1;"/>
<stop offset="0.699219" style="stop-color:rgb(26.013184%,62.208557%,26.681519%);stop-opacity:1;"/>
<stop offset="0.703125" style="stop-color:rgb(26.527405%,62.492371%,26.651001%);stop-opacity:1;"/>
<stop offset="0.707031" style="stop-color:rgb(27.0401%,62.776184%,26.620483%);stop-opacity:1;"/>
<stop offset="0.710938" style="stop-color:rgb(27.554321%,63.059998%,26.589966%);stop-opacity:1;"/>
<stop offset="0.714844" style="stop-color:rgb(28.067017%,63.342285%,26.557922%);stop-opacity:1;"/>
<stop offset="0.71875" style="stop-color:rgb(28.581238%,63.626099%,26.527405%);stop-opacity:1;"/>
<stop offset="0.722656" style="stop-color:rgb(29.093933%,63.909912%,26.496887%);stop-opacity:1;"/>
<stop offset="0.726562" style="stop-color:rgb(29.608154%,64.193726%,26.46637%);stop-opacity:1;"/>
<stop offset="0.730469" style="stop-color:rgb(30.122375%,64.477539%,26.435852%);stop-opacity:1;"/>
<stop offset="0.734375" style="stop-color:rgb(30.636597%,64.761353%,26.405334%);stop-opacity:1;"/>
<stop offset="0.738281" style="stop-color:rgb(31.149292%,65.045166%,26.374817%);stop-opacity:1;"/>
<stop offset="0.742188" style="stop-color:rgb(31.663513%,65.328979%,26.344299%);stop-opacity:1;"/>
<stop offset="0.746094" style="stop-color:rgb(32.176208%,65.611267%,26.313782%);stop-opacity:1;"/>
<stop offset="0.75" style="stop-color:rgb(32.69043%,65.895081%,26.283264%);stop-opacity:1;"/>
<stop offset="0.753906" style="stop-color:rgb(33.203125%,66.178894%,26.252747%);stop-opacity:1;"/>
<stop offset="0.757812" style="stop-color:rgb(33.717346%,66.462708%,26.222229%);stop-opacity:1;"/>
<stop offset="0.761719" style="stop-color:rgb(34.231567%,66.746521%,26.190186%);stop-opacity:1;"/>
<stop offset="0.765625" style="stop-color:rgb(34.745789%,67.030334%,26.159668%);stop-opacity:1;"/>
<stop offset="0.769531" style="stop-color:rgb(35.258484%,67.314148%,26.12915%);stop-opacity:1;"/>
<stop offset="0.773438" style="stop-color:rgb(35.772705%,67.597961%,26.098633%);stop-opacity:1;"/>
<stop offset="0.777344" style="stop-color:rgb(36.2854%,67.881775%,26.068115%);stop-opacity:1;"/>
<stop offset="0.78125" style="stop-color:rgb(36.799622%,68.165588%,26.037598%);stop-opacity:1;"/>
<stop offset="0.785156" style="stop-color:rgb(37.312317%,68.447876%,26.00708%);stop-opacity:1;"/>
<stop offset="0.789062" style="stop-color:rgb(37.826538%,68.731689%,25.976562%);stop-opacity:1;"/>
<stop offset="0.792969" style="stop-color:rgb(38.339233%,69.015503%,25.946045%);stop-opacity:1;"/>
<stop offset="0.796875" style="stop-color:rgb(38.853455%,69.299316%,25.915527%);stop-opacity:1;"/>
<stop offset="0.800781" style="stop-color:rgb(39.367676%,69.58313%,25.883484%);stop-opacity:1;"/>
<stop offset="0.804687" style="stop-color:rgb(39.881897%,69.866943%,25.852966%);stop-opacity:1;"/>
<stop offset="0.808594" style="stop-color:rgb(40.394592%,70.150757%,25.822449%);stop-opacity:1;"/>
<stop offset="0.8125" style="stop-color:rgb(40.908813%,70.43457%,25.791931%);stop-opacity:1;"/>
<stop offset="0.816406" style="stop-color:rgb(41.421509%,70.716858%,25.761414%);stop-opacity:1;"/>
<stop offset="0.820312" style="stop-color:rgb(41.93573%,71.000671%,25.730896%);stop-opacity:1;"/>
<stop offset="0.824219" style="stop-color:rgb(42.448425%,71.284485%,25.700378%);stop-opacity:1;"/>
<stop offset="0.828125" style="stop-color:rgb(42.962646%,71.568298%,25.669861%);stop-opacity:1;"/>
<stop offset="0.832031" style="stop-color:rgb(43.476868%,71.852112%,25.639343%);stop-opacity:1;"/>
<stop offset="0.835937" style="stop-color:rgb(43.991089%,72.135925%,25.608826%);stop-opacity:1;"/>
<stop offset="0.839844" style="stop-color:rgb(44.503784%,72.419739%,25.576782%);stop-opacity:1;"/>
<stop offset="0.84375" style="stop-color:rgb(45.018005%,72.703552%,25.546265%);stop-opacity:1;"/>
<stop offset="0.847656" style="stop-color:rgb(45.530701%,72.987366%,25.515747%);stop-opacity:1;"/>
<stop offset="0.851563" style="stop-color:rgb(46.044922%,73.271179%,25.485229%);stop-opacity:1;"/>
<stop offset="0.855469" style="stop-color:rgb(46.557617%,73.553467%,25.454712%);stop-opacity:1;"/>
<stop offset="0.859375" style="stop-color:rgb(47.071838%,73.83728%,25.424194%);stop-opacity:1;"/>
<stop offset="0.863281" style="stop-color:rgb(47.584534%,74.121094%,25.393677%);stop-opacity:1;"/>
<stop offset="0.867188" style="stop-color:rgb(48.098755%,74.404907%,25.363159%);stop-opacity:1;"/>
<stop offset="0.871094" style="stop-color:rgb(48.612976%,74.688721%,25.332642%);stop-opacity:1;"/>
<stop offset="0.875" style="stop-color:rgb(49.127197%,74.972534%,25.302124%);stop-opacity:1;"/>
<stop offset="0.878906" style="stop-color:rgb(49.639893%,75.256348%,25.270081%);stop-opacity:1;"/>
<stop offset="0.882812" style="stop-color:rgb(50.154114%,75.540161%,25.239563%);stop-opacity:1;"/>
<stop offset="0.886719" style="stop-color:rgb(50.666809%,75.822449%,25.209045%);stop-opacity:1;"/>
<stop offset="0.890625" style="stop-color:rgb(51.18103%,76.106262%,25.178528%);stop-opacity:1;"/>
<stop offset="0.894531" style="stop-color:rgb(51.693726%,76.390076%,25.14801%);stop-opacity:1;"/>
<stop offset="0.898438" style="stop-color:rgb(52.207947%,76.673889%,25.117493%);stop-opacity:1;"/>
<stop offset="0.90625" style="stop-color:rgb(52.377319%,76.766968%,25.106812%);stop-opacity:1;"/>
<stop offset="0.9375" style="stop-color:rgb(52.548218%,76.861572%,25.097656%);stop-opacity:1;"/>
<stop offset="1" style="stop-color:rgb(52.548218%,76.861572%,25.097656%);stop-opacity:1;"/>
</linearGradient>
<clipPath id="clip3">
  <path d="M 65 2 L 79 2 L 79 10 L 65 10 Z M 65 2 "/>
</clipPath>
<clipPath id="clip4">
  <path d="M 67.492188 7.800781 C 69.480469 7.503906 74.640625 7.183594 76.453125 8.125 C 76.921875 8.328125 77.160156 8.851562 77.015625 9.34375 C 77.199219 9.015625 77.371094 8.644531 77.546875 8.324219 C 77.933594 7.511719 78.265625 6.679688 78.550781 5.824219 C 78.984375 4.828125 78.621094 3.664062 77.699219 3.085938 C 77.296875 2.890625 76.875 2.734375 76.445312 2.613281 C 75.1875 2.289062 73.898438 2.09375 72.601562 2.035156 C 72.050781 1.992188 71.472656 1.992188 70.894531 2.035156 C 69.769531 2.03125 68.648438 2.105469 67.535156 2.257812 C 66.253906 2.515625 65.789062 3.101562 65.828125 3.9375 C 65.886719 4.90625 66.832031 6.679688 67.492188 7.800781 Z M 67.492188 7.800781 "/>
</clipPath>
<linearGradient id="linear1" gradientUnits="userSpaceOnUse" x1="-0.385437" y1="0" x2="1.450372" y2="0" gradientTransform="matrix(6.703842,4.694855,4.694855,-6.703842,63.68454,10.494858)">
<stop offset="0" style="stop-color:rgb(0%,40.783691%,25.097656%);stop-opacity:1;"/>
<stop offset="0.125" style="stop-color:rgb(0%,40.783691%,25.097656%);stop-opacity:1;"/>
<stop offset="0.1875" style="stop-color:rgb(0%,40.783691%,25.097656%);stop-opacity:1;"/>
<stop offset="0.21875" style="stop-color:rgb(0%,40.9729%,25.18158%);stop-opacity:1;"/>
<stop offset="0.226562" style="stop-color:rgb(0%,41.331482%,25.340271%);stop-opacity:1;"/>
<stop offset="0.234375" style="stop-color:rgb(0%,41.668701%,25.491333%);stop-opacity:1;"/>
<stop offset="0.242188" style="stop-color:rgb(0%,42.00592%,25.640869%);stop-opacity:1;"/>
<stop offset="0.25" style="stop-color:rgb(0%,42.344666%,25.790405%);stop-opacity:1;"/>
<stop offset="0.257812" style="stop-color:rgb(0%,42.681885%,25.941467%);stop-opacity:1;"/>
<stop offset="0.265625" style="stop-color:rgb(0%,43.019104%,26.091003%);stop-opacity:1;"/>
<stop offset="0.273438" style="stop-color:rgb(0%,43.356323%,26.24054%);stop-opacity:1;"/>
<stop offset="0.28125" style="stop-color:rgb(0%,43.693542%,26.390076%);stop-opacity:1;"/>
<stop offset="0.289062" style="stop-color:rgb(0%,44.030762%,26.541138%);stop-opacity:1;"/>
<stop offset="0.296875" style="stop-color:rgb(0%,44.367981%,26.690674%);stop-opacity:1;"/>
<stop offset="0.304688" style="stop-color:rgb(0%,44.706726%,26.84021%);stop-opacity:1;"/>
<stop offset="0.3125" style="stop-color:rgb(0%,45.043945%,26.991272%);stop-opacity:1;"/>
<stop offset="0.320312" style="stop-color:rgb(0%,45.381165%,27.140808%);stop-opacity:1;"/>
<stop offset="0.328125" style="stop-color:rgb(0%,45.718384%,27.290344%);stop-opacity:1;"/>
<stop offset="0.335938" style="stop-color:rgb(0%,46.055603%,27.43988%);stop-opacity:1;"/>
<stop offset="0.34375" style="stop-color:rgb(0%,46.392822%,27.590942%);stop-opacity:1;"/>
<stop offset="0.351562" style="stop-color:rgb(0%,46.731567%,27.740479%);stop-opacity:1;"/>
<stop offset="0.359375" style="stop-color:rgb(0%,47.068787%,27.890015%);stop-opacity:1;"/>
<stop offset="0.367188" style="stop-color:rgb(0%,47.406006%,28.041077%);stop-opacity:1;"/>
<stop offset="0.375" style="stop-color:rgb(0.111389%,47.770691%,28.167725%);stop-opacity:1;"/>
<stop offset="0.378906" style="stop-color:rgb(0.761414%,48.26355%,28.189087%);stop-opacity:1;"/>
<stop offset="0.382812" style="stop-color:rgb(1.300049%,48.561096%,28.157043%);stop-opacity:1;"/>
<stop offset="0.386719" style="stop-color:rgb(1.838684%,48.858643%,28.125%);stop-opacity:1;"/>
<stop offset="0.390625" style="stop-color:rgb(2.377319%,49.156189%,28.092957%);stop-opacity:1;"/>
<stop offset="0.394531" style="stop-color:rgb(2.915955%,49.452209%,28.060913%);stop-opacity:1;"/>
<stop offset="0.398438" style="stop-color:rgb(3.45459%,49.749756%,28.02887%);stop-opacity:1;"/>
<stop offset="0.402344" style="stop-color:rgb(3.991699%,50.047302%,27.9953%);stop-opacity:1;"/>
<stop offset="0.40625" style="stop-color:rgb(4.530334%,50.344849%,27.963257%);stop-opacity:1;"/>
<stop offset="0.410156" style="stop-color:rgb(5.06897%,50.642395%,27.931213%);stop-opacity:1;"/>
<stop offset="0.414062" style="stop-color:rgb(5.607605%,50.939941%,27.89917%);stop-opacity:1;"/>
<stop offset="0.417969" style="stop-color:rgb(6.144714%,51.235962%,27.867126%);stop-opacity:1;"/>
<stop offset="0.421875" style="stop-color:rgb(6.68335%,51.533508%,27.835083%);stop-opacity:1;"/>
<stop offset="0.425781" style="stop-color:rgb(7.221985%,51.831055%,27.80304%);stop-opacity:1;"/>
<stop offset="0.429688" style="stop-color:rgb(7.76062%,52.128601%,27.770996%);stop-opacity:1;"/>
<stop offset="0.433594" style="stop-color:rgb(8.299255%,52.426147%,27.738953%);stop-opacity:1;"/>
<stop offset="0.4375" style="stop-color:rgb(8.837891%,52.723694%,27.706909%);stop-opacity:1;"/>
<stop offset="0.441406" style="stop-color:rgb(9.375%,53.019714%,27.674866%);stop-opacity:1;"/>
<stop offset="0.445312" style="stop-color:rgb(9.913635%,53.317261%,27.642822%);stop-opacity:1;"/>
<stop offset="0.449219" style="stop-color:rgb(10.452271%,53.614807%,27.610779%);stop-opacity:1;"/>
<stop offset="0.453125" style="stop-color:rgb(10.990906%,53.912354%,27.578735%);stop-opacity:1;"/>
<stop offset="0.457031" style="stop-color:rgb(11.528015%,54.2099%,27.546692%);stop-opacity:1;"/>
<stop offset="0.460938" style="stop-color:rgb(12.06665%,54.507446%,27.514648%);stop-opacity:1;"/>
<stop offset="0.464844" style="stop-color:rgb(12.605286%,54.803467%,27.481079%);stop-opacity:1;"/>
<stop offset="0.46875" style="stop-color:rgb(13.143921%,55.101013%,27.449036%);stop-opacity:1;"/>
<stop offset="0.472656" style="stop-color:rgb(13.682556%,55.39856%,27.416992%);stop-opacity:1;"/>
<stop offset="0.476562" style="stop-color:rgb(14.221191%,55.696106%,27.384949%);stop-opacity:1;"/>
<stop offset="0.480469" style="stop-color:rgb(14.758301%,55.993652%,27.352905%);stop-opacity:1;"/>
<stop offset="0.484375" style="stop-color:rgb(15.296936%,56.291199%,27.320862%);stop-opacity:1;"/>
<stop offset="0.488281" style="stop-color:rgb(15.835571%,56.587219%,27.288818%);stop-opacity:1;"/>
<stop offset="0.492188" style="stop-color:rgb(16.374207%,56.884766%,27.256775%);stop-opacity:1;"/>
<stop offset="0.496094" style="stop-color:rgb(16.911316%,57.182312%,27.224731%);stop-opacity:1;"/>
<stop offset="0.5" style="stop-color:rgb(17.449951%,57.479858%,27.192688%);stop-opacity:1;"/>
<stop offset="0.503906" style="stop-color:rgb(17.988586%,57.777405%,27.160645%);stop-opacity:1;"/>
<stop offset="0.507812" style="stop-color:rgb(18.527222%,58.074951%,27.128601%);stop-opacity:1;"/>
<stop offset="0.511719" style="stop-color:rgb(19.065857%,58.370972%,27.096558%);stop-opacity:1;"/>
<stop offset="0.515625" style="stop-color:rgb(19.604492%,58.668518%,27.064514%);stop-opacity:1;"/>
<stop offset="0.519531" style="stop-color:rgb(20.141602%,58.966064%,27.032471%);stop-opacity:1;"/>
<stop offset="0.523438" style="stop-color:rgb(20.680237%,59.263611%,27.000427%);stop-opacity:1;"/>
<stop offset="0.527344" style="stop-color:rgb(21.218872%,59.561157%,26.966858%);stop-opacity:1;"/>
<stop offset="0.53125" style="stop-color:rgb(21.757507%,59.858704%,26.934814%);stop-opacity:1;"/>
<stop offset="0.535156" style="stop-color:rgb(22.294617%,60.154724%,26.902771%);stop-opacity:1;"/>
<stop offset="0.539062" style="stop-color:rgb(22.833252%,60.452271%,26.870728%);stop-opacity:1;"/>
<stop offset="0.542969" style="stop-color:rgb(23.371887%,60.749817%,26.838684%);stop-opacity:1;"/>
<stop offset="0.546875" style="stop-color:rgb(23.910522%,61.047363%,26.806641%);stop-opacity:1;"/>
<stop offset="0.550781" style="stop-color:rgb(24.449158%,61.34491%,26.774597%);stop-opacity:1;"/>
<stop offset="0.554688" style="stop-color:rgb(24.987793%,61.642456%,26.742554%);stop-opacity:1;"/>
<stop offset="0.558594" style="stop-color:rgb(25.524902%,61.938477%,26.71051%);stop-opacity:1;"/>
<stop offset="0.5625" style="stop-color:rgb(26.063538%,62.236023%,26.678467%);stop-opacity:1;"/>
<stop offset="0.566406" style="stop-color:rgb(26.602173%,62.533569%,26.646423%);stop-opacity:1;"/>
<stop offset="0.570312" style="stop-color:rgb(27.140808%,62.831116%,26.61438%);stop-opacity:1;"/>
<stop offset="0.574219" style="stop-color:rgb(27.677917%,63.128662%,26.582336%);stop-opacity:1;"/>
<stop offset="0.578125" style="stop-color:rgb(28.216553%,63.426208%,26.550293%);stop-opacity:1;"/>
<stop offset="0.582031" style="stop-color:rgb(28.755188%,63.722229%,26.51825%);stop-opacity:1;"/>
<stop offset="0.585938" style="stop-color:rgb(29.293823%,64.019775%,26.486206%);stop-opacity:1;"/>
<stop offset="0.589844" style="stop-color:rgb(29.832458%,64.317322%,26.452637%);stop-opacity:1;"/>
<stop offset="0.59375" style="stop-color:rgb(30.371094%,64.614868%,26.420593%);stop-opacity:1;"/>
<stop offset="0.597656" style="stop-color:rgb(30.908203%,64.912415%,26.38855%);stop-opacity:1;"/>
<stop offset="0.601562" style="stop-color:rgb(31.446838%,65.209961%,26.356506%);stop-opacity:1;"/>
<stop offset="0.605469" style="stop-color:rgb(31.985474%,65.505981%,26.324463%);stop-opacity:1;"/>
<stop offset="0.609375" style="stop-color:rgb(32.524109%,65.803528%,26.292419%);stop-opacity:1;"/>
<stop offset="0.613281" style="stop-color:rgb(33.062744%,66.101074%,26.260376%);stop-opacity:1;"/>
<stop offset="0.617188" style="stop-color:rgb(33.601379%,66.398621%,26.228333%);stop-opacity:1;"/>
<stop offset="0.621094" style="stop-color:rgb(34.138489%,66.696167%,26.196289%);stop-opacity:1;"/>
<stop offset="0.625" style="stop-color:rgb(34.677124%,66.993713%,26.164246%);stop-opacity:1;"/>
<stop offset="0.628906" style="stop-color:rgb(35.215759%,67.289734%,26.132202%);stop-opacity:1;"/>
<stop offset="0.632812" style="stop-color:rgb(35.754395%,67.58728%,26.100159%);stop-opacity:1;"/>
<stop offset="0.636719" style="stop-color:rgb(36.291504%,67.884827%,26.068115%);stop-opacity:1;"/>
<stop offset="0.640625" style="stop-color:rgb(36.830139%,68.182373%,26.036072%);stop-opacity:1;"/>
<stop offset="0.644531" style="stop-color:rgb(37.368774%,68.478394%,26.004028%);stop-opacity:1;"/>
<stop offset="0.648438" style="stop-color:rgb(37.90741%,68.77594%,25.971985%);stop-opacity:1;"/>
<stop offset="0.652344" style="stop-color:rgb(38.446045%,69.073486%,25.938416%);stop-opacity:1;"/>
<stop offset="0.65625" style="stop-color:rgb(38.98468%,69.371033%,25.906372%);stop-opacity:1;"/>
<stop offset="0.660156" style="stop-color:rgb(39.52179%,69.668579%,25.874329%);stop-opacity:1;"/>
<stop offset="0.664062" style="stop-color:rgb(40.060425%,69.966125%,25.842285%);stop-opacity:1;"/>
<stop offset="0.667969" style="stop-color:rgb(40.59906%,70.262146%,25.810242%);stop-opacity:1;"/>
<stop offset="0.671875" style="stop-color:rgb(41.137695%,70.559692%,25.778198%);stop-opacity:1;"/>
<stop offset="0.675781" style="stop-color:rgb(41.674805%,70.857239%,25.746155%);stop-opacity:1;"/>
<stop offset="0.679688" style="stop-color:rgb(42.21344%,71.154785%,25.714111%);stop-opacity:1;"/>
<stop offset="0.683594" style="stop-color:rgb(42.752075%,71.452332%,25.682068%);stop-opacity:1;"/>
<stop offset="0.6875" style="stop-color:rgb(43.29071%,71.749878%,25.650024%);stop-opacity:1;"/>
<stop offset="0.691406" style="stop-color:rgb(43.829346%,72.045898%,25.617981%);stop-opacity:1;"/>
<stop offset="0.695312" style="stop-color:rgb(44.367981%,72.343445%,25.585938%);stop-opacity:1;"/>
<stop offset="0.699219" style="stop-color:rgb(44.90509%,72.640991%,25.553894%);stop-opacity:1;"/>
<stop offset="0.703125" style="stop-color:rgb(45.443726%,72.938538%,25.521851%);stop-opacity:1;"/>
<stop offset="0.707031" style="stop-color:rgb(45.982361%,73.236084%,25.489807%);stop-opacity:1;"/>
<stop offset="0.710938" style="stop-color:rgb(46.520996%,73.53363%,25.457764%);stop-opacity:1;"/>
<stop offset="0.714844" style="stop-color:rgb(47.058105%,73.829651%,25.424194%);stop-opacity:1;"/>
<stop offset="0.71875" style="stop-color:rgb(47.596741%,74.127197%,25.392151%);stop-opacity:1;"/>
<stop offset="0.722656" style="stop-color:rgb(48.135376%,74.424744%,25.360107%);stop-opacity:1;"/>
<stop offset="0.726562" style="stop-color:rgb(48.674011%,74.72229%,25.328064%);stop-opacity:1;"/>
<stop offset="0.730469" style="stop-color:rgb(49.212646%,75.019836%,25.296021%);stop-opacity:1;"/>
<stop offset="0.734375" style="stop-color:rgb(49.751282%,75.317383%,25.263977%);stop-opacity:1;"/>
<stop offset="0.738281" style="stop-color:rgb(50.288391%,75.613403%,25.231934%);stop-opacity:1;"/>
<stop offset="0.742188" style="stop-color:rgb(50.827026%,75.91095%,25.19989%);stop-opacity:1;"/>
<stop offset="0.746094" style="stop-color:rgb(51.365662%,76.208496%,25.167847%);stop-opacity:1;"/>
<stop offset="0.75" style="stop-color:rgb(51.904297%,76.506042%,25.135803%);stop-opacity:1;"/>
<stop offset="0.753906" style="stop-color:rgb(52.226257%,76.683044%,25.115967%);stop-opacity:1;"/>
<stop offset="0.757812" style="stop-color:rgb(52.548218%,76.861572%,25.097656%);stop-opacity:1;"/>
<stop offset="0.765625" style="stop-color:rgb(52.548218%,76.861572%,25.097656%);stop-opacity:1;"/>
<stop offset="0.78125" style="stop-color:rgb(52.548218%,76.861572%,25.097656%);stop-opacity:1;"/>
<stop offset="0.8125" style="stop-color:rgb(52.548218%,76.861572%,25.097656%);stop-opacity:1;"/>
<stop offset="0.875" style="stop-color:rgb(52.548218%,76.861572%,25.097656%);stop-opacity:1;"/>
<stop offset="1" style="stop-color:rgb(52.548218%,76.861572%,25.097656%);stop-opacity:1;"/>
</linearGradient>
</defs>
<g id="surface1">
<rect x="0" y="0" width="96" height="32" style="fill:rgb(100%,100%,100%);fill-opacity:1;stroke:none;"/>
<g clip-path="url(#clip1)" clip-rule="nonzero">
<g clip-path="url(#clip2)" clip-rule="evenodd">
<path style=" stroke:none;fill-rule:nonzero;fill:url(#linear0);" d="M 89.183594 8.074219 L 74.316406 29.3125 L 53.007812 14.398438 L 67.875 -6.839844 Z M 89.183594 8.074219 "/>
</g>
</g>
<g clip-path="url(#clip3)" clip-rule="nonzero">
<g clip-path="url(#clip4)" clip-rule="evenodd">
<path style=" stroke:none;fill-rule:nonzero;fill:url(#linear1);" d="M 62.335938 6.925781 L 70.128906 -4.207031 L 82.4375 4.410156 L 74.640625 15.542969 Z M 62.335938 6.925781 "/>
</g>
</g>
<path style=" stroke:none;fill-rule:evenodd;fill:rgb(0%,27.058411%,13.33313%);fill-opacity:1;" d="M 63.570312 29.105469 C 64.605469 28.980469 65.484375 28.449219 65.785156 26.882812 C 65.976562 25.699219 65.933594 24.488281 65.660156 23.324219 C 65.558594 22.917969 65.34375 22.554688 65.039062 22.269531 C 64.03125 21.582031 62.695312 21.613281 61.722656 22.347656 C 61.609375 22.4375 61.511719 22.480469 61.511719 22.347656 L 61.511719 19.003906 L 59.660156 19.003906 L 59.660156 28.597656 C 60.453125 29.132812 62.636719 29.214844 63.570312 29.105469 Z M 13.898438 28.925781 C 14.289062 28.925781 14.214844 28.957031 14.449219 28.632812 C 16.058594 26.421875 17.59375 21.734375 17.59375 19.089844 C 16.828125 19.070312 16.0625 19.164062 15.320312 19.359375 C 14.625 23.671875 13.929688 24.808594 12.792969 27.023438 C 11.628906 24.820312 10.996094 23.683594 10.265625 19.359375 C 9.527344 19.164062 8.761719 19.074219 8 19.089844 C 8 21.714844 9.503906 26.421875 11.113281 28.632812 C 11.351562 28.957031 11.273438 28.925781 11.664062 28.925781 Z M 67.148438 22.132812 L 67.332031 23.824219 C 68.070312 23.753906 68.667969 23.558594 69.417969 23.503906 C 70.578125 23.460938 71.316406 23.433594 71.28125 24.277344 C 70.417969 24.277344 69.546875 24.277344 68.640625 24.277344 C 67.554688 24.277344 66.640625 24.808594 66.765625 27.023438 C 66.914062 29.691406 70.074219 29.496094 71.515625 28.414062 L 71.515625 29.007812 L 73.195312 29.007812 C 73.152344 26.289062 73.347656 23.433594 72.859375 22.660156 C 71.925781 21.191406 68.871094 21.734375 67.148438 22.132812 Z M 27.589844 28.699219 L 27.402344 27.050781 C 26.46875 27.234375 25.523438 27.335938 24.574219 27.355469 C 23.6875 27.355469 23.359375 26.902344 23.367188 25.644531 C 23.664062 25.996094 24.097656 26.195312 24.558594 26.191406 C 25.707031 26.191406 26.789062 26.191406 27.929688 26.191406 C 27.980469 24.101562 28.160156 22.265625 26.0625 21.820312 C 25.140625 21.628906 24.1875 21.648438 23.277344 21.882812 C 22.488281 22.039062 21.867188 22.652344 21.703125 23.441406 C 21.230469 25.09375 21.359375 27.53125 22.398438 28.472656 C 23.609375 29.550781 26.0625 29.167969 27.59375 28.714844 Z M 24.21875 23.429688 L 25.144531 23.429688 C 25.59375 23.445312 25.953125 23.820312 25.953125 24.269531 L 25.953125 24.648438 L 23.375 24.648438 L 23.375 24.269531 C 23.375 23.804688 23.75 23.429688 24.21875 23.429688 Z M 83.429688 29 L 83.492188 25.921875 C 83.492188 25.734375 83.660156 25.984375 83.707031 26.0625 C 84.28125 27.050781 84.984375 27.960938 85.796875 28.765625 C 86.046875 29.023438 86.105469 29 86.554688 29 L 88.5 29 C 87.269531 28.050781 86.257812 26.847656 85.539062 25.46875 C 85.386719 25.140625 85.394531 25.175781 85.609375 24.871094 C 85.824219 24.5625 86.25 24.109375 86.640625 23.664062 L 88.292969 21.714844 C 88.292969 21.699219 88.292969 21.6875 88.292969 21.671875 L 86.554688 21.671875 C 86.234375 21.671875 86.242188 21.617188 86.019531 21.867188 C 85.324219 22.5625 84.578125 23.433594 83.929688 24.117188 C 83.859375 24.195312 83.777344 24.261719 83.6875 24.320312 C 83.429688 24.507812 83.476562 24.457031 83.476562 24.195312 L 83.476562 18.957031 L 81.605469 18.957031 L 81.605469 28.988281 Z M 39.898438 28.765625 L 39.730469 27.125 C 38.859375 27.273438 37.980469 27.332031 37.097656 27.308594 C 36.199219 27.203125 36.085938 26.730469 36.082031 26 C 36.082031 25.558594 36.082031 25.058594 36.082031 24.605469 C 36.0625 24.328125 36.164062 24.058594 36.355469 23.859375 C 36.550781 23.664062 36.820312 23.558594 37.097656 23.574219 C 37.980469 23.550781 38.867188 23.621094 39.738281 23.777344 L 39.90625 22.140625 C 36.679688 21.371094 34.667969 21.757812 34.21875 24.230469 C 34.132812 25.152344 34.164062 26.082031 34.3125 26.996094 C 34.882812 29.175781 36.847656 29.488281 39.882812 28.765625 Z M 29.777344 21.796875 L 28.621094 21.796875 C 28.621094 22.375 28.621094 22.953125 28.621094 23.523438 L 29.8125 23.523438 L 29.8125 25.316406 C 29.8125 25.9375 29.8125 26.519531 29.8125 27.023438 C 29.742188 27.640625 29.945312 28.257812 30.367188 28.714844 C 30.585938 28.867188 30.839844 28.953125 31.105469 28.964844 C 31.863281 29.058594 32.632812 29.003906 33.371094 28.804688 C 33.371094 28.3125 33.328125 27.808594 33.316406 27.316406 C 32.617188 27.390625 31.699219 27.542969 31.699219 27.175781 C 31.699219 25.90625 31.699219 24.792969 31.699219 23.523438 L 33.40625 23.523438 L 33.40625 21.785156 L 31.683594 21.785156 C 31.683594 21.207031 31.683594 20.632812 31.683594 20.0625 L 29.804688 20.0625 L 29.804688 21.785156 Z M 18.289062 29 L 20.121094 29 L 20.191406 21.769531 L 18.289062 21.769531 Z M 43.269531 21.679688 L 44.914062 21.679688 C 46.199219 21.683594 47.242188 22.726562 47.246094 24.011719 L 47.246094 26.800781 C 47.242188 28.085938 46.199219 29.128906 44.914062 29.132812 L 43.269531 29.132812 C 41.980469 29.128906 40.9375 28.085938 40.929688 26.800781 L 40.929688 24.011719 C 40.9375 22.722656 41.980469 21.683594 43.269531 21.679688 Z M 43.625 23.429688 C 43.160156 23.429688 42.785156 23.808594 42.78125 24.269531 L 42.78125 26.519531 C 42.785156 26.984375 43.160156 27.355469 43.625 27.355469 L 44.550781 27.355469 C 45.015625 27.355469 45.390625 26.984375 45.394531 26.519531 L 45.394531 24.269531 C 45.394531 23.804688 45.015625 23.429688 44.550781 23.429688 Z M 50.304688 29 C 50.304688 27.160156 50.304688 25.316406 50.359375 23.46875 L 51.753906 23.46875 C 52.113281 23.46875 52.414062 23.738281 52.449219 24.097656 L 52.449219 28.972656 L 54.304688 28.972656 L 54.351562 23.441406 L 55.90625 23.441406 C 56.097656 23.429688 56.285156 23.5 56.425781 23.628906 C 56.566406 23.761719 56.644531 23.945312 56.644531 24.136719 L 56.644531 29.015625 L 58.476562 29.015625 L 58.539062 23.789062 C 58.617188 23.253906 58.449219 22.714844 58.085938 22.316406 C 57.722656 21.917969 57.199219 21.703125 56.65625 21.734375 L 55.460938 21.734375 C 54.972656 21.6875 54.492188 21.871094 54.164062 22.238281 C 53.890625 22.523438 54.023438 22.523438 53.773438 22.238281 C 53.414062 21.882812 52.925781 21.703125 52.421875 21.734375 L 51.546875 21.734375 C 51.070312 21.742188 50.621094 21.949219 50.3125 22.304688 C 50.003906 22.621094 50.046875 22.722656 50.046875 22.238281 L 50.046875 21.804688 L 48.464844 21.804688 C 48.464844 24.199219 48.464844 26.597656 48.464844 28.992188 Z M 76.261719 29 C 76.261719 27.160156 76.261719 25.316406 76.316406 23.46875 L 77.710938 23.46875 C 77.902344 23.457031 78.089844 23.527344 78.230469 23.660156 C 78.371094 23.789062 78.449219 23.972656 78.449219 24.167969 C 78.449219 25.789062 78.449219 27.40625 78.449219 29.042969 L 80.320312 29.042969 C 80.320312 27.433594 80.320312 25.816406 80.371094 24.207031 C 80.371094 22.933594 79.875 21.796875 78.363281 21.796875 L 77.5 21.796875 C 77.042969 21.804688 76.605469 21.996094 76.296875 22.335938 C 75.976562 22.648438 75.980469 22.816406 75.980469 22.335938 L 75.980469 21.851562 L 74.378906 21.851562 C 74.378906 24.25 74.378906 26.660156 74.378906 29.054688 Z M 69.289062 25.914062 L 71.328125 25.914062 L 71.328125 26.980469 C 71.328125 27.417969 70.039062 27.441406 69.238281 27.425781 C 68.632812 27.425781 68.703125 27.425781 68.679688 26.890625 C 68.679688 26.695312 68.679688 26.492188 68.679688 26.289062 C 68.679688 25.886719 68.765625 25.914062 69.308594 25.914062 Z M 63.972656 24.625 L 63.972656 26.609375 C 63.972656 27.078125 63.59375 27.453125 63.128906 27.453125 L 62.175781 27.453125 C 61.480469 27.453125 61.480469 27.453125 61.480469 26.519531 L 61.480469 24.355469 C 61.480469 23.414062 61.480469 23.429688 62.175781 23.429688 L 63.121094 23.429688 C 63.585938 23.429688 63.960938 23.800781 63.964844 24.265625 Z M 63.972656 24.625 "/>
</g>
</svg>
