<svg width="32" height="32" viewBox="0 0 32 32" fill="none" xmlns="http://www.w3.org/2000/svg">
<path d="M16 32C24.8366 32 32 24.8366 32 16C32 7.16344 24.8366 0 16 0C7.16344 0 0 7.16344 0 16C0 24.8366 7.16344 32 16 32Z" fill="white"/>
<path d="M21.1536 7.66545C23.7575 8.37059 26.128 9.50831 27.9751 11.5476C30.845 14.7166 30.5495 18.9269 27.2631 21.8333C24.9641 23.8666 22.2241 24.9129 19.2413 25.3969C18.3925 25.5346 17.5299 25.5878 16.6735 25.6797C16.645 25.6001 16.6164 25.5204 16.5877 25.4409C17.6719 24.3655 18.7569 23.2911 19.8395 22.2144C20.6541 21.4044 21.4684 20.5943 22.2774 19.779C23.6498 18.3959 24.0314 16.7523 23.3681 14.9432C22.7058 13.1367 21.2962 12.1937 19.4071 12.0652C18.1196 11.9777 16.9757 12.448 16.0464 13.3673C15.1177 14.2859 14.2033 15.2191 13.2744 16.1374C13.0612 16.3483 12.8064 16.6954 12.5114 16.3284C12.4187 16.213 12.5537 15.7784 12.7129 15.6172C15.2619 13.0383 17.8269 10.4751 20.407 7.92746C20.5809 7.75581 20.9397 7.60756 21.1536 7.66545ZM15.274 7C15.3005 7.06777 15.3273 7.13554 15.354 7.20317C14.1117 8.4395 12.8694 9.67556 11.6275 10.9122C10.9733 11.5639 10.3087 12.2057 9.66849 12.8708C8.34911 14.2412 7.9172 15.8541 8.57757 17.6491C9.22955 19.4214 10.5995 20.3864 12.4554 20.5584C13.7958 20.6825 14.9775 20.1926 15.9435 19.243C16.875 18.3276 17.7892 17.394 18.7163 16.4737C18.933 16.2588 19.1893 15.9193 19.4738 16.3066C19.5644 16.4299 19.4225 16.851 19.2626 17.0126C16.697 19.6072 14.1153 22.1857 11.5201 24.7505C11.3605 24.9082 11.0263 25.0363 10.825 24.983C8.00621 24.2361 5.45659 22.9952 3.60791 20.654C1.08696 17.4617 1.57148 13.5214 4.77228 10.7451C7.14362 8.68825 9.96174 7.66077 13.0194 7.20939C13.765 7.09929 14.5222 7.06763 15.274 7Z" fill="#006DBA"/>
<path d="M13.0879 25.1722C13.3763 24.9585 13.6959 24.7763 13.948 24.5263C16.1398 22.353 18.3235 20.1718 20.4999 17.9834C21.1125 17.3675 21.2531 16.4607 20.8915 15.7477C20.5371 15.0488 19.7789 14.5887 18.9971 14.7466C18.5618 14.8344 18.1041 15.0771 17.7763 15.3796C16.817 16.2652 15.9226 17.2209 14.9941 18.14C13.6753 19.4449 11.8873 19.5016 10.6559 18.2873C9.45938 17.1071 9.50673 15.2536 10.7984 13.951C12.8923 11.8395 15.0241 9.76503 17.0935 7.63C17.6404 7.06581 18.1518 6.95367 18.9047 7.3101C18.7306 7.50393 18.5822 7.68519 18.4175 7.85008C16.1247 10.1453 13.8271 12.4356 11.5367 14.7331C10.7719 15.5004 10.639 16.3766 11.1388 17.1758C11.788 18.214 13.1964 18.3836 14.1116 17.4995C15.1161 16.5293 16.0802 15.5176 17.0758 14.5382C17.9405 13.6873 18.9863 13.4552 20.1272 13.807C21.2903 14.166 21.946 15.0188 22.1446 16.2C22.2952 17.0951 22.0464 17.9222 21.4146 18.5642C19.1863 20.828 16.9325 23.0665 14.685 25.3109C14.2429 25.7522 13.7474 25.5281 13.2671 25.4486C13.2075 25.3564 13.1477 25.2643 13.0879 25.1722Z" fill="#B6B8B7"/>
</svg>
