<?xml version="1.0" encoding="UTF-8"?>
<svg xmlns="http://www.w3.org/2000/svg" xmlns:xlink="http://www.w3.org/1999/xlink" width="32pt" height="32pt" viewBox="0 0 32 32" version="1.1">
<defs>
<clipPath id="clip1">
  <path d="M 2 2 L 30 2 L 30 30 L 2 30 Z M 2 2 "/>
</clipPath>
<clipPath id="clip2">
  <path d="M 6 2 L 26 2 C 28.210938 2 30 3.789062 30 6 L 30 26 C 30 28.210938 28.210938 30 26 30 L 6 30 C 3.789062 30 2 28.210938 2 26 L 2 6 C 2 3.789062 3.789062 2 6 2 Z M 6 2 "/>
</clipPath>
<clipPath id="clip3">
  <path d="M 6 6 L 30 6 L 30 27 L 6 27 Z M 6 6 "/>
</clipPath>
<clipPath id="clip4">
  <path d="M 11.527344 22 C 8.707031 22 8 20.558594 8 19.4375 C 8 18.3125 8.53125 17.195312 11 17.03125 C 13.644531 16.714844 17 18.796875 17 18.796875 C 17 18.796875 14.527344 22 11.527344 22 Z M 21.425781 12.152344 L 16.875 12.152344 L 16.875 10.398438 L 22.300781 10.398438 L 22.300781 9.175781 L 16.875 9.175781 L 16.875 6.375 L 14.25 6.375 L 14.25 9.175781 L 9.175781 9.175781 L 9.175781 10.398438 L 14.25 10.398438 L 14.25 12.320312 L 10.226562 12.320312 L 10.226562 13.195312 L 18.449219 13.195312 L 17.746094 17.046875 C 17.746094 17.046875 13.898438 15.472656 11.796875 15.472656 C 9.695312 15.472656 7.070312 16.347656 6.898438 19.144531 C 6.722656 21.769531 8.125 23.347656 10.046875 23.871094 C 11.972656 24.398438 13.898438 23.871094 15.472656 22.996094 C 17.050781 22.121094 18.625 20.023438 18.625 20.023438 L 27.023438 24.574219 L 30 26.148438 L 30 21.597656 L 19.675781 17.578125 Z M 21.425781 12.152344 "/>
</clipPath>
</defs>
<g id="surface1">
<g clip-path="url(#clip1)" clip-rule="nonzero">
<g clip-path="url(#clip2)" clip-rule="evenodd">
<rect x="0" y="0" width="32" height="32" style="fill:rgb(0%,60.00061%,90.196228%);fill-opacity:1;stroke:none;"/>
</g>
</g>
<g clip-path="url(#clip3)" clip-rule="nonzero">
<g clip-path="url(#clip4)" clip-rule="evenodd">
<path style=" stroke:none;fill-rule:nonzero;fill:rgb(100%,100%,100%);fill-opacity:1;" d="M 1.882812 1.375 L 35 1.375 L 35 31.148438 L 1.882812 31.148438 Z M 1.882812 1.375 "/>
</g>
</g>
</g>
</svg>
