<svg width="48" height="48" viewBox="0 0 48 48" fill="none" xmlns="http://www.w3.org/2000/svg">
<path d="M1.5 12.75C1.5 6.5368 6.5368 1.5 12.75 1.5H35.25C41.4632 1.5 46.5 6.5368 46.5 12.75V35.25C46.5 41.4632 41.4632 46.5 35.25 46.5H12.75C6.5368 46.5 1.5 41.4632 1.5 35.25V12.75Z" fill="#D12D2D"/>
<path d="M32.2404 24.5618C30.2741 24.5618 28.3078 24.5618 26.3571 24.5618C25.8421 24.5618 25.8265 24.5774 25.8265 25.0927C25.8265 25.5143 25.8265 25.9204 25.8265 26.342C25.8265 26.8886 25.8421 26.8886 26.3727 26.8886C28.3546 26.8886 30.3209 26.8886 32.3028 26.8886C32.4277 26.8886 32.5681 26.8886 32.693 26.8886C33.1768 26.9042 33.2392 26.951 33.2392 27.4195C33.2392 28.0129 33.2236 28.622 33.2392 29.2154C33.2548 29.5902 33.1143 29.7307 32.7398 29.7307C31.3353 29.7151 29.9308 29.7307 28.5263 29.7307C27.7928 29.7307 27.0438 29.7463 26.3103 29.7463C25.9358 29.7463 25.8265 29.9025 25.8265 30.2617C25.8421 31.8545 25.8265 33.4317 25.8265 35.0246C25.8265 35.4774 25.9045 35.5555 26.3727 35.4462C28.1361 35.0402 29.7591 34.3375 31.1792 33.2287C33.0051 31.8076 34.316 29.9806 35.065 27.7787C35.4084 26.7793 35.2523 26.9042 36.3291 26.8886C36.8909 26.8886 37.4527 26.8886 37.9989 26.8886C38.3734 26.8886 38.4515 27.0135 38.3578 27.3883C37.4215 31.1362 35.3615 34.1345 32.1312 36.2739C28.6511 38.5851 24.8122 39.3034 20.7703 38.3664C15.8389 37.2264 12.3589 34.2438 10.377 29.5902C9.22215 26.8573 8.92564 23.9996 9.56547 21.095C10.8139 15.4732 14.2159 11.7097 19.6779 9.92944C25.5456 8.02428 32.0063 10.1325 35.7361 15.0672C37.5151 17.4252 38.4983 20.0799 38.7011 23.0314C38.7168 23.3437 38.748 23.656 38.7636 23.9683C38.7792 24.4993 38.7168 24.5618 38.2018 24.5618C36.2199 24.5618 34.2379 24.5618 32.2404 24.5618ZM17.2746 24.5618C15.8389 24.5618 14.4188 24.5618 12.9831 24.5618C12.3589 24.5618 12.3277 24.5774 12.4057 25.1864C12.671 27.6381 13.6073 29.8088 15.2303 31.6671C16.9157 33.6035 19.0225 34.8372 21.5194 35.3994C22.1748 35.5399 22.2372 35.5087 22.2372 34.8684C22.2372 33.3224 22.2372 31.7764 22.2372 30.2304C22.2372 29.8556 22.1124 29.7151 21.7378 29.7307C20.6923 29.7463 19.6623 29.7307 18.6167 29.7307C17.5087 29.7307 16.4007 29.7307 15.3083 29.7307C14.9494 29.7307 14.8246 29.6058 14.8246 29.2466C14.8402 28.6063 14.8402 27.9661 14.8246 27.3414C14.8246 27.0291 14.9494 26.8886 15.2615 26.9042C15.5424 26.9198 15.8389 26.9042 16.1198 26.9042C17.9925 26.9042 19.8652 26.9042 21.7378 26.9042C22.2216 26.9042 22.2372 26.873 22.2372 26.3889C22.2372 25.9516 22.2216 25.4987 22.2372 25.0615C22.2528 24.6867 22.0968 24.5618 21.7378 24.5618C20.2397 24.5774 18.7572 24.5618 17.2746 24.5618ZM29.0257 13.5212C28.932 13.4587 28.8852 13.3806 28.8228 13.365C27.9645 13.0839 27.1218 12.7247 26.2323 12.5373C24.7653 12.225 23.2516 12.225 21.7847 12.5373C20.9264 12.7247 20.0993 13.0527 19.2722 13.3338C19.0537 13.4118 19.0225 13.568 19.1629 13.7554C20.6923 15.7699 22.2216 17.7687 23.751 19.7832C23.9538 20.0487 24.0943 20.0643 24.3128 19.7676C25.7953 17.8 27.309 15.848 28.8072 13.8803C28.8852 13.771 28.9476 13.6617 29.0257 13.5212ZM26.9033 21.6572C27.0438 21.6884 27.0906 21.7196 27.1374 21.7196C29.7903 21.7196 32.4433 21.7196 35.0962 21.7196C35.3928 21.7196 35.4396 21.5791 35.3771 21.3136C34.8466 19.0649 33.723 17.1441 32.0688 15.5356C31.8347 15.317 31.6942 15.3014 31.4914 15.5825C30.0712 17.4408 28.6511 19.2991 27.231 21.1574C27.1218 21.3136 27.0438 21.4698 26.9033 21.6572ZM21.1136 21.6884C21.02 21.501 20.9732 21.3917 20.9107 21.298C19.4594 19.3928 17.9925 17.4877 16.5256 15.5669C16.3539 15.3482 16.2291 15.3014 15.995 15.52C14.3564 17.0816 13.2484 18.94 12.7022 21.1262C12.5617 21.6884 12.593 21.7196 13.186 21.7196C15.6517 21.7196 18.1329 21.7196 20.5986 21.7196C20.7547 21.7196 20.8795 21.704 21.1136 21.6884Z" fill="white"/>
</svg>
