<?xml version="1.0" encoding="UTF-8"?>
<svg xmlns="http://www.w3.org/2000/svg" xmlns:xlink="http://www.w3.org/1999/xlink" width="96pt" height="32pt" viewBox="0 0 96 32" version="1.1">
<g id="surface1">
<rect x="0" y="0" width="96" height="32" style="fill:rgb(100%,100%,100%);fill-opacity:1;stroke:none;"/>
<path style=" stroke:none;fill-rule:evenodd;fill:rgb(12.940979%,25.097656%,60.391235%);fill-opacity:1;" d="M 29.691406 23.105469 L 32.90625 23.105469 L 32.90625 8.632812 L 29.691406 8.632812 Z M 29.691406 23.105469 "/>
<path style=" stroke:none;fill-rule:evenodd;fill:rgb(12.940979%,25.097656%,60.391235%);fill-opacity:1;" d="M 52.25 18.019531 C 51.890625 17.082031 48.628906 8.628906 48.628906 8.628906 L 45.140625 8.632812 L 45.203125 8.789062 L 50.730469 23.105469 L 53.757812 23.105469 L 59.324219 8.632812 L 55.824219 8.632812 C 55.824219 8.632812 52.816406 16.460938 52.25 18.019531 Z M 52.25 18.019531 "/>
<path style=" stroke:none;fill-rule:evenodd;fill:rgb(12.940979%,25.097656%,60.391235%);fill-opacity:1;" d="M 44.324219 10.054688 C 42.96875 9.027344 41.324219 8.632812 38.425781 8.632812 L 34.53125 8.632812 L 34.53125 23.105469 L 38.21875 23.105469 C 41.089844 23.105469 42.59375 22.816406 43.902344 22 C 45.769531 20.820312 46.738281 18.671875 46.738281 15.851562 C 46.738281 13.253906 45.921875 11.273438 44.324219 10.054688 Z M 41.777344 20.078125 C 41.035156 20.59375 39.886719 20.863281 38.292969 20.863281 L 37.738281 20.863281 L 37.738281 10.875 L 38.191406 10.875 C 40.292969 10.878906 41.027344 11.039062 41.835938 11.617188 C 42.902344 12.410156 43.519531 13.957031 43.519531 15.871094 C 43.519531 17.78125 42.878906 19.324219 41.777344 20.078125 Z M 41.777344 20.078125 "/>
<path style=" stroke:none;fill-rule:evenodd;fill:rgb(12.940979%,25.097656%,60.391235%);fill-opacity:1;" d="M 25.019531 15.664062 C 26.835938 15.164062 27.742188 14.085938 27.730469 12.460938 C 27.730469 11.050781 26.960938 9.832031 25.648438 9.253906 C 24.542969 8.746094 23.375 8.582031 20.898438 8.582031 L 16 8.582031 L 16 23.054688 L 21.476562 23.054688 C 23.792969 23.054688 24.957031 22.867188 26.015625 22.339844 C 27.371094 21.640625 28.117188 20.441406 28.117188 19.011719 C 28.128906 17.253906 27.066406 16.128906 25.019531 15.664062 Z M 19.21875 10.859375 L 20.222656 10.859375 C 21.875 10.859375 22.980469 10.804688 23.59375 11.117188 C 24.160156 11.398438 24.507812 11.796875 24.507812 12.570312 C 24.507812 13.285156 24.191406 13.683594 23.617188 13.992188 C 23.117188 14.261719 21.84375 14.386719 20.355469 14.386719 L 19.21875 14.386719 Z M 23.753906 20.617188 C 23.164062 20.871094 22.191406 20.839844 20.492188 20.839844 L 19.214844 20.839844 L 19.214844 17.105469 L 20.515625 17.105469 C 21.878906 17.105469 22.992188 17.15625 23.660156 17.363281 C 24.472656 17.613281 24.894531 18.125 24.894531 18.980469 C 24.894531 19.96875 24.421875 20.332031 23.753906 20.617188 Z M 23.753906 20.617188 "/>
<path style=" stroke:none;fill-rule:evenodd;fill:rgb(100%,100%,100%);fill-opacity:1;" d="M 69.570312 6.152344 L 59.96875 15.726562 L 69.566406 25.292969 L 69.570312 25.292969 L 79.171875 15.726562 L 69.570312 6.15625 "/>
<path style=" stroke:none;fill-rule:evenodd;fill:rgb(92.939758%,11.372375%,14.117432%);fill-opacity:1;" d="M 67.96875 9.300781 L 67.964844 17.296875 L 71.175781 17.296875 L 71.179688 9.300781 L 69.640625 9.300781 "/>
<path style=" stroke:none;fill-rule:evenodd;fill:rgb(12.940979%,25.097656%,60.391235%);fill-opacity:1;" d="M 72.203125 15.730469 L 71.335938 15.734375 L 71.335938 10.894531 L 72.203125 10.894531 C 73.085938 10.894531 73.757812 11.980469 73.761719 13.3125 C 73.773438 14.613281 73.085938 15.730469 72.203125 15.730469 Z M 66.207031 10.890625 L 67.8125 10.890625 L 67.8125 15.734375 L 66.207031 15.730469 Z M 66.207031 10.890625 "/>
<path style=" stroke:none;fill-rule:evenodd;fill:rgb(92.939758%,11.372375%,14.117432%);fill-opacity:1;" d="M 59.320312 15.726562 L 59.402344 15.8125 L 69.1875 25.566406 L 69.570312 25.949219 L 69.957031 25.566406 L 79.824219 15.726562 L 69.574219 5.5 Z M 69.570312 25.292969 L 69.566406 25.292969 L 59.972656 15.726562 L 69.570312 6.152344 L 69.570312 6.15625 L 79.171875 15.726562 Z M 69.570312 25.292969 "/>
<path style=" stroke:none;fill-rule:evenodd;fill:rgb(92.939758%,11.372375%,14.117432%);fill-opacity:1;" d="M 69.570312 20.339844 L 64.941406 15.726562 L 60.402344 15.726562 L 68.398438 23.699219 L 69.570312 24.871094 L 78.742188 15.726562 L 74.199219 15.726562 "/>
</g>
</svg>
