<?xml version="1.0" encoding="UTF-8"?>
<svg xmlns="http://www.w3.org/2000/svg" xmlns:xlink="http://www.w3.org/1999/xlink" width="101pt" height="105pt" viewBox="0 0 101 105" version="1.1">
<g id="surface1">
<path style=" stroke:none;fill-rule:nonzero;fill:rgb(34.901428%,34.901428%,34.901428%);fill-opacity:1;" d="M 51.625 105 C 57.285156 105 62.019531 100.96875 63.109375 95.625 L 82.09375 95.625 L 82.09375 91.910156 C 82.09375 89.144531 81.015625 86.546875 79.0625 84.59375 C 77.996094 83.523438 77.40625 82.101562 77.40625 80.589844 L 77.40625 67.054688 C 78.183594 67.140625 78.964844 67.1875 79.75 67.1875 C 91.46875 67.1875 101 57.726562 101 46.09375 C 101 34.460938 91.46875 25 79.75 25 C 73.242188 25 67.417969 27.960938 63.542969 32.605469 C 60.570312 31.054688 57.320312 30.101562 53.96875 29.796875 L 53.96875 25 L 49.28125 25 L 49.28125 29.792969 C 36.074219 30.976562 25.6875 42.039062 25.6875 55.46875 L 25.6875 80.589844 C 25.6875 82.101562 25.097656 83.523438 24.03125 84.59375 C 22.078125 86.546875 21 89.144531 21 91.910156 L 21 95.625 L 40.140625 95.625 C 41.230469 100.96875 45.964844 105 51.625 105 Z M 51.625 100.3125 C 48.570312 100.3125 45.964844 98.351562 44.996094 95.625 L 58.253906 95.625 C 57.285156 98.351562 54.679688 100.3125 51.625 100.3125 Z M 79.75 29.6875 C 88.882812 29.6875 96.3125 37.046875 96.3125 46.09375 C 96.3125 55.140625 88.882812 62.5 79.75 62.5 C 75.632812 62.5 72.867188 60.914062 72.390625 60.753906 L 68.03125 61.84375 L 68.03125 57.496094 C 67.78125 57.101562 63.34375 53.082031 63.34375 46.09375 C 63.34375 37.046875 70.703125 29.6875 79.75 29.6875 Z M 27.34375 87.90625 C 29.296875 85.953125 30.375 83.355469 30.375 80.589844 L 30.375 55.46875 C 30.375 43.835938 39.90625 34.375 51.625 34.375 C 54.878906 34.375 58.0625 35.117188 60.945312 36.542969 C 59.484375 39.410156 58.65625 42.65625 58.65625 46.09375 C 58.65625 50.832031 60.316406 55.460938 63.34375 59.230469 L 63.34375 67.84375 L 71.988281 65.683594 C 72.230469 65.78125 72.472656 65.871094 72.71875 65.960938 L 72.71875 80.589844 C 72.71875 83.355469 73.796875 85.953125 75.75 87.90625 C 76.585938 88.742188 77.128906 89.796875 77.324219 90.9375 L 25.769531 90.9375 C 25.964844 89.796875 26.507812 88.742188 27.34375 87.90625 Z M 27.34375 87.90625 "/>
<path style=" stroke:none;fill-rule:evenodd;fill:rgb(18.823242%,18.823242%,18.823242%);fill-opacity:1;" d="M 79.75 29.6875 C 88.882812 29.6875 96.3125 37.046875 96.3125 46.09375 C 96.3125 55.140625 88.882812 62.5 79.75 62.5 C 75.632812 62.5 72.867188 60.914062 72.390625 60.753906 L 68.03125 61.84375 L 68.03125 57.496094 C 67.78125 57.101562 63.34375 53.082031 63.34375 46.09375 C 63.34375 37.046875 70.703125 29.6875 79.75 29.6875 Z M 79.75 29.6875 "/>
<path style=" stroke:none;fill-rule:nonzero;fill:rgb(34.901428%,34.901428%,34.901428%);fill-opacity:1;" d="M 68.03125 43.75 L 72.71875 43.75 L 72.71875 48.4375 L 68.03125 48.4375 Z M 68.03125 43.75 "/>
<path style=" stroke:none;fill-rule:nonzero;fill:rgb(34.901428%,34.901428%,34.901428%);fill-opacity:1;" d="M 77.40625 43.75 L 82.09375 43.75 L 82.09375 48.4375 L 77.40625 48.4375 Z M 77.40625 43.75 "/>
<path style=" stroke:none;fill-rule:nonzero;fill:rgb(34.901428%,34.901428%,34.901428%);fill-opacity:1;" d="M 86.78125 43.75 L 91.46875 43.75 L 91.46875 48.4375 L 86.78125 48.4375 Z M 86.78125 43.75 "/>
<path style=" stroke:none;fill-rule:nonzero;fill:rgb(34.901428%,34.901428%,34.901428%);fill-opacity:1;" d="M 17.195312 16.988281 L 16.488281 17.695312 C 15.707031 18.476562 15.707031 19.742188 16.488281 20.523438 L 23.5625 27.597656 C 24.339844 28.378906 25.609375 28.378906 26.390625 27.597656 L 27.097656 26.890625 C 27.878906 26.109375 27.878906 24.839844 27.097656 24.0625 L 20.023438 16.988281 C 19.242188 16.207031 17.976562 16.207031 17.195312 16.988281 Z M 17.195312 16.988281 "/>
<path style=" stroke:none;fill-rule:nonzero;fill:rgb(34.901428%,34.901428%,34.901428%);fill-opacity:1;" d="M 4.894531 34.519531 L 4.894531 35.519531 C 4.894531 36.625 5.789062 37.519531 6.894531 37.519531 L 16.894531 37.519531 C 17.996094 37.519531 18.894531 36.625 18.894531 35.519531 L 18.894531 34.519531 C 18.894531 33.417969 17.996094 32.519531 16.894531 32.519531 L 6.894531 32.519531 C 5.789062 32.519531 4.894531 33.417969 4.894531 34.519531 Z M 4.894531 34.519531 "/>
<path style=" stroke:none;fill-rule:nonzero;fill:rgb(34.901428%,34.901428%,34.901428%);fill-opacity:1;" d="M 35.019531 5.394531 L 34.019531 5.394531 C 32.917969 5.394531 32.019531 6.289062 32.019531 7.394531 L 32.019531 17.394531 C 32.019531 18.496094 32.917969 19.394531 34.019531 19.394531 L 35.019531 19.394531 C 36.125 19.394531 37.019531 18.496094 37.019531 17.394531 L 37.019531 7.394531 C 37.019531 6.289062 36.125 5.394531 35.019531 5.394531 Z M 35.019531 5.394531 "/>
</g>
</svg>
