<svg width="32" height="32" viewBox="0 0 32 32" fill="none" xmlns="http://www.w3.org/2000/svg">
<path d="M16 32C24.8366 32 32 24.8366 32 16C32 7.16344 24.8366 0 16 0C7.16344 0 0 7.16344 0 16C0 24.8366 7.16344 32 16 32Z" fill="white"/>
<path d="M3 15.7664C6.18376 12.5535 9.39162 9.3162 12.5926 6.08585C13.5406 7.04167 14.4832 7.99183 15.4208 8.93709C14.2485 10.1044 13.0472 11.3006 11.8378 12.5048C14.1735 14.8212 16.4424 17.0714 18.6709 19.2814C16.5745 21.3818 14.5704 23.3897 12.5889 25.3749C9.39686 22.1764 6.17783 18.9507 3 15.7664Z" fill="#173D7B"/>
<path d="M21.2529 23.2906C20.5722 23.974 19.8958 24.6531 19.2366 25.3149C18.6013 24.6744 17.9265 23.9938 17.2292 23.2906H21.2529ZM24.0031 20.4044C24.0444 20.4045 24.0857 20.4236 24.2431 20.4626C23.5287 21.1654 22.8779 21.8136 22.2142 22.4483C22.1322 22.5269 21.9814 22.5675 21.8621 22.568C20.1325 22.5753 18.4027 22.5732 16.6731 22.5712C16.6208 22.5712 16.5685 22.5503 16.4844 22.5323C17.1676 21.8329 17.8232 21.1545 18.4915 20.4891C18.56 20.4207 18.7047 20.4051 18.8141 20.4048C20.5438 20.4004 22.2735 20.4023 24.0031 20.4044ZM27.0617 17.5544C26.3474 18.2849 25.6899 18.9611 25.025 19.6299C24.972 19.6831 24.8677 19.7074 24.7871 19.7076C22.9874 19.7119 21.1879 19.7109 19.2726 19.7109C19.5565 19.4074 19.7596 19.1902 20.009 18.9234C19.5281 18.4981 19.0598 18.084 18.5915 17.6699C18.629 17.6313 18.6665 17.5929 18.704 17.5544H27.0617ZM27.1908 14.6361C27.6345 14.6339 27.9588 14.7476 28.2441 15.0841C28.4373 15.3118 28.6929 15.4866 28.9825 15.7391C28.5843 16.121 28.267 16.45 27.9194 16.7435C27.8147 16.832 27.6266 16.852 27.4765 16.8523C24.417 16.8583 21.3575 16.8589 18.298 16.8511C18.1372 16.8507 17.9304 16.814 17.8235 16.7119C17.1461 16.0658 16.4908 15.3965 15.739 14.6456H16.6269C20.1482 14.6457 23.6695 14.6538 27.1908 14.6361ZM24.5743 11.7915C24.7251 11.7918 24.9245 11.8026 25.0186 11.8938C25.699 12.553 26.358 13.2341 27.101 13.9864H26.6039C22.9256 13.9864 19.2471 13.9825 15.5688 13.9932C15.225 13.9942 14.9738 13.9051 14.7357 13.6506C14.2547 13.1362 13.7407 12.6526 13.1309 12.0478C13.4461 11.9367 13.6654 11.7927 13.8854 11.7919C17.4483 11.7796 21.0113 11.7843 24.5743 11.7915ZM17.9471 8.89975C19.1929 9.00367 20.4541 8.91254 21.7081 8.93459C21.9112 8.93819 22.1571 9.03953 22.3057 9.17854C22.946 9.77775 23.5575 10.4078 24.2576 11.1043H14.2197C14.6188 10.7022 14.991 10.404 15.2669 10.034C15.9484 9.12019 16.8058 8.8045 17.9471 8.89975ZM19.2741 6.20892C19.9065 6.85429 20.5777 7.53939 21.2628 8.23873H17.2625C17.9234 7.57182 18.6025 6.88664 19.2741 6.20892Z" fill="#978145"/>
</svg>
