<?xml version="1.0" encoding="UTF-8"?>
<svg xmlns="http://www.w3.org/2000/svg" xmlns:xlink="http://www.w3.org/1999/xlink" width="24pt" height="24pt" viewBox="0 0 24 24" version="1.1">
<defs>
<clipPath id="clip1">
  <path d="M 4 2 L 20 2 L 20 23 L 4 23 Z M 4 2 "/>
</clipPath>
<clipPath id="clip2">
  <path d="M 15.085938 9.03125 L 15.085938 7.015625 C 15.085938 6.171875 14.785156 5.445312 14.175781 4.835938 C 13.566406 4.226562 12.84375 3.921875 12 3.921875 C 11.15625 3.921875 10.433594 4.226562 9.824219 4.835938 C 9.214844 5.445312 8.914062 6.171875 8.914062 7.015625 L 8.914062 9.03125 Z M 12 18.03125 C 12.53125 18.03125 13 17.828125 13.402344 17.421875 C 13.808594 17.015625 14.011719 16.546875 14.011719 16.015625 C 14.011719 15.484375 13.808594 15.015625 13.402344 14.609375 C 13 14.203125 12.53125 14 12 14 C 11.46875 14 11 14.203125 10.597656 14.609375 C 10.191406 15.015625 9.988281 15.484375 9.988281 16.015625 C 9.988281 16.546875 10.191406 17.015625 10.597656 17.421875 C 11 17.828125 11.46875 18.03125 12 18.03125 Z M 17.988281 9.03125 C 18.519531 9.03125 18.988281 9.226562 19.390625 9.617188 C 19.796875 10.007812 20 10.46875 20 11 L 20 21.03125 C 20 21.5625 19.796875 22.023438 19.390625 22.414062 C 18.988281 22.804688 18.519531 23 17.988281 23 L 6.011719 23 C 5.480469 23 5.011719 22.804688 4.609375 22.414062 C 4.203125 22.023438 4 21.5625 4 21.03125 L 4 11 C 4 10.46875 4.203125 10.007812 4.609375 9.617188 C 5.011719 9.226562 5.480469 9.03125 6.011719 9.03125 L 6.996094 9.03125 L 6.996094 7.015625 C 6.996094 5.640625 7.484375 4.460938 8.46875 3.476562 C 9.449219 2.492188 10.628906 2 12 2 C 13.371094 2 14.550781 2.492188 15.53125 3.476562 C 16.515625 4.460938 17.003906 5.640625 17.003906 7.015625 L 17.003906 9.03125 Z M 17.988281 9.03125 "/>
</clipPath>
</defs>
<g id="surface1">
<g clip-path="url(#clip1)" clip-rule="nonzero">
<g clip-path="url(#clip2)" clip-rule="evenodd">
<rect x="0" y="0" width="24" height="24" style="fill:rgb(90.196228%,90.196228%,90.196228%);fill-opacity:1;stroke:none;"/>
</g>
</g>
</g>
</svg>
