<?xml version="1.0" encoding="UTF-8"?>
<svg xmlns="http://www.w3.org/2000/svg" xmlns:xlink="http://www.w3.org/1999/xlink" width="20pt" height="20pt" viewBox="0 0 20 20" version="1.1">
<defs>
<clipPath id="clip1">
  <path d="M 3 6 L 17 6 L 17 14 L 3 14 Z M 3 6 "/>
</clipPath>
<clipPath id="clip2">
  <path d="M 16.132812 7.226562 C 16.210938 7.148438 16.25 7.03125 16.25 6.875 C 16.25 6.691406 16.183594 6.542969 16.054688 6.425781 C 15.925781 6.308594 15.769531 6.25 15.585938 6.25 L 4.414062 6.25 C 4.230469 6.25 4.074219 6.308594 3.945312 6.425781 C 3.816406 6.542969 3.75 6.691406 3.75 6.875 C 3.75 7.003906 3.789062 7.109375 3.867188 7.1875 L 3.945312 7.304688 L 9.257812 13.398438 C 9.492188 13.632812 9.738281 13.75 10 13.75 C 10.261719 13.75 10.507812 13.632812 10.742188 13.398438 L 16.054688 7.304688 Z M 16.132812 7.226562 "/>
</clipPath>
</defs>
<g id="surface1">
<g clip-path="url(#clip1)" clip-rule="nonzero">
<g clip-path="url(#clip2)" clip-rule="evenodd">
<path style=" stroke:none;fill-rule:nonzero;fill:rgb(36.077881%,36.077881%,36.077881%);fill-opacity:1;" d="M -1.25 18.75 L 21.25 18.75 L 21.25 1.25 L -1.25 1.25 Z M -1.25 18.75 "/>
</g>
</g>
</g>
</svg>
