<svg width="10" height="6" viewBox="0 0 10 6" fill="none" xmlns="http://www.w3.org/2000/svg">
<path fill-rule="evenodd" clip-rule="evenodd" d="M9.90625 0.78125C9.96875 0.71875 10 0.625 10 0.5C10 0.354166 9.94792 0.234375 9.84375 0.140625C9.73958 0.0468745 9.61458 0 9.46875 0H0.53125C0.385416 0 0.260417 0.0468745 0.15625 0.140625C0.0520828 0.234375 0 0.354166 0 0.5C0 0.604167 0.0312497 0.6875 0.09375 0.75L0.15625 0.84375L4.40625 5.71875C4.59375 5.90625 4.79167 6 5 6C5.20833 6 5.40625 5.90625 5.59375 5.71875L9.84375 0.84375L9.90625 0.78125Z" fill="#9B9B9B"/>
</svg>
