<?xml version="1.0" encoding="UTF-8"?>
<svg xmlns="http://www.w3.org/2000/svg" xmlns:xlink="http://www.w3.org/1999/xlink" width="79pt" height="72pt" viewBox="0 0 79 72" version="1.1">
<defs>
<clipPath id="clip1">
  <path d="M 74.609375 44.515625 L 58.226562 36.324219 L 47.308594 5.75 C 46.089844 2.34375 42.839844 0.0507812 39.21875 0.0507812 C 35.59375 0.0507812 32.347656 2.34375 31.125 5.753906 L 20.210938 36.324219 L 3.828125 44.515625 C 1.464844 45.695312 0 48.066406 0 50.707031 C 0 53.34375 1.464844 55.714844 3.828125 56.898438 L 29.199219 69.585938 C 32.292969 71.128906 35.757812 71.949219 39.21875 71.949219 C 42.675781 71.949219 46.140625 71.128906 49.234375 69.585938 L 74.609375 56.898438 C 76.96875 55.714844 78.433594 53.34375 78.433594 50.707031 C 78.433594 48.066406 76.96875 45.695312 74.609375 44.515625 Z M 34.203125 6.851562 C 34.960938 4.738281 36.972656 3.320312 39.21875 3.320312 C 41.460938 3.320312 43.472656 4.738281 44.230469 6.851562 L 46.925781 14.402344 C 45.714844 15.269531 43.359375 16.390625 39.21875 16.390625 C 35.074219 16.390625 32.71875 15.269531 31.507812 14.402344 Z M 30.378906 17.558594 C 32.179688 18.636719 34.980469 19.660156 39.21875 19.660156 C 43.453125 19.660156 46.253906 18.636719 48.054688 17.558594 L 50.871094 25.449219 C 49.191406 27.867188 44.660156 29.464844 39.21875 29.464844 C 33.773438 29.464844 29.242188 27.867188 27.5625 25.449219 Z M 26.320312 28.929688 C 29.078125 31.320312 33.699219 32.730469 39.21875 32.730469 C 44.734375 32.730469 49.355469 31.320312 52.117188 28.929688 L 55.09375 37.273438 C 53.300781 39.898438 47.824219 42.535156 39.21875 42.535156 C 30.609375 42.535156 25.132812 39.898438 23.339844 37.273438 Z M 22.089844 40.769531 C 25.035156 43.441406 30.589844 45.804688 39.21875 45.804688 C 47.84375 45.804688 53.398438 43.441406 56.34375 40.769531 L 58.816406 47.695312 C 58.429688 52.535156 47.074219 55.609375 39.21875 55.609375 C 31.359375 55.609375 20.003906 52.535156 19.617188 47.695312 Z M 73.144531 53.972656 L 47.773438 66.660156 C 42.488281 69.304688 35.945312 69.304688 30.660156 66.660156 L 5.289062 53.972656 C 4.042969 53.351562 3.269531 52.097656 3.269531 50.707031 C 3.269531 49.3125 4.042969 48.0625 5.289062 47.4375 L 18.621094 40.773438 L 16.4375 46.890625 C 16.371094 47.066406 16.339844 47.25 16.339844 47.4375 C 16.339844 55.242188 29.992188 58.875 39.21875 58.875 C 48.445312 58.875 62.09375 55.242188 62.09375 47.4375 C 62.09375 47.25 62.0625 47.066406 61.996094 46.890625 L 59.8125 40.773438 L 73.144531 47.4375 C 74.390625 48.0625 75.164062 49.3125 75.164062 50.707031 C 75.164062 52.097656 74.390625 53.351562 73.144531 53.972656 Z M 73.144531 53.972656 "/>
</clipPath>
<clipPath id="clip2">
  <path d="M 27 17 L 51 17 L 51 30 L 27 30 Z M 27 17 "/>
</clipPath>
<clipPath id="clip3">
  <path d="M 30.378906 17.558594 C 32.179688 18.636719 34.980469 19.660156 39.21875 19.660156 C 43.453125 19.660156 46.253906 18.636719 48.054688 17.558594 L 50.871094 25.449219 C 49.191406 27.867188 44.660156 29.464844 39.21875 29.464844 C 33.773438 29.464844 29.242188 27.867188 27.5625 25.449219 Z M 30.378906 17.558594 "/>
</clipPath>
<clipPath id="clip4">
  <path d="M 19 40 L 59 40 L 59 56 L 19 56 Z M 19 40 "/>
</clipPath>
<clipPath id="clip5">
  <path d="M 22.089844 40.769531 C 25.035156 43.441406 30.589844 45.804688 39.21875 45.804688 C 47.84375 45.804688 53.398438 43.441406 56.34375 40.769531 L 58.816406 47.695312 C 58.429688 52.535156 47.074219 55.609375 39.21875 55.609375 C 31.359375 55.609375 20.003906 52.535156 19.617188 47.695312 Z M 22.089844 40.769531 "/>
</clipPath>
</defs>
<g id="surface1">
<g clip-path="url(#clip1)" clip-rule="nonzero">
<rect x="0" y="0" width="79" height="72" style="fill:rgb(34.901428%,34.901428%,34.901428%);fill-opacity:1;stroke:none;"/>
</g>
<g clip-path="url(#clip2)" clip-rule="nonzero">
<g clip-path="url(#clip3)" clip-rule="evenodd">
<path style=" stroke:none;fill-rule:nonzero;fill:rgb(18.823242%,18.823242%,18.823242%);fill-opacity:1;" d="M 22.5625 12.558594 L 55.871094 12.558594 L 55.871094 34.464844 L 22.5625 34.464844 Z M 22.5625 12.558594 "/>
</g>
</g>
<g clip-path="url(#clip4)" clip-rule="nonzero">
<g clip-path="url(#clip5)" clip-rule="evenodd">
<path style=" stroke:none;fill-rule:nonzero;fill:rgb(18.823242%,18.823242%,18.823242%);fill-opacity:1;" d="M 14.617188 35.769531 L 63.816406 35.769531 L 63.816406 60.609375 L 14.617188 60.609375 Z M 14.617188 35.769531 "/>
</g>
</g>
</g>
</svg>
