<svg width="32" height="32" viewBox="0 0 32 32" fill="none" xmlns="http://www.w3.org/2000/svg">
<path d="M16 32C24.8366 32 32 24.8366 32 16C32 7.16344 24.8366 0 16 0C7.16344 0 0 7.16344 0 16C0 24.8366 7.16344 32 16 32Z" fill="white"/>
<path d="M25.3628 23.5838C19.0258 16.6075 11.6 15.1983 3 19.0698C3.12744 18.9045 3.21744 18.7465 3.3447 18.6286C8.85612 13.5227 15.2989 11.0886 22.8385 11.9718C25.2073 12.2494 27.2701 13.2599 28.6851 15.2845C28.8707 15.55 28.9837 16.0521 28.8599 16.319C27.725 18.7632 26.5301 21.1797 25.3628 23.5838Z" fill="#0A348A"/>
<path d="M6.80542 12.5147C8.06866 12.1146 9.29392 11.796 10.3291 11.8876C11.2829 11.9636 12.0726 12.1783 12.7181 12.5147C14.7985 11.8741 16.7691 11.3654 18.3022 11.38C22.9665 10.8474 25.9169 12.514 25.9169 12.514C25.9169 12.514 26.6708 11.6983 26.4843 10.8425C26.2087 9.85453 24.9919 9.39031 23.2293 9.22993C20.4464 8.98783 18.0038 9.63583 15.8204 10.9621C13.9626 10.0412 12.1113 9.73771 10.2693 10.3945C8.92204 10.8301 7.86094 11.6686 6.80542 12.5147Z" fill="#68B93F"/>
</svg>
