<svg width="12" height="24" viewBox="0 0 12 24" fill="none" xmlns="http://www.w3.org/2000/svg">
<path d="M1.84391 4.72L1.06391 12.76H3.24391C3.52391 12.26 3.90391 11.9 4.40391 11.66C4.84391 11.44 5.38391 11.34 6.00391 11.34C6.92391 11.34 7.64391 11.6 8.12391 12.16C8.60391 12.7 8.86391 13.46 8.86391 14.42C8.86391 15.3 8.56391 16 8.00391 16.52C7.42391 17.04 6.70391 17.3 5.86391 17.3C5.08391 17.3 4.46391 17.12 4.02391 16.8C3.50391 16.42 3.20391 15.84 3.10391 15.06H0.803906C0.903906 16.38 1.46391 17.44 2.50391 18.22C3.42391 18.92 4.54391 19.28 5.84391 19.28C7.26391 19.28 8.48391 18.86 9.52391 18.02C10.6439 17.08 11.2039 15.88 11.2039 14.4C11.2039 12.86 10.7639 11.64 9.92391 10.76C9.08391 9.88 7.98391 9.44 6.64391 9.44C6.00391 9.44 5.42391 9.54 4.90391 9.74C4.32391 9.94 3.82391 10.26 3.38391 10.7H3.32391L3.72391 6.78H10.5439V4.72H1.84391Z" fill="#D90101"/>
</svg>
