<svg width="175" height="157" viewBox="0 0 175 157" fill="none" xmlns="http://www.w3.org/2000/svg">
<path d="M87.5 157C130.854 157 166 121.854 166 78.5C166 35.1456 130.854 0 87.5 0C44.1456 0 9 35.1456 9 78.5C9 121.854 44.1456 157 87.5 157Z" fill="#EDEDED"/>
<path opacity="0.202451" fill-rule="evenodd" clip-rule="evenodd" d="M21.0511 69H119.949C131.575 69 141 78.4021 141 90C141 101.598 131.575 111 119.949 111H21.0511C9.42496 111 0 101.598 0 90C0 78.4021 9.42496 69 21.0511 69Z" fill="#CCCCCC"/>
<path opacity="0.161389" fill-rule="evenodd" clip-rule="evenodd" d="M52.1598 59H153.84C165.526 59 175 68.4021 175 80C175 91.5979 165.526 101 153.84 101H52.1598C40.4736 101 31 91.5979 31 80C31 68.4021 40.4736 59 52.1598 59Z" fill="#A2A2A2"/>
<path fill-rule="evenodd" clip-rule="evenodd" d="M11 59C12.1045 59 13 59.8955 13 61C13 62.1045 12.1045 63 11 63C9.89547 63 9 62.1045 9 61C9 59.8955 9.89547 59 11 59Z" fill="#9A9A9A"/>
<path fill-rule="evenodd" clip-rule="evenodd" d="M125 133C126.105 133 127 133.895 127 135C127 136.105 126.105 137 125 137C123.895 137 123 136.105 123 135C123 133.895 123.895 133 125 133Z" fill="#9A9A9A"/>
<path fill-rule="evenodd" clip-rule="evenodd" d="M66 6C67.1045 6 68 6.89547 68 8C68 9.10453 67.1045 10 66 10C64.8955 10 64 9.10453 64 8C64 6.89547 64.8955 6 66 6Z" fill="#9A9A9A"/>
<path fill-rule="evenodd" clip-rule="evenodd" d="M38 120C39.1045 120 40 120.895 40 122C40 123.105 39.1045 124 38 124C36.8955 124 36 123.105 36 122C36 120.895 36.8955 120 38 120Z" fill="#939393"/>
<path fill-rule="evenodd" clip-rule="evenodd" d="M125 46C126.105 46 127 46.8955 127 48C127 49.1045 126.105 50 125 50C123.895 50 123 49.1045 123 48C123 46.8955 123.895 46 125 46Z" fill="#D8D8D8"/>
<path fill-rule="evenodd" clip-rule="evenodd" d="M104 109.975C103.901 117.325 95.9205 122.432 89.0142 118.804L77.2557 112.626C74.2781 111.063 70.7219 111.063 67.7443 112.626L55.9858 118.804C49.0795 122.432 41.0994 117.325 41 109.975C41.0048 109.404 41.0562 108.834 41.1534 108.271L41.5426 106C44.9688 109.384 49.3153 111.678 54.0852 111.72C62.3778 111.797 70.1222 105.245 78.233 106.965C82.2727 107.817 85.6506 110.656 89.642 111.706C94.4943 113.001 99.6932 111.496 103.903 108.666C103.966 109.099 103.998 109.536 104 109.975Z" fill="#D9D9D9"/>
<path fill-rule="evenodd" clip-rule="evenodd" d="M154 65C155.105 65 156 65.8955 156 67C156 68.1045 155.105 69 154 69C152.895 69 152 68.1045 152 67C152 65.8955 152.895 65 154 65Z" fill="#A7A7A7"/>
<path fill-rule="evenodd" clip-rule="evenodd" d="M75.3886 135.777L71.3172 139.149C70.46 139.854 71.6858 141.06 72.5286 140.36L76.6 136.98C77.4572 136.274 76.2315 135.069 75.3886 135.769V135.777Z" fill="white"/>
<path fill-rule="evenodd" clip-rule="evenodd" d="M76.2515 139.497L72.8801 135.426C72.1744 134.569 70.9687 135.794 71.6687 136.637L75.0401 140.709C75.7458 141.566 76.9515 140.34 76.2515 139.497Z" fill="white"/>
<path fill-rule="evenodd" clip-rule="evenodd" d="M121.389 17.7772L117.317 21.1487C116.46 21.8544 117.686 23.0601 118.529 22.3601L122.6 18.9801C123.457 18.2744 122.231 17.0687 121.389 17.7687V17.7772Z" fill="white"/>
<path fill-rule="evenodd" clip-rule="evenodd" d="M122.252 21.4973L118.88 17.4258C118.174 16.5687 116.969 17.7944 117.669 18.6373L121.04 22.7087C121.746 23.5658 122.952 22.3401 122.252 21.4973Z" fill="white"/>
<path fill-rule="evenodd" clip-rule="evenodd" d="M75.5 31C101.181 31 122 51.5949 122 77C122 102.405 101.181 123 75.5 123C49.8188 123 29 102.405 29 77C29 51.5949 49.8188 31 75.5 31Z" fill="#F4C500"/>
<path fill-rule="evenodd" clip-rule="evenodd" d="M77 122.955C76.178 123 75.356 123 74.5797 123C48.8695 123 28 102.39 28 77C28 51.6098 48.8695 31 74.5797 31C75.4017 31 76.2237 31 77 31.0451C51.2898 32.3529 31.562 54 32.8863 79.3902C34.1193 102.931 53.1622 121.737 77 122.955Z" fill="#F4BD40"/>
<path fill-rule="evenodd" clip-rule="evenodd" d="M76 39C97.5391 39 115 56.0131 115 77C115 97.9869 97.5391 115 76 115C54.4609 115 37 97.9869 37 77C37 56.0131 54.4609 39 76 39Z" fill="#F4C500"/>
<path fill-rule="evenodd" clip-rule="evenodd" d="M38.7943 74.8195C37.5984 94.8084 53.0534 112.026 73.2921 113.207C93.5769 114.388 110.964 99.1242 112.16 79.1353C113.356 59.1009 97.9466 41.9286 77.6619 40.7475C57.3771 39.5663 39.9902 54.8306 38.7943 74.8195ZM35.0685 74.6378C36.3565 52.6045 55.5832 35.7957 77.8918 37.0677C100.2 38.3397 117.219 57.3292 115.931 79.3624C114.644 101.35 95.3708 118.204 73.1082 116.932C50.7995 115.615 33.7806 96.6256 35.0685 74.6378Z" fill="#474747"/>
<path fill-rule="evenodd" clip-rule="evenodd" d="M75 32.4839C50.4102 32.4839 30.4026 52.6999 30.4026 77.5458C30.4026 102.392 50.4102 122.608 75 122.608C99.5898 122.608 119.597 102.392 119.597 77.5458C119.597 52.6999 99.5898 32.4839 75 32.4839ZM75 126C48.5501 126 27 104.225 27 77.5C27 50.7746 48.5501 29 75 29C101.45 29 123 50.7746 123 77.5C123 104.225 101.45 126 75 126Z" fill="#474747"/>
<path fill-rule="evenodd" clip-rule="evenodd" d="M100.5 34C126.181 34 147 54.5949 147 80C147 105.405 126.181 126 100.5 126C74.8188 126 54 105.405 54 80C54 54.5949 74.8188 34 100.5 34Z" fill="#EFAB00"/>
<path fill-rule="evenodd" clip-rule="evenodd" d="M104 127.955C103.178 128 102.356 128 101.58 128C75.8695 128 55 107.39 55 82C55 56.6098 75.8695 36 101.58 36C102.402 36 103.224 36 104 36.0451C78.2898 37.3529 58.562 59 59.8863 84.3902C61.165 107.931 80.1622 126.737 104 127.955Z" fill="#F4BD40"/>
<path fill-rule="evenodd" clip-rule="evenodd" d="M102 41C123.539 41 141 58.0131 141 79C141 99.9869 123.539 117 102 117C80.4609 117 63 99.9869 63 79C63 58.0131 80.4609 41 102 41Z" fill="#F4C500"/>
<path opacity="0.164202" fill-rule="evenodd" clip-rule="evenodd" d="M138 80.547C138 101.264 120.964 118 100.06 118C84.6697 118 70.8433 108.901 65 94.8456C70.1024 92.0023 76.1105 91.5147 81.6246 93.4645C85.6571 94.9267 89.1139 97.6078 93.1464 98.9889C101.87 101.995 112.405 97.5267 116.766 89.4838C121.046 81.4405 119.153 70.6354 112.487 64.2986C109.113 61.0488 104.751 58.8552 100.389 57.2304C92.0769 54.1433 83.188 52.7621 74.2997 53.087C89.6078 38.9506 113.639 39.7631 127.959 54.9557C134.379 61.9423 138 71.123 138 80.547Z" fill="#877113"/>
<path fill-rule="evenodd" clip-rule="evenodd" d="M102.662 43.7475C82.377 42.5663 64.9901 57.8305 63.7941 77.8194C62.5982 97.8083 78.0533 115.026 98.2921 116.207C118.577 117.388 135.964 102.124 137.16 82.1352C138.356 62.1009 122.901 44.9286 102.662 43.7475ZM98.1081 119.932C75.8454 118.615 58.7804 99.6254 60.0684 77.6377C61.4023 55.6045 80.5831 38.7957 102.892 40.0677C125.2 41.3397 142.219 60.3291 140.931 82.3623C139.644 104.396 120.371 121.204 98.1081 119.932Z" fill="#474747"/>
<path fill-rule="evenodd" clip-rule="evenodd" d="M101 35.4839C76.4102 35.4839 56.4026 55.6999 56.4026 80.5458C56.4026 105.392 76.4102 125.608 101 125.608C125.59 125.608 145.597 105.392 145.597 80.5458C145.597 55.6999 125.544 35.4839 101 35.4839ZM101 129C74.5501 129 53 107.225 53 80.5C53 53.7746 74.5501 32 101 32C127.45 32 149 53.7746 149 80.5C149 107.225 127.45 129 101 129Z" fill="#474747"/>
<path fill-rule="evenodd" clip-rule="evenodd" d="M130.194 91.6745C130.694 90.5114 131.094 89.4453 131.444 88.3791C131.594 87.8461 131.794 87.3615 131.894 86.9253C131.994 86.4892 132.144 86.053 132.294 85.6169C132.744 84.0177 133.094 83 133.444 83C133.794 83 134.044 84.1146 133.994 85.8592C133.994 86.3438 133.944 86.8284 133.894 87.313C133.844 87.8461 133.744 88.3791 133.594 88.9607C133.044 91.4322 131.994 93.8067 130.544 95.939C130.194 96.4236 129.894 96.8598 129.544 97.2959C129.244 97.6836 128.894 98.0228 128.544 98.362C127.244 99.622 126.244 100.155 126.044 99.9612C125.844 99.7674 126.344 98.7982 127.194 97.3928C127.394 97.0536 127.644 96.6659 127.894 96.2298C128.144 95.7936 128.394 95.3575 128.644 94.8729C129.144 93.8552 129.694 92.7891 130.194 91.6745Z" fill="white"/>
<path fill-rule="evenodd" clip-rule="evenodd" d="M131.642 74.1705C131.071 71.4979 130.72 69.2473 131.291 69.0129C131.554 68.9191 131.993 69.3411 132.475 70.1851C133.616 72.3888 134.142 74.9207 133.967 77.4058C133.879 78.3905 133.66 78.9531 133.353 79C132.738 79 132.168 76.8432 131.642 74.1705Z" fill="white"/>
<path d="M102.989 99V94.4662C106.15 94.1861 108.609 93.3346 110.366 91.9118C112.122 90.489 113 88.6055 113 86.2612C113 84.9637 112.706 83.8285 112.118 82.8554C111.53 81.8822 110.606 80.9902 109.346 80.1793C108.086 79.3684 105.967 78.41 102.989 77.3042V70.78C105.494 70.9865 107.937 71.5615 110.32 72.5051L112.473 67.3299C109.648 66.1209 106.486 65.4427 102.989 65.2953V62H99.8506V65.3837C96.7503 65.6786 94.3335 66.5153 92.6001 67.8939C90.8667 69.2725 90 71.0307 90 73.1686C90 75.159 90.63 76.8288 91.8899 78.1778C93.1499 79.5269 95.2918 80.7764 98.3157 81.9265L99.8506 82.5015V89.3574C98.3845 89.269 96.716 88.9815 94.8451 88.4949C92.9743 88.0084 91.3745 87.4481 90.0458 86.8141V92.6527C92.8559 93.847 96.1242 94.481 99.8506 94.5547V99H102.989ZM99.8506 76.0658C98.8121 75.6234 98.0599 75.1922 97.5941 74.772C97.1283 74.3518 96.8954 73.8173 96.8954 73.1686C96.8954 71.9153 97.8805 71.1486 99.8506 70.8685V76.0658ZM102.989 89.2026V83.6958C104.028 84.1528 104.806 84.5951 105.326 85.0227C105.845 85.4503 106.105 85.9737 106.105 86.5929C106.105 87.9936 105.066 88.8635 102.989 89.2026Z" fill="white"/>
</svg>
