<svg width="32" height="32" viewBox="0 0 32 32" fill="none" xmlns="http://www.w3.org/2000/svg">
<path d="M16 32C24.8366 32 32 24.8366 32 16C32 7.16344 24.8366 0 16 0C7.16344 0 0 7.16344 0 16C0 24.8366 7.16344 32 16 32Z" fill="white"/>
<path d="M5.15848 17.9619C5.82352 18.0558 6.70665 17.909 7.11744 18.2823C9.59952 20.5365 12.0051 22.8788 14.3557 25.2708C14.803 25.7261 14.8889 26.5362 15.1418 27.1824C14.9762 27.3476 14.811 27.5122 14.6454 27.677C14.0016 27.412 13.2204 27.2983 12.7376 26.8572C10.2614 24.5953 7.82387 22.2871 5.4757 19.8941C5.10178 19.5129 5.251 18.619 5.15848 17.9619ZM14.9859 20.9066C16.772 22.5264 18.4739 24.2394 20.189 25.9368C20.2965 26.0433 20.3035 26.2516 20.4888 26.8092C19.8857 27.0099 19.0064 27.5511 18.7626 27.3438C16.9243 25.7838 15.1883 24.0982 13.4895 22.3831C13.3059 22.1977 13.4137 21.3974 13.6509 21.1991C13.9744 20.9292 14.7762 20.7167 14.9859 20.9066ZM17.0337 18.0388C17.4093 18.2565 17.7986 18.397 18.0761 18.6569C19.5109 20.0009 20.9721 21.3247 22.2945 22.7737C22.6208 23.132 22.4646 23.9299 22.5307 24.5257C21.9252 24.4711 21.1279 24.643 20.7495 24.3216C19.2532 23.0523 17.8504 21.6642 16.5005 20.237C16.1589 19.876 16.0344 19.2092 16.0302 18.6812C16.0285 18.4805 16.6459 18.2746 17.0337 18.0388ZM20.4404 15.9385C21.9715 17.2377 23.4011 18.6575 24.8463 20.0558C25.1231 20.3236 25.304 20.6902 25.5816 21.0857C25.3322 21.4404 25.1722 21.9138 24.8734 22.0304C24.5068 22.173 23.8706 22.189 23.6164 21.9625C21.9864 20.5111 20.3844 19.021 18.8894 17.4342C18.6014 17.1284 18.8296 16.3364 18.8198 15.7688C19.3701 15.8133 20.0981 15.6481 20.4404 15.9385ZM22.9692 13.291C24.4815 14.5403 25.9435 15.8704 27.2735 17.3097C27.7149 17.7876 27.7076 18.6805 27.9052 19.3831C27.757 19.4962 27.6088 19.6085 27.4603 19.7209C26.8624 19.4697 26.1487 19.3497 25.6888 18.9431C24.2179 17.6426 22.7942 16.2795 21.4645 14.837C21.1761 14.524 21.3553 13.7796 21.3195 13.2339C21.8801 13.2398 22.6328 13.013 22.9692 13.291ZM5.10947 12.7501C5.67295 12.8047 6.41625 12.6489 6.76895 12.9501C8.30878 14.2656 9.74634 15.7021 11.1926 17.1236C11.4653 17.3922 11.6096 17.7915 12.1074 18.6193C11.194 18.7751 10.3025 19.2036 9.97382 18.9372C8.26843 17.555 6.65904 16.0419 5.1373 14.4583C4.84825 14.1574 5.1046 13.333 5.10947 12.7501ZM8.48613 9.63763C8.81726 9.87833 9.0677 10.0209 9.27013 10.214C10.7362 11.6108 12.2482 12.967 13.612 14.4585C13.9494 14.8275 13.7957 15.6463 13.8674 16.2582C13.2614 16.1962 12.4632 16.3587 12.083 16.0328C10.5491 14.7173 9.11431 13.2808 7.71744 11.8171C7.44335 11.5295 7.33274 10.8696 7.45761 10.4818C7.56926 10.1347 8.11048 9.92598 8.48613 9.63763ZM18.657 4.34772C19.0598 4.57833 19.4539 4.71433 19.7293 4.97554L22.2496 7.36287C23.9272 8.95707 25.5938 10.5626 27.2121 12.2152C27.5822 12.594 27.4208 13.4931 27.5053 14.1515C26.8525 14.0322 25.9989 14.1355 25.5787 13.7575C23.1276 11.5522 20.7481 9.26389 18.4212 6.92754C17.9975 6.5018 17.8448 5.73589 17.7471 5.09937C17.7179 4.9105 18.3036 4.62667 18.657 4.34772ZM11.9056 6.80493C13.2367 8.34024 14.7901 10.0435 16.2173 11.8463C16.5352 12.2484 16.6809 13.191 16.4291 13.5542C15.9282 14.2762 15.2082 14.111 14.556 13.4397C13.2747 12.1194 11.8865 10.9027 10.603 9.58441C9.28892 8.2352 9.39813 7.90059 11.9056 6.80493ZM14.0812 4.78278C15.8033 6.30765 17.4836 7.8826 19.1097 9.50939C19.3195 9.71913 19.2541 10.3595 19.1108 10.7184C18.9883 11.0242 18.5702 11.2116 18.3431 11.4012C18.0196 11.3059 17.8095 11.3066 17.6986 11.2019C15.988 9.58208 14.2568 7.98034 12.6308 6.27843C12.4294 6.06765 12.6944 5.23739 12.9567 4.83252C13.0815 4.63947 13.8655 4.59182 14.0812 4.78278Z" fill="#D91B1B"/>
</svg>
