<?xml version="1.0" encoding="UTF-8"?>
<svg xmlns="http://www.w3.org/2000/svg" xmlns:xlink="http://www.w3.org/1999/xlink" width="31.199951pt" height="32pt" viewBox="0 0 31.199951 32" version="1.1">
<defs>
<clipPath id="clip1">
  <path d="M 0 0 L 31.199219 0 L 31.199219 32 L 0 32 Z M 0 0 "/>
</clipPath>
</defs>
<g id="surface1">
<g clip-path="url(#clip1)" clip-rule="nonzero">
<path style=" stroke:none;fill-rule:nonzero;fill:rgb(7.450867%,7.450867%,7.450867%);fill-opacity:1;" d="M 27.5 13.753906 C 27.53125 13.636719 27.535156 13.511719 27.535156 13.382812 L 27.535156 12.015625 C 27.535156 8.78125 26.316406 5.757812 24.070312 3.5 C 21.824219 1.242188 18.816406 0 15.589844 0 C 12.363281 0 9.371094 1.242188 7.125 3.5 C 4.878906 5.757812 3.664062 8.78125 3.664062 12.015625 L 3.664062 13.382812 C 3.664062 13.511719 3.667969 13.636719 3.699219 13.753906 C 1.644531 13.914062 0 16.113281 0 18.792969 C 0 21.484375 1.644531 23.695312 3.714844 23.839844 C 4.269531 24.585938 5.160156 25.042969 6.113281 25.042969 C 7.765625 25.042969 9.105469 23.691406 9.105469 22.035156 L 9.105469 15.554688 C 9.105469 13.949219 7.878906 12.632812 6.296875 12.550781 L 6.296875 12.015625 C 6.296875 6.757812 10.363281 2.640625 15.601562 2.640625 C 20.835938 2.640625 24.902344 6.757812 24.902344 12.015625 L 24.902344 12.550781 C 23.320312 12.632812 22.09375 13.949219 22.09375 15.554688 L 22.09375 22.035156 C 22.09375 23.121094 22.667969 24.070312 23.527344 24.601562 C 22.546875 26.046875 21.171875 27.1875 19.539062 27.886719 C 19.09375 27.390625 18.445312 27.074219 17.726562 27.074219 L 14.351562 27.074219 C 13.007812 27.074219 11.914062 28.167969 11.914062 29.515625 L 11.914062 29.558594 C 11.914062 30.90625 13.007812 32 14.351562 32 L 17.726562 32 C 18.714844 32 19.566406 31.40625 19.949219 30.558594 C 21.5625 29.96875 23.035156 29.039062 24.273438 27.796875 C 25.199219 26.875 25.953125 25.820312 26.519531 24.675781 C 26.898438 24.472656 27.230469 24.1875 27.488281 23.839844 C 29.558594 23.691406 31.199219 21.484375 31.199219 18.792969 C 31.199219 16.113281 29.554688 13.914062 27.5 13.753906 Z M 27.5 13.753906 "/>
</g>
</g>
</svg>
