<?xml version="1.0" encoding="UTF-8"?>
<svg xmlns="http://www.w3.org/2000/svg" xmlns:xlink="http://www.w3.org/1999/xlink" width="32pt" height="32pt" viewBox="0 0 32 32" version="1.1">
<defs>
<clipPath id="clip1">
  <path d="M 3 7 L 29 7 L 29 24 L 3 24 Z M 3 7 "/>
</clipPath>
<clipPath id="clip2">
  <path d="M 28.390625 13.355469 C 28.726562 13.355469 29 13.621094 29 13.953125 L 29 20.558594 C 29 22.457031 27.429688 24 25.492188 24 L 6.507812 24 C 4.570312 24 3 22.457031 3 20.558594 L 3 13.953125 C 3 13.621094 3.273438 13.355469 3.609375 13.355469 Z M 9.492188 16.050781 L 7.863281 16.050781 C 7.273438 16.050781 6.796875 16.519531 6.796875 17.097656 C 6.796875 17.675781 7.273438 18.144531 7.863281 18.144531 L 9.492188 18.144531 C 10.082031 18.144531 10.558594 17.675781 10.558594 17.097656 C 10.558594 16.519531 10.082031 16.050781 9.492188 16.050781 Z M 25.492188 7 C 27.429688 7 29 8.542969 29 10.441406 L 29 10.660156 C 29 10.988281 28.726562 11.257812 28.390625 11.257812 L 3.609375 11.257812 C 3.273438 11.257812 3 10.988281 3 10.660156 L 3 10.441406 C 3 8.542969 4.570312 7 6.507812 7 Z M 25.492188 7 "/>
</clipPath>
</defs>
<g id="surface1">
<g clip-path="url(#clip1)" clip-rule="nonzero">
<g clip-path="url(#clip2)" clip-rule="nonzero">
<path style=" stroke:none;fill-rule:nonzero;fill:rgb(36.077881%,36.077881%,36.077881%);fill-opacity:1;" d="M -2 2 L 34 2 L 34 29 L -2 29 Z M -2 2 "/>
</g>
</g>
</g>
</svg>
