<?xml version="1.0" encoding="UTF-8"?>
<svg xmlns="http://www.w3.org/2000/svg" xmlns:xlink="http://www.w3.org/1999/xlink" width="32pt" height="32pt" viewBox="0 0 32 32" version="1.1">
<g id="surface1">
<path style=" stroke:none;fill-rule:nonzero;fill:rgb(100%,84.312439%,44.7052%);fill-opacity:1;" d="M 26.714844 1 L 5.285156 1 C 2.917969 1 1 2.917969 1 5.285156 L 1 26.714844 C 1 29.082031 2.917969 31 5.285156 31 L 26.714844 31 C 29.082031 31 31 29.082031 31 26.714844 L 31 5.285156 C 31 2.917969 29.082031 1 26.714844 1 Z M 26.714844 1 "/>
<path style=" stroke:none;fill-rule:nonzero;fill:rgb(7.450867%,7.450867%,7.450867%);fill-opacity:1;" d="M 16.515625 14.199219 C 14.046875 14.199219 11.570312 14.199219 9.105469 14.199219 C 8.445312 14.199219 7.78125 14.183594 7.125 14.183594 C 6.890625 14.183594 6.660156 14.191406 6.433594 14.191406 C 6.320312 14.191406 6.289062 14.242188 6.296875 14.339844 C 6.296875 14.566406 6.296875 14.792969 6.296875 15.019531 C 6.296875 17.367188 6.296875 19.714844 6.296875 22.054688 C 6.296875 22.199219 6.332031 22.226562 6.476562 22.226562 C 7.195312 22.222656 7.910156 22.226562 8.628906 22.226562 C 8.71875 22.226562 8.816406 22.234375 8.90625 22.234375 C 11.367188 22.234375 13.828125 22.234375 16.28125 22.234375 C 16.417969 22.234375 16.558594 22.222656 16.695312 22.214844 C 16.816406 22.207031 16.898438 22.242188 16.914062 22.363281 C 16.945312 22.507812 16.976562 22.660156 16.976562 22.808594 C 16.976562 23.109375 16.945312 23.40625 16.929688 23.707031 C 16.914062 23.972656 16.886719 24.015625 16.613281 24.015625 C 13.089844 24.015625 9.570312 24.023438 6.046875 24.007812 C 5.625 24.007812 5.230469 23.796875 4.96875 23.457031 C 4.808594 23.261719 4.734375 23.003906 4.613281 22.777344 C 4.453125 22.484375 4.507812 22.167969 4.507812 21.859375 C 4.507812 17.308594 4.507812 12.765625 4.515625 8.226562 C 4.515625 7.570312 4.824219 7.074219 5.40625 6.734375 C 5.699219 6.558594 6.015625 6.515625 6.328125 6.515625 C 12.460938 6.5 18.605469 6.5 24.757812 6.5 C 25.222656 6.5 25.667969 6.636719 26 6.976562 C 26.199219 7.171875 26.347656 7.40625 26.445312 7.691406 C 26.582031 8.101562 26.539062 8.507812 26.546875 8.914062 C 26.554688 10.546875 26.546875 12.175781 26.546875 13.796875 C 26.546875 14.109375 26.460938 14.191406 26.152344 14.191406 C 22.945312 14.199219 19.730469 14.199219 16.515625 14.199219 Z M 15.511719 10.046875 C 18.515625 10.046875 21.527344 10.046875 24.53125 10.046875 C 24.773438 10.046875 24.773438 10.046875 24.773438 9.804688 C 24.773438 9.40625 24.773438 9 24.773438 8.597656 C 24.773438 8.273438 24.765625 8.273438 24.441406 8.28125 C 24.410156 8.28125 24.378906 8.28125 24.347656 8.28125 C 18.402344 8.28125 12.453125 8.28125 6.5 8.28125 C 6.339844 8.28125 6.289062 8.328125 6.289062 8.484375 C 6.296875 8.839844 6.289062 9.203125 6.289062 9.554688 C 6.289062 10.054688 6.289062 10.054688 6.777344 10.054688 C 9.683594 10.046875 12.597656 10.046875 15.511719 10.046875 Z M 15.511719 10.046875 "/>
<path style=" stroke:none;fill-rule:nonzero;fill:rgb(100%,84.312439%,44.7052%);fill-opacity:1;" d="M 15.511719 10.046875 C 12.597656 10.046875 9.683594 10.046875 6.78125 10.046875 C 6.289062 10.046875 6.289062 10.046875 6.289062 9.550781 C 6.289062 9.195312 6.296875 8.832031 6.289062 8.476562 C 6.289062 8.320312 6.339844 8.273438 6.5 8.273438 C 12.449219 8.273438 18.394531 8.273438 24.347656 8.273438 C 24.378906 8.273438 24.410156 8.273438 24.441406 8.273438 C 24.773438 8.265625 24.773438 8.265625 24.773438 8.589844 C 24.773438 8.992188 24.773438 9.398438 24.773438 9.796875 C 24.773438 10.039062 24.773438 10.039062 24.53125 10.039062 C 21.519531 10.046875 18.515625 10.046875 15.511719 10.046875 Z M 15.511719 10.046875 "/>
<path style=" stroke:none;fill-rule:nonzero;fill:rgb(7.450867%,7.450867%,7.450867%);fill-opacity:1;" d="M 29 20.5 C 29 23.539062 26.539062 26 23.5 26 C 20.460938 26 18 23.539062 18 20.5 C 18 17.460938 20.460938 15 23.5 15 C 26.539062 15 29 17.460938 29 20.5 Z M 29 20.5 "/>
<path style=" stroke:none;fill-rule:nonzero;fill:rgb(97.253418%,98.03772%,98.431396%);fill-opacity:1;" d="M 20.199219 20.917969 C 20.28125 20.910156 20.351562 20.902344 20.421875 20.902344 C 20.808594 20.902344 21.199219 20.902344 21.582031 20.902344 C 21.984375 20.902344 22.039062 20.847656 22.039062 20.4375 C 22.039062 19.847656 22.039062 19.257812 22.039062 18.679688 C 22.039062 18.410156 22.046875 18.132812 22.054688 17.867188 C 22.054688 17.832031 22.109375 17.777344 22.15625 17.769531 C 22.21875 17.75 22.289062 17.75 22.351562 17.75 C 23.136719 17.75 23.929688 17.75 24.714844 17.75 C 24.921875 17.75 24.984375 17.8125 24.984375 18.019531 C 24.976562 18.839844 24.984375 19.652344 24.984375 20.472656 C 24.984375 20.855469 25.046875 20.929688 25.441406 20.917969 C 25.867188 20.917969 26.304688 20.910156 26.734375 20.910156 C 26.777344 20.910156 26.8125 20.917969 26.824219 20.917969 C 25.734375 22.035156 24.636719 23.148438 23.519531 24.285156 C 22.40625 23.148438 21.316406 22.042969 20.199219 20.917969 Z M 20.199219 20.917969 "/>
</g>
</svg>
