<svg width="32" height="32" viewBox="0 0 32 32" fill="none" xmlns="http://www.w3.org/2000/svg">
<path d="M16 32C24.8366 32 32 24.8366 32 16C32 7.16344 24.8366 0 16 0C7.16344 0 0 7.16344 0 16C0 24.8366 7.16344 32 16 32Z" fill="white"/>
<path d="M18.5886 11.7633H11.5992V20.0014C11.8693 19.8942 12.1171 19.7901 12.3689 19.6968C13.4483 19.2969 14.5486 18.9982 15.7127 19.0008C16.284 19.002 16.8329 19.1031 17.3478 19.3523C18.1282 19.7301 18.9018 20.1217 19.6821 20.4995C20.5573 20.9232 21.4521 21.2981 22.4335 21.3846C23.7487 21.5006 24.9386 21.1339 26.0215 20.3969C26.1267 20.3253 26.2181 20.2299 26.304 20.1349C26.3898 20.04 26.4607 19.9316 26.5608 19.7993C26.5684 19.875 26.5782 19.9279 26.5783 19.9808C26.5789 21.7163 26.5804 23.4519 26.5739 25.1874C26.5736 25.2633 26.5192 25.3765 26.4569 25.4093C24.9659 26.1943 23.4056 26.7151 21.6905 26.6034C20.7734 26.5437 19.9058 26.2912 19.0775 25.8967C18.5273 25.6347 17.9898 25.3374 17.4209 25.1251C16.3717 24.7336 15.2807 24.5045 14.1546 24.619C13.1699 24.7191 12.2393 25.0401 11.34 25.4488C11.1304 25.544 10.9186 25.6362 10.7169 25.7466C10.5894 25.8163 10.5114 25.8037 10.4071 25.6974C9.23467 24.5018 8.05647 23.3118 6.87986 22.1203C6.2987 21.5318 5.71391 20.9468 5.14076 20.3505C5.06213 20.2688 4.99944 20.1312 5 20.0198C5.01413 17.3488 5.0367 14.6777 5.06481 12.0067C5.06583 11.9119 5.11509 11.7937 5.18221 11.727C7.07292 9.84977 8.96807 7.977 10.8672 6.10834C10.9302 6.04638 11.0426 6.00424 11.1321 6.00404C13.7693 5.99863 16.4066 5.99863 19.0438 6.0042C19.1334 6.0044 19.2438 6.04915 19.3093 6.11065C21.2766 7.95723 23.2401 9.80787 25.2 11.6623C25.26 11.719 25.3069 11.8227 25.3071 11.9047C25.3127 14.3859 25.3123 16.8673 25.3075 19.3486C25.3073 19.4144 25.263 19.5178 25.2115 19.5404C24.033 20.0584 22.8147 20.3377 21.5337 20.0165C20.5422 19.7678 19.6124 19.3609 18.759 18.7888C18.6329 18.7043 18.5846 18.6113 18.585 18.4568C18.5904 16.3212 18.5886 14.1856 18.5886 12.0501V11.7633Z" fill="#D8343A"/>
</svg>
