<?xml version="1.0" encoding="UTF-8"?>
<svg xmlns="http://www.w3.org/2000/svg" xmlns:xlink="http://www.w3.org/1999/xlink" width="24pt" height="24pt" viewBox="0 0 24 24" version="1.1">
<g id="surface1">
<path style=" stroke:none;fill-rule:nonzero;fill:rgb(60.783386%,60.783386%,60.783386%);fill-opacity:1;" d="M 12 2.8125 L 12 4.6875 L 10.125 4.6875 L 10.125 2.8125 Z M 10.125 13.828125 L 10.125 16.5 L 12 16.5 L 12 13.828125 Z M 15.75 24 L 15.75 22.125 L 13.875 22.125 L 13.875 20.25 L 12 20.25 L 12 24 Z M 19.5 10.078125 L 13.875 10.078125 L 13.875 11.953125 L 19.5 11.953125 Z M 19.5 13.828125 L 22.125 13.828125 L 22.125 11.953125 L 19.5 11.953125 Z M 19.5 16.5 L 19.5 18.375 L 24 18.375 L 24 13.828125 L 22.125 13.828125 L 22.125 16.5 Z M 13.875 0 L 12 0 L 12 2.8125 L 13.875 2.8125 Z M 12 8.4375 L 13.875 8.4375 L 13.875 4.6875 L 12 4.6875 L 12 6.5625 L 10.125 6.5625 L 10.125 11.953125 L 12 11.953125 Z M 0 10.078125 L 0 13.828125 L 1.875 13.828125 L 1.875 11.953125 L 4.6875 11.953125 L 4.6875 10.078125 Z M 13.875 13.828125 L 13.875 11.953125 L 12 11.953125 L 12 13.828125 Z M 17.625 15.703125 L 19.5 15.703125 L 19.5 13.828125 L 17.625 13.828125 Z M 22.125 11.953125 L 24 11.953125 L 24 10.078125 L 22.125 10.078125 Z M 15.75 13.828125 L 13.875 13.828125 L 13.875 16.5 L 12 16.5 L 12 18.375 L 15.75 18.375 Z M 10.125 20.25 L 12 20.25 L 12 18.375 L 10.125 18.375 Z M 15.75 18.375 L 15.75 20.25 L 19.5 20.25 L 19.5 18.375 Z M 21.375 22.125 L 21.375 20.25 L 19.5 20.25 L 19.5 22.125 Z M 24 24 L 24 22.125 L 21.375 22.125 L 21.375 24 Z M 17.625 24 L 19.5 24 L 19.5 22.125 L 17.625 22.125 Z M 8.4375 11.953125 L 8.4375 10.078125 L 6.5625 10.078125 L 6.5625 11.953125 L 4.6875 11.953125 L 4.6875 13.828125 L 10.125 13.828125 L 10.125 11.953125 Z M 8.4375 8.4375 L 0 8.4375 L 0 0 L 8.4375 0 Z M 6.5625 1.875 L 1.875 1.875 L 1.875 6.5625 L 6.5625 6.5625 Z M 5.15625 3.28125 L 3.28125 3.28125 L 3.28125 5.15625 L 5.15625 5.15625 Z M 24 0 L 24 8.4375 L 15.5625 8.4375 L 15.5625 0 Z M 22.125 1.875 L 17.4375 1.875 L 17.4375 6.5625 L 22.125 6.5625 Z M 20.71875 3.28125 L 18.84375 3.28125 L 18.84375 5.15625 L 20.71875 5.15625 Z M 0 15.5625 L 8.4375 15.5625 L 8.4375 24 L 0 24 Z M 1.875 22.125 L 6.5625 22.125 L 6.5625 17.4375 L 1.875 17.4375 Z M 3.28125 20.71875 L 5.15625 20.71875 L 5.15625 18.84375 L 3.28125 18.84375 Z M 3.28125 20.71875 "/>
</g>
</svg>
