<?xml version="1.0" encoding="UTF-8"?>
<svg xmlns="http://www.w3.org/2000/svg" xmlns:xlink="http://www.w3.org/1999/xlink" width="32pt" height="32pt" viewBox="0 0 32 32" version="1.1">
<defs>
<clipPath id="clip1">
  <path d="M 4 4 L 28 4 L 28 28 L 4 28 Z M 4 4 "/>
</clipPath>
<clipPath id="clip2">
  <path d="M 16 4 C 22.628906 4 28 9.371094 28 16 C 28 22.628906 22.628906 28 16 28 C 9.371094 28 4 22.628906 4 16 C 4 9.371094 9.371094 4 16 4 Z M 17.578125 7 C 13.394531 7 10 10.394531 10 14.578125 C 10 18.765625 13.394531 22.15625 17.578125 22.15625 C 21.765625 22.15625 25.15625 18.765625 25.15625 14.578125 C 25.15625 10.394531 21.765625 7 17.578125 7 Z M 20.480469 11.5 C 21.339844 11.5 21.976562 11.664062 22.390625 11.992188 C 22.800781 12.320312 23.007812 12.734375 23.007812 13.230469 C 23.007812 13.523438 22.925781 13.792969 22.761719 14.042969 C 22.636719 14.230469 22.445312 14.414062 22.179688 14.589844 C 22.527344 14.757812 22.789062 14.976562 22.960938 15.253906 C 23.132812 15.527344 23.21875 15.832031 23.21875 16.167969 C 23.21875 16.488281 23.144531 16.789062 22.996094 17.070312 C 22.847656 17.351562 22.667969 17.566406 22.449219 17.71875 C 22.234375 17.871094 21.96875 17.984375 21.648438 18.054688 C 21.324219 18.125 20.984375 18.164062 20.621094 18.164062 C 19.9375 18.164062 19.417969 18.082031 19.054688 17.921875 C 18.695312 17.757812 18.421875 17.523438 18.234375 17.207031 C 18.046875 16.894531 17.953125 16.542969 17.953125 16.15625 C 17.953125 15.78125 18.039062 15.460938 18.214844 15.199219 C 18.390625 14.9375 18.664062 14.734375 19.03125 14.589844 C 18.75 14.441406 18.542969 14.273438 18.414062 14.089844 C 18.238281 13.835938 18.152344 13.546875 18.152344 13.21875 C 18.152344 12.679688 18.402344 12.238281 18.910156 11.894531 C 19.304688 11.632812 19.828125 11.5 20.480469 11.5 Z M 14.625 11.5 C 15.058594 11.5 15.414062 11.554688 15.695312 11.660156 C 15.972656 11.765625 16.199219 11.90625 16.375 12.078125 C 16.550781 12.25 16.691406 12.429688 16.789062 12.617188 C 16.890625 12.808594 16.972656 13.027344 17.035156 13.28125 C 17.15625 13.761719 17.214844 14.261719 17.214844 14.78125 C 17.214844 15.953125 17.015625 16.808594 16.621094 17.347656 C 16.226562 17.890625 15.542969 18.164062 14.578125 18.164062 C 14.035156 18.164062 13.597656 18.074219 13.265625 17.902344 C 12.929688 17.730469 12.65625 17.476562 12.441406 17.144531 C 12.285156 16.90625 12.167969 16.582031 12.078125 16.167969 C 11.992188 15.757812 11.949219 15.304688 11.949219 14.804688 C 11.949219 13.578125 12.171875 12.722656 12.613281 12.234375 C 13.050781 11.746094 13.722656 11.5 14.625 11.5 Z M 20.566406 15.121094 C 20.34375 15.121094 20.152344 15.207031 19.984375 15.386719 C 19.820312 15.5625 19.738281 15.796875 19.738281 16.097656 C 19.738281 16.382812 19.824219 16.613281 19.996094 16.792969 C 20.167969 16.972656 20.367188 17.0625 20.589844 17.0625 C 20.804688 17.0625 20.996094 16.972656 21.164062 16.789062 C 21.335938 16.605469 21.421875 16.375 21.421875 16.09375 C 21.421875 15.808594 21.335938 15.574219 21.164062 15.394531 C 20.992188 15.210938 20.792969 15.121094 20.566406 15.121094 Z M 14.566406 12.691406 C 14.269531 12.691406 14.054688 12.839844 13.921875 13.140625 C 13.792969 13.441406 13.726562 13.996094 13.726562 14.808594 C 13.726562 15.628906 13.796875 16.191406 13.941406 16.488281 C 14.089844 16.789062 14.296875 16.941406 14.574219 16.941406 C 14.753906 16.941406 14.914062 16.875 15.046875 16.75 C 15.179688 16.621094 15.277344 16.421875 15.339844 16.144531 C 15.402344 15.871094 15.433594 15.441406 15.433594 14.855469 C 15.433594 14 15.363281 13.425781 15.21875 13.132812 C 15.074219 12.839844 14.855469 12.691406 14.566406 12.691406 Z M 20.566406 12.589844 C 20.351562 12.589844 20.175781 12.65625 20.039062 12.792969 C 19.902344 12.929688 19.832031 13.105469 19.832031 13.324219 C 19.832031 13.546875 19.902344 13.726562 20.042969 13.863281 C 20.183594 14 20.367188 14.066406 20.597656 14.066406 C 20.804688 14.066406 20.972656 14 21.105469 13.863281 C 21.234375 13.730469 21.300781 13.554688 21.300781 13.339844 C 21.300781 13.117188 21.234375 12.9375 21.09375 12.796875 C 20.957031 12.660156 20.78125 12.589844 20.566406 12.589844 Z M 20.566406 12.589844 "/>
</clipPath>
</defs>
<g id="surface1">
<g clip-path="url(#clip1)" clip-rule="nonzero">
<g clip-path="url(#clip2)" clip-rule="evenodd">
<rect x="0" y="0" width="32" height="32" style="fill:rgb(60.784912%,60.784912%,60.784912%);fill-opacity:1;stroke:none;"/>
</g>
</g>
</g>
</svg>
