<svg width="32" height="32" viewBox="0 0 32 32" fill="none" xmlns="http://www.w3.org/2000/svg">
<path d="M16 32C24.8366 32 32 24.8366 32 16C32 7.16344 24.8366 0 16 0C7.16344 0 0 7.16344 0 16C0 24.8366 7.16344 32 16 32Z" fill="white"/>
<path d="M28.4842 19.5424L28.6031 19.1059L28.7062 18.6703L28.7937 18.2252L28.8645 17.7895L28.8968 17.5666L28.9197 17.3365L28.9441 17.1144L28.9677 16.893L28.9748 16.6629L28.9921 16.4329V16.2029L29 15.9728L28.9921 15.6388L28.9842 15.3142L28.9598 14.9888L28.937 14.6635L28.9047 14.3381L28.8645 14.0206L28.8165 13.7031L28.6905 13.0847L28.618 12.7751L28.5472 12.4742L28.4597 12.1724L28.3645 11.8786L28.2613 11.5847L28.1502 11.2917L28.04 11.0057L27.9124 10.7205L27.7864 10.4345L27.6431 10.1564L27.4997 9.87913L27.3493 9.6097L27.191 9.33948L27.017 9.06927L26.8413 8.80771L26.6602 8.54616L26.4696 8.29249L26.2712 8.03881L26.0727 7.79223L25.8585 7.53856L25.6372 7.30064L25.4143 7.05484L25.1757 6.81693L24.9386 6.58689L24.6929 6.35606L24.2007 5.92828L23.9471 5.72187L23.6927 5.52335L23.4313 5.3327L23.1698 5.15071L22.9083 4.97582L22.6374 4.80881L22.3689 4.65046L22.0917 4.49211L21.8137 4.34951L21.5364 4.21401L21.2506 4.0793L20.9639 3.96034L20.6717 3.84138L20.378 3.7303L20.0842 3.63497L19.7905 3.54044L19.4888 3.4522L19.188 3.37342L18.8785 3.30173L18.569 3.23871L18.2603 3.18277L17.9437 3.1355L17.6263 3.09532L17.3081 3.05593L16.9836 3.0323L16.6592 3.01654L16.3331 3H15.6669L15.3329 3.01654L15.0006 3.0323L14.6746 3.05593L14.358 3.09532L14.0406 3.1355L13.724 3.18277L13.4058 3.23871L13.0963 3.30173L12.7876 3.37342L12.486 3.4522L12.1843 3.54044L11.8922 3.63497L11.5984 3.7303L11.3047 3.84138L11.0188 3.96034L10.7337 4.0793L10.4478 4.21401L10.1706 4.34951L9.89259 4.49211L9.62325 4.65046L9.35234 4.80881L9.08378 4.97582L8.82232 5.15071L8.56007 5.3327L8.30648 5.52335L8.05289 5.72187L7.7993 5.92828L7.54492 6.14177L7.30708 6.35606L7.06058 6.58689L6.82353 6.81693L6.58569 7.05484L6.3636 7.30064L6.14073 7.53856L5.9273 7.79223L5.72097 8.03881L5.3398 8.54616L5.15787 8.80771L4.97516 9.06927L4.80899 9.33948L4.65069 9.6097L4.49949 9.87913L4.34906 10.1564L4.21361 10.4345L4.0876 10.7205L3.96002 11.0057L3.8411 11.2917L3.73793 11.5847L3.63476 11.8786L3.53947 12.1724L3.45205 12.4742L3.37408 12.7751L3.30163 13.0847L3.23863 13.3935L3.18271 13.7031L3.13546 14.0206L3.09529 14.3381L3.06458 14.6635L3.03229 14.9888L3.01654 15.3142L3.00788 15.6388L3 15.9728L3.00788 16.3061L3.01654 16.6393L3.03229 16.9647L3.06458 17.2892L3.09529 17.6146L3.13546 17.9321L3.18271 18.2496L3.23863 18.5592L3.30163 18.8688L3.37408 19.1776L3.45205 19.4872L3.53947 19.789L3.63476 20.082L3.73793 20.3838L3.8411 20.6697L3.96002 20.9628L4.0876 21.2488L4.21361 21.5347L4.34906 21.812L4.49949 22.0901L4.65069 22.3667L4.80899 22.6369L4.97516 22.9071L5.15787 23.1757L5.3398 23.4381L5.53038 23.6925L5.72097 23.9541L5.9273 24.1999L6.14073 24.4544L6.3636 24.6994L6.58569 24.9459L6.82353 25.1839L7.06058 25.4139L7.30708 25.6439L7.54492 25.8661L7.7993 26.0725L8.05289 26.2789L8.30648 26.4774L8.56007 26.6673L8.82232 26.8501L9.08378 27.0242L9.35234 27.1912L9.62325 27.3495L9.89259 27.5087L10.1706 27.6513L10.4478 27.7947L10.7337 27.9207L11.0188 28.0483L11.3047 28.1594L11.5984 28.2697L11.8922 28.3729L12.1843 28.4604L12.486 28.5478L12.7876 28.6266L13.0963 28.6983L13.4058 28.7621L13.724 28.818L14.0406 28.8653L14.358 28.9133L14.6746 28.9449L15.0006 28.9685L15.3329 28.9842L15.6669 29H16.0008L16.4686 28.9921L16.9277 28.9764L17.3806 28.937L17.8326 28.8889L18.2752 28.8251L18.7044 28.7463L19.1399 28.651L19.5613 28.5478L19.974 28.421L20.3858 28.2862L20.7906 28.1358L21.1876 27.9766L21.575 27.7947L21.9641 27.604L22.3452 27.3976L22.7178 27.1833L22.9713 27.0242L23.2178 26.8658L23.4565 26.7075L23.6778 26.5405L23.8991 26.3821L24.1054 26.2151L24.3039 26.0489L24.4945 25.8819L24.6685 25.707L24.8433 25.5407L25.0016 25.3666L25.1528 25.1917L25.2954 25.0098L25.4293 24.8349L25.5498 24.6521L25.6679 24.4693L25.7711 24.2873L25.8664 24.1046L25.9538 23.9226L26.0325 23.7319L26.105 23.5413L26.1601 23.3506L26.2152 23.1608L26.2554 22.9622L26.2861 22.7716L26.3105 22.5739L26.3263 22.1768L26.3184 21.9704L26.3105 21.7719L26.2861 21.5663L26.2554 21.3598L26.2152 21.1928L26.1759 21.0187L26.1278 20.8596L26.0798 20.6934L26.0176 20.5342L25.9538 20.3838L25.8821 20.2325L25.8034 20.082L25.7159 19.9394L25.6277 19.796L25.5254 19.6542L25.4222 19.5187L25.3111 19.3919L25.2001 19.2651L25.0725 19.1382L24.9465 19.0106L24.8111 18.8924L24.6685 18.7806L24.5173 18.6703L24.3685 18.5592L24.2086 18.4552L24.0424 18.3528L23.8684 18.2575L23.6856 18.155L23.5022 18.0668L23.3131 17.9802L23.1147 17.8919L22.9083 17.8131L22.6949 17.7336L22.4791 17.6548L22.2578 17.5831L22.0271 17.5114L21.4333 17.305L21.6223 17.1947L21.8058 17.075L21.9798 16.956L22.1397 16.8292L22.2901 16.6945L22.4319 16.5597L22.5595 16.4171L22.6776 16.2659L22.7886 16.1154L22.8839 15.9571L22.9792 15.79L23.0517 15.6238L23.1226 15.4489L23.1777 15.274L23.2178 15.0921L23.258 14.9014L23.273 14.6792L23.2809 14.4736L23.273 14.2586L23.258 14.0443L23.2178 13.8387L23.1627 13.6315L23.0989 13.4337L23.0194 13.2273L22.9241 13.0296L22.813 12.831L22.6855 12.6325L22.5437 12.4419L22.3838 12.2512L22.2106 12.0606L22.0192 11.8786L21.8207 11.6958L21.5994 11.5052L21.3781 11.3232L21.1474 11.157L20.9088 10.9978L20.6646 10.8466L20.4102 10.7048L20.1472 10.5771L19.8779 10.4503L19.6014 10.3392L19.3156 10.2281L19.0218 10.1328L18.7202 10.0461L18.4107 9.96658L18.0941 9.88701L17.768 9.8232L17.4357 9.76805L17.0545 9.7129L16.6741 9.66485L16.2772 9.62467L15.8803 9.59316L15.4763 9.56165L15.0636 9.53801L14.6517 9.52147L14.2241 9.51438L13.7949 9.5065L13.3578 9.51438H12.9152L12.4623 9.52935L12.0032 9.55298L11.5354 9.57819L11.066 9.60104L10.5911 9.64121V13.7433L10.9707 13.6953L11.3519 13.648L11.7323 13.6165L12.1213 13.5842L12.5025 13.5598L12.8908 13.5448L13.2798 13.5361H14.0642L14.4533 13.5527L14.8502 13.5684L15.2471 13.5999L15.6425 13.6315L16.0386 13.6716L16.4434 13.7197L16.8482 13.767L17.1742 13.8229L17.4829 13.8859L17.768 13.9568L18.039 14.0285L18.2847 14.116L18.5138 14.2034L18.7281 14.2987L18.9186 14.4019L19.0061 14.4484L19.0848 14.5051L19.1644 14.5682L19.2352 14.6233L19.3077 14.6871L19.3628 14.7501L19.4258 14.814L19.4739 14.877L19.5211 14.9487L19.5692 15.0204L19.6093 15.0921L19.64 15.1708L19.6644 15.2425L19.6873 15.3221L19.7046 15.4009L19.7196 15.4891V15.6309L19.7046 15.7026L19.6873 15.7822L19.6243 15.9571L19.5369 16.1548L19.4817 16.2344L19.4187 16.3139L19.3479 16.3848L19.1722 16.4959L19.0769 16.544L18.9738 16.5834L18.8635 16.6149L18.7446 16.6393L18.6091 16.6629L18.4737 16.6708H18.1728L18.0138 16.6629L17.8476 16.6393L17.6649 16.6149L17.19 16.5597L16.7222 16.5125L16.2544 16.4723L15.7929 16.4408L15.3424 16.4171L14.8903 16.4006L14.4375 16.3927L13.9933 16.3848L13.5562 16.3927L13.1215 16.4006L12.6844 16.4171L12.2568 16.4408L11.837 16.4723L11.4149 16.5125L11.003 16.5597L10.5911 16.6149V20.7966L11.1692 20.7328L11.7323 20.6697L12.2875 20.6217L12.8427 20.5823L13.3751 20.5579L13.9059 20.5342L14.421 20.5263H14.9282L15.4282 20.5429L15.9205 20.5579L16.3961 20.5902L16.8647 20.6374L17.3246 20.6847L17.7775 20.7493L18.2122 20.8194L18.6414 20.8998L18.9816 20.9628L19.2998 21.0424L19.6014 21.1211L19.8779 21.2086L20.1401 21.3118L20.378 21.415L20.489 21.4701L20.5922 21.5261L20.6953 21.582L20.7906 21.645L20.8781 21.7088L20.9639 21.7719L21.0442 21.8436L21.1151 21.9074L21.1876 21.9783L21.2506 22.05L21.3057 22.1217L21.3608 22.2004L21.4089 22.28L21.4892 22.4384L21.512 22.5258L21.5443 22.6054L21.5593 22.692L21.575 22.7803L21.5916 22.8756V22.9465L21.5994 23.0253L21.5916 23.1056V23.1757L21.575 23.2553L21.5593 23.327L21.5364 23.4066L21.512 23.4775L21.4813 23.5578L21.4411 23.6287L21.401 23.7075L21.3537 23.7879L21.2506 23.9462L21.1246 24.1046L21.0442 24.1999L20.9489 24.2873L20.8536 24.3748L20.7505 24.4544L20.6473 24.5331L20.537 24.6127L20.426 24.6844L20.3063 24.7553L20.1874 24.8262L20.0614 24.89L19.9259 24.9538L19.7905 25.0168L19.6479 25.0728L19.4983 25.1279L19.3479 25.176L19.188 25.2233L19.0289 25.2713L18.8635 25.3115L18.6966 25.3501L18.5138 25.3816L18.1492 25.4454L17.768 25.5013L17.3632 25.5407L16.9356 25.573L16.4914 25.5888H15.7779L15.5314 25.5801L15.2857 25.5652L15.0408 25.5486L14.8021 25.525L14.5643 25.4935L14.3351 25.4612L14.0965 25.4218L13.8673 25.3745L13.6366 25.3186L13.4153 25.2634L13.1916 25.1996L12.9703 25.1366L12.749 25.0562L12.5332 24.9775L12.3198 24.8979L12.1056 24.8034L11.8922 24.708L11.6858 24.6127L11.4787 24.5016L11.281 24.3905L11.0834 24.2716L10.8849 24.1526L10.6864 24.0258L10.4959 23.8911L10.3045 23.7477L10.1155 23.6043L9.92488 23.4538L9.74138 23.2955L9.56025 23.1371L9.38462 22.9701L9.20349 22.7952L9.03574 22.6211L8.86957 22.4384L8.7034 22.2564L8.5451 22.0736L8.39468 21.8916L8.25135 21.701L8.10801 21.5103L7.97256 21.3197L7.84655 21.1211L7.71897 20.9313L7.60084 20.7249L7.48979 20.5263L7.28346 20.1143L7.18816 19.9079L7.09287 19.6936L7.00545 19.4872L6.9267 19.2651L6.85424 19.0508L6.78415 18.8286L6.72115 18.6065L6.66366 18.3843L6.60853 18.155L6.56206 17.9242L6.52269 17.6942L6.48252 17.4563L6.45811 17.2183L6.42739 16.9796L6.41007 16.7425L6.39432 16.4959L6.38723 16.2501V15.7577L6.39432 15.512L6.41007 15.2662L6.42739 15.0282L6.45811 14.7903L6.48252 14.5524L6.52269 14.3224L6.56206 14.0837L6.60853 13.8615L6.66366 13.6315L6.72115 13.4101L6.78415 13.1793L6.85424 12.9658L6.9267 12.7428L7.00545 12.5293L7.09287 12.3142L7.18816 12.1007L7.28346 11.8943L7.38662 11.6879L7.48979 11.4823L7.60084 11.2751L7.71897 11.0774L7.84655 10.8789L7.97256 10.6882L8.10801 10.4897L8.25135 10.2998L8.39468 10.1092L8.5451 9.9264L8.7034 9.74442L9.03574 9.37966L9.20349 9.20477L9.38462 9.02988L9.56812 8.86365L9.74926 8.70451L9.93276 8.54616L10.1233 8.39569L10.3124 8.25231L10.5029 8.11051L10.6935 7.975L11.0904 7.72054L11.2889 7.60237L11.4952 7.4905L11.7016 7.38021L11.9071 7.27701L12.1135 7.18168L12.3277 7.09423L12.5411 7.00679L12.7569 6.92722L12.9782 6.84844L13.1916 6.78463L13.4224 6.7216L13.6437 6.65858L13.8752 6.60973L14.1044 6.56325L14.3351 6.52307L14.5643 6.48368L14.8021 6.45138L15.0486 6.42775L15.2857 6.41199L15.5314 6.39624L15.7779 6.38836L16.0236 6.38048L16.2693 6.38836L16.5158 6.39624L16.7623 6.41199L16.9986 6.42775L17.2372 6.45138L17.4759 6.48368L17.705 6.52307L17.9358 6.56325L18.165 6.60973L18.3957 6.65858L18.617 6.7216L18.8399 6.78463L19.0612 6.84844L19.2754 6.92722L19.4983 7.00679L19.7046 7.09423L19.918 7.18168L20.1244 7.27701L20.3307 7.38021L20.537 7.4905L20.7347 7.60237L20.9411 7.72054L21.1316 7.84738L21.3301 7.975L21.5199 8.11051L21.7105 8.25231L21.8932 8.39569L22.0822 8.54616L22.2657 8.70451L22.4405 8.86365L22.6225 9.02988L22.7981 9.20477L22.9635 9.37966L23.1296 9.55298L23.2958 9.73654L23.4565 9.91852L23.6069 10.1013L23.7487 10.2919L23.8912 10.4818L24.0267 10.6725L24.1527 10.871L24.2732 11.0687L24.3913 11.2672L24.5094 11.4737L24.6126 11.6722L24.7158 11.8873L24.8111 12.0929L24.9063 12.3072L24.9945 12.5214L25.0725 12.7357L25.145 12.9579L25.2158 13.1793L25.2789 13.4014L25.3356 13.6236L25.3907 13.8544L25.4387 14.0837L25.4773 14.3145L25.5096 14.5524L25.5419 14.7903L25.5647 15.0282L25.5899 15.2662L25.6049 15.512L25.6128 15.7577V16.0043L25.5647 17.0513L25.7711 17.1782L25.9774 17.2979L26.183 17.4318L26.3814 17.5666L26.572 17.7099L26.7634 17.8533L26.954 17.9951L27.1351 18.155L27.3186 18.3134L27.4997 18.4717L27.6675 18.6388L27.8415 18.805L28.0077 18.987L28.166 19.1619L28.3259 19.3525L28.4842 19.5424Z" fill="#D5292F"/>
</svg>
