<?xml version="1.0" encoding="UTF-8"?>
<svg xmlns="http://www.w3.org/2000/svg" xmlns:xlink="http://www.w3.org/1999/xlink" width="27pt" height="36pt" viewBox="0 0 27 36" version="1.1">
<g id="surface1">
<path style=" stroke:none;fill-rule:evenodd;fill:rgb(60.783386%,60.783386%,60.783386%);fill-opacity:1;" d="M 26.25 13.5 L 24 13.5 L 24 10.5 C 24 4.710938 19.289062 0 13.5 0 C 7.710938 0 3 4.710938 3 10.5 L 3 13.5 L 0.75 13.5 C 0.335938 13.5 0 13.835938 0 14.25 L 0 33 C 0 34.65625 1.34375 36 3 36 L 24 36 C 25.65625 36 27 34.65625 27 33 L 27 14.25 C 27 13.835938 26.664062 13.5 26.25 13.5 Z M 15.746094 29.167969 C 15.769531 29.378906 15.699219 29.589844 15.558594 29.75 C 15.417969 29.910156 15.214844 30 15 30 L 12 30 C 11.785156 30 11.582031 29.910156 11.441406 29.75 C 11.300781 29.589844 11.230469 29.378906 11.253906 29.167969 L 11.726562 24.914062 C 10.960938 24.355469 10.5 23.46875 10.5 22.5 C 10.5 20.84375 11.84375 19.5 13.5 19.5 C 15.15625 19.5 16.5 20.84375 16.5 22.5 C 16.5 23.46875 16.039062 24.355469 15.273438 24.914062 Z M 19.5 13.5 L 7.5 13.5 L 7.5 10.5 C 7.5 7.191406 10.191406 4.5 13.5 4.5 C 16.808594 4.5 19.5 7.191406 19.5 10.5 Z M 19.5 13.5 "/>
</g>
</svg>
