<svg width="32" height="32" viewBox="0 0 32 32" fill="none" xmlns="http://www.w3.org/2000/svg">
<path d="M16 32C24.8366 32 32 24.8366 32 16C32 7.16344 24.8366 0 16 0C7.16344 0 0 7.16344 0 16C0 24.8366 7.16344 32 16 32Z" fill="white"/>
<path d="M13.88 19.61L15.88 18.4L16.03 18.48V17.16L15.5 16.91C15.5 16.91 7.54999 17.21 8.22999 11.71C9.06999 9.48001 12.55 8.16001 16.03 8.08001V7.01001C11.72 7.12001 5.69999 8.29001 4.55999 12.18C4.5248 12.3042 4.50137 12.4314 4.48999 12.56V13.08C4.70999 15.31 8.00999 17.91 13.42 17.91L10.5 19.61L15.69 22.25L16.03 22.1V20.74H15.95L13.88 19.61ZM16.03 8.10001V7.01001H16.11C20.04 6.91001 27.88 8.33001 27.88 12.78H24.21C23.68 9.42001 19.82 7.99001 16.03 8.10001ZM16.03 18.48L18.23 19.61L16.03 20.74V22.1L21.52 19.42L16.03 17.16V18.48Z" fill="#029A54"/>
<path d="M15.88 24.29V25.38H15.81C11.88 25.46 4 24.06 4 19.61H7.67C8.2 22.91 12.02 24.37 15.88 24.29ZM15.88 13.91L13.65 12.82L15.88 11.65V10.33L10.35 12.97L15.88 15.27V13.91ZM18.08 12.78L16.03 13.95L15.88 13.91V15.23L16.37 15.42C16.37 15.42 24.37 15.16 23.68 20.63C22.77 22.91 19.32 24.21 15.88 24.29V25.38C20.2 25.23 26.21 24.1 27.35 20.21C27.4 20.0929 27.4271 19.9673 27.43 19.84V19.35C27.2 17.08 23.87 14.55 18.49 14.52L21.37 12.82L16.18 10.14L15.88 10.33V11.65H15.96L18.08 12.86V12.78Z" fill="#006AB7"/>
</svg>
