<?xml version="1.0" encoding="UTF-8"?>
<svg xmlns="http://www.w3.org/2000/svg" xmlns:xlink="http://www.w3.org/1999/xlink" width="32pt" height="32pt" viewBox="0 0 32 32" version="1.1">
<defs>
<clipPath id="clip1">
  <path d="M 1 3 L 31 3 L 31 30 L 1 30 Z M 1 3 "/>
</clipPath>
<clipPath id="clip2">
  <path d="M 28.289062 8.421875 C 25.542969 5.125 21.058594 3 16.015625 3 C 7.710938 3 1 8.703125 1 15.757812 C 1 19.582031 3.015625 23.054688 6.179688 25.394531 C 6.550781 25.636719 6.699219 26.117188 6.527344 26.53125 C 6.285156 27.484375 5.867188 29.046875 5.867188 29.117188 C 5.824219 29.242188 5.800781 29.375 5.796875 29.503906 C 5.792969 29.773438 6 29.996094 6.261719 30 C 6.269531 30 6.277344 30 6.285156 30 C 6.386719 30.003906 6.484375 29.964844 6.5625 29.894531 L 9.832031 27.945312 C 10.070312 27.792969 10.347656 27.707031 10.628906 27.695312 C 10.78125 27.703125 10.933594 27.726562 11.082031 27.765625 C 12.671875 28.242188 14.324219 28.480469 15.980469 28.476562 C 24.257812 28.476562 31 22.773438 31 15.722656 C 30.984375 13.625 30.394531 11.574219 29.296875 9.804688 Z M 28.289062 8.421875 "/>
</clipPath>
<clipPath id="clip3">
  <path d="M 7 8 L 30 8 L 30 21 L 7 21 Z M 7 8 "/>
</clipPath>
<clipPath id="clip4">
  <path d="M 29.296875 9.804688 L 12.019531 20.007812 L 11.914062 20.078125 C 11.777344 20.152344 11.621094 20.1875 11.464844 20.183594 C 11.101562 20.1875 10.765625 19.980469 10.59375 19.652344 L 10.523438 19.511719 L 7.777344 13.417969 C 7.75 13.351562 7.738281 13.277344 7.742188 13.203125 C 7.738281 12.9375 7.945312 12.714844 8.207031 12.710938 C 8.214844 12.707031 8.222656 12.707031 8.230469 12.710938 C 8.34375 12.710938 8.453125 12.746094 8.542969 12.816406 L 11.777344 15.152344 C 12.027344 15.308594 12.316406 15.394531 12.609375 15.402344 C 12.789062 15.398438 12.96875 15.363281 13.132812 15.296875 L 28.289062 8.421875 Z M 29.296875 9.804688 "/>
</clipPath>
</defs>
<g id="surface1">
<g clip-path="url(#clip1)" clip-rule="nonzero">
<g clip-path="url(#clip2)" clip-rule="evenodd">
<rect x="0" y="0" width="32" height="32" style="fill:rgb(22.3526%,67.843628%,29.019165%);fill-opacity:1;stroke:none;"/>
</g>
</g>
<g clip-path="url(#clip3)" clip-rule="nonzero">
<g clip-path="url(#clip4)" clip-rule="evenodd">
<path style=" stroke:none;fill-rule:nonzero;fill:rgb(100%,100%,100%);fill-opacity:1;" d="M 2.742188 3.421875 L 34.296875 3.421875 L 34.296875 25.183594 L 2.742188 25.183594 Z M 2.742188 3.421875 "/>
</g>
</g>
</g>
</svg>
