<?xml version="1.0" encoding="UTF-8"?>
<svg xmlns="http://www.w3.org/2000/svg" xmlns:xlink="http://www.w3.org/1999/xlink" width="32pt" height="32pt" viewBox="0 0 32 32" version="1.1">
<defs>
<clipPath id="clip1">
  <path d="M 16 32 C 24.835938 32 32 24.835938 32 16 C 32 7.164062 24.835938 0 16 0 C 7.164062 0 0 7.164062 0 16 C 0 24.835938 7.164062 32 16 32 Z M 16 32 "/>
</clipPath>
<clipPath id="clip2">
  <path d="M 4 5 L 28 5 L 28 28 L 4 28 Z M 4 5 "/>
</clipPath>
<clipPath id="clip3">
  <path d="M 20.660156 22.546875 C 20.660156 22.546875 20.785156 22.578125 20.785156 22.992188 C 20.785156 25.691406 18.328125 27.027344 16.320312 27.027344 C 15.675781 27.027344 15.363281 26.890625 15.363281 26.890625 C 15.363281 26.890625 18.707031 26.671875 19.339844 23.503906 C 20.335938 23.238281 20.660156 22.546875 20.660156 22.546875 M 17.007812 5.617188 C 16.988281 5.761719 17.011719 5.910156 17.257812 5.910156 C 17.453125 5.910156 17.5 5.753906 17.5 5.753906 C 17.605469 5.734375 17.6875 5.894531 17.6875 5.894531 C 17.40625 5.894531 17.449219 5.996094 17.230469 5.996094 C 16.898438 5.996094 16.941406 5.792969 16.851562 5.675781 C 16.851562 5.675781 16.890625 5.589844 17.007812 5.617188 M 17.199219 5.605469 C 17.347656 5.628906 17.363281 5.691406 17.363281 5.691406 C 17.34375 5.8125 17.230469 5.824219 17.230469 5.824219 C 17.230469 5.824219 17.15625 5.804688 17.125 5.710938 C 17.125 5.652344 17.199219 5.605469 17.199219 5.605469 M 26.261719 11.179688 C 26.261719 11.179688 26.578125 11.171875 26.578125 10.917969 C 26.578125 10.222656 22.875 7.414062 20.851562 7.414062 C 19.941406 7.414062 19.429688 7.929688 19.429688 8.570312 C 19.429688 8.660156 19.464844 8.730469 19.464844 8.925781 C 19.464844 9.691406 18.792969 10.125 17.964844 10.125 C 17.085938 10.125 16.375 9.554688 16.375 8.847656 C 16.375 7.992188 17.640625 6.558594 19.230469 6.558594 C 19.675781 6.558594 19.753906 6.894531 19.753906 6.894531 C 19.753906 6.894531 20.019531 6.675781 20.019531 6.402344 C 20.019531 6.066406 19.542969 5.914062 18.953125 5.914062 C 18.953125 5.914062 18.613281 5.445312 18.191406 5.546875 C 18.191406 5.546875 17.558594 5 16.769531 5 C 15.394531 5 15.257812 5.964844 14.480469 5.964844 C 14.28125 5.964844 14.234375 5.882812 14.234375 5.882812 C 14.355469 5.882812 14.453125 5.792969 14.453125 5.679688 C 14.453125 5.578125 14.34375 5.492188 14.207031 5.492188 C 14.03125 5.492188 13.890625 5.632812 13.890625 5.808594 C 13.890625 6.019531 14.085938 6.1875 14.328125 6.1875 C 14.410156 6.1875 14.472656 6.164062 14.472656 6.164062 C 14.539062 6.292969 14.234375 6.398438 13.933594 6.398438 C 13.582031 6.398438 13.296875 6.214844 13.296875 5.992188 C 13.296875 5.992188 13.355469 6.019531 13.429688 6.019531 C 13.527344 6.019531 13.609375 5.917969 13.609375 5.792969 C 13.609375 5.652344 13.460938 5.542969 13.28125 5.542969 C 13.109375 5.542969 12.972656 5.710938 12.972656 5.921875 C 12.972656 6.339844 13.453125 6.796875 14.046875 6.679688 C 14.046875 6.808594 13.714844 7.097656 13.582031 7.289062 C 13.21875 7.804688 12.976562 8.242188 12.671875 8.523438 C 12.234375 8.9375 11.832031 9.117188 11.453125 9.117188 C 10.992188 9.117188 10.835938 8.84375 10.835938 8.371094 C 10.835938 8.082031 10.890625 8.15625 10.890625 7.890625 C 10.890625 7.550781 10.46875 7.273438 9.949219 7.273438 C 7.652344 7.273438 4.964844 10.691406 4.964844 11.257812 C 4.964844 11.390625 5.132812 11.585938 5.339844 11.496094 C 5.339844 11.5625 4 12.835938 4 14.488281 C 4 14.792969 4.121094 15.035156 4.265625 15.035156 C 4.398438 15.035156 4.503906 14.933594 4.503906 14.933594 C 4.503906 14.933594 4.148438 15.785156 4.148438 16.835938 C 4.148438 17.625 4.359375 18.257812 4.621094 18.257812 C 4.769531 18.257812 4.890625 18.148438 4.890625 18.148438 C 5.53125 21.453125 7.621094 23.492188 7.621094 24.746094 C 7.621094 24.988281 7.421875 25.183594 7.179688 25.183594 C 6.78125 25.183594 6.695312 24.882812 6.472656 24.882812 C 6.453125 24.882812 6.433594 24.902344 6.433594 24.925781 C 6.433594 25.21875 6.863281 25.664062 7.394531 25.664062 C 7.957031 25.664062 8.363281 25.285156 8.363281 24.632812 C 8.363281 23.613281 7.292969 21.996094 6.9375 20.082031 C 6.9375 20.082031 7.296875 20.074219 7.125 19.222656 C 7.734375 19.335938 7.9375 18.753906 7.828125 17.859375 C 8.507812 18.136719 8.734375 17.808594 8.753906 17.179688 C 9.421875 17.347656 9.875 16.660156 9.835938 16.164062 C 10.824219 16.339844 11.523438 16.054688 11.679688 15.5625 C 12.039062 16.03125 12.71875 15.429688 12.792969 15.265625 C 13.023438 16.148438 13.816406 16.695312 13.816406 16.695312 C 13.71875 17.464844 12.859375 17.703125 12.859375 17.703125 C 12.859375 17.703125 12.445312 17.511719 11.695312 17.511719 C 10.675781 17.511719 9.984375 17.902344 9.984375 18.386719 C 9.984375 18.792969 10.335938 19.042969 10.769531 18.910156 C 10.769531 18.910156 10.59375 18.773438 10.59375 18.601562 C 10.59375 18.46875 10.699219 18.363281 10.828125 18.363281 C 10.96875 18.363281 10.957031 18.511719 11.289062 18.511719 C 11.660156 18.511719 11.835938 18.238281 11.835938 18.238281 C 11.835938 18.238281 12.136719 18.464844 12.503906 18.464844 C 12.933594 18.464844 13.085938 18.203125 13.085938 18.203125 C 13.085938 18.203125 13.324219 18.273438 13.324219 18.445312 C 13.324219 18.609375 13.148438 18.742188 13.148438 18.742188 C 13.695312 18.816406 13.867188 18.488281 13.867188 18.175781 C 13.867188 18.015625 13.753906 17.882812 13.753906 17.882812 C 13.753906 17.882812 14.207031 17.675781 14.445312 17.257812 C 14.445312 17.257812 14.960938 17.714844 16.222656 17.992188 C 16.222656 17.992188 15.640625 18.960938 14.742188 19.113281 C 14.742188 19.113281 14.230469 18.96875 13.609375 18.96875 C 12.789062 18.96875 12.128906 19.359375 12.128906 19.835938 C 12.128906 20.203125 12.488281 20.621094 12.929688 20.5 C 12.929688 20.5 12.652344 20.304688 12.652344 20.066406 C 12.652344 19.917969 12.875 19.796875 12.875 19.796875 C 12.875 19.796875 13.058594 20.082031 13.519531 20.082031 C 14.011719 20.082031 14.300781 19.796875 14.300781 19.796875 C 14.300781 19.796875 14.386719 19.921875 14.714844 19.921875 C 15.234375 19.921875 15.414062 19.621094 15.414062 19.621094 C 15.742188 19.621094 15.914062 19.804688 15.914062 19.964844 C 15.914062 20.078125 15.851562 20.171875 15.851562 20.171875 C 16.066406 20.207031 16.308594 19.976562 16.308594 19.738281 C 16.308594 19.347656 15.96875 19.199219 15.96875 19.199219 C 17.113281 18.59375 17.089844 18.175781 17.390625 18.175781 C 17.730469 18.175781 17.835938 18.433594 17.820312 18.714844 C 18.316406 18.667969 18.628906 19.019531 18.628906 19.394531 C 18.628906 19.753906 18.257812 19.949219 17.859375 19.949219 C 17.695312 19.949219 17.679688 19.898438 17.464844 19.898438 C 17.238281 19.898438 17.058594 19.996094 17.058594 20.113281 C 17.058594 20.402344 17.394531 20.394531 17.433594 20.4375 C 17.433594 20.4375 17.164062 20.558594 17.164062 20.796875 C 17.164062 21.21875 18.03125 21.25 18.089844 21.1875 C 18.207031 22.070312 17.714844 22.574219 16.925781 22.574219 C 16.605469 22.574219 16.5625 22.457031 16.5625 22.308594 C 16.5625 22.234375 16.585938 22.171875 16.585938 22.171875 C 16.585938 22.171875 16.835938 22.136719 16.835938 21.871094 C 16.835938 21.695312 16.664062 21.554688 16.453125 21.554688 C 16.101562 21.554688 15.902344 21.847656 15.902344 22.210938 C 15.902344 22.351562 15.914062 22.464844 15.914062 22.464844 C 15.484375 22.363281 15.507812 22.042969 15.507812 22.042969 C 15.507812 22.042969 15.65625 22.007812 15.65625 21.847656 C 15.65625 21.660156 15.5 21.507812 15.308594 21.507812 C 14.917969 21.507812 14.757812 21.753906 14.757812 22.054688 C 14.757812 22.675781 15.222656 23.058594 16.273438 23.175781 C 16.273438 23.175781 16.742188 23.714844 17.78125 23.742188 C 18.3125 23.742188 18.496094 23.648438 18.496094 23.648438 C 18.179688 25.097656 16.671875 26.332031 14.414062 26.332031 C 13.695312 26.332031 12.988281 25.648438 12.988281 25.023438 C 12.988281 24.5625 13.460938 24.015625 13.789062 24 L 13.792969 24 C 13.847656 24.046875 13.921875 24.078125 14 24.078125 C 14.179688 24.078125 14.324219 23.929688 14.324219 23.753906 C 14.324219 23.480469 14.101562 23.386719 13.820312 23.386719 C 12.933594 23.386719 12.339844 24.15625 12.339844 24.992188 C 12.339844 25.675781 12.746094 26.097656 12.746094 26.097656 C 11.800781 25.917969 10.5625 25.160156 10.5625 24.007812 C 10.5625 23.074219 11.355469 22.246094 12.183594 22.246094 C 12.601562 22.246094 12.820312 22.441406 12.820312 22.441406 C 12.8125 22.472656 12.808594 22.507812 12.808594 22.542969 C 12.808594 22.816406 13.027344 23.039062 13.300781 23.039062 C 13.570312 23.039062 13.792969 22.816406 13.792969 22.542969 C 13.792969 22 13.105469 21.558594 12.253906 21.558594 C 10.945312 21.558594 9.886719 22.617188 9.886719 23.921875 C 9.886719 25.578125 11.203125 26.59375 13.71875 26.914062 C 13.71875 26.914062 14.683594 27.648438 16.339844 27.648438 C 19.3125 27.648438 21.71875 25.660156 21.71875 22.859375 C 21.71875 22.078125 21.550781 21.449219 21.550781 21.449219 C 21.550781 21.449219 21.839844 20.835938 21.839844 19.722656 C 21.839844 18.003906 21.058594 17.085938 20.648438 16.679688 C 20.378906 16.40625 20.175781 16.308594 20.175781 16.199219 C 20.175781 16.101562 20.210938 16.019531 20.257812 16.019531 C 20.425781 16.019531 20.558594 16.453125 21.144531 16.453125 C 21.558594 16.453125 21.601562 15.996094 21.601562 15.996094 C 21.601562 15.996094 21.917969 16.34375 22.304688 16.34375 C 22.695312 16.34375 22.742188 16.015625 22.742188 16.015625 C 22.742188 16.015625 22.917969 16.496094 23.246094 16.496094 C 23.558594 16.496094 23.710938 16.289062 23.710938 16.289062 C 23.710938 16.289062 23.65625 16.460938 23.65625 16.671875 C 23.65625 17.597656 24.386719 17.820312 24.75 17.640625 C 24.75 17.640625 24.375 18.503906 24.375 19.285156 C 24.375 19.734375 24.621094 20.203125 24.925781 20.09375 C 24.636719 20.6875 23.324219 23.347656 23.324219 25.03125 C 23.324219 25.660156 23.546875 26.171875 24.347656 26.171875 C 25.007812 26.171875 25.355469 25.535156 25.355469 25.4375 C 25.355469 25.410156 25.335938 25.386719 25.3125 25.386719 C 25.25 25.386719 24.890625 25.726562 24.503906 25.726562 C 24.226562 25.726562 24 25.429688 24 25.066406 C 24 23.726562 26.371094 20.949219 26.828125 18.4375 C 26.828125 18.4375 26.910156 18.492188 27.007812 18.492188 C 27.441406 18.492188 27.652344 17.664062 27.652344 16.636719 C 27.652344 15.628906 27.441406 14.816406 27.441406 14.816406 C 27.441406 14.816406 27.558594 14.902344 27.707031 14.902344 C 27.84375 14.902344 27.953125 14.675781 27.953125 14.394531 C 27.953125 12.617188 26.261719 11.179688 26.261719 11.179688 "/>
</clipPath>
</defs>
<g id="surface1">
<g clip-path="url(#clip1)" clip-rule="evenodd">
<rect x="0" y="0" width="32" height="32" style="fill:rgb(100%,100%,100%);fill-opacity:1;stroke:none;"/>
</g>
<g clip-path="url(#clip2)" clip-rule="nonzero">
<g clip-path="url(#clip3)" clip-rule="nonzero">
<rect x="0" y="0" width="32" height="32" style="fill:rgb(0%,68.235779%,93.725586%);fill-opacity:1;stroke:none;"/>
</g>
</g>
</g>
</svg>
