<?xml version="1.0" encoding="UTF-8"?>
<svg xmlns="http://www.w3.org/2000/svg" xmlns:xlink="http://www.w3.org/1999/xlink" width="32pt" height="32pt" viewBox="0 0 32 32" version="1.1">
<defs>
<clipPath id="clip1">
  <path d="M 16 32 C 24.835938 32 32 24.835938 32 16 C 32 7.164062 24.835938 0 16 0 C 7.164062 0 0 7.164062 0 16 C 0 24.835938 7.164062 32 16 32 Z M 16 32 "/>
</clipPath>
<clipPath id="clip2">
  <path d="M 2 2 L 30 2 L 30 30 L 2 30 Z M 2 2 "/>
</clipPath>
<clipPath id="clip3">
  <path d="M 15.6875 2 C 23.246094 2 29.378906 8.125 29.378906 15.6875 C 29.378906 23.25 23.246094 29.378906 15.6875 29.378906 C 8.125 29.378906 2 23.25 2 15.6875 C 2 8.125 8.125 2 15.6875 2 Z M 15.6875 4.117188 C 9.300781 4.117188 4.117188 9.304688 4.117188 15.6875 C 4.117188 22.074219 9.300781 27.253906 15.6875 27.253906 C 22.074219 27.253906 27.253906 22.074219 27.253906 15.6875 C 27.253906 9.304688 22.074219 4.117188 15.6875 4.117188 Z M 23.066406 8.316406 L 23.066406 14.636719 L 18.875 14.636719 L 18.875 16.734375 L 23.066406 16.734375 L 23.066406 23.042969 L 16.25 23.042969 L 16.25 20.941406 L 20.964844 20.941406 L 20.964844 18.839844 L 16.757812 18.839844 L 16.757812 12.527344 L 20.964844 12.527344 L 20.964844 10.421875 L 16.25 10.421875 L 16.25 8.316406 Z M 15.1875 8.3125 L 15.1875 10.414062 L 10.457031 10.414062 L 10.457031 12.519531 L 14.660156 12.519531 L 14.660156 18.832031 L 10.457031 18.832031 L 10.457031 20.9375 L 15.1875 20.9375 L 15.1875 23.039062 L 8.355469 23.039062 L 8.355469 16.726562 L 12.542969 16.726562 L 12.542969 14.625 L 8.355469 14.625 L 8.355469 8.3125 Z M 15.1875 8.3125 "/>
</clipPath>
</defs>
<g id="surface1">
<g clip-path="url(#clip1)" clip-rule="evenodd">
<rect x="0" y="0" width="32" height="32" style="fill:rgb(100%,100%,100%);fill-opacity:1;stroke:none;"/>
</g>
<g clip-path="url(#clip2)" clip-rule="nonzero">
<g clip-path="url(#clip3)" clip-rule="nonzero">
<rect x="0" y="0" width="32" height="32" style="fill:rgb(85.490417%,0%,0%);fill-opacity:1;stroke:none;"/>
</g>
</g>
</g>
</svg>
