<svg width="32" height="32" viewBox="0 0 32 32" fill="none" xmlns="http://www.w3.org/2000/svg">
<path d="M16 32C24.8366 32 32 24.8366 32 16C32 7.16344 24.8366 0 16 0C7.16344 0 0 7.16344 0 16C0 24.8366 7.16344 32 16 32Z" fill="white"/>
<mask id="mask0_142_1967" style="mask-type:alpha" maskUnits="userSpaceOnUse" x="3" y="3" width="26" height="25">
<path d="M3 3.14059H28.8983V27.5011H3V3.14059Z" fill="white"/>
</mask>
<g mask="url(#mask0_142_1967)">
<path d="M12.2422 5.99395C13.5117 4.92752 15.0352 4.06432 16.965 3.55641C18.0821 3.25172 19.25 3.09937 20.3672 3.15025C20.4179 3.20098 20.7226 4.1658 21.0782 4.36888C21.4336 4.52122 22.8554 4.11506 23.5155 5.02914C23.8202 5.63852 23.3632 5.89234 23.7695 6.2479C26.3594 7.77122 26.8164 5.89234 27.832 7.61888C28.289 9.0916 26.0547 8.78691 25.496 10.4118C25.3437 10.1071 24.7343 9.80245 24.5312 9.65011C22.7031 8.53295 20.5702 8.07591 18.3359 8.6853C14.0704 9.85319 11.5312 14.1189 12.6485 18.3846C13.8164 22.6501 18.1328 25.1384 22.3984 23.9705C23.6679 23.6149 25.1914 22.8025 26.1054 21.99C26.8672 21.4313 27.5273 20.4665 28.1875 20.1618C28.1875 20.1618 27.7305 20.7205 27.6289 21.1266C27.6289 21.1266 27.832 21.1775 28.2383 20.822C28.6444 20.4158 28.8984 19.7048 28.8984 19.7048C28.8477 19.9588 29.0507 20.6189 28.289 21.533C27.832 22.1423 27.3749 22.5994 27.4258 22.5994C27.5782 22.5485 27.832 22.3454 28.1875 22.1423C28.4922 21.9393 28.8984 21.1266 28.8984 21.1266C28.8984 21.4822 28.3906 22.9041 27.7812 23.6658C26.8164 24.986 25.6484 25.8494 25.6484 25.8494C25.039 26.3064 24.4296 26.7126 23.2617 27.0681C16.711 28.8454 10.0586 24.986 8.33211 18.5369C7.92581 17.0134 7.92581 15.2869 8.02742 13.6618C8.02742 13.6618 6.85938 14.3728 5.43754 14.3728C3.96495 14.3728 3 13.2048 3 11.8337C3 10.5642 4.47272 8.88838 4.47272 8.93925C4.47272 8.98999 4.37111 10.3611 5.74223 10.4118C8.48445 10.1579 9.80469 8.02518 11.9375 6.2479L12.2422 5.99395Z" fill="#D80C18"/>
</g>
<path d="M18.1328 13.3571H24.0234C24.6836 13.3571 25.2421 13.9158 25.2421 14.5759V18.283C25.2421 18.9431 24.6836 19.5017 24.0234 19.5017H18.1328C17.4727 19.5017 16.9141 18.9431 16.9141 18.283V14.5759C16.9141 13.9158 17.4727 13.3571 18.1328 13.3571Z" fill="#D80C18"/>
</svg>
