<svg width="80" height="80" viewBox="0 0 80 80" fill="none" xmlns="http://www.w3.org/2000/svg">
<g opacity="0.7">
<path fill-rule="evenodd" clip-rule="evenodd" d="M40.0001 6.66675C58.4096 6.66675 73.3334 21.5906 73.3334 40.0001C73.3334 58.4096 58.4096 73.3334 40.0001 73.3334C28.7452 73.3334 18.7931 67.7554 12.7576 59.2131L57.7735 59.2709C58.4246 59.2709 58.7501 58.9454 58.7501 58.2944V28.9975C58.7501 28.3464 58.4246 28.0209 57.7735 28.0209H27.5001V20.2084L11.8751 31.9272L27.5001 43.6459V35.8334H50.9376V51.4584L8.66512 51.3946C7.37204 47.8395 6.66675 44.0022 6.66675 40.0001C6.66675 21.5906 21.5906 6.66675 40.0001 6.66675Z" fill="white"/>
</g>
</svg>
