<?xml version="1.0" encoding="UTF-8"?>
<svg xmlns="http://www.w3.org/2000/svg" xmlns:xlink="http://www.w3.org/1999/xlink" width="32pt" height="32pt" viewBox="0 0 32 32" version="1.1">
<defs>
<clipPath id="clip1">
  <path d="M 16 32 C 24.835938 32 32 24.835938 32 16 C 32 7.164062 24.835938 0 16 0 C 7.164062 0 0 7.164062 0 16 C 0 24.835938 7.164062 32 16 32 Z M 16 32 "/>
</clipPath>
<clipPath id="clip2">
  <path d="M 4 4 L 28 4 L 28 28 L 4 28 Z M 4 4 "/>
</clipPath>
<clipPath id="clip3">
  <path d="M 15.957031 4.050781 C 22.617188 4.050781 27.96875 9.390625 27.96875 16.035156 C 27.96875 22.640625 22.605469 27.992188 15.984375 28 C 9.375 28.003906 4 22.636719 4 16.039062 C 4 9.414062 9.347656 4.054688 15.957031 4.050781 Z M 15.996094 5.554688 C 10.273438 5.546875 5.59375 10.132812 5.507812 15.859375 C 5.417969 21.800781 10.234375 26.449219 15.902344 26.488281 C 21.675781 26.527344 26.445312 21.855469 26.457031 16.070312 C 26.46875 10.253906 21.789062 5.558594 15.996094 5.554688 Z M 21.054688 12.578125 C 21.722656 12.933594 22.316406 13.390625 22.824219 13.949219 C 23.277344 14.453125 23.707031 14.984375 24.113281 15.527344 C 24.519531 16.070312 24.3125 16.835938 23.714844 17.171875 C 23.523438 17.28125 23.378906 17.179688 23.265625 17.082031 C 23.007812 16.867188 22.828125 16.949219 22.628906 17.15625 C 22.09375 17.703125 21.792969 18.34375 21.882812 19.113281 C 22.015625 20.234375 22.1875 21.355469 22.332031 22.476562 C 22.34375 22.5625 22.316406 22.695312 22.257812 22.742188 C 21.742188 23.140625 21.21875 23.523438 20.636719 23.953125 C 20.589844 23.742188 20.511719 23.554688 20.511719 23.371094 C 20.496094 21.976562 20.46875 20.582031 20.503906 19.191406 C 20.523438 18.460938 20.195312 17.96875 19.671875 17.542969 C 19.644531 17.523438 19.613281 17.511719 19.519531 17.457031 C 19.46875 17.644531 19.398438 17.8125 19.386719 17.980469 C 19.335938 18.734375 19.332031 19.492188 19.253906 20.246094 C 19.132812 21.359375 18.871094 21.886719 17.378906 22.246094 C 16.730469 22.40625 16.03125 22.421875 15.359375 22.394531 C 14.6875 22.363281 14.078125 22.042969 13.582031 21.59375 C 13.371094 21.40625 13.214844 21.101562 13.140625 20.820312 C 12.941406 20.054688 12.796875 19.277344 12.910156 18.46875 C 12.9375 18.253906 12.851562 18.023438 12.8125 17.773438 C 12.300781 18.015625 12.070312 18.304688 12.058594 18.847656 C 12.019531 20.726562 11.144531 22.167969 9.621094 23.238281 C 9.507812 23.316406 9.398438 23.402344 9.28125 23.480469 C 9.097656 23.597656 8.972656 23.554688 8.953125 23.339844 C 8.902344 22.644531 8.859375 21.949219 8.832031 21.253906 C 8.828125 21.179688 8.914062 21.066406 8.988281 21.023438 C 9.945312 20.4375 10.4375 19.5625 10.585938 18.480469 C 10.695312 17.675781 10.234375 16.816406 9.527344 16.445312 C 9.335938 16.339844 8.953125 16.410156 8.75 16.597656 C 8.601562 16.742188 8.460938 16.898438 8.324219 17.054688 C 8.226562 17.164062 8.109375 17.207031 8.015625 17.085938 C 7.796875 16.816406 7.589844 16.539062 7.402344 16.25 C 7.371094 16.199219 7.425781 16.066406 7.476562 15.996094 C 8.65625 14.40625 10.117188 13.183594 12.027344 12.558594 C 12.25 12.484375 12.410156 12.589844 12.515625 12.761719 C 13.066406 13.617188 13.628906 14.46875 14.140625 15.347656 C 14.378906 15.761719 14.417969 16.246094 14.214844 16.707031 C 13.980469 17.230469 14.230469 17.785156 14.804688 17.84375 C 15.503906 17.910156 16.210938 17.890625 16.914062 17.890625 C 17.09375 17.890625 17.273438 17.839844 17.453125 17.796875 C 18.007812 17.671875 18.292969 17.316406 18.191406 16.753906 C 18.089844 16.195312 18.082031 15.652344 18.34375 15.148438 C 18.652344 14.546875 19 13.960938 19.339844 13.378906 C 19.457031 13.183594 19.597656 13.003906 19.746094 12.832031 C 20.203125 12.296875 20.4375 12.246094 21.054688 12.578125 Z M 17.648438 19.117188 C 17.101562 19.203125 16.554688 19.296875 16.003906 19.316406 C 15.546875 19.332031 15.085938 19.242188 14.625 19.21875 C 14.53125 19.210938 14.378906 19.242188 14.34375 19.308594 C 14.171875 19.621094 14.402344 20.34375 14.707031 20.542969 C 15.101562 20.800781 15.542969 20.867188 16 20.863281 C 16.007812 20.882812 16.011719 20.902344 16.015625 20.925781 C 16.496094 20.8125 16.984375 20.726562 17.449219 20.574219 C 17.613281 20.523438 17.804688 20.335938 17.847656 20.175781 C 17.929688 19.890625 17.917969 19.582031 17.921875 19.28125 C 17.921875 19.113281 17.816406 19.09375 17.648438 19.117188 Z M 11.894531 14.71875 C 11.734375 14.789062 11.609375 14.824219 11.515625 14.894531 C 11.285156 15.0625 11.066406 15.246094 10.84375 15.425781 C 10.6875 15.550781 10.691406 15.675781 10.808594 15.828125 C 11.011719 16.089844 11.195312 16.367188 11.390625 16.628906 C 11.425781 16.675781 11.515625 16.730469 11.550781 16.714844 C 11.847656 16.578125 12.15625 16.453125 12.425781 16.269531 C 12.523438 16.203125 12.582031 15.96875 12.546875 15.839844 C 12.46875 15.550781 12.332031 15.273438 12.1875 15.003906 C 12.125 14.890625 11.992188 14.8125 11.894531 14.71875 Z M 20.144531 14.8125 C 20.082031 14.925781 20.042969 15.054688 20 15.175781 C 19.855469 15.605469 19.980469 15.839844 20.386719 16.082031 C 20.550781 16.183594 20.757812 16.238281 20.953125 16.257812 C 21.398438 16.304688 21.882812 15.886719 21.871094 15.34375 C 21.746094 15.152344 21.601562 14.800781 21.34375 14.585938 C 20.742188 14.078125 20.507812 14.128906 20.144531 14.8125 Z M 17.007812 8.042969 C 17.28125 8.179688 17.492188 8.367188 17.421875 8.738281 C 17.398438 8.882812 17.445312 9.054688 17.503906 9.195312 C 17.53125 9.265625 17.652344 9.335938 17.734375 9.339844 C 18.535156 9.386719 19.335938 9.40625 20.136719 9.457031 C 21.441406 9.542969 22.730469 9.75 23.992188 10.097656 C 24.089844 10.121094 24.171875 10.210938 24.261719 10.269531 C 24.1875 10.351562 24.128906 10.457031 24.039062 10.503906 C 23.597656 10.730469 23.148438 10.945312 22.703125 11.160156 C 22.238281 11.386719 21.765625 11.222656 21.292969 11.1875 C 20.789062 11.148438 20.285156 11.132812 19.78125 11.121094 C 19.5625 11.113281 19.40625 11.238281 19.296875 11.421875 C 19.269531 11.464844 19.234375 11.507812 19.210938 11.554688 C 18.8125 12.371094 18.292969 13.113281 17.738281 13.828125 C 17.703125 13.871094 17.679688 13.914062 17.652344 13.960938 C 17.027344 15.042969 15.566406 15.222656 14.6875 14.328125 C 14.164062 13.792969 13.882812 13.113281 13.546875 12.464844 C 13.394531 12.160156 13.238281 11.859375 13.105469 11.546875 C 13.011719 11.339844 12.875 11.277344 12.65625 11.273438 C 11.589844 11.257812 10.535156 11.335938 9.488281 11.554688 C 9.394531 11.574219 9.300781 11.582031 9.203125 11.582031 C 8.773438 11.59375 8.683594 11.511719 8.542969 11.09375 C 8.371094 10.570312 8.585938 10.144531 8.859375 9.730469 C 8.894531 9.679688 8.996094 9.660156 9.066406 9.65625 C 9.363281 9.648438 9.65625 9.652344 9.953125 9.652344 C 9.957031 9.667969 9.957031 9.679688 9.957031 9.695312 C 11.015625 9.613281 12.074219 9.53125 13.132812 9.449219 C 13.429688 9.429688 13.722656 9.414062 14.019531 9.398438 C 14.488281 9.367188 14.65625 9.214844 14.714844 8.75 C 14.730469 8.628906 14.761719 8.5 14.730469 8.386719 C 14.65625 8.085938 14.835938 7.949219 15.066406 7.898438 C 15.722656 7.757812 16.382812 7.738281 17.007812 8.042969 Z M 16.847656 10.957031 L 16.066406 10.953125 L 16.066406 10.980469 C 15.753906 10.980469 15.441406 10.972656 15.128906 10.984375 C 14.917969 10.988281 14.824219 11.105469 14.839844 11.324219 C 14.886719 11.871094 15.085938 12.355469 15.429688 12.773438 C 15.503906 12.863281 15.636719 12.933594 15.753906 12.957031 C 16.289062 13.066406 16.84375 12.785156 17.054688 12.28125 C 17.160156 12.019531 17.214844 11.734375 17.273438 11.453125 C 17.335938 11.152344 17.160156 10.957031 16.847656 10.957031 Z M 16.847656 10.957031 "/>
</clipPath>
</defs>
<g id="surface1">
<g clip-path="url(#clip1)" clip-rule="evenodd">
<rect x="0" y="0" width="32" height="32" style="fill:rgb(100%,100%,100%);fill-opacity:1;stroke:none;"/>
</g>
<g clip-path="url(#clip2)" clip-rule="nonzero">
<g clip-path="url(#clip3)" clip-rule="nonzero">
<rect x="0" y="0" width="32" height="32" style="fill:rgb(72.549438%,15.293884%,12.548828%);fill-opacity:1;stroke:none;"/>
</g>
</g>
</g>
</svg>
