<svg width="32" height="32" viewBox="0 0 32 32" fill="none" xmlns="http://www.w3.org/2000/svg">
<path d="M16 32C24.8366 32 32 24.8366 32 16C32 7.16344 24.8366 0 16 0C7.16344 0 0 7.16344 0 16C0 24.8366 7.16344 32 16 32Z" fill="white"/>
<path d="M12.6951 27.4491C12.2352 27.3093 11.8981 27.2408 11.5899 27.1061C10.8184 26.7691 10.0172 26.4685 9.31639 26.0164C9.00595 25.8163 8.80875 25.3026 8.7397 24.9005C8.64934 24.3744 8.73856 23.8179 8.74751 23.2744C8.75149 23.0309 8.74822 22.7874 8.74822 22.427C8.10732 22.7444 7.60493 22.9812 7.11406 23.2396C6.63483 23.492 6.15007 23.6095 5.76788 23.1321C5.37248 22.6382 5.31622 22.0442 5.76064 21.5697C6.49603 20.7843 7.29379 20.0568 8.07506 19.3152C8.7397 18.6845 9.41797 18.0682 10.0901 17.4455C10.0333 17.3763 9.97619 17.3069 9.91936 17.2379C9.38856 17.5391 8.87808 17.887 8.32199 18.1307C7.46186 18.5076 6.59264 18.9026 5.68704 19.1281C4.4129 19.4453 3.69897 19.0437 3.24006 17.8119C2.86654 16.8094 2.91996 15.7931 3.46326 14.7925C4.46831 15.9416 4.56961 15.9014 6.03584 15.408C7.48062 14.9218 8.96176 14.5122 10.456 14.2169C11.475 14.0156 12.2972 14.5518 12.7921 15.4692C13.0161 15.8841 13.3004 15.8444 13.6187 15.6952C14.0659 15.4857 14.535 15.2879 14.9135 14.9841C15.057 14.8689 15.0819 14.4134 14.9727 14.2179C14.7744 13.8622 14.4354 13.5848 14.2074 13.3326C15.9754 12.6726 17.7617 12.0058 19.6043 11.318C19.6526 12.5566 20.2246 13.6012 21.1607 14.5416C20.7302 14.7392 20.2986 14.878 19.9403 15.1237C19.7245 15.2717 19.6226 15.5861 19.4695 15.8257C19.7191 15.9704 19.9583 16.2141 20.2205 16.2419C21.1518 16.341 22.2378 15.5546 22.5612 14.6191C23.2211 12.7102 22.2831 10.6039 20.378 9.809C18.2155 8.90682 16.0412 8.79628 13.8495 9.76325C12.8372 10.2099 11.7968 10.5961 10.7559 10.9737C9.38487 11.471 7.96126 11.4332 6.54589 11.2551C5.65081 11.1424 4.60953 9.38945 4.96657 8.5718C5.06404 8.34845 5.52664 8.15338 5.81193 8.16603C6.91458 8.21533 7.98584 8.16532 8.99515 7.66734C9.13978 7.59602 9.34636 7.54189 9.40518 7.42155C10.0759 6.0471 11.438 5.84208 12.6897 5.48547C15.0965 4.80009 17.5114 4.92171 19.9159 5.53051C20.282 5.62314 20.6346 5.79193 21.0045 5.84009C21.3912 5.89053 21.8212 5.92818 22.1791 5.81012C22.8448 5.59047 22.9401 5.10471 22.5144 4.53882C22.4335 4.43098 22.3496 4.32542 22.2672 4.21872C22.2868 4.14583 22.3064 4.07295 22.3262 4.00006C23.2152 4.13503 24.1186 4.2109 24.9888 4.42302C25.7698 4.61326 26.2351 5.23925 26.2856 6.01783C26.331 6.71642 25.9395 7.27322 25.2895 7.60028C24.8456 7.82334 24.9854 8.02424 25.2791 8.27912C28.0172 10.6563 29.4077 13.5553 28.7188 17.249C28.6929 17.3881 28.621 17.5358 28.6463 17.6646C29.1243 20.0905 27.7916 21.8121 26.3904 23.5106C24.8351 25.3956 22.6805 26.3599 20.5049 27.2493C19.8769 27.5059 19.1069 27.4869 18.4046 27.4714C17.5904 27.4536 17.1942 26.7508 16.8466 26.1636C15.8843 24.5384 16.285 22.8029 17.8199 21.5543C19.2735 20.372 20.9417 20.5035 22.6224 20.7969C22.8308 20.8333 23.0008 21.0894 23.3447 21.3725C22.9131 21.3725 22.6923 21.3878 22.4742 21.3699C21.3568 21.2778 20.3833 21.5823 19.5388 22.3403C18.6718 23.1184 18.5048 23.9436 19.0841 24.8586C19.651 25.7537 20.8405 26.1133 21.7688 25.6242C23.327 24.8038 24.7841 23.7994 25.6614 22.2519C26.1164 21.4495 26.3438 20.4379 26.3917 19.5063C26.4471 18.4291 25.6837 17.8022 24.5956 17.8733C22.9152 17.9831 21.3143 18.4437 19.7292 19.0299C18.1804 19.6026 17.0333 20.6394 15.9705 21.8176C14.9474 22.9519 15.0631 24.3446 15.1516 25.7221C15.1637 25.9094 15.1911 26.0958 15.2009 26.2831C15.2029 26.3218 15.1577 26.363 15.1339 26.4031C14.1326 26.3295 12.6657 24.0763 12.4705 22.6223C12.1951 20.5717 12.9507 18.7563 14.3504 18.3147C14.9705 19.1261 15.7807 18.7004 16.452 18.4448C17.2333 18.1476 17.9416 17.6322 18.6342 17.1443C18.8337 17.0038 19.0232 16.5673 18.9449 16.3813C18.8313 16.1117 18.4699 15.7739 18.2145 15.7739C17.7446 15.7742 17.2663 15.975 16.8084 16.1394C16.5092 16.2469 16.2396 16.4376 15.9522 16.5936C15.4233 15.381 15.4486 15.4156 14.3486 16.2161C13.2268 17.0326 12.3001 18.0099 11.5862 19.1902C11.445 19.4237 11.3276 19.7065 11.3096 19.974C11.146 22.3973 11.0838 24.809 12.4881 26.971C12.5489 27.0645 12.5792 27.1777 12.6951 27.4491Z" fill="#BB271F"/>
</svg>
