<svg width="32" height="32" viewBox="0 0 32 32" fill="none" xmlns="http://www.w3.org/2000/svg">
<path d="M16 32C24.8366 32 32 24.8366 32 16C32 7.16344 24.8366 0 16 0C7.16344 0 0 7.16344 0 16C0 24.8366 7.16344 32 16 32Z" fill="white"/>
<path d="M7.05414 20.5834C7.95197 20.8037 8.85524 20.9875 9.7781 21.0721C9.89601 21.0829 10.029 21.1822 10.1123 21.2778C10.8322 22.1037 11.6708 22.7731 12.6624 23.2438C13.9277 23.8444 15.264 24.0684 16.6567 23.9851C16.7483 23.9797 16.8398 23.9702 16.9314 23.9689C17.1761 23.9655 17.2434 24.0484 17.1703 24.2823C17.0304 24.7298 16.7492 25.0952 16.4557 25.4477C15.509 26.5848 14.2906 27.2198 12.8241 27.3875C12.7803 27.3925 12.738 27.411 12.6951 27.4232H11.7508C11.3931 27.3503 11.025 27.3096 10.6792 27.1991C8.46951 26.4931 7.04635 25.0327 6.50674 22.7586C6.36306 22.153 6.38772 21.5352 6.52091 20.9251C6.59169 20.601 6.73321 20.5046 7.05414 20.5834ZM24.0229 17.7465C24.5044 18.1486 24.8396 18.6668 25.1176 19.2188C26.3976 21.7602 25.4683 24.9931 22.8252 26.5435C21.9087 27.0811 20.9239 27.3811 19.9607 27.3877C19.014 27.388 18.2191 27.2046 17.4869 26.7788C17.1561 26.5864 17.1348 26.4406 17.3189 26.1076C17.7461 25.3346 18.1614 24.555 18.5694 23.7716C18.6514 23.6144 18.7554 23.5163 18.9152 23.45C20.6468 22.7312 21.9522 21.5437 22.8225 19.8812C23.1523 19.251 23.3867 18.5852 23.5563 17.8955C23.64 17.5555 23.7468 17.5159 24.0229 17.7465ZM21.7452 14.123C22.5073 16.1255 22.3947 18.0581 21.1635 19.839C19.8867 21.6858 18.0838 22.6077 15.834 22.6282C14.9839 22.6359 14.172 22.4445 13.3909 22.1086C13.2042 22.0283 13.1403 21.9131 13.1423 21.7173C13.1499 20.9832 13.1454 20.249 13.1454 19.5149H13.1444C13.1444 18.7873 13.1419 18.0597 13.1462 17.3321C13.1471 17.166 13.1181 16.966 13.3105 16.8832C13.5125 16.7962 13.6409 16.9606 13.7636 17.0821C14.4298 17.7414 15.0935 18.4031 15.7523 19.0697C15.8584 19.1771 15.925 19.1858 16.0371 19.0762C17.6015 17.5461 19.1698 16.02 20.7375 14.4933C20.9064 14.3288 21.073 14.1614 21.249 14.0046C21.4398 13.8347 21.656 13.8885 21.7452 14.123ZM9.19958 9.19099C9.26045 10.0743 9.35987 10.9518 9.56013 11.8168C9.58905 11.9416 9.56072 12.1118 9.49399 12.2216C8.68972 13.5445 8.27967 14.9718 8.33035 16.5231C8.3632 17.5291 8.58927 18.4945 8.97071 19.4248C9.13628 19.8287 9.06656 19.9345 8.63133 19.8715C7.26849 19.6738 6.15024 19.0269 5.27412 17.9704C4.55605 17.1045 4.15246 16.1017 4.03525 14.9831C4.02994 14.9324 4.01208 14.8831 4 14.8331V13.9282C4.02628 13.7748 4.04946 13.6208 4.07932 13.4682C4.45702 11.5358 5.44193 10.0435 7.23158 9.14173C7.67991 8.91582 8.1614 8.78865 8.66139 8.73845C9.05562 8.69887 9.17275 8.80117 9.19958 9.19099ZM18.5261 10.6902C18.6944 10.763 18.7615 10.8595 18.7593 11.0465C18.7497 11.7939 18.7553 12.5415 18.7553 13.289C18.7553 14.03 18.7559 14.771 18.7543 15.512C18.7542 15.5899 18.7524 15.671 18.7316 15.7451C18.6818 15.9234 18.5463 15.9828 18.3818 15.8982C18.3135 15.8631 18.2511 15.8105 18.1961 15.7557C17.5409 15.1037 16.8874 14.4498 16.2336 13.7963C16.0156 13.5784 16.0172 13.5798 15.8037 13.7879C14.1188 15.4306 12.4335 17.0729 10.7467 18.7138C10.6868 18.772 10.6168 18.828 10.5409 18.86C10.3735 18.9305 10.2417 18.8738 10.1762 18.7057C9.55522 17.1094 9.47044 15.5002 10.2038 13.9271C11.2447 11.6945 13.0308 10.4599 15.4749 10.1908C16.5333 10.0742 17.5497 10.268 18.5261 10.6902ZM27.8351 12.9635C27.9026 13.256 27.9456 13.554 28 13.8495V14.8724C27.9331 15.2111 27.8843 15.5547 27.7957 15.8876C27.5612 16.7689 27.1175 17.5299 26.4401 18.1484C26.15 18.4132 25.984 18.4062 25.7364 18.109C25.1651 17.4231 24.5618 16.769 23.8869 16.1817C23.7952 16.1019 23.7243 15.9545 23.7134 15.8322C23.5932 14.474 23.1911 13.2161 22.4235 12.0817C21.7857 11.1392 20.9723 10.3801 20.0181 9.76683C19.9409 9.71726 19.8616 9.67079 19.7858 9.61925C19.5652 9.46951 19.5466 9.32877 19.7838 9.21003C20.1789 9.01217 20.5866 8.81769 21.0109 8.70332C23.9923 7.89971 27.1057 9.80165 27.8351 12.9635ZM19.8737 5.49706C20.3669 5.9228 20.7335 6.44848 20.9938 7.04565C21.1252 7.34718 21.0584 7.50971 20.7516 7.63211C19.8986 7.97244 19.0666 8.35388 18.276 8.82562C18.1693 8.88932 17.9949 8.88716 17.8651 8.85737C16.8236 8.61785 15.7779 8.56634 14.7235 8.75248C13.2876 9.00594 12.0317 9.63875 10.9206 10.5709C10.5542 10.8783 10.4488 10.8455 10.3437 10.3718C10.3267 10.2951 10.3061 10.2173 10.3038 10.1396C10.2979 9.94981 10.3019 9.75973 10.3019 9.56978C10.2813 6.97507 12.1008 4.71076 14.6603 4.18607C16.5963 3.78916 18.3573 4.18835 19.8737 5.49706Z" fill="#E70012"/>
</svg>
