<svg width="32" height="32" viewBox="0 0 32 32" fill="none" xmlns="http://www.w3.org/2000/svg">
<path d="M16 32C24.8366 32 32 24.8366 32 16C32 7.16344 24.8366 0 16 0C7.16344 0 0 7.16344 0 16C0 24.8366 7.16344 32 16 32Z" fill="white"/>
<path d="M21.5579 21.7046C23.0919 19.8606 23.7807 17.7762 23.5601 15.4232C23.391 13.6195 22.6826 12.0323 21.4678 10.6864C19.0258 7.98068 15.2092 7.15244 11.9324 8.6025C8.74906 10.0113 6.67406 13.249 6.95636 16.8675C7.25997 20.7592 10.088 23.2965 12.544 24.0962C12.6227 23.6928 12.736 23.2993 12.7698 22.8991C12.8415 22.0497 12.8923 21.1972 12.9142 20.3451C12.9467 19.0817 12.9095 17.8213 12.7366 16.5643C12.6075 15.6253 12.103 15.2174 11.1297 15.1387C10.7988 15.1119 10.4638 15.1344 10.051 15.1344C10.4829 14.9836 10.8539 14.837 11.235 14.7253C11.7385 14.5777 12.2534 14.5263 12.7705 14.6653C13.6943 14.9136 14.3343 15.6406 14.4094 16.72C14.4804 17.7423 14.4672 18.7758 14.4127 19.8002C14.3328 21.3054 14.1151 22.7976 13.6643 24.2415C13.4758 24.8451 13.2051 25.4229 12.9736 26.0132C12.9138 26.1659 12.8228 26.2031 12.6604 26.1544C8.69963 24.9648 6.14486 22.3868 5.25921 18.3439C4.48718 14.8196 5.45622 11.6913 7.94574 9.08152C9.54359 7.40652 11.5261 6.40448 13.8286 6.0958C18.9801 5.40505 23.7463 8.51058 25.133 13.483C25.9154 16.2887 25.5307 18.9639 24.0723 21.4863C23.9816 21.6429 23.8817 21.7061 23.6973 21.7041C23.053 21.6971 22.4086 21.7098 21.7642 21.7142C21.7096 21.7146 21.6549 21.7093 21.5579 21.7046Z" fill="#D12D26"/>
<path d="M18.1107 15.4696C19.5412 15.5375 20.9324 15.442 22.2818 16.0757C21.9261 16.2235 21.632 16.3276 21.3538 16.4642C20.1259 17.0671 19.1116 17.9462 18.1949 18.9457C16.8271 20.4371 15.7636 22.1346 14.8399 23.9257C14.7986 24.0057 14.7557 24.0849 14.6949 24.154C15.3184 21.1846 16.5511 18.552 18.9653 16.5066C18.0759 16.4466 17.2466 16.4364 16.4049 16.7403C16.5451 15.9706 16.7942 15.2634 17.1927 14.6278C17.5898 13.9943 18.0556 13.404 18.5252 12.7475C18.1544 12.6301 17.7462 12.4726 17.3245 12.3723C15.9293 12.0405 14.5244 12.0908 13.1493 12.4425C11.8891 12.7647 10.6542 13.1867 9.41146 13.5754C9.18365 13.6466 8.97162 13.7684 8.70996 13.8239C8.77521 13.7705 8.84242 13.7193 8.90537 13.6633C10.4439 12.2943 12.1963 11.3544 14.2405 10.9957C15.2397 10.8204 16.2401 10.8617 17.2405 10.9732C18.4849 11.1119 19.704 11.3561 20.825 11.9434C21.1608 12.1193 21.4665 12.3524 21.8396 12.5942C20.3467 13.2923 19.0323 14.0903 18.1107 15.4696Z" fill="#D12D26"/>
<path d="M26.5971 26.337C26.2238 26.337 25.8991 26.3454 25.5753 26.3302C25.5076 26.3271 25.4192 26.2506 25.3826 26.1846C25.2257 25.9013 25.0846 25.6094 24.9389 25.3227C24.4578 25.5197 24.5144 25.9233 24.528 26.3189H23.5281V22.7025H24.5208V24.4896C24.5421 24.4983 24.5635 24.507 24.5848 24.5157C24.7726 24.2985 24.9688 24.0878 25.1451 23.8615C25.2492 23.7279 25.3656 23.6831 25.5302 23.6889C25.8446 23.7 26.1597 23.6921 26.4892 23.6921C26.2567 23.9399 26.0572 24.1845 25.8239 24.3908C25.6428 24.551 25.6022 24.6715 25.7419 24.889C26.0345 25.3447 26.2951 25.821 26.5971 26.337Z" fill="#D12D26"/>
<path d="M17.7834 25.0953C17.5352 25.1754 17.297 25.2296 17.0823 25.3328C16.9969 25.3738 16.9041 25.5367 16.9228 25.6199C16.9424 25.7077 17.0833 25.8132 17.1845 25.83C17.5786 25.8951 17.8461 25.5752 17.7834 25.0953ZM18.8545 26.337C18.6127 26.337 18.3522 26.3547 18.0965 26.3275C18.0052 26.3178 17.9254 26.1992 17.8038 26.1007C17.8086 26.0978 17.754 26.1266 17.7029 26.1607C17.2809 26.4425 16.8229 26.4579 16.3575 26.3166C16.0642 26.2276 15.8897 25.9488 15.8875 25.6425C15.8851 25.3093 16.0235 25.0707 16.3452 24.9704C16.7267 24.8514 17.1247 24.7861 17.5091 24.6752C17.6208 24.643 17.8378 24.6721 17.7948 24.4473C17.7536 24.232 17.5674 24.2175 17.3984 24.2373C17.2791 24.2513 17.1114 24.2801 17.0599 24.3618C16.9309 24.5663 16.7625 24.5354 16.5823 24.5156C16.392 24.4946 16.2019 24.471 16.0135 24.4488C16.0006 24.1339 16.1832 23.8629 16.5215 23.7554C17.0933 23.5738 17.6786 23.5793 18.2512 23.7428C18.6289 23.8508 18.7743 24.1671 18.7944 24.5352C18.8105 24.8271 18.7924 25.1207 18.8015 25.4132C18.8108 25.7108 18.835 26.0078 18.8545 26.337Z" fill="#D12D26"/>
<path d="M20.7589 26.3373C20.4566 26.3373 20.1977 26.3378 19.9389 26.3368C19.89 26.3366 19.8412 26.3301 19.7769 26.3254V23.7077H20.6869C20.6972 23.8236 20.7071 23.934 20.7119 23.9887C20.9791 23.8726 21.2363 23.7035 21.5152 23.6514C22.1009 23.5421 22.5127 23.8851 22.5435 24.4894C22.5703 25.0148 22.55 25.5428 22.5505 26.0696C22.5506 26.1439 22.5505 26.2183 22.5505 26.315H21.5293C21.5293 26.0601 21.5295 25.7968 21.5293 25.5334C21.529 25.2909 21.5301 25.0484 21.5273 24.8059C21.525 24.6082 21.4476 24.4578 21.2339 24.4339C21.0093 24.4088 20.8539 24.5239 20.8115 24.7383C20.7715 24.9413 20.766 25.1525 20.7609 25.3605C20.7531 25.676 20.7589 25.9918 20.7589 26.3373Z" fill="#D12D26"/>
</svg>
