<svg width="84" height="84" viewBox="0 0 84 84" fill="none" xmlns="http://www.w3.org/2000/svg">
<g clip-path="url(#clip0_2188_26636)">
<path d="M41.9887 0.319092C19.1024 0.319092 0.319214 19.1023 0.319214 42.0114C0.319214 64.9205 19.0796 83.6808 41.9887 83.6808C64.8978 83.6808 83.6581 64.9205 83.6581 42.0114C83.6809 19.1023 64.8978 0.319092 41.9887 0.319092Z" fill="black"/>
<path d="M41.9886 0.661058C30.6366 0.661058 20.2877 5.31126 12.7881 12.8109C5.31126 20.3104 0.661058 30.6366 0.661058 42.0114C0.661058 53.3633 5.31126 63.7123 12.8109 71.2119C20.3104 78.7115 30.6366 83.3617 42.0114 83.3617C53.3634 83.3617 63.7123 78.7115 71.2119 71.2119C78.7115 63.7123 83.3617 53.3861 83.3617 42.0114C83.3617 30.6594 78.7115 20.3104 71.2119 12.8109C63.6896 5.31126 53.3634 0.661058 41.9886 0.661058ZM12.355 12.3549C19.9685 4.74138 30.4543 0 41.9886 0C53.5229 0 64.0315 4.74138 71.645 12.3549C79.2586 19.9685 84 30.4771 84 42.0114C84 53.5457 79.2814 64.0543 71.645 71.6678C64.0315 79.2814 53.5229 84.0228 41.9886 84.0228C30.4543 84.0228 19.9457 79.3042 12.3322 71.6678C4.74138 64.0315 0 53.5457 0 42.0114C0 30.4543 4.74138 19.9685 12.355 12.3549Z" fill="black"/>
<path d="M41.9885 6.31421C22.3391 6.31421 6.29138 22.362 6.29138 42.0114C6.29138 61.6608 22.3391 77.7085 41.9885 77.7085C61.6379 77.7085 77.6857 61.6608 77.6857 42.0114C77.6857 22.362 61.6379 6.31421 41.9885 6.31421Z" fill="#03388B"/>
<path d="M41.9886 6.63347C32.2551 6.63347 23.4106 10.5998 17.0052 17.0052C10.5997 23.4107 6.63338 32.2552 6.63338 41.9887C6.63338 51.7222 10.5997 60.5667 17.0052 66.9721C23.4106 73.3776 32.2551 77.3439 41.9886 77.3439C51.7221 77.3439 60.5666 73.3776 66.9721 66.9721C73.3775 60.5667 77.3438 51.7222 77.3438 41.9887C77.3438 32.2552 73.3775 23.4107 66.9721 17.0052C60.5666 10.6226 51.7221 6.63347 41.9886 6.63347ZM16.5493 16.5493C23.0687 10.0299 32.0727 5.97241 41.9886 5.97241C51.9045 5.97241 60.9086 10.0299 67.428 16.5493C73.9474 23.0687 78.0049 32.0728 78.0049 41.9887C78.0049 51.9046 73.9474 60.9086 67.428 67.428C60.9086 73.9474 51.9045 78.005 41.9886 78.005C32.0727 78.005 23.0687 73.9474 16.5493 67.428C10.0299 60.9086 5.99512 51.9046 5.99512 42.0115C5.99512 32.0956 10.0299 23.0915 16.5493 16.5493Z" fill="#03388B"/>
<path fill-rule="evenodd" clip-rule="evenodd" d="M63.5299 62.6408C68.6588 57.284 71.8273 50.0124 71.8273 42.0113C71.8273 34.4205 69.0007 27.4908 64.3277 22.2251L61.3644 28.4254C64.0542 32.255 65.6271 36.928 65.6271 42.0113C65.6271 46.2284 64.5329 50.1719 62.6409 53.5684L63.5299 62.6408ZM60.1334 57.17L60.7717 65.1711C59.0165 66.5844 57.1245 67.8153 55.0729 68.8183L52.6338 40.5068L47.8013 50.833L47.7785 36.472L57.2157 16.3668C58.9937 17.4153 60.6577 18.6691 62.1622 20.0596L57.6716 29.6335L60.1334 57.17ZM29.36 14.999L31.9815 20.6066C34.147 19.6037 36.4721 18.9198 38.934 18.6007V65.4219C36.5861 65.1255 34.3522 64.4873 32.2778 63.5527L31.7307 70.0037C34.922 71.1662 38.3869 71.8045 41.9885 71.8045C45.5902 71.8045 49.055 71.1662 52.2463 69.9809L51.722 63.5071C49.6477 64.4417 47.4138 65.0799 45.0431 65.3763L45.0887 18.5551C47.5277 18.8742 49.8528 19.5581 52.0184 20.5611L54.5942 14.9307C50.7646 13.1298 46.4792 12.1497 41.9885 12.1497C37.4751 12.1952 33.1896 13.1982 29.36 14.999ZM31.4116 40.5068L28.9497 68.8183C26.8526 67.7925 24.8922 66.5388 23.1142 65.0799L23.8436 57.17L26.3055 29.6335L21.8376 20.0368C23.3649 18.6463 25.029 17.3925 26.807 16.3212L29.4512 21.9288L36.1074 36.2441L36.0846 50.6506L31.4116 40.5068ZM19.6721 22.2479C15.0219 27.5136 12.1953 34.4205 12.1953 42.0113C12.1953 50.0579 15.3866 57.3524 20.5611 62.732L21.3589 53.5228C19.467 50.1263 18.3956 46.2056 18.3956 42.0113C18.3956 36.9507 19.9457 32.3005 22.6127 28.471L19.6721 22.2479Z" fill="white"/>
<path d="M63.7808 61.8889C66.1515 59.313 68.0435 56.3041 69.3656 52.9988C70.7333 49.6023 71.4855 45.8867 71.4855 42.0115C71.4855 38.3187 70.8017 34.8083 69.5707 31.5486C68.3398 28.3345 66.5846 25.3939 64.3963 22.8181L61.7292 28.4029C63.0513 30.3404 64.1227 32.4832 64.8294 34.7855C65.536 37.065 65.9235 39.5041 65.9235 42.0115C65.9235 44.1087 65.65 46.1375 65.1485 48.0978C64.647 50.0582 63.8948 51.9274 62.9374 53.6598L63.7808 61.8889ZM69.9811 53.2267C68.5222 56.8284 66.4022 60.0881 63.758 62.8463C63.7124 62.8919 63.644 62.9375 63.5528 62.9375C63.3705 62.9603 63.2109 62.8235 63.1881 62.6411L62.2763 53.5687C62.2763 53.5003 62.2763 53.4319 62.3219 53.3863C63.2793 51.6767 64.0315 49.8303 64.533 47.8927C65.0117 46.0007 65.2853 44.0403 65.2853 41.9887C65.2853 39.5269 64.9205 37.1562 64.2139 34.9451C63.4845 32.6427 62.4359 30.5228 61.091 28.5852C61.0226 28.494 61.0226 28.3573 61.0682 28.2661L64.0315 22.0886C64.0543 22.043 64.0771 21.9974 64.1227 21.9746C64.2595 21.8607 64.4646 21.8607 64.5786 21.9974C66.9721 24.71 68.9097 27.8558 70.209 31.2978C71.4627 34.6259 72.1694 38.2276 72.1694 41.9887C72.1466 45.9779 71.3716 49.7619 69.9811 53.2267ZM60.4527 57.1475L61.091 65.1486C61.091 65.2626 61.0454 65.3765 60.9542 65.4449C60.0652 66.1516 59.1534 66.8126 58.196 67.4281C57.2386 68.0436 56.2356 68.6134 55.2098 69.0921C55.0503 69.1605 54.8451 69.1149 54.7767 68.9326C54.7539 68.887 54.7539 68.8642 54.7539 68.8186L52.406 41.7152L48.0977 50.97C48.0294 51.1296 47.8242 51.198 47.6646 51.1296C47.5507 51.084 47.4823 50.9472 47.4823 50.8333L47.4595 36.4723C47.4595 36.4267 47.4823 36.3811 47.5051 36.3356L56.9195 16.2531C56.9878 16.0935 57.193 16.0251 57.3526 16.0935L57.3754 16.1163C58.2644 16.6406 59.1306 17.2333 59.974 17.8487C60.8174 18.4642 61.6153 19.148 62.3903 19.8319C62.5043 19.9459 62.5271 20.1054 62.4587 20.2422L58.0136 29.725L60.4527 57.1475ZM60.4299 65.0118C59.6093 65.6729 58.7431 66.2883 57.8541 66.8582C57.0562 67.3597 56.2128 67.8384 55.3694 68.2715L52.9759 40.4387C52.9531 40.2563 52.7935 40.1195 52.6112 40.1423C52.4744 40.1423 52.3832 40.2335 52.3376 40.3475L48.1433 49.3288L48.1205 36.4951L57.3526 16.8001C58.1276 17.2788 58.857 17.7803 59.5865 18.3046C60.3387 18.8745 61.0682 19.4672 61.752 20.0826L57.3526 29.4514C57.3298 29.497 57.307 29.5654 57.3298 29.6338L59.7916 57.1703L60.4299 65.0118ZM29.2006 14.703C29.041 14.7714 28.9726 14.9765 29.041 15.1361L31.6853 20.7437C31.7537 20.9033 31.9588 20.9717 32.1184 20.9033C33.1897 20.4018 34.3067 19.9687 35.4693 19.6495C36.495 19.3532 37.5436 19.1252 38.615 18.9657V65.0346C37.612 64.8978 36.609 64.6699 35.6288 64.3963C34.5347 64.0772 33.4633 63.7125 32.4375 63.2566C32.3919 63.2338 32.3463 63.211 32.3007 63.211C32.1184 63.1882 31.9588 63.325 31.936 63.5073L31.3889 69.9584C31.3661 70.0951 31.4573 70.2319 31.5941 70.3003C33.2353 70.893 34.9222 71.3716 36.6774 71.668C38.387 71.9643 40.165 72.1239 41.9431 72.1239C43.7439 72.1239 45.4991 71.9643 47.2315 71.668C48.9868 71.3489 50.6736 70.893 52.3148 70.3003C52.4516 70.2547 52.5428 70.1179 52.5428 69.9584L52.0185 63.4845C52.0185 63.4389 51.9957 63.4162 51.9957 63.3706C51.9273 63.211 51.7222 63.1426 51.5626 63.211C50.5368 63.6669 49.4655 64.0544 48.3485 64.3735C47.3683 64.6471 46.3653 64.8522 45.3623 65.0118L45.4079 18.9429C46.4793 19.1025 47.5279 19.3304 48.5309 19.6267C49.6706 19.9687 50.7876 20.379 51.8589 20.8805C52.0185 20.9489 52.2237 20.8805 52.292 20.7209L54.8679 15.0905C54.9363 14.9309 54.8679 14.7258 54.7083 14.6574C52.748 13.7456 50.6736 13.0162 48.5081 12.5375C46.3881 12.0816 44.1998 11.8308 41.9659 11.8308C39.7091 11.8308 37.5208 12.0816 35.4009 12.5375C33.2581 13.0617 31.1838 13.7684 29.2006 14.703ZM35.5832 13.2213C33.5773 13.6772 31.6169 14.3155 29.7933 15.1589L32.1412 20.1738C33.1442 19.7179 34.1927 19.3304 35.2869 19.0113C36.4494 18.6693 37.6576 18.4186 38.8885 18.259H38.9341C39.1165 18.259 39.2532 18.3958 39.2532 18.5782V65.4449C39.2304 65.6273 39.0709 65.7413 38.8885 65.7185C37.7032 65.5589 36.5634 65.3309 35.4465 65.0118C34.4663 64.7383 33.5089 64.3963 32.5743 64.0088L32.0956 69.7532C33.6229 70.3003 35.2185 70.7106 36.837 71.0069C38.501 71.3033 40.2334 71.4628 41.9887 71.4628C43.7439 71.4628 45.4763 71.3033 47.1631 71.0069C48.8044 70.7106 50.3773 70.3003 51.9045 69.7532L51.4258 63.986C50.4912 64.3736 49.5338 64.7155 48.5536 64.989C47.4367 65.3082 46.2969 65.5361 45.1116 65.6957H45.066C44.8836 65.6957 44.7469 65.5589 44.7469 65.3765L44.8153 18.5098C44.838 18.3274 44.9976 18.2134 45.18 18.2362C46.4109 18.3958 47.619 18.6466 48.7816 18.9885C49.853 19.3076 50.9015 19.6951 51.9045 20.1282L54.2068 15.0905C52.3832 14.2471 50.4456 13.6088 48.4169 13.1529C46.3653 12.697 44.2226 12.4463 42.0115 12.4463C39.8003 12.5147 37.6348 12.7654 35.5832 13.2213ZM31.6169 41.7608L29.2918 68.8414C29.269 69.0238 29.1094 69.1605 28.9271 69.1377C28.8815 69.1377 28.8359 69.1149 28.7903 69.0921C27.7417 68.5906 26.7159 67.998 25.7357 67.3825C24.7556 66.7442 23.7982 66.0604 22.8864 65.3081C22.7952 65.2398 22.7496 65.103 22.7724 64.989L23.5018 57.1019L25.9409 29.6566L21.5414 20.1738C21.4731 20.0371 21.5186 19.8775 21.6326 19.7863C22.4077 19.0797 23.2055 18.4186 24.0489 17.8031C24.8923 17.1877 25.7585 16.595 26.6703 16.0707C26.8299 15.9795 27.0351 16.0251 27.1262 16.1847L29.7933 21.8379L36.4722 36.1532C36.495 36.1988 36.495 36.2672 36.495 36.3128L36.4722 50.6737C36.4722 50.856 36.3355 50.9928 36.1531 50.9928C36.0163 50.9928 35.9024 50.9244 35.8568 50.8105L31.6169 41.7608ZM28.6763 68.3171C27.7873 67.8612 26.9439 67.3825 26.1005 66.8582C25.1887 66.2655 24.2996 65.6273 23.4562 64.9434L24.1857 57.1931L26.6248 29.6566C26.6248 29.5882 26.6247 29.5426 26.602 29.4742L22.2253 20.1282C22.9319 19.49 23.6614 18.8973 24.4136 18.3274C25.1431 17.7803 25.8953 17.2788 26.6703 16.8001L29.1778 22.0886L35.8112 36.3356L35.7884 49.1692L31.6853 40.3475C31.6169 40.1879 31.4117 40.1195 31.2522 40.1879C31.1382 40.2335 31.0698 40.3475 31.0698 40.4615L28.6763 68.3171ZM19.5811 22.8408C17.3927 25.3939 15.6147 28.3573 14.4066 31.5714C13.1756 34.8083 12.5146 38.3415 12.5146 42.0115C12.5146 45.9095 13.2668 49.6479 14.6573 53.0444C16.0022 56.3497 17.917 59.3814 20.3105 61.9573L21.0399 53.5687C20.0826 51.8362 19.3531 49.9898 18.8516 48.0294C18.3501 46.0919 18.0994 44.0631 18.0994 41.9887C18.0994 39.4813 18.4869 37.0422 19.1935 34.7855C19.9002 32.506 20.9488 30.3632 22.2709 28.4257L19.5811 22.8408ZM13.8139 31.3206C12.5374 34.6487 11.8535 38.2503 11.8535 42.0115C11.8535 46.0007 12.6285 49.8075 14.0418 53.2951C15.5007 56.9195 17.6435 60.1793 20.3105 62.9603C20.4245 63.097 20.6524 63.097 20.7664 62.9603C20.8348 62.8919 20.8576 62.8235 20.8576 62.7551L21.6554 53.5459C21.6554 53.4775 21.6326 53.3863 21.6098 53.3407C20.6752 51.6539 19.9458 49.8303 19.4443 47.8927C18.9656 46.0235 18.7148 44.0403 18.7148 42.0115C18.7148 39.5497 19.0796 37.2018 19.7862 34.9906C20.4929 32.7111 21.5642 30.5684 22.8864 28.6536C22.9547 28.5396 22.9547 28.4257 22.9091 28.3117L19.9686 22.1114C19.9002 21.9518 19.695 21.8835 19.5355 21.9518C19.4899 21.9746 19.4443 21.9974 19.4215 22.043C17.028 24.7556 15.1132 27.8786 13.8139 31.3206Z" fill="white"/>
</g>
<defs>
<clipPath id="clip0_2188_26636">
<rect width="84" height="84" fill="white"/>
</clipPath>
</defs>
</svg>
