<?xml version="1.0" encoding="UTF-8"?>
<svg xmlns="http://www.w3.org/2000/svg" xmlns:xlink="http://www.w3.org/1999/xlink" width="16pt" height="16pt" viewBox="0 0 16 16" version="1.1">
<g id="surface1">
<path style=" stroke:none;fill-rule:evenodd;fill:rgb(99.606323%,83.528137%,0%);fill-opacity:1;" d="M 12.90625 10.21875 C 12.96875 10.28125 13 10.375 13 10.5 C 13 10.644531 12.949219 10.765625 12.84375 10.859375 C 12.738281 10.953125 12.613281 11 12.46875 11 L 3.53125 11 C 3.386719 11 3.261719 10.953125 3.15625 10.859375 C 3.050781 10.765625 3 10.644531 3 10.5 C 3 10.394531 3.03125 10.3125 3.09375 10.25 L 3.15625 10.15625 L 7.40625 5.28125 C 7.59375 5.09375 7.792969 5 8 5 C 8.207031 5 8.40625 5.09375 8.59375 5.28125 L 12.84375 10.15625 Z M 12.90625 10.21875 "/>
</g>
</svg>
