<?xml version="1.0" encoding="UTF-8"?>
<svg xmlns="http://www.w3.org/2000/svg" xmlns:xlink="http://www.w3.org/1999/xlink" width="32pt" height="32pt" viewBox="0 0 32 32" version="1.1">
<defs>
<clipPath id="clip1">
  <path d="M 16 32 C 24.835938 32 32 24.835938 32 16 C 32 7.164062 24.835938 0 16 0 C 7.164062 0 0 7.164062 0 16 C 0 24.835938 7.164062 32 16 32 Z M 16 32 "/>
</clipPath>
<clipPath id="clip2">
  <path d="M 5 4 L 27 4 L 27 28 L 5 28 Z M 5 4 "/>
</clipPath>
<clipPath id="clip3">
  <path d="M 24.820312 15.507812 C 25.53125 16.398438 26.03125 17.492188 26.070312 18.648438 C 26.207031 20.339844 25.351562 21.855469 24.589844 23.292969 C 23.105469 25.382812 20.820312 26.878906 18.34375 27.511719 C 15.523438 28.269531 12.441406 27.542969 10.039062 25.957031 C 13 26.527344 16.234375 26.53125 18.9375 25.039062 C 21.328125 23.683594 23.582031 21.738281 24.539062 19.085938 C 24.972656 17.941406 24.929688 16.703125 24.820312 15.507812 M 7.1875 8.265625 C 9.171875 5.867188 12.210938 4.324219 15.335938 4.277344 C 17.484375 4.308594 19.589844 5.015625 21.398438 6.152344 C 18.507812 5.59375 15.367188 5.546875 12.683594 6.925781 C 10.4375 8.136719 8.339844 9.84375 7.175781 12.164062 C 6.464844 13.5625 6.265625 15.199219 6.632812 16.726562 C 5.972656 15.9375 5.542969 14.988281 5.308594 13.996094 C 5 11.898438 6.011719 9.921875 7.1875 8.265625 "/>
</clipPath>
<clipPath id="clip4">
  <path d="M 4 6 L 28 6 L 28 26 L 4 26 Z M 4 6 "/>
</clipPath>
<clipPath id="clip5">
  <path d="M 4.539062 13.34375 C 4.683594 13.621094 4.828125 13.890625 4.980469 14.164062 C 5.0625 14.121094 5.222656 14.035156 5.308594 13.996094 C 5.542969 14.988281 5.972656 15.9375 6.632812 16.726562 C 7.574219 17.742188 8.972656 18.320312 10.359375 18.214844 C 12.078125 18.105469 13.628906 17.234375 15.015625 16.273438 C 16.910156 18.210938 18.820312 20.140625 20.753906 22.042969 C 18.835938 23.699219 16.519531 25.039062 13.957031 25.300781 C 11.425781 25.601562 8.828125 24.578125 7.054688 22.78125 C 5.039062 20.632812 3.722656 17.675781 4.050781 14.695312 C 4.191406 14.898438 4.335938 15.105469 4.480469 15.308594 C 4.496094 14.652344 4.511719 14 4.539062 13.34375 M 10.996094 9.691406 C 13.375 7.808594 16.386719 6.359375 19.496094 6.847656 C 24.472656 7.589844 27.9375 12.941406 27.261719 17.792969 C 26.914062 19.902344 25.917969 21.898438 24.492188 23.488281 L 24.589844 23.292969 C 25.351562 21.855469 26.207031 20.339844 26.070312 18.648438 C 26.03125 17.492188 25.53125 16.398438 24.820312 15.507812 C 23.875 14.359375 22.34375 13.75 20.875 13.890625 C 19.207031 14.042969 17.699219 14.871094 16.371094 15.835938 C 15.601562 14.980469 14.664062 14.261719 13.984375 13.335938 C 13.421875 11.804688 11.828125 11.050781 10.996094 9.691406 "/>
</clipPath>
<clipPath id="clip6">
  <path d="M 4 8 L 8 8 L 8 16 L 4 16 Z M 4 8 "/>
</clipPath>
<clipPath id="clip7">
  <path d="M 7.242188 8.183594 L 7.1875 8.265625 C 6.011719 9.921875 5 11.898438 5.308594 13.996094 C 5.222656 14.035156 5.0625 14.121094 4.980469 14.164062 C 4.832031 13.890625 4.683594 13.621094 4.539062 13.34375 C 4.511719 14 4.496094 14.652344 4.480469 15.308594 C 4.335938 15.105469 4.191406 14.898438 4.050781 14.695312 C 4.359375 12.25 5.550781 9.957031 7.242188 8.183594 "/>
</clipPath>
<clipPath id="clip8">
  <path d="M 10 9 L 14 9 L 14 14 L 10 14 Z M 10 9 "/>
</clipPath>
<clipPath id="clip9">
  <path d="M 10.726562 10.125 C 10.792969 10.015625 10.929688 9.796875 10.996094 9.691406 C 11.828125 11.050781 13.421875 11.804688 13.984375 13.335938 C 12.839844 12.324219 11.796875 11.207031 10.726562 10.125 "/>
</clipPath>
</defs>
<g id="surface1">
<g clip-path="url(#clip1)" clip-rule="evenodd">
<rect x="0" y="0" width="32" height="32" style="fill:rgb(100%,100%,100%);fill-opacity:1;stroke:none;"/>
</g>
<g clip-path="url(#clip2)" clip-rule="nonzero">
<g clip-path="url(#clip3)" clip-rule="nonzero">
<path style=" stroke:none;fill-rule:nonzero;fill:rgb(99.215698%,86.274719%,0.392151%);fill-opacity:1;" d="M 0.25 -0.722656 L 31.082031 -0.722656 L 31.082031 32.8125 L 0.25 32.8125 Z M 0.25 -0.722656 "/>
</g>
</g>
<g clip-path="url(#clip4)" clip-rule="nonzero">
<g clip-path="url(#clip5)" clip-rule="nonzero">
<path style=" stroke:none;fill-rule:nonzero;fill:rgb(9.411621%,21.960449%,51.373291%);fill-opacity:1;" d="M -1 1.753906 L 32.347656 1.753906 L 32.347656 30.351562 L -1 30.351562 Z M -1 1.753906 "/>
</g>
</g>
<g clip-path="url(#clip6)" clip-rule="nonzero">
<g clip-path="url(#clip7)" clip-rule="nonzero">
<path style=" stroke:none;fill-rule:nonzero;fill:rgb(0.392151%,9.411621%,59.216309%);fill-opacity:1;" d="M -0.949219 3.183594 L 12.242188 3.183594 L 12.242188 20.308594 L -0.949219 20.308594 Z M -0.949219 3.183594 "/>
</g>
</g>
<g clip-path="url(#clip8)" clip-rule="nonzero">
<g clip-path="url(#clip9)" clip-rule="nonzero">
<path style=" stroke:none;fill-rule:nonzero;fill:rgb(0.392151%,3.137207%,39.607239%);fill-opacity:1;" d="M 5.726562 4.691406 L 18.984375 4.691406 L 18.984375 18.335938 L 5.726562 18.335938 Z M 5.726562 4.691406 "/>
</g>
</g>
</g>
</svg>
