<?xml version="1.0" encoding="UTF-8"?>
<svg xmlns="http://www.w3.org/2000/svg" xmlns:xlink="http://www.w3.org/1999/xlink" width="32pt" height="33pt" viewBox="0 0 32 33" version="1.1">
<g id="surface1">
<path style=" stroke:none;fill-rule:evenodd;fill:rgb(60.783386%,60.783386%,60.783386%);fill-opacity:1;" d="M 5.136719 15.296875 L 15.394531 15.296875 L 15.394531 14.242188 L 5.136719 14.242188 Z M 5.136719 11.390625 L 24.511719 11.390625 L 24.511719 10.339844 L 5.136719 10.339844 Z M 5.136719 7.488281 L 24.511719 7.488281 L 24.511719 6.433594 L 5.136719 6.433594 Z M 0.566406 20.359375 L 0 20.832031 L 8.261719 21.859375 C 9.460938 22.335938 10.710938 22.679688 12.003906 22.886719 C 12.4375 18.6875 16.898438 15.375 22.332031 15.375 C 24.53125 15.375 26.570312 15.917969 28.25 16.847656 C 29.300781 15.261719 29.898438 13.46875 29.898438 11.566406 C 29.898438 5.1875 23.230469 0 15.03125 0 C 6.835938 0 0.167969 5.1875 0.167969 11.566406 C 0.167969 13.855469 1.027344 16.058594 2.652344 17.960938 L 2.640625 17.972656 L 2.800781 18.140625 C 2.617188 18.511719 1.539062 19.550781 0.566406 20.359375 Z M 0.566406 20.359375 "/>
<path style=" stroke:none;fill-rule:evenodd;fill:rgb(60.783386%,60.783386%,60.783386%);fill-opacity:1;" d="M 12.816406 23.558594 C 12.816406 27.601562 17.085938 30.890625 22.332031 30.890625 C 23.488281 30.890625 24.628906 30.726562 25.71875 30.40625 L 25.953125 30.335938 L 28.621094 32.804688 L 28.621094 29.050781 L 28.796875 28.921875 C 30.734375 27.535156 31.84375 25.578125 31.84375 23.558594 C 31.84375 19.515625 27.574219 16.226562 22.332031 16.226562 C 17.085938 16.226562 12.816406 19.515625 12.816406 23.558594 Z M 12.816406 23.558594 "/>
<path style=" stroke:none;fill-rule:nonzero;fill:rgb(7.450867%,7.450867%,7.450867%);fill-opacity:1;" d="M 23.121094 24.75 L 23.121094 24.453125 C 23.121094 23.785156 23.40625 23.59375 24.140625 23.101562 C 24.746094 22.695312 25.390625 22.21875 25.390625 21.109375 C 25.390625 19.535156 24.070312 18.761719 22.507812 18.761719 C 20.964844 18.761719 19.476562 19.507812 19.558594 21.351562 L 21.375 21.351562 C 21.386719 20.761719 21.738281 20.304688 22.390625 20.304688 C 22.894531 20.304688 23.375 20.578125 23.375 21.207031 C 23.375 21.757812 22.988281 22.011719 22.410156 22.390625 C 21.648438 22.871094 21.25 23.507812 21.34375 24.472656 L 21.355469 24.75 Z M 22.261719 27.539062 C 22.859375 27.539062 23.351562 27.15625 23.351562 26.558594 C 23.351562 25.960938 22.859375 25.574219 22.261719 25.574219 C 21.664062 25.574219 21.175781 25.960938 21.175781 26.558594 C 21.175781 27.15625 21.664062 27.539062 22.261719 27.539062 Z M 22.261719 27.539062 "/>
<path style=" stroke:none;fill-rule:evenodd;fill:rgb(7.450867%,7.450867%,7.450867%);fill-opacity:1;" d="M 5.136719 8.089844 L 24.511719 8.089844 L 24.511719 6.433594 L 5.136719 6.433594 Z M 5.136719 8.089844 "/>
<path style=" stroke:none;fill-rule:evenodd;fill:rgb(7.450867%,7.450867%,7.450867%);fill-opacity:1;" d="M 5.136719 11.996094 L 24.511719 11.996094 L 24.511719 10.339844 L 5.136719 10.339844 Z M 5.136719 11.996094 "/>
<path style=" stroke:none;fill-rule:evenodd;fill:rgb(7.450867%,7.450867%,7.450867%);fill-opacity:1;" d="M 5.136719 15.898438 L 15.394531 15.898438 L 15.394531 14.242188 L 5.136719 14.242188 Z M 5.136719 15.898438 "/>
</g>
</svg>
