<?xml version="1.0" encoding="UTF-8"?>
<svg xmlns="http://www.w3.org/2000/svg" xmlns:xlink="http://www.w3.org/1999/xlink" width="32pt" height="32pt" viewBox="0 0 32 32" version="1.1">
<defs>
<clipPath id="clip1">
  <path d="M 0 6 L 16 6 L 16 26 L 0 26 Z M 0 6 "/>
</clipPath>
<clipPath id="clip2">
  <path d="M 6.242188 6 L 14.199219 6 C 15.308594 6 16 6.902344 15.742188 8.011719 L 12.039062 23.867188 C 11.777344 24.976562 10.664062 25.878906 9.550781 25.878906 L 1.597656 25.878906 C 0.488281 25.878906 -0.203125 24.976562 0.0546875 23.867188 L 3.761719 8.011719 C 4.019531 6.902344 5.132812 6 6.242188 6 "/>
</clipPath>
<clipPath id="clip3">
  <path d="M 7 6 L 24 6 L 24 26 L 7 26 Z M 7 6 "/>
</clipPath>
<clipPath id="clip4">
  <path d="M 13.539062 6 L 22.6875 6 C 23.796875 6 23.296875 6.902344 23.035156 8.011719 L 19.332031 23.867188 C 19.074219 24.976562 19.152344 25.878906 18.039062 25.878906 L 8.890625 25.878906 C 7.777344 25.878906 7.089844 24.976562 7.351562 23.867188 L 11.054688 8.011719 C 11.316406 6.902344 12.425781 6 13.539062 6 "/>
</clipPath>
<clipPath id="clip5">
  <path d="M 16 6 L 32 6 L 32 26 L 16 26 Z M 16 6 "/>
</clipPath>
<clipPath id="clip6">
  <path d="M 22.324219 6 L 30.28125 6 C 31.394531 6 32.085938 6.902344 31.824219 8.011719 L 28.121094 23.867188 C 27.859375 24.976562 26.746094 25.878906 25.632812 25.878906 L 17.679688 25.878906 C 16.566406 25.878906 15.878906 24.976562 16.136719 23.867188 L 19.84375 8.011719 C 20.101562 6.902344 21.210938 6 22.324219 6 "/>
</clipPath>
<clipPath id="clip7">
  <path d="M 3 11 L 30 11 L 30 22 L 3 22 Z M 3 11 "/>
</clipPath>
<clipPath id="clip8">
  <path d="M 26.746094 18.308594 L 26.558594 18.929688 L 25.550781 18.929688 L 25.390625 19.429688 L 26.402344 19.429688 L 26.234375 19.980469 L 25.140625 19.980469 L 24.949219 20.210938 L 25.390625 20.210938 L 25.5 20.902344 C 25.511719 20.96875 25.511719 21.015625 25.535156 21.042969 C 25.558594 21.070312 25.691406 21.082031 25.769531 21.082031 L 25.902344 21.082031 L 25.699219 21.753906 L 25.355469 21.753906 C 25.304688 21.753906 25.226562 21.75 25.117188 21.746094 C 25.015625 21.734375 24.941406 21.675781 24.871094 21.640625 C 24.808594 21.613281 24.714844 21.535156 24.695312 21.40625 L 24.585938 20.71875 L 24.089844 21.398438 C 23.929688 21.613281 23.71875 21.777344 23.355469 21.777344 L 22.660156 21.777344 L 22.84375 21.175781 L 23.109375 21.175781 C 23.1875 21.175781 23.253906 21.144531 23.304688 21.121094 C 23.355469 21.097656 23.402344 21.070312 23.453125 20.996094 L 24.175781 19.980469 L 23.21875 19.980469 L 23.382812 19.429688 L 24.480469 19.429688 L 24.632812 18.929688 L 23.554688 18.929688 L 23.738281 18.308594 Z M 16.222656 18.476562 L 16.035156 19.078125 L 15.023438 19.078125 L 14.863281 19.59375 L 15.902344 19.59375 L 15.710938 20.214844 L 14.675781 20.214844 L 14.421875 21.054688 C 14.390625 21.144531 14.667969 21.15625 14.769531 21.15625 L 15.289062 21.085938 L 15.078125 21.777344 L 13.910156 21.777344 C 13.816406 21.777344 13.746094 21.761719 13.644531 21.738281 C 13.546875 21.714844 13.503906 21.671875 13.457031 21.605469 C 13.417969 21.535156 13.351562 21.480469 13.394531 21.335938 L 13.730469 20.226562 L 13.15625 20.226562 L 13.347656 19.59375 L 13.925781 19.59375 L 14.078125 19.078125 L 13.503906 19.078125 L 13.6875 18.476562 Z M 20.183594 17.050781 L 19.695312 18.675781 C 19.613281 18.953125 19.519531 19.132812 19.457031 19.214844 C 19.40625 19.296875 19.339844 19.367188 19.214844 19.4375 C 19.097656 19.5 18.984375 19.535156 18.882812 19.546875 C 18.789062 19.554688 18.644531 19.554688 18.441406 19.558594 L 17.058594 19.558594 L 16.671875 20.84375 C 16.632812 20.96875 16.617188 21.03125 16.640625 21.066406 C 16.660156 21.09375 16.707031 21.128906 16.773438 21.128906 L 17.382812 21.070312 L 17.171875 21.777344 L 16.492188 21.777344 C 16.273438 21.777344 16.117188 21.769531 16.007812 21.761719 C 15.902344 21.753906 15.792969 21.761719 15.71875 21.707031 C 15.65625 21.652344 15.558594 21.578125 15.558594 21.503906 C 15.566406 21.433594 15.597656 21.316406 15.640625 21.15625 L 16.878906 17.054688 L 17.765625 17.054688 L 17.636719 17.5 C 17.636719 17.5 17.917969 17.277344 18.113281 17.195312 C 18.308594 17.125 18.75 17.058594 18.75 17.058594 Z M 22.160156 17.050781 L 22.0625 17.382812 C 22.0625 17.382812 22.3125 17.203125 22.550781 17.140625 C 22.746094 17.089844 23.722656 17.0625 24.046875 17.058594 L 24.042969 17.054688 L 25.050781 17.054688 L 25.058594 17.429688 C 25.054688 17.492188 25.105469 17.519531 25.226562 17.519531 L 25.429688 17.519531 L 25.242188 18.136719 L 24.699219 18.136719 C 24.230469 18.171875 24.050781 17.96875 24.0625 17.742188 L 24.050781 17.375 L 23.949219 17.707031 L 23.628906 17.707031 L 22.65625 20.90625 L 22.921875 20.90625 L 22.71875 21.566406 L 22.457031 21.566406 L 22.398438 21.769531 L 21.472656 21.769531 L 21.535156 21.566406 L 19.660156 21.566406 L 19.847656 20.957031 L 20.039062 20.957031 L 21.023438 17.707031 L 21.21875 17.050781 Z M 19.464844 19.671875 L 19.382812 20.0625 C 19.347656 20.183594 19.316406 20.277344 19.226562 20.355469 C 19.128906 20.4375 19.015625 20.523438 18.75 20.523438 L 18.257812 20.542969 L 18.253906 20.984375 C 18.246094 21.105469 18.28125 21.09375 18.300781 21.113281 C 18.324219 21.136719 18.34375 21.144531 18.363281 21.15625 L 18.519531 21.144531 L 18.992188 21.121094 L 18.796875 21.761719 L 18.257812 21.761719 C 17.878906 21.761719 17.597656 21.753906 17.507812 21.683594 C 17.417969 21.625 17.40625 21.550781 17.40625 21.429688 L 17.441406 19.710938 L 18.300781 19.710938 L 18.289062 20.0625 L 18.496094 20.0625 C 18.566406 20.0625 18.617188 20.054688 18.644531 20.035156 C 18.671875 20.015625 18.691406 19.992188 18.703125 19.949219 L 18.789062 19.671875 Z M 21.960938 20.195312 L 21.214844 20.195312 L 20.996094 20.914062 L 21.746094 20.914062 Z M 22.347656 18.929688 L 21.597656 18.929688 L 21.339844 19.78125 C 21.339844 19.78125 21.625 19.636719 21.777344 19.589844 C 21.929688 19.554688 22.164062 19.523438 22.164062 19.523438 Z M 18.761719 18.691406 L 17.308594 18.691406 L 17.222656 18.984375 L 18.476562 18.984375 C 18.625 18.96875 18.65625 18.988281 18.671875 18.980469 Z M 22.71875 17.707031 L 21.96875 17.707031 L 21.71875 18.523438 C 21.71875 18.523438 22 18.398438 22.152344 18.355469 C 22.304688 18.316406 22.535156 18.300781 22.535156 18.300781 Z M 19.066406 17.726562 L 17.601562 17.726562 L 17.390625 18.429688 C 17.390625 18.429688 17.671875 18.171875 18.160156 18.085938 C 18.238281 18.074219 18.597656 18.070312 18.808594 18.074219 L 18.960938 18.074219 Z M 15.574219 17.046875 L 15.394531 17.390625 L 16.433594 17.390625 L 16.246094 18.023438 L 14.824219 18.023438 L 14.667969 18.15625 C 14.601562 18.21875 14.582031 18.195312 14.492188 18.238281 C 14.414062 18.28125 14.246094 18.359375 14.027344 18.359375 L 13.570312 18.359375 L 13.753906 17.753906 L 13.890625 17.753906 C 14.007812 17.753906 14.085938 17.742188 14.125 17.71875 C 14.171875 17.6875 14.222656 17.625 14.277344 17.519531 L 14.542969 17.046875 Z M 29.40625 13.015625 L 29.445312 13.058594 C 29.445312 13.058594 27.453125 16.460938 27.195312 17.023438 L 27.152344 17.066406 L 27.160156 17.070312 L 26.769531 17.734375 C 26.648438 17.960938 26.417969 18.128906 26.054688 18.128906 L 25.4375 18.121094 L 25.617188 17.523438 L 25.738281 17.523438 C 25.804688 17.523438 25.847656 17.519531 25.882812 17.503906 C 25.914062 17.492188 25.9375 17.46875 25.960938 17.429688 L 26.179688 17.085938 C 26.453125 16.671875 26.542969 16.46875 26.777344 16.066406 L 26.890625 15.882812 C 26.855469 15.554688 26.835938 15.347656 26.8125 15.164062 L 26.785156 14.945312 C 26.777344 14.871094 26.769531 14.792969 26.757812 14.707031 C 26.730469 14.472656 26.691406 14.238281 26.664062 14 C 26.605469 13.519531 26.621094 13.589844 26.558594 13.285156 C 26.558594 13.257812 26.558594 13.242188 26.566406 13.226562 L 26.601562 13.191406 C 27.078125 13.132812 27.09375 13.117188 27.609375 13.015625 L 27.652344 13.058594 L 27.722656 14.386719 C 27.722656 14.414062 27.722656 14.433594 27.726562 14.460938 C 28 13.847656 27.988281 14.015625 28.328125 13.238281 C 28.332031 13.238281 28.332031 13.230469 28.335938 13.226562 L 28.367188 13.191406 C 28.820312 13.132812 28.910156 13.117188 29.40625 13.015625 Z M 26.109375 13.0625 L 26.125 13.105469 C 26.035156 13.484375 25.945312 13.859375 25.855469 14.238281 C 25.707031 14.871094 25.636719 15.253906 25.578125 15.59375 L 25.535156 15.84375 L 25.492188 15.878906 C 25.007812 15.875 24.867188 15.875 24.421875 15.894531 L 24.394531 15.855469 L 24.441406 15.6875 C 24.277344 15.824219 24.097656 15.917969 23.910156 15.929688 C 23.726562 15.9375 23.550781 15.914062 23.355469 15.832031 C 22.734375 15.589844 22.832031 14.914062 22.921875 14.542969 C 23.003906 14.175781 23.148438 13.792969 23.453125 13.515625 C 23.882812 13.121094 24.382812 13.015625 24.597656 13.097656 C 24.765625 13.164062 24.875 13.265625 24.949219 13.386719 L 24.960938 13.273438 L 25 13.242188 C 25.480469 13.175781 25.613281 13.15625 26.109375 13.0625 Z M 14.644531 13.039062 C 15.023438 13.039062 15.394531 13.121094 15.601562 13.386719 C 15.738281 13.5625 15.847656 13.847656 15.707031 14.460938 C 15.664062 14.648438 15.539062 15.097656 15.269531 15.398438 C 14.917969 15.769531 14.449219 15.898438 13.992188 15.898438 C 13.8125 15.898438 13.535156 15.875 13.34375 15.792969 C 12.71875 15.539062 12.820312 14.863281 12.90625 14.488281 C 12.992188 14.121094 13.132812 13.734375 13.4375 13.453125 C 13.867188 13.058594 14.414062 13.039062 14.644531 13.039062 Z M 7.183594 11.0625 C 7.261719 11.082031 7.503906 11.089844 8.320312 11.082031 C 8.316406 11.089844 8.3125 11.097656 8.308594 11.117188 C 8.246094 11.316406 7.980469 12.359375 7.796875 13.09375 L 7.722656 13.386719 C 7.65625 13.652344 7.613281 13.832031 7.613281 13.832031 L 7.546875 14.089844 C 7.402344 14.59375 7.238281 15.164062 6.625 15.527344 C 6.269531 15.742188 5.742188 15.863281 5.179688 15.863281 C 4.746094 15.863281 3.976562 15.792969 3.707031 15.320312 C 3.625 15.175781 3.582031 15 3.582031 14.785156 L 3.679688 14.0625 L 3.730469 13.839844 L 4.324219 11.230469 C 4.324219 11.230469 4.351562 11.089844 4.359375 11.0625 C 4.367188 11.074219 4.453125 11.082031 4.820312 11.085938 L 5.183594 11.085938 C 5.332031 11.085938 5.5 11.082031 5.699219 11.082031 C 5.699219 11.089844 5.695312 11.097656 5.691406 11.117188 C 5.585938 11.421875 5.007812 13.734375 5.007812 13.734375 C 5.007812 13.738281 4.898438 14.425781 4.898438 14.425781 L 4.902344 14.542969 C 4.941406 14.886719 5.152344 15.066406 5.515625 15.066406 C 5.738281 15.066406 5.933594 15 6.101562 14.859375 C 6.394531 14.625 6.480469 14.257812 6.601562 13.746094 C 6.601562 13.742188 6.964844 12.078125 7.117188 11.371094 L 7.164062 11.164062 C 7.171875 11.113281 7.179688 11.078125 7.183594 11.0625 Z M 20.21875 11.054688 C 20.296875 11.0625 20.433594 11.066406 20.675781 11.070312 L 20.914062 11.070312 C 21.089844 11.066406 21.308594 11.066406 21.574219 11.0625 L 21.820312 11.0625 C 21.871094 11.058594 21.90625 11.058594 21.90625 11.058594 C 22.582031 11.0625 23.167969 11.070312 23.464844 11.480469 C 23.578125 11.636719 23.621094 11.832031 23.621094 12.03125 C 23.621094 12.183594 23.597656 12.335938 23.566406 12.460938 C 23.445312 12.984375 23.175781 13.410156 22.785156 13.699219 C 22.207031 14.125 21.472656 14.125 20.820312 14.125 L 20.753906 14.125 C 20.707031 14.148438 20.660156 14.214844 20.660156 14.214844 C 20.648438 14.238281 20.5 14.859375 20.5 14.859375 C 20.5 14.859375 20.324219 15.710938 20.292969 15.855469 C 20.238281 15.847656 20.15625 15.84375 20.019531 15.84375 L 19.714844 15.84375 C 19.554688 15.84375 19.351562 15.847656 19.097656 15.851562 C 19.132812 15.707031 19.875 12.660156 19.875 12.660156 C 19.875 12.660156 20.183594 11.226562 20.183594 11.226562 C 20.183594 11.226562 20.207031 11.117188 20.21875 11.054688 Z M 9.492188 12.992188 L 9.535156 13.039062 L 9.457031 13.316406 C 9.542969 13.265625 9.625 13.214844 9.707031 13.171875 C 9.945312 13.054688 10.207031 13.019531 10.351562 13.019531 C 10.574219 13.019531 10.8125 13.082031 10.914062 13.335938 C 11.007812 13.558594 10.945312 13.835938 10.820312 14.382812 L 10.753906 14.664062 C 10.628906 15.269531 10.605469 15.382812 10.535156 15.800781 L 10.488281 15.835938 C 10.085938 15.832031 9.945312 15.832031 9.476562 15.855469 L 9.460938 15.820312 C 9.5 15.640625 9.542969 15.46875 9.585938 15.285156 L 9.640625 15.042969 C 9.730469 14.667969 9.8125 14.226562 9.824219 14.09375 C 9.832031 14.015625 9.859375 13.8125 9.628906 13.8125 C 9.53125 13.8125 9.429688 13.859375 9.328125 13.90625 C 9.269531 14.109375 9.15625 14.671875 9.101562 14.929688 C 8.988281 15.46875 8.980469 15.535156 8.929688 15.800781 L 8.894531 15.835938 C 8.480469 15.832031 8.339844 15.832031 7.863281 15.855469 L 7.84375 15.8125 C 7.921875 15.492188 8 15.167969 8.078125 14.847656 C 8.277344 13.972656 8.324219 13.640625 8.378906 13.195312 L 8.414062 13.171875 C 8.878906 13.105469 8.992188 13.089844 9.492188 12.992188 Z M 12.621094 13.59375 L 12.628906 13.613281 L 12.636719 13.636719 C 12.589844 13.824219 12.542969 14.015625 12.5 14.207031 C 12.453125 14.398438 12.40625 14.585938 12.363281 14.773438 C 12.277344 15.175781 12.238281 15.328125 12.21875 15.4375 C 12.195312 15.535156 12.191406 15.59375 12.15625 15.800781 L 12.132812 15.820312 L 12.113281 15.835938 C 11.871094 15.835938 11.714844 15.832031 11.5625 15.835938 C 11.414062 15.835938 11.265625 15.84375 11.042969 15.855469 L 11.03125 15.835938 L 11.015625 15.8125 C 11.035156 15.738281 11.054688 15.675781 11.070312 15.628906 L 11.109375 15.507812 C 11.121094 15.476562 11.128906 15.449219 11.140625 15.421875 C 11.171875 15.339844 11.199219 15.257812 11.253906 15.023438 C 11.324219 14.71875 11.367188 14.503906 11.394531 14.316406 C 11.429688 14.136719 11.445312 13.980469 11.472656 13.804688 L 11.488281 13.789062 L 11.507812 13.773438 C 11.75 13.738281 11.902344 13.71875 12.054688 13.691406 C 12.214844 13.671875 12.371094 13.640625 12.621094 13.59375 Z M 17.445312 12.992188 L 17.484375 13.039062 L 17.414062 13.316406 C 17.496094 13.265625 17.582031 13.214844 17.664062 13.171875 C 17.898438 13.054688 18.164062 13.019531 18.308594 13.019531 C 18.523438 13.019531 18.765625 13.082031 18.871094 13.335938 C 18.960938 13.558594 18.898438 13.835938 18.773438 14.382812 L 18.710938 14.664062 C 18.578125 15.269531 18.558594 15.382812 18.488281 15.800781 L 18.441406 15.835938 C 18.039062 15.832031 17.902344 15.832031 17.433594 15.855469 L 17.414062 15.820312 C 17.457031 15.640625 17.5 15.46875 17.542969 15.285156 L 17.597656 15.042969 C 17.683594 14.667969 17.769531 14.226562 17.777344 14.09375 C 17.785156 14.015625 17.816406 13.8125 17.585938 13.8125 C 17.484375 13.8125 17.386719 13.859375 17.28125 13.90625 C 17.226562 14.109375 17.113281 14.671875 17.054688 14.929688 C 16.945312 15.46875 16.933594 15.535156 16.882812 15.800781 L 16.847656 15.835938 C 16.4375 15.832031 16.296875 15.832031 15.820312 15.855469 L 15.800781 15.8125 C 15.878906 15.492188 15.957031 15.167969 16.03125 14.847656 C 16.230469 13.972656 16.277344 13.640625 16.332031 13.195312 L 16.371094 13.171875 C 16.832031 13.105469 16.945312 13.089844 17.445312 12.992188 Z M 24.515625 13.722656 C 24.199219 13.722656 24.074219 14.109375 23.96875 14.566406 C 23.929688 14.726562 23.902344 14.875 23.902344 15.019531 C 23.910156 15.308594 24.105469 15.308594 24.136719 15.308594 C 24.25 15.308594 24.445312 15.238281 24.527344 15.121094 C 24.570312 15.0625 24.609375 14.976562 24.644531 14.882812 C 24.679688 14.75 24.710938 14.617188 24.746094 14.480469 C 24.765625 14.382812 24.789062 14.292969 24.804688 14.210938 C 24.824219 13.902344 24.714844 13.722656 24.515625 13.722656 Z M 14.503906 13.664062 C 14.183594 13.664062 14.0625 14.050781 13.957031 14.515625 C 13.917969 14.675781 13.890625 14.824219 13.890625 14.972656 C 13.894531 15.265625 14.09375 15.265625 14.125 15.265625 C 14.238281 15.265625 14.339844 15.191406 14.425781 15.070312 C 14.546875 14.90625 14.640625 14.523438 14.660156 14.417969 C 14.769531 13.953125 14.75 13.664062 14.503906 13.664062 Z M 11.738281 12.914062 C 12.003906 12.730469 12.402344 12.6875 12.625 12.820312 C 12.847656 12.953125 12.816406 13.203125 12.550781 13.386719 C 12.285156 13.574219 11.886719 13.613281 11.667969 13.484375 C 11.441406 13.347656 11.472656 13.09375 11.738281 12.914062 Z M 21.210938 11.757812 L 21.207031 11.816406 L 21.195312 11.886719 L 21.179688 11.957031 C 21.117188 12.238281 20.867188 13.3125 20.867188 13.3125 L 20.855469 13.382812 L 21.035156 13.382812 C 21.308594 13.382812 21.578125 13.375 21.796875 13.265625 C 22.0625 13.136719 22.269531 12.867188 22.339844 12.550781 C 22.417969 12.203125 22.308594 11.933594 22.039062 11.832031 C 22.023438 11.832031 21.34375 11.773438 21.34375 11.773438 Z M 21.210938 11.757812 "/>
</clipPath>
</defs>
<g id="surface1">
<g clip-path="url(#clip1)" clip-rule="nonzero">
<g clip-path="url(#clip2)" clip-rule="evenodd">
<path style=" stroke:none;fill-rule:nonzero;fill:rgb(85.098267%,0%,0%);fill-opacity:1;" d="M -5 1 L 20.796875 1 L 20.796875 30.878906 L -5 30.878906 Z M -5 1 "/>
</g>
</g>
<g clip-path="url(#clip3)" clip-rule="nonzero">
<g clip-path="url(#clip4)" clip-rule="evenodd">
<path style=" stroke:none;fill-rule:nonzero;fill:rgb(0%,25.097656%,50.196838%);fill-opacity:1;" d="M 2.296875 1 L 28.378906 1 L 28.378906 30.878906 L 2.296875 30.878906 Z M 2.296875 1 "/>
</g>
</g>
<g clip-path="url(#clip5)" clip-rule="nonzero">
<g clip-path="url(#clip6)" clip-rule="evenodd">
<path style=" stroke:none;fill-rule:nonzero;fill:rgb(0%,41.567993%,50.196838%);fill-opacity:1;" d="M 11.082031 1 L 36.878906 1 L 36.878906 30.878906 L 11.082031 30.878906 Z M 11.082031 1 "/>
</g>
</g>
<g clip-path="url(#clip7)" clip-rule="nonzero">
<g clip-path="url(#clip8)" clip-rule="evenodd">
<path style=" stroke:none;fill-rule:nonzero;fill:rgb(99.607849%,99.607849%,99.607849%);fill-opacity:1;" d="M -1.417969 6.054688 L 34.445312 6.054688 L 34.445312 26.777344 L -1.417969 26.777344 Z M -1.417969 6.054688 "/>
</g>
</g>
</g>
</svg>
