<svg width="44" height="44" viewBox="0 0 44 44" fill="none" xmlns="http://www.w3.org/2000/svg">
<g id="Category=Fish">
<rect id="Button" x="1" y="1" width="42" height="42" rx="7" fill="white" stroke="#303030" stroke-width="2"/>
<g id="_&#229;&#156;&#150;&#229;&#177;&#164;_1" clip-path="url(#clip0_2640_7673)">
<path id="Vector" d="M15.5404 36C15.3248 36 15.1392 35.9567 15.0175 35.8774C12.2132 34.0515 10.2771 31.9804 9.09862 29.5451C7.53586 26.3155 7.64073 22.9823 9.40956 19.6374C10.437 17.6955 12.0262 15.9783 14.2673 14.3881C15.5888 13.4505 16.9198 12.85 18.3359 12.5519C18.3762 12.5438 18.4136 12.5284 18.4532 12.513C18.4723 12.5056 18.4928 12.4976 18.5156 12.4888L18.5838 12.4645L18.5493 12.4007C18.0844 11.5351 17.3906 10.9022 16.4886 10.5182C16.1336 10.367 15.756 10.2569 15.3915 10.1504L15.3402 10.1357C14.917 10.0124 14.6963 9.76202 14.6838 9.39273C14.6713 9.03519 14.8825 8.76428 15.2778 8.62992C16.2436 8.30101 17.1112 8.10939 17.9318 8.04405C17.9809 8.04038 18.0264 8.02643 18.0704 8.01395C18.0866 8.00954 18.1027 8.00441 18.1196 8H19.3684C19.5085 8.0257 19.6486 8.04846 19.7894 8.07122C20.0908 8.1204 20.4025 8.17106 20.6987 8.25035C22.7059 8.78924 24.2364 10.0447 25.3797 12.0872C25.4809 12.2678 25.6063 12.3595 25.8124 12.4036C28.8338 13.0489 31.2634 14.576 33.0337 16.9423C34.221 18.5296 35.065 20.3966 35.6136 22.6497C35.7119 23.055 35.7984 23.4706 35.882 23.8729C35.9209 24.0586 35.959 24.2444 35.9993 24.4301V24.8493C35.8409 25.1937 35.5366 25.3589 35.2315 25.4859C33.9262 26.0277 32.5225 26.3427 30.9385 26.4498C30.4383 26.4836 29.9257 26.5005 29.4146 26.5005C26.7958 26.5005 24.0531 26.071 20.7838 25.1481C20.0233 24.9338 19.2614 24.6739 18.5244 24.4235C17.9949 24.2436 17.4478 24.0572 16.9051 23.889C16.3243 23.7084 15.7523 23.6174 15.206 23.6174C13.8104 23.6174 12.5256 24.2084 11.3867 25.3735C11.053 25.7149 10.7633 26.107 10.4832 26.4865C10.3505 26.6664 10.2126 26.8529 10.0725 27.0306C9.95444 27.1811 9.95224 27.3198 10.0666 27.4946C11.2393 29.2889 12.8497 30.1985 14.8525 30.1985C15.1165 30.1985 15.3915 30.1824 15.6694 30.1508C16.325 30.0767 16.9755 29.8858 17.6047 29.7015L17.7257 29.6663C17.8431 29.6318 17.956 29.6149 18.0624 29.6149C18.4664 29.6149 18.7436 29.8682 18.8236 30.3094C19.0414 31.509 19.0406 32.4334 18.8206 33.3063C18.4342 34.8407 17.2227 35.8708 15.6584 35.9949C15.6203 35.9978 15.5807 35.9993 15.5404 35.9993V36ZM12.131 31.3754C12.1508 31.3997 12.1714 31.4239 12.1912 31.4481C12.2352 31.501 12.2784 31.5538 12.3239 31.6052C13.135 32.5134 14.0832 33.3658 15.1429 34.1381C15.3988 34.3246 15.602 34.4406 15.822 34.4406C16.042 34.4406 16.2392 34.3327 16.4849 34.1704C16.7027 34.0265 16.8795 33.8606 16.9975 33.691C17.4419 33.0501 17.4969 32.335 17.4434 31.4584L17.439 31.3828L17.3657 31.4019C16.4952 31.625 15.6856 31.7337 14.8899 31.7337C13.9563 31.7337 13.0763 31.5847 12.1992 31.277L11.9844 31.2022L12.1303 31.3762L12.131 31.3754ZM27.9215 14.7897C27.7338 14.7897 27.546 14.8616 27.3326 15.0158C25.6496 16.2338 24.8018 17.7286 24.741 19.586C24.6896 21.163 25.1032 22.7481 26.0427 24.574C26.0918 24.6687 26.2253 24.7414 26.3213 24.7539C27.4844 24.9066 28.5243 24.9815 29.5011 24.9815C30.0071 24.9815 30.5051 24.9609 30.9832 24.9206C32.2798 24.8112 33.3402 24.5828 34.3214 24.2033L34.3669 24.1856L34.361 24.1372C34.2488 23.2364 33.781 21.6153 33.3182 20.5236C32.2424 17.987 30.6554 16.1662 28.4671 14.9585C28.2581 14.8433 28.085 14.7897 27.9222 14.7897H27.9215ZM22.516 13.5841C22.0312 13.5841 21.5289 13.6076 21.0221 13.6532C19.8855 13.7567 18.4019 13.9534 17.01 14.5665C15.5492 15.2096 14.1565 16.2206 12.7522 17.6559C11.0435 19.4018 10.0087 21.3958 9.6765 23.5821C9.63324 23.8692 9.60977 24.1629 9.58777 24.447C9.5775 24.5799 9.56723 24.712 9.55477 24.8442L9.54303 24.9719L9.65084 24.9029C9.82317 24.7928 9.93611 24.6709 10.0446 24.5535L10.0747 24.5212C11.5531 22.9368 13.3476 22.0991 15.2646 22.0991C16.149 22.0991 17.0591 22.2775 17.9692 22.6285C19.0296 23.0381 20.1436 23.3582 21.2202 23.6673C21.523 23.7547 21.8259 23.8413 22.128 23.9301C22.5702 24.0601 23.0169 24.1585 23.4906 24.2627C23.7091 24.3105 23.9321 24.3596 24.1601 24.4132L24.2789 24.4411L24.232 24.3288C23.6791 22.9948 23.3711 21.862 23.2625 20.7629C23.0015 18.1067 23.8639 15.921 25.8263 14.2655C25.8623 14.2346 25.8931 14.2008 25.9283 14.1619C25.9451 14.1436 25.9635 14.123 25.984 14.1017L26.0581 14.0239L25.9539 13.9975C24.8385 13.7178 23.7135 13.5819 22.516 13.5819V13.5841ZM18.8984 9.49258C18.6446 9.49258 18.4114 9.52121 18.2068 9.57774L18.1416 9.59536L18.165 9.65924C18.165 9.65924 18.1665 9.66585 18.1672 9.66878C18.1716 9.6864 18.1782 9.7165 18.2054 9.73559C18.9695 10.2833 19.584 11.0285 20.0842 12.0159C20.1326 12.1107 20.2925 12.1767 20.4069 12.1767H20.4164C20.9994 12.1576 21.5912 12.1305 22.1632 12.1048C22.4287 12.093 22.6934 12.0805 22.9589 12.0695C23.0132 12.0673 23.0682 12.0666 23.1232 12.0666C23.1709 12.0666 23.2185 12.0666 23.2669 12.0681C23.3168 12.0681 23.3674 12.0695 23.418 12.0695H23.5185L23.4737 11.9792C22.8555 10.7253 20.5887 9.49405 18.8976 9.49405L18.8984 9.49258Z" fill="#D90101"/>
<path id="Vector_2" d="M30.7404 19.3606C30.747 19.8143 30.3906 20.1851 29.9388 20.1946C29.4753 20.2042 29.094 19.8342 29.0933 19.3746C29.0933 18.9289 29.4651 18.5538 29.9109 18.5494C30.3583 18.545 30.7338 18.9128 30.7404 19.3606Z" fill="#D90101"/>
</g>
</g>
<defs>
<clipPath id="clip0_2640_7673">
<rect width="28" height="28" fill="white" transform="translate(8 8)"/>
</clipPath>
</defs>
</svg>
