<?xml version="1.0" encoding="UTF-8"?>
<svg xmlns="http://www.w3.org/2000/svg" xmlns:xlink="http://www.w3.org/1999/xlink" width="57pt" height="56pt" viewBox="0 0 57 56" version="1.1">
<defs>
<clipPath id="clip1">
  <path d="M 28.667969 56 C 44.128906 56 56.667969 43.464844 56.667969 28 C 56.667969 12.535156 44.128906 0 28.667969 0 C 13.203125 0 0.667969 12.535156 0.667969 28 C 0.667969 43.464844 13.203125 56 28.667969 56 Z M 28.667969 56 "/>
</clipPath>
<clipPath id="clip2">
  <path d="M 16 16 L 41 16 L 41 40 L 16 40 Z M 16 16 "/>
</clipPath>
<clipPath id="clip3">
  <path d="M 35.953125 16.3125 C 38.382812 16.3125 40.355469 18.28125 40.355469 20.710938 L 40.355469 35.289062 C 40.355469 37.71875 38.382812 39.6875 35.953125 39.6875 L 21.378906 39.6875 C 18.949219 39.6875 16.980469 37.71875 16.980469 35.289062 L 16.980469 20.710938 C 16.980469 18.28125 18.949219 16.3125 21.378906 16.3125 Z M 26.074219 19.5 C 25.605469 19.5 25.203125 19.582031 24.867188 19.75 C 24.53125 19.917969 24.246094 20.148438 24.019531 20.433594 C 23.789062 20.722656 23.621094 21.058594 23.515625 21.441406 C 23.40625 21.824219 23.355469 22.234375 23.355469 22.664062 C 23.355469 22.855469 23.359375 23.125 23.363281 23.46875 C 23.371094 23.8125 23.386719 24.085938 23.414062 24.296875 L 24.703125 24.296875 C 24.746094 24.023438 24.808594 23.8125 24.898438 23.660156 C 24.984375 23.507812 25.085938 23.394531 25.199219 23.324219 C 25.3125 23.253906 25.445312 23.207031 25.59375 23.191406 C 25.738281 23.175781 25.894531 23.167969 26.054688 23.167969 C 26.339844 23.167969 26.613281 23.207031 26.882812 23.289062 C 27.152344 23.367188 27.421875 23.457031 27.699219 23.550781 C 27.972656 23.648438 28.257812 23.734375 28.546875 23.816406 C 28.835938 23.894531 29.140625 23.9375 29.464844 23.9375 C 29.773438 23.9375 30.074219 23.898438 30.371094 23.828125 C 30.65625 23.757812 30.988281 23.632812 31.363281 23.449219 L 31.398438 23.433594 C 30.589844 23.945312 29.800781 24.53125 29.03125 25.195312 C 28.257812 25.859375 27.566406 26.609375 26.964844 27.449219 C 26.359375 28.289062 25.871094 29.210938 25.5 30.21875 C 25.132812 31.226562 24.945312 32.320312 24.945312 33.503906 C 24.945312 34.414062 25.167969 35.140625 25.613281 35.683594 C 26.054688 36.226562 26.769531 36.5 27.75 36.5 C 28.246094 36.5 28.664062 36.4375 29 36.308594 C 29.335938 36.179688 29.605469 36.003906 29.804688 35.78125 C 30.007812 35.558594 30.148438 35.292969 30.230469 34.988281 C 30.308594 34.6875 30.351562 34.351562 30.351562 33.980469 C 30.351562 33.566406 30.328125 33.15625 30.289062 32.746094 C 30.25 32.339844 30.230469 31.953125 30.230469 31.585938 C 30.230469 30.578125 30.257812 29.699219 30.320312 28.945312 C 30.378906 28.195312 30.53125 27.453125 30.773438 26.71875 C 31.015625 25.980469 31.386719 25.203125 31.890625 24.378906 C 32.398438 23.554688 33.09375 22.570312 33.980469 21.417969 L 33.191406 19.835938 C 33.085938 20.027344 32.988281 20.1875 32.902344 20.316406 C 32.8125 20.441406 32.726562 20.542969 32.636719 20.613281 C 32.550781 20.6875 32.445312 20.734375 32.324219 20.757812 C 32.203125 20.78125 32.050781 20.792969 31.863281 20.792969 C 31.3125 20.792969 30.859375 20.726562 30.5 20.589844 C 30.144531 20.457031 29.777344 20.308594 29.390625 20.148438 C 29.007812 19.988281 28.570312 19.839844 28.070312 19.703125 C 27.574219 19.566406 26.910156 19.5 26.074219 19.5 Z M 26.074219 19.5 "/>
</clipPath>
</defs>
<g id="surface1">
<g clip-path="url(#clip1)" clip-rule="evenodd">
<rect x="0" y="0" width="57" height="56" style="fill:rgb(94.902039%,0%,0%);fill-opacity:0.5;stroke:none;"/>
</g>
<g clip-path="url(#clip2)" clip-rule="nonzero">
<g clip-path="url(#clip3)" clip-rule="evenodd">
<path style=" stroke:none;fill-rule:nonzero;fill:rgb(100%,100%,100%);fill-opacity:1;" d="M 11.980469 11.3125 L 45.355469 11.3125 L 45.355469 44.6875 L 11.980469 44.6875 Z M 11.980469 11.3125 "/>
</g>
</g>
</g>
</svg>
