<?xml version="1.0" encoding="UTF-8"?>
<svg xmlns="http://www.w3.org/2000/svg" xmlns:xlink="http://www.w3.org/1999/xlink" width="44pt" height="44pt" viewBox="0 0 44 44" version="1.1">
<defs>
<clipPath id="clip1">
  <path d="M 8 0 L 36 0 C 40.417969 0 44 3.582031 44 8 L 44 36 C 44 40.417969 40.417969 44 36 44 L 8 44 C 3.582031 44 0 40.417969 0 36 L 0 8 C 0 3.582031 3.582031 0 8 0 Z M 8 0 "/>
</clipPath>
<clipPath id="clip3">
  <path d="M 8 0 L 36 0 C 40.417969 0 44 3.582031 44 8 L 44 36 C 44 40.417969 40.417969 44 36 44 L 8 44 C 3.582031 44 0 40.417969 0 36 L 0 8 C 0 3.582031 3.582031 0 8 0 Z M 8 0 "/>
</clipPath>
<clipPath id="clip4">
  <path d="M 8 0 L 36 0 C 40.417969 0 44 3.582031 44 8 L 44 36 C 44 40.417969 40.417969 44 36 44 L 8 44 C 3.582031 44 0 40.417969 0 36 L 0 8 C 0 3.582031 3.582031 0 8 0 Z M 8 0 "/>
</clipPath>
<clipPath id="clip5">
  <path d="M 8 0 L 36 0 C 40.417969 0 44 3.582031 44 8 L 44 36 C 44 40.417969 40.417969 44 36 44 L 8 44 C 3.582031 44 0 40.417969 0 36 L 0 8 C 0 3.582031 3.582031 0 8 0 Z M 8 0 "/>
</clipPath>
<clipPath id="clip2">
  <rect x="0" y="0" width="44" height="44"/>
</clipPath>
<g id="surface5" clip-path="url(#clip2)">
<g clip-path="url(#clip3)" clip-rule="evenodd">
<g clip-path="url(#clip4)" clip-rule="evenodd">
<path style=" stroke:none;fill-rule:nonzero;fill:rgb(100%,100%,100%);fill-opacity:1;" d="M 8 0 L 36 0 C 40.417969 0 44 3.582031 44 8 L 44 36 C 44 40.417969 40.417969 44 36 44 L 8 44 C 3.582031 44 0 40.417969 0 36 L 0 8 C 0 3.582031 3.582031 0 8 0 Z M 8 0 "/>
</g>
</g>
<g clip-path="url(#clip5)" clip-rule="evenodd">
<path style="fill:none;stroke-width:4;stroke-linecap:butt;stroke-linejoin:miter;stroke:rgb(18.823242%,18.823242%,18.823242%);stroke-opacity:1;stroke-miterlimit:10;" d="M 8 0 L 36 0 C 40.417969 0 44 3.582031 44 8 L 44 36 C 44 40.417969 40.417969 44 36 44 L 8 44 C 3.582031 44 0 40.417969 0 36 L 0 8 C 0 3.582031 3.582031 0 8 0 Z M 8 0 "/>
</g>
</g>
<clipPath id="clip6">
  <path d="M 8 8 L 16 8 L 16 16 L 8 16 Z M 8 8 "/>
</clipPath>
<clipPath id="clip7">
  <path d="M 12 16 C 14.210938 16 16 14.210938 16 12 C 16 9.789062 14.210938 8 12 8 C 9.789062 8 8 9.789062 8 12 C 8 14.210938 9.789062 16 12 16 Z M 12 16 "/>
</clipPath>
<clipPath id="clip8">
  <path d="M 28 28 L 36 28 L 36 36 L 28 36 Z M 28 28 "/>
</clipPath>
<clipPath id="clip9">
  <path d="M 32 36 C 34.210938 36 36 34.210938 36 32 C 36 29.789062 34.210938 28 32 28 C 29.789062 28 28 29.789062 28 32 C 28 34.210938 29.789062 36 32 36 Z M 32 36 "/>
</clipPath>
</defs>
<g id="surface1">
<g clip-path="url(#clip1)" clip-rule="evenodd">
<use xlink:href="#surface5"/>
</g>
<g clip-path="url(#clip6)" clip-rule="nonzero">
<g clip-path="url(#clip7)" clip-rule="evenodd">
<path style=" stroke:none;fill-rule:nonzero;fill:rgb(0%,0%,0%);fill-opacity:1;" d="M 3 3 L 21 3 L 21 21 L 3 21 Z M 3 3 "/>
</g>
</g>
<g clip-path="url(#clip8)" clip-rule="nonzero">
<g clip-path="url(#clip9)" clip-rule="evenodd">
<path style=" stroke:none;fill-rule:nonzero;fill:rgb(0%,0%,0%);fill-opacity:1;" d="M 23 23 L 41 23 L 41 41 L 23 41 Z M 23 23 "/>
</g>
</g>
</g>
</svg>
