<svg width="74" height="75" viewBox="0 0 74 75" fill="none" xmlns="http://www.w3.org/2000/svg">
<g opacity="0.6" clip-path="url(#clip0_910_18408)">
<mask id="mask0_910_18408" style="mask-type:alpha" maskUnits="userSpaceOnUse" x="0" y="0" width="74" height="75">
<path d="M0 0.231201H74V74.2309H0V0.231201Z" fill="white"/>
</mask>
<g mask="url(#mask0_910_18408)">
<path fill-rule="evenodd" clip-rule="evenodd" d="M74 37.2312C74 39.6193 71.3087 41.7121 70.8624 43.9691C70.4024 46.2943 72.0795 49.2546 71.1922 51.3943C70.2894 53.5716 67.001 54.475 65.7058 56.4101C64.4004 58.3601 64.8159 61.7407 63.1627 63.3944C61.5093 65.0471 58.1282 64.6322 56.1783 65.937C54.2432 67.2329 53.3401 70.5208 51.1629 71.4234C49.0236 72.3104 46.0632 70.6339 43.7377 71.0943C41.4809 71.5401 39.3881 74.231 37 74.231C34.6119 74.231 32.5191 71.5401 30.2623 71.0943C27.9366 70.6339 24.9764 72.3104 22.8366 71.4234C20.6594 70.5208 19.7564 67.2329 17.8213 65.937C15.8714 64.6318 12.4903 65.0471 10.8371 63.3937C9.18386 61.7407 9.59919 58.3591 8.29401 56.4097C6.99855 54.4746 3.71064 53.5711 2.80784 51.3943C1.92053 49.2546 3.59756 46.2943 3.1376 43.9691C2.69129 41.7119 0 39.6193 0 37.2312C0 34.8431 2.69129 32.7503 3.1376 30.4933C3.59756 28.1678 1.92053 25.2076 2.80784 23.0678C3.71064 20.8908 6.99901 19.9874 8.29447 18.0523C9.59965 16.1026 9.18409 12.7215 10.8375 11.0683C12.4907 9.41506 15.8718 9.83039 17.8213 8.52498C19.7564 7.22952 20.6599 3.94207 22.8366 3.03904C24.9764 2.15196 27.9369 3.82853 30.2623 3.36857C32.5191 2.92226 34.6119 0.231201 37 0.231201C39.3881 0.231201 41.4809 2.92226 43.7377 3.36857C46.0634 3.82853 49.0236 2.15219 51.1634 3.03904C53.3406 3.94184 54.2439 7.22975 56.1787 8.52521C58.1286 9.83062 61.5097 9.41506 63.1632 11.0685C64.8161 12.7215 64.4008 16.1028 65.706 18.0527C67.0014 19.9878 70.2894 20.8913 71.1922 23.0683C72.0795 25.208 70.4024 28.1678 70.8624 30.4935C71.3087 32.7505 74 34.8431 74 37.2312Z" fill="#4D4D4D"/>
</g>
<path fill-rule="evenodd" clip-rule="evenodd" d="M36.9999 70.5103C18.6497 70.5103 3.72046 55.5812 3.72046 37.2308C3.72046 18.8807 18.6497 3.95166 36.9999 3.95166C55.3503 3.95166 70.2793 18.8807 70.2793 37.2308C70.2793 55.5812 55.3503 70.5103 36.9999 70.5103Z" fill="#FEFEFE"/>
<path fill-rule="evenodd" clip-rule="evenodd" d="M4.97192 37.231C4.97192 19.5425 19.3115 5.20288 37 5.20288C54.6886 5.20288 69.0282 19.5425 69.0282 37.231C69.0282 54.9198 54.6886 69.2591 37 69.2591C19.3115 69.2591 4.97192 54.9198 4.97192 37.231Z" fill="#4D4D4D"/>
<path fill-rule="evenodd" clip-rule="evenodd" d="M6.7063 37.231C6.7063 20.5003 20.2693 6.93726 37 6.93726C53.731 6.93726 67.2938 20.5003 67.2938 37.231C67.2938 53.9619 53.731 67.5248 37 67.5248C20.2693 67.5248 6.7063 53.9619 6.7063 37.231Z" fill="#FEFEFE"/>
<path fill-rule="evenodd" clip-rule="evenodd" d="M8.7876 37.2311C8.7876 21.6499 21.4189 9.01855 37.0001 9.01855C52.5815 9.01855 65.2126 21.6499 65.2126 37.2311C65.2126 52.8124 52.5815 65.4436 37.0001 65.4436C21.4189 65.4436 8.7876 52.8124 8.7876 37.2311Z" fill="#4D4D4D"/>
<path fill-rule="evenodd" clip-rule="evenodd" d="M35.3108 57.9147C35.2657 57.8997 35.2764 57.8627 35.2401 57.837C35.2174 57.8463 35.2091 57.8567 35.1869 57.8657C35.2054 57.9112 35.2657 57.8997 35.3108 57.9147ZM36.1121 56.9744C36.0689 56.9652 36.0571 56.9365 36.0173 56.9335C35.6457 57.0448 35.2757 57.255 34.9175 57.4612C34.7588 57.7101 35.0837 57.7098 35.2401 57.837C35.4214 57.7373 35.6256 57.6342 35.7701 57.5417C35.7046 57.4767 35.6593 57.4293 35.7631 57.3007C35.9976 57.2052 36.027 57.0871 36.1121 56.9744ZM35.592 58.0313C35.4974 57.9906 35.4056 57.9554 35.3108 57.9147C35.4186 57.9568 35.3335 58.1624 35.4854 58.1208C35.5689 58.0999 35.5252 58.0585 35.592 58.0313ZM37.2256 51.6608C37.1342 51.6911 37.1555 51.649 37.0838 51.6647C36.8889 51.6647 36.6215 51.7736 36.344 51.8934C36.3716 52.1205 36.705 52.2352 37.202 51.9545C37.2172 52.0868 37.4446 51.9737 37.5412 52.0206C37.5766 51.9792 37.6684 51.9813 37.7225 51.9533C37.6661 51.7843 37.5063 51.6784 37.2478 51.6515C37.2369 51.6562 37.2256 51.6608 37.2256 51.6608ZM35.0194 62.0546C34.8407 62.0615 34.6229 62.0707 34.393 62.1778C34.3708 62.1868 34.3865 62.1931 34.3634 62.2025C34.4839 62.2726 34.5479 62.3987 34.8687 62.2278C34.9357 62.1681 34.9776 62.111 35.0194 62.0546ZM41.5728 51.0239C41.5839 51.0195 41.5888 51.0311 41.5888 51.0311C41.5976 51.0207 41.6205 51.0112 41.6179 51.0057C41.5976 51.0207 41.5953 51.0149 41.5728 51.0239ZM21.8602 61.7912C21.7917 61.6876 21.6668 61.5729 21.7841 61.4124C21.5362 61.5074 21.5357 61.6654 21.5015 61.8057C21.6137 61.8258 21.7189 61.8286 21.8602 61.7912ZM13.4357 47.792C13.5093 47.7483 13.454 47.6791 13.4265 47.6111C13.275 47.6204 13.1878 47.5362 13.0081 47.6361C12.7737 47.764 12.8345 47.8188 12.7929 47.9083C13.0142 47.8116 13.2172 47.7353 13.4357 47.792ZM13.547 63.6798C13.5687 63.671 13.5615 63.6534 13.5835 63.6446C13.5705 63.6435 13.5544 63.6363 13.5414 63.6365C13.5375 63.6569 13.5525 63.6641 13.547 63.6798ZM18.7822 61.3284C18.921 61.3176 19.0285 61.2616 19.1423 61.2544C19.211 61.1668 19.2979 61.0912 19.2882 61.0035C19.1758 60.9834 19.0361 60.9936 18.8955 60.9984C18.8197 61.1016 18.7362 61.2151 18.7822 61.3284ZM40.4832 48.2205C40.4897 48.2367 40.5637 48.2265 40.55 48.193C40.2811 48.2364 40.0383 48.2161 40.2323 47.9913C40.0838 48.0722 40.0489 47.9869 39.8829 48.088C39.89 48.1055 39.829 48.1166 39.8359 48.134C39.9828 48.2387 40.1539 48.3077 40.3618 48.3088C40.4048 48.2845 40.442 48.2494 40.4832 48.2205ZM33.243 67.6908C33.375 67.6304 33.4613 67.556 33.6086 67.5026C33.4271 67.5366 33.3919 67.353 33.2097 67.4797C33.0073 67.6214 33.2606 67.6043 33.243 67.6908ZM32.9789 41.5586C32.974 41.5468 32.9627 41.5515 32.9604 41.5459C33.0189 41.5286 33.0203 41.5015 33.0473 41.4703C33.0404 41.4208 33.1829 41.3561 33.1644 41.3107C32.9565 41.3755 32.6928 41.4303 32.5737 41.6176C32.7634 41.5404 32.8378 41.5961 32.8933 41.6664C32.9146 41.6241 32.9655 41.5896 32.9789 41.5586ZM32.6274 41.239C32.6119 41.2319 32.5983 41.2309 32.574 41.2351C32.5784 41.2455 32.6003 41.2365 32.5939 41.2527C32.6075 41.2538 32.6142 41.2379 32.6274 41.239ZM6.26097 52.2213C6.16731 52.0872 5.88102 52.118 5.60976 52.3145C4.84918 52.8758 6.59397 52.6857 6.26097 52.2213ZM22.5576 25.2437C22.4741 25.2643 22.3821 25.2615 22.3895 25.3122C22.3254 25.3769 22.4302 25.348 22.4642 25.3667C22.5111 25.3216 22.5213 25.2842 22.5576 25.2437ZM8.00644 50.117C8.02263 49.9976 7.87532 50.0184 7.72223 50.0272C7.69425 50.0857 7.68061 50.1167 7.69934 50.163C7.80202 50.16 7.9077 50.1304 7.99696 50.1264C7.99696 50.1264 8.00829 50.1218 8.00644 50.117ZM21.6095 30.4561C21.5149 30.5084 21.4506 30.5141 21.4021 30.5206C21.5098 30.5627 21.4647 30.5486 21.6167 30.4734C21.6143 30.4679 21.6095 30.4561 21.6095 30.4561ZM17.6567 66.2307C17.7351 66.2312 17.8563 66.2087 18.0186 66.1292C17.9988 66.1116 18.0163 66.091 18.023 66.0751C17.9777 66.0598 17.8887 66.0961 17.8366 66.0984C17.7636 66.1417 17.6403 66.1583 17.6567 66.2307ZM20.6179 59.3193C20.6204 59.3249 20.6204 59.3249 20.6227 59.3309C20.6343 59.3263 20.6408 59.3422 20.6521 59.3376C20.6634 59.3332 20.65 59.333 20.6722 59.3239C20.6387 59.3376 20.6408 59.3101 20.6179 59.3193ZM20.5138 58.8395L20.2907 58.9304C20.2948 59.0349 20.3018 59.1184 20.2338 59.2377C20.2768 59.2469 20.3064 59.255 20.3485 59.2638C20.3533 59.1163 20.4308 58.9866 20.5138 58.8395ZM19.6635 55.8915C19.7382 55.9137 19.8566 55.8857 19.8737 55.9579C19.954 55.9317 19.9424 55.9031 19.9956 55.8746C19.8971 55.8554 19.7963 55.8644 19.6635 55.8915ZM27.613 62.0809C27.569 62.1649 27.3931 62.2768 27.4206 62.3448C27.449 62.4451 27.625 62.3344 27.7059 62.3741C27.7429 62.2729 27.7575 62.1808 27.8458 62.0788C27.8058 62.0423 27.6805 62.0869 27.613 62.0809ZM18.2564 66.0725C18.2404 66.066 18.2626 66.0568 18.2578 66.0452C18.2554 66.0392 18.2224 66.0529 18.2083 66.0519C18.2247 66.0586 18.2404 66.066 18.2564 66.0725ZM13.9218 63.1972C13.9218 63.1972 13.9331 63.1925 13.9355 63.1983C13.9371 63.1708 13.9954 63.1537 13.9861 63.1308C13.9812 63.119 13.953 63.1442 13.9484 63.1324C13.944 63.1546 13.9394 63.1766 13.9218 63.1972ZM32.043 65.2877C32.0629 65.2731 32.0826 65.2578 32.1001 65.2377C32.0578 65.2292 32.0155 65.2853 31.9642 65.2872C31.9817 65.299 32.0155 65.2853 32.043 65.2877ZM16.5037 63.8155C16.5555 63.8803 16.473 63.9006 16.4464 63.964C16.7553 63.8904 17.021 63.7755 17.0886 63.59C17.0458 63.5808 17.0185 63.5789 16.9782 63.5762C16.7482 63.6497 16.6614 63.7244 16.5037 63.8155ZM38.7257 49.3053C38.5671 49.3633 38.4043 49.4105 38.2345 49.5055C38.1561 49.5372 38.1321 49.574 38.1059 49.6047C38.0854 49.62 38.0897 49.6306 38.0699 49.6454C38.207 49.6297 38.5028 49.4297 38.7842 49.3543C38.7974 49.3233 38.7241 49.3328 38.7257 49.3053ZM37.063 46.9197C36.8863 47.1234 37.2052 47.1715 37.0861 47.3586C36.937 47.4072 36.9687 47.2622 36.8193 47.3098C36.6437 47.4863 36.9832 47.5203 36.743 47.6974C37.075 47.6807 37.0574 47.3836 37.4466 47.2522C37.2998 47.1142 37.4124 46.8822 37.063 46.9197ZM36.9034 48.0279C36.9576 48.0327 36.9774 48.0503 37.0292 48.0491C37.0066 48.0248 36.9638 48.0165 36.952 47.9876C36.9189 48.0013 36.9374 48.014 36.9034 48.0279ZM38.2609 50.0171L37.8476 50.1854C37.8865 50.2812 37.8666 50.4548 38.0699 50.3785C38.1272 50.2626 38.2192 50.1392 38.2609 50.0171ZM32.4479 56.8295C32.5927 56.7705 32.9782 56.693 33.0825 56.8549C32.9939 56.891 33.0497 56.9344 32.9858 56.967C32.6845 56.9645 32.204 57.4767 32.7243 57.3174C32.7814 57.2022 32.6336 57.1897 32.7113 57.1245C32.8896 57.0522 33.009 57.0235 33.098 57.0533C32.9858 57.1259 33.0642 57.2258 32.7805 57.2945C32.8556 57.4157 32.9299 57.4057 32.9863 57.4487C33.0892 57.3798 33.206 57.3186 33.2798 57.2429C33.2555 57.0549 33.3403 56.816 33.1447 56.7827C33.2208 56.746 33.2582 56.743 33.3163 56.7261C33.2895 56.6912 33.3494 56.6465 33.298 56.6151C33.1963 56.5573 32.8993 56.6912 32.7222 56.7046C32.6244 56.7511 32.497 56.7895 32.4479 56.8295ZM32.895 59.81C32.9394 59.792 32.9641 59.789 33.0002 59.7804C33.0991 59.8655 33.2703 59.8685 33.4453 59.8831C33.3713 59.7344 33.5677 59.6086 33.7344 59.475C33.5216 59.4955 33.4502 59.3524 33.1202 59.5339C32.9292 59.6373 32.9856 59.7138 32.895 59.81ZM33.4731 59.9513C33.523 60.0427 33.2659 60.1139 33.422 60.2092C33.5968 60.224 33.8105 60.0776 33.8766 59.9846C33.8505 59.8568 33.625 59.9423 33.4731 59.9513ZM37.2573 47.7783C37.3951 47.7346 37.3886 47.6847 37.5119 47.6345C37.5297 47.456 37.3123 47.5316 37.1557 47.5293C37.1971 47.6632 37.1241 47.7066 37.2573 47.7783ZM37.9263 47.6636C37.8086 47.5337 37.868 47.4571 37.7459 47.3803C37.3518 47.5947 37.7355 47.6752 37.5294 47.8722C37.686 47.8084 37.7191 47.7291 37.9263 47.6636ZM39.5138 49.9949C39.1382 49.9031 38.6556 49.9019 38.8284 50.2284C38.8519 50.1919 38.9808 50.2511 39.0952 50.2772C39.249 50.1755 39.4303 50.1082 39.5138 49.9949ZM32.1931 41.2571C32.1947 41.2307 32.1924 41.2249 32.1769 41.2178C32.096 41.2444 32.0909 41.1671 32.0035 41.2094C31.8717 41.2696 31.9605 41.3262 31.8694 41.3891C31.9651 41.338 32.0335 41.2834 32.1931 41.2571ZM47.8492 50.2037C47.7627 50.2455 47.8295 50.2844 47.7683 50.3228C47.9607 50.317 48.12 50.357 48.4324 50.2298C48.4412 50.2194 48.4412 50.2194 48.4504 50.2092C48.2129 50.2331 48.1838 50.0339 47.8492 50.2037ZM54.4017 50.7624C54.3593 50.7862 54.3186 50.7825 54.2742 50.8005C54.3078 50.8204 54.2544 50.8815 54.3892 50.86C54.3889 50.8267 54.4042 50.8005 54.4017 50.7624ZM61.5535 43.8198C61.3331 43.5666 60.7761 43.7007 60.4183 43.5559C59.8053 43.9051 59.6573 44.2763 59.79 44.5385C60.3335 44.403 60.8064 44.3489 61.0066 44.6176C61.1269 44.5616 61.2279 44.5866 61.3267 44.573C61.5429 44.4645 61.4594 44.3537 61.5811 44.2379C61.5938 44.206 61.5894 44.1953 61.5461 44.1526C61.5841 44.1183 61.649 44.0853 61.7161 44.058C61.8431 43.8607 62.1916 43.6595 62.1173 43.5106C62.1039 43.4773 61.9705 43.5317 61.9781 43.4884C61.6493 43.5765 61.7022 43.7067 61.5535 43.8198ZM56.8827 48.2922C56.9103 48.5519 57.3182 48.3717 57.3372 48.6416C57.6304 48.5623 57.6944 48.4635 57.839 48.371C57.7585 48.2061 57.607 48.0889 57.3173 48.0817C57.163 48.1511 57.1036 48.2279 56.8827 48.2922ZM43.6837 56.0744C43.5889 55.9072 43.8585 55.7382 44.0909 55.7028C44.0653 55.5423 43.8657 55.5967 43.6095 55.7012C43.5523 55.817 43.6927 55.9715 43.2818 56.0793C43.3412 56.1604 43.4619 56.1706 43.6837 56.0744ZM45.7212 50.6012C45.8128 50.5704 45.8459 50.5249 45.8949 50.4846C45.9185 50.4481 45.9592 50.4194 45.9701 50.3813C45.8734 50.4007 45.7488 50.4458 45.7564 50.3364C45.7765 50.1628 46.0561 50.0825 46.2728 49.974C46.2013 49.7985 45.7855 49.9609 45.4918 49.9421C45.5483 50.1764 45.6098 50.4231 45.7212 50.6012ZM44.8078 50.5642C44.7895 50.5191 44.8099 50.4719 44.8316 50.4296C44.7132 50.4909 44.6725 50.455 44.5523 50.5108C44.6018 50.5691 44.6341 50.6486 44.8078 50.5642ZM46.1252 52.999C45.9798 53.1836 45.4724 53.3443 45.1801 53.4245L45.2446 53.5827C45.2647 53.6012 45.3001 53.5924 45.3214 53.6107C45.8052 53.6181 46.4934 53.0076 46.1252 52.999ZM46.3886 52.6538C46.557 52.6519 46.7804 52.5937 46.9994 52.524C46.8458 52.4672 46.7133 52.4618 46.4832 52.5032C46.5063 52.5599 46.408 52.6066 46.3886 52.6538ZM40.1608 60.2369C40.122 60.3979 40.3965 60.4314 40.4915 60.538C40.5611 60.483 40.652 60.4524 40.6941 60.3953C40.4897 60.3736 40.2589 60.3815 40.1608 60.2369ZM40.3807 47.3632C40.4816 47.388 40.6892 47.2911 40.8883 47.2356C40.9813 47.1775 40.9027 47.1438 40.8469 47.1341C40.9135 47.0411 41.0377 46.931 41.1732 46.8168C40.9374 46.8457 40.6957 46.8915 40.3838 47.0522C40.3847 47.1503 40.4596 47.2058 40.3807 47.3632ZM40.1749 52.1288C40.1349 52.1251 40.088 52.1381 40.0475 52.1351C40.0901 52.1434 40.1042 52.1779 40.1666 52.1716C40.1377 52.1642 40.1798 52.1406 40.1749 52.1288ZM41.6542 55.2165L41.5597 54.9845C41.386 55.0363 41.4403 55.1059 41.228 55.1601C41.2748 55.3055 41.3962 55.3488 41.5111 55.408C41.5111 55.408 41.5088 55.4022 41.5201 55.3976C41.4665 55.3927 41.5039 55.3575 41.4473 55.3145L41.6369 55.2373C41.6459 55.2267 41.6566 55.2223 41.6542 55.2165ZM39.446 60.112C39.2395 60.2422 39.2294 60.3456 39.1695 60.455C39.1991 60.4631 39.2083 60.4862 39.2354 60.4885C39.4925 60.4164 39.4509 60.3146 39.6784 60.2355C39.5818 60.221 39.5277 60.1516 39.446 60.112ZM39.4375 57.2492C39.4407 57.2883 39.4835 57.3299 39.4076 57.3676C39.184 57.4252 39.1674 57.5112 39.0113 57.5748C39.092 57.4559 38.7902 57.4804 38.697 57.4124C38.5837 57.4518 38.488 57.4716 38.3737 57.5114C38.2095 57.6513 38.1499 57.7616 38.1337 57.88C38.2653 57.8197 38.3825 57.7584 38.407 57.689C38.4896 57.6691 38.4565 57.7149 38.423 57.7286C38.3742 57.9272 38.6945 57.7239 38.709 57.8569C38.3973 57.9839 38.382 58.0426 38.2731 58.1275C38.4302 58.3536 38.7636 58.4686 39.3697 58.1032C39.8193 57.8338 39.8255 57.5604 39.7171 57.3602C39.6995 57.3479 39.6572 57.3708 39.6391 57.3592C39.6606 57.2846 39.7203 57.2725 39.7679 57.2598C39.7173 57.2013 39.5304 57.2839 39.4375 57.2492ZM38.1372 58.2084C38.1998 58.1702 38.2329 58.1568 38.2731 58.1275C38.216 58.0509 38.0992 58.0192 38.1092 57.9168C38.2979 57.9649 38.1642 58.0521 38.1372 58.2084ZM22.797 63.9318C22.7077 63.9681 22.7163 63.8916 22.6002 63.9594C22.3816 64.0942 22.4133 64.2336 22.4031 64.3696C22.5481 64.3106 22.7098 64.3238 22.7877 64.2586C22.6739 64.1404 22.7267 64.0465 22.797 63.9318ZM22.8573 64.5273C23.2426 64.4501 23.4539 64.2979 23.5046 64.0389C23.5 64.0276 23.4976 64.022 23.4958 64.0169C23.1857 64.1825 22.923 64.1441 22.7479 64.322C22.7907 64.3636 22.8189 64.4637 22.8573 64.5273ZM36.119 60.0279C36.2881 60.0249 36.5399 59.909 36.6444 60.0385C36.7941 59.9573 36.6942 59.8408 36.6655 59.7069C36.5293 59.7559 36.45 59.7219 36.3003 59.8019C36.1401 59.8877 36.2041 59.9476 36.119 60.0279ZM34.5667 63.0186C34.5435 62.962 34.5738 62.9092 34.5597 62.8424C34.7343 62.7911 34.9466 62.771 35.0396 62.6468C35.0363 62.5753 34.9424 62.6001 34.917 62.5379C34.4832 62.7814 34.2769 62.8191 34.0732 63.0538C34.2288 63.0834 34.3585 63.0829 34.5667 63.0186ZM31.14 67.2868C31.2226 66.8833 30.5492 66.8602 30.0201 67.2209C28.8788 67.9968 31.004 67.9762 31.14 67.2868ZM38.5069 62.8517C38.3053 62.709 38.4436 62.4412 38.0955 62.4185C37.5234 62.6116 37.3285 62.804 37.4385 62.977C37.2575 63.0443 37.0919 63.085 36.9423 63.1322C36.9471 63.144 36.9111 63.1518 36.9159 63.1634C37.0674 63.6629 38.0673 63.2753 38.5069 62.8517ZM31.5847 70.2949C31.513 70.3109 31.4062 70.3675 31.3102 70.3869C31.7711 70.3703 32.3862 70.1529 32.09 69.7783C31.9896 69.6606 31.7341 69.6398 31.2947 69.871C31.5334 69.946 31.7544 70.0403 31.5847 70.2949ZM38.0201 42.7519C38.1305 42.8335 38.2593 42.8929 38.5832 42.7609C38.6024 42.6804 38.4059 42.5169 38.2285 42.4961C38.0856 42.5935 38.0127 42.7024 37.8731 42.8065C37.9131 42.8092 37.9165 42.8481 37.9448 42.8555C37.9716 42.8256 37.9288 42.7838 38.0201 42.7519ZM22.2612 69.0353C22.2824 69.0873 22.2489 69.1333 22.2276 69.1757C22.239 69.1708 22.2695 69.1516 22.2945 69.1484C22.3051 69.1107 22.3537 69.0707 22.3315 69.0471C22.3127 69.0346 22.3215 68.9918 22.2612 69.0353ZM29.2215 33.8707C29.2754 33.8434 29.2454 33.802 29.2953 33.7625C29.235 33.6811 29.1318 33.6503 29.123 33.5019C28.9561 33.5701 28.8744 33.5306 28.6964 33.6367C28.812 33.6947 28.8062 33.8099 28.8118 33.9193C28.9131 33.9117 28.9757 33.9709 29.0877 33.9253C29.1418 33.898 29.1792 33.895 29.2215 33.8707ZM38.0962 39.6187C38.1406 39.5671 38.1758 39.5259 38.2068 39.4739C38.1441 39.4795 38.1191 39.4503 38.0384 39.4767C38.0243 39.569 38.0685 39.5828 38.0962 39.6187ZM42.4458 49.4933C42.3364 49.5446 42.2402 49.5636 42.1528 49.5735C41.9419 49.7578 42.2497 49.8436 42.5032 49.7944C42.3966 49.6922 42.5032 49.6017 42.4458 49.4933ZM17.4771 42.7641C17.4597 42.7847 17.4308 42.8097 17.4266 42.8317C17.5173 42.8004 17.5668 42.7614 17.6336 42.7341C17.5823 42.7348 17.5376 42.753 17.4771 42.7641ZM16.0144 48.0221C15.4929 48.4984 16.1615 48.5098 16.6938 48.2205C16.5393 48.192 16.3566 48.1599 16.1874 48.2221C16.3375 48.1747 16.1478 48.0926 16.1744 48.0295C16.1113 48.035 16.0778 48.0165 16.0144 48.0221ZM27.1794 46.8073C27.2111 46.7879 27.2578 46.7756 27.2867 46.7504C27.3806 46.7578 27.4067 46.8536 27.4962 46.8825C27.4987 46.8885 27.5242 46.885 27.5392 46.891L27.785 46.7909C27.7748 46.7035 27.7938 46.5895 27.9441 46.6077C27.7538 46.4602 28.1226 46.1515 27.8588 46.1739C27.8475 46.1785 27.8451 46.173 27.8451 46.173C27.6965 46.3196 27.9832 46.3536 27.6699 46.5078C27.6303 46.4447 27.619 46.3832 27.6784 46.3064C27.4927 46.3624 27.4194 46.438 27.3283 46.5016C27.2797 46.5742 27.1602 46.663 27.1447 46.722C27.1586 46.7231 27.196 46.6875 27.1896 46.7037C27.163 46.7345 27.1361 46.7645 27.1079 46.7897C27.1077 46.8233 27.1699 46.7842 27.1794 46.8073ZM26.8646 51.8143C26.7918 51.8909 26.6507 51.9607 26.632 52.0412C26.7425 52.0565 26.8714 52.0229 27.0062 52.0014C27.0069 51.8761 27.0207 51.7507 27.1232 51.6175C26.8968 51.7029 26.7324 51.4589 26.6593 51.5345C26.7185 51.6168 26.5333 51.6397 26.4058 51.6784C26.3931 51.7103 26.3656 51.7406 26.3642 51.7681C26.4713 51.7769 26.5575 51.7942 26.7289 51.7054C26.7518 51.7618 26.7925 51.7979 26.8646 51.8143ZM33.1151 60.2885C33.1563 60.2917 33.1852 60.2991 33.2233 60.2968C33.2321 60.2864 33.2698 60.2843 33.277 60.2684C33.2453 60.2554 33.1669 60.2873 33.1151 60.2885ZM22.473 53.6835C22.3807 53.8405 22.2729 53.7985 22.0822 53.8426C21.9941 53.9446 22.1048 54.0249 22.2348 54.0251C22.2528 54.0043 22.2836 53.9853 22.2854 53.9576C22.3812 53.8727 22.4337 53.7788 22.473 53.6835ZM22.395 40.8461C22.4848 40.8096 22.5442 40.7652 22.5937 40.7261C22.7736 40.6584 22.7389 40.8582 22.9947 40.7203C22.9494 40.6727 22.8885 40.6519 22.8747 40.5851C22.7958 40.5832 22.7391 40.5742 22.6453 40.5987C22.6349 40.6031 22.6524 40.6163 22.642 40.6204C22.4919 40.6679 22.476 40.6288 22.3685 40.6526C22.192 40.7636 22.2403 40.8498 22.2154 40.9463C22.3451 40.9784 22.4774 41.0173 22.6651 40.9016C22.5148 40.9495 22.4825 40.87 22.395 40.8461ZM19.4013 48.2529C19.5375 48.3953 19.1506 48.5005 19.1571 48.6434C19.3187 48.6566 19.2817 48.5657 19.4085 48.4952C19.6258 48.5181 19.7375 48.6636 19.9998 48.6363C20.1471 48.5505 19.9734 48.476 20.0513 48.3782C19.8312 48.3817 19.6725 48.4399 19.6994 48.2175C19.5805 48.2459 19.4975 48.2341 19.4013 48.2529ZM21.1313 46.3663C21.2578 46.2623 21.5149 46.1899 21.8116 46.0891C21.8123 45.8978 21.4511 45.9064 21.2018 45.8358C21.0015 46.0167 20.8873 46.1818 20.9733 46.2986C21.0025 46.3057 21.0654 46.3339 21.0744 46.3561C21.0903 46.3629 21.1153 46.3594 21.1313 46.3663ZM32.015 57.3627C31.9253 57.3993 31.9357 57.3287 31.8437 57.3597C31.8166 57.516 31.6941 57.5986 31.6032 57.6946C31.7396 57.8049 31.9105 57.8412 32.1857 57.7817C32.2944 57.5394 31.8072 57.6844 32.015 57.3627ZM34.085 47.2747C34.0931 47.1984 34.2515 47.1408 34.1606 47.046C34.0558 47.0751 33.9976 47.0598 33.8588 47.1352C33.8958 47.2263 33.9062 47.3475 34.085 47.2747ZM20.6843 43.0026C20.6484 43.0104 20.6308 42.9986 20.5837 43.0109C20.6107 43.0134 20.6086 43.0398 20.6445 43.0319C20.6507 43.0162 20.678 43.0183 20.6843 43.0026ZM28.3964 46.1852C28.3879 46.1954 28.3453 46.1869 28.3407 46.2079C28.5669 46.1226 28.1236 46.4417 28.4103 46.3783C28.5317 46.2292 28.7186 46.2394 28.9218 46.1957C28.8552 46.0638 28.5851 46.2012 28.3964 46.1852ZM24.6865 46.4695C24.5933 46.4012 24.3343 46.5002 24.1428 46.5391C24.1449 46.5446 24.1135 46.5643 24.1183 46.5758C24.2175 46.6605 24.341 46.7083 24.6382 46.5749C24.6463 46.5314 24.6081 46.5014 24.6865 46.4695ZM18.4809 46.0266C18.6275 45.9077 18.6664 45.7787 18.8197 45.6448C18.6458 45.6957 18.4774 45.7306 18.2457 45.8319C18.2709 45.96 18.3526 45.9672 18.3893 46.0245C18.427 46.0215 18.4451 46.0345 18.4809 46.0266ZM17.777 42.8936C17.777 42.926 17.7772 42.9593 17.7668 42.9958C17.7929 42.9653 17.8089 42.9399 17.8221 42.9075C17.7971 42.911 17.8036 42.8946 17.777 42.8936ZM24.742 46.6057C24.7711 46.6124 24.7556 46.6392 24.7852 46.6468C24.9217 46.6306 24.9612 46.7278 25.1259 46.6535C25.2466 46.5978 25.1784 46.5259 25.2563 46.4621C25.2977 46.4045 25.2866 46.377 25.2861 46.3437C25.3201 46.3298 25.3063 46.3622 25.3294 46.3527C25.4015 46.2761 25.4549 46.2153 25.488 46.136C25.4697 46.1235 25.4274 46.1473 25.4203 46.13C25.5202 46.0891 25.5246 46.0349 25.5847 45.9908C25.5844 45.9579 25.6601 45.9207 25.6596 45.8872C25.4968 45.9669 25.4464 45.9082 25.2817 45.982C25.2265 46.1968 24.8761 46.392 24.742 46.6057ZM24.4895 45.9547C24.603 46.0081 24.7154 46.0606 24.8618 46.068C24.8761 46.0088 25.1185 45.9959 25.238 45.8745C25.2357 45.8687 25.2357 45.8687 25.2334 45.8633C25.0338 45.819 24.924 45.6793 24.5385 45.8823C24.4962 45.9064 24.5325 45.9306 24.4895 45.9547ZM25.8721 48.5475C25.8939 48.5387 25.8784 48.5327 25.901 48.5234C25.8434 48.5401 25.8425 48.507 25.7863 48.5299C25.8046 48.5424 25.8892 48.4947 25.8721 48.5475ZM27.6114 46.9086C27.6539 46.9169 27.6807 46.8873 27.7094 46.8943C27.6965 46.8931 27.6895 46.8767 27.6532 46.8848C27.6315 46.8936 27.634 46.8993 27.6114 46.9086ZM27.7094 46.8943C27.8192 46.9086 27.8636 46.9835 28.0153 46.9417C28.0981 46.8556 28.248 46.8739 28.3768 46.808C28.0829 46.9803 27.9344 46.9347 27.7094 46.8943ZM23.1156 43.6038C23.3388 43.5784 23.8191 43.7326 24.0008 43.4137C23.9754 43.3515 23.6919 43.6126 23.6362 43.4762C23.7134 43.379 23.4646 43.3751 23.3318 43.3365C23.1383 43.4678 22.9896 43.6147 22.9753 43.7067C22.9711 43.7608 23.0872 43.6945 23.0923 43.7382C23.0846 43.6887 23.0305 43.6503 23.1156 43.6038ZM20.6045 66.5022C20.6692 66.4693 20.6907 66.4277 20.7555 66.3946C20.7594 66.3731 20.74 66.3875 20.7351 66.3759C20.6792 66.399 20.7099 66.3139 20.6366 66.357C20.5404 66.4097 20.6819 66.4372 20.6045 66.5022ZM34.8953 41.662C34.9577 41.6234 35.0958 41.5804 35.1161 41.533C35.0426 41.5751 35.0194 41.5519 34.9609 41.5693C34.9105 41.6033 34.935 41.6326 34.8953 41.662ZM11.0987 50.1371C11.0825 50.0978 11.0511 50.0837 11.0088 50.0756C10.9304 50.1075 10.9096 50.0566 10.8069 50.1244C10.5678 50.3346 10.5483 50.4474 10.6036 50.5179C10.6392 50.5422 10.6889 50.5355 10.7343 50.5506C10.8034 50.5614 10.8684 50.5619 10.9553 50.5519C11.0284 50.4766 11.1829 50.3748 11.2765 50.382C11.329 50.2879 11.4183 50.1859 11.4863 50.0987C11.4891 50.1366 11.585 50.0844 11.6225 50.082C11.616 50.0323 11.6868 49.9835 11.6144 49.9336C11.5788 49.9088 11.3818 50.003 11.2701 50.0147C11.2099 50.0591 11.1336 50.0635 11.0987 50.1371ZM11.9437 45.4089C11.9388 45.3645 11.9636 45.3285 12.0094 45.2829C11.6193 45.4094 12.0577 45.1446 11.9243 45.0739C11.8866 45.1083 11.835 45.1425 11.798 45.1782C11.7316 45.2707 11.656 45.3743 11.7268 45.4843C11.7386 45.4795 11.7386 45.4795 11.7499 45.4748C11.8216 45.4915 11.8702 45.4189 11.9437 45.4089ZM26.1233 64.1413C26.0204 64.1767 26.021 64.0835 25.8918 64.1497C25.676 64.2577 25.6971 64.3742 25.6136 64.4878C25.6272 64.4889 25.618 64.4982 25.618 64.4982C25.8425 64.315 25.9524 64.3294 26.1186 64.1624C26.1145 64.152 26.1277 64.152 26.1233 64.1413ZM33.9162 67.7461C33.9053 67.7505 33.9078 67.7565 33.9078 67.7565C34.0549 67.6707 34.2973 67.6906 34.3292 67.5458C34.344 67.4538 34.1229 67.5826 34.075 67.5299C34.0135 67.6013 33.9518 67.6728 33.9162 67.7461ZM41.7444 49.9442C41.6013 49.7847 42.1614 49.6885 42.1387 49.5391C42.1387 49.5391 42.1364 49.5331 42.1251 49.5377C41.8725 49.5881 41.6621 49.5812 41.3118 49.7775C41.1959 49.8441 41.2882 49.8788 41.2082 49.938C41.3455 49.9551 41.4336 50.0441 41.7444 49.9442ZM31.9901 41.9416C32.0058 41.9807 32.2065 41.7402 32.3638 41.6761C32.1848 41.7489 32.0641 41.7728 31.9986 41.7402C32.0574 41.5966 31.809 41.6583 31.6751 41.647C31.6506 41.6837 31.6016 41.7228 31.5882 41.7552C31.6807 41.7903 31.7859 41.7933 31.9207 41.7716C31.9415 41.8227 31.7332 42.0785 31.9901 41.9416ZM35.8279 42.2591C35.6741 42.2959 35.694 42.1222 35.4785 42.2306C35.5275 42.2887 35.4456 42.3421 35.4688 42.3985C35.5254 42.4092 35.617 42.3784 35.7107 42.386C35.7754 42.3532 35.7657 42.2979 35.8279 42.2591ZM34.1065 59.5279C34.1888 59.6327 34.1178 59.7141 34.1444 59.8098C34.2406 59.6639 34.5285 59.5402 34.4381 59.4128C34.4122 59.3832 34.2829 59.4491 34.2489 59.4294C34.198 59.4636 34.1446 59.4921 34.1065 59.5279ZM36.0723 52.3744C35.9017 52.371 35.7752 52.509 35.7028 52.6179C35.6989 52.6392 35.6584 52.6681 35.663 52.6797C35.802 52.6367 35.9024 52.6281 36.0208 52.6004C36.1311 52.4563 36.0397 52.4873 36.0723 52.3744ZM32.0183 64.9086C32.0636 64.9225 32.1108 64.9438 32.1376 64.9785C32.4505 64.8513 32.247 64.7028 32.583 64.6649C32.4149 64.6998 32.3913 64.5777 32.1508 64.7218C32.0153 64.8039 32.0821 64.8423 32.0183 64.9086ZM31.7914 54.7068C31.8377 54.6613 31.9043 54.634 31.9262 54.5926C31.8275 54.5725 31.6996 54.5787 31.603 54.5658C31.609 54.6751 31.7237 54.6687 31.7914 54.7068ZM35.4237 54.6788C35.41 54.6777 35.401 54.6881 35.3878 54.6869C35.3594 54.7454 35.4297 54.7896 35.3649 54.8548C35.3802 54.7963 35.2738 54.7267 35.4237 54.6788ZM35.3226 54.2718C35.2671 54.2945 35.2558 54.3317 35.2001 54.3544C34.8486 54.3856 34.1738 54.806 34.1548 54.5364C34.198 54.6104 33.9726 54.6633 34.0003 54.7313C34.2852 54.7272 34.2737 54.8904 34.1388 55.0708C34.6673 54.9614 35.0516 54.5329 35.3878 54.6869C35.4602 54.5454 35.5564 54.3999 35.4577 54.2829C35.4278 54.2746 35.3987 54.2665 35.3897 54.2443C35.4227 54.2309 35.4322 54.2205 35.4412 54.2103C35.4204 54.1916 35.4597 54.1622 35.429 54.149C35.3763 54.1171 35.2324 54.2092 35.1621 54.1976C35.2299 54.2034 35.2974 54.2096 35.3226 54.2718ZM15.5912 45.448C15.476 45.4221 15.313 45.6605 15.2818 45.4554C15.0915 45.5331 14.9368 45.5692 14.7626 45.6198C14.8501 45.9947 15.3676 45.7637 15.6562 45.4483C15.6372 45.4358 15.6005 45.4709 15.5912 45.448ZM9.34908 60.2464C9.33081 60.2013 9.20825 60.2513 9.14327 60.2513C9.06302 60.2769 9.01238 60.2182 8.9282 60.2663C8.4731 60.5241 8.75407 60.575 8.97052 60.6257C9.03227 60.6194 9.07574 60.6284 9.13841 60.6229C9.43325 60.5486 9.8021 60.4645 9.6497 60.2168C9.61108 60.1532 9.46355 60.2392 9.37197 60.2372C9.36041 60.2418 9.34908 60.2464 9.34908 60.2464ZM24.0901 58.7696C24.2087 58.9324 24.486 58.9112 24.7223 58.947C24.7843 58.6848 24.5656 58.5622 24.1426 58.642C24.1132 58.6674 24.1729 58.7817 24.0901 58.7696ZM31.1564 62.1563C31.1992 62.2909 31.2718 62.3734 31.3622 62.4359C31.5558 62.3693 31.6231 62.468 31.7306 62.5094C31.8904 62.3917 31.9024 62.2939 31.9667 62.1628C31.9059 62.1741 31.8455 62.1852 31.8143 62.1723C31.8849 62.0899 31.7824 61.9995 31.8539 61.9181C31.6589 61.9516 31.4221 62.0414 31.1564 62.1563ZM22.4475 53.3642C22.1129 53.375 21.9575 53.5367 21.6213 53.7009C21.7822 53.9985 22.2429 53.5334 22.4475 53.3642ZM9.06071 52.4801C8.96636 52.5051 8.92774 52.4415 8.83154 52.4942C8.06125 52.9331 8.58202 52.9657 9.07112 52.8258C8.94948 52.7502 8.92982 52.6387 9.06071 52.4801ZM32.5504 64.8106C32.6924 64.8386 33.0443 64.6156 33.1479 64.6785C33.1859 64.6441 33.2009 64.618 33.228 64.5867C33.1503 64.4933 32.8242 64.6198 32.583 64.6649C32.5504 64.7445 32.3934 64.775 32.5504 64.8106ZM11.6375 57.9734C11.5432 57.9663 11.3871 58.0299 11.2086 58.1025C11.3015 58.1698 11.2009 58.244 11.1505 58.3104C11.2217 58.2951 11.256 58.3471 11.3339 58.3152C11.357 58.3058 11.3788 58.297 11.401 58.2879C11.6755 58.1626 11.9197 57.9635 11.8033 57.7741C11.7689 57.7221 11.6463 57.8044 11.5883 57.7894C11.6024 57.856 11.6616 57.9043 11.6375 57.9734ZM9.33405 52.4806C9.38562 52.4473 9.41429 52.4542 9.45013 52.4466C9.41498 52.4221 9.34075 52.4655 9.2871 52.4604C9.27993 52.4769 9.34977 52.4551 9.33405 52.4806ZM14.3506 50.3244C14.2243 50.3357 14.2791 50.1817 14.0881 50.2862C13.8846 50.3961 14.0811 50.4611 14.0372 50.5774C14.1325 50.493 14.215 50.4065 14.3506 50.3244ZM13.8344 58.5116C13.846 58.5395 13.7653 58.5657 13.7794 58.6001C13.8295 58.6912 14.0104 58.5907 14.1311 58.6022C14.0213 58.5863 13.9378 58.5421 13.8344 58.5116ZM16.7902 56.1847C16.8638 56.1415 16.8141 56.0823 16.874 56.0377C16.516 56.0853 16.2658 56.015 16.0049 55.9491C15.9483 56.0326 15.8005 56.1186 15.8664 56.2169C15.896 56.2247 15.8946 56.2523 15.9233 56.2606C16.1044 56.3848 16.4672 56.3489 16.7798 56.1889L16.7902 56.1847ZM8.11235 57.6268C8.1408 57.7279 7.99372 57.8139 7.87393 57.9029C8.09663 58.0033 8.17456 57.939 8.3406 57.7061C8.27492 57.6735 8.22728 57.6206 8.11235 57.6268ZM15.1347 61.0313C15.0869 60.9783 15.1088 60.9369 15.1176 60.8934C14.9687 61.0075 14.8447 61.1175 14.8956 61.2422L14.8979 61.2477C15.2353 61.1494 15.5815 61.0741 15.7764 60.8495C15.653 60.8012 15.2476 61.0849 15.1347 61.0313ZM13.2991 55.8568C13.3097 55.7861 13.5107 55.7377 13.5164 55.6561C13.2708 55.7227 13.4577 55.6073 13.3696 55.518C13.2246 55.5772 13.1238 55.5846 13.0583 55.5523C12.9207 55.6942 12.8888 55.8069 12.988 55.8915C13.0149 55.8941 13.0687 55.8654 13.0958 55.8668C13.1252 55.9084 13.0986 55.9384 13.0988 55.9717C13.1999 55.963 13.2098 55.8931 13.2991 55.8568ZM8.38037 57.6761C8.40419 57.6076 8.60607 57.6236 8.55566 57.5325C8.51704 57.4689 8.37228 57.5614 8.2888 57.5482C8.36742 57.5824 8.39748 57.6233 8.38037 57.6761ZM30.0557 48.8506C30.0573 48.8231 30.0279 48.8159 30.0187 48.7931C30.0101 48.8032 29.9879 48.8122 29.9817 48.828C30.0018 48.8458 30.0369 48.8381 30.0557 48.8506ZM26.5007 56.7971C26.5182 56.7765 26.5219 56.7545 26.5404 56.7337C26.2525 56.5076 25.6402 56.666 25.1999 56.9569C25.2535 57.1856 25.5662 57.0579 25.8212 57.0468C26.0897 56.9374 26.3332 56.8651 26.5007 56.7971ZM33.6979 52.0419C33.49 52.1062 33.2194 51.9855 33.0402 52.1834C33.2108 52.2199 33.3142 52.3437 33.6104 52.2419C33.6213 52.1714 33.8109 52.1277 33.6979 52.0419ZM29.311 57.2103C29.194 57.2108 29.0675 57.3148 28.9161 57.3902C29.0326 57.3895 29.0624 57.4957 29.2035 57.4585C29.2065 57.371 29.3853 57.2982 29.311 57.2103ZM24.9987 54.3246C25.2228 54.267 25.2554 54.1874 25.3666 54.1745C25.3761 54.1652 25.3738 54.1597 25.3826 54.149C25.3275 54.0787 25.1756 54.088 25.072 54.0898C25.1069 54.1754 25.0029 54.2376 24.9987 54.3246ZM30.0651 59.6685C30.3128 59.5746 30.5071 59.4754 30.5938 59.3686C30.4254 59.3697 30.3036 59.3277 30.0464 59.4324C29.9537 59.5561 29.9324 59.5975 30.0651 59.6685ZM19.1088 48.3331C19.0729 48.3736 19.0267 48.4189 19.0153 48.4559C19.1115 48.4046 19.1092 48.3652 19.1895 48.3393C19.2003 48.3026 19.1353 48.3345 19.1088 48.3331ZM29.6651 44.3156C29.6591 44.3975 29.564 44.4819 29.4655 44.5609C29.5578 44.5961 29.7342 44.5172 29.8753 44.5138C29.8545 44.4294 29.8977 44.3124 29.6651 44.3156ZM26.2683 44.0284L26.1903 44.0601C26.1931 44.0991 26.0902 44.1343 26.1061 44.1736C26.1226 44.2136 26.2162 44.1558 26.2412 44.1847C26.2345 44.1348 26.2269 44.0853 26.2683 44.0284ZM27.7894 38.4691C27.6881 38.5047 27.6881 38.412 27.5734 38.4788C27.6174 38.4934 27.6266 38.5163 27.6405 38.5501C27.6971 38.5272 27.7226 38.4964 27.7894 38.4691ZM17.9363 50.3089C17.9111 50.3126 17.8466 50.3457 17.8221 50.3489C17.9294 50.3249 18.0244 50.3334 18.0496 50.3959C17.9879 50.3739 18.0302 50.3172 17.9363 50.3089ZM26.8996 59.7566C26.9488 59.6842 26.9969 59.6121 26.9717 59.5499C26.9338 59.6176 26.7643 59.6801 26.6218 59.7448C26.7097 59.7682 26.7992 59.7652 26.8996 59.7566ZM31.402 49.5363C31.3911 49.5742 31.2873 49.6364 31.2843 49.6635C31.2764 49.707 31.3349 49.6898 31.3373 49.728C31.4869 49.6808 31.6522 49.6064 31.7486 49.6198C31.7223 49.4919 31.5609 49.5118 31.402 49.5363ZM18.0663 50.7254C18.1306 50.659 18.2686 50.616 18.2617 50.5991C18.273 50.5945 18.2802 50.5792 18.3028 50.57C18.3128 50.4999 18.1713 50.4715 18.085 50.4206C17.8431 50.4328 17.9051 50.7443 18.0663 50.7254ZM33.0157 52.7289C32.9484 52.564 32.792 52.5953 32.546 52.6621C32.561 52.6695 32.5576 52.6908 32.5728 52.6982C32.5774 52.7095 32.5906 52.71 32.6043 52.7109C32.7009 52.7576 32.861 52.7329 33.0064 52.7393C33.0064 52.7393 33.0041 52.7336 33.0157 52.7289ZM14.9999 37.5802C14.9913 37.5904 15.0135 37.5814 15.0045 37.5918C15.0471 37.5677 15.0471 37.5677 15.1165 37.546C15.1132 37.5071 15.0323 37.5936 14.9999 37.5802ZM22.9059 41.206C23.0155 41.1546 22.9489 41.089 23.0296 41.0302C22.9829 41.0425 22.9466 41.0832 22.8867 41.0952C22.8871 41.1278 22.8659 41.1699 22.855 41.2064C22.877 41.1974 22.8841 41.215 22.9059 41.206ZM25.183 38.5219C24.798 38.6317 24.8343 38.2735 24.4502 38.3843C24.4865 38.4423 24.3859 38.4835 24.3468 38.5452C24.5755 38.5311 25.0029 38.7203 25.1735 38.532C25.1851 38.5274 25.183 38.5219 25.183 38.5219ZM17.4814 51.1752C17.6318 51.1271 17.7744 51.0949 17.9081 51.0082C17.8669 50.971 17.8205 50.9511 17.811 50.8953C17.9273 50.9273 17.9377 50.8241 18.0265 50.7552C17.7973 50.8944 17.5187 50.8493 17.2837 50.9125C17.3587 51.0006 17.4068 51.0861 17.4814 51.1752ZM18.0866 50.743C18.0753 50.7476 18.0799 50.7268 18.0663 50.7254C18.0487 50.746 18.0351 50.745 18.0265 50.7552C18.0351 50.745 18.0667 50.7578 18.0866 50.743ZM38.1605 47.7605C38.2142 47.7316 38.1513 47.7041 38.204 47.6754C38.1709 47.6888 38.1328 47.6588 38.1013 47.6784C38.0955 47.7265 38.1379 47.736 38.1605 47.7605ZM45.8926 14.1696C45.8519 14.1659 45.586 14.2152 45.6024 14.2878C45.3607 14.5574 46.146 14.3433 45.8926 14.1696ZM32.4246 25.8577C32.4128 25.8625 32.42 25.8464 32.4079 25.8512C32.42 25.8464 32.3943 25.8498 32.4035 25.8399C32.3094 25.8325 32.1556 25.9014 32.0107 25.9606C31.9834 25.9907 31.941 26.0147 31.9283 26.0466C31.8948 26.0603 31.8587 26.0681 31.8252 26.0818C31.5791 26.4996 32.7472 26.2675 32.4246 25.8577ZM64.0318 51.8497C63.9972 51.7646 64.1001 51.6969 64.1484 51.6238C64.021 51.6633 64.002 51.5845 63.8411 51.6693C63.4341 51.8823 63.225 52.1057 63.1912 52.2452C62.8777 53.4884 66.0756 52.1057 65.066 51.4811C65.0119 51.4439 64.7957 51.5521 64.6988 51.538C64.4335 51.6525 64.2661 51.9133 64.0318 51.8497ZM53.8298 59.3221C53.9348 60.2496 56.1904 59.1126 55.5584 58.5516C55.3884 58.3895 54.9574 58.3536 54.2754 58.7567C53.8885 58.9875 53.8148 59.1896 53.8298 59.3221ZM54.5046 56.2208C54.3788 56.3908 54.086 56.4706 54.0527 56.292L54.3871 56.1561C54.4058 56.2018 54.4128 56.2516 54.5046 56.2208ZM53.882 55.8728C53.6156 55.9558 53.4276 55.9731 53.2193 56.0041C53.1971 56.0131 53.1832 56.0125 53.1608 56.0215C52.7605 56.252 52.5928 56.511 52.5919 56.6368C52.5806 57.5662 54.6972 56.7894 54.7099 56.117C54.7078 55.7611 54.3147 55.7236 53.8591 55.8166C53.877 55.8291 53.8686 55.8392 53.882 55.8728ZM53.9429 64.4857C54.7592 64.1263 54.4648 63.3082 53.4286 63.896C52.6136 64.3529 53.1929 64.8171 53.9429 64.4857ZM56.5477 64.8437C57.6792 64.9375 57.9252 63.4966 56.688 64.1654C56.2066 64.4216 56.1039 64.8069 56.5477 64.8437ZM47.8499 66.6511C48.1517 66.9774 49.4497 66.3623 49.0732 65.9483C48.9439 65.8228 48.6445 65.7592 48.1061 66.0982C47.7939 66.2913 47.6478 66.4425 47.8499 66.6511ZM51.4121 66.3877C51.4655 66.3595 51.5709 66.3632 51.6176 66.3172C51.8082 66.2732 52.008 66.2834 52.2004 66.2781C52.0734 66.1585 51.8107 66.1202 51.465 66.2936C51.3892 66.3313 51.4634 66.3546 51.4121 66.3877ZM44.8002 66.0649C44.8138 66.066 44.8025 66.0704 44.8071 66.082L44.7955 66.0866C44.6843 66.3232 44.8154 66.4222 45.1984 66.372C45.428 66.2651 45.5906 66.1521 45.699 66.0348C45.8942 65.6847 45.7208 65.3533 44.9579 65.7821C44.7692 65.8926 44.8503 65.9648 44.8002 66.0649ZM28.0776 69.7688C28.0174 69.7811 27.995 69.7566 27.9432 69.7575C27.2529 70.3631 29.4253 70.171 28.898 69.514C28.7933 69.3856 28.5391 69.3371 28.0697 69.6215C28.0743 69.6652 28.0484 69.7281 28.0776 69.7688ZM41.8774 65.44C41.5079 65.6174 41.3478 65.8013 41.3162 65.9137C41.1471 66.6164 42.5765 66.0998 42.6907 65.5839C42.597 65.6086 42.5554 65.6984 42.4615 65.6905C42.4733 65.5929 42.6771 65.5166 42.7857 65.4333C42.6722 65.2816 42.4558 65.1653 41.8774 65.44ZM25.3023 69.6317C25.2223 69.6916 25.2362 69.7584 25.1721 69.8241C25.3465 69.7728 25.3504 69.7186 25.4751 69.6086C25.4117 69.6143 25.3453 69.6414 25.3023 69.6317ZM57.7738 52.2345C57.9231 52.1862 57.8385 52.1087 57.9594 52.0525C57.8385 52.1087 57.7321 52.1654 57.616 52.1994C57.6782 52.194 57.7152 52.2516 57.7738 52.2345ZM53.4787 53.4169C53.4297 53.4557 53.3381 53.4865 53.3164 53.5288C53.321 53.5402 53.3437 53.5309 53.3483 53.5425C53.3566 53.499 53.4702 53.4594 53.4787 53.4169ZM58.3408 51.6793C58.307 51.6932 58.2985 51.7029 58.2763 51.7119C58.2677 51.7225 58.2922 51.7191 58.2832 51.7295C58.3031 51.7147 58.3209 51.6939 58.3408 51.6793ZM51.4493 55.7164C51.2883 55.3851 50.8272 55.2766 50.0246 55.7021C49.7688 55.8397 49.831 55.9597 49.726 56.0871C49.7755 56.0481 49.8379 56.0094 49.905 55.9822C49.9906 56.0333 50.1323 56.0284 50.1494 56.1665C49.8164 56.2754 49.8305 56.1514 49.6936 56.1341C49.6009 56.2578 49.3532 56.3845 49.3932 56.5136C49.6465 57.2959 51.5938 56.4229 51.4812 55.7625C51.4678 55.7613 51.4431 55.7645 51.4294 55.7632C51.4361 55.7472 51.4426 55.7322 51.4493 55.7164ZM49.7073 61.629C50.7107 61.1864 50.3809 60.1851 49.1194 60.8576C48.0835 61.4121 48.7231 62.0557 49.7073 61.629ZM51.1417 58.4429C50.663 58.704 50.5597 58.9304 50.5948 59.1142C50.7431 59.8262 52.3727 59.1961 52.523 58.639C52.6629 58.1205 51.9909 57.9716 51.1417 58.4429ZM43.578 63.3542C43.6816 63.4168 43.7665 63.4955 43.9589 63.4562C43.9413 63.5426 43.7362 63.6127 43.5734 63.6927C43.723 63.8037 43.9293 63.8315 44.1841 63.7545C44.2731 63.7184 44.3779 63.6879 44.3733 63.6439C44.429 63.6213 44.4202 63.6652 44.4473 63.6664C44.7944 63.4654 45.126 63.1918 44.9794 62.9608C44.8293 62.7515 44.4408 62.6921 43.7882 63.0707C43.5984 63.1807 43.6557 63.2564 43.578 63.3542ZM46.6849 63.6331C46.8581 63.6421 47.1263 63.5986 46.9734 63.7658C47.1515 63.8197 47.3647 63.7989 47.6838 63.6879C47.679 63.7098 47.7282 63.6698 47.7352 63.6867C47.9329 63.5015 48.2779 63.3274 48.0677 63.1625C47.9091 63.0281 47.5254 63.0131 46.9219 63.3847C46.7889 63.4723 46.745 63.5563 46.6849 63.6331ZM48.0051 58.1226C47.7798 58.2412 47.7632 58.3273 47.6499 58.4327C47.772 58.5081 48.0677 58.5005 48.0407 58.6568C47.9914 58.8547 47.7951 58.9805 47.5951 59.0955C48.2081 59.3545 49.9529 58.4646 49.217 57.9663C49.0577 57.9908 48.8632 58.0567 48.7638 58.0056C48.5536 57.9984 48.4021 57.9147 48.0051 58.1226ZM49.791 64.1966C50.0051 64.7232 51.5742 64.038 51.3078 63.545C51.2026 63.3507 50.8295 63.298 50.2933 63.5759C49.8955 63.7836 49.7098 63.9982 49.791 64.1966ZM37.3891 16.1355L37.3659 16.0788L37.1319 16.1741C37.1345 16.2458 37.2309 16.1933 37.2936 16.1877C37.325 16.1681 37.3578 16.1549 37.3891 16.1355ZM40.6141 16.3205C40.5738 16.3168 40.3074 16.3663 40.3125 16.4435C40.0711 16.7129 40.8664 16.4948 40.6141 16.3205ZM46.8428 55.7174C46.7663 55.8806 46.7394 56.0703 47.0255 56.0064C47.2995 55.815 47.5326 55.6214 47.9479 55.4917C47.8117 55.3492 47.6672 55.2172 47.1619 55.3825C47.1205 55.5055 47.145 55.6276 46.8428 55.7174ZM48.2081 55.5243C48.2086 55.4914 48.1214 55.534 48.1119 55.5111C48.1299 55.5236 48.0904 55.552 48.1304 55.556L48.2081 55.5243ZM47.9479 55.4917C47.9842 55.5173 48.0962 55.4718 48.1119 55.5111C48.0781 55.4914 48.0356 55.4827 48.0749 55.4198C48.015 55.432 48.006 55.475 47.9479 55.4917ZM39.8542 44.89C39.7746 44.758 39.6322 44.6974 39.3933 44.7483C39.5871 44.8417 39.4009 45.0558 39.6673 45.0387C39.6604 44.9892 39.81 44.9416 39.8542 44.89ZM43.7255 47.2358C43.7144 47.465 44.2128 47.3464 44.4246 47.4192C44.2553 47.3561 44.3737 47.2946 44.3141 47.1477C44.0863 47.2596 44.0116 47.2051 43.9108 47.1803C43.8409 47.2018 43.7924 47.2085 43.7255 47.2358ZM39.048 45.563C39.3154 45.6115 39.604 45.5868 39.9349 45.4723C39.8792 45.4291 39.7982 45.4219 39.7434 45.3847C39.449 45.5572 39.2039 45.6571 39.0631 45.5366C39.0793 45.5438 39.0434 45.5514 39.048 45.563ZM35.7731 65.4051C35.6968 65.3774 35.6619 65.292 35.4618 65.407C35.6619 65.292 35.7768 65.0932 35.8864 64.9167C35.7076 64.9234 35.6429 64.7979 35.3397 64.9808C34.9522 65.2109 34.9031 65.3765 34.9383 65.5277C35.0153 65.7802 35.3612 65.6718 35.6589 65.604C35.7102 65.5362 35.7613 65.4694 35.7731 65.4051ZM49.5637 53.9622C49.7621 53.9071 49.7725 53.8371 49.9087 53.7881C50.2133 53.5779 50.4778 53.3651 50.4915 53.1741C50.1164 53.1489 49.621 53.4035 49.1844 53.3836C49.1955 53.7291 49.2857 53.7915 49.5637 53.9622ZM56.9977 49.3411C56.9022 49.4258 57.0185 49.392 57.0705 49.3906C57.1121 49.367 57.1568 49.3488 57.1996 49.3249C57.1253 49.3346 57.0523 49.3455 56.9977 49.3411ZM52.2668 50.5369C52.0635 50.4865 51.6142 50.5644 51.4148 50.8109C51.6373 51.0045 52.0293 50.9765 51.8859 51.3916C52.0501 51.3773 52.2316 51.2829 52.3819 51.2355C52.7737 50.8241 52.671 50.4109 52.2279 50.2809C52.298 50.3584 52.4148 50.4227 52.2668 50.5369ZM62.1562 47.2793C62.1 47.2684 62.0331 47.2624 61.9416 47.2941C62.217 46.8846 61.9013 46.7157 61.3144 46.7768C61.0755 46.8612 61.1634 46.9831 61.2122 47.1026C61.5667 47.0434 61.73 47.2215 61.902 47.3882C61.893 47.3986 61.8683 47.4021 61.859 47.4125C62.0022 47.3808 62.0091 47.3325 62.1562 47.2793ZM47.5567 56.3512C47.5146 56.3748 47.4829 56.3945 47.4521 56.4137C47.4743 56.4047 47.4727 56.4319 47.5058 56.4185C47.5506 56.4003 47.5146 56.3748 47.5567 56.3512ZM48.2768 35.6345C48.3665 35.6315 48.4084 35.6398 48.4738 35.6403C48.5894 35.5727 48.5392 35.514 48.6151 35.4441C48.5194 35.529 48.3424 35.5417 48.2768 35.6345ZM46.1527 38.2171C46.1937 38.2205 46.2159 38.2115 46.2626 38.1981C46.3292 38.171 46.2843 38.1232 46.3472 38.0853C46.3262 38.0337 46.2649 38.0129 46.2714 37.9645C46.0115 38.03 46.0156 38.1343 46.0829 38.2053C46.1192 38.1972 46.1171 38.2247 46.1527 38.2171ZM50.3923 32.7792C50.6656 32.621 50.7257 32.7024 50.8483 32.7184C51.1658 32.4104 50.2172 32.7642 50.3923 32.7792ZM48.7703 37.8374C48.771 37.9026 48.6368 37.925 48.5695 37.919C48.5702 38.018 48.625 38.055 48.6967 38.0716C48.9268 38.0302 48.9379 37.8024 48.7703 37.8374ZM53.8598 20.4043C53.8222 20.4064 53.7942 20.3717 53.765 20.3636C53.7586 20.3798 53.7075 20.4138 53.7123 20.4256C53.726 20.4591 53.8106 20.4113 53.8448 20.4307C53.8557 20.4263 53.8508 20.4147 53.8598 20.4043ZM55.5565 15.0188C55.48 14.9906 55.412 14.9522 55.2737 14.9954C55.2469 15.0585 55.2097 15.1268 55.1616 15.1998C55.1881 15.2012 55.1504 15.2366 55.1775 15.2389C55.2355 15.222 55.3091 15.1786 55.3671 15.1617C55.4545 15.1194 55.5322 15.0877 55.5565 15.0188ZM52.9873 17.4652C52.9718 17.4584 52.9358 17.4661 52.9193 17.4594C52.9133 17.4753 52.9499 17.4675 52.9429 17.4834C52.9543 17.4788 52.9739 17.4638 52.9873 17.4652ZM40.1472 28.9705C40.0572 28.9735 39.9698 28.9837 39.8713 28.9967C39.8722 29.0621 39.8123 29.107 39.8533 29.1761C39.9182 29.1754 40.0787 29.0912 40.2221 29.0258C40.2129 29.0031 40.1694 28.9939 40.1472 28.9705ZM8.07327 42.0729C8.05917 42.0718 8.05477 42.0614 8.03882 42.0547C7.95441 42.1025 7.77796 42.1474 7.78513 42.1971C7.80109 42.2038 7.66234 42.2471 7.64477 42.2674C7.60314 42.3571 7.56406 42.4526 7.74559 42.4513C8.09131 42.3428 8.14427 42.2161 8.07327 42.0729ZM10.0313 47.7404C10.0454 47.6807 10.0988 47.6199 10.0442 47.5492C9.80557 47.6331 9.79562 47.5457 9.80811 47.4476C9.79608 47.4525 9.79608 47.4525 9.78545 47.4569C9.67213 47.5297 9.74845 47.5903 9.6978 47.6578C9.74822 47.717 9.8132 47.7494 9.88165 47.7878C9.93021 47.7816 9.97507 47.7633 10.0313 47.7404ZM6.71213 47.3554C6.72393 47.3843 6.68739 47.4245 6.73341 47.4398C6.81157 47.4079 6.8606 47.4012 6.92303 47.3947C6.92049 47.3242 6.80394 47.3579 6.71213 47.3554ZM34.5653 38.9379C34.2966 38.9478 34.198 38.7374 33.881 38.9191C33.7971 38.9668 33.8348 38.9973 33.7772 39.0477C34.0621 39.011 34.1604 39.1876 34.5727 39.0195C34.5213 38.9881 34.572 38.9543 34.5653 38.9379ZM33.4192 36.1885C33.2987 36.2117 33.2261 36.1946 33.0922 36.2491C33.07 36.2581 33.0677 36.2524 33.0462 36.2612C33.2104 36.5051 32.9162 36.2951 32.808 36.4778C32.9345 36.5313 33.6636 36.3728 33.5071 36.4041C33.3727 36.393 33.4585 36.2854 33.4192 36.1885ZM36.7693 36.9038C36.6322 36.8869 36.3887 36.9928 36.3403 36.8742C36.4819 36.71 36.4416 36.9311 36.7138 36.7678C36.5956 36.6381 36.677 36.519 36.7878 36.4078C36.6153 36.3988 36.4911 36.3495 36.2261 36.4647C36.2379 36.5595 36.1637 36.728 35.9782 36.7833C36.2069 36.7697 36.3748 36.7671 36.2229 36.9679C36.3699 36.9468 36.5658 37.1388 36.7693 36.9038ZM32.3605 33.8136C32.274 33.6971 31.902 33.9022 31.7003 33.9172C31.6684 34.0634 31.8472 33.9905 31.8943 34.0439C32.1138 33.9734 32.1147 33.8816 32.3605 33.8136ZM32.5319 36.7884L32.5342 36.794C32.5821 36.6883 32.5367 36.6409 32.5407 36.5868C32.5099 36.6386 32.3964 36.7112 32.3989 36.7496C32.4195 36.7681 32.4681 36.7616 32.5224 36.765C32.5002 36.7743 32.5159 36.7815 32.5319 36.7884ZM64.3813 47.1507C64.5471 47.0776 64.7022 46.9807 64.7721 46.9914C64.937 47.076 64.3857 47.1299 64.6934 47.1496C64.5734 47.2379 64.4014 47.2943 64.2277 47.4123C64.3859 47.6708 64.8257 47.7957 65.4401 47.5452C66.8239 46.9814 66.4655 45.6215 64.7577 46.5423C64.3304 46.7689 64.4176 46.9514 64.3813 47.1507ZM57.7247 51.1254C57.5659 51.1837 57.4322 51.2381 57.1956 51.3276C57.04 51.4571 57.019 51.5639 56.9866 51.6767C57.0594 51.7921 57.2562 51.7646 57.4819 51.7126C57.6304 51.5003 57.989 51.3271 58.2804 51.116C58.1209 51.0757 57.9793 51.0471 57.7247 51.1254ZM63.3529 49.9609C64.7039 49.4105 64.3857 48.0868 62.7243 48.929C61.3977 49.602 62.1483 50.4518 63.3529 49.9609ZM62.6818 46.1728C62.6721 46.1177 62.7704 46.071 62.8011 46.0192C62.5583 45.9665 62.2746 46.0361 61.9104 46.1642C61.8176 46.2879 61.6782 46.3908 61.6116 46.4838C61.613 46.583 61.8303 46.4473 61.8558 46.5095C61.8747 46.3966 62.1513 46.2114 62.3839 46.2084C62.5669 46.3062 62.285 46.5391 62.1021 46.6998C62.2031 46.8832 62.2674 46.9759 62.3451 47.1352C62.5703 47.0175 62.7419 46.8954 62.8814 46.7257C62.8451 46.7014 62.7246 46.7569 62.7237 46.6915C62.9022 46.5851 62.9299 46.6531 63.0807 46.5784C63.1011 46.5307 63.2239 46.5132 63.2306 46.4646C63.262 46.2865 63.0597 46.2706 62.9581 46.1802C62.8777 46.2061 62.8564 46.1545 62.6818 46.1728ZM47.5689 24.6383C47.5689 24.6383 47.549 24.6531 47.5622 24.6543L47.5962 24.6404C47.5916 24.6291 47.5599 24.6485 47.5689 24.6383ZM45.8843 34.5235C45.774 34.509 45.6616 34.4886 45.5244 34.5973C45.6606 34.5485 45.7411 34.5545 45.8507 34.5691C45.844 34.5529 45.8889 34.5346 45.8843 34.5235ZM51.9192 53.4847C51.7344 53.6391 51.6796 53.7596 51.6655 53.884C51.718 53.724 51.9974 53.6438 52.2217 53.493C52.1227 53.4738 52.0073 53.5078 51.9192 53.4847ZM40.4961 62.8797C40.5253 62.8875 40.5829 62.8373 40.6078 62.8674C40.2984 63.0001 40.6328 63.0554 40.2004 63.2716C40.2179 63.2832 40.1826 63.291 40.1981 63.2982C40.2929 64.1046 42.3373 63.1195 41.7532 62.6119C41.5492 62.4313 41.0218 62.5397 40.5405 62.8288C40.5093 62.8482 40.525 62.8556 40.4961 62.8797ZM4.82791 41.838C4.78744 41.8343 4.5215 41.8835 4.53746 41.9564C4.29603 42.2258 5.08113 42.0119 4.82791 41.838ZM48.8692 34.7268C48.7989 34.6826 48.632 34.7509 48.5335 34.7317C48.5201 34.7962 48.3838 34.8454 48.4632 34.9114C48.5631 34.8706 48.7014 34.7953 48.7536 34.8265C48.6944 34.9366 48.9344 34.9507 48.9176 34.8457C48.7765 34.8831 48.8429 34.7902 48.8692 34.7268ZM32.7345 33.5497C32.7391 33.5611 32.719 33.5752 32.7481 33.5833L32.8376 33.5467C32.8286 33.5245 32.7527 33.5611 32.7345 33.5497ZM43.7889 32.7029C43.8428 32.6745 43.9321 32.6379 43.9203 32.6093C43.6541 32.6918 43.4839 32.6883 43.4219 32.5688C43.3195 32.6361 43.2728 32.6493 43.1766 32.6687C43.3389 32.7473 43.532 32.7741 43.7912 32.7085L43.7889 32.7029ZM40.7147 44.8301C40.7475 44.8167 40.7475 44.8167 40.7686 44.8017C40.8782 44.5926 40.8689 44.4106 40.7174 44.2948C40.6321 44.277 40.5237 44.2673 40.4677 44.2243C40.4198 44.3299 40.3942 44.4264 40.0898 44.511C40.0142 44.7723 40.6291 44.5878 40.7147 44.8301ZM42.1988 45.5657C42.1584 45.5636 42.0696 45.5997 42.0002 45.6212C42.036 45.6455 42.1054 45.6242 42.1512 45.639C42.1789 45.6141 42.2483 45.5926 42.1988 45.5657ZM44.3434 48.3703C44.3883 48.3518 44.4057 48.3312 44.4503 48.313C44.2468 48.3234 44.0844 48.2778 43.843 48.356C43.8009 48.5389 44.1416 48.3863 44.3434 48.3703ZM43.7579 48.1469C43.9295 48.248 44.6589 47.9319 44.4503 48.313C44.5372 48.2709 44.6265 48.2346 44.6841 48.1856C44.5555 48.0926 44.4047 48.0087 44.3416 47.8227C44.1379 47.8657 43.8883 47.9552 43.6354 48.0706C43.6347 47.9388 43.4911 47.9717 43.3521 47.9814C43.2466 48.1372 43.1248 48.285 43.1111 48.4432C43.1266 48.4501 43.1398 48.4513 43.1562 48.458C43.4289 48.3604 43.5526 48.2496 43.7579 48.1469ZM52.745 54.1382C52.7233 54.147 52.7212 54.1416 52.6983 54.1509C52.7138 54.1578 52.7029 54.1622 52.7182 54.168C52.7385 54.1534 52.7341 54.1426 52.745 54.1382ZM45.3609 61.2144C45.4638 62.1362 47.7215 61.0047 47.0988 60.4337C46.9203 60.2816 46.4888 60.2464 45.8075 60.6492C45.4312 60.8749 45.3443 61.0759 45.3609 61.2144ZM52.2529 53.4736C52.2446 53.4837 52.2325 53.4886 52.2217 53.493C52.3391 53.5244 52.5241 53.4356 52.603 53.502C52.4289 53.554 52.3183 53.5397 52.2529 53.4736ZM27.1458 66.9721C27.0057 67.0105 26.9923 66.8507 26.8394 66.9531C26.6965 67.0505 26.9095 67.0299 26.8609 67.1018C26.9523 67.0713 27.0464 67.0465 27.1458 66.9721ZM39.4002 65.2675C39.2428 65.2664 39.1614 65.1605 39.0122 65.1149C38.8587 65.1521 38.7685 65.1228 38.5772 65.2268C38.1508 65.4592 38.1994 65.5781 38.2255 65.7062C38.2704 65.7215 38.2109 65.7985 38.2567 65.8135C38.5943 66.1969 39.4995 65.6704 39.4002 65.2675ZM46.9223 16.9518C46.9619 16.8898 47.1393 16.8442 47.0838 16.7739C46.9691 16.748 46.8877 16.8341 46.7894 16.8808C46.8368 16.9014 46.853 16.9409 46.9223 16.9518ZM42.7219 60.4205C42.6722 60.4284 42.6523 60.4099 42.6202 60.3963C42.2573 60.6236 42.0987 60.8403 42.1255 61.0012C42.301 61.8476 44.3273 60.85 43.9642 60.2453C43.9573 60.2279 43.9549 60.2224 43.9503 60.2108C43.7797 60.0165 43.3648 59.9876 42.7228 60.3285C42.6872 60.369 42.7908 60.3669 42.7219 60.4205ZM48.2911 42.7926C48.3478 42.6441 48.6267 42.5306 48.7797 42.3955C48.4405 42.488 48.1452 42.5625 48.1346 42.408C47.9979 42.6159 47.626 42.4698 47.4531 42.6857C47.7058 42.794 48.0534 42.8166 48.2911 42.7926ZM53.3088 41.2767C53.3615 41.2485 53.4013 41.2192 53.4422 41.2222C53.4815 41.1269 53.3432 41.2358 53.2389 41.2661C53.2653 41.2675 53.2836 41.2802 53.3088 41.2767ZM55.2901 43.2026C55.1414 43.1906 54.9715 43.0285 54.7504 43.2514C54.7744 43.3737 54.9527 43.3011 54.9809 43.4012C55.1417 43.3494 55.2522 43.2706 55.2901 43.2026ZM52.4913 40.8374C52.4839 40.7879 52.5688 40.7395 52.584 40.681C52.4254 40.7388 52.4717 40.6933 52.5251 40.6322C52.4693 40.6875 52.4051 40.7539 52.3637 40.8098C52.4168 40.8152 52.4307 40.8487 52.4913 40.8374ZM51.7515 46.1436C51.5781 46.2606 51.555 46.1714 51.4054 46.2512C51.3938 46.3823 51.2611 46.3763 51.1628 46.3906C51.1695 46.4403 51.1413 46.4653 51.1686 46.5C51.2217 46.4715 51.3029 46.4789 51.3318 46.4861C51.2893 46.5102 51.3727 46.5231 51.3327 46.5515C51.3506 46.5645 51.3748 46.5613 51.3933 46.5737C51.4685 46.4706 51.6234 46.3078 51.8258 46.3252L51.7515 46.1436ZM58.3912 43.7222C58.5575 43.7472 58.6236 43.8778 58.7212 43.9905C59.1162 43.6181 59.1099 43.284 58.7956 43.0879C58.7334 43.0944 58.6754 43.1438 58.6328 43.1353C58.3544 43.3145 58.5748 43.5344 58.3912 43.7222ZM54.1709 42.9459C54.1882 42.9586 54.1373 42.9931 54.1672 43.0009C54.2382 42.9841 54.2428 42.963 54.2842 42.9394C54.2405 42.9572 54.2264 42.923 54.1709 42.9459ZM53.7266 45.3389C53.692 45.3465 53.7149 45.3102 53.6705 45.3282C53.5592 45.3736 53.5488 45.4439 53.5921 45.5192C53.6152 45.5754 53.7333 45.5142 53.8097 45.5098C53.8069 45.4385 53.7634 45.3967 53.7266 45.3389ZM44.118 43.1862L43.9284 43.2634C43.933 43.275 43.9221 43.2794 43.9267 43.2909C43.9489 43.3145 43.9499 43.3476 43.9829 43.3663L44.1617 43.2935L44.118 43.1862ZM51.293 44.0591C51.2382 43.9886 51.1387 43.9699 51.135 43.8327C51.5036 43.7162 51.4821 43.5663 51.5298 43.4281C51.2666 43.549 51.1424 43.5 50.9301 43.5529C50.9875 43.6292 51.0222 43.7146 50.8793 43.7782C50.7833 43.7983 50.6957 43.8073 50.6371 43.7918C50.7814 43.6995 50.5923 43.5858 50.5886 43.481C50.7211 43.454 50.8016 43.4933 50.9646 43.4137C50.9424 43.2315 50.9431 43.0724 50.593 43.0763C50.4075 43.1323 50.8157 43.1769 50.5863 43.2838C50.3557 43.3254 50.1289 43.4704 50.0831 43.614C50.4373 43.5892 50.2572 43.913 50.6228 43.9165C50.4847 44.0251 50.3687 44.0589 50.2595 44.1102C50.5271 44.1933 50.8922 44.1632 51.293 44.0591ZM48.2768 43.7162C48.3346 43.6336 48.2955 43.5703 48.3577 43.4991C48.1204 43.5226 47.7738 43.6639 47.543 43.672C47.5479 43.6836 47.5234 43.6868 47.5389 43.694C47.7368 43.7317 47.8508 43.8841 48.1188 43.8075C48.1988 43.7814 48.2104 43.7432 48.2768 43.7162ZM49.1682 43.2211C49.2059 43.1869 49.2598 43.158 49.2834 43.1219C49.248 43.1293 49.224 43.1658 49.1835 43.1626C49.1666 43.1825 49.1736 43.2 49.1682 43.2211ZM48.9393 42.9778C48.5975 43.0648 48.9721 42.7396 48.8519 42.763C48.7754 42.9262 48.5305 42.7086 48.4245 42.8969C48.6634 42.9716 48.7492 43.0229 48.7155 43.194C48.8311 43.1281 48.9985 43.0599 48.9393 42.9778ZM45.8359 42.0366C45.9259 41.9081 45.8637 42.1048 45.8824 42.1506C45.9601 42.1189 45.9738 42.1527 46.0522 42.1208C45.9798 42.0711 45.9948 42.0123 45.8914 41.9816C45.8651 42.0128 45.758 42.0685 45.8359 42.0366ZM51.6042 43.8001C51.5039 43.8746 51.4666 43.9426 51.4264 44.0048C51.5201 43.9798 51.6188 43.9329 51.7081 43.8963C51.6609 43.8767 51.687 43.7798 51.6042 43.8001ZM48.3727 45.6446C48.487 45.7313 48.6808 45.7306 48.697 45.9297C48.8648 45.8936 49.1893 45.8608 49.3334 45.7026C48.9557 45.6388 48.7543 45.4302 48.6153 45.1837C48.3323 45.3518 48.4745 45.4781 48.3727 45.6446ZM49.3579 42.8867C49.3771 42.8398 49.3768 42.8065 49.3854 42.7637C49.3049 42.8222 49.2122 42.8802 49.1655 42.926C49.245 42.899 49.2971 42.8983 49.3579 42.8867ZM48.9814 45.094C48.9638 45.1469 48.9018 45.1853 48.8954 45.2341C48.9765 45.2411 49.1352 45.1497 49.2083 45.0741C49.1141 45.0988 49.082 45.053 48.9814 45.094ZM52.0998 43.6445C52.2113 43.5989 52.2342 43.623 52.3035 43.6015C52.4633 43.4836 52.5632 43.3436 52.6594 43.198C52.5877 43.1815 52.4467 43.1864 52.5144 43.0662C52.1238 43.2255 52.0517 43.0174 51.777 43.0435C51.6223 43.4297 51.9775 43.3441 52.0998 43.6445ZM45.4389 42.0533C45.2599 42.06 45.0855 42.0787 44.8769 42.1435C44.7363 42.1819 44.6156 42.2043 44.4868 42.27C44.9482 42.2207 45.021 42.3687 45.2756 42.4832C45.271 42.2804 45.3371 42.1874 45.4389 42.0533ZM59.1421 47.0675C59.001 47.1049 58.8983 47.1077 58.8128 47.0897C58.9425 47.0561 58.9504 47.1725 59.1071 47.1086C59.1293 47.0996 59.109 47.0809 59.1421 47.0675ZM59.242 42.0417C59.2193 42.0838 59.3134 42.0584 59.3229 42.0815C59.4596 42.0984 59.5199 42.2126 59.6737 42.1756C60.0254 41.9529 60.2555 41.6884 60.1302 41.508C59.7766 41.7582 59.5733 41.643 59.3345 41.918C59.2408 41.7841 59.136 41.8468 58.9952 41.8514C58.986 41.8946 58.8925 41.9205 58.8572 41.9605C58.9501 42.029 59.0933 42.0297 59.235 42.0584C59.2466 42.0535 59.2299 42.0466 59.242 42.0417ZM59.0602 46.5465C59.1594 46.6313 59.4096 46.7335 59.1083 46.8566C59.1629 46.8933 59.1904 46.8029 59.3201 46.7703C59.3252 46.8152 59.2975 46.8725 59.2635 46.9188C59.6497 46.6831 59.8071 46.4332 59.8363 46.1843C59.8067 46.1429 59.6749 46.2031 59.685 46.133C59.4064 46.0553 59.2533 46.3494 58.8597 46.4692C59.099 46.2599 59.0664 46.3393 59.1039 46.0791C58.6581 45.9108 58.03 46.6364 58.622 46.6524C58.4906 46.7786 58.3382 46.9132 58.0522 47.0432C58.1468 47.0839 58.292 47.0571 58.4243 47.0626C58.6264 46.8885 58.7913 46.7153 59.0602 46.5465ZM54.6697 48.547C54.8232 48.2202 54.7169 47.9596 54.361 47.853C54.2828 48.0114 54.2976 48.1763 54.0083 48.3275C54.3288 48.3491 54.6553 48.414 54.6031 48.6062C54.6343 48.5868 54.6392 48.5662 54.6697 48.547ZM52.4198 46.7303C53.1265 46.515 53.4924 46.2003 53.6545 45.8638C53.4112 45.9364 53.1596 46.1182 52.9922 46.2519C52.4432 46.3707 52.0771 46.4001 51.407 46.5749C51.6063 46.7118 51.8052 46.8487 52.1352 46.799C52.2249 46.7625 52.3371 46.7502 52.4198 46.7303ZM47.938 48.1865C47.9549 48.2915 48.1315 48.2128 48.2035 48.2628C48.2215 48.2418 48.277 48.2191 48.3064 48.1948C48.2002 48.1587 48.1084 48.156 47.938 48.1865ZM53.0239 38.2166C53.0169 38.1993 53.0105 38.1833 53.066 38.1606C53.1222 38.1378 53.1552 38.1243 53.1277 38.0883C52.9362 38.1269 52.8576 38.0004 52.6347 38.0591C52.7605 38.113 52.8269 38.2444 53.0239 38.2166ZM51.6873 37.9687C51.6782 37.9791 51.6829 37.9907 51.6734 38.0009C51.8806 38.0284 52.1134 38.0265 52.2052 38.187C51.8704 38.3234 51.6257 38.1391 51.6873 37.9687ZM53.9799 41.1685C53.9618 41.2217 53.9586 41.2758 53.9415 41.3297C54.0546 41.289 54.0247 41.4074 54.1565 41.347C54.1565 41.347 54.1542 41.3415 54.1651 41.3369C54.0844 41.2973 54.0425 41.2284 53.9799 41.1685ZM44.2558 43.0775C44.235 43.0592 44.186 43.0657 44.1543 43.0527C44.2213 43.0254 44.229 43.0752 44.2512 43.0985C44.2625 43.0939 44.2468 43.0879 44.2558 43.0775ZM63.9786 28.3115C63.9643 28.3709 63.9086 28.4259 63.8984 28.4962C64.1713 28.432 64.4148 28.392 64.6791 28.3369C64.5343 28.2372 64.279 28.2483 63.9786 28.3115ZM54.3082 46.7331C54.317 46.7553 54.3686 46.722 54.3889 46.7396C54.3686 46.722 54.3503 46.7093 54.3411 46.6861C54.3459 46.6977 54.3034 46.7218 54.3082 46.7331ZM57.4054 44.2099C57.1538 44.1674 56.7452 44.3137 56.4912 44.2985C56.5564 44.4902 56.9295 44.4162 57.2509 44.4372C57.2879 44.3697 57.3075 44.2892 57.4054 44.2099ZM57.3372 43.9139C57.6695 43.8374 57.7282 44.0448 58.1387 43.8709C58.4703 43.4385 57.5335 43.5039 57.3372 43.9139ZM57.3309 43.262C57.2817 43.2363 57.3628 43.2102 57.3774 43.1839C57.3103 43.2111 57.2657 43.197 57.1901 43.2347C57.1787 43.2394 57.1947 43.2461 57.1834 43.2507C57.2433 43.2387 57.2664 43.2627 57.3309 43.262ZM63.9763 29.0392C64.2779 28.9164 64.0531 28.876 63.9447 28.8341L63.7553 28.9113L63.7853 28.9849C63.7925 29.0022 63.8168 29.0318 63.8681 28.9971C63.8672 28.8991 64.0832 28.95 63.9763 29.0392ZM44.3347 42.5366C44.1404 42.6023 43.973 42.704 43.8962 42.8014C44.1113 42.7863 44.1781 42.9503 44.5282 42.7875C44.5828 42.6335 44.4635 42.596 44.3347 42.5366ZM55.9034 38.2247C55.9506 38.2784 55.8685 38.332 55.9027 38.3838C56.183 38.3031 56.1076 38.6303 56.528 38.3861C56.3236 38.3308 56.2281 38.1586 55.9034 38.2247ZM52.7947 45.1578C52.7475 45.1703 52.7852 45.1344 52.7804 45.1233C52.6573 45.1409 52.5299 45.1793 52.3937 45.2283C52.434 45.2318 52.4638 45.2399 52.4596 45.2942C52.5972 45.1856 52.8114 45.2302 52.7947 45.1578ZM52.2386 46.1568C52.3021 46.0581 52.3801 45.9605 52.2839 45.8541C52.0827 45.9027 52.1245 45.9718 51.9409 46.0331C52.0089 46.105 52.1414 46.1103 52.2386 46.1568ZM44.6852 42.7572C44.5604 42.834 44.256 42.8862 44.2856 42.9591C44.4036 42.8978 44.3088 43.0157 44.2558 43.0775C44.4491 43.1695 44.599 43.3134 44.9498 43.2174C44.9052 43.0107 44.7833 42.9017 44.6852 42.7572ZM62.1795 26.4832C62.281 26.5406 62.4691 26.4904 62.624 26.4867C62.6557 26.4673 62.6235 26.4545 62.6573 26.4407C62.609 26.322 62.4358 26.3454 62.1844 26.4615C62.1728 26.4663 62.1916 26.4786 62.1795 26.4832ZM63.7423 33.6052C63.6942 33.5525 63.8059 33.507 63.8452 33.4438C63.7301 33.4177 63.4371 33.5911 63.3265 33.5759C63.4021 33.6645 63.534 33.67 63.7423 33.6052ZM57.0227 35.6696C56.9796 35.6934 56.9648 35.7196 56.9267 35.7543C57.0455 35.7593 57.3223 35.6724 57.2738 35.68C57.2019 35.6622 57.1121 35.6666 57.0227 35.6696ZM64.375 39.7579C64.3144 39.7366 64.4409 39.6649 64.4028 39.6346C64.3944 39.645 64.3739 39.6596 64.3625 39.6642C64.3748 39.7253 64.3419 39.7389 64.375 39.7579ZM66.1922 38.8197C66.1522 38.6904 65.9732 38.7633 65.8164 38.6955L65.8187 38.7013C65.8164 38.6955 65.8046 38.7004 65.8021 38.6944C65.5273 38.5954 65.2952 38.4395 64.8 38.6611C64.801 38.7267 64.723 38.7908 64.6814 38.8481C64.6386 38.8724 64.6315 38.8551 64.6009 38.8743C64.0843 39.2369 64.1634 39.4619 64.4028 39.6346C64.5496 39.5482 64.643 39.4575 64.813 39.3627C64.9483 39.4392 65.3046 39.2605 65.5507 39.2265C65.6573 39.1367 65.7597 39.0683 65.6913 38.9642C65.8548 38.9178 66.0382 38.8562 66.1922 38.8197ZM63.9562 36.0796C63.6318 36.1791 63.41 36.3356 63.1968 36.389C63.6151 36.4228 63.5737 36.7373 64.1091 36.6776C64.1752 36.5851 64.5209 36.6016 64.591 36.679C64.7219 36.778 64.4541 36.8536 64.5339 36.9531C64.5494 36.9602 64.5806 36.9408 64.594 36.942C65.3719 36.4866 65.1879 36.1321 64.6504 35.9945C64.6444 36.0436 64.6604 36.0829 64.5933 36.1101C64.2719 36.2147 64.1396 36.4015 63.9678 36.3315C63.9204 36.2459 63.8857 36.1608 63.9562 36.0796ZM56.7331 35.9191C56.7158 35.9399 56.673 35.9635 56.6557 35.9843C56.6695 35.9853 56.6737 35.9959 56.6846 35.9915C56.7012 35.9659 56.7294 35.9406 56.7331 35.9191ZM56.9251 33.451C56.8464 33.2581 57.7749 32.8541 57.2453 32.8317C56.9729 32.995 56.8994 33.1638 56.4794 33.316C56.5158 33.4991 56.7433 33.4522 56.9251 33.451ZM61.3466 38.4897C61.4497 38.4872 61.5709 38.4645 61.6453 38.4867C61.7131 38.3995 61.5595 38.4691 61.5572 38.431C61.4675 38.4675 61.4314 38.4418 61.3466 38.4897ZM57.6172 40.4188C57.6304 40.4204 57.6549 40.4167 57.678 40.4072C57.6621 40.4005 57.6456 40.3938 57.6304 40.3878C57.6209 40.3971 57.6258 40.4086 57.6172 40.4188ZM61.61 39.7431C61.6525 39.7516 61.7129 39.7082 61.7506 39.7049C61.9411 39.6608 62.0366 39.5761 62.1902 39.5065C62.183 39.4237 62.1187 39.3638 62.0537 39.2972C61.9166 39.5054 61.6333 39.5747 61.3512 39.6506C61.4502 39.6698 61.5094 39.7505 61.61 39.7431ZM46.3091 48.0188C46.3623 47.9902 46.44 47.9582 46.4797 47.9286C46.4594 47.9101 46.3944 47.9434 46.366 47.936C46.3387 47.9661 46.3347 47.9878 46.3091 48.0188ZM43.5551 16.8648C43.5843 16.8732 43.4797 16.9023 43.5202 16.906C43.5429 16.8967 43.5519 16.8866 43.5843 16.8732C43.5713 16.872 43.5688 16.866 43.5551 16.8648ZM57.5349 59.0263C56.9336 59.3709 56.8878 59.8644 57.4683 59.8861C58.985 59.9345 59.2482 58.0576 57.5349 59.0263ZM60.8531 28.2717C61.1345 28.2296 61.3549 28.2257 61.036 28.3691C61.2522 28.3267 61.3646 28.3795 61.5422 28.3677C61.5797 28.2985 61.7339 28.2627 61.733 28.197C61.7008 27.9262 61.221 28.1216 60.8517 28.1725C60.8656 28.207 60.8794 28.2407 60.8531 28.2717ZM55.5988 61.6843C55.6271 61.8182 55.3711 61.923 55.2085 62.0347C55.5986 62.4507 56.9362 61.7731 56.5618 61.3312C56.4866 61.2436 56.1649 61.3811 55.9434 61.4124C55.785 61.5026 55.7031 61.5895 55.5988 61.6843ZM44.559 19.3281C44.5763 19.3073 44.5428 19.2886 44.608 19.2555C44.5768 19.2749 44.5673 19.2518 44.5472 19.2668C44.4757 19.3159 44.5974 19.2932 44.559 19.3281ZM47.0856 32.2966C47.3999 32.3674 47.3807 32.6389 47.7236 32.6511C47.8793 32.5218 47.9008 32.4138 47.9264 32.2846C47.8922 32.2987 47.8991 32.2827 47.8769 32.2917C47.8439 32.1796 47.7213 32.2295 47.5125 32.1951C47.7544 32.15 47.7246 32.1421 47.7659 32.0193C47.4309 32.1234 47.3337 32.2679 47.0856 32.2966ZM46.1259 32.7212C46.5417 32.6243 46.7607 32.7466 47.1478 32.6745C46.9358 32.5688 46.5801 32.6222 46.403 32.4428C46.5084 32.6377 46.2716 32.5688 46.0556 32.6446C46.0491 32.6597 45.9953 32.6883 45.989 32.7041C45.971 32.757 46.0404 32.7357 46.0348 32.785C46.0475 32.7529 46.1238 32.7487 46.1259 32.7212ZM55.104 53.7316C54.8864 53.8997 54.6863 54.0797 54.6785 54.1888C54.6614 54.2753 54.7576 54.2547 54.7698 54.316C54.9423 54.325 55.1639 54.2619 55.2062 54.3965C55.0989 54.4538 55.0325 54.513 54.9657 54.5736C55.6257 54.8527 57.4463 53.8269 56.6446 53.3288C56.2875 53.4742 55.7774 53.5957 55.4589 53.8373C55.3313 53.81 55.2238 53.7691 55.104 53.7316ZM52.1481 61.3275C52.4259 61.3069 52.6106 61.377 52.4492 61.6207C52.1442 61.765 52.0133 61.7324 51.8283 61.7553C51.8283 61.7553 51.808 61.7701 51.8103 61.7759C52.0223 62.4877 53.7921 61.5955 53.4505 61.0741C53.2998 60.8648 52.9089 60.7996 52.2559 61.1774C52.1521 61.2399 52.2052 61.2775 52.1481 61.3275ZM55.8632 56.9349C55.9076 57.3329 56.4082 57.3468 56.8987 57.1791C56.8934 57.0362 56.9646 56.8292 57.2893 56.7966L57.2983 56.8186C57.505 56.6549 57.8313 56.5286 57.8096 56.3464C57.7566 55.8994 57.0263 55.9255 56.3643 56.3147C55.9638 56.5439 55.8451 56.7968 55.8632 56.9349ZM32.1339 18.3427L32.0877 18.2297L31.8754 18.3162C31.8777 18.3219 31.8777 18.3219 31.8802 18.328C31.8886 18.4105 31.9753 18.4008 32.0981 18.3508C32.1089 18.3465 32.1223 18.3474 32.1339 18.3427ZM38.5682 18.6788C38.2167 18.6771 37.9357 19.0094 38.2417 19.0571C38.3982 18.9933 38.5805 18.9313 38.6422 18.8603L38.5682 18.6788ZM39.7009 29.1525C39.4504 29.2411 39.3949 29.1049 39.1519 29.1782C39.2391 29.3607 39.1172 29.476 39.3563 29.4904C39.5663 29.3983 39.6079 29.276 39.7009 29.1525ZM39.3408 29.0353C39.2869 29.064 39.2666 29.0455 39.2266 29.0751C39.2398 29.0764 39.2738 29.0626 39.2805 29.079C39.3001 29.064 39.3209 29.0501 39.3408 29.0353ZM51.5275 27.8388C51.1554 28.0108 51.1901 27.7451 50.9378 27.7953C50.9029 27.8691 50.9757 27.9521 50.9986 28.0409C51.0978 28.0275 51.1029 28.1371 51.2171 28.0976C51.2768 28.0203 51.3055 27.963 51.5275 27.8388ZM56.4767 17.4698C56.4653 17.4744 56.4838 17.4538 56.472 17.4587C56.4505 17.4675 56.4191 17.4869 56.3964 17.4961C56.3964 17.4961 56.3987 17.5015 56.3874 17.5061C56.4323 17.4878 56.4436 17.4832 56.4767 17.4698ZM57.6186 12.5742L57.4625 12.6378C57.4507 12.6427 57.4641 12.6424 57.4525 12.6471C57.4983 12.6621 57.5624 12.5969 57.6274 12.5962L57.6186 12.5742ZM43.6354 44.5253C43.5454 44.496 43.387 44.554 43.2573 44.5545L43.3033 44.6676L43.6379 44.5313L43.6354 44.5253ZM34.5132 39.4473C34.6855 39.3909 34.6085 39.5542 34.6268 39.599C34.6811 39.5701 34.6892 39.5278 34.7406 39.4936C34.6629 39.4325 34.5842 39.3326 34.5132 39.4473ZM35.1952 39.0771C35.2144 39.0299 35.333 39.0005 35.3289 38.9566C35.3166 38.8953 35.1605 38.9915 35.12 38.9557C35.167 38.9765 35.157 39.0466 35.1952 39.0771ZM8.97145 44.7577C8.92473 44.77 8.89999 44.7411 8.84657 44.7695C8.8616 44.7758 8.89143 44.7836 8.91826 44.7864C8.91363 44.7746 8.96312 44.7682 8.97145 44.7577ZM48.9081 52.9618C49.2802 52.9151 49.7926 52.7065 49.9526 52.9049C49.9161 52.815 49.8611 52.7777 49.8181 52.7028C49.5225 52.744 49.178 52.8251 48.9081 52.9618ZM39.0716 37.4771C39.0638 37.3619 39.336 37.1984 39.5332 37.2042C39.496 37.0793 39.6881 37.0416 39.5145 36.9669C39.2573 37.0379 39.2391 37.1522 38.9701 37.2276C39.0138 37.3027 38.882 37.3631 38.805 37.428C38.8862 37.5337 39.0349 37.546 39.2092 37.5599C39.1267 37.5476 39.0994 37.5129 39.0716 37.4771ZM60.1457 33.2741L60.4354 33.1562C60.4028 33.0766 60.2803 33.0942 60.1681 33.1064C60.2072 33.1698 60.1226 33.2177 60.1457 33.2741ZM41.1439 39.5909C41.0541 39.5946 41.1538 39.4885 41.1039 39.4617C41.2958 39.3902 41.4685 39.3668 41.6404 39.3093C41.5333 39.1749 41.4156 39.0778 41.1515 39.0995C41.0932 39.1821 41.1439 39.241 41.0729 39.3236C41.0706 39.2519 41.047 39.1939 41.0241 39.1377C40.9256 39.1522 40.8338 39.1825 40.7424 39.2135C40.6351 39.4293 40.7447 39.6349 40.8187 39.8164C40.9431 39.7387 41.0999 39.6749 41.1439 39.5909ZM40.1356 40.2789C40.4187 40.3358 40.5033 40.4468 40.8601 40.3013C40.5246 40.4045 40.4996 40.151 40.5274 40.0601C40.6809 39.9251 40.2066 40.1975 40.1289 40.2627C40.1315 40.2683 40.1333 40.2731 40.1356 40.2789ZM54.4576 48.6654C53.7928 48.9172 52.911 48.7024 53.0324 49.2865C53.0593 49.2891 53.0593 49.3215 53.0891 49.3298C53.2454 49.3316 53.3192 49.447 53.4713 49.4052C53.7616 49.3194 53.8881 49.1816 54.0749 49.0664C54.1096 48.9272 54.453 48.8127 54.4576 48.6654ZM56.2068 48.3891C56.1414 48.4221 56.1911 48.4478 56.1402 48.482C56.2554 48.5079 56.3728 48.5729 56.5477 48.4286C56.6032 48.2138 56.2655 48.4712 56.2114 48.4002C56.2091 48.3946 56.2198 48.39 56.2177 48.3844L56.2068 48.3891ZM63.5053 43.9155C63.5414 43.9077 63.5638 43.866 63.6105 43.8536C63.5791 43.8732 63.5617 43.8603 63.5414 43.8753C63.521 43.8903 63.5256 43.9017 63.5053 43.9155ZM44.8362 34.5076C44.7539 34.5279 44.7576 34.4736 44.6799 34.5055C44.6043 34.5432 44.5278 34.5807 44.4655 34.6195C44.3212 34.7111 44.3763 34.7809 44.3074 34.8686C44.4128 34.9049 44.543 34.9042 44.6841 34.8993C44.9368 34.8165 44.8122 34.7021 45.0532 34.6237C44.9664 34.4747 44.8774 34.5434 44.8362 34.5076ZM7.18296 47.138C7.12492 47.1547 7.13393 47.2104 7.09161 47.2009L7.1122 47.2515C7.14087 47.194 7.3113 47.1974 7.25719 47.1269C7.25048 47.1105 7.19822 47.144 7.18296 47.138ZM59.9616 52.207C59.9709 52.2301 60.0335 52.1915 60.043 52.2146C60.3434 52.0583 60.6399 51.8918 61.0082 51.7417C61.261 51.6913 61.2721 51.9115 61.6005 51.791C61.6037 51.8624 61.4226 51.9295 61.5246 52.0195C61.7938 51.8173 62.1594 51.6291 62.096 51.4099C61.9659 51.0272 61.4386 50.9455 60.5823 51.3999C60.0476 51.6834 59.8668 51.9429 59.9616 52.207ZM55.0559 50.7071C54.974 50.634 55.0815 50.6105 55.1035 50.5688C54.9643 50.579 54.7994 50.6528 54.6357 50.6992C54.5728 50.8311 54.4421 50.9571 54.2435 51.0773C54.2874 51.2179 54.4826 51.1844 54.5152 51.3299C54.7749 51.2963 55.8502 50.7402 55.5609 51.1483C55.6682 51.0914 55.7055 51.0239 55.7873 50.97C55.7875 50.7788 55.6456 50.6849 55.4631 50.6206C55.3107 50.6625 55.1502 50.7143 55.0559 50.7071ZM53.0394 53.2647C52.9776 53.3038 52.9309 53.3494 52.9492 53.3945C53.0787 53.3281 53.1134 53.3801 53.2308 53.3188C53.2445 53.2876 53.1927 53.2886 53.2077 53.2624C53.1719 53.2377 53.0849 53.2798 53.0394 53.2647ZM62.7206 54.2198C62.7711 54.2788 63.0178 54.1513 63.0169 54.2445C62.9362 54.2374 62.7544 54.2721 62.7565 54.2119C62.7338 54.2212 62.7338 54.2212 62.7206 54.2198ZM65.8173 49.3002C65.4048 49.534 65.2489 49.7891 65.2477 49.9146C65.2376 50.85 67.3554 50.073 67.3674 49.4006C67.3704 48.8652 66.5453 48.8839 65.8173 49.3002ZM63.5654 44.2222C63.6565 44.1255 63.4852 44.089 63.459 43.9611C63.1145 44.2009 62.8735 44.4705 62.8747 44.6019C62.8777 44.6731 63.0206 44.6086 63.0414 44.6604C63.0504 44.6497 63.0698 44.6017 63.0923 44.6259C63.2481 44.5288 62.9914 44.409 63.1381 44.3235C63.2877 44.2099 63.3952 44.3776 63.4197 44.2478C63.5508 44.2807 63.4604 44.4759 63.6392 44.5621C63.7835 44.4698 63.9775 44.3704 64.2388 44.2774C64.2046 44.4164 64.1997 44.5637 64.089 44.7087C64.1276 44.7385 64.2034 44.7346 64.3156 44.6888C64.316 44.7869 64.2189 44.8669 64.1343 44.9471C64.6863 44.7693 65.2545 44.4379 65.319 44.0552C65.374 43.7097 65.1273 43.5522 64.7688 43.5337C64.4307 43.8223 64.2494 44.0159 63.5654 44.2222ZM55.9952 49.4991C56.1425 49.4785 56.3231 49.4114 56.4616 49.4008C56.5618 49.2939 56.4889 49.1783 56.7257 49.0886C56.9158 49.0447 57.1064 49.0331 57.157 49.1577C57.4183 49.0645 57.5832 48.9908 57.7479 48.883C57.7455 48.8777 57.7432 48.8719 57.7525 48.8622C57.6343 48.8904 57.4884 48.9498 57.3388 48.9972C57.2812 48.7898 56.9297 48.9193 56.7854 48.8206C57.0802 48.7137 56.7785 48.6446 56.7556 48.5877C56.3127 48.6825 56.1016 48.8675 55.8292 48.9327C55.689 49.2269 55.68 49.3962 55.9952 49.4991ZM60.3392 48.4087C60.0465 48.4554 59.7243 48.5274 59.4658 48.6596C59.3807 48.7066 59.433 48.7389 59.3703 48.7769C59.4429 48.8266 59.4952 48.8913 59.5611 48.957C59.5167 49.0077 59.457 49.0525 59.3969 49.0969C59.6485 49.2054 59.8686 49.3594 60.3709 49.1883C60.3903 49.299 60.4935 49.3296 60.5746 49.3693C60.7099 49.2546 60.8596 49.1413 60.9051 49.0301C60.8866 48.9848 60.9194 48.938 60.9033 48.8987C61.0425 48.8879 60.9807 48.8014 61.0138 48.754C60.9599 48.5583 60.826 48.3881 60.5918 48.3585C60.5092 48.3784 60.4241 48.3941 60.3392 48.4087ZM39.44 65.0469C39.4217 65.0342 39.4803 65.0173 39.4511 65.009C39.4347 65.0025 39.3591 65.0398 39.3323 65.0372C39.3637 65.0513 39.4194 65.0287 39.44 65.0469ZM45.3785 37.5948C45.3792 37.5622 45.3145 37.5952 45.305 37.5721C45.2782 37.6033 45.2606 37.6225 45.2564 37.6445C45.2918 37.6369 45.3233 37.5848 45.3785 37.5948ZM46.1292 37.4868C46.2145 37.6968 46.498 37.5945 46.6781 37.4287C46.6807 37.5002 46.8079 37.4283 46.8661 37.4447C46.8657 37.4114 46.9304 37.3783 46.9415 37.3411C46.6645 37.3952 46.393 37.4329 46.1292 37.4868ZM50.4207 33.3287C50.7109 33.2103 50.6413 33.0396 50.7694 32.8757C50.7784 32.8655 50.7694 32.8757 50.7671 32.8701C50.5148 32.9203 50.3231 32.8988 50.1242 32.8884C50.257 32.9594 50.0528 33.1612 50.223 33.131C50.2047 33.0859 50.4052 33.0042 50.4235 33.0491C50.479 33.1529 50.263 33.2935 50.4073 33.3278C50.4073 33.3278 50.4096 33.3333 50.4207 33.3287ZM51.4891 38.7302C51.5573 38.576 51.6965 38.4074 51.7483 38.2478C51.6364 38.2599 51.514 38.3433 51.3915 38.3933C51.3732 38.5732 51.32 38.6338 51.4891 38.7302ZM49.2483 42.3631C49.2799 42.4096 49.3565 42.4055 49.415 42.421C49.3967 42.3756 49.3179 42.3742 49.2769 42.3384C49.2684 42.3486 49.2591 42.3588 49.2483 42.3631ZM51.6109 38.7399C51.6401 38.748 51.687 38.7348 51.7159 38.7427C51.7828 38.6835 51.863 38.6238 51.956 38.5658C51.7314 38.5256 51.6921 38.6206 51.6109 38.7399ZM52.4402 42.4365C52.3796 42.448 52.3241 42.4707 52.2746 42.4776C52.3132 42.5075 52.3956 42.4547 52.4515 42.4644C52.4388 42.463 52.4444 42.4473 52.4402 42.4365ZM55.0101 35.0103C55.0029 34.993 54.952 35.0274 54.9359 35.0203C54.7832 35.03 54.6052 35.1026 54.4218 35.1641C54.6743 35.0492 54.881 35.1421 55.0101 35.0103ZM54.7222 40.4033C54.69 40.3573 54.6542 40.3328 54.6623 40.2567C54.6597 40.2509 54.6355 40.2542 54.6331 40.2486C54.5497 40.2692 54.4643 40.2514 54.4317 40.3307C54.5372 40.3009 54.5168 40.4736 54.6979 40.4401C54.7046 40.4239 54.7266 40.4149 54.7222 40.4033ZM54.6128 35.4102C54.6091 35.4643 54.5182 35.495 54.4063 35.5406C54.6225 35.6569 54.7032 35.5984 54.4546 35.8507L55.0122 35.6234C54.9236 35.5017 54.8195 35.4058 54.6128 35.4102ZM55.9221 40.7927C55.92 40.7874 55.9106 40.7976 55.9083 40.7923C55.7216 40.9407 55.7142 41.049 55.653 41.1868C55.6495 41.0494 55.9145 40.9347 55.9221 40.7927ZM55.1169 35.9115C55.0693 35.9242 55.0161 35.9191 54.9782 35.9545C54.9853 35.9719 54.9895 35.9825 55.0052 35.9894C55.0452 35.9598 55.0762 35.9413 55.1169 35.9115ZM57.2153 33.1735C57.1535 33.2459 57.2241 33.3222 57.2699 33.4029C57.3633 33.3125 57.5254 33.2653 57.5763 33.1654C57.4741 33.2013 57.3554 33.2621 57.3237 33.2156C57.2902 33.1969 57.2937 33.1416 57.2153 33.1735ZM58.2994 31.1075C58.2136 31.1827 57.9088 31.2666 57.8561 31.361C58.0908 31.2988 58.1757 31.4095 58.3436 31.4072C58.3128 31.3013 58.2182 31.1945 58.2994 31.1075ZM62.6628 42.3904C62.6964 42.3768 62.6968 42.4103 62.7126 42.4163C62.7262 42.4177 62.7308 42.4291 62.744 42.4304C62.84 42.4112 62.8601 42.3631 62.9431 42.3426C62.8973 42.2949 63.0756 42.2223 62.981 42.1816C62.8078 42.3315 62.7916 42.2922 62.6628 42.3904ZM58.1821 44.3283C58.1579 44.3327 58.1733 44.3066 58.1486 44.3098C58.1225 44.3403 58.1042 44.36 58.0915 44.3919C58.1363 44.3739 58.14 44.3521 58.1821 44.3283ZM53.611 47.9284L53.5997 47.933C53.5375 48.0043 53.46 48.0692 53.4496 48.1393C53.7768 48.1111 53.6573 48.2986 53.9646 48.2205C53.9486 48.0211 53.8087 47.934 53.611 47.9284ZM50.137 47.865C50.0771 47.9418 50.1094 48.0216 50.1437 48.1058C50.4311 47.9823 50.4304 48.0429 50.6353 47.9055C50.5354 47.8211 50.3599 47.8068 50.137 47.865ZM58.4409 45.9859C58.4608 45.9387 58.3831 45.9704 58.3822 45.9373C58.3401 45.9612 58.3741 45.9808 58.332 46.0046C58.3854 45.9762 58.39 46.0199 58.4409 45.9859ZM46.3486 44.8923C46.295 44.8546 46.3225 44.7307 46.332 44.6285C46.1507 44.6618 45.9745 44.708 45.7756 44.7959C45.7023 44.838 45.6149 44.8803 45.5668 44.9201C45.4611 44.9173 45.4888 44.9855 45.4035 44.9999C45.1787 45.1509 45.2273 45.2697 45.1436 45.4156C45.261 45.4471 45.2467 45.5727 45.4851 45.4878C45.4706 45.3551 45.1764 45.5609 45.1903 45.4032C45.2795 45.3669 45.2432 45.3088 45.3075 45.2762C45.5089 45.1941 45.69 45.1268 45.7097 45.2709C45.9222 45.0255 46.1696 45.124 46.4848 45.0345C46.5967 44.8301 46.9374 44.8045 47.1765 44.7201C47.0766 44.6347 46.9903 44.5512 46.8132 44.5307C46.9173 44.5945 46.9355 44.6393 46.3486 44.8923ZM56.6651 45.8118C56.5049 45.8638 56.3971 45.855 56.1853 45.975C56.0727 45.9873 56.1185 45.8432 55.9917 45.8818C56.0674 45.6855 56.7253 45.5435 56.6651 45.8118ZM55.8144 45.67C55.8095 45.6585 55.8208 45.6541 55.8183 45.6483C55.5359 45.6908 55.4437 45.4647 55.0924 45.6536C54.6193 45.8997 54.709 46.0879 54.6264 46.2995C54.6551 46.3078 54.7139 46.2907 54.7273 46.3242C54.6981 46.5081 54.7108 46.6674 54.4925 46.7375C54.4967 46.7479 54.5076 46.7435 54.5122 46.7551C54.6847 46.9232 55.023 46.858 55.3588 46.8193C55.3831 46.8161 55.3583 46.787 55.3958 46.7851L55.3244 46.6098C55.7838 46.3622 56.0946 46.1034 56.5192 45.9965C56.5777 45.9794 56.6099 46.0257 56.6612 46.0248C56.7315 45.8775 57.0557 45.778 56.9984 45.637C56.8848 45.3588 56.3018 45.59 55.859 45.652C55.8447 45.6508 55.8363 45.661 55.8144 45.67ZM56.0819 30.7433L56.0269 30.608C55.7776 30.7623 55.492 30.701 55.4016 30.8629C55.538 30.8464 55.591 30.9436 55.7499 30.9193C55.7112 30.8555 55.9774 30.8062 56.0819 30.7433ZM62.282 42.2228C62.6263 42.0759 62.7003 41.9071 63.0532 41.7499C62.8488 41.7603 62.7773 41.6171 62.5803 41.613C62.8298 41.4909 62.935 41.2367 62.7438 41.1828C62.4801 41.3033 62.4101 41.4506 62.1763 41.5785C62.165 41.5831 62.174 41.5727 62.174 41.5727C62.0718 41.7069 61.8967 41.8509 61.9136 41.9568C61.9476 41.9432 61.9649 41.955 61.9961 41.9356C62.1229 42.0225 62.3227 42.0676 62.282 42.2228ZM55.3782 35.178C55.2552 35.2282 55.1696 35.2753 55.206 35.3329C55.2823 35.295 55.3648 35.2751 55.4402 35.2374C55.4182 35.2143 55.3974 35.1956 55.3782 35.178ZM60.4803 41.5371C60.6135 41.4492 60.8503 41.3595 60.8471 41.2559C60.7166 41.2552 60.3311 41.3935 60.3723 41.495C60.4301 41.4784 60.462 41.492 60.4803 41.5371ZM56.18 38.073C56.2875 38.082 56.4702 37.9548 56.6147 37.8959C56.5403 37.8075 56.5567 37.7217 56.4001 37.6859C56.2954 37.8149 56.1358 37.9324 56.18 38.073ZM57.6498 41.1391C57.7738 41.1539 57.6912 41.2407 57.712 41.2913C57.7946 41.205 57.7645 41.1313 57.8057 41.042C57.7802 41.0723 57.7282 41.107 57.6498 41.1391ZM43.0089 49.9179C42.7892 49.9213 42.7786 49.9593 42.5605 49.9354C42.499 50.0395 42.8156 50.2738 42.508 50.4449C41.8649 50.6544 41.9049 50.2747 41.3367 50.3151C41.2526 50.4948 40.9584 50.4426 40.9096 50.6079C41.3062 50.4661 41.3839 50.7508 41.4766 50.8193C41.6306 50.7501 41.7016 50.6685 41.9334 50.5998C42.1496 50.6505 42.3836 50.6812 42.7936 50.5075C43.0313 50.2911 43.1187 50.0575 43.1113 49.8494C43.0614 49.8235 43.0473 49.7567 42.9095 49.833C42.8234 49.9731 43.2473 49.7682 43.0089 49.9179ZM62.7609 30.7822C62.7852 30.7789 62.7697 30.7717 62.7935 30.7687C62.7891 30.7572 62.7697 30.7717 62.7674 30.766C62.7583 30.7764 62.7583 30.7764 62.7609 30.7822ZM60.7566 35.6994C60.7638 35.717 60.7453 35.7376 60.7661 35.7549C60.7971 35.7353 60.799 35.7089 60.8302 35.69C60.808 35.699 60.7895 35.686 60.7566 35.6994ZM63.7102 41.9908C63.9523 41.8193 64.0786 41.6484 64.1301 41.4564C64.0783 41.425 64.1421 41.2927 63.9978 41.3248C63.7335 41.4726 63.722 41.6359 63.4699 41.7843C63.654 41.789 63.6399 41.9129 63.7102 41.9908ZM59.2711 30.9362C59.3217 30.8698 59.393 30.8208 59.4165 30.7519C59.3375 30.6846 59.2757 30.5981 59.0796 30.6577C59.0498 30.7764 58.9945 30.8971 59.0882 31.0312C59.1527 30.9981 59.2198 30.9708 59.2711 30.9362ZM60.4241 28.8163C60.4586 28.8683 60.3594 28.8817 60.3173 28.9056C60.5235 28.9335 60.6022 29.0938 60.8498 28.9994C60.7881 28.8792 60.7966 28.7102 60.4241 28.8163ZM50.1968 40.346C49.9855 40.3725 49.7552 40.4139 49.4892 40.4956C49.3942 40.6135 49.2672 40.718 49.2596 40.8272C49.3241 40.8265 49.3056 40.907 49.3858 40.8806C49.4756 40.6864 50.1746 40.613 50.1968 40.346ZM39.8209 37.5282C39.6532 37.531 39.6042 37.5707 39.4636 37.6417C39.5136 37.6346 39.521 37.6845 39.567 37.6722C39.677 37.6207 39.8311 37.6172 39.8209 37.5282ZM40.2159 39.4547C40.1971 39.4087 40.3111 39.3687 40.3091 39.331C40.2755 39.3446 40.2452 39.3365 40.2149 39.3555C40.1613 39.3842 40.1749 39.4177 40.1347 39.4478C40.1622 39.4499 40.189 39.4524 40.2159 39.4547ZM38.5358 41.7503C38.4533 41.7705 38.4255 41.7362 38.3476 41.7679C38.2722 41.8377 38.1984 41.9136 38.0965 41.9818C38.3261 41.8091 38.3585 41.8889 38.6036 41.8211C38.6632 41.7443 38.5869 41.7485 38.5358 41.7503ZM49.4989 38.0286C49.4922 38.0772 49.4032 38.1135 49.3035 38.1539C49.3389 38.2124 49.3939 38.2504 49.5038 38.2312C49.588 38.1509 49.7829 37.9588 49.4989 38.0286ZM53.8892 35.9957C53.6466 36.1342 53.6513 35.9867 53.4459 36.0905C53.4482 36.0963 53.4101 36.0984 53.4126 36.1041C53.4445 36.1504 53.5248 36.1243 53.5627 36.1545C53.657 36.0972 53.836 36.057 53.8892 35.9957ZM56.9385 25.595C56.8649 25.6375 56.8605 25.6926 56.8434 25.7453C56.901 25.6951 56.9073 25.6468 56.9623 25.592C56.9517 25.5964 56.9493 25.5906 56.9385 25.595ZM58.0478 46.8406C57.9472 46.8482 57.8256 46.8704 57.7166 46.8894C57.7559 47.0184 57.906 46.971 58.0522 47.0432C58.0873 46.9687 57.9 46.8938 58.0478 46.8406ZM40.5741 32.3817C40.7514 32.3364 40.7198 32.3884 40.8761 32.2913C40.8245 32.2931 40.8599 32.2517 40.7968 32.2575C40.8199 32.3142 40.6613 32.3394 40.5741 32.3817ZM39.9372 40.1755C39.9148 40.1848 39.9011 40.1836 39.8764 40.1866C39.8812 40.1984 39.8949 40.1996 39.9078 40.2005C39.9171 40.1903 39.9418 40.1866 39.9372 40.1755ZM52.4534 22.3182C52.4363 22.3704 52.3921 22.4225 52.4578 22.4884C52.6007 22.4232 52.6867 22.3482 52.7783 22.2851C52.7307 22.2317 52.5473 22.3253 52.4534 22.3182ZM59.6143 34.1112C59.8999 33.9489 60.2974 33.8071 60.2911 33.6309C59.8781 33.799 59.6749 33.4593 59.3497 33.6848C59.744 33.6291 59.2424 33.9332 59.3583 34.0569C59.5333 34.0393 59.695 33.9262 59.6143 34.1112ZM50.7313 35.9749C50.8506 35.8535 50.7209 35.8863 50.6619 35.8051C50.5798 35.8585 50.3557 35.9164 50.3051 35.9841C50.3303 36.013 50.4198 35.9765 50.4528 35.9954C50.5518 35.9818 50.6617 35.9638 50.7313 35.9749ZM52.5739 33.5995C52.5683 33.5225 52.4934 33.4022 52.3611 33.3631C52.3842 33.4519 52.396 33.5467 52.4865 33.6094C52.5244 33.6062 52.5498 33.6025 52.5739 33.5995ZM54 36.2674C53.9658 36.2813 53.9706 36.2926 53.9484 36.3016C54.0719 36.3171 54.1614 36.3465 54.2541 36.3819C54.1614 36.3465 54.0781 36.3014 54 36.2674ZM54.4296 36.4283C54.3383 36.4589 54.3015 36.4013 54.2541 36.3819C54.2997 36.3967 54.3547 36.4064 54.3825 36.4408C54.4047 36.4318 54.4047 36.4318 54.4296 36.4283ZM61.4899 31.4317C61.32 31.462 61.0947 31.5474 60.9023 31.5867C61.0182 31.7437 61.2793 31.6833 61.533 31.6658C61.4916 31.5968 61.3833 31.5548 61.4899 31.4317ZM50.3465 40.9386C50.3078 40.8751 50.7179 40.7014 50.4334 40.7377C50.4575 40.86 50.0509 40.7886 50.0371 40.9465C50.2325 40.8196 50.2186 40.9775 50.3465 40.9386ZM42.0383 37.4442C41.8973 37.5141 41.8522 37.4667 41.7687 37.4546C41.7118 37.5705 41.7916 37.6366 41.8399 37.7231C41.8533 37.7243 41.8725 37.7097 41.8866 37.7106C41.7666 37.6075 42.1424 37.5407 42.0383 37.4442ZM42.684 41.776C42.6058 41.7422 42.4539 41.8174 42.3487 41.8144C42.3385 41.8512 42.3138 41.8879 42.3297 41.9272L42.6757 41.7864C42.6731 41.7804 42.684 41.776 42.684 41.776ZM46.5341 48.7318C46.5473 48.7334 46.5609 48.7343 46.5741 48.7355C46.742 48.667 46.8823 48.597 46.9415 48.5197C46.6895 48.5701 46.9094 48.3743 46.7253 48.4034C46.699 48.4668 46.5993 48.5408 46.4157 48.602C46.4258 48.6906 46.5193 48.6647 46.5341 48.7318ZM42.5119 36.8811C42.4671 36.8994 42.4828 36.9066 42.452 36.9258C42.5506 36.945 42.6826 36.9503 42.7258 36.9917C42.7205 36.9147 42.927 36.9762 43.0718 36.8508C42.9021 36.8811 42.7 36.864 42.5119 36.8811ZM53.0158 48.448C53.0528 48.3467 53.2898 48.2572 53.2232 48.1592C53.1171 48.2159 53.0345 48.1432 52.9409 48.1356C52.3817 48.4552 52.3775 48.7341 52.4365 48.9748C52.7068 48.9038 52.973 48.8548 53.2604 48.6649C53.2519 48.5163 53.133 48.4799 53.0158 48.448ZM48.4139 50.7258C48.5177 50.9809 48.604 51.0979 48.6775 51.2459C48.943 51.0984 48.9342 50.9499 49.0466 50.7788C48.9839 50.7844 48.9259 50.7689 48.8341 50.7996C48.8276 50.6232 49.1044 50.5695 49.288 50.4759C49.3077 50.2689 49.2071 50.3101 49.0117 50.2118C48.7363 50.4962 48.0814 50.7092 47.7981 50.8116C47.8742 50.9661 48.342 50.7097 48.4139 50.7258ZM43.5632 39.5891L43.8527 39.4709C43.7505 39.5061 43.6589 39.504 43.5493 39.5553C43.5674 39.5683 43.5452 39.5773 43.5632 39.5891ZM43.4094 40.2662C43.5061 40.2794 43.8072 40.3159 43.8643 40.1996C43.5618 40.2567 43.9193 39.9202 43.9605 39.7972C44.2988 39.639 44.5992 39.6092 44.9086 39.5694C44.8737 39.5174 44.8427 39.4714 44.7768 39.4374C44.18 39.6025 43.6037 39.8171 43.0491 39.9246L43.0378 39.9292C42.9023 40.0761 42.6738 40.2484 42.6699 40.3362C42.6567 40.5261 42.9731 40.4107 43.0979 40.4914C43.1821 40.4114 43.3364 40.3418 43.4094 40.2662ZM47.291 40.4667C47.46 40.3386 47.8356 40.2054 47.8245 40.0513C47.3742 40.2548 47.0361 40.3203 46.8465 40.2063C46.5475 40.3337 46.4541 40.4253 46.2163 40.4158C46.4772 40.4484 46.7491 40.5421 47.1323 40.3013C47.263 40.3663 47.1203 40.4313 47.291 40.4667ZM41.3878 34.3476C41.2722 34.4151 41.3092 34.4724 41.2421 34.5333C41.3182 34.5282 41.5201 34.4794 41.4866 34.493C41.5222 34.4519 41.4179 34.4213 41.3878 34.3476ZM41.6052 42.0974C41.5345 42.1788 41.5666 42.2582 41.6237 42.3345C41.9588 42.2306 42.333 42.3821 42.56 42.078C42.1336 42.2119 42.0148 41.983 41.6052 42.0974ZM65.1638 26.5877C65.1687 26.5991 65.1372 26.6185 65.1398 26.6245C65.1617 26.6155 65.2156 26.619 65.2265 26.6146C65.1992 26.6122 65.1816 26.6005 65.1638 26.5877ZM65.513 31.0869C65.5431 31.1609 65.3532 31.2051 65.4508 31.2844C65.5854 31.296 65.8774 31.1501 65.9054 31.0592C65.7271 31.1318 65.7144 31.0048 65.513 31.0869ZM62.3365 34.4676C62.5521 34.4856 62.4559 34.3138 62.7202 34.2266C62.8832 34.2447 63.0987 34.2296 63.2851 34.24C63.2148 34.1635 63.6783 34.1198 63.5113 34.0294C62.9746 34.1818 62.6906 34.0597 62.2101 34.1572C62.3407 34.222 62.2144 34.3263 62.3365 34.4676ZM63.1015 29.0658C63.1138 29.1266 63.083 29.1458 63.1281 29.1935C63.157 29.168 63.17 29.1363 63.1873 29.1155C63.1677 29.0982 63.1355 29.0843 63.1015 29.0658ZM65.3814 39.831C65.6709 39.713 65.5389 39.581 65.6901 39.4399C65.5179 39.4644 65.3897 39.4371 65.2302 39.4295C65.1462 39.4771 65.2043 39.5262 65.2071 39.5641C65.2993 39.599 65.4496 39.5516 65.6501 39.4697C65.562 39.6374 65.2917 39.7084 65.06 39.8097C65.1916 39.7817 65.2246 39.8948 65.3814 39.831ZM57.6863 36.2778C57.5943 36.4663 57.6681 36.6473 58.0698 36.4838L58.0809 36.4792C58.0707 36.3583 57.9257 36.4172 57.8885 36.3597C58.107 36.3837 58.1024 36.2133 58.0048 36.1009C57.8817 36.1511 57.7978 36.1989 57.7534 36.2505C57.6949 36.2015 57.5846 36.2198 57.5478 36.1293C57.771 36.0711 57.7342 35.9811 57.9356 35.9312C58.0186 36.0697 58.3521 35.9002 58.563 35.8733C58.5584 35.8296 58.6655 35.8384 58.6897 35.8026C58.7048 35.7108 58.7105 35.6291 58.6668 35.554C58.6405 35.5845 58.573 35.6118 58.5605 35.6444C58.467 35.5757 58.4016 35.4775 58.2494 35.4872C58.1694 35.6111 57.7606 35.6927 57.635 35.7374C57.4754 35.8548 57.7527 35.8347 57.6123 35.9043C57.265 36.0727 57.0987 36.2401 56.7863 36.241C56.9177 36.3069 56.9387 36.3897 56.8191 36.5111C57.0455 36.5576 57.2146 36.3636 57.5938 36.2427C57.6029 36.2646 57.6526 36.2581 57.6863 36.2778ZM61.868 36.0324C61.8278 36.029 61.7936 36.0103 61.6974 36.0616L61.7439 36.1758C61.7901 36.1303 61.8266 36.1219 61.8821 36.0993C61.8842 36.0715 61.8662 36.06 61.868 36.0324ZM62.4418 39.1004C62.3486 39.2244 62.4041 39.3604 62.2681 39.4748C62.6924 39.2686 62.9547 39.0498 63.0432 38.7892C62.8402 38.8986 62.7276 39.0364 62.4418 39.1004ZM60.567 36.4496C60.6653 36.3382 60.4502 36.3856 60.5652 36.2526C60.1785 36.3911 60.1209 36.1832 59.7324 36.3481C59.7324 36.3481 59.7211 36.3527 59.7237 36.3585C59.4931 36.6233 59.7537 36.6892 60.1547 36.6177C60.0881 36.454 60.4761 36.4815 60.567 36.4496ZM60.1767 36.96C60.3006 36.9755 60.4301 36.975 60.5696 36.9644C60.5867 36.7528 61.461 36.6934 61.35 36.4214C60.8998 36.6911 60.5266 36.797 60.1767 36.96ZM62.1263 26.3528C62.1287 26.3586 62.1067 26.3676 62.109 26.3736C62.1203 26.369 62.1335 26.3704 62.143 26.3597C62.1404 26.3537 62.1287 26.3586 62.1263 26.3528ZM62.5942 31.1082C62.6182 31.0714 62.6716 31.043 62.6941 31.0016C62.649 31.0199 62.6485 30.9866 62.5979 31.0208C62.5953 31.0474 62.6071 31.0761 62.5942 31.1082ZM65.8004 26.4275C65.8071 26.4441 65.8705 26.4384 65.8566 26.4046C65.7181 26.4478 65.7366 26.3341 65.5456 26.4388C65.6587 26.5246 65.4085 26.5806 65.3236 26.6613C65.3282 26.6726 65.3479 26.6576 65.3641 26.6647C65.54 26.5864 65.6108 26.5047 65.8004 26.4275ZM66.2234 26.2813C66.1344 26.2244 65.8555 26.1144 65.7403 26.2802C65.8439 26.2446 65.9119 26.2832 65.9232 26.3775C66.0416 26.3158 66.136 26.2908 66.2234 26.2813ZM66.1246 33.7692L66.0784 33.6561C65.9026 33.7021 65.9031 33.5428 65.6686 33.6712C65.4771 33.7759 65.5986 33.8518 65.4973 33.9521C65.7433 33.8853 65.9184 33.9327 66.1246 33.7692Z" fill="#FEFEFE"/>
<path d="M23.1109 37.3997L18.9161 38.9265C18.9878 38.4918 19.0215 38.0581 18.9865 37.6111L17.8352 37.8514C17.8866 38.3435 17.8622 38.8376 17.7885 39.3369L15.3528 40.2235L18.6772 49.3573L19.7598 48.9633L19.5299 48.3318L25.123 46.2961L25.3528 46.9276L26.4353 46.5336L23.1109 37.3997ZM19.1605 47.3169L18.586 45.7382L24.179 43.7025L24.7536 45.2812L19.1605 47.3169ZM18.2248 44.7459L17.6871 43.2687L23.2802 41.233L23.8178 42.7102L18.2248 44.7459ZM17.326 42.2764L16.8088 40.8556L22.4019 38.8199L22.919 40.2407L17.326 42.2764ZM25.6233 35.8468L25.9968 36.873L30.1916 35.3462L29.8181 34.32L25.6233 35.8468ZM26.3142 39.0433L26.6918 40.0807L28.1352 39.5553C28.306 41.6386 28.3228 42.9478 28.1784 43.4984C28.1456 43.5486 28.0902 43.6071 27.9857 43.6707L28.6144 44.5911C29.8998 43.8423 31.055 43.0515 32.0913 42.2147L32.6471 42.8296L33.3994 42.0195C32.5113 41.0529 31.6334 40.1848 30.77 39.4264L30.0279 40.1945C30.4638 40.585 30.9119 41.0093 31.3724 41.4675C30.7195 42.0244 30.046 42.5249 29.3593 42.9536C29.3898 42.1252 29.3289 40.8704 29.1726 39.1778L31.7098 38.2543L31.3322 37.2169L26.3142 39.0433ZM31.5155 32.9488L32.3117 35.1364L30.8796 35.6576L31.2572 36.6951L32.6893 36.1738L32.7262 36.2753C33.7749 39.2266 33.8514 41.6123 32.9713 43.4395L34.0305 43.8585C35.0182 41.8006 34.9344 39.1494 33.7862 35.8895L33.7492 35.788L35.1475 35.2791C36.2167 38.2868 36.8272 40.0695 36.9525 40.6241C37.0592 41.1982 36.8758 41.5714 36.3797 41.752C36.0865 41.8587 35.7287 41.9634 35.3105 42.0773L35.9033 42.9343C36.3626 42.7926 36.6865 42.7003 36.8669 42.6346C37.8931 42.2611 38.3122 41.6233 38.1243 40.7212C37.9139 39.8272 37.1453 37.5402 35.8073 33.8641L33.3716 34.7506L32.5754 32.563L31.5155 32.9488ZM41.0922 29.859L41.4616 30.8739L43.6605 30.0736C43.7385 30.4283 43.8012 30.7758 43.8525 31.1274L42.24 31.7143L44.2675 37.2848L45.3162 36.9031L43.6499 32.325L46.2998 31.3605L47.9251 35.8259L48.9625 35.4483L46.9761 29.9906L44.9012 30.7457C44.854 30.4054 44.7872 30.0466 44.7092 29.6919L46.8742 28.9038L46.5049 27.889L41.0922 29.859ZM47.514 35.9244L47.0468 36.8862C48.0906 37.2981 48.9488 37.7264 49.6102 38.1752L50.0979 37.1293C49.3494 36.6867 48.4881 36.285 47.514 35.9244ZM44.6639 32.6199L45.3781 34.582C45.6849 35.5302 45.7794 36.3514 45.673 37.0414C45.5358 37.7171 45.0798 38.3939 44.309 39.0831L45.1971 39.7687C46.0273 39.0323 46.5489 38.2551 46.7312 37.4225C46.9001 36.5182 46.7798 35.451 46.3816 34.2167L45.6675 32.2546L44.6639 32.6199ZM38.2894 30.5088C38.0448 31.977 37.6792 33.3232 37.1957 34.5209L38.1165 35.1562C38.6062 33.9053 38.9472 32.6319 39.1704 31.3503C39.8533 31.753 40.7588 32.3812 41.8601 33.2318L42.2955 32.2177C41.2434 31.5024 40.1811 30.8291 39.0901 30.2174L38.2894 30.5088ZM38.4653 35.9743L38.8306 36.9778L41.8301 35.8861C41.7094 36.7473 41.563 37.503 41.3684 38.1612C40.9542 38.0055 40.5287 37.8539 40.0919 37.7064L39.6359 38.6641C41.1575 39.1958 42.4064 39.75 43.3642 40.3464L43.8519 39.3006C43.374 39.0403 42.8583 38.7811 42.3128 38.5454C42.62 37.5652 42.834 36.504 42.9434 35.366L42.615 34.4639L38.4653 35.9743ZM39.6588 32.8326L39.0644 33.5853C39.7494 34.0639 40.3237 34.5189 40.7872 34.9504L41.357 34.13C40.9365 33.7467 40.3705 33.3142 39.6588 32.8326ZM55.7742 32.1645C55.4985 32.3543 55.2115 32.5481 54.9132 32.7461L52.7297 26.7471L53.4176 26.4967L53.6515 27.1395L54.1026 26.9753C54.914 28.7487 56.0033 30.2678 57.359 31.5366C57.1287 32.6931 56.7066 33.779 56.0774 34.787L57.1141 35.3546C57.6777 34.4471 58.0834 33.4567 58.3537 32.375C59.1177 32.9653 59.975 33.4961 60.9368 33.9633L61.3588 32.8775C60.3406 32.4308 59.4065 31.8641 58.5677 31.1733C58.7753 29.4632 58.6322 27.5614 58.1456 25.4527L57.7886 24.4716L53.3682 26.0805L53.1425 25.4603L47.7073 27.4385L48.0726 28.4421L48.8845 28.1466L51.3306 34.8673L50.4245 35.3248L51.0655 36.2791C52.2064 35.6596 53.294 35.0338 54.3395 34.3979L54.9716 36.1344L56.009 35.7569L55.299 33.8061L56.1641 33.2358L55.7742 32.1645ZM55.0836 26.6182L57.1584 25.8631C57.5085 27.4213 57.632 28.8832 57.5401 30.2448C56.5597 29.2352 55.7484 28.0236 55.0836 26.6182ZM53.9619 33.3605C53.4279 33.6826 52.8826 34.0087 52.3219 34.3277L51.7185 32.6701L53.4776 32.0299L53.9619 33.3605ZM51.3697 31.7116L50.8279 30.2232L52.587 29.5829L53.1288 31.0714L51.3697 31.7116ZM50.475 29.2534L49.9332 27.7649L51.6923 27.1247L52.2341 28.6131L50.475 29.2534Z" fill="white"/>
</g>
<defs>
<clipPath id="clip0_910_18408">
<rect width="74" height="75" fill="white"/>
</clipPath>
</defs>
</svg>
