<?xml version="1.0" encoding="UTF-8"?>
<svg xmlns="http://www.w3.org/2000/svg" xmlns:xlink="http://www.w3.org/1999/xlink" width="32pt" height="32pt" viewBox="0 0 32 32" version="1.1">
<defs>
<clipPath id="clip1">
  <path d="M 16 32 C 24.835938 32 32 24.835938 32 16 C 32 7.164062 24.835938 0 16 0 C 7.164062 0 0 7.164062 0 16 C 0 24.835938 7.164062 32 16 32 Z M 16 32 "/>
</clipPath>
<clipPath id="clip2">
  <path d="M 4 10 L 19 10 L 19 28 L 4 28 Z M 4 10 "/>
</clipPath>
<clipPath id="clip3">
  <path d="M 18.109375 26.027344 C 15.523438 27.773438 11.234375 27.421875 8.9375 25.414062 C 8.515625 25.042969 8.027344 24.695312 7.507812 24.492188 C 4.078125 23.175781 2.945312 19.335938 5.09375 16.363281 C 5.503906 15.792969 5.796875 15.089844 5.972656 14.402344 C 6.664062 11.722656 9.617188 9.855469 12.40625 10.398438 C 6.191406 16.28125 10.339844 25.53125 18.109375 26.027344 "/>
</clipPath>
<clipPath id="clip4">
  <path d="M 13 6 L 28 6 L 28 17 L 13 17 Z M 13 6 "/>
</clipPath>
<clipPath id="clip5">
  <path d="M 13.78125 11.304688 C 14.335938 8.566406 16.550781 6.953125 19.457031 7 C 19.976562 7.007812 20.542969 6.957031 21.015625 6.765625 C 23.070312 5.929688 25.117188 6.828125 25.917969 8.929688 C 26.144531 9.527344 26.457031 10.109375 26.832031 10.628906 C 28.308594 12.660156 28.101562 15.335938 26.300781 16.898438 C 25.335938 10.199219 18.382812 8.207031 13.78125 11.304688 "/>
</clipPath>
<clipPath id="clip6">
  <path d="M 14 13 L 23 13 L 23 22 L 14 22 Z M 14 13 "/>
</clipPath>
<clipPath id="clip7">
  <path d="M 22.179688 17.667969 C 20.902344 18.960938 19.582031 20.300781 18.253906 21.644531 C 16.925781 20.261719 15.621094 18.898438 14.339844 17.5625 C 15.570312 16.324219 16.898438 14.988281 18.257812 13.617188 C 19.539062 14.941406 20.871094 16.316406 22.179688 17.667969 "/>
</clipPath>
<clipPath id="clip8">
  <path d="M 5 4 L 19 4 L 19 13 L 5 13 Z M 5 4 "/>
</clipPath>
<clipPath id="clip9">
  <path d="M 5.621094 12.949219 C 8.574219 8.648438 12.886719 6.332031 18.835938 6.414062 C 18.234375 4.613281 16.546875 4.023438 13.8125 4.59375 C 9.738281 3.550781 8.132812 4.8125 8.132812 7.824219 C 5.941406 8.679688 5.457031 10.613281 5.621094 12.949219 "/>
</clipPath>
</defs>
<g id="surface1">
<g clip-path="url(#clip1)" clip-rule="evenodd">
<rect x="0" y="0" width="32" height="32" style="fill:rgb(100%,100%,100%);fill-opacity:1;stroke:none;"/>
</g>
<g clip-path="url(#clip2)" clip-rule="nonzero">
<g clip-path="url(#clip3)" clip-rule="nonzero">
<path style=" stroke:none;fill-rule:nonzero;fill:rgb(0%,60.392761%,26.66626%);fill-opacity:1;" d="M -1 5.304688 L 23.109375 5.304688 L 23.109375 32.152344 L -1 32.152344 Z M -1 5.304688 "/>
</g>
</g>
<g clip-path="url(#clip4)" clip-rule="nonzero">
<g clip-path="url(#clip5)" clip-rule="nonzero">
<path style=" stroke:none;fill-rule:nonzero;fill:rgb(86.274719%,0.784302%,7.843018%);fill-opacity:1;" d="M 8.78125 1.453125 L 32.8125 1.453125 L 32.8125 21.898438 L 8.78125 21.898438 Z M 8.78125 1.453125 "/>
</g>
</g>
<g clip-path="url(#clip6)" clip-rule="nonzero">
<g clip-path="url(#clip7)" clip-rule="nonzero">
<path style=" stroke:none;fill-rule:nonzero;fill:rgb(11.372375%,12.548828%,53.726196%);fill-opacity:1;" d="M 9.339844 8.617188 L 27.179688 8.617188 L 27.179688 26.644531 L 9.339844 26.644531 Z M 9.339844 8.617188 "/>
</g>
</g>
<g clip-path="url(#clip8)" clip-rule="nonzero">
<g clip-path="url(#clip9)" clip-rule="nonzero">
<path style=" stroke:none;fill-rule:nonzero;fill:rgb(99.215698%,81.96106%,0%);fill-opacity:1;" d="M 0.59375 -0.765625 L 23.835938 -0.765625 L 23.835938 17.949219 L 0.59375 17.949219 Z M 0.59375 -0.765625 "/>
</g>
</g>
</g>
</svg>
