<svg width="291" height="239" viewBox="0 0 291 239" fill="none" xmlns="http://www.w3.org/2000/svg">
<g clip-path="url(#clip0_928_21898)">
<path d="M7.532 213.572H13.468V212.82H7.532V213.572ZM7.484 211.356L7.796 212.116L13.732 209.708V209.684L7.796 207.276L7.484 208.036L11.58 209.684V209.708L7.484 211.356ZM14.884 213.5H18.204V212.548H17.212V207.708H16.348C15.988 207.948 15.628 208.1 15.068 208.204V208.94H16.036V212.548H14.884V213.5ZM20.5 213.596C21.516 213.596 22.188 212.612 22.188 210.564C22.188 208.524 21.516 207.612 20.5 207.612C19.492 207.612 18.812 208.524 18.812 210.564C18.812 212.612 19.492 213.596 20.5 213.596ZM20.5 212.684C20.188 212.684 19.932 212.236 19.932 210.564C19.932 208.892 20.188 208.516 20.5 208.516C20.812 208.516 21.068 208.892 21.068 210.564C21.068 212.236 20.812 212.684 20.5 212.684ZM24.5 213.596C25.516 213.596 26.188 212.612 26.188 210.564C26.188 208.524 25.516 207.612 24.5 207.612C23.492 207.612 22.812 208.524 22.812 210.564C22.812 212.612 23.492 213.596 24.5 213.596ZM24.5 212.684C24.188 212.684 23.932 212.236 23.932 210.564C23.932 208.892 24.188 208.516 24.5 208.516C24.812 208.516 25.068 208.892 25.068 210.564C25.068 212.236 24.812 212.684 24.5 212.684Z" fill="#4D4C4D"/>
<path fill-rule="evenodd" clip-rule="evenodd" d="M0 203.128H36V37.5H0V203.128Z" fill="#FBEDCA"/>
<path fill-rule="evenodd" clip-rule="evenodd" d="M0 203.5H36V173.5H0V203.5Z" fill="#F2B819"/>
<path d="M13.37 189.5H17.63V188.28H16.4C16.05 188.28 15.72 188.31 15.33 188.35C16.43 186.93 17.35 185.58 17.35 184.31C17.35 182.99 16.55 182.12 15.37 182.12C14.49 182.12 13.9 182.5 13.29 183.17L14.12 183.99C14.41 183.61 14.76 183.29 15.18 183.29C15.67 183.29 15.93 183.7 15.93 184.39C15.93 185.64 14.92 186.92 13.37 188.66V189.5ZM20.5 189.62C21.77 189.62 22.61 188.39 22.61 185.83C22.61 183.28 21.77 182.14 20.5 182.14C19.24 182.14 18.39 183.28 18.39 185.83C18.39 188.39 19.24 189.62 20.5 189.62ZM20.5 188.48C20.11 188.48 19.79 187.92 19.79 185.83C19.79 183.74 20.11 183.27 20.5 183.27C20.89 183.27 21.21 183.74 21.21 185.83C21.21 187.92 20.89 188.48 20.5 188.48Z" fill="#FEFEFE"/>
<path d="M49.3653 213.572H55.3013V212.82H49.3653V213.572ZM49.3173 211.356L49.6293 212.116L55.5653 209.708V209.684L49.6293 207.276L49.3173 208.036L53.4133 209.684V209.708L49.3173 211.356ZM58.1973 213.596C59.1413 213.596 59.9173 213.004 59.9173 211.98C59.9173 211.172 59.4933 210.684 58.9973 210.5V210.468C59.4853 210.22 59.7813 209.788 59.7813 209.116C59.7813 208.164 59.1413 207.612 58.1653 207.612C57.5653 207.612 57.0533 207.9 56.5973 208.348L57.2133 209.06C57.5093 208.74 57.7573 208.54 58.0533 208.54C58.4453 208.54 58.6693 208.788 58.6693 209.228C58.6693 209.732 58.3733 210.116 57.5733 210.116V210.956C58.5173 210.956 58.7973 211.308 58.7973 211.884C58.7973 212.388 58.4693 212.636 58.0453 212.636C57.6773 212.636 57.3333 212.404 57.0533 212.036L56.4693 212.772C56.8293 213.244 57.3813 213.596 58.1973 213.596ZM62.3333 213.596C63.3493 213.596 64.0213 212.612 64.0213 210.564C64.0213 208.524 63.3493 207.612 62.3333 207.612C61.3253 207.612 60.6453 208.524 60.6453 210.564C60.6453 212.612 61.3253 213.596 62.3333 213.596ZM62.3333 212.684C62.0213 212.684 61.7653 212.236 61.7653 210.564C61.7653 208.892 62.0213 208.516 62.3333 208.516C62.6453 208.516 62.9013 208.892 62.9013 210.564C62.9013 212.236 62.6453 212.684 62.3333 212.684ZM66.3333 213.596C67.3493 213.596 68.0213 212.612 68.0213 210.564C68.0213 208.524 67.3493 207.612 66.3333 207.612C65.3253 207.612 64.6453 208.524 64.6453 210.564C64.6453 212.612 65.3253 213.596 66.3333 213.596ZM66.3333 212.684C66.0213 212.684 65.7653 212.236 65.7653 210.564C65.7653 208.892 66.0213 208.516 66.3333 208.516C66.6453 208.516 66.9013 208.892 66.9013 210.564C66.9013 212.236 66.6453 212.684 66.3333 212.684Z" fill="#4D4C4D"/>
<path fill-rule="evenodd" clip-rule="evenodd" d="M41.8333 203.128H77.8333V37.5H41.8333V203.128Z" fill="#FBEDCA"/>
<path fill-rule="evenodd" clip-rule="evenodd" d="M41.8333 203.5H77.8333V153.5H41.8333V203.5Z" fill="#F2B819"/>
<path d="M57.1633 169.62C58.3433 169.62 59.3133 168.88 59.3133 167.6C59.3133 166.59 58.7833 165.98 58.1633 165.75V165.71C58.7733 165.4 59.1433 164.86 59.1433 164.02C59.1433 162.83 58.3433 162.14 57.1233 162.14C56.3733 162.14 55.7333 162.5 55.1633 163.06L55.9333 163.95C56.3033 163.55 56.6133 163.3 56.9833 163.3C57.4733 163.3 57.7533 163.61 57.7533 164.16C57.7533 164.79 57.3833 165.27 56.3833 165.27V166.32C57.5633 166.32 57.9133 166.76 57.9133 167.48C57.9133 168.11 57.5033 168.42 56.9733 168.42C56.5133 168.42 56.0833 168.13 55.7333 167.67L55.0033 168.59C55.4533 169.18 56.1433 169.62 57.1633 169.62ZM62.1733 169.62C63.3333 169.62 64.3333 168.73 64.3333 167.13C64.3333 165.59 63.4633 164.88 62.5633 164.88C62.3333 164.88 62.1433 164.93 61.9433 165.01L62.0733 163.5H64.1133V162.26H60.8033L60.6133 165.8L61.2833 166.23C61.5833 166.01 61.7433 165.92 62.0233 165.92C62.4933 165.92 62.8633 166.38 62.8633 167.16C62.8633 167.98 62.4933 168.42 61.9733 168.42C61.4833 168.42 61.1033 168.15 60.8033 167.82L60.1133 168.73C60.5933 169.24 61.2233 169.62 62.1733 169.62Z" fill="#FEFEFE"/>
<path d="M86.1987 213.572H92.1347V212.82H86.1987V213.572ZM86.1507 211.356L86.4627 212.116L92.3987 209.708V209.684L86.4627 207.276L86.1507 208.036L90.2467 209.684V209.708L86.1507 211.356ZM93.5507 213.5H96.8707V212.548H95.8787V207.708H95.0147C94.6547 207.948 94.2947 208.1 93.7347 208.204V208.94H94.7027V212.548H93.5507V213.5ZM98.5267 215.212C99.4867 214.892 100.031 214.156 100.031 213.228C100.031 212.508 99.7187 212.068 99.1827 212.068C98.7667 212.068 98.4227 212.332 98.4227 212.764C98.4227 213.212 98.7747 213.476 99.1667 213.476C99.1907 213.476 99.2147 213.476 99.2387 213.476C99.2227 213.932 98.8787 214.34 98.2627 214.564L98.5267 215.212ZM103.167 213.596C104.183 213.596 104.855 212.612 104.855 210.564C104.855 208.524 104.183 207.612 103.167 207.612C102.159 207.612 101.479 208.524 101.479 210.564C101.479 212.612 102.159 213.596 103.167 213.596ZM103.167 212.684C102.855 212.684 102.599 212.236 102.599 210.564C102.599 208.892 102.855 208.516 103.167 208.516C103.479 208.516 103.735 208.892 103.735 210.564C103.735 212.236 103.479 212.684 103.167 212.684ZM107.167 213.596C108.183 213.596 108.855 212.612 108.855 210.564C108.855 208.524 108.183 207.612 107.167 207.612C106.159 207.612 105.479 208.524 105.479 210.564C105.479 212.612 106.159 213.596 107.167 213.596ZM107.167 212.684C106.855 212.684 106.599 212.236 106.599 210.564C106.599 208.892 106.855 208.516 107.167 208.516C107.479 208.516 107.735 208.892 107.735 210.564C107.735 212.236 107.479 212.684 107.167 212.684ZM111.167 213.596C112.183 213.596 112.855 212.612 112.855 210.564C112.855 208.524 112.183 207.612 111.167 207.612C110.159 207.612 109.479 208.524 109.479 210.564C109.479 212.612 110.159 213.596 111.167 213.596ZM111.167 212.684C110.855 212.684 110.599 212.236 110.599 210.564C110.599 208.892 110.855 208.516 111.167 208.516C111.479 208.516 111.735 208.892 111.735 210.564C111.735 212.236 111.479 212.684 111.167 212.684Z" fill="#4D4C4D"/>
<path fill-rule="evenodd" clip-rule="evenodd" d="M83.6667 203.128H119.667V37.5H83.6667V203.128Z" fill="#FBEDCA"/>
<path fill-rule="evenodd" clip-rule="evenodd" d="M83.6667 203.5H119.667V133.5H83.6667V203.5Z" fill="#F2B819"/>
<path d="M94.6467 149.5H98.7967V148.31H97.5567V142.26H96.4767C96.0267 142.56 95.5767 142.75 94.8767 142.88V143.8H96.0867V148.31H94.6467V149.5ZM101.667 149.62C102.937 149.62 103.777 148.39 103.777 145.83C103.777 143.28 102.937 142.14 101.667 142.14C100.407 142.14 99.5567 143.28 99.5567 145.83C99.5567 148.39 100.407 149.62 101.667 149.62ZM101.667 148.48C101.277 148.48 100.957 147.92 100.957 145.83C100.957 143.74 101.277 143.27 101.667 143.27C102.057 143.27 102.377 143.74 102.377 145.83C102.377 147.92 102.057 148.48 101.667 148.48ZM106.667 149.62C108.027 149.62 108.797 148.78 108.797 147.7C108.797 146.76 108.297 146.19 107.727 145.77V145.73C108.177 145.34 108.557 144.77 108.557 144C108.557 142.91 107.817 142.14 106.697 142.14C105.517 142.14 104.697 142.88 104.697 144.01C104.697 144.76 105.087 145.38 105.547 145.79V145.83C104.987 146.27 104.537 146.76 104.537 147.72C104.537 148.82 105.367 149.62 106.667 149.62ZM106.887 145.28C106.387 144.99 106.037 144.57 106.037 144C106.037 143.46 106.297 143.17 106.667 143.17C107.077 143.17 107.327 143.56 107.327 144.08C107.327 144.53 107.177 144.92 106.887 145.28ZM106.677 148.6C106.187 148.6 105.847 148.23 105.847 147.65C105.847 147.08 106.067 146.67 106.347 146.35C106.997 146.77 107.367 147.12 107.367 147.78C107.367 148.29 107.137 148.6 106.677 148.6Z" fill="#FEFEFE"/>
<path d="M128.032 213.072H133.968V212.32H128.032V213.072ZM127.984 210.856L128.296 211.616L134.232 209.208V209.184L128.296 206.776L127.984 207.536L132.08 209.184V209.208L127.984 210.856ZM136.864 213.096C137.808 213.096 138.584 212.504 138.584 211.48C138.584 210.672 138.16 210.184 137.664 210V209.968C138.152 209.72 138.448 209.288 138.448 208.616C138.448 207.664 137.808 207.112 136.832 207.112C136.232 207.112 135.72 207.4 135.264 207.848L135.88 208.56C136.176 208.24 136.424 208.04 136.72 208.04C137.112 208.04 137.336 208.288 137.336 208.728C137.336 209.232 137.04 209.616 136.24 209.616V210.456C137.184 210.456 137.464 210.808 137.464 211.384C137.464 211.888 137.136 212.136 136.712 212.136C136.344 212.136 136 211.904 135.72 211.536L135.136 212.272C135.496 212.744 136.048 213.096 136.864 213.096ZM140.36 214.712C141.32 214.392 141.864 213.656 141.864 212.728C141.864 212.008 141.552 211.568 141.016 211.568C140.6 211.568 140.256 211.832 140.256 212.264C140.256 212.712 140.608 212.976 141 212.976C141.024 212.976 141.048 212.976 141.072 212.976C141.056 213.432 140.712 213.84 140.096 214.064L140.36 214.712ZM145 213.096C146.016 213.096 146.688 212.112 146.688 210.064C146.688 208.024 146.016 207.112 145 207.112C143.992 207.112 143.312 208.024 143.312 210.064C143.312 212.112 143.992 213.096 145 213.096ZM145 212.184C144.688 212.184 144.432 211.736 144.432 210.064C144.432 208.392 144.688 208.016 145 208.016C145.312 208.016 145.568 208.392 145.568 210.064C145.568 211.736 145.312 212.184 145 212.184ZM149 213.096C150.016 213.096 150.688 212.112 150.688 210.064C150.688 208.024 150.016 207.112 149 207.112C147.992 207.112 147.312 208.024 147.312 210.064C147.312 212.112 147.992 213.096 149 213.096ZM149 212.184C148.688 212.184 148.432 211.736 148.432 210.064C148.432 208.392 148.688 208.016 149 208.016C149.312 208.016 149.568 208.392 149.568 210.064C149.568 211.736 149.312 212.184 149 212.184ZM153 213.096C154.016 213.096 154.688 212.112 154.688 210.064C154.688 208.024 154.016 207.112 153 207.112C151.992 207.112 151.312 208.024 151.312 210.064C151.312 212.112 151.992 213.096 153 213.096ZM153 212.184C152.688 212.184 152.432 211.736 152.432 210.064C152.432 208.392 152.688 208.016 153 208.016C153.312 208.016 153.568 208.392 153.568 210.064C153.568 211.736 153.312 212.184 153 212.184Z" fill="#4D4C4D"/>
<path fill-rule="evenodd" clip-rule="evenodd" d="M125.5 203.128H161.5V37.5H125.5V203.128Z" fill="#FBEDCA"/>
<path fill-rule="evenodd" clip-rule="evenodd" d="M125.5 203.5H161.5V113.5H125.5V203.5Z" fill="#F2B819"/>
<path d="M138.33 129.62C139.51 129.62 140.48 128.88 140.48 127.6C140.48 126.59 139.95 125.98 139.33 125.75V125.71C139.94 125.4 140.31 124.86 140.31 124.02C140.31 122.83 139.51 122.14 138.29 122.14C137.54 122.14 136.9 122.5 136.33 123.06L137.1 123.95C137.47 123.55 137.78 123.3 138.15 123.3C138.64 123.3 138.92 123.61 138.92 124.16C138.92 124.79 138.55 125.27 137.55 125.27V126.32C138.73 126.32 139.08 126.76 139.08 127.48C139.08 128.11 138.67 128.42 138.14 128.42C137.68 128.42 137.25 128.13 136.9 127.67L136.17 128.59C136.62 129.18 137.31 129.62 138.33 129.62ZM141.37 129.5H145.63V128.28H144.4C144.05 128.28 143.72 128.31 143.33 128.35C144.43 126.93 145.35 125.58 145.35 124.31C145.35 122.99 144.55 122.12 143.37 122.12C142.49 122.12 141.9 122.5 141.29 123.17L142.12 123.99C142.41 123.61 142.76 123.29 143.18 123.29C143.67 123.29 143.93 123.7 143.93 124.39C143.93 125.64 142.92 126.92 141.37 128.66V129.5ZM148.5 129.62C149.86 129.62 150.63 128.78 150.63 127.7C150.63 126.76 150.13 126.19 149.56 125.77V125.73C150.01 125.34 150.39 124.77 150.39 124C150.39 122.91 149.65 122.14 148.53 122.14C147.35 122.14 146.53 122.88 146.53 124.01C146.53 124.76 146.92 125.38 147.38 125.79V125.83C146.82 126.27 146.37 126.76 146.37 127.72C146.37 128.82 147.2 129.62 148.5 129.62ZM148.72 125.28C148.22 124.99 147.87 124.57 147.87 124C147.87 123.46 148.13 123.17 148.5 123.17C148.91 123.17 149.16 123.56 149.16 124.08C149.16 124.53 149.01 124.92 148.72 125.28ZM148.51 128.6C148.02 128.6 147.68 128.23 147.68 127.65C147.68 127.08 147.9 126.67 148.18 126.35C148.83 126.77 149.2 127.12 149.2 127.78C149.2 128.29 148.97 128.6 148.51 128.6Z" fill="#FEFEFE"/>
<path d="M169.865 213.572H175.801V212.82H169.865V213.572ZM169.817 211.356L170.129 212.116L176.065 209.708V209.684L170.129 207.276L169.817 208.036L173.913 209.684V209.708L169.817 211.356ZM178.705 213.596C179.633 213.596 180.433 212.884 180.433 211.604C180.433 210.372 179.737 209.804 179.017 209.804C178.833 209.804 178.681 209.844 178.521 209.908L178.625 208.7H180.257V207.708H177.609L177.457 210.54L177.993 210.884C178.233 210.708 178.361 210.636 178.585 210.636C178.961 210.636 179.257 211.004 179.257 211.628C179.257 212.284 178.961 212.636 178.545 212.636C178.153 212.636 177.849 212.42 177.609 212.156L177.057 212.884C177.441 213.292 177.945 213.596 178.705 213.596ZM182.193 215.212C183.153 214.892 183.697 214.156 183.697 213.228C183.697 212.508 183.385 212.068 182.849 212.068C182.433 212.068 182.089 212.332 182.089 212.764C182.089 213.212 182.441 213.476 182.833 213.476C182.857 213.476 182.881 213.476 182.905 213.476C182.889 213.932 182.545 214.34 181.929 214.564L182.193 215.212ZM186.833 213.596C187.849 213.596 188.521 212.612 188.521 210.564C188.521 208.524 187.849 207.612 186.833 207.612C185.825 207.612 185.145 208.524 185.145 210.564C185.145 212.612 185.825 213.596 186.833 213.596ZM186.833 212.684C186.521 212.684 186.265 212.236 186.265 210.564C186.265 208.892 186.521 208.516 186.833 208.516C187.145 208.516 187.401 208.892 187.401 210.564C187.401 212.236 187.145 212.684 186.833 212.684ZM190.833 213.596C191.849 213.596 192.521 212.612 192.521 210.564C192.521 208.524 191.849 207.612 190.833 207.612C189.825 207.612 189.145 208.524 189.145 210.564C189.145 212.612 189.825 213.596 190.833 213.596ZM190.833 212.684C190.521 212.684 190.265 212.236 190.265 210.564C190.265 208.892 190.521 208.516 190.833 208.516C191.145 208.516 191.401 208.892 191.401 210.564C191.401 212.236 191.145 212.684 190.833 212.684ZM194.833 213.596C195.849 213.596 196.521 212.612 196.521 210.564C196.521 208.524 195.849 207.612 194.833 207.612C193.825 207.612 193.145 208.524 193.145 210.564C193.145 212.612 193.825 213.596 194.833 213.596ZM194.833 212.684C194.521 212.684 194.265 212.236 194.265 210.564C194.265 208.892 194.521 208.516 194.833 208.516C195.145 208.516 195.401 208.892 195.401 210.564C195.401 212.236 195.145 212.684 194.833 212.684Z" fill="#4D4C4D"/>
<path fill-rule="evenodd" clip-rule="evenodd" d="M167.333 203.128H203.333V37.5H167.333V203.128Z" fill="#FBEDCA"/>
<path fill-rule="evenodd" clip-rule="evenodd" d="M167.333 203.5H203.333V93.5H167.333V203.5Z" fill="#F2B819"/>
<path d="M179.323 106.57L180.123 104.76C180.263 104.36 180.463 103.8 180.603 103.33H180.643C180.613 103.84 180.593 104.46 180.593 104.91V106.57H179.323ZM182.593 106.57H181.943V102.26H180.043L178.083 106.69V107.7H180.593V109.5H181.943V107.7H182.593V106.57ZM185.233 105.7C184.873 105.7 184.613 105.33 184.613 104.52C184.613 103.67 184.853 103.26 185.233 103.26C185.633 103.26 185.973 103.75 186.053 105.11C185.793 105.55 185.493 105.7 185.233 105.7ZM183.303 108.79C183.653 109.24 184.223 109.62 184.953 109.62C186.313 109.62 187.433 108.45 187.433 105.68C187.433 103.27 186.353 102.14 185.193 102.14C184.143 102.14 183.243 103.04 183.243 104.52C183.243 106.04 183.993 106.76 184.893 106.76C185.353 106.76 185.743 106.53 186.053 106.14C185.973 107.85 185.463 108.42 184.933 108.42C184.613 108.42 184.283 108.2 184.093 107.9L183.303 108.79ZM190.333 109.62C191.693 109.62 192.463 108.78 192.463 107.7C192.463 106.76 191.963 106.19 191.393 105.77V105.73C191.843 105.34 192.223 104.77 192.223 104C192.223 102.91 191.483 102.14 190.363 102.14C189.183 102.14 188.363 102.88 188.363 104.01C188.363 104.76 188.753 105.38 189.213 105.79V105.83C188.653 106.27 188.203 106.76 188.203 107.72C188.203 108.82 189.033 109.62 190.333 109.62ZM190.553 105.28C190.053 104.99 189.703 104.57 189.703 104C189.703 103.46 189.963 103.17 190.333 103.17C190.743 103.17 190.993 103.56 190.993 104.08C190.993 104.53 190.843 104.92 190.553 105.28ZM190.343 108.6C189.853 108.6 189.513 108.23 189.513 107.65C189.513 107.08 189.733 106.67 190.013 106.35C190.663 106.77 191.033 107.12 191.033 107.78C191.033 108.29 190.803 108.6 190.343 108.6Z" fill="#FEFEFE"/>
<path d="M210.199 213.076H216.135V212.324H210.199V213.076ZM210.151 210.86L210.463 211.62L216.399 209.212V209.188L210.463 206.78L210.151 207.54L214.247 209.188V209.212L210.151 210.86ZM217.551 213.004H220.871V212.052H219.879V207.212H219.015C218.655 207.452 218.295 207.604 217.735 207.708V208.444H218.703V212.052H217.551V213.004ZM223.167 213.1C224.183 213.1 224.855 212.116 224.855 210.068C224.855 208.028 224.183 207.116 223.167 207.116C222.159 207.116 221.479 208.028 221.479 210.068C221.479 212.116 222.159 213.1 223.167 213.1ZM223.167 212.188C222.855 212.188 222.599 211.74 222.599 210.068C222.599 208.396 222.855 208.02 223.167 208.02C223.479 208.02 223.735 208.396 223.735 210.068C223.735 211.74 223.479 212.188 223.167 212.188ZM226.527 214.716C227.487 214.396 228.031 213.66 228.031 212.732C228.031 212.012 227.719 211.572 227.183 211.572C226.767 211.572 226.423 211.836 226.423 212.268C226.423 212.716 226.775 212.98 227.167 212.98C227.191 212.98 227.215 212.98 227.239 212.98C227.223 213.436 226.879 213.844 226.263 214.068L226.527 214.716ZM231.167 213.1C232.183 213.1 232.855 212.116 232.855 210.068C232.855 208.028 232.183 207.116 231.167 207.116C230.159 207.116 229.479 208.028 229.479 210.068C229.479 212.116 230.159 213.1 231.167 213.1ZM231.167 212.188C230.855 212.188 230.599 211.74 230.599 210.068C230.599 208.396 230.855 208.02 231.167 208.02C231.479 208.02 231.735 208.396 231.735 210.068C231.735 211.74 231.479 212.188 231.167 212.188ZM235.167 213.1C236.183 213.1 236.855 212.116 236.855 210.068C236.855 208.028 236.183 207.116 235.167 207.116C234.159 207.116 233.479 208.028 233.479 210.068C233.479 212.116 234.159 213.1 235.167 213.1ZM235.167 212.188C234.855 212.188 234.599 211.74 234.599 210.068C234.599 208.396 234.855 208.02 235.167 208.02C235.479 208.02 235.735 208.396 235.735 210.068C235.735 211.74 235.479 212.188 235.167 212.188ZM239.167 213.1C240.183 213.1 240.855 212.116 240.855 210.068C240.855 208.028 240.183 207.116 239.167 207.116C238.159 207.116 237.479 208.028 237.479 210.068C237.479 212.116 238.159 213.1 239.167 213.1ZM239.167 212.188C238.855 212.188 238.599 211.74 238.599 210.068C238.599 208.396 238.855 208.02 239.167 208.02C239.479 208.02 239.735 208.396 239.735 210.068C239.735 211.74 239.479 212.188 239.167 212.188Z" fill="#4D4C4D"/>
<path fill-rule="evenodd" clip-rule="evenodd" d="M210.366 203.128H246.366V37.5H210.366V203.128Z" fill="#FBEDCA"/>
<path fill-rule="evenodd" clip-rule="evenodd" d="M210.167 203.004H246.167V73.004H210.167V203.004Z" fill="#F2B819"/>
<path d="M223.067 85.204C222.707 85.204 222.447 84.834 222.447 84.024C222.447 83.174 222.687 82.764 223.067 82.764C223.467 82.764 223.807 83.254 223.887 84.614C223.627 85.054 223.327 85.204 223.067 85.204ZM221.137 88.294C221.487 88.744 222.057 89.124 222.787 89.124C224.147 89.124 225.267 87.954 225.267 85.184C225.267 82.774 224.187 81.644 223.027 81.644C221.977 81.644 221.077 82.544 221.077 84.024C221.077 85.544 221.827 86.264 222.727 86.264C223.187 86.264 223.577 86.034 223.887 85.644C223.807 87.354 223.297 87.924 222.767 87.924C222.447 87.924 222.117 87.704 221.927 87.404L221.137 88.294ZM228.167 89.124C229.527 89.124 230.297 88.284 230.297 87.204C230.297 86.264 229.797 85.694 229.227 85.274V85.234C229.677 84.844 230.057 84.274 230.057 83.504C230.057 82.414 229.317 81.644 228.197 81.644C227.017 81.644 226.197 82.384 226.197 83.514C226.197 84.264 226.587 84.884 227.047 85.294V85.334C226.487 85.774 226.037 86.264 226.037 87.224C226.037 88.324 226.867 89.124 228.167 89.124ZM228.387 84.784C227.887 84.494 227.537 84.074 227.537 83.504C227.537 82.964 227.797 82.674 228.167 82.674C228.577 82.674 228.827 83.064 228.827 83.584C228.827 84.034 228.677 84.424 228.387 84.784ZM228.177 88.104C227.687 88.104 227.347 87.734 227.347 87.154C227.347 86.584 227.567 86.174 227.847 85.854C228.497 86.274 228.867 86.624 228.867 87.284C228.867 87.794 228.637 88.104 228.177 88.104ZM233.167 89.124C234.527 89.124 235.297 88.284 235.297 87.204C235.297 86.264 234.797 85.694 234.227 85.274V85.234C234.677 84.844 235.057 84.274 235.057 83.504C235.057 82.414 234.317 81.644 233.197 81.644C232.017 81.644 231.197 82.384 231.197 83.514C231.197 84.264 231.587 84.884 232.047 85.294V85.334C231.487 85.774 231.037 86.264 231.037 87.224C231.037 88.324 231.867 89.124 233.167 89.124ZM233.387 84.784C232.887 84.494 232.537 84.074 232.537 83.504C232.537 82.964 232.797 82.674 233.167 82.674C233.577 82.674 233.827 83.064 233.827 83.584C233.827 84.034 233.677 84.424 233.387 84.784ZM233.177 88.104C232.687 88.104 232.347 87.734 232.347 87.154C232.347 86.584 232.567 86.174 232.847 85.854C233.497 86.274 233.867 86.624 233.867 87.284C233.867 87.794 233.637 88.104 233.177 88.104Z" fill="#FEFEFE"/>
<path d="M254.032 213.572H259.968V212.82H254.032V213.572ZM253.984 211.356L254.296 212.116L260.232 209.708V209.684L254.296 207.276L253.984 208.036L258.08 209.684V209.708L253.984 211.356ZM262.864 213.596C263.808 213.596 264.584 213.004 264.584 211.98C264.584 211.172 264.16 210.684 263.664 210.5V210.468C264.152 210.22 264.448 209.788 264.448 209.116C264.448 208.164 263.808 207.612 262.832 207.612C262.232 207.612 261.72 207.9 261.264 208.348L261.88 209.06C262.176 208.74 262.424 208.54 262.72 208.54C263.112 208.54 263.336 208.788 263.336 209.228C263.336 209.732 263.04 210.116 262.24 210.116V210.956C263.184 210.956 263.464 211.308 263.464 211.884C263.464 212.388 263.136 212.636 262.712 212.636C262.344 212.636 262 212.404 261.72 212.036L261.136 212.772C261.496 213.244 262.048 213.596 262.864 213.596ZM267 213.596C268.016 213.596 268.688 212.612 268.688 210.564C268.688 208.524 268.016 207.612 267 207.612C265.992 207.612 265.312 208.524 265.312 210.564C265.312 212.612 265.992 213.596 267 213.596ZM267 212.684C266.688 212.684 266.432 212.236 266.432 210.564C266.432 208.892 266.688 208.516 267 208.516C267.312 208.516 267.568 208.892 267.568 210.564C267.568 212.236 267.312 212.684 267 212.684ZM270.36 215.212C271.32 214.892 271.864 214.156 271.864 213.228C271.864 212.508 271.552 212.068 271.016 212.068C270.6 212.068 270.256 212.332 270.256 212.764C270.256 213.212 270.608 213.476 271 213.476C271.024 213.476 271.048 213.476 271.072 213.476C271.056 213.932 270.712 214.34 270.096 214.564L270.36 215.212ZM275 213.596C276.016 213.596 276.688 212.612 276.688 210.564C276.688 208.524 276.016 207.612 275 207.612C273.992 207.612 273.312 208.524 273.312 210.564C273.312 212.612 273.992 213.596 275 213.596ZM275 212.684C274.688 212.684 274.432 212.236 274.432 210.564C274.432 208.892 274.688 208.516 275 208.516C275.312 208.516 275.568 208.892 275.568 210.564C275.568 212.236 275.312 212.684 275 212.684ZM279 213.596C280.016 213.596 280.688 212.612 280.688 210.564C280.688 208.524 280.016 207.612 279 207.612C277.992 207.612 277.312 208.524 277.312 210.564C277.312 212.612 277.992 213.596 279 213.596ZM279 212.684C278.688 212.684 278.432 212.236 278.432 210.564C278.432 208.892 278.688 208.516 279 208.516C279.312 208.516 279.568 208.892 279.568 210.564C279.568 212.236 279.312 212.684 279 212.684ZM283 213.596C284.016 213.596 284.688 212.612 284.688 210.564C284.688 208.524 284.016 207.612 283 207.612C281.992 207.612 281.312 208.524 281.312 210.564C281.312 212.612 281.992 213.596 283 213.596ZM283 212.684C282.688 212.684 282.432 212.236 282.432 210.564C282.432 208.892 282.688 208.516 283 208.516C283.312 208.516 283.568 208.892 283.568 210.564C283.568 212.236 283.312 212.684 283 212.684Z" fill="#4D4C4D"/>
<path fill-rule="evenodd" clip-rule="evenodd" d="M254 203.355H290V37.5H254V203.355Z" fill="#FBEDCA"/>
<path fill-rule="evenodd" clip-rule="evenodd" d="M254 203.5H290V53.5H254V203.5Z" fill="#F2B819"/>
<path d="M259.87 69.5H264.13V68.28H262.9C262.55 68.28 262.22 68.31 261.83 68.35C262.93 66.93 263.85 65.58 263.85 64.31C263.85 62.99 263.05 62.12 261.87 62.12C260.99 62.12 260.4 62.5 259.79 63.17L260.62 63.99C260.91 63.61 261.26 63.29 261.68 63.29C262.17 63.29 262.43 63.7 262.43 64.39C262.43 65.64 261.42 66.92 259.87 68.66V69.5ZM266.2 71.64C267.4 71.24 268.08 70.32 268.08 69.16C268.08 68.26 267.69 67.71 267.02 67.71C266.5 67.71 266.07 68.04 266.07 68.58C266.07 69.14 266.51 69.47 267 69.47C267.03 69.47 267.06 69.47 267.09 69.47C267.07 70.04 266.64 70.55 265.87 70.83L266.2 71.64ZM270.99 66.57L271.79 64.76C271.93 64.36 272.13 63.8 272.27 63.33H272.31C272.28 63.84 272.26 64.46 272.26 64.91V66.57H270.99ZM274.26 66.57H273.61V62.26H271.71L269.75 66.69V67.7H272.26V69.5H273.61V67.7H274.26V66.57ZM277 69.62C278.36 69.62 279.13 68.78 279.13 67.7C279.13 66.76 278.63 66.19 278.06 65.77V65.73C278.51 65.34 278.89 64.77 278.89 64C278.89 62.91 278.15 62.14 277.03 62.14C275.85 62.14 275.03 62.88 275.03 64.01C275.03 64.76 275.42 65.38 275.88 65.79V65.83C275.32 66.27 274.87 66.76 274.87 67.72C274.87 68.82 275.7 69.62 277 69.62ZM277.22 65.28C276.72 64.99 276.37 64.57 276.37 64C276.37 63.46 276.63 63.17 277 63.17C277.41 63.17 277.66 63.56 277.66 64.08C277.66 64.53 277.51 64.92 277.22 65.28ZM277.01 68.6C276.52 68.6 276.18 68.23 276.18 67.65C276.18 67.08 276.4 66.67 276.68 66.35C277.33 66.77 277.7 67.12 277.7 67.78C277.7 68.29 277.47 68.6 277.01 68.6ZM282 69.62C283.36 69.62 284.13 68.78 284.13 67.7C284.13 66.76 283.63 66.19 283.06 65.77V65.73C283.51 65.34 283.89 64.77 283.89 64C283.89 62.91 283.15 62.14 282.03 62.14C280.85 62.14 280.03 62.88 280.03 64.01C280.03 64.76 280.42 65.38 280.88 65.79V65.83C280.32 66.27 279.87 66.76 279.87 67.72C279.87 68.82 280.7 69.62 282 69.62ZM282.22 65.28C281.72 64.99 281.37 64.57 281.37 64C281.37 63.46 281.63 63.17 282 63.17C282.41 63.17 282.66 63.56 282.66 64.08C282.66 64.53 282.51 64.92 282.22 65.28ZM282.01 68.6C281.52 68.6 281.18 68.23 281.18 67.65C281.18 67.08 281.4 66.67 281.68 66.35C282.33 66.77 282.7 67.12 282.7 67.78C282.7 68.29 282.47 68.6 282.01 68.6Z" fill="#FEFEFE"/>
<mask id="mask0_928_21898" style="mask-type:alpha" maskUnits="userSpaceOnUse" x="28" y="1" width="235" height="113">
<path d="M28.7522 1.13599H262.84V113.767H28.7522V1.13599Z" fill="white"/>
</mask>
<g mask="url(#mask0_928_21898)">
<path fill-rule="evenodd" clip-rule="evenodd" d="M259.632 1.21336L233.461 7.71636C231.5 8.20436 230.832 10.6514 232.274 12.0674L236.285 16.0064C235.968 16.3244 235.643 16.6504 235.304 16.9894C234.724 17.5684 234.112 18.1794 233.471 18.8204C232.809 19.4374 232.115 20.0834 231.393 20.7554C229.946 22.1044 228.383 23.5624 226.711 25.1204C225.87 25.8944 225.022 26.7174 224.112 27.5224C223.195 28.3174 222.252 29.1364 221.283 29.9764C219.344 31.6594 217.305 33.4284 215.177 35.2754C210.783 38.7964 206.102 42.7384 200.879 46.5574C199.586 47.5324 198.277 48.5204 196.95 49.5214C195.593 50.4784 194.22 51.4484 192.831 52.4274C190.046 54.3804 187.224 56.4194 184.239 58.3174C181.273 60.2434 178.296 62.2804 175.159 64.1354C172.044 66.0284 168.919 68.0074 165.658 69.8064C164.039 70.7294 162.414 71.6564 160.783 72.5864C159.156 73.5254 157.472 74.3644 155.812 75.2624C154.144 76.1484 152.472 77.0364 150.799 77.9244L145.7 80.4464C138.909 83.8434 131.948 86.9014 125.046 89.8204C123.318 90.5434 121.575 91.2084 119.851 91.9004C118.119 92.5734 116.415 93.2994 114.683 93.9124C111.231 95.1724 107.832 96.4724 104.434 97.5884C97.6782 99.9524 91.0352 101.905 84.7132 103.711C78.3692 105.421 72.3342 106.956 66.7122 108.148C61.0952 109.367 55.9112 110.352 51.2932 111.093C46.6772 111.864 42.6302 112.392 39.2892 112.784C32.6062 113.558 28.7522 113.689 28.7522 113.689C28.7522 113.689 29.7142 113.737 31.5212 113.759C33.3262 113.77 35.9802 113.785 39.3542 113.667C42.7272 113.556 46.8272 113.367 51.5212 112.982C56.2172 112.627 61.5062 112.074 67.2632 111.322C73.0252 110.595 79.2332 109.559 85.7932 108.368C92.3292 107.081 99.2292 105.665 106.284 103.842C109.831 102.998 113.39 101.969 117.014 100.979C118.831 100.502 120.624 99.9114 122.446 99.3734C124.262 98.8154 126.098 98.2844 127.923 97.6964C135.21 95.3114 142.599 92.7764 149.854 89.8794L155.307 87.7274C157.103 86.9594 158.897 86.1914 160.687 85.4254C162.472 84.6454 164.282 83.9224 166.037 83.0974C167.798 82.2814 169.553 81.4664 171.302 80.6564C174.824 79.0784 178.218 77.3104 181.607 75.6224C185.016 73.9684 188.269 72.1264 191.515 70.3834C194.778 68.6714 197.883 66.8064 200.949 65.0184C202.48 64.1194 203.994 63.2294 205.49 62.3504C206.958 61.4254 208.408 60.5124 209.838 59.6114C215.618 56.0804 220.848 52.3864 225.76 49.0774C228.151 47.3324 230.441 45.6594 232.619 44.0684C233.71 43.2714 234.772 42.4944 235.804 41.7394C236.829 40.9744 237.791 40.1894 238.741 39.4514C240.635 37.9624 242.406 36.5674 244.045 35.2784C244.864 34.6324 245.651 34.0134 246.403 33.4214C247.133 32.8064 247.829 32.2194 248.49 31.6624C249.202 31.0584 249.87 30.4944 250.498 29.9624L254.711 34.0984C256.232 35.5924 258.806 34.7054 259.082 32.5904L262.817 4.05636C263.053 2.25136 261.399 0.775355 259.632 1.21336Z" fill="#DF0716"/>
</g>
<path d="M25.48 55.59C25.13 55.2 24.48 54.68 23.9 54.25C24.33 53.79 24.84 53.15 25.25 52.52L24.23 52.12C24.06 52.43 23.82 52.8 23.56 53.15V51.78H25.39V50.69H24.63L25.43 50.19C25.25 49.85 24.85 49.38 24.48 49.06L23.67 49.54C24.01 49.89 24.37 50.35 24.54 50.69H23.56V49.03H22.39V50.69H20.43V51.78H22.39V54.37C21.61 54.93 20.81 55.47 20.26 55.81L20.8 56.77C21.28 56.44 21.85 56.04 22.39 55.64V57.09C22.39 57.23 22.34 57.29 22.19 57.29C22.05 57.29 21.6 57.29 21.19 57.27C21.33 57.56 21.48 58.02 21.53 58.31C22.26 58.31 22.75 58.29 23.09 58.11C23.44 57.93 23.56 57.66 23.56 57.09V55.3C24 55.68 24.4 56.06 24.64 56.35L25.48 55.59ZM20.58 52.64C20.91 53.18 21.28 53.9 21.41 54.35L22.35 53.89C22.2 53.43 21.82 52.75 21.46 52.24L20.58 52.64ZM28.04 51.97C27.91 52.87 27.72 53.67 27.43 54.38C27.16 53.75 26.95 53.06 26.79 52.35C26.83 52.22 26.87 52.1 26.91 51.97H28.04ZM29.66 51.97V50.87H27.19C27.31 50.32 27.41 49.77 27.49 49.2L26.3 49.04C26.08 50.83 25.66 52.54 24.84 53.59C25.09 53.79 25.56 54.24 25.73 54.47C25.88 54.27 26.02 54.07 26.14 53.83C26.32 54.47 26.53 55.07 26.78 55.63C26.23 56.41 25.5 57 24.51 57.38C24.84 57.64 25.22 58.07 25.4 58.38C26.23 58 26.89 57.47 27.41 56.8C27.83 57.42 28.32 57.95 28.91 58.36C29.1 58.01 29.5 57.54 29.78 57.3C29.11 56.91 28.56 56.35 28.11 55.67C28.63 54.62 28.94 53.36 29.11 51.97H29.66ZM33.38 53.56L32.54 53.78V52.02H33.44V50.92H32.54V49.04H31.45V50.92H30.4V52.02H31.45V54.07C31.01 54.19 30.61 54.29 30.27 54.36L30.45 55.52L31.45 55.22V57.11C31.45 57.24 31.4 57.28 31.28 57.28C31.16 57.29 30.82 57.29 30.45 57.27C30.6 57.59 30.73 58.08 30.76 58.37C31.41 58.38 31.84 58.34 32.14 58.15C32.44 57.96 32.54 57.66 32.54 57.11V54.91C32.87 54.82 33.2 54.72 33.53 54.62L33.38 53.56ZM37.69 55.37C37.51 55.76 37.25 56.09 36.95 56.37C36.53 56.08 36.2 55.75 35.95 55.37H37.69ZM38.37 54.48L38.18 54.51H35.81C35.84 54.38 35.86 54.25 35.89 54.12H39.54V53.16H36.01C36.03 53 36.04 52.85 36.05 52.69H39.25V51.76H38.3C38.56 51.37 38.85 50.91 39.12 50.47L38.02 50.15C38.47 50.09 38.88 50.03 39.26 49.96L38.59 49.07C37.36 49.34 35.31 49.49 33.56 49.55C33.67 49.79 33.79 50.17 33.81 50.43C35.15 50.41 36.69 50.32 38.02 50.15C37.84 50.64 37.52 51.29 37.24 51.76H35.99L36.92 51.55C36.88 51.24 36.76 50.73 36.65 50.34L35.72 50.5C35.82 50.91 35.91 51.43 35.94 51.76H34.79L35.35 51.58C35.26 51.28 35.05 50.8 34.89 50.43L34 50.68C34.13 51.01 34.28 51.45 34.36 51.76H33.74V52.69H34.92C34.9 52.84 34.89 53 34.88 53.16H33.55V54.12H34.75C34.52 55.4 34.01 56.68 32.69 57.49C32.96 57.69 33.3 58.07 33.46 58.35C34.35 57.77 34.92 56.99 35.31 56.15C35.53 56.45 35.78 56.73 36.07 56.96C35.59 57.21 35.04 57.39 34.44 57.51C34.64 57.7 34.96 58.14 35.08 58.39C35.77 58.21 36.42 57.95 36.97 57.61C37.58 57.95 38.29 58.21 39.08 58.38C39.23 58.08 39.53 57.64 39.78 57.41C39.07 57.3 38.43 57.12 37.86 56.87C38.38 56.32 38.76 55.63 39.01 54.74L38.37 54.48ZM43.41 51.92C44 51.54 44.55 51.12 45.03 50.62C45.54 51.09 46.13 51.53 46.76 51.92H43.41ZM47.09 55.12C46.89 55.64 46.52 56.34 46.21 56.79L46.88 57.07H45.63V55.12H47.09ZM44.35 55.12V57.07H42.89L43.71 56.71C43.57 56.27 43.19 55.61 42.84 55.12H44.35ZM47.64 53.01V52.42C48.09 52.64 48.55 52.84 49 53C49.18 52.69 49.55 52.22 49.82 51.96C48.32 51.54 46.7 50.71 45.72 49.83C45.82 49.69 45.91 49.56 46 49.43L44.87 48.92C43.92 50.41 42.12 51.42 40.24 51.96C40.54 52.26 40.87 52.71 41.03 53.06C41.47 52.9 41.9 52.72 42.32 52.52V53.01H44.35V54.05H41.17V55.12H42.62L41.83 55.45C42.16 55.95 42.5 56.61 42.66 57.07H40.69V58.16H49.34V57.07H47.19C47.5 56.64 47.89 56.04 48.24 55.48L47.24 55.12H48.82V54.05H45.63V53.01H47.64Z" fill="#4D4C4D"/>
<path fill-rule="evenodd" clip-rule="evenodd" d="M8 57.5H16V49.5H8V57.5Z" fill="#F2B819"/>
<path d="M136.7 230.96C136.53 231.28 136.31 231.6 136.09 231.9H133.69C133.96 231.59 134.22 231.28 134.45 230.96H136.7ZM132.8 236.28H134.01V232.93H138.21V236.28H139.47V231.9H137.46C137.79 231.43 138.12 230.91 138.35 230.48L137.53 229.95L137.34 230.01H135.08C135.23 229.76 135.37 229.51 135.5 229.27L134.22 229.04C133.7 230.15 132.74 231.45 131.34 232.42C131.63 232.59 132.04 232.99 132.24 233.25C132.43 233.1 132.62 232.94 132.8 232.78V236.28ZM135.5 233.57C135.35 235.78 135.1 236.87 131.42 237.36C131.64 237.61 131.9 238.07 131.99 238.37C136.05 237.72 136.55 236.25 136.73 233.57H135.5ZM136.15 236.75C137.4 237.27 138.72 237.94 139.49 238.38L140.41 237.57C139.57 237.14 138.14 236.49 136.88 235.99L136.15 236.75ZM145.72 231.92C145.62 232.18 145.5 232.4 145.36 232.61C145.07 232.44 144.78 232.29 144.49 232.16L143.83 232.79C144.12 232.94 144.43 233.11 144.74 233.29C144.39 233.57 143.97 233.79 143.5 233.94C143.7 234.09 144.04 234.49 144.17 234.72C144.71 234.52 145.17 234.24 145.58 233.87C145.93 234.11 146.22 234.37 146.45 234.59L147.13 233.88C146.89 233.66 146.55 233.39 146.18 233.13C146.51 232.62 146.77 231.98 146.92 231.18L146.32 231L146.14 231.02H144.31C144.36 230.82 144.39 230.62 144.43 230.41H147.41C147.28 231.05 147.13 231.69 146.99 232.17H148.99C148.9 232.95 148.79 233.3 148.64 233.42C148.56 233.51 148.46 233.53 148.29 233.53C148.09 233.53 147.66 233.52 147.21 233.47C147.39 233.76 147.53 234.17 147.55 234.48C148.05 234.51 148.53 234.5 148.8 234.47C149.13 234.44 149.38 234.36 149.6 234.13C149.88 233.86 150.04 233.16 150.18 231.63C150.2 231.5 150.22 231.21 150.22 231.21H148.36C148.49 230.64 148.62 230 148.74 229.43H141.74V230.41H143.26C143.02 232.05 142.44 233.3 141.32 234.05C141.58 234.24 142.02 234.66 142.19 234.87C143.09 234.15 143.7 233.17 144.08 231.92H145.72ZM143.61 235.74H144.45V237.08H143.61V235.74ZM146.39 235.74V237.08H145.54V235.74H146.39ZM148.34 235.74V237.08H147.48V235.74H148.34ZM149.5 237.08V234.82H142.5V237.08H141.44V238.1H150.56V237.08H149.5ZM154.57 230.5C155.17 230.35 155.74 230.18 156.23 229.98L155.39 229.07C154.42 229.51 152.82 229.88 151.37 230.1C151.51 230.35 151.67 230.76 151.72 231.03C152.25 230.96 152.81 230.87 153.37 230.76V231.99H151.48V233.09H153.16C152.71 234.13 151.97 235.26 151.26 235.95C151.45 236.26 151.75 236.76 151.87 237.12C152.41 236.55 152.93 235.72 153.37 234.82V238.35H154.57V234.75C154.96 235.18 155.38 235.66 155.63 235.97L156.31 234.96C156.05 234.72 155.07 233.84 154.57 233.44V233.09H156.37V231.99H154.57V230.5ZM158.13 230.24H156.94V235.83H158.13V230.24ZM159.07 229.2V236.88C159.07 237.08 158.99 237.13 158.8 237.14C158.6 237.14 157.95 237.14 157.3 237.11C157.48 237.45 157.66 238 157.71 238.35C158.63 238.35 159.29 238.31 159.7 238.11C160.11 237.91 160.25 237.6 160.25 236.89V229.2H159.07Z" fill="#4D4C4D"/>
</g>
<defs>
<clipPath id="clip0_928_21898">
<rect width="291" height="238" fill="white" transform="translate(0 0.5)"/>
</clipPath>
</defs>
</svg>
