<svg width="12" height="24" viewBox="0 0 12 24" fill="none" xmlns="http://www.w3.org/2000/svg">
<path d="M6.20391 4.44C4.54391 4.44 3.22391 5.16 2.26391 6.6C1.28391 8.04 0.803906 9.92 0.803906 12.26C0.803906 14.44 1.24391 16.14 2.16391 17.38C3.08391 18.64 4.42391 19.28 6.18391 19.28C7.60391 19.28 8.80391 18.8 9.76391 17.88C10.7239 16.96 11.2239 15.78 11.2239 14.34C11.2239 12.94 10.8039 11.78 9.96391 10.88C9.12391 9.98 8.00391 9.54 6.60391 9.54C5.88391 9.54 5.24391 9.66 4.68391 9.94C4.08391 10.22 3.58391 10.64 3.18391 11.24H3.08391V11.06C3.08391 9.74 3.34391 8.64 3.90391 7.76C4.46391 6.82 5.22391 6.36 6.18391 6.36C7.54391 6.36 8.38391 7.02 8.66391 8.34H10.9439C10.5839 5.74 9.00391 4.44 6.20391 4.44ZM6.10391 11.44C6.96391 11.44 7.64391 11.7 8.16391 12.24C8.64391 12.76 8.90391 13.46 8.90391 14.34C8.90391 15.22 8.64391 15.94 8.12391 16.5C7.60391 17.06 6.94391 17.34 6.10391 17.34C5.28391 17.34 4.62391 17.08 4.10391 16.56C3.58391 16.04 3.32391 15.32 3.32391 14.42C3.32391 13.5 3.56391 12.76 4.06391 12.24C4.54391 11.7 5.22391 11.44 6.10391 11.44Z" fill="black"/>
</svg>
