<?xml version="1.0" encoding="UTF-8"?>
<svg xmlns="http://www.w3.org/2000/svg" xmlns:xlink="http://www.w3.org/1999/xlink" width="32pt" height="32pt" viewBox="0 0 32 32" version="1.1">
<g id="surface1">
<path style=" stroke:none;fill-rule:nonzero;fill:rgb(100%,100%,100%);fill-opacity:1;" d="M 16 32 C 24.835938 32 32 24.835938 32 16 C 32 7.164062 24.835938 0 16 0 C 7.164062 0 0 7.164062 0 16 C 0 24.835938 7.164062 32 16 32 Z M 16 32 "/>
<path style=" stroke:none;fill-rule:evenodd;fill:rgb(93.72406%,75.292969%,27.450562%);fill-opacity:1;" d="M 20.25 6.925781 C 20.585938 6.648438 20.925781 6.371094 21.261719 6.097656 C 21.253906 6.078125 21.246094 6.0625 21.242188 6.039062 C 21.222656 6.035156 21.199219 6.03125 21.179688 6.023438 C 21.144531 6.015625 21.105469 6.003906 21.070312 6.003906 C 19.378906 6 17.6875 5.996094 16 6 C 15.921875 6 15.832031 6.015625 15.765625 6.054688 C 15.726562 6.074219 15.6875 6.097656 15.648438 6.121094 C 15.453125 6.234375 15.253906 6.347656 15.078125 6.488281 C 14.761719 6.746094 14.390625 6.796875 14.007812 6.800781 C 13.578125 6.804688 13.148438 6.804688 12.722656 6.804688 C 12.292969 6.804688 11.863281 6.804688 11.4375 6.808594 C 11.339844 6.808594 11.21875 6.832031 11.144531 6.886719 C 10.820312 7.113281 10.5 7.34375 10.183594 7.578125 C 10.003906 7.707031 9.824219 7.835938 9.644531 7.964844 C 9.609375 7.996094 9.554688 8.019531 9.507812 8.019531 C 9.410156 8.019531 9.3125 8.019531 9.214844 8.019531 C 8.78125 8.023438 8.347656 8.027344 7.914062 8.011719 C 7.640625 8 7.375 8.015625 7.140625 8.152344 C 7.007812 8.230469 6.855469 8.359375 6.8125 8.496094 C 6.738281 8.734375 6.695312 8.984375 6.648438 9.234375 C 6.625 9.351562 6.605469 9.464844 6.578125 9.582031 C 6.542969 9.765625 6.503906 9.949219 6.464844 10.128906 C 6.429688 10.296875 6.394531 10.460938 6.363281 10.625 C 6.296875 10.945312 6.234375 11.265625 6.171875 11.582031 C 6.148438 11.691406 6.191406 11.75 6.308594 11.75 C 6.921875 11.746094 7.542969 11.742188 8.15625 11.742188 C 9.261719 11.738281 10.367188 11.738281 11.472656 11.738281 C 12.8125 11.738281 14.160156 11.738281 15.507812 11.742188 C 15.980469 11.746094 16.457031 11.746094 16.933594 11.75 C 17.886719 11.757812 18.847656 11.761719 19.804688 11.765625 C 19.898438 11.765625 19.992188 11.765625 20.085938 11.765625 C 20.652344 11.765625 21.222656 11.765625 21.792969 11.75 C 21.953125 11.746094 21.992188 11.820312 21.996094 11.9375 C 22.003906 12.265625 22 12.59375 21.996094 12.917969 C 21.996094 13.058594 21.917969 13.121094 21.773438 13.121094 C 21.355469 13.121094 20.941406 13.121094 20.523438 13.121094 C 20.109375 13.121094 19.691406 13.125 19.277344 13.125 C 18.964844 13.125 18.648438 13.121094 18.335938 13.117188 C 18.125 13.113281 17.914062 13.109375 17.707031 13.109375 C 17.5 13.105469 17.457031 13.148438 17.453125 13.351562 C 17.445312 14.054688 17.433594 14.761719 17.429688 15.464844 C 17.425781 15.984375 17.425781 16.507812 17.429688 17.03125 C 17.433594 17.367188 17.4375 17.703125 17.441406 18.042969 C 17.445312 18.378906 17.449219 18.714844 17.453125 19.054688 C 17.457031 19.304688 17.457031 19.554688 17.457031 19.804688 C 17.457031 20.054688 17.457031 20.308594 17.457031 20.558594 C 17.457031 20.777344 17.535156 20.851562 17.746094 20.839844 C 17.800781 20.839844 17.851562 20.835938 17.90625 20.832031 C 18.007812 20.824219 18.113281 20.820312 18.214844 20.820312 C 19.386719 20.8125 20.558594 20.804688 21.730469 20.800781 C 21.925781 20.800781 22 20.878906 22.003906 21.074219 C 22.003906 21.140625 22.003906 21.203125 22.007812 21.265625 C 22.007812 21.464844 22.011719 21.660156 22.011719 21.859375 C 22.003906 22.160156 21.972656 22.1875 21.671875 22.183594 C 21.394531 22.179688 21.117188 22.179688 20.84375 22.175781 C 20.023438 22.171875 19.203125 22.164062 18.382812 22.164062 C 17.878906 22.164062 17.378906 22.167969 16.875 22.171875 C 16.371094 22.175781 15.867188 22.179688 15.363281 22.179688 C 14.359375 22.183594 13.359375 22.179688 12.355469 22.179688 C 11.855469 22.179688 11.355469 22.179688 10.851562 22.179688 C 10.558594 22.179688 10.269531 22.179688 9.976562 22.183594 C 9.277344 22.1875 8.578125 22.191406 7.878906 22.171875 C 7.277344 22.160156 6.875 22.464844 6.53125 22.894531 C 6.195312 23.3125 6.109375 23.824219 6.023438 24.335938 C 5.976562 24.640625 6.011719 24.9375 6.046875 25.230469 C 6.066406 25.402344 6.085938 25.574219 6.089844 25.746094 C 6.09375 25.921875 6.203125 25.996094 6.378906 25.996094 C 6.574219 26 6.765625 26.003906 6.957031 26.003906 L 6.964844 26.003906 C 11.890625 26.003906 16.816406 26.003906 21.742188 26 C 21.832031 26 21.921875 26 22.007812 25.988281 C 22.507812 25.90625 22.992188 25.777344 23.449219 25.550781 C 23.976562 25.296875 24.421875 24.949219 24.796875 24.503906 C 25.214844 24.007812 25.464844 23.429688 25.609375 22.796875 C 25.800781 21.996094 25.78125 21.195312 25.667969 20.394531 C 25.578125 19.78125 25.34375 19.210938 25 18.691406 C 24.671875 18.195312 24.273438 17.789062 23.753906 17.496094 C 23.640625 17.429688 23.523438 17.351562 23.441406 17.253906 C 23.15625 16.917969 23.234375 16.445312 23.574219 16.253906 C 24.136719 15.929688 24.617188 15.53125 24.996094 14.996094 C 25.367188 14.46875 25.625 13.894531 25.695312 13.257812 C 25.75 12.753906 25.746094 12.234375 25.71875 11.726562 C 25.667969 10.8125 25.34375 9.984375 24.734375 9.300781 C 23.894531 8.363281 22.808594 7.898438 21.5625 7.816406 C 21.167969 7.789062 20.769531 7.796875 20.371094 7.804688 C 20.191406 7.804688 20.015625 7.808594 19.835938 7.808594 L 19.242188 7.808594 C 19.242188 7.800781 19.238281 7.792969 19.238281 7.78125 C 19.238281 7.773438 19.238281 7.765625 19.238281 7.757812 C 19.574219 7.480469 19.910156 7.203125 20.25 6.925781 Z M 15.875 20.554688 L 15.875 16.953125 C 15.875 16.652344 15.875 16.347656 15.875 16.046875 C 15.875 15.144531 15.875 14.238281 15.878906 13.332031 C 15.878906 13.160156 15.820312 13.105469 15.65625 13.105469 C 15.363281 13.109375 15.070312 13.105469 14.777344 13.105469 C 14.480469 13.101562 14.1875 13.101562 13.894531 13.101562 C 13.484375 13.105469 13.070312 13.109375 12.660156 13.113281 C 12.144531 13.117188 11.632812 13.125 11.117188 13.125 C 9.605469 13.121094 8.089844 13.109375 6.578125 13.097656 C 6.351562 13.097656 6.3125 13.128906 6.3125 13.359375 C 6.3125 13.777344 6.3125 14.195312 6.3125 14.613281 C 6.3125 15.03125 6.3125 15.453125 6.3125 15.871094 C 6.3125 15.980469 6.359375 16.039062 6.464844 16.042969 C 6.578125 16.046875 6.6875 16.046875 6.800781 16.042969 C 6.855469 16.042969 6.910156 16.042969 6.96875 16.042969 L 12.15625 16.042969 C 12.375 16.042969 12.433594 16.109375 12.429688 16.339844 C 12.425781 16.550781 12.429688 16.757812 12.433594 16.964844 C 12.433594 17.035156 12.433594 17.105469 12.4375 17.175781 C 12.441406 17.324219 12.363281 17.425781 12.238281 17.425781 L 11.589844 17.425781 C 11.035156 17.421875 10.484375 17.421875 9.929688 17.421875 C 8.828125 17.417969 7.726562 17.414062 6.625 17.414062 C 6.316406 17.414062 6.316406 17.425781 6.320312 17.726562 L 6.320312 17.917969 C 6.320312 18.804688 6.320312 19.695312 6.316406 20.589844 C 6.316406 20.742188 6.378906 20.792969 6.527344 20.792969 C 6.984375 20.796875 7.441406 20.800781 7.894531 20.804688 C 8.65625 20.816406 9.417969 20.824219 10.175781 20.828125 C 11.253906 20.832031 12.328125 20.828125 13.40625 20.828125 C 13.945312 20.828125 14.480469 20.828125 15.019531 20.828125 C 15.195312 20.828125 15.371094 20.828125 15.542969 20.847656 C 15.808594 20.878906 15.875 20.828125 15.875 20.554688 Z M 15.875 20.554688 "/>
</g>
</svg>
