<svg width="32" height="32" viewBox="0 0 32 32" fill="none" xmlns="http://www.w3.org/2000/svg">
<path d="M26.7143 1H5.28571C2.91878 1 1 2.91878 1 5.28571V26.7143C1 29.0812 2.91878 31 5.28571 31H26.7143C29.0812 31 31 29.0812 31 26.7143V5.28571C31 2.91878 29.0812 1 26.7143 1Z" fill="white"/>
<path fill-rule="evenodd" clip-rule="evenodd" d="M12.6819 3L19.0172 4.26706L18.6732 10.7727C18.6696 10.7595 18.6661 10.746 18.6626 10.7322C18.4046 9.66839 18.0743 8.62529 17.7336 7.58218C17.6614 7.34464 17.4755 7.12775 17.3001 6.95218C16.9801 6.63202 16.5259 6.70431 16.2885 7.08644C16.2713 7.11511 16.254 7.14377 16.2367 7.17246C16.0671 7.45387 15.896 7.73764 15.793 8.04693C15.6128 8.56576 15.45 9.08749 15.2877 9.60752C15.1431 10.0709 14.999 10.5329 14.8433 10.9904C14.7814 11.1659 14.6059 11.3828 14.4407 11.4344C14.0947 11.5324 13.7451 11.6208 13.3948 11.7074L12.6819 3ZM14.2507 22.1624L14.8105 29L17.8515 26.3138L18.16 20.4796C17.8587 20.0615 17.5556 19.642 17.2485 19.2216C17.2001 19.2539 17.1533 19.2814 17.1093 19.3073C17.0406 19.3477 16.9788 19.3841 16.9285 19.4282C16.656 19.7081 16.3862 19.992 16.1163 20.276C15.6292 20.7885 15.1416 21.3015 14.6369 21.7932C14.5093 21.9172 14.3806 22.0403 14.2507 22.1624Z" fill="#FCE144"/>
<path fill-rule="evenodd" clip-rule="evenodd" d="M18.6688 10.7733C18.6651 10.7599 18.6615 10.7462 18.658 10.7321C18.4 9.66835 18.0696 8.62524 17.729 7.58213C17.6567 7.34459 17.4709 7.12771 17.2955 6.95214C16.9755 6.63197 16.5213 6.70427 16.2839 7.0864C16.2667 7.11506 16.2494 7.14373 16.2321 7.17242C16.0625 7.45383 15.8914 7.7376 15.7884 8.04688C15.6082 8.56572 15.4454 9.08744 15.2831 9.60747C15.1385 10.0708 14.9944 10.5329 14.8387 10.9903C14.7768 11.1659 14.6013 11.3828 14.4361 11.4344C14.0902 11.5323 13.7406 11.6207 13.3904 11.7073L14.2463 22.1622C14.3761 22.0401 14.5048 21.9171 14.6323 21.7932C15.137 21.3015 15.6246 20.7884 16.1117 20.276C16.3816 19.9919 16.6514 19.708 16.9239 19.4281C16.9742 19.3841 17.036 19.3477 17.1047 19.3073C17.1487 19.2814 17.1955 19.2538 17.2438 19.2216C17.5511 19.642 17.8542 20.0617 18.1556 20.4798L18.6688 10.7733Z" fill="#189A7A"/>
<path fill-rule="evenodd" clip-rule="evenodd" d="M13.3891 11.7073L14.2451 22.1622C13.6285 22.7422 12.9875 23.3024 12.3394 23.8484C11.1833 24.8192 10.0168 25.7797 8.82973 26.7195C8.49941 26.9777 8.09683 27.1636 7.70458 27.3392C7.17813 27.5664 6.86845 27.3495 7.05426 26.8125C7.35361 25.9036 7.67361 24.9844 8.15877 24.1686C9.33886 22.1957 10.5622 20.25 11.7857 18.3038C12.2532 17.5603 12.7207 16.8167 13.1858 16.0716C13.2259 16.0014 13.2684 15.9312 13.318 15.8493C13.3707 15.7623 13.4314 15.6621 13.5058 15.5345C13.2023 15.5143 12.912 15.4995 12.631 15.4853C12.0518 15.4559 11.512 15.4285 10.9768 15.3589C10.0065 15.235 9.0465 15.0698 8.09683 14.8322C7.82845 14.7703 7.47748 14.4501 7.42587 14.1919C7.38458 13.9957 7.72522 13.6032 7.97296 13.4999C9.07747 13.0455 10.2026 12.6117 11.3484 12.2503C11.9335 12.0651 12.5323 11.9179 13.131 11.7708C13.217 11.7497 13.3031 11.7285 13.3891 11.7073Z" fill="#1580C3"/>
<path fill-rule="evenodd" clip-rule="evenodd" d="M18.1484 20.4811C18.2245 20.5866 18.3004 20.692 18.3762 20.7972C19.0701 21.7606 19.7576 22.7151 20.4667 23.6522C20.9507 24.3012 21.527 24.8988 22.0934 25.4861L22.0977 25.4905C22.2112 25.6145 22.5003 25.6971 22.6448 25.6351C22.7686 25.5835 22.8925 25.2943 22.8719 25.1291C22.8456 24.9045 22.8226 24.6788 22.7997 24.453C22.7234 23.7028 22.647 22.9517 22.4486 22.2373C21.9178 20.3467 21.3241 18.4797 20.7293 16.6089C20.6417 16.3335 20.5541 16.058 20.4667 15.7824C20.3325 15.359 20.4358 15.1937 20.8383 15.0078C22.1287 14.4191 23.419 13.7995 24.668 13.1282C25.0706 12.9113 25.5454 12.5705 25.4215 12.0024C25.3175 11.5252 24.8929 11.4489 24.4844 11.3755C24.4066 11.3615 24.3294 11.3476 24.2551 11.3311C24.2344 11.3208 24.2241 11.3208 24.2035 11.3208L24.2034 11.3208C22.5725 11.2898 20.9416 11.2588 19.3106 11.2485C18.9228 11.2485 18.7649 11.1527 18.6616 10.7764L18.4877 14.0643L18.4742 14.3192L18.1484 20.4811Z" fill="#189A7A"/>
</svg>
