<?xml version="1.0" encoding="UTF-8"?>
<svg xmlns="http://www.w3.org/2000/svg" xmlns:xlink="http://www.w3.org/1999/xlink" width="32pt" height="32pt" viewBox="0 0 32 32" version="1.1">
<defs>
<clipPath id="clip1">
  <path d="M 16 32 C 24.835938 32 32 24.835938 32 16 C 32 7.164062 24.835938 0 16 0 C 7.164062 0 0 7.164062 0 16 C 0 24.835938 7.164062 32 16 32 Z M 16 32 "/>
</clipPath>
<clipPath id="clip2">
  <path d="M 6 3 L 26 3 L 26 30 L 6 30 Z M 6 3 "/>
</clipPath>
<clipPath id="clip3">
  <path d="M 25.277344 16.921875 C 25.035156 16.011719 24.6875 15.339844 24.132812 14.316406 C 23.945312 14.019531 23.707031 13.695312 23.496094 13.351562 C 21.058594 9.734375 16.253906 3.429688 15.8125 3.027344 L 15.757812 3 L 15.703125 3.027344 C 15.261719 3.429688 10.449219 9.734375 8.015625 13.351562 C 7.804688 13.695312 7.566406 14.019531 7.382812 14.316406 C 6.824219 15.339844 6.480469 16.011719 6.234375 16.921875 C 5.9375 18.230469 5.921875 19.863281 6.195312 21.203125 C 6.441406 22.382812 7.558594 23.585938 8.683594 24.484375 L 10.40625 25.847656 C 10.40625 25.847656 15.214844 29.316406 15.660156 29.542969 L 15.757812 29.566406 L 15.851562 29.542969 C 16.296875 29.316406 21.109375 25.847656 21.109375 25.847656 L 22.832031 24.484375 C 23.957031 23.585938 25.074219 22.382812 25.316406 21.203125 C 25.59375 19.863281 25.578125 18.230469 25.277344 16.921875 Z M 14.25 25.96875 L 14.085938 26 C 13.800781 25.804688 13.105469 25.300781 13.105469 25.300781 C 11.90625 24.410156 10.695312 23.589844 9.550781 22.679688 C 7.785156 20.738281 7.964844 18.800781 8.507812 16.859375 C 8.527344 16.734375 8.585938 16.542969 8.746094 16.507812 C 9.246094 17.242188 10.296875 18.75 10.296875 18.75 C 11.324219 20.226562 12.570312 21.554688 13.746094 22.9375 C 14.558594 23.679688 14.226562 24.929688 14.25 25.96875 Z M 15.757812 22.125 L 15.660156 22.070312 C 14.136719 20.261719 12.40625 18.222656 10.886719 16.40625 C 10.613281 15.949219 10.332031 15.503906 10.304688 14.914062 C 10.28125 14.449219 10.253906 14.023438 10.636719 13.449219 C 10.636719 13.449219 10.890625 13.078125 10.957031 12.96875 C 10.957031 12.96875 14.074219 8.597656 15.710938 6.523438 L 15.757812 6.496094 L 15.800781 6.523438 C 17.4375 8.597656 20.546875 12.96875 20.546875 12.96875 C 20.621094 13.078125 20.875 13.449219 20.875 13.449219 C 21.253906 14.023438 21.230469 14.449219 21.207031 14.914062 C 21.179688 15.503906 20.898438 15.949219 20.625 16.40625 C 19.105469 18.222656 17.375 20.261719 15.851562 22.070312 Z M 21.953125 22.679688 C 20.804688 23.589844 19.597656 24.410156 18.398438 25.300781 C 18.398438 25.300781 17.703125 25.804688 17.421875 26 L 17.25 25.96875 C 17.273438 24.929688 16.949219 23.679688 17.757812 22.9375 C 18.933594 21.554688 20.179688 20.226562 21.203125 18.75 C 21.203125 18.75 22.257812 17.238281 22.753906 16.507812 C 22.921875 16.542969 22.976562 16.734375 23 16.859375 C 23.539062 18.800781 23.71875 20.738281 21.953125 22.679688 Z M 21.953125 22.679688 "/>
</clipPath>
</defs>
<g id="surface1">
<g clip-path="url(#clip1)" clip-rule="evenodd">
<rect x="0" y="0" width="32" height="32" style="fill:rgb(100%,100%,100%);fill-opacity:1;stroke:none;"/>
</g>
<g clip-path="url(#clip2)" clip-rule="nonzero">
<g clip-path="url(#clip3)" clip-rule="nonzero">
<path style=" stroke:none;fill-rule:nonzero;fill:rgb(11.764526%,24.705505%,60.00061%);fill-opacity:1;" d="M 1 -2 L 30.515625 -2 L 30.515625 34.566406 L 1 34.566406 Z M 1 -2 "/>
</g>
</g>
</g>
</svg>
