<svg width="32" height="32" viewBox="0 0 32 32" fill="none" xmlns="http://www.w3.org/2000/svg">
<g clip-path="url(#clip0_3270_28703)">
<path d="M28 5H4C2.34315 5 1 6.34315 1 8V23.4286C1 25.0854 2.34315 26.4286 4 26.4286H28C29.6569 26.4286 31 25.0854 31 23.4286V8C31 6.34315 29.6569 5 28 5Z" fill="#025AC7"/>
<mask id="mask0_3270_28703" style="mask-type:alpha" maskUnits="userSpaceOnUse" x="4" y="6" width="23" height="20">
<path d="M14.8518 24.0392C14.9185 23.9772 14.9636 23.9899 14.9999 24.0691C14.987 24.1648 14.9908 24.2673 14.9573 24.3551C14.919 24.4563 14.8576 24.5645 14.7158 24.4828C14.6972 24.4376 14.6576 24.4296 14.6194 24.4187C14.6325 24.4329 14.6413 24.4495 14.642 24.4711L14.6521 24.7358C14.6063 24.795 14.5682 24.8705 14.4733 24.8228C14.3194 24.7758 14.2771 24.9764 14.1457 24.9798C14.127 24.9926 14.1111 24.9986 14.0973 24.9998L14.0664 25.0591L14.0399 25.1129C14.0333 25.1585 14.0129 25.183 13.9788 25.1859C13.942 25.1889 13.911 25.1691 13.8861 25.1259L13.9074 25.154C13.8565 25.2033 13.8021 25.2475 13.7402 25.2869L13.6322 25.3469C13.5963 25.3969 13.5603 25.447 13.524 25.497C13.497 25.5386 13.4822 25.5861 13.423 25.6126C13.3955 25.6253 13.3657 25.633 13.3336 25.6362C13.3303 25.636 13.329 25.6343 13.3257 25.6338C13.3447 25.6515 13.3578 25.6708 13.3666 25.6913C13.3951 25.6801 13.4249 25.6725 13.4579 25.6723C13.5057 25.6469 13.5536 25.6216 13.6014 25.596L13.6199 25.6851C13.5369 25.7526 13.4542 25.8201 13.3712 25.8877C13.3278 25.8936 13.304 25.9135 13.2968 25.9449C13.2541 25.9503 13.2287 25.9689 13.2201 26H13.0022L12.9999 25.8383C13.0475 25.7971 13.0953 25.7558 13.1432 25.7146C13.142 25.699 13.1432 25.6832 13.1466 25.6676C13.1896 25.6431 13.2331 25.6185 13.276 25.5939C13.2906 25.5488 13.3049 25.5035 13.3195 25.4585C13.3405 25.4585 13.3592 25.4538 13.3759 25.4444C13.4195 25.3893 13.4503 25.3187 13.5469 25.324C13.5319 25.3136 13.518 25.3024 13.5069 25.2893C13.5048 25.2839 13.5064 25.2793 13.5057 25.2744C13.4387 25.2931 13.3717 25.3119 13.3047 25.3308C13.2539 25.1548 13.4008 25.1977 13.53 25.2208C13.6062 25.2147 13.6619 25.1884 13.7105 25.1552L13.8485 25.0477L13.9268 25.0029C13.9326 25.002 13.938 25.0013 13.9431 25.0009C13.973 24.9478 14.012 24.9035 14.0402 24.8454C14.0454 24.8473 14.0503 24.8497 14.0548 24.8527L14.0547 24.8138C14.059 24.8146 14.0631 24.8159 14.067 24.8174C14.1147 24.8095 14.1434 24.7817 14.1522 24.7332C14.1981 24.7254 14.2306 24.7021 14.2391 24.6515C14.3137 24.6141 14.3673 24.5554 14.4033 24.4791C14.4708 24.4783 14.4857 24.3753 14.5607 24.3891C14.5597 24.388 14.5579 24.388 14.5569 24.387L14.5665 24.3896C14.4998 24.2276 14.6425 24.1975 14.7214 24.1275C14.7652 24.0987 14.8138 24.0748 14.8518 24.0392ZM13.9092 24C13.9397 24.0303 13.9696 24.0604 13.9999 24.0904C13.9938 24.1407 13.9883 24.191 13.9825 24.2415C13.8913 24.3001 13.8515 24.3933 13.8167 24.4901C13.7713 24.5002 13.7436 24.5272 13.7355 24.5737C13.6874 24.582 13.6625 24.6123 13.6547 24.6591C13.505 24.7705 13.4049 24.9682 13.1734 24.9362C13.1741 24.9574 13.1696 24.9768 13.1593 24.995L13.12 24.9844L13.0791 24.9872C13.0108 25.0147 12.9824 24.9998 13.0108 24.9233C13.0255 24.8452 13.0867 24.8308 13.1502 24.8192C13.1628 24.7722 13.1968 24.7467 13.2399 24.7298C13.4017 24.4299 13.6753 24.2332 13.9092 24ZM18.935 22C19.054 22.0936 18.9725 22.1843 18.9749 22.2698C18.9341 22.314 18.8408 22.2971 18.8061 22.3482C18.775 22.3616 18.7654 22.3808 18.7778 22.4061C18.7599 22.4324 18.731 22.4445 18.692 22.4447C18.6775 22.438 18.67 22.4291 18.6628 22.4201C18.6621 22.4358 18.6634 22.4514 18.6588 22.4673C18.6036 22.5412 18.6827 22.6449 18.5674 22.7054C18.552 22.7413 18.5176 22.7652 18.4756 22.7845C18.453 22.8151 18.4167 22.8374 18.3869 22.8631C18.3603 22.8841 18.331 22.9017 18.2987 22.9167L18.2909 22.9189L18.2728 23C18.2172 22.9987 18.1614 22.9973 18.1061 22.996C18.1043 22.9835 18.0998 22.9716 18.0968 22.9596C18.0907 22.96 18.0853 22.9616 18.0793 22.962C18.0391 22.9567 18.0129 22.9397 17.9999 22.9111C18.0071 22.8738 18.0138 22.8365 18.021 22.7994L18.5834 22.2732C18.6537 22.149 18.798 22.0813 18.935 22ZM21.1222 19C21.1832 19.1462 21.1563 19.2776 21.1606 19.4008C21.133 19.4614 21.1277 19.531 21.1357 19.6072C21.078 19.6508 21.0196 19.6865 20.9562 19.6601L20.96 19.7825C20.9619 19.8789 20.9782 20.0169 20.8994 19.9983C20.8441 19.9851 20.8203 19.8723 20.8492 19.7584C20.8584 19.7223 20.8735 19.6923 20.8862 19.6597C20.9366 19.4031 21.0243 19.2006 21.1222 19ZM24.9002 17.5113C24.9131 17.4184 24.8877 17.2995 24.955 17.2433C24.9558 17.1802 24.9833 17.1446 25.0068 17.1048C25.0369 16.9903 25.01 16.8988 24.9817 16.8076L24.9704 16.8039C24.8431 16.8786 24.7127 17.052 24.596 16.7754C24.5851 16.7394 24.5745 16.7021 24.5644 16.6654L24.5669 16.6664L24.5962 16.6626C24.6037 16.5855 24.5792 16.5529 24.5383 16.5423L24.5174 16.4952C24.4675 16.386 24.4595 16.4104 24.3903 16.627C24.4091 16.6301 24.4281 16.6335 24.4473 16.6373C24.4346 16.6568 24.423 16.6801 24.4109 16.7024C24.3575 16.7864 24.3308 16.9087 24.2683 16.978C24.2523 17.0277 24.2303 17.0661 24.1993 17.0883C24.1443 17.3067 24.0088 17.3773 23.918 17.5298L23.9269 17.5147C23.8424 17.6539 23.8454 17.4774 23.8142 17.4249L23.8165 17.4373C23.7392 17.1802 23.7598 16.75 23.4688 16.8714C23.4362 16.9324 23.4504 17.0476 23.3903 17.0767C23.3802 17.1281 23.3672 17.1298 23.3507 17.0794C23.3082 17.0623 23.2704 17.0328 23.2475 16.9639C23.2325 16.9015 23.2536 16.8381 23.2457 16.7751C23.2307 16.9207 23.1354 16.9204 23.0932 17.016C23.021 17.1346 23.0564 17.368 22.9382 17.4373C22.8258 17.7225 22.8037 18.2462 22.4698 17.9463C22.4631 17.9244 22.4562 17.9055 22.4494 17.8877C22.4599 17.8843 22.4702 17.8829 22.4807 17.8771C22.4783 17.7533 22.5105 17.5747 22.4435 17.5247C22.3553 17.4585 22.29 17.5905 22.2509 17.7334C22.238 17.7811 22.2182 17.8239 22.2016 17.8688C22.2259 17.8743 22.2503 17.8812 22.2746 17.887C22.2687 17.9014 22.2631 17.9144 22.2574 17.9316C22.1998 18.0426 22.1413 18.1523 22.0564 18.2041C22.0256 18.2997 21.9789 18.3703 21.9285 18.434C21.9221 18.4995 21.8974 18.5376 21.8618 18.5585L21.8689 18.5475C21.6721 18.3429 21.378 18.528 21.2378 18.0964C21.2372 18.0704 21.2394 18.0436 21.2421 18.0169H21.2129C21.2115 18.0892 21.1919 18.13 21.1458 18.1252C21.1585 18.2366 21.169 18.3473 21.1361 18.4556L21.0902 18.6853C21.0685 18.6997 21.0608 18.7261 21.0669 18.7641C21.0376 18.8371 21.0084 18.9102 20.9763 18.9904C20.9464 18.7086 20.9464 18.7086 21.0714 18.3336C21.0703 18.24 21.1067 18.1814 21.1393 18.1187L21.1546 18.0483C21.1638 18.0158 21.1782 17.9923 21.2107 18.0001C21.2226 17.9785 21.2348 17.9682 21.2471 17.9706C21.2603 17.8561 21.272 17.743 21.1589 17.6892C21.0317 17.6289 20.9563 17.7101 20.8832 17.8812C20.6527 18.421 20.3752 18.9012 20.183 19.4898C20.1403 19.6197 20.0825 19.73 19.9935 19.7767L19.9931 19.7756C19.9921 19.7777 19.9919 19.778 19.9913 19.7784C19.9668 19.8833 19.9061 19.9402 19.8742 20.0351C19.8551 20.0773 19.8317 20.1129 19.811 20.153C19.7692 20.212 19.7819 20.3172 19.7429 20.3775L19.7073 20.4569C19.6757 20.5432 19.6524 20.6411 19.5928 20.6874C19.5784 20.7724 19.5924 20.8838 19.5198 20.9153L19.5271 20.9027C19.2609 21.0404 19.2736 20.6651 19.2918 20.4547C19.3295 20.0135 19.3347 19.7496 19.0137 20.0454C18.9579 20.0968 18.8972 20.031 18.8772 19.9419C18.7861 19.5421 18.7105 19.6642 18.6349 19.8329L18.597 19.9189L18.5779 19.9607C18.4949 20.1369 18.4124 20.3158 18.2668 20.3494C18.2389 20.3498 18.2134 20.3388 18.1893 20.3203C18.1753 20.3409 18.1612 20.3611 18.147 20.3816C18.122 20.3391 18.0967 20.2966 18.0714 20.2545C18.0706 20.2223 18.0744 20.1924 18.0835 20.1643C18.0977 20.1626 18.1116 20.1582 18.1254 20.154C18.1254 20.1458 18.1242 20.1383 18.1246 20.1297C18.1256 20.1235 18.127 20.1174 18.128 20.1112C18.1104 20.0687 18.0971 20.0224 18.0878 19.9731C18.0746 20.0296 18.0566 20.0817 18.034 20.129C17.8531 20.4906 17.6988 20.8855 17.5301 21.2626L17.5364 21.2523C17.5083 21.3561 17.446 21.3404 17.3958 21.3678C17.2457 21.5481 17.1133 21.7627 16.9798 21.9755C16.9731 21.9673 16.9642 21.9604 16.9531 21.9584C16.9278 21.9597 16.9023 21.9608 16.877 21.9618C16.873 21.9824 16.872 22.0029 16.873 22.0232C16.8712 22.0228 16.8695 22.0232 16.8677 22.0228C16.7241 21.9107 16.5781 21.9587 16.4318 22.005C16.3831 21.9687 16.3722 21.898 16.373 21.8172C16.378 21.7678 16.3898 21.7225 16.4053 21.6811C16.4413 21.5769 16.4424 21.4751 16.3805 21.4017C16.336 21.3496 16.3062 21.4158 16.2791 21.4689C16.2195 21.6033 16.1677 21.7479 16.0878 21.8525L16.0842 21.8621C16.034 21.9032 16.0532 22.0225 16.0043 22.0646L16.0064 22.059L16.0043 22.0646L15.9782 22.1143L15.9446 22.1654C15.9416 22.2038 15.9387 22.2425 15.9361 22.2813C15.8993 22.2991 15.875 22.3344 15.8768 22.405C15.8265 22.452 15.8137 22.5352 15.8038 22.6213C15.7654 22.6401 15.7504 22.6871 15.7486 22.7512L15.4327 23.2256L15.4284 23.215L15.4262 23.2223L15.4238 23.2293C15.4254 23.2838 15.4056 23.312 15.3783 23.3253C15.3758 23.3284 15.3734 23.3315 15.371 23.3346C15.3663 23.339 15.3617 23.3401 15.357 23.3428C15.3544 23.3716 15.3518 23.4007 15.3495 23.4295C15.3325 23.4412 15.3149 23.4453 15.2971 23.446C15.2953 23.4833 15.2915 23.5135 15.2824 23.542C15.2739 23.5474 15.2652 23.5502 15.2565 23.5546C15.2526 23.568 15.247 23.5797 15.244 23.5941C15.228 23.6777 15.1837 23.7147 15.1473 23.7647C15.1244 23.8004 15.1036 23.8405 15.0726 23.8573C15.0571 23.9046 15.0385 23.9063 15.0168 23.8669C14.9608 23.7942 14.9019 23.8624 14.8419 23.8662C14.6809 23.8755 14.6631 23.7521 14.7626 23.5557C14.7978 23.4511 14.7585 23.3044 14.816 23.2012C14.8483 23.1557 14.8328 23.1015 14.822 23.0484C14.8273 23.0155 14.835 22.9832 14.837 22.9497C14.8378 22.9359 14.8267 22.9202 14.821 22.9051C14.8823 22.7412 14.8006 22.5147 14.9023 22.369C14.9137 22.3625 14.9248 22.3604 14.9359 22.3584C14.9422 22.2885 14.9327 22.1945 14.9992 22.2199C15.0419 22.2364 15.0273 22.3265 15.0188 22.3951C15.0548 22.4646 15.0399 22.5764 15.0771 22.6453L15.0754 22.64C15.0939 22.6615 15.1105 22.6855 15.1242 22.714L15.1424 22.7604C15.1851 22.8081 15.2324 22.8043 15.28 22.8002C15.2828 22.7879 15.2876 22.7769 15.2895 22.7632C15.335 22.7615 15.3514 22.7145 15.3528 22.6449L15.441 22.5243C15.4393 22.5174 15.4375 22.513 15.4357 22.5061C15.4163 22.2336 15.5724 21.9964 15.4917 21.7116C15.4581 21.701 15.4373 21.6574 15.4128 21.6235C15.3105 21.5388 15.249 21.3788 15.1681 21.2567C15.0093 21.0185 14.8855 21.0356 14.7927 21.3736L14.8004 21.3626C14.8 21.4302 14.7705 21.4655 14.7452 21.5049L14.7074 21.6009C14.682 21.6672 14.6583 21.7349 14.6453 21.8124C14.6287 21.9001 14.6151 21.9906 14.5817 22.066C14.5654 22.1003 14.5457 22.1298 14.5247 22.1558C14.5051 22.1832 14.4845 22.2089 14.4646 22.236C14.4561 22.2521 14.4468 22.2669 14.4383 22.2833C14.4234 22.3196 14.4078 22.355 14.3928 22.3916C14.376 22.4354 14.3581 22.4776 14.338 22.5163L14.3583 22.4881L14.3862 22.4555C14.4702 22.3769 14.5453 22.289 14.6556 22.2372C14.6822 22.2315 14.7083 22.2339 14.7335 22.2422C14.7541 22.2051 14.7747 22.168 14.7953 22.1309L14.8668 22.0605C14.8929 22.0485 14.9175 22.0345 14.9407 22.0183C14.9599 21.9943 14.9797 21.9939 14.9999 22.0173L14.9934 22.0133L14.9936 22.1266C14.955 22.1353 14.9365 22.1585 14.9351 22.194C14.884 22.2353 14.8331 22.2767 14.782 22.3178C14.7822 22.319 14.7828 22.3197 14.783 22.3208C14.7802 22.3638 14.7691 22.4042 14.7382 22.4384C14.6943 22.5312 14.6513 22.6228 14.5556 22.6813C14.549 22.7001 14.5423 22.7193 14.5352 22.7383C14.3904 22.8812 14.2572 23.0457 14.0001 22.9883L14.026 22.9914C14.029 23.01 14.029 23.0296 14.0259 23.0503C13.9859 23.0519 13.9616 23.0321 13.9755 22.9587C13.9885 22.9603 14.0014 22.9571 14.0136 22.9496L14.0011 22.9511C14.0152 22.8064 14.1452 22.731 14.2441 22.637C14.1502 22.7136 14.0545 22.7799 13.9517 22.8132C13.9485 22.791 13.9495 22.7704 13.9489 22.7498C13.9252 22.7491 13.9017 22.7488 13.8783 22.7484C13.8754 22.746 13.8728 22.7467 13.87 22.745C13.8455 22.5897 13.9268 22.4269 13.8841 22.2727C13.8896 22.2357 13.8904 22.1952 13.8829 22.1486L13.8983 22.1116L13.8831 22.0742C13.8706 22.0972 13.8578 22.1202 13.8453 22.1431C13.8415 22.1164 13.839 22.0896 13.838 22.0619C13.8423 21.9347 13.873 21.8209 13.9007 21.7058C13.9501 21.4768 14.0166 21.2619 14.0939 21.0566C14.12 20.9794 14.1475 20.903 14.1693 20.8228C14.1546 20.8471 14.1416 20.8752 14.1343 20.9157L14.0723 21.1037C14.0308 21.2287 13.983 21.3447 13.894 21.4021C13.7519 21.5666 13.6754 21.8096 13.6159 22.0725C13.553 22.1003 13.5423 22.1867 13.536 22.2782C13.499 22.2967 13.4752 22.332 13.4774 22.4033L13.4167 22.5257L13.3556 22.6028C13.3585 22.611 13.3625 22.6158 13.3649 22.6251C13.3718 22.6717 13.3625 22.707 13.3394 22.7313C13.3257 22.7752 13.3107 22.8177 13.2941 22.8588C13.2765 22.8746 13.2699 22.8993 13.2743 22.9325C13.2466 23.0528 13.2005 23.0353 13.1503 22.988C13.1507 22.9822 13.1509 22.976 13.1511 22.9699C13.1483 22.9692 13.1465 22.9716 13.1435 22.9712C13.1267 22.8451 13.1639 22.7409 13.1946 22.6346C13.2175 22.6158 13.2262 22.5856 13.2207 22.5435C13.2379 22.5294 13.2547 22.5137 13.2709 22.4965C13.3115 22.1239 13.4576 21.8302 13.5927 21.5755C13.779 21.2252 13.9234 20.8224 14.1143 20.4828C14.1178 20.4814 14.1212 20.4793 14.1246 20.4776C14.0977 20.3895 14.0991 20.2596 14.012 20.2651C14.0174 20.237 14.0223 20.2062 14.0259 20.1712C13.9218 20.1948 13.797 20.1407 13.7502 20.3816C13.7094 20.3851 13.6898 20.4276 13.6817 20.4906C13.7298 20.4999 13.749 20.4574 13.7504 20.3823C13.7691 20.3991 13.7866 20.4135 13.8036 20.4248C13.7862 20.4533 13.7684 20.4814 13.751 20.5102L13.6952 20.623C13.5532 20.9983 13.4479 21.4045 13.3384 21.8076C13.2832 22.0108 13.2017 22.1856 13.0814 22.2963C13.0716 22.327 13.0592 22.355 13.0456 22.3812L12.958 22.5291L12.9533 22.5397C12.9034 22.5757 12.9242 22.7094 12.8623 22.7289L12.8724 22.7197C12.8348 22.8098 12.7854 22.8814 12.7401 22.9592C12.7278 23.0131 12.7047 23.0515 12.677 23.083C12.66 23.1419 12.6497 23.2153 12.6052 23.2482C12.5905 23.2533 12.5781 23.254 12.5664 23.254C12.3067 23.6859 12.0891 24.187 11.8089 24.5857C11.7699 24.6415 11.7246 24.731 11.6791 24.61C11.6657 24.5747 11.6868 24.5027 11.692 24.4475C11.7325 24.3629 11.7725 24.2786 11.8128 24.1939C11.92 23.8062 12.1111 23.5228 12.263 23.1906C12.2466 23.2081 12.2296 23.2249 12.2084 23.2359L12.1989 23.2317C12.2037 23.2184 12.2086 23.2057 12.2132 23.1927C12.1716 23.1872 12.1568 23.1351 12.1437 23.0802C12.1659 22.9041 12.2333 22.7745 12.295 22.6394C12.2881 22.5942 12.2836 22.5479 12.2834 22.4999C12.2848 22.4201 12.2952 22.344 12.3164 22.2727C12.4092 22.0585 12.4932 21.8329 12.5884 21.6129C12.4515 21.7531 12.4078 22.0156 12.3069 22.1983C12.2798 22.2274 12.2499 22.2425 12.2177 22.2442C12.2143 22.2432 12.2124 22.2394 12.2092 22.2381C12.0609 22.7484 11.8601 23.2091 11.7254 23.7363C11.6135 24.1757 11.3773 24.4633 11.1714 24.7783L11.1094 24.8646C11.0901 24.8947 11.0742 24.9293 11.0672 24.9785C10.9442 25.0457 10.8728 24.9504 10.8298 24.7643L10.8221 24.4479C10.9266 24.2546 10.9386 23.9831 11.0205 23.7702C11.0569 23.7555 11.0796 23.7185 11.0856 23.6547C11.1315 23.5827 11.1775 23.5104 11.2234 23.4377C11.2665 23.4439 11.2911 23.4103 11.2994 23.3397C11.3439 23.2657 11.3884 23.1916 11.4331 23.1179C11.511 23.0926 11.5518 23.0103 11.5622 22.8801C11.5978 22.8722 11.6245 22.8455 11.6356 22.7838C11.7426 22.7358 11.8059 22.6148 11.8354 22.4382C11.8724 22.4283 11.8953 22.3937 11.9032 22.3313C11.9412 22.3172 11.9602 22.2751 11.9649 22.212C12.0132 22.1657 12.0615 22.1195 12.1099 22.0729C12.085 21.8843 12.0581 21.6968 12.0164 21.5159C12.0134 21.4792 12.0075 21.447 12.0001 21.4178C11.9548 21.3273 11.9151 21.2218 11.8229 21.2684C11.7782 21.1762 11.657 21.1854 11.6649 21.0236C11.6501 21.0247 11.6358 21.0233 11.621 21.0178C11.4501 20.9078 11.3336 20.9671 11.2826 21.2934C11.2497 21.5035 11.1611 21.6632 11.0788 21.825C11.0168 21.9205 10.9576 21.9022 10.8989 21.8614L10.8286 21.8076L10.8354 21.8196C10.6708 21.7034 10.5051 21.6149 10.3751 21.9183C10.313 22.0636 10.2098 21.97 10.1413 22.0591C10.1295 22.1092 10.1081 22.1537 10.0699 22.162C10.0583 22.2069 10.0436 22.2113 10.0248 22.1671C9.84394 22.1147 9.671 22.0485 9.69972 21.6297L9.69345 21.6393C9.75433 21.4562 9.66493 21.182 9.81744 21.0548L9.8664 21.0019C9.92139 20.9144 9.94563 20.7707 10.0248 20.7268C10.0515 20.5582 10.1002 20.4118 10.1738 20.2888C10.2911 19.9844 10.3124 19.6207 10.3913 19.2944C10.3937 19.2769 10.3996 19.2629 10.4046 19.2478C10.4618 19.233 10.5367 19.2735 10.5622 19.1525C10.5763 19.0846 10.5407 19.0202 10.4887 19.0171C10.4544 18.903 10.3987 18.904 10.366 18.9904C10.3401 19.0582 10.2679 19.1689 10.3684 19.2498C10.3684 19.2498 10.3727 19.2533 10.3769 19.256C10.3753 19.2749 10.3735 19.2937 10.3731 19.3132C10.3239 19.4829 10.2535 19.6207 10.1676 19.7372C10.1142 19.7602 10.0581 19.7595 10.0051 19.7866C9.9839 19.8843 9.91716 19.8624 9.88034 19.9193C9.84839 19.9823 9.85688 20.0841 9.81097 20.1338C9.79883 20.1897 9.77395 20.2271 9.74725 20.2617L9.73139 20.3037C9.71513 20.3737 9.71979 20.4676 9.6706 20.4852C9.57695 20.5191 9.57654 20.3772 9.55733 20.2754C9.48917 19.9189 9.64673 19.632 9.66008 19.3023C9.64491 19.2056 9.75979 19.3338 9.72319 19.1981C9.7157 19.1292 9.7242 19.0723 9.76242 19.038C9.77355 18.9835 9.79701 18.9465 9.82472 18.9153L9.82939 18.928L9.84512 18.8444L9.85364 18.7573C9.85486 18.7175 9.86052 18.6795 9.86942 18.6425C9.88115 18.6092 9.89511 18.578 9.91008 18.5489C9.91716 18.5341 9.92504 18.5204 9.93192 18.5057C9.94487 18.4766 9.9572 18.446 9.96711 18.4131C9.96671 18.4129 9.96756 18.4069 9.96882 18.3991L9.9744 18.3604C9.97258 18.3083 9.96347 18.2688 9.92626 18.2729C9.90886 18.2963 9.8941 18.3192 9.88115 18.349C9.86699 18.384 9.85263 18.4152 9.83746 18.4488C9.82917 18.4676 9.82108 18.4841 9.81299 18.5023C9.70781 18.6719 9.58463 18.7933 9.45559 18.8988C9.42303 18.9513 9.38217 18.9801 9.34313 19.013C9.17101 19.2056 9.21126 18.8838 9.15907 18.7813C9.00394 18.7305 8.97117 18.9554 8.91009 19.11C8.83363 19.3043 8.80855 19.5542 8.68942 19.7037C8.63521 19.7578 8.58748 19.7801 8.56078 19.655L8.56927 19.6149L8.55006 19.5875C8.51082 19.475 8.49383 19.3657 8.5626 19.269C8.56826 19.2128 8.59537 19.1803 8.61337 19.1374L8.63339 19.1141L8.62894 19.0733C8.65099 18.9276 8.69286 18.8032 8.76264 18.7086C8.77012 18.6483 8.79581 18.6119 8.82291 18.5773C8.80228 18.4464 8.96935 18.1879 8.73371 18.2051C8.74423 18.178 8.75151 18.1478 8.74605 18.1067C8.70236 18.1142 8.65847 18.1225 8.61478 18.13C8.60932 18.1605 8.59658 18.1914 8.58364 18.2219C8.53408 18.2065 8.48271 18.1797 8.46288 18.1053C8.36519 17.7403 8.39108 18.1629 8.35083 18.1533C8.26851 18.2027 8.1872 18.2603 8.0976 18.2541C8.07252 18.2558 8.04744 18.2575 8.02256 18.2623C8.02438 18.2208 8.026 18.1794 8.02782 18.1382C7.96916 18.1105 7.91131 18.0861 7.88664 18.2222C7.86459 18.2678 7.84396 18.3158 7.81423 18.3494L7.81491 18.3919L7.81847 18.4262C7.79016 18.4608 7.76912 18.5057 7.7493 18.553C7.76063 18.6294 7.75193 18.7151 7.75678 18.795C7.77155 18.8111 7.78773 18.8179 7.80513 18.8159L7.83418 18.8727C7.87288 18.9674 7.84608 19.0197 7.75355 19.0294L7.73676 18.9972L7.71208 19.0085C7.68316 18.9934 7.66819 18.9599 7.66233 18.9136C7.64776 18.9132 7.6332 18.9129 7.61884 18.9129C7.58055 18.7607 7.53704 18.7843 7.49281 18.83L7.44851 18.8773L7.42649 18.8958C7.40019 18.7998 7.35853 18.7069 7.40424 18.5986L7.39575 18.5883C7.37511 18.5821 7.36015 18.5646 7.35084 18.5372C7.34983 18.5355 7.34801 18.5345 7.3468 18.5324L7.32334 18.4903C7.29809 18.5033 7.29549 18.52 7.29961 18.538L7.31749 18.5931L7.31403 18.6181C7.27358 18.7878 7.27095 19.0462 7.09255 18.8882L7.09822 18.8978C6.71109 18.8862 6.6763 18.4173 6.65829 17.9257C6.65486 17.8359 6.65931 17.7427 6.62876 17.6615C6.59883 17.6313 6.57274 17.596 6.56829 17.5322C6.38989 17.3183 6.39434 17.7855 6.26955 17.7708L6.24507 17.7516L6.22141 17.7742C6.12553 17.8997 5.99224 17.7547 5.8992 17.9021L5.89253 17.9137C5.83205 17.9795 5.86178 18.0587 5.881 18.1365L5.87839 18.13C5.69374 18.4637 5.5264 18.5605 5.2615 18.4655L5.16944 18.4269C5.07154 18.1986 5.11988 17.8894 5.02563 17.6591L5.02785 17.6652L5.02639 17.663L5.02739 17.664L5.02639 17.661L5.00713 17.5769C4.96174 17.3214 5.14171 17.4353 5.20489 17.3578L5.22 17.3283C5.26491 17.2594 5.30657 17.1867 5.35795 17.1339C5.61179 16.9454 5.66276 16.4165 5.90082 16.202C5.9168 16.1845 5.9348 16.1732 5.9526 16.1612C5.95361 16.1749 5.95462 16.1886 5.95543 16.202C5.97768 16.203 6.00033 16.2044 6.02258 16.2054L6.0492 16.2495C6.12572 16.3606 6.16929 16.2844 6.18601 16.1074C6.20725 15.8811 6.06748 15.9452 6.01449 15.851C5.99993 15.8636 5.98901 15.878 5.9797 15.8935C5.9613 15.8702 5.95078 15.8424 5.96453 15.8033C5.95521 15.6636 5.96819 15.5419 6.01127 15.4443C5.99219 15.383 5.99249 15.3207 6.04791 15.2588C6.07239 15.2384 6.0988 15.2211 6.12679 15.2063C6.15397 15.1234 6.1893 15.0467 6.21433 14.9605C6.23516 14.9371 6.239 14.9073 6.22626 14.871C6.2926 14.7397 6.21008 14.5371 6.29786 14.4161C6.24264 13.6734 6.64515 13.5596 6.87876 13.2195C6.9362 13.1363 7.02399 13.1716 7.08082 13.2881L7.07091 13.2771C7.18944 13.5668 6.9267 13.6014 6.94369 13.8235L6.93101 13.8728C6.91931 13.9349 6.91552 14.0039 6.87714 14.0422C6.83022 14.2307 6.83851 14.4562 6.74507 14.6143L6.69832 14.7556C6.67158 14.8612 6.65202 14.973 6.60874 15.064L6.60939 15.061C6.609 15.0724 6.60439 15.0896 6.59997 15.1069L6.62779 15.1047L6.75366 15.0897C6.79187 15.0598 6.83008 15.0299 6.8686 15C6.88399 15.0052 6.8979 15.0104 6.9104 15.0157C6.95651 14.8651 7.00462 14.714 7.10348 14.6451C7.11197 14.6033 7.12936 14.5793 7.15404 14.569C7.15404 14.5488 7.15202 14.5289 7.15445 14.509C7.24728 14.4377 7.20501 14.2876 7.22281 14.1724C7.3288 14.0802 7.35833 13.9178 7.36197 13.7323C7.38138 13.7337 7.39939 13.7258 7.41577 13.708C7.44287 13.7532 7.46998 13.7981 7.49728 13.843C7.49324 13.9136 7.48899 13.9839 7.48515 14.0545C7.39918 14.1673 7.35469 14.3167 7.34801 14.5001C7.31342 14.5286 7.30452 14.5759 7.30007 14.6266C7.31019 14.6359 7.3205 14.6458 7.33082 14.6561C7.61399 14.9118 7.73352 14.6328 7.83102 14.2814C7.79724 14.2646 7.76993 14.2297 7.75092 14.1694L7.75072 14.0559C7.73231 14.0127 7.73838 13.9839 7.76386 13.9668C7.77115 13.9047 7.79906 13.8708 7.82616 13.8352C7.87005 13.8324 7.94691 13.7642 7.94529 13.8903C7.94246 14.1118 8.02943 14.0223 8.08647 14.0436C8.098 14.0785 8.1154 14.097 8.13886 14.1001C8.14816 14.1053 8.15282 14.1111 8.15787 14.1169C8.21693 14.1077 8.259 14.0364 8.29885 13.9572C8.33586 13.8825 8.38724 13.8132 8.42445 13.7214C8.44165 13.6802 8.46369 13.6387 8.49585 13.6165C8.5533 13.4804 8.47482 13.2836 8.56483 13.1613L8.58374 13.0877C8.59677 12.9659 8.55754 12.8184 8.63198 12.7263C8.63703 12.6643 8.66232 12.629 8.69083 12.5974C8.7416 12.4545 8.72299 12.2067 8.8844 12.231C8.90705 12.2334 8.9295 12.2361 8.95216 12.2389C9.03428 12.0353 8.90503 11.6325 9.15826 11.5911C9.17323 11.5325 9.1973 11.492 9.23614 11.4807L9.23088 11.4893C9.32068 11.5126 9.3451 11.601 9.35667 11.7022L9.37095 11.8568L9.38318 11.929C9.38136 12.0007 9.37651 12.0716 9.36073 12.1381C9.35102 12.1799 9.33868 12.22 9.32493 12.2584C9.31198 12.2951 9.29681 12.3297 9.28104 12.363C9.27416 12.3798 9.26627 12.3959 9.2596 12.4127C9.23371 12.4788 9.21712 12.5529 9.20236 12.6279C9.19447 12.6632 9.18213 12.6944 9.16696 12.7215C9.14876 12.7239 9.14269 12.7129 9.14067 12.704C9.14047 12.7092 9.13986 12.7157 9.13865 12.7263C9.13662 12.7431 9.16514 12.776 9.17546 12.8072C9.18658 12.838 9.188 12.871 9.18092 12.9042L9.17741 12.9376L9.17606 12.9494C9.17606 12.9494 9.19447 12.9145 9.19487 12.9131C9.20479 12.8802 9.21631 12.8507 9.22966 12.8216C9.24443 12.7901 9.26061 12.7623 9.27821 12.7356L9.30753 12.6975C9.32028 12.6845 9.33342 12.6745 9.34718 12.667C9.31805 12.5745 9.38642 12.5347 9.40786 12.4696L9.42161 12.2577L9.49503 12.0589C9.51202 12.0517 9.52881 12.0442 9.5458 12.037C9.5903 12.1313 9.66817 12.2043 9.617 12.3589C9.56684 12.4254 9.51667 12.4919 9.48512 12.5889C9.48654 12.6142 9.48795 12.6389 9.48937 12.6639C9.50676 12.667 9.52396 12.6704 9.54155 12.6718C9.66332 12.6944 9.78123 12.6437 9.90017 12.6187C9.91432 12.5172 9.98835 12.547 10.0153 12.4737C10.0925 12.1964 10.1542 11.9064 10.2883 11.6884C10.334 11.5808 10.3656 11.4509 10.4252 11.3539C10.4703 11.2034 10.4315 10.9905 10.5452 10.8911C10.5771 10.8593 10.5962 10.8123 10.6265 10.7904C10.7537 10.2611 10.7307 9.64826 10.9192 9.14337C10.9966 8.93565 11.0939 8.76667 11.223 8.65219C11.352 8.54182 11.4808 8.54593 11.6103 8.64876C11.6285 8.67001 11.6402 8.6988 11.6485 8.73136C11.7751 8.73102 11.8087 8.87258 11.8045 9.07105C11.7697 9.08647 11.7458 9.1204 11.7375 9.18142C11.6592 9.22015 11.6777 9.32675 11.6791 9.42135L11.6465 9.43027L11.6139 9.42101C11.6139 9.42101 11.6125 9.42067 11.6117 9.42033C11.6103 9.49299 11.6069 9.56223 11.6034 9.63113C11.5385 9.67294 11.5092 9.61159 11.4806 9.54749C11.4798 9.55023 11.4786 9.55229 11.4778 9.55469C11.3929 9.66712 11.491 9.87175 11.4038 9.9828L11.4097 9.97424C11.3751 10.1007 11.3342 10.22 11.2784 10.3232C11.2464 10.3869 11.2582 10.4966 11.2023 10.5347C11.1831 10.7259 11.0864 10.8764 11.0978 11.0992C11.2177 11.0611 11.2513 10.8387 11.3556 10.7886C11.3884 10.7297 11.3765 10.62 11.4277 10.5754C11.4392 10.5158 11.4614 10.4757 11.4991 10.464C11.5458 10.2875 11.5972 10.2166 11.6457 10.4658C11.6483 10.4794 11.6501 10.4942 11.6515 10.5094L11.658 10.6013C11.6649 10.674 11.6827 10.7269 11.7652 10.681C11.7871 10.6968 11.8047 10.6872 11.8174 10.6536C11.8451 10.6221 11.8704 10.5833 11.9042 10.57C11.9461 10.5864 11.9857 10.5868 12.0162 10.5233C12.0652 10.4829 12.1099 10.4915 12.1497 10.5569C12.1732 10.596 12.2033 10.6142 12.2335 10.6306C12.2549 10.6447 12.2745 10.6395 12.2923 10.6145C12.3067 10.5874 12.3202 10.56 12.3326 10.5302L12.3552 10.4843L12.3516 10.4469L12.3718 10.4363C12.3763 10.4212 12.3817 10.4071 12.3838 10.3893C12.3896 10.3499 12.3997 10.3153 12.4145 10.2834L12.4246 10.2615C12.424 10.2498 12.4224 10.2385 12.422 10.2269C12.4295 10.2231 12.4371 10.2217 12.4448 10.219C12.4499 10.2077 12.4558 10.197 12.4606 10.1857C12.4685 10.1682 12.4766 10.1521 12.4847 10.1346C12.4865 10.1319 12.4889 10.1316 12.4907 10.1292C12.4999 10.1117 12.5128 10.1007 12.5284 10.0928L12.5344 10.087L12.5405 10.0815L12.5672 9.90705C12.604 9.88786 12.6244 9.84741 12.6248 9.78057C12.6851 9.70276 12.7116 9.54681 12.8085 9.55572C12.8676 9.77132 12.7608 9.91905 12.7314 10.099C12.7468 10.1926 12.7329 10.2745 12.6973 10.3482C12.6853 10.3602 12.6732 10.3667 12.6609 10.3674C12.6584 10.3893 12.658 10.4126 12.6536 10.4342C12.6437 10.4726 12.6311 10.5086 12.6176 10.5408L12.5996 10.5847C12.5897 10.6073 12.583 10.6354 12.5828 10.6629C12.6422 10.6029 12.6665 10.4832 12.7284 10.4342C12.7288 10.3005 12.7589 10.1915 12.8237 10.112C12.8409 10.1096 12.8579 10.1052 12.8746 10.0987C12.8953 10.1377 12.921 10.161 12.9511 10.171L12.8732 10.425C12.8661 10.4709 12.8562 10.4891 12.8439 10.486C12.8534 10.536 12.8564 10.5943 12.8989 10.6022C12.9082 10.5998 12.9175 10.6015 12.9268 10.6008C12.9309 10.6197 12.9353 10.6389 12.9416 10.6591C12.9887 10.7006 13.0354 10.7417 13.0822 10.7828L13.1127 10.7866L13.1406 10.7671C13.2205 10.7023 13.2614 10.5871 13.2844 10.449C13.2638 10.4195 13.2409 10.3955 13.2179 10.3708C13.2292 10.3173 13.2407 10.2724 13.2523 10.2279C13.3696 9.80388 13.5909 9.53618 13.7771 9.21569C13.8756 9.30139 13.9721 9.20027 14.0631 9.24586L14.086 9.22049L14.1477 9.20678C14.2919 9.07859 14.3117 9.23112 14.3127 9.41895C14.3137 9.62736 14.3263 9.80491 14.4925 9.66883C14.6728 9.68837 14.606 9.91151 14.6038 10.0812L14.5983 10.098C14.6479 10.135 14.6954 10.135 14.7243 10.0233C14.7632 9.87278 14.8313 9.73978 14.8291 9.56223C14.9068 9.44021 14.9351 9.27602 14.9626 9.11149C15.0002 9.02717 15.0376 8.94251 15.0753 8.85819C15.1523 8.89795 15.1382 9.02135 15.1576 9.11458L15.142 9.30687C15.1062 9.32572 15.0866 9.3672 15.0817 9.42992C14.9764 9.57046 14.9675 9.79977 14.9096 9.98349C14.8702 10.1086 14.9586 10.098 14.9996 10.1302L15.014 10.2049C15.0277 10.2155 15.0411 10.2262 15.0544 10.2365C15.2634 10.3797 15.3568 10.1789 15.4199 9.88649L15.4559 9.86856C15.5318 9.85747 15.4915 10.0697 15.5506 10.0904C15.5949 10.1919 15.6396 10.1569 15.6845 10.1155C15.7276 10.04 15.7688 10.0342 15.8068 10.1281L15.8313 10.1665C15.8545 10.2234 15.8496 10.2959 15.8406 10.3602C15.806 10.6077 15.9278 10.6423 16.0093 10.6937C16.1266 10.7681 16.1533 10.5912 16.1806 10.4514C16.2423 10.1353 16.3481 9.85358 16.4203 9.54578L16.4184 9.55V9.552L16.4407 9.46023C16.4596 9.3629 16.4726 9.26021 16.5116 9.18163L16.5603 9.11218C16.6295 8.96033 16.6893 9.0707 16.7306 9.15914C16.7812 9.26677 16.8176 9.39976 16.7292 9.51219C16.731 9.578 16.7015 9.61227 16.6784 9.65306C16.663 9.67774 16.6576 9.70448 16.6624 9.73121C16.6673 9.75829 16.6721 9.77235 16.6776 9.77235L16.6954 9.81348C16.715 9.87223 16.7122 9.92597 16.6638 9.96875C16.6074 10.3012 16.6094 10.6505 16.5623 10.9851C16.5581 11.0142 16.5536 11.043 16.5487 11.0718C16.5251 11.0522 16.5014 11.0324 16.4778 11.0132C16.5002 11.2154 16.3936 11.3727 16.4092 11.5729C16.432 11.6205 16.4531 11.6157 16.4723 11.566C16.5196 11.419 16.5668 11.2723 16.6137 11.1252C16.5997 11.1139 16.5858 11.1019 16.5716 11.0906C16.5797 11.0694 16.5872 11.0471 16.5975 11.0279C16.9573 10.6536 16.9701 10.6581 17.0886 11.2665C17.2261 10.9299 17.4743 10.9497 17.626 10.681L17.6224 10.693L17.6612 10.6077C17.7513 10.4061 17.8444 10.2127 18.0056 10.2056L18.0791 10.2145C18.2029 10.3537 18.2308 10.5268 18.1393 10.7297C18.0617 10.9014 18.0202 11.1167 17.9092 11.2713C18.0186 11.1835 18.0853 11.0241 18.1857 10.9491C18.2205 10.9107 18.255 10.8706 18.2866 10.824C18.3066 10.7914 18.3299 10.7671 18.3554 10.7485C18.357 10.7485 18.3582 10.7496 18.36 10.7496L18.6118 10.1069C18.6503 10.1048 18.6804 10.0836 18.6905 10.0133C18.7336 9.93722 18.7767 9.86112 18.82 9.78503C18.857 9.77475 18.8944 9.76446 18.9316 9.75418L18.9423 9.65032C19.0077 9.60199 19.1017 9.71031 19.1458 9.54406C19.183 9.5331 19.2071 9.49916 19.2144 9.43404C19.2486 9.42204 19.2769 9.3977 19.2882 9.33566C19.3086 9.336 19.3262 9.32469 19.341 9.30139C19.341 9.32709 19.3454 9.35006 19.3547 9.37097C19.3774 9.37028 19.395 9.38639 19.4071 9.4193L19.3446 9.49539L19.3145 9.59279C19.3022 9.62222 19.288 9.64902 19.2728 9.67442L19.1765 9.82002L19.1327 9.89883C19.1343 9.90534 19.1363 9.91185 19.1379 9.91871C19.1594 10.1028 19.145 10.2728 19.0683 10.4174C19.04 10.4623 19.0099 10.4812 18.9783 10.4843C18.9638 10.5364 18.9494 10.5885 18.935 10.6406C18.9421 10.6481 18.9496 10.6543 18.9563 10.6639C18.9864 10.8082 18.9486 10.9408 18.9318 11.0769C18.9302 11.0893 18.9288 11.1013 18.9272 11.1136C18.9439 11.0882 18.9632 11.0687 18.9848 11.0546C18.984 11.0454 18.9814 11.0375 18.982 11.0272C18.9905 10.9696 19.0056 10.9162 19.02 10.8627C19.0283 10.8264 19.0386 10.7917 19.0491 10.7578C19.0649 10.7057 19.0807 10.6543 19.0958 10.6015C19.1054 10.5655 19.1171 10.5316 19.1302 10.499C19.1432 10.4654 19.1577 10.4339 19.1725 10.4024C19.1792 10.3859 19.1865 10.3701 19.1931 10.3533C19.2059 10.3177 19.2196 10.2844 19.2336 10.2502C19.2597 10.1912 19.288 10.137 19.3311 10.1189C19.3382 10.1494 19.3491 10.1778 19.3638 10.2039C19.3806 10.2275 19.3996 10.2399 19.4199 10.2471C19.4359 10.3256 19.4108 10.3934 19.3976 10.464C19.3873 10.4963 19.3768 10.5285 19.3665 10.56H19.3766L19.3853 10.5408C19.3853 10.5405 19.4013 10.4922 19.4011 10.4918C19.4092 10.4572 19.4189 10.4239 19.4296 10.3914C19.4397 10.3564 19.4553 10.3304 19.4759 10.3132L19.6155 10.3276C19.6656 10.547 19.6236 10.7297 19.5358 10.8935C19.5153 11.007 19.4692 11.1201 19.4876 11.2332H19.5111C19.6426 11.1708 19.6027 10.8332 19.7518 10.8003C19.8252 10.6584 19.9439 10.8332 20.0228 10.6947C20.0453 10.6032 20.0714 10.5165 20.1153 10.4534C20.0981 10.4497 20.0841 10.4349 20.0803 10.4027C20.0782 10.3869 20.1209 10.3557 20.1432 10.3314C20.1438 10.3598 20.1448 10.388 20.1456 10.4164C20.1482 10.414 20.15 10.4106 20.1527 10.4078C20.1962 10.39 20.239 10.3842 20.2763 10.4394C20.2914 10.4719 20.3092 10.476 20.3292 10.4524C20.3994 10.5059 20.4692 10.5425 20.5372 10.4438C20.5578 10.4277 20.5627 10.4027 20.5511 10.3691C20.5736 10.2759 20.5853 10.1826 20.5523 10.0891C20.5196 10.0692 20.4975 10.0291 20.4803 9.97903C20.4108 9.8385 20.4528 9.74767 20.5445 9.72265C20.6393 9.69625 20.74 9.72367 20.8181 9.59754C20.8349 9.57765 20.8517 9.55812 20.8687 9.53961C20.8733 9.57354 20.8745 9.61056 20.8723 9.64964C20.9415 9.66266 20.9716 9.54955 21.0258 9.51459L21.044 9.47071C21.2829 9.55709 21.0629 9.82993 21.0849 9.99994C21.1719 9.87278 21.2127 9.67363 21.2637 9.48614C21.4465 9.24209 21.505 8.79169 21.7471 8.64499C21.7635 8.60146 21.7859 8.56204 21.8145 8.53496C21.8442 8.4335 21.8846 8.34884 21.9387 8.27926C22.0673 8.11404 22.1939 7.85937 22.3672 8.09622C22.5252 8.31216 22.3786 8.53188 22.3325 8.74439L22.3334 8.739L22.3325 8.74439L22.2725 9.03689C22.2006 9.44681 22.1614 9.87552 22.0291 10.2498C21.9916 10.3191 21.9714 10.3986 21.9558 10.4846L21.9554 10.482L21.9439 10.4009C21.9429 10.3712 21.944 10.3403 21.9447 10.3097L21.9431 10.22C21.8149 10.3389 21.9186 10.5768 21.8557 10.7198C21.7874 10.875 21.6543 11.0029 21.8464 11.201C21.9144 10.9947 22.0414 10.8442 22.0127 10.5655C21.9951 10.5539 21.9832 10.5388 21.9732 10.5227C22.0918 10.2491 22.1075 9.87963 22.2605 9.63832C22.3438 9.59479 22.413 9.64107 22.4742 9.73567C22.4783 9.66472 22.4825 9.59376 22.4866 9.52315C22.5026 9.54406 22.52 9.55846 22.5382 9.56943C22.522 9.63524 22.5355 9.72847 22.4858 9.76378C22.5614 9.94373 22.4453 10.1583 22.5074 10.34C22.5127 10.3348 22.5183 10.3297 22.5258 10.3269C22.5371 10.2536 22.5481 10.1806 22.5594 10.1072C22.5497 10.0411 22.5715 10.0041 22.6023 9.97526C22.627 9.83062 22.6899 9.70414 22.6741 9.54064L22.6816 9.5274L22.6895 9.51836C22.682 9.4546 22.6812 9.39085 22.6913 9.32675C22.704 9.27945 22.7226 9.24003 22.7463 9.20712L22.7434 9.211L22.7444 9.21L22.7757 9.14697L22.811 9.10052C22.8294 9.05254 22.8517 9.01209 22.8832 8.98878C22.9386 8.73719 23.0353 8.88732 23.1203 8.924C23.186 8.9809 23.2519 8.95382 23.3175 8.92331C23.3812 8.93017 23.4546 8.88835 23.4939 9.02135C23.4969 9.07139 23.4799 9.10772 23.4641 9.14508C23.4643 9.16017 23.467 9.1749 23.4659 9.19033C23.4566 9.1941 23.4522 9.20438 23.4453 9.21158C23.4431 9.22392 23.4401 9.23557 23.4407 9.24997C23.4494 9.28802 23.4568 9.32709 23.4633 9.36651L23.4637 9.37645C23.4522 9.43781 23.4423 9.49882 23.468 9.55743C23.5555 9.78846 23.4251 9.90774 23.3703 10.0682C23.2788 10.3341 23.1348 10.5566 23.169 10.9189C23.1975 11.2202 23.2807 11.3384 23.4281 11.1523C23.4492 11.1257 23.4717 11.1028 23.4948 11.0819L23.6351 10.9635C23.6806 10.9213 23.723 10.8713 23.7566 10.7979L23.7554 10.799L23.7491 10.8164C23.807 10.7106 23.8636 10.7895 23.9205 10.8139L23.9489 10.8205C23.9684 10.8068 23.9876 10.7928 24.007 10.7791C24.0525 10.7208 24.0948 10.7153 24.1318 10.7962C24.2386 11.0152 24.2934 11.2716 24.3163 11.5499L24.325 11.5355C24.2214 11.6912 24.2477 11.9736 24.1302 12.1158C24.1186 12.1789 24.0962 12.2214 24.0549 12.229L24.0616 12.218C23.8417 12.4648 23.9002 12.6465 23.9943 12.8198L24.0677 12.949C24.0919 12.9922 24.1145 13.0357 24.1318 13.0804L24.1275 13.1249C24.0851 13.3248 24.082 13.4598 24.243 13.3268C24.4906 13.322 24.5602 13.6754 24.6743 13.9397C24.6969 13.9832 24.7297 13.999 24.7519 14.0367C24.7548 14.0535 24.7578 14.0641 24.7604 14.0723C24.7509 14.0713 24.7416 14.071 24.7319 14.0699C24.7159 14.1155 24.6931 14.1587 24.6856 14.2088C24.6789 14.253 24.6785 14.327 24.6945 14.3486C24.7388 14.4107 24.7758 14.3486 24.793 14.2849C24.8096 14.2225 24.8092 14.1471 24.8162 14.0775C24.8045 14.0765 24.7932 14.0754 24.7815 14.0744C24.7865 14.0614 24.7914 14.0432 24.7964 14.0292C24.8209 13.9942 24.8512 13.9795 24.8771 13.951C24.9487 13.707 25.0563 13.5705 25.2123 13.7193C25.3512 13.8516 25.3549 14.0624 25.2728 14.2821L25.2552 14.3113L25.2639 14.3496C25.2523 14.4203 25.2404 14.4898 25.238 14.5642C25.2327 14.7359 25.2374 14.9149 25.3393 14.9947C25.4696 15.0962 25.4688 14.8059 25.5533 14.7569C25.5917 14.6684 25.6358 14.5896 25.6908 14.5296C25.7499 14.4333 25.8191 14.6077 25.8787 14.5224C25.9089 14.4532 25.8949 14.3387 25.9564 14.3006C25.9857 14.2215 26.0227 14.2156 26.0668 14.2835C26.1144 14.3565 26.1024 14.4305 26.0676 14.5049L26.0684 14.501L26.0674 14.503L26.0676 14.5049L26.0406 14.6201C26.0251 14.7414 26.0431 14.8651 26.0569 14.9882L26.0519 14.9766C26.0736 15.0342 26.0741 15.089 26.0673 15.143L26.0389 15.3039L26.0345 15.3855C26.0254 15.4064 26.0138 15.4218 26.0011 15.4331L26.0074 15.524C25.9918 15.4883 25.9712 15.4753 25.9455 15.4852C25.9222 15.5007 25.9315 15.5644 25.9208 15.5648C25.9044 15.5651 25.899 15.525 25.905 15.4893C25.903 15.4636 25.8975 15.4407 25.8903 15.4187C25.9117 15.4503 25.9323 15.4475 25.952 15.4074C25.9471 15.3372 25.9501 15.2244 25.9095 15.2237C25.8555 15.2223 25.8227 15.318 25.8112 15.4146C25.791 15.4917 25.7707 15.5689 25.7505 15.6453C25.777 15.6926 25.7663 15.7673 25.7808 15.8232C25.7758 15.8441 25.7709 15.865 25.7675 15.8866C25.7744 15.8719 25.7814 15.8568 25.7885 15.8441C25.7938 15.8561 25.8003 15.8671 25.8102 15.8753C25.8619 15.9051 25.9125 16.0498 25.9657 15.8736C26.0003 15.7588 26.0418 15.6501 26.08 15.5387C26.097 15.5246 26.1152 15.5168 26.1342 15.514C26.135 15.4869 26.1405 15.463 26.149 15.441C26.1542 15.4462 26.1591 15.454 26.1647 15.4582C26.156 15.4791 26.1484 15.5007 26.1366 15.5171L26.1447 15.5801L26.1526 15.6429C26.1566 15.6614 26.1603 15.6803 26.1641 15.6988C26.1611 15.708 26.1589 15.718 26.1546 15.7265C26.155 15.7238 26.167 15.7313 26.1755 15.7361C26.184 15.757 26.1953 15.7738 26.2157 15.779C26.2651 15.6748 26.3003 15.5582 26.3288 15.4362C26.345 15.427 26.3611 15.417 26.3771 15.4071C26.4594 15.3526 26.5606 15.3553 26.616 15.2186C26.6174 15.2268 26.6188 15.2347 26.6172 15.2456C26.6708 15.308 26.7234 15.3639 26.7426 15.1929L26.8025 15.0684C26.8684 15.0722 26.9341 15.0763 26.9999 15.0801C26.9975 15.5277 26.9975 15.5277 26.7426 15.5397C26.7428 15.573 26.7422 15.6059 26.7404 15.6391C26.7177 15.6768 26.6953 15.7145 26.673 15.7526C26.6283 15.828 26.5838 15.9034 26.5395 15.9788C26.4882 15.9918 26.4368 15.9552 26.3919 15.9534C26.2788 15.949 26.1995 16.0275 26.3221 16.2253C26.3259 16.2606 26.3312 16.2959 26.333 16.3312C26.3528 16.7411 26.3516 16.7727 26.1542 16.7757C26.1354 16.7881 26.1162 16.8001 26.097 16.8121C26.0638 16.8536 26.0308 16.8967 25.9963 16.9355C25.9748 16.9626 25.9548 16.9934 25.9362 17.0267C25.9344 17.0479 25.9325 17.0695 25.9307 17.0911C25.9194 17.0952 25.9081 17.0973 25.8965 17.0997C25.8913 17.1089 25.8858 17.1178 25.8793 17.124C25.9058 17.1939 25.9091 17.258 25.8601 17.3101C25.852 17.3687 25.8272 17.4051 25.7997 17.4383C25.7434 17.5271 25.8128 17.7197 25.706 17.767L25.684 17.7619L25.6712 17.7924C25.5141 17.899 25.5033 17.7201 25.4952 17.535L25.5074 17.49L25.5038 17.4983L25.4989 17.5079C25.4489 17.5699 25.4002 17.6357 25.3442 17.682C25.3571 17.7019 25.363 17.7225 25.3571 17.7423C25.3502 17.767 25.3431 17.779 25.3359 17.7794C25.3158 17.8208 25.2944 17.8596 25.2673 17.8884C25.2228 17.9977 25.1967 18.1297 25.1285 18.2092C25.1196 18.2705 25.0964 18.3089 25.0618 18.3288C25.0486 18.3915 25.0215 18.4286 24.9839 18.446L24.9688 18.431L24.955 18.4495C24.9196 18.3974 24.8251 18.3977 24.8864 18.2586C24.904 18.1749 24.9004 18.0769 24.9439 18.0104L24.9424 18.013L24.9658 17.9356L24.9959 17.8647C24.9977 17.8729 24.9977 17.8812 25.0017 17.8894C25.0642 17.8575 25.0705 17.7759 25.0707 17.6889C25.0772 17.6858 25.0804 17.6817 25.0715 17.6741C25.0753 17.6693 25.0753 17.6663 25.0749 17.6632L25.0731 17.6642L25.0711 17.6649C25.0683 17.6717 25.0667 17.6704 25.0616 17.6676V17.6793C25.025 17.6937 25.008 17.7393 25.0039 17.8044C24.9857 17.8243 24.9649 17.8366 24.9398 17.8366C24.8516 17.7852 24.8013 17.7125 24.8852 17.5631L24.8814 17.57L24.8834 17.566L24.8824 17.567L24.9002 17.5113ZM5.13586 14C5.14116 14.0346 5.1481 14.0678 5.15116 14.1029C5.15259 14.1195 5.14626 14.1399 5.14382 14.1585C5.1175 14.2097 5.10036 14.2789 5.07832 14.3389C5.06608 14.374 5.06139 14.4144 5.06465 14.4603C4.99364 14.5758 5.00854 14.7655 4.99364 14.9288L4.87796 15C4.84572 14.9288 4.8398 14.8464 4.86041 14.7533C4.83837 14.5631 4.85816 14.4125 4.93325 14.3145C4.98977 14.2613 5.00221 14.139 5.01609 14.0185L5.13586 14ZM19.0169 8.00087C19.0506 8.00451 19.0843 8.00782 19.1179 8.01146C19.1891 8.06239 19.173 8.15102 19.1557 8.24065C19.1461 8.29059 19.1243 8.33193 19.1167 8.38319L19.0294 8.77742C18.9935 8.79561 18.971 8.83232 18.9694 8.89648L18.8955 9L18.8292 8.88391C18.8564 8.78172 18.8839 8.68019 18.9115 8.57799C18.9288 8.52673 18.9259 8.47084 18.9247 8.41527C18.9288 8.37823 18.9351 8.34185 18.9425 8.30647C18.9461 8.26942 18.9492 8.23304 18.9504 8.19567C18.9486 8.13912 18.9478 8.08256 18.9725 8.0356C18.9825 8.00815 18.9976 7.99657 19.0169 8.00087ZM22.9598 6.0288C23.2626 5.8818 23.1048 6.33348 23.1103 6.57219C23.0366 6.72987 22.9888 6.96105 22.8614 7C22.8147 6.62371 22.9838 6.37117 22.9598 6.0288Z" fill="white"/>
</mask>
<g mask="url(#mask0_3270_28703)">
<path d="M14.8518 24.0392C14.9185 23.9772 14.9636 23.9899 14.9999 24.0691C14.987 24.1648 14.9908 24.2673 14.9573 24.3551C14.919 24.4563 14.8576 24.5645 14.7158 24.4828C14.6972 24.4376 14.6576 24.4296 14.6194 24.4187C14.6325 24.4329 14.6413 24.4495 14.642 24.4711L14.6521 24.7358C14.6063 24.795 14.5682 24.8705 14.4733 24.8228C14.3194 24.7758 14.2771 24.9764 14.1457 24.9798C14.127 24.9926 14.1111 24.9986 14.0973 24.9998L14.0664 25.0591L14.0399 25.1129C14.0333 25.1585 14.0129 25.183 13.9788 25.1859C13.942 25.1889 13.911 25.1691 13.8861 25.1259L13.9074 25.154C13.8565 25.2033 13.8021 25.2475 13.7402 25.2869L13.6322 25.3469C13.5963 25.3969 13.5603 25.447 13.524 25.497C13.497 25.5386 13.4822 25.5861 13.423 25.6126C13.3955 25.6253 13.3657 25.633 13.3336 25.6362C13.3303 25.636 13.329 25.6343 13.3257 25.6338C13.3447 25.6515 13.3578 25.6708 13.3666 25.6913C13.3951 25.6801 13.4249 25.6725 13.4579 25.6723C13.5057 25.6469 13.5536 25.6216 13.6014 25.596L13.6199 25.6851C13.5369 25.7526 13.4542 25.8201 13.3712 25.8877C13.3278 25.8936 13.304 25.9135 13.2968 25.9449C13.2541 25.9503 13.2287 25.9689 13.2201 26H13.0022L12.9999 25.8383C13.0475 25.7971 13.0953 25.7558 13.1432 25.7146C13.142 25.699 13.1432 25.6832 13.1466 25.6676C13.1896 25.6431 13.2331 25.6185 13.276 25.5939C13.2906 25.5488 13.3049 25.5035 13.3195 25.4585C13.3405 25.4585 13.3592 25.4538 13.3759 25.4444C13.4195 25.3893 13.4503 25.3187 13.5469 25.324C13.5319 25.3136 13.518 25.3024 13.5069 25.2893C13.5048 25.2839 13.5064 25.2793 13.5057 25.2744C13.4387 25.2931 13.3717 25.3119 13.3047 25.3308C13.2539 25.1548 13.4008 25.1977 13.53 25.2208C13.6062 25.2147 13.6619 25.1884 13.7105 25.1552L13.8485 25.0477L13.9268 25.0029C13.9326 25.002 13.938 25.0013 13.9431 25.0009C13.973 24.9478 14.012 24.9035 14.0402 24.8454C14.0454 24.8473 14.0503 24.8497 14.0548 24.8527L14.0547 24.8138C14.059 24.8146 14.0631 24.8159 14.067 24.8174C14.1147 24.8095 14.1434 24.7817 14.1522 24.7332C14.1981 24.7254 14.2306 24.7021 14.2391 24.6515C14.3137 24.6141 14.3673 24.5554 14.4033 24.4791C14.4708 24.4783 14.4857 24.3753 14.5607 24.3891C14.5597 24.388 14.5579 24.388 14.5569 24.387L14.5665 24.3896C14.4998 24.2276 14.6425 24.1975 14.7214 24.1275C14.7652 24.0987 14.8138 24.0748 14.8518 24.0392ZM13.9092 24C13.9397 24.0303 13.9696 24.0604 13.9999 24.0904C13.9938 24.1407 13.9883 24.191 13.9825 24.2415C13.8913 24.3001 13.8515 24.3933 13.8167 24.4901C13.7713 24.5002 13.7436 24.5272 13.7355 24.5737C13.6874 24.582 13.6625 24.6123 13.6547 24.6591C13.505 24.7705 13.4049 24.9682 13.1734 24.9362C13.1741 24.9574 13.1696 24.9768 13.1593 24.995L13.12 24.9844L13.0791 24.9872C13.0108 25.0147 12.9824 24.9998 13.0108 24.9233C13.0255 24.8452 13.0867 24.8308 13.1502 24.8192C13.1628 24.7722 13.1968 24.7467 13.2399 24.7298C13.4017 24.4299 13.6753 24.2332 13.9092 24ZM18.935 22C19.054 22.0936 18.9725 22.1843 18.9749 22.2698C18.9341 22.314 18.8408 22.2971 18.8061 22.3482C18.775 22.3616 18.7654 22.3808 18.7778 22.4061C18.7599 22.4324 18.731 22.4445 18.692 22.4447C18.6775 22.438 18.67 22.4291 18.6628 22.4201C18.6621 22.4358 18.6634 22.4514 18.6588 22.4673C18.6036 22.5412 18.6827 22.6449 18.5674 22.7054C18.552 22.7413 18.5176 22.7652 18.4756 22.7845C18.453 22.8151 18.4167 22.8374 18.3869 22.8631C18.3603 22.8841 18.331 22.9017 18.2987 22.9167L18.2909 22.9189L18.2728 23C18.2172 22.9987 18.1614 22.9973 18.1061 22.996C18.1043 22.9835 18.0998 22.9716 18.0968 22.9596C18.0907 22.96 18.0853 22.9616 18.0793 22.962C18.0391 22.9567 18.0129 22.9397 17.9999 22.9111C18.0071 22.8738 18.0138 22.8365 18.021 22.7994L18.5834 22.2732C18.6537 22.149 18.798 22.0813 18.935 22ZM21.1222 19C21.1832 19.1462 21.1563 19.2776 21.1606 19.4008C21.133 19.4614 21.1277 19.531 21.1357 19.6072C21.078 19.6508 21.0196 19.6865 20.9562 19.6601L20.96 19.7825C20.9619 19.8789 20.9782 20.0169 20.8994 19.9983C20.8441 19.9851 20.8203 19.8723 20.8492 19.7584C20.8584 19.7223 20.8735 19.6923 20.8862 19.6597C20.9366 19.4031 21.0243 19.2006 21.1222 19ZM24.9002 17.5113C24.9131 17.4184 24.8877 17.2995 24.955 17.2433C24.9558 17.1802 24.9833 17.1446 25.0068 17.1048C25.0369 16.9903 25.01 16.8988 24.9817 16.8076L24.9704 16.8039C24.8431 16.8786 24.7127 17.052 24.596 16.7754C24.5851 16.7394 24.5745 16.7021 24.5644 16.6654L24.5669 16.6664L24.5962 16.6626C24.6037 16.5855 24.5792 16.5529 24.5383 16.5423L24.5174 16.4952C24.4675 16.386 24.4595 16.4104 24.3903 16.627C24.4091 16.6301 24.4281 16.6335 24.4473 16.6373C24.4346 16.6568 24.423 16.6801 24.4109 16.7024C24.3575 16.7864 24.3308 16.9087 24.2683 16.978C24.2523 17.0277 24.2303 17.0661 24.1993 17.0883C24.1443 17.3067 24.0088 17.3773 23.918 17.5298L23.9269 17.5147C23.8424 17.6539 23.8454 17.4774 23.8142 17.4249L23.8165 17.4373C23.7392 17.1802 23.7598 16.75 23.4688 16.8714C23.4362 16.9324 23.4504 17.0476 23.3903 17.0767C23.3802 17.1281 23.3672 17.1298 23.3507 17.0794C23.3082 17.0623 23.2704 17.0328 23.2475 16.9639C23.2325 16.9015 23.2536 16.8381 23.2457 16.7751C23.2307 16.9207 23.1354 16.9204 23.0932 17.016C23.021 17.1346 23.0564 17.368 22.9382 17.4373C22.8258 17.7225 22.8037 18.2462 22.4698 17.9463C22.4631 17.9244 22.4562 17.9055 22.4494 17.8877C22.4599 17.8843 22.4702 17.8829 22.4807 17.8771C22.4783 17.7533 22.5105 17.5747 22.4435 17.5247C22.3553 17.4585 22.29 17.5905 22.2509 17.7334C22.238 17.7811 22.2182 17.8239 22.2016 17.8688C22.2259 17.8743 22.2503 17.8812 22.2746 17.887C22.2687 17.9014 22.2631 17.9144 22.2574 17.9316C22.1998 18.0426 22.1413 18.1523 22.0564 18.2041C22.0256 18.2997 21.9789 18.3703 21.9285 18.434C21.9221 18.4995 21.8974 18.5376 21.8618 18.5585L21.8689 18.5475C21.6721 18.3429 21.378 18.528 21.2378 18.0964C21.2372 18.0704 21.2394 18.0436 21.2421 18.0169H21.2129C21.2115 18.0892 21.1919 18.13 21.1458 18.1252C21.1585 18.2366 21.169 18.3473 21.1361 18.4556L21.0902 18.6853C21.0685 18.6997 21.0608 18.7261 21.0669 18.7641C21.0376 18.8371 21.0084 18.9102 20.9763 18.9904C20.9464 18.7086 20.9464 18.7086 21.0714 18.3336C21.0703 18.24 21.1067 18.1814 21.1393 18.1187L21.1546 18.0483C21.1638 18.0158 21.1782 17.9923 21.2107 18.0001C21.2226 17.9785 21.2348 17.9682 21.2471 17.9706C21.2603 17.8561 21.272 17.743 21.1589 17.6892C21.0317 17.6289 20.9563 17.7101 20.8832 17.8812C20.6527 18.421 20.3752 18.9012 20.183 19.4898C20.1403 19.6197 20.0825 19.73 19.9935 19.7767L19.9931 19.7756C19.9921 19.7777 19.9919 19.778 19.9913 19.7784C19.9668 19.8833 19.9061 19.9402 19.8742 20.0351C19.8551 20.0773 19.8317 20.1129 19.811 20.153C19.7692 20.212 19.7819 20.3172 19.7429 20.3775L19.7073 20.4569C19.6757 20.5432 19.6524 20.6411 19.5928 20.6874C19.5784 20.7724 19.5924 20.8838 19.5198 20.9153L19.5271 20.9027C19.2609 21.0404 19.2736 20.6651 19.2918 20.4547C19.3295 20.0135 19.3347 19.7496 19.0137 20.0454C18.9579 20.0968 18.8972 20.031 18.8772 19.9419C18.7861 19.5421 18.7105 19.6642 18.6349 19.8329L18.597 19.9189L18.5779 19.9607C18.4949 20.1369 18.4124 20.3158 18.2668 20.3494C18.2389 20.3498 18.2134 20.3388 18.1893 20.3203C18.1753 20.3409 18.1612 20.3611 18.147 20.3816C18.122 20.3391 18.0967 20.2966 18.0714 20.2545C18.0706 20.2223 18.0744 20.1924 18.0835 20.1643C18.0977 20.1626 18.1116 20.1582 18.1254 20.154C18.1254 20.1458 18.1242 20.1383 18.1246 20.1297C18.1256 20.1235 18.127 20.1174 18.128 20.1112C18.1104 20.0687 18.0971 20.0224 18.0878 19.9731C18.0746 20.0296 18.0566 20.0817 18.034 20.129C17.8531 20.4906 17.6988 20.8855 17.5301 21.2626L17.5364 21.2523C17.5083 21.3561 17.446 21.3404 17.3958 21.3678C17.2457 21.5481 17.1133 21.7627 16.9798 21.9755C16.9731 21.9673 16.9642 21.9604 16.9531 21.9584C16.9278 21.9597 16.9023 21.9608 16.877 21.9618C16.873 21.9824 16.872 22.0029 16.873 22.0232C16.8712 22.0228 16.8695 22.0232 16.8677 22.0228C16.7241 21.9107 16.5781 21.9587 16.4318 22.005C16.3831 21.9687 16.3722 21.898 16.373 21.8172C16.378 21.7678 16.3898 21.7225 16.4053 21.6811C16.4413 21.5769 16.4424 21.4751 16.3805 21.4017C16.336 21.3496 16.3062 21.4158 16.2791 21.4689C16.2195 21.6033 16.1677 21.7479 16.0878 21.8525L16.0842 21.8621C16.034 21.9032 16.0532 22.0225 16.0043 22.0646L16.0064 22.059L16.0043 22.0646L15.9782 22.1143L15.9446 22.1654C15.9416 22.2038 15.9387 22.2425 15.9361 22.2813C15.8993 22.2991 15.875 22.3344 15.8768 22.405C15.8265 22.452 15.8137 22.5352 15.8038 22.6213C15.7654 22.6401 15.7504 22.6871 15.7486 22.7512L15.4327 23.2256L15.4284 23.215L15.4262 23.2223L15.4238 23.2293C15.4254 23.2838 15.4056 23.312 15.3783 23.3253C15.3758 23.3284 15.3734 23.3315 15.371 23.3346C15.3663 23.339 15.3617 23.3401 15.357 23.3428C15.3544 23.3716 15.3518 23.4007 15.3495 23.4295C15.3325 23.4412 15.3149 23.4453 15.2971 23.446C15.2953 23.4833 15.2915 23.5135 15.2824 23.542C15.2739 23.5474 15.2652 23.5502 15.2565 23.5546C15.2526 23.568 15.247 23.5797 15.244 23.5941C15.228 23.6777 15.1837 23.7147 15.1473 23.7647C15.1244 23.8004 15.1036 23.8405 15.0726 23.8573C15.0571 23.9046 15.0385 23.9063 15.0168 23.8669C14.9608 23.7942 14.9019 23.8624 14.8419 23.8662C14.6809 23.8755 14.6631 23.7521 14.7626 23.5557C14.7978 23.4511 14.7585 23.3044 14.816 23.2012C14.8483 23.1557 14.8328 23.1015 14.822 23.0484C14.8273 23.0155 14.835 22.9832 14.837 22.9497C14.8378 22.9359 14.8267 22.9202 14.821 22.9051C14.8823 22.7412 14.8006 22.5147 14.9023 22.369C14.9137 22.3625 14.9248 22.3604 14.9359 22.3584C14.9422 22.2885 14.9327 22.1945 14.9992 22.2199C15.0419 22.2364 15.0273 22.3265 15.0188 22.3951C15.0548 22.4646 15.0399 22.5764 15.0771 22.6453L15.0754 22.64C15.0939 22.6615 15.1105 22.6855 15.1242 22.714L15.1424 22.7604C15.1851 22.8081 15.2324 22.8043 15.28 22.8002C15.2828 22.7879 15.2876 22.7769 15.2895 22.7632C15.335 22.7615 15.3514 22.7145 15.3528 22.6449L15.441 22.5243C15.4393 22.5174 15.4375 22.513 15.4357 22.5061C15.4163 22.2336 15.5724 21.9964 15.4917 21.7116C15.4581 21.701 15.4373 21.6574 15.4128 21.6235C15.3105 21.5388 15.249 21.3788 15.1681 21.2567C15.0093 21.0185 14.8855 21.0356 14.7927 21.3736L14.8004 21.3626C14.8 21.4302 14.7705 21.4655 14.7452 21.5049L14.7074 21.6009C14.682 21.6672 14.6583 21.7349 14.6453 21.8124C14.6287 21.9001 14.6151 21.9906 14.5817 22.066C14.5654 22.1003 14.5457 22.1298 14.5247 22.1558C14.5051 22.1832 14.4845 22.2089 14.4646 22.236C14.4561 22.2521 14.4468 22.2669 14.4383 22.2833C14.4234 22.3196 14.4078 22.355 14.3928 22.3916C14.376 22.4354 14.3581 22.4776 14.338 22.5163L14.3583 22.4881L14.3862 22.4555C14.4702 22.3769 14.5453 22.289 14.6556 22.2372C14.6822 22.2315 14.7083 22.2339 14.7335 22.2422C14.7541 22.2051 14.7747 22.168 14.7953 22.1309L14.8668 22.0605C14.8929 22.0485 14.9175 22.0345 14.9407 22.0183C14.9599 21.9943 14.9797 21.9939 14.9999 22.0173L14.9934 22.0133L14.9936 22.1266C14.955 22.1353 14.9365 22.1585 14.9351 22.194C14.884 22.2353 14.8331 22.2767 14.782 22.3178C14.7822 22.319 14.7828 22.3197 14.783 22.3208C14.7802 22.3638 14.7691 22.4042 14.7382 22.4384C14.6943 22.5312 14.6513 22.6228 14.5556 22.6813C14.549 22.7001 14.5423 22.7193 14.5352 22.7383C14.3904 22.8812 14.2572 23.0457 14.0001 22.9883L14.026 22.9914C14.029 23.01 14.029 23.0296 14.0259 23.0503C13.9859 23.0519 13.9616 23.0321 13.9755 22.9587C13.9885 22.9603 14.0014 22.9571 14.0136 22.9496L14.0011 22.9511C14.0152 22.8064 14.1452 22.731 14.2441 22.637C14.1502 22.7136 14.0545 22.7799 13.9517 22.8132C13.9485 22.791 13.9495 22.7704 13.9489 22.7498C13.9252 22.7491 13.9017 22.7488 13.8783 22.7484C13.8754 22.746 13.8728 22.7467 13.87 22.745C13.8455 22.5897 13.9268 22.4269 13.8841 22.2727C13.8896 22.2357 13.8904 22.1952 13.8829 22.1486L13.8983 22.1116L13.8831 22.0742C13.8706 22.0972 13.8578 22.1202 13.8453 22.1431C13.8415 22.1164 13.839 22.0896 13.838 22.0619C13.8423 21.9347 13.873 21.8209 13.9007 21.7058C13.9501 21.4768 14.0166 21.2619 14.0939 21.0566C14.12 20.9794 14.1475 20.903 14.1693 20.8228C14.1546 20.8471 14.1416 20.8752 14.1343 20.9157L14.0723 21.1037C14.0308 21.2287 13.983 21.3447 13.894 21.4021C13.7519 21.5666 13.6754 21.8096 13.6159 22.0725C13.553 22.1003 13.5423 22.1867 13.536 22.2782C13.499 22.2967 13.4752 22.332 13.4774 22.4033L13.4167 22.5257L13.3556 22.6028C13.3585 22.611 13.3625 22.6158 13.3649 22.6251C13.3718 22.6717 13.3625 22.707 13.3394 22.7313C13.3257 22.7752 13.3107 22.8177 13.2941 22.8588C13.2765 22.8746 13.2699 22.8993 13.2743 22.9325C13.2466 23.0528 13.2005 23.0353 13.1503 22.988C13.1507 22.9822 13.1509 22.976 13.1511 22.9699C13.1483 22.9692 13.1465 22.9716 13.1435 22.9712C13.1267 22.8451 13.1639 22.7409 13.1946 22.6346C13.2175 22.6158 13.2262 22.5856 13.2207 22.5435C13.2379 22.5294 13.2547 22.5137 13.2709 22.4965C13.3115 22.1239 13.4576 21.8302 13.5927 21.5755C13.779 21.2252 13.9234 20.8224 14.1143 20.4828C14.1178 20.4814 14.1212 20.4793 14.1246 20.4776C14.0977 20.3895 14.0991 20.2596 14.012 20.2651C14.0174 20.237 14.0223 20.2062 14.0259 20.1712C13.9218 20.1948 13.797 20.1407 13.7502 20.3816C13.7094 20.3851 13.6898 20.4276 13.6817 20.4906C13.7298 20.4999 13.749 20.4574 13.7504 20.3823C13.7691 20.3991 13.7866 20.4135 13.8036 20.4248C13.7862 20.4533 13.7684 20.4814 13.751 20.5102L13.6952 20.623C13.5532 20.9983 13.4479 21.4045 13.3384 21.8076C13.2832 22.0108 13.2017 22.1856 13.0814 22.2963C13.0716 22.327 13.0592 22.355 13.0456 22.3812L12.958 22.5291L12.9533 22.5397C12.9034 22.5757 12.9242 22.7094 12.8623 22.7289L12.8724 22.7197C12.8348 22.8098 12.7854 22.8814 12.7401 22.9592C12.7278 23.0131 12.7047 23.0515 12.677 23.083C12.66 23.1419 12.6497 23.2153 12.6052 23.2482C12.5905 23.2533 12.5781 23.254 12.5664 23.254C12.3067 23.6859 12.0891 24.187 11.8089 24.5857C11.7699 24.6415 11.7246 24.731 11.6791 24.61C11.6657 24.5747 11.6868 24.5027 11.692 24.4475C11.7325 24.3629 11.7725 24.2786 11.8128 24.1939C11.92 23.8062 12.1111 23.5228 12.263 23.1906C12.2466 23.2081 12.2296 23.2249 12.2084 23.2359L12.1989 23.2317C12.2037 23.2184 12.2086 23.2057 12.2132 23.1927C12.1716 23.1872 12.1568 23.1351 12.1437 23.0802C12.1659 22.9041 12.2333 22.7745 12.295 22.6394C12.2881 22.5942 12.2836 22.5479 12.2834 22.4999C12.2848 22.4201 12.2952 22.344 12.3164 22.2727C12.4092 22.0585 12.4932 21.8329 12.5884 21.6129C12.4515 21.7531 12.4078 22.0156 12.3069 22.1983C12.2798 22.2274 12.2499 22.2425 12.2177 22.2442C12.2143 22.2432 12.2124 22.2394 12.2092 22.2381C12.0609 22.7484 11.8601 23.2091 11.7254 23.7363C11.6135 24.1757 11.3773 24.4633 11.1714 24.7783L11.1094 24.8646C11.0901 24.8947 11.0742 24.9293 11.0672 24.9785C10.9442 25.0457 10.8728 24.9504 10.8298 24.7643L10.8221 24.4479C10.9266 24.2546 10.9386 23.9831 11.0205 23.7702C11.0569 23.7555 11.0796 23.7185 11.0856 23.6547C11.1315 23.5827 11.1775 23.5104 11.2234 23.4377C11.2665 23.4439 11.2911 23.4103 11.2994 23.3397C11.3439 23.2657 11.3884 23.1916 11.4331 23.1179C11.511 23.0926 11.5518 23.0103 11.5622 22.8801C11.5978 22.8722 11.6245 22.8455 11.6356 22.7838C11.7426 22.7358 11.8059 22.6148 11.8354 22.4382C11.8724 22.4283 11.8953 22.3937 11.9032 22.3313C11.9412 22.3172 11.9602 22.2751 11.9649 22.212C12.0132 22.1657 12.0615 22.1195 12.1099 22.0729C12.085 21.8843 12.0581 21.6968 12.0164 21.5159C12.0134 21.4792 12.0075 21.447 12.0001 21.4178C11.9548 21.3273 11.9151 21.2218 11.8229 21.2684C11.7782 21.1762 11.657 21.1854 11.6649 21.0236C11.6501 21.0247 11.6358 21.0233 11.621 21.0178C11.4501 20.9078 11.3336 20.9671 11.2826 21.2934C11.2497 21.5035 11.1611 21.6632 11.0788 21.825C11.0168 21.9205 10.9576 21.9022 10.8989 21.8614L10.8286 21.8076L10.8354 21.8196C10.6708 21.7034 10.5051 21.6149 10.3751 21.9183C10.313 22.0636 10.2098 21.97 10.1413 22.0591C10.1295 22.1092 10.1081 22.1537 10.0699 22.162C10.0583 22.2069 10.0436 22.2113 10.0248 22.1671C9.84394 22.1147 9.671 22.0485 9.69972 21.6297L9.69345 21.6393C9.75433 21.4562 9.66493 21.182 9.81744 21.0548L9.8664 21.0019C9.92139 20.9144 9.94563 20.7707 10.0248 20.7268C10.0515 20.5582 10.1002 20.4118 10.1738 20.2888C10.2911 19.9844 10.3124 19.6207 10.3913 19.2944C10.3937 19.2769 10.3996 19.2629 10.4046 19.2478C10.4618 19.233 10.5367 19.2735 10.5622 19.1525C10.5763 19.0846 10.5407 19.0202 10.4887 19.0171C10.4544 18.903 10.3987 18.904 10.366 18.9904C10.3401 19.0582 10.2679 19.1689 10.3684 19.2498C10.3684 19.2498 10.3727 19.2533 10.3769 19.256C10.3753 19.2749 10.3735 19.2937 10.3731 19.3132C10.3239 19.4829 10.2535 19.6207 10.1676 19.7372C10.1142 19.7602 10.0581 19.7595 10.0051 19.7866C9.9839 19.8843 9.91716 19.8624 9.88034 19.9193C9.84839 19.9823 9.85688 20.0841 9.81097 20.1338C9.79883 20.1897 9.77395 20.2271 9.74725 20.2617L9.73139 20.3037C9.71513 20.3737 9.71979 20.4676 9.6706 20.4852C9.57695 20.5191 9.57654 20.3772 9.55733 20.2754C9.48917 19.9189 9.64673 19.632 9.66008 19.3023C9.64491 19.2056 9.75979 19.3338 9.72319 19.1981C9.7157 19.1292 9.7242 19.0723 9.76242 19.038C9.77355 18.9835 9.79701 18.9465 9.82472 18.9153L9.82939 18.928L9.84512 18.8444L9.85364 18.7573C9.85486 18.7175 9.86052 18.6795 9.86942 18.6425C9.88115 18.6092 9.89511 18.578 9.91008 18.5489C9.91716 18.5341 9.92504 18.5204 9.93192 18.5057C9.94487 18.4766 9.9572 18.446 9.96711 18.4131C9.96671 18.4129 9.96756 18.4069 9.96882 18.3991L9.9744 18.3604C9.97258 18.3083 9.96347 18.2688 9.92626 18.2729C9.90886 18.2963 9.8941 18.3192 9.88115 18.349C9.86699 18.384 9.85263 18.4152 9.83746 18.4488C9.82917 18.4676 9.82108 18.4841 9.81299 18.5023C9.70781 18.6719 9.58463 18.7933 9.45559 18.8988C9.42303 18.9513 9.38217 18.9801 9.34313 19.013C9.17101 19.2056 9.21126 18.8838 9.15907 18.7813C9.00394 18.7305 8.97117 18.9554 8.91009 19.11C8.83363 19.3043 8.80855 19.5542 8.68942 19.7037C8.63521 19.7578 8.58748 19.7801 8.56078 19.655L8.56927 19.6149L8.55006 19.5875C8.51082 19.475 8.49383 19.3657 8.5626 19.269C8.56826 19.2128 8.59537 19.1803 8.61337 19.1374L8.63339 19.1141L8.62894 19.0733C8.65099 18.9276 8.69286 18.8032 8.76264 18.7086C8.77012 18.6483 8.79581 18.6119 8.82291 18.5773C8.80228 18.4464 8.96935 18.1879 8.73371 18.2051C8.74423 18.178 8.75151 18.1478 8.74605 18.1067C8.70236 18.1142 8.65847 18.1225 8.61478 18.13C8.60932 18.1605 8.59658 18.1914 8.58364 18.2219C8.53408 18.2065 8.48271 18.1797 8.46288 18.1053C8.36519 17.7403 8.39108 18.1629 8.35083 18.1533C8.26851 18.2027 8.1872 18.2603 8.0976 18.2541C8.07252 18.2558 8.04744 18.2575 8.02256 18.2623C8.02438 18.2208 8.026 18.1794 8.02782 18.1382C7.96916 18.1105 7.91131 18.0861 7.88664 18.2222C7.86459 18.2678 7.84396 18.3158 7.81423 18.3494L7.81491 18.3919L7.81847 18.4262C7.79016 18.4608 7.76912 18.5057 7.7493 18.553C7.76063 18.6294 7.75193 18.7151 7.75678 18.795C7.77155 18.8111 7.78773 18.8179 7.80513 18.8159L7.83418 18.8727C7.87288 18.9674 7.84608 19.0197 7.75355 19.0294L7.73676 18.9972L7.71208 19.0085C7.68316 18.9934 7.66819 18.9599 7.66233 18.9136C7.64776 18.9132 7.6332 18.9129 7.61884 18.9129C7.58055 18.7607 7.53704 18.7843 7.49281 18.83L7.44851 18.8773L7.42649 18.8958C7.40019 18.7998 7.35853 18.7069 7.40424 18.5986L7.39575 18.5883C7.37511 18.5821 7.36015 18.5646 7.35084 18.5372C7.34983 18.5355 7.34801 18.5345 7.3468 18.5324L7.32334 18.4903C7.29809 18.5033 7.29549 18.52 7.29961 18.538L7.31749 18.5931L7.31403 18.6181C7.27358 18.7878 7.27095 19.0462 7.09255 18.8882L7.09822 18.8978C6.71109 18.8862 6.6763 18.4173 6.65829 17.9257C6.65486 17.8359 6.65931 17.7427 6.62876 17.6615C6.59883 17.6313 6.57274 17.596 6.56829 17.5322C6.38989 17.3183 6.39434 17.7855 6.26955 17.7708L6.24507 17.7516L6.22141 17.7742C6.12553 17.8997 5.99224 17.7547 5.8992 17.9021L5.89253 17.9137C5.83205 17.9795 5.86178 18.0587 5.881 18.1365L5.87839 18.13C5.69374 18.4637 5.5264 18.5605 5.2615 18.4655L5.16944 18.4269C5.07154 18.1986 5.11988 17.8894 5.02563 17.6591L5.02785 17.6652L5.02639 17.663L5.02739 17.664L5.02639 17.661L5.00713 17.5769C4.96174 17.3214 5.14171 17.4353 5.20489 17.3578L5.22 17.3283C5.26491 17.2594 5.30657 17.1867 5.35795 17.1339C5.61179 16.9454 5.66276 16.4165 5.90082 16.202C5.9168 16.1845 5.9348 16.1732 5.9526 16.1612C5.95361 16.1749 5.95462 16.1886 5.95543 16.202C5.97768 16.203 6.00033 16.2044 6.02258 16.2054L6.0492 16.2495C6.12572 16.3606 6.16929 16.2844 6.18601 16.1074C6.20725 15.8811 6.06748 15.9452 6.01449 15.851C5.99993 15.8636 5.98901 15.878 5.9797 15.8935C5.9613 15.8702 5.95078 15.8424 5.96453 15.8033C5.95521 15.6636 5.96819 15.5419 6.01127 15.4443C5.99219 15.383 5.99249 15.3207 6.04791 15.2588C6.07239 15.2384 6.0988 15.2211 6.12679 15.2063C6.15397 15.1234 6.1893 15.0467 6.21433 14.9605C6.23516 14.9371 6.239 14.9073 6.22626 14.871C6.2926 14.7397 6.21008 14.5371 6.29786 14.4161C6.24264 13.6734 6.64515 13.5596 6.87876 13.2195C6.9362 13.1363 7.02399 13.1716 7.08082 13.2881L7.07091 13.2771C7.18944 13.5668 6.9267 13.6014 6.94369 13.8235L6.93101 13.8728C6.91931 13.9349 6.91552 14.0039 6.87714 14.0422C6.83022 14.2307 6.83851 14.4562 6.74507 14.6143L6.69832 14.7556C6.67158 14.8612 6.65202 14.973 6.60874 15.064L6.60939 15.061C6.609 15.0724 6.60439 15.0896 6.59997 15.1069L6.62779 15.1047L6.75366 15.0897C6.79187 15.0598 6.83008 15.0299 6.8686 15C6.88399 15.0052 6.8979 15.0104 6.9104 15.0157C6.95651 14.8651 7.00462 14.714 7.10348 14.6451C7.11197 14.6033 7.12936 14.5793 7.15404 14.569C7.15404 14.5488 7.15202 14.5289 7.15445 14.509C7.24728 14.4377 7.20501 14.2876 7.22281 14.1724C7.3288 14.0802 7.35833 13.9178 7.36197 13.7323C7.38138 13.7337 7.39939 13.7258 7.41577 13.708C7.44287 13.7532 7.46998 13.7981 7.49728 13.843C7.49324 13.9136 7.48899 13.9839 7.48515 14.0545C7.39918 14.1673 7.35469 14.3167 7.34801 14.5001C7.31342 14.5286 7.30452 14.5759 7.30007 14.6266C7.31019 14.6359 7.3205 14.6458 7.33082 14.6561C7.61399 14.9118 7.73352 14.6328 7.83102 14.2814C7.79724 14.2646 7.76993 14.2297 7.75092 14.1694L7.75072 14.0559C7.73231 14.0127 7.73838 13.9839 7.76386 13.9668C7.77115 13.9047 7.79906 13.8708 7.82616 13.8352C7.87005 13.8324 7.94691 13.7642 7.94529 13.8903C7.94246 14.1118 8.02943 14.0223 8.08647 14.0436C8.098 14.0785 8.1154 14.097 8.13886 14.1001C8.14816 14.1053 8.15282 14.1111 8.15787 14.1169C8.21693 14.1077 8.259 14.0364 8.29885 13.9572C8.33586 13.8825 8.38724 13.8132 8.42445 13.7214C8.44165 13.6802 8.46369 13.6387 8.49585 13.6165C8.5533 13.4804 8.47482 13.2836 8.56483 13.1613L8.58374 13.0877C8.59677 12.9659 8.55754 12.8184 8.63198 12.7263C8.63703 12.6643 8.66232 12.629 8.69083 12.5974C8.7416 12.4545 8.72299 12.2067 8.8844 12.231C8.90705 12.2334 8.9295 12.2361 8.95216 12.2389C9.03428 12.0353 8.90503 11.6325 9.15826 11.5911C9.17323 11.5325 9.1973 11.492 9.23614 11.4807L9.23088 11.4893C9.32068 11.5126 9.3451 11.601 9.35667 11.7022L9.37095 11.8568L9.38318 11.929C9.38136 12.0007 9.37651 12.0716 9.36073 12.1381C9.35102 12.1799 9.33868 12.22 9.32493 12.2584C9.31198 12.2951 9.29681 12.3297 9.28104 12.363C9.27416 12.3798 9.26627 12.3959 9.2596 12.4127C9.23371 12.4788 9.21712 12.5529 9.20236 12.6279C9.19447 12.6632 9.18213 12.6944 9.16696 12.7215C9.14876 12.7239 9.14269 12.7129 9.14067 12.704C9.14047 12.7092 9.13986 12.7157 9.13865 12.7263C9.13662 12.7431 9.16514 12.776 9.17546 12.8072C9.18658 12.838 9.188 12.871 9.18092 12.9042L9.17741 12.9376L9.17606 12.9494C9.17606 12.9494 9.19447 12.9145 9.19487 12.9131C9.20479 12.8802 9.21631 12.8507 9.22966 12.8216C9.24443 12.7901 9.26061 12.7623 9.27821 12.7356L9.30753 12.6975C9.32028 12.6845 9.33342 12.6745 9.34718 12.667C9.31805 12.5745 9.38642 12.5347 9.40786 12.4696L9.42161 12.2577L9.49503 12.0589C9.51202 12.0517 9.52881 12.0442 9.5458 12.037C9.5903 12.1313 9.66817 12.2043 9.617 12.3589C9.56684 12.4254 9.51667 12.4919 9.48512 12.5889C9.48654 12.6142 9.48795 12.6389 9.48937 12.6639C9.50676 12.667 9.52396 12.6704 9.54155 12.6718C9.66332 12.6944 9.78123 12.6437 9.90017 12.6187C9.91432 12.5172 9.98835 12.547 10.0153 12.4737C10.0925 12.1964 10.1542 11.9064 10.2883 11.6884C10.334 11.5808 10.3656 11.4509 10.4252 11.3539C10.4703 11.2034 10.4315 10.9905 10.5452 10.8911C10.5771 10.8593 10.5962 10.8123 10.6265 10.7904C10.7537 10.2611 10.7307 9.64826 10.9192 9.14337C10.9966 8.93565 11.0939 8.76667 11.223 8.65219C11.352 8.54182 11.4808 8.54593 11.6103 8.64876C11.6285 8.67001 11.6402 8.6988 11.6485 8.73136C11.7751 8.73102 11.8087 8.87258 11.8045 9.07105C11.7697 9.08647 11.7458 9.1204 11.7375 9.18142C11.6592 9.22015 11.6777 9.32675 11.6791 9.42135L11.6465 9.43027L11.6139 9.42101C11.6139 9.42101 11.6125 9.42067 11.6117 9.42033C11.6103 9.49299 11.6069 9.56223 11.6034 9.63113C11.5385 9.67294 11.5092 9.61159 11.4806 9.54749C11.4798 9.55023 11.4786 9.55229 11.4778 9.55469C11.3929 9.66712 11.491 9.87175 11.4038 9.9828L11.4097 9.97424C11.3751 10.1007 11.3342 10.22 11.2784 10.3232C11.2464 10.3869 11.2582 10.4966 11.2023 10.5347C11.1831 10.7259 11.0864 10.8764 11.0978 11.0992C11.2177 11.0611 11.2513 10.8387 11.3556 10.7886C11.3884 10.7297 11.3765 10.62 11.4277 10.5754C11.4392 10.5158 11.4614 10.4757 11.4991 10.464C11.5458 10.2875 11.5972 10.2166 11.6457 10.4658C11.6483 10.4794 11.6501 10.4942 11.6515 10.5094L11.658 10.6013C11.6649 10.674 11.6827 10.7269 11.7652 10.681C11.7871 10.6968 11.8047 10.6872 11.8174 10.6536C11.8451 10.6221 11.8704 10.5833 11.9042 10.57C11.9461 10.5864 11.9857 10.5868 12.0162 10.5233C12.0652 10.4829 12.1099 10.4915 12.1497 10.5569C12.1732 10.596 12.2033 10.6142 12.2335 10.6306C12.2549 10.6447 12.2745 10.6395 12.2923 10.6145C12.3067 10.5874 12.3202 10.56 12.3326 10.5302L12.3552 10.4843L12.3516 10.4469L12.3718 10.4363C12.3763 10.4212 12.3817 10.4071 12.3838 10.3893C12.3896 10.3499 12.3997 10.3153 12.4145 10.2834L12.4246 10.2615C12.424 10.2498 12.4224 10.2385 12.422 10.2269C12.4295 10.2231 12.4371 10.2217 12.4448 10.219C12.4499 10.2077 12.4558 10.197 12.4606 10.1857C12.4685 10.1682 12.4766 10.1521 12.4847 10.1346C12.4865 10.1319 12.4889 10.1316 12.4907 10.1292C12.4999 10.1117 12.5128 10.1007 12.5284 10.0928L12.5344 10.087L12.5405 10.0815L12.5672 9.90705C12.604 9.88786 12.6244 9.84741 12.6248 9.78057C12.6851 9.70276 12.7116 9.54681 12.8085 9.55572C12.8676 9.77132 12.7608 9.91905 12.7314 10.099C12.7468 10.1926 12.7329 10.2745 12.6973 10.3482C12.6853 10.3602 12.6732 10.3667 12.6609 10.3674C12.6584 10.3893 12.658 10.4126 12.6536 10.4342C12.6437 10.4726 12.6311 10.5086 12.6176 10.5408L12.5996 10.5847C12.5897 10.6073 12.583 10.6354 12.5828 10.6629C12.6422 10.6029 12.6665 10.4832 12.7284 10.4342C12.7288 10.3005 12.7589 10.1915 12.8237 10.112C12.8409 10.1096 12.8579 10.1052 12.8746 10.0987C12.8953 10.1377 12.921 10.161 12.9511 10.171L12.8732 10.425C12.8661 10.4709 12.8562 10.4891 12.8439 10.486C12.8534 10.536 12.8564 10.5943 12.8989 10.6022C12.9082 10.5998 12.9175 10.6015 12.9268 10.6008C12.9309 10.6197 12.9353 10.6389 12.9416 10.6591C12.9887 10.7006 13.0354 10.7417 13.0822 10.7828L13.1127 10.7866L13.1406 10.7671C13.2205 10.7023 13.2614 10.5871 13.2844 10.449C13.2638 10.4195 13.2409 10.3955 13.2179 10.3708C13.2292 10.3173 13.2407 10.2724 13.2523 10.2279C13.3696 9.80388 13.5909 9.53618 13.7771 9.21569C13.8756 9.30139 13.9721 9.20027 14.0631 9.24586L14.086 9.22049L14.1477 9.20678C14.2919 9.07859 14.3117 9.23112 14.3127 9.41895C14.3137 9.62736 14.3263 9.80491 14.4925 9.66883C14.6728 9.68837 14.606 9.91151 14.6038 10.0812L14.5983 10.098C14.6479 10.135 14.6954 10.135 14.7243 10.0233C14.7632 9.87278 14.8313 9.73978 14.8291 9.56223C14.9068 9.44021 14.9351 9.27602 14.9626 9.11149C15.0002 9.02717 15.0376 8.94251 15.0753 8.85819C15.1523 8.89795 15.1382 9.02135 15.1576 9.11458L15.142 9.30687C15.1062 9.32572 15.0866 9.3672 15.0817 9.42992C14.9764 9.57046 14.9675 9.79977 14.9096 9.98349C14.8702 10.1086 14.9586 10.098 14.9996 10.1302L15.014 10.2049C15.0277 10.2155 15.0411 10.2262 15.0544 10.2365C15.2634 10.3797 15.3568 10.1789 15.4199 9.88649L15.4559 9.86856C15.5318 9.85747 15.4915 10.0697 15.5506 10.0904C15.5949 10.1919 15.6396 10.1569 15.6845 10.1155C15.7276 10.04 15.7688 10.0342 15.8068 10.1281L15.8313 10.1665C15.8545 10.2234 15.8496 10.2959 15.8406 10.3602C15.806 10.6077 15.9278 10.6423 16.0093 10.6937C16.1266 10.7681 16.1533 10.5912 16.1806 10.4514C16.2423 10.1353 16.3481 9.85358 16.4203 9.54578L16.4184 9.55V9.552L16.4407 9.46023C16.4596 9.3629 16.4726 9.26021 16.5116 9.18163L16.5603 9.11218C16.6295 8.96033 16.6893 9.0707 16.7306 9.15914C16.7812 9.26677 16.8176 9.39976 16.7292 9.51219C16.731 9.578 16.7015 9.61227 16.6784 9.65306C16.663 9.67774 16.6576 9.70448 16.6624 9.73121C16.6673 9.75829 16.6721 9.77235 16.6776 9.77235L16.6954 9.81348C16.715 9.87223 16.7122 9.92597 16.6638 9.96875C16.6074 10.3012 16.6094 10.6505 16.5623 10.9851C16.5581 11.0142 16.5536 11.043 16.5487 11.0718C16.5251 11.0522 16.5014 11.0324 16.4778 11.0132C16.5002 11.2154 16.3936 11.3727 16.4092 11.5729C16.432 11.6205 16.4531 11.6157 16.4723 11.566C16.5196 11.419 16.5668 11.2723 16.6137 11.1252C16.5997 11.1139 16.5858 11.1019 16.5716 11.0906C16.5797 11.0694 16.5872 11.0471 16.5975 11.0279C16.9573 10.6536 16.9701 10.6581 17.0886 11.2665C17.2261 10.9299 17.4743 10.9497 17.626 10.681L17.6224 10.693L17.6612 10.6077C17.7513 10.4061 17.8444 10.2127 18.0056 10.2056L18.0791 10.2145C18.2029 10.3537 18.2308 10.5268 18.1393 10.7297C18.0617 10.9014 18.0202 11.1167 17.9092 11.2713C18.0186 11.1835 18.0853 11.0241 18.1857 10.9491C18.2205 10.9107 18.255 10.8706 18.2866 10.824C18.3066 10.7914 18.3299 10.7671 18.3554 10.7485C18.357 10.7485 18.3582 10.7496 18.36 10.7496L18.6118 10.1069C18.6503 10.1048 18.6804 10.0836 18.6905 10.0133C18.7336 9.93722 18.7767 9.86112 18.82 9.78503C18.857 9.77475 18.8944 9.76446 18.9316 9.75418L18.9423 9.65032C19.0077 9.60199 19.1017 9.71031 19.1458 9.54406C19.183 9.5331 19.2071 9.49916 19.2144 9.43404C19.2486 9.42204 19.2769 9.3977 19.2882 9.33566C19.3086 9.336 19.3262 9.32469 19.341 9.30139C19.341 9.32709 19.3454 9.35006 19.3547 9.37097C19.3774 9.37028 19.395 9.38639 19.4071 9.4193L19.3446 9.49539L19.3145 9.59279C19.3022 9.62222 19.288 9.64902 19.2728 9.67442L19.1765 9.82002L19.1327 9.89883C19.1343 9.90534 19.1363 9.91185 19.1379 9.91871C19.1594 10.1028 19.145 10.2728 19.0683 10.4174C19.04 10.4623 19.0099 10.4812 18.9783 10.4843C18.9638 10.5364 18.9494 10.5885 18.935 10.6406C18.9421 10.6481 18.9496 10.6543 18.9563 10.6639C18.9864 10.8082 18.9486 10.9408 18.9318 11.0769C18.9302 11.0893 18.9288 11.1013 18.9272 11.1136C18.9439 11.0882 18.9632 11.0687 18.9848 11.0546C18.984 11.0454 18.9814 11.0375 18.982 11.0272C18.9905 10.9696 19.0056 10.9162 19.02 10.8627C19.0283 10.8264 19.0386 10.7917 19.0491 10.7578C19.0649 10.7057 19.0807 10.6543 19.0958 10.6015C19.1054 10.5655 19.1171 10.5316 19.1302 10.499C19.1432 10.4654 19.1577 10.4339 19.1725 10.4024C19.1792 10.3859 19.1865 10.3701 19.1931 10.3533C19.2059 10.3177 19.2196 10.2844 19.2336 10.2502C19.2597 10.1912 19.288 10.137 19.3311 10.1189C19.3382 10.1494 19.3491 10.1778 19.3638 10.2039C19.3806 10.2275 19.3996 10.2399 19.4199 10.2471C19.4359 10.3256 19.4108 10.3934 19.3976 10.464C19.3873 10.4963 19.3768 10.5285 19.3665 10.56H19.3766L19.3853 10.5408C19.3853 10.5405 19.4013 10.4922 19.4011 10.4918C19.4092 10.4572 19.4189 10.4239 19.4296 10.3914C19.4397 10.3564 19.4553 10.3304 19.4759 10.3132L19.6155 10.3276C19.6656 10.547 19.6236 10.7297 19.5358 10.8935C19.5153 11.007 19.4692 11.1201 19.4876 11.2332H19.5111C19.6426 11.1708 19.6027 10.8332 19.7518 10.8003C19.8252 10.6584 19.9439 10.8332 20.0228 10.6947C20.0453 10.6032 20.0714 10.5165 20.1153 10.4534C20.0981 10.4497 20.0841 10.4349 20.0803 10.4027C20.0782 10.3869 20.1209 10.3557 20.1432 10.3314C20.1438 10.3598 20.1448 10.388 20.1456 10.4164C20.1482 10.414 20.15 10.4106 20.1527 10.4078C20.1962 10.39 20.239 10.3842 20.2763 10.4394C20.2914 10.4719 20.3092 10.476 20.3292 10.4524C20.3994 10.5059 20.4692 10.5425 20.5372 10.4438C20.5578 10.4277 20.5627 10.4027 20.5511 10.3691C20.5736 10.2759 20.5853 10.1826 20.5523 10.0891C20.5196 10.0692 20.4975 10.0291 20.4803 9.97903C20.4108 9.8385 20.4528 9.74767 20.5445 9.72265C20.6393 9.69625 20.74 9.72367 20.8181 9.59754C20.8349 9.57765 20.8517 9.55812 20.8687 9.53961C20.8733 9.57354 20.8745 9.61056 20.8723 9.64964C20.9415 9.66266 20.9716 9.54955 21.0258 9.51459L21.044 9.47071C21.2829 9.55709 21.0629 9.82993 21.0849 9.99994C21.1719 9.87278 21.2127 9.67363 21.2637 9.48614C21.4465 9.24209 21.505 8.79169 21.7471 8.64499C21.7635 8.60146 21.7859 8.56204 21.8145 8.53496C21.8442 8.4335 21.8846 8.34884 21.9387 8.27926C22.0673 8.11404 22.1939 7.85937 22.3672 8.09622C22.5252 8.31216 22.3786 8.53188 22.3325 8.74439L22.3334 8.739L22.3325 8.74439L22.2725 9.03689C22.2006 9.44681 22.1614 9.87552 22.0291 10.2498C21.9916 10.3191 21.9714 10.3986 21.9558 10.4846L21.9554 10.482L21.9439 10.4009C21.9429 10.3712 21.944 10.3403 21.9447 10.3097L21.9431 10.22C21.8149 10.3389 21.9186 10.5768 21.8557 10.7198C21.7874 10.875 21.6543 11.0029 21.8464 11.201C21.9144 10.9947 22.0414 10.8442 22.0127 10.5655C21.9951 10.5539 21.9832 10.5388 21.9732 10.5227C22.0918 10.2491 22.1075 9.87963 22.2605 9.63832C22.3438 9.59479 22.413 9.64107 22.4742 9.73567C22.4783 9.66472 22.4825 9.59376 22.4866 9.52315C22.5026 9.54406 22.52 9.55846 22.5382 9.56943C22.522 9.63524 22.5355 9.72847 22.4858 9.76378C22.5614 9.94373 22.4453 10.1583 22.5074 10.34C22.5127 10.3348 22.5183 10.3297 22.5258 10.3269C22.5371 10.2536 22.5481 10.1806 22.5594 10.1072C22.5497 10.0411 22.5715 10.0041 22.6023 9.97526C22.627 9.83062 22.6899 9.70414 22.6741 9.54064L22.6816 9.5274L22.6895 9.51836C22.682 9.4546 22.6812 9.39085 22.6913 9.32675C22.704 9.27945 22.7226 9.24003 22.7463 9.20712L22.7434 9.211L22.7444 9.21L22.7757 9.14697L22.811 9.10052C22.8294 9.05254 22.8517 9.01209 22.8832 8.98878C22.9386 8.73719 23.0353 8.88732 23.1203 8.924C23.186 8.9809 23.2519 8.95382 23.3175 8.92331C23.3812 8.93017 23.4546 8.88835 23.4939 9.02135C23.4969 9.07139 23.4799 9.10772 23.4641 9.14508C23.4643 9.16017 23.467 9.1749 23.4659 9.19033C23.4566 9.1941 23.4522 9.20438 23.4453 9.21158C23.4431 9.22392 23.4401 9.23557 23.4407 9.24997C23.4494 9.28802 23.4568 9.32709 23.4633 9.36651L23.4637 9.37645C23.4522 9.43781 23.4423 9.49882 23.468 9.55743C23.5555 9.78846 23.4251 9.90774 23.3703 10.0682C23.2788 10.3341 23.1348 10.5566 23.169 10.9189C23.1975 11.2202 23.2807 11.3384 23.4281 11.1523C23.4492 11.1257 23.4717 11.1028 23.4948 11.0819L23.6351 10.9635C23.6806 10.9213 23.723 10.8713 23.7566 10.7979L23.7554 10.799L23.7491 10.8164C23.807 10.7106 23.8636 10.7895 23.9205 10.8139L23.9489 10.8205C23.9684 10.8068 23.9876 10.7928 24.007 10.7791C24.0525 10.7208 24.0948 10.7153 24.1318 10.7962C24.2386 11.0152 24.2934 11.2716 24.3163 11.5499L24.325 11.5355C24.2214 11.6912 24.2477 11.9736 24.1302 12.1158C24.1186 12.1789 24.0962 12.2214 24.0549 12.229L24.0616 12.218C23.8417 12.4648 23.9002 12.6465 23.9943 12.8198L24.0677 12.949C24.0919 12.9922 24.1145 13.0357 24.1318 13.0804L24.1275 13.1249C24.0851 13.3248 24.082 13.4598 24.243 13.3268C24.4906 13.322 24.5602 13.6754 24.6743 13.9397C24.6969 13.9832 24.7297 13.999 24.7519 14.0367C24.7548 14.0535 24.7578 14.0641 24.7604 14.0723C24.7509 14.0713 24.7416 14.071 24.7319 14.0699C24.7159 14.1155 24.6931 14.1587 24.6856 14.2088C24.6789 14.253 24.6785 14.327 24.6945 14.3486C24.7388 14.4107 24.7758 14.3486 24.793 14.2849C24.8096 14.2225 24.8092 14.1471 24.8162 14.0775C24.8045 14.0765 24.7932 14.0754 24.7815 14.0744C24.7865 14.0614 24.7914 14.0432 24.7964 14.0292C24.8209 13.9942 24.8512 13.9795 24.8771 13.951C24.9487 13.707 25.0563 13.5705 25.2123 13.7193C25.3512 13.8516 25.3549 14.0624 25.2728 14.2821L25.2552 14.3113L25.2639 14.3496C25.2523 14.4203 25.2404 14.4898 25.238 14.5642C25.2327 14.7359 25.2374 14.9149 25.3393 14.9947C25.4696 15.0962 25.4688 14.8059 25.5533 14.7569C25.5917 14.6684 25.6358 14.5896 25.6908 14.5296C25.7499 14.4333 25.8191 14.6077 25.8787 14.5224C25.9089 14.4532 25.8949 14.3387 25.9564 14.3006C25.9857 14.2215 26.0227 14.2156 26.0668 14.2835C26.1144 14.3565 26.1024 14.4305 26.0676 14.5049L26.0684 14.501L26.0674 14.503L26.0676 14.5049L26.0406 14.6201C26.0251 14.7414 26.0431 14.8651 26.0569 14.9882L26.0519 14.9766C26.0736 15.0342 26.0741 15.089 26.0673 15.143L26.0389 15.3039L26.0345 15.3855C26.0254 15.4064 26.0138 15.4218 26.0011 15.4331L26.0074 15.524C25.9918 15.4883 25.9712 15.4753 25.9455 15.4852C25.9222 15.5007 25.9315 15.5644 25.9208 15.5648C25.9044 15.5651 25.899 15.525 25.905 15.4893C25.903 15.4636 25.8975 15.4407 25.8903 15.4187C25.9117 15.4503 25.9323 15.4475 25.952 15.4074C25.9471 15.3372 25.9501 15.2244 25.9095 15.2237C25.8555 15.2223 25.8227 15.318 25.8112 15.4146C25.791 15.4917 25.7707 15.5689 25.7505 15.6453C25.777 15.6926 25.7663 15.7673 25.7808 15.8232C25.7758 15.8441 25.7709 15.865 25.7675 15.8866C25.7744 15.8719 25.7814 15.8568 25.7885 15.8441C25.7938 15.8561 25.8003 15.8671 25.8102 15.8753C25.8619 15.9051 25.9125 16.0498 25.9657 15.8736C26.0003 15.7588 26.0418 15.6501 26.08 15.5387C26.097 15.5246 26.1152 15.5168 26.1342 15.514C26.135 15.4869 26.1405 15.463 26.149 15.441C26.1542 15.4462 26.1591 15.454 26.1647 15.4582C26.156 15.4791 26.1484 15.5007 26.1366 15.5171L26.1447 15.5801L26.1526 15.6429C26.1566 15.6614 26.1603 15.6803 26.1641 15.6988C26.1611 15.708 26.1589 15.718 26.1546 15.7265C26.155 15.7238 26.167 15.7313 26.1755 15.7361C26.184 15.757 26.1953 15.7738 26.2157 15.779C26.2651 15.6748 26.3003 15.5582 26.3288 15.4362C26.345 15.427 26.3611 15.417 26.3771 15.4071C26.4594 15.3526 26.5606 15.3553 26.616 15.2186C26.6174 15.2268 26.6188 15.2347 26.6172 15.2456C26.6708 15.308 26.7234 15.3639 26.7426 15.1929L26.8025 15.0684C26.8684 15.0722 26.9341 15.0763 26.9999 15.0801C26.9975 15.5277 26.9975 15.5277 26.7426 15.5397C26.7428 15.573 26.7422 15.6059 26.7404 15.6391C26.7177 15.6768 26.6953 15.7145 26.673 15.7526C26.6283 15.828 26.5838 15.9034 26.5395 15.9788C26.4882 15.9918 26.4368 15.9552 26.3919 15.9534C26.2788 15.949 26.1995 16.0275 26.3221 16.2253C26.3259 16.2606 26.3312 16.2959 26.333 16.3312C26.3528 16.7411 26.3516 16.7727 26.1542 16.7757C26.1354 16.7881 26.1162 16.8001 26.097 16.8121C26.0638 16.8536 26.0308 16.8967 25.9963 16.9355C25.9748 16.9626 25.9548 16.9934 25.9362 17.0267C25.9344 17.0479 25.9325 17.0695 25.9307 17.0911C25.9194 17.0952 25.9081 17.0973 25.8965 17.0997C25.8913 17.1089 25.8858 17.1178 25.8793 17.124C25.9058 17.1939 25.9091 17.258 25.8601 17.3101C25.852 17.3687 25.8272 17.4051 25.7997 17.4383C25.7434 17.5271 25.8128 17.7197 25.706 17.767L25.684 17.7619L25.6712 17.7924C25.5141 17.899 25.5033 17.7201 25.4952 17.535L25.5074 17.49L25.5038 17.4983L25.4989 17.5079C25.4489 17.5699 25.4002 17.6357 25.3442 17.682C25.3571 17.7019 25.363 17.7225 25.3571 17.7423C25.3502 17.767 25.3431 17.779 25.3359 17.7794C25.3158 17.8208 25.2944 17.8596 25.2673 17.8884C25.2228 17.9977 25.1967 18.1297 25.1285 18.2092C25.1196 18.2705 25.0964 18.3089 25.0618 18.3288C25.0486 18.3915 25.0215 18.4286 24.9839 18.446L24.9688 18.431L24.955 18.4495C24.9196 18.3974 24.8251 18.3977 24.8864 18.2586C24.904 18.1749 24.9004 18.0769 24.9439 18.0104L24.9424 18.013L24.9658 17.9356L24.9959 17.8647C24.9977 17.8729 24.9977 17.8812 25.0017 17.8894C25.0642 17.8575 25.0705 17.7759 25.0707 17.6889C25.0772 17.6858 25.0804 17.6817 25.0715 17.6741C25.0753 17.6693 25.0753 17.6663 25.0749 17.6632L25.0731 17.6642L25.0711 17.6649C25.0683 17.6717 25.0667 17.6704 25.0616 17.6676V17.6793C25.025 17.6937 25.008 17.7393 25.0039 17.8044C24.9857 17.8243 24.9649 17.8366 24.9398 17.8366C24.8516 17.7852 24.8013 17.7125 24.8852 17.5631L24.8814 17.57L24.8834 17.566L24.8824 17.567L24.9002 17.5113ZM5.13586 14C5.14116 14.0346 5.1481 14.0678 5.15116 14.1029C5.15259 14.1195 5.14626 14.1399 5.14382 14.1585C5.1175 14.2097 5.10036 14.2789 5.07832 14.3389C5.06608 14.374 5.06139 14.4144 5.06465 14.4603C4.99364 14.5758 5.00854 14.7655 4.99364 14.9288L4.87796 15C4.84572 14.9288 4.8398 14.8464 4.86041 14.7533C4.83837 14.5631 4.85816 14.4125 4.93325 14.3145C4.98977 14.2613 5.00221 14.139 5.01609 14.0185L5.13586 14ZM19.0169 8.00087C19.0506 8.00451 19.0843 8.00782 19.1179 8.01146C19.1891 8.06239 19.173 8.15102 19.1557 8.24065C19.1461 8.29059 19.1243 8.33193 19.1167 8.38319L19.0294 8.77742C18.9935 8.79561 18.971 8.83232 18.9694 8.89648L18.8955 9L18.8292 8.88391C18.8564 8.78172 18.8839 8.68019 18.9115 8.57799C18.9288 8.52673 18.9259 8.47084 18.9247 8.41527C18.9288 8.37823 18.9351 8.34185 18.9425 8.30647C18.9461 8.26942 18.9492 8.23304 18.9504 8.19567C18.9486 8.13912 18.9478 8.08256 18.9725 8.0356C18.9825 8.00815 18.9976 7.99657 19.0169 8.00087ZM22.9598 6.0288C23.2626 5.8818 23.1048 6.33348 23.1103 6.57219C23.0366 6.72987 22.9888 6.96105 22.8614 7C22.8147 6.62371 22.9838 6.37117 22.9598 6.0288Z" fill="white"/>
<path d="M6.36498 18V17.04H6.80498V16.48H6.36498V14.3H5.48498L4.10498 16.54V17.04H5.67998V18H6.36498ZM5.67998 16.48H4.81998L5.39498 15.56C5.49998 15.36 5.59998 15.155 5.68998 14.96H5.70998C5.69998 15.175 5.67998 15.51 5.67998 15.725V16.48ZM8.32498 18.07C9.00998 18.07 9.61998 17.595 9.61998 16.77C9.61998 15.965 9.09998 15.595 8.47998 15.595C8.30998 15.595 8.17998 15.63 8.03498 15.7L8.10498 14.915H9.44998V14.3H7.46998L7.36998 16.095L7.70498 16.315C7.91998 16.175 8.03998 16.12 8.25998 16.12C8.63498 16.12 8.88498 16.36 8.88498 16.79C8.88498 17.225 8.61498 17.47 8.22998 17.47C7.88498 17.47 7.62498 17.3 7.41498 17.095L7.07498 17.565C7.34998 17.84 7.73998 18.07 8.32498 18.07ZM11.47 18.07C12.1 18.07 12.63 17.595 12.63 16.835C12.63 16.04 12.19 15.67 11.57 15.67C11.33 15.67 11.01 15.82 10.81 16.065C10.84 15.14 11.19 14.82 11.615 14.82C11.83 14.82 12.055 14.94 12.185 15.09L12.575 14.65C12.35 14.42 12.02 14.23 11.57 14.23C10.825 14.23 10.14 14.82 10.14 16.2C10.14 17.505 10.765 18.07 11.47 18.07ZM11.455 17.515C11.145 17.515 10.895 17.255 10.825 16.58C11.01 16.295 11.23 16.19 11.43 16.19C11.75 16.19 11.955 16.395 11.955 16.835C11.955 17.285 11.73 17.515 11.455 17.515ZM14.11 18.07C14.845 18.07 15.53 17.465 15.53 16.065C15.53 14.78 14.9 14.23 14.2 14.23C13.565 14.23 13.035 14.705 13.035 15.465C13.035 16.25 13.48 16.63 14.095 16.63C14.35 16.63 14.665 16.475 14.855 16.225C14.825 17.155 14.48 17.47 14.065 17.47C13.845 17.47 13.615 17.355 13.48 17.21L13.095 17.65C13.315 17.875 13.65 18.07 14.11 18.07ZM14.235 16.105C13.915 16.105 13.71 15.9 13.71 15.465C13.71 15.01 13.935 14.785 14.21 14.785C14.525 14.785 14.78 15.035 14.845 15.71C14.665 15.995 14.435 16.105 14.235 16.105ZM17.39 16.83V16.305H16.025V16.83H17.39ZM19.995 18V17.04H20.435V16.48H19.995V14.3H19.115L17.735 16.54V17.04H19.31V18H19.995ZM19.31 16.48H18.45L19.025 15.56C19.13 15.36 19.23 15.155 19.32 14.96H19.34C19.33 15.175 19.31 15.51 19.31 15.725V16.48ZM21.955 18.07C22.64 18.07 23.25 17.595 23.25 16.77C23.25 15.965 22.73 15.595 22.11 15.595C21.94 15.595 21.81 15.63 21.665 15.7L21.735 14.915H23.08V14.3H21.1L21 16.095L21.335 16.315C21.55 16.175 21.67 16.12 21.89 16.12C22.265 16.12 22.515 16.36 22.515 16.79C22.515 17.225 22.245 17.47 21.86 17.47C21.515 17.47 21.255 17.3 21.045 17.095L20.705 17.565C20.98 17.84 21.37 18.07 21.955 18.07ZM25.1 18.07C25.73 18.07 26.26 17.595 26.26 16.835C26.26 16.04 25.82 15.67 25.2 15.67C24.96 15.67 24.64 15.82 24.44 16.065C24.47 15.14 24.82 14.82 25.245 14.82C25.46 14.82 25.685 14.94 25.815 15.09L26.205 14.65C25.98 14.42 25.65 14.23 25.2 14.23C24.455 14.23 23.77 14.82 23.77 16.2C23.77 17.505 24.395 18.07 25.1 18.07ZM25.085 17.515C24.775 17.515 24.525 17.255 24.455 16.58C24.64 16.295 24.86 16.19 25.06 16.19C25.38 16.19 25.585 16.395 25.585 16.835C25.585 17.285 25.36 17.515 25.085 17.515ZM27.74 18.07C28.475 18.07 29.16 17.465 29.16 16.065C29.16 14.78 28.53 14.23 27.83 14.23C27.195 14.23 26.665 14.705 26.665 15.465C26.665 16.25 27.11 16.63 27.725 16.63C27.98 16.63 28.295 16.475 28.485 16.225C28.455 17.155 28.11 17.47 27.695 17.47C27.475 17.47 27.245 17.355 27.11 17.21L26.725 17.65C26.945 17.875 27.28 18.07 27.74 18.07ZM27.865 16.105C27.545 16.105 27.34 15.9 27.34 15.465C27.34 15.01 27.565 14.785 27.84 14.785C28.155 14.785 28.41 15.035 28.475 15.71C28.295 15.995 28.065 16.105 27.865 16.105Z" fill="#595959"/>
</g>
<path d="M23 30C26.866 30 30 26.866 30 23C30 19.134 26.866 16 23 16C19.134 16 16 19.134 16 23C16 26.866 19.134 30 23 30Z" fill="#F7BE56"/>
<path d="M23 28C25.7614 28 28 25.7614 28 23C28 20.2386 25.7614 18 23 18C20.2386 18 18 20.2386 18 23C18 25.7614 20.2386 28 23 28Z" fill="#FCD462"/>
<path d="M22.4451 24.9502C22.8363 24.9502 23.1796 24.7806 23.4271 24.5141H23.4511L23.523 24.8614H24.3293V21.1063L25 21.0579V20.4926H24.3293V20H23.3633V20.4926H22.0459V21.1063H23.3633V21.3001L23.3952 21.9462C23.1317 21.7039 22.9002 21.5747 22.485 21.5747C21.7505 21.5747 21 22.1884 21 23.2221C21 24.3365 21.5669 24.9502 22.4451 24.9502ZM22.6766 24.1588C22.2535 24.1588 21.998 23.8358 21.998 23.214C21.998 22.7052 22.3413 22.3822 22.7166 22.3822C22.9641 22.3822 23.1397 22.463 23.3633 22.6568V23.7793C23.1397 24.0538 22.9401 24.1588 22.6766 24.1588ZM24.6248 26V25.3782H21.1118V26H24.6248Z" fill="black"/>
</g>
<defs>
<clipPath id="clip0_3270_28703">
<rect width="32" height="32" fill="white"/>
</clipPath>
</defs>
</svg>
