<svg width="32" height="32" viewBox="0 0 32 32" fill="none" xmlns="http://www.w3.org/2000/svg">
<path d="M16 32C24.8366 32 32 24.8366 32 16C32 7.16344 24.8366 0 16 0C7.16344 0 0 7.16344 0 16C0 24.8366 7.16344 32 16 32Z" fill="white"/>
<path d="M6 24.4741V7.27087C6.0879 6.99913 6.17502 6.72825 6.3748 6.51026C6.71608 6.13789 7.14243 5.99948 7.63967 6C11.702 6.00448 15.7645 6.00254 19.8269 6.00254H20.4035C20.3881 6.04094 20.3671 6.0535 20.345 6.06366C19.997 6.224 19.639 6.36575 19.3024 6.54726C17.619 7.45498 16.3362 8.76837 15.4153 10.4386C15.3378 10.5791 15.2656 10.6501 15.0885 10.6489C13.7633 10.6397 12.438 10.6436 11.1127 10.6453C10.7818 10.6458 10.6473 10.7783 10.6471 11.1061C10.6458 14.1569 10.6459 17.2078 10.6468 20.2586C10.6468 20.3135 10.6629 20.3683 10.6722 20.4276C10.7153 20.4201 10.7376 20.4198 10.7568 20.4119C10.7916 20.3976 10.8249 20.3793 10.8583 20.3618C11.5373 20.0067 12.1243 19.5341 12.628 18.9593C13.5012 17.9627 14.0879 16.8091 14.4753 15.5489C14.7688 14.5943 15.0188 13.624 15.3596 12.6866C15.9103 11.1717 16.7705 9.84088 17.962 8.74419C19.7199 7.12617 21.8272 6.2846 24.1781 6.01558C24.7442 5.9508 25.21 6.18285 25.5288 6.65444C25.6526 6.83741 25.7115 7.06411 25.8 7.27087V24.4741C25.7256 24.7874 25.608 25.0758 25.3775 25.314C25.134 25.5656 24.831 25.6913 24.5016 25.7725H11.1285C11.1663 25.7534 11.2027 25.7307 11.242 25.7156C13.4703 24.8619 15.1764 23.407 16.3135 21.3013C16.3784 21.1812 16.4515 21.1504 16.5778 21.1507C17.9354 21.1542 19.2931 21.1527 20.6507 21.1519C21.0251 21.1517 21.1544 21.0201 21.1546 20.6416C21.1549 19.6571 21.1549 18.6727 21.1549 17.6883C21.155 15.6383 21.155 13.5883 21.1547 11.5383C21.1547 11.3261 21.1354 11.315 20.9486 11.4129C20.4031 11.6989 19.9156 12.0645 19.4813 12.4993C18.5301 13.4517 17.8779 14.5899 17.4598 15.8595C17.1525 16.7926 16.916 17.7494 16.5995 18.6792C16.0534 20.2831 15.2026 21.7089 13.9767 22.8935C12.4694 24.3501 10.6466 25.1903 8.61328 25.6086C8.27541 25.6781 7.93157 25.7186 7.59049 25.7725H7.29836C7.01503 25.6986 6.74523 25.6001 6.5187 25.4023C6.23377 25.1535 6.08563 24.8323 6 24.4741Z" fill="#014C93"/>
</svg>
