<?xml version="1.0" encoding="UTF-8"?>
<svg xmlns="http://www.w3.org/2000/svg" xmlns:xlink="http://www.w3.org/1999/xlink" width="32pt" height="32pt" viewBox="0 0 32 32" version="1.1">
<defs>
<clipPath id="clip1">
  <path d="M 16 32 C 24.835938 32 32 24.835938 32 16 C 32 7.164062 24.835938 0 16 0 C 7.164062 0 0 7.164062 0 16 C 0 24.835938 7.164062 32 16 32 Z M 16 32 "/>
</clipPath>
<clipPath id="clip2">
  <path d="M 4 5 L 28 5 L 28 27 L 4 27 Z M 4 5 "/>
</clipPath>
<clipPath id="clip3">
  <path d="M 18.324219 5 C 18.382812 5.011719 18.4375 5.03125 18.496094 5.035156 C 19.601562 5.125 20.667969 5.390625 21.683594 5.839844 C 23.746094 6.761719 25.335938 8.21875 26.527344 10.125 C 27.214844 11.226562 27.699219 12.40625 27.867188 13.707031 C 27.902344 13.964844 27.933594 14.222656 27.964844 14.480469 L 27.964844 16.171875 C 27.953125 16.238281 27.9375 16.300781 27.929688 16.363281 C 27.859375 16.855469 27.820312 17.355469 27.71875 17.839844 C 27.253906 20.070312 26.347656 22.070312 24.679688 23.671875 C 23.085938 25.207031 21.214844 26.167969 19.019531 26.488281 C 18.621094 26.546875 18.214844 26.589844 17.8125 26.640625 L 16.554688 26.640625 C 16.171875 26.589844 15.789062 26.550781 15.410156 26.484375 C 13.039062 26.070312 11.066406 24.933594 9.425781 23.1875 C 7.917969 21.585938 7.179688 19.644531 6.882812 17.511719 C 6.679688 16.054688 6.796875 14.613281 7.273438 13.222656 C 8.097656 10.816406 9.632812 9.015625 11.921875 7.882812 C 12.007812 7.839844 12.101562 7.808594 12.195312 7.773438 C 12.21875 7.765625 12.246094 7.765625 12.300781 7.757812 C 12.117188 7.980469 11.945312 8.175781 11.785156 8.375 C 10.683594 9.765625 9.945312 11.3125 9.738281 13.089844 C 9.511719 15.050781 9.945312 16.867188 10.988281 18.535156 C 11.992188 20.136719 13.332031 21.355469 15.136719 21.960938 C 17.492188 22.757812 19.84375 22.703125 22.042969 21.472656 C 23.792969 20.496094 25.140625 19.074219 25.808594 17.148438 C 26.640625 14.761719 26.527344 12.40625 25.308594 10.148438 C 24.714844 9.050781 23.847656 8.179688 22.925781 7.351562 C 21.898438 6.433594 20.683594 5.890625 19.40625 5.445312 C 18.980469 5.300781 18.554688 5.148438 18.128906 5 Z M 19.890625 8.574219 C 20.746094 8.613281 21.5 8.933594 22.160156 9.460938 C 23.378906 10.429688 24.3125 11.621094 24.671875 13.164062 C 25.28125 15.8125 24.539062 18.109375 22.667969 20.027344 C 21.996094 20.71875 21.097656 21.109375 20.179688 21.410156 C 19.066406 21.777344 17.933594 21.84375 16.785156 21.59375 C 16.710938 21.578125 16.640625 21.550781 16.542969 21.523438 C 16.910156 21.402344 17.253906 21.300781 17.582031 21.171875 C 18.21875 20.921875 18.796875 20.578125 19.210938 20.015625 C 19.855469 19.136719 19.96875 18.15625 19.738281 17.117188 C 19.585938 16.417969 19.203125 15.871094 18.664062 15.421875 C 18.347656 15.160156 18.023438 14.902344 17.679688 14.675781 C 16.835938 14.121094 16.382812 13.332031 16.269531 12.355469 C 16.132812 11.183594 16.421875 10.140625 17.359375 9.371094 C 18.085938 8.773438 18.953125 8.53125 19.890625 8.574219 Z M 10.960938 7.320312 C 11.125 7.402344 11.273438 7.511719 11.425781 7.613281 C 11.453125 7.628906 11.472656 7.652344 11.511719 7.691406 C 10.328125 7.976562 9.324219 8.519531 8.46875 9.34375 C 8.054688 9.742188 7.539062 9.980469 7 10.15625 C 6.191406 10.414062 5.367188 10.539062 4.523438 10.386719 C 4.34375 10.355469 4.175781 10.269531 4 10.210938 L 4.011719 10.144531 C 4.113281 10.113281 4.21875 10.074219 4.324219 10.058594 C 5.5 9.847656 6.402344 9.195312 7.136719 8.289062 C 7.464844 7.886719 7.796875 7.492188 8.261719 7.238281 C 9.175781 6.734375 10.074219 6.855469 10.960938 7.320312 Z M 10.960938 7.320312 "/>
</clipPath>
</defs>
<g id="surface1">
<g clip-path="url(#clip1)" clip-rule="evenodd">
<rect x="0" y="0" width="32" height="32" style="fill:rgb(100%,100%,100%);fill-opacity:1;stroke:none;"/>
</g>
<g clip-path="url(#clip2)" clip-rule="nonzero">
<g clip-path="url(#clip3)" clip-rule="nonzero">
<path style=" stroke:none;fill-rule:nonzero;fill:rgb(82.35321%,0%,6.274414%);fill-opacity:1;" d="M -1 0 L 32.964844 0 L 32.964844 31.640625 L -1 31.640625 Z M -1 0 "/>
</g>
</g>
</g>
</svg>
