<?xml version="1.0" encoding="UTF-8"?>
<svg xmlns="http://www.w3.org/2000/svg" xmlns:xlink="http://www.w3.org/1999/xlink" width="56pt" height="56pt" viewBox="0 0 56 56" version="1.1">
<defs>
<clipPath id="clip1">
  <path d="M 28 56 C 43.464844 56 56 43.464844 56 28 C 56 12.535156 43.464844 0 28 0 C 12.535156 0 0 12.535156 0 28 C 0 43.464844 12.535156 56 28 56 Z M 28 56 "/>
</clipPath>
<clipPath id="clip2">
  <path d="M 14 14 L 42 14 L 42 42 L 14 42 Z M 14 14 "/>
</clipPath>
<clipPath id="clip3">
  <path d="M 28 14.1875 C 35.628906 14.1875 41.8125 20.371094 41.8125 28 C 41.8125 35.628906 35.628906 41.8125 28 41.8125 C 20.371094 41.8125 14.1875 35.628906 14.1875 28 C 14.1875 20.371094 20.371094 14.1875 28 14.1875 Z M 28.015625 17.375 C 22.164062 17.363281 17.390625 22.117188 17.375 27.976562 C 17.359375 33.839844 22.128906 38.621094 27.996094 38.625 C 33.851562 38.628906 38.617188 33.871094 38.625 28.011719 C 38.632812 22.15625 33.878906 17.386719 28.015625 17.375 Z M 28 32.648438 L 30.167969 32.65625 C 30.269531 32.65625 30.394531 32.71875 30.460938 32.796875 C 30.832031 33.214844 31.191406 33.648438 31.542969 34.085938 C 31.589844 34.144531 31.609375 34.273438 31.578125 34.34375 C 31.207031 35.171875 30.828125 35.996094 30.4375 36.816406 C 30.398438 36.898438 30.292969 36.992188 30.207031 37.007812 C 29.453125 37.136719 28.699219 37.25 27.941406 37.367188 C 27.9375 37.339844 27.933594 37.316406 27.933594 37.292969 C 27.03125 37.292969 26.15625 37.140625 25.296875 36.878906 C 25.222656 36.855469 25.136719 36.773438 25.113281 36.699219 C 24.859375 35.9375 24.613281 35.167969 24.378906 34.398438 C 24.355469 34.320312 24.382812 34.191406 24.433594 34.128906 C 24.796875 33.671875 25.171875 33.21875 25.554688 32.777344 C 25.613281 32.707031 25.734375 32.65625 25.828125 32.652344 C 27.277344 32.648438 28.722656 32.644531 30.167969 32.65625 Z M 21 26.457031 C 21.660156 26.785156 22.296875 27.09375 22.929688 27.417969 C 22.996094 27.449219 23.0625 27.53125 23.085938 27.601562 C 23.574219 28.96875 24.0625 30.335938 24.535156 31.707031 C 24.5625 31.785156 24.539062 31.910156 24.488281 31.972656 C 24.132812 32.417969 23.769531 32.855469 23.398438 33.285156 C 23.335938 33.355469 23.210938 33.40625 23.117188 33.402344 C 22.234375 33.363281 21.351562 33.3125 20.46875 33.257812 C 20.398438 33.25 20.3125 33.191406 20.269531 33.132812 C 19.4375 31.890625 18.9375 30.527344 18.769531 29.039062 C 18.761719 28.972656 18.78125 28.878906 18.824219 28.828125 C 19.542969 28.039062 20.265625 27.257812 21 26.457031 Z M 34.851562 26.535156 C 34.984375 26.46875 35.054688 26.488281 35.152344 26.59375 C 35.8125 27.328125 36.480469 28.058594 37.140625 28.789062 C 37.191406 28.84375 37.222656 28.910156 37.269531 28.984375 C 37.171875 29.464844 37.09375 29.941406 36.972656 30.40625 C 36.773438 31.164062 36.476562 31.886719 36.074219 32.5625 C 36.023438 32.648438 35.90625 32.726562 35.808594 32.746094 C 34.832031 32.949219 33.847656 33.148438 32.863281 33.332031 C 32.777344 33.347656 32.644531 33.300781 32.589844 33.234375 C 32.222656 32.820312 31.867188 32.398438 31.519531 31.96875 C 31.46875 31.90625 31.449219 31.777344 31.476562 31.703125 C 31.953125 30.339844 32.4375 28.980469 32.929688 27.625 C 32.964844 27.53125 33.050781 27.4375 33.136719 27.394531 C 33.707031 27.101562 34.285156 26.828125 34.851562 26.535156 Z M 24.445312 19.433594 C 24.539062 19.394531 24.683594 19.398438 24.769531 19.445312 C 25.574219 19.863281 26.371094 20.304688 27.171875 20.726562 C 27.300781 20.796875 27.351562 20.875 27.347656 21.019531 C 27.335938 21.390625 27.34375 21.761719 27.34375 22.132812 C 27.34375 22.507812 27.351562 22.878906 27.335938 23.25 C 27.332031 23.339844 27.277344 23.464844 27.207031 23.515625 C 26.023438 24.386719 24.835938 25.253906 23.640625 26.109375 C 23.578125 26.15625 23.449219 26.167969 23.375 26.132812 C 22.769531 25.851562 22.164062 25.554688 21.566406 25.253906 C 21.492188 25.214844 21.410156 25.121094 21.394531 25.035156 C 21.1875 24.136719 20.992188 23.234375 20.804688 22.328125 C 20.785156 22.238281 20.824219 22.105469 20.886719 22.035156 C 21.871094 20.894531 23.039062 19.996094 24.445312 19.433594 Z M 31.261719 19.4375 C 31.335938 19.398438 31.460938 19.390625 31.539062 19.421875 C 32.933594 20.003906 34.125 20.863281 35.105469 22.015625 C 35.207031 22.136719 35.238281 22.246094 35.207031 22.398438 C 35.007812 23.273438 34.824219 24.15625 34.625 25.03125 C 34.605469 25.113281 34.527344 25.210938 34.449219 25.25 C 33.851562 25.554688 33.25 25.851562 32.644531 26.136719 C 32.574219 26.167969 32.441406 26.152344 32.378906 26.109375 C 31.179688 25.246094 29.988281 24.378906 28.796875 23.503906 C 28.730469 23.453125 28.679688 23.339844 28.679688 23.253906 C 28.664062 22.875 28.671875 22.496094 28.671875 22.117188 C 28.671875 21.746094 28.664062 21.375 28.679688 21.003906 C 28.683594 20.917969 28.75 20.792969 28.824219 20.753906 C 29.632812 20.304688 30.445312 19.867188 31.261719 19.4375 Z M 31.261719 19.4375 "/>
</clipPath>
</defs>
<g id="surface1">
<g clip-path="url(#clip1)" clip-rule="evenodd">
<rect x="0" y="0" width="56" height="56" style="fill:rgb(94.902039%,0%,0%);fill-opacity:0.5;stroke:none;"/>
</g>
<g clip-path="url(#clip2)" clip-rule="nonzero">
<g clip-path="url(#clip3)" clip-rule="evenodd">
<path style=" stroke:none;fill-rule:nonzero;fill:rgb(100%,100%,100%);fill-opacity:1;" d="M 9.1875 9.1875 L 46.8125 9.1875 L 46.8125 46.8125 L 9.1875 46.8125 Z M 9.1875 9.1875 "/>
</g>
</g>
</g>
</svg>
