<svg width="48" height="48" viewBox="0 0 48 48" fill="none" xmlns="http://www.w3.org/2000/svg">
<path fill-rule="evenodd" clip-rule="evenodd" d="M41.0625 9C43.2371 9 45 10.7629 45 12.9375V34.0625C45 36.2371 43.2371 38 41.0625 38H6.9375C4.76288 38 3 36.2371 3 34.0625V12.9375C3 10.7629 4.76288 9 6.9375 9H41.0625ZM22.096 15.5909C21.6311 15.5909 21.2326 15.669 20.9006 15.8252C20.5685 15.9813 20.2896 16.1933 20.0637 16.461C19.8379 16.7287 19.6719 17.0411 19.5656 17.3981C19.4594 17.755 19.4062 18.1343 19.4062 18.5359C19.4062 18.7144 19.4096 18.9635 19.4162 19.2833C19.4229 19.6031 19.4395 19.8597 19.466 20.053H20.7412C20.781 19.8002 20.8441 19.6031 20.9304 19.4618C21.0168 19.3205 21.1164 19.2164 21.2293 19.1494C21.3422 19.0825 21.4717 19.0416 21.6178 19.0267C21.7639 19.0119 21.9167 19.0044 22.0761 19.0044C22.355 19.0044 22.6273 19.0416 22.893 19.116C23.1586 19.1903 23.4276 19.2722 23.6999 19.3614C23.9722 19.4506 24.2511 19.5324 24.5367 19.6068C24.8223 19.6812 25.1245 19.7184 25.4433 19.7184C25.7488 19.7184 26.0476 19.6849 26.3398 19.618C26.6234 19.553 26.9508 19.4355 27.3219 19.2655L27.3555 19.2501C26.5587 19.726 25.7785 20.2725 25.0149 20.8897C24.2511 21.5069 23.5704 22.206 22.9727 22.9869C22.3749 23.7677 21.8934 24.6267 21.5282 25.5637C21.1629 26.5008 20.9803 27.5196 20.9803 28.6203C20.9803 29.4681 21.1994 30.1448 21.6377 30.6505C22.0761 31.1562 22.7801 31.4091 23.7497 31.4091C24.2412 31.4091 24.6529 31.3496 24.985 31.2306C25.3171 31.1116 25.5827 30.948 25.782 30.7398C25.9812 30.5315 26.1207 30.2861 26.2004 30.0035C26.2801 29.7209 26.3199 29.4086 26.3199 29.0665C26.3199 28.6798 26.3 28.2968 26.2601 27.9175C26.2203 27.5382 26.2004 27.1775 26.2004 26.8354C26.2004 25.8984 26.2303 25.0803 26.29 24.3813C26.3498 23.6822 26.4992 22.9906 26.7383 22.3064C26.9774 21.6222 27.346 20.8971 27.8441 20.1311C28.3422 19.3651 29.0296 18.4467 29.9062 17.3758L29.1292 15.9033C29.0229 16.0817 28.9266 16.2305 28.8403 16.3495C28.754 16.4685 28.6676 16.5614 28.5813 16.6283C28.495 16.6953 28.392 16.7399 28.2725 16.7622C28.1529 16.7845 28.0002 16.7957 27.8142 16.7957C27.2696 16.7957 26.8213 16.7325 26.4693 16.606C26.1173 16.4796 25.7521 16.342 25.3735 16.1933C24.995 16.0446 24.56 15.907 24.0685 15.7805C23.577 15.6541 22.9195 15.5909 22.096 15.5909ZM9.62725 15.5909C9.16236 15.5909 8.76388 15.669 8.43181 15.8252C8.09974 15.9813 7.8208 16.1933 7.595 16.461C7.36919 16.7287 7.20316 17.0411 7.09689 17.3981C6.99063 17.755 6.9375 18.1343 6.9375 18.5359C6.9375 18.7144 6.94082 18.9635 6.94746 19.2833C6.9541 19.6031 6.97071 19.8597 6.99727 20.053H8.27241C8.31226 19.8002 8.37536 19.6031 8.46169 19.4618C8.54803 19.3205 8.64765 19.2164 8.76056 19.1494C8.87346 19.0825 9.00296 19.0416 9.14907 19.0267C9.29519 19.0119 9.44794 19.0044 9.60733 19.0044C9.88627 19.0044 10.1586 19.0416 10.4242 19.116C10.6899 19.1903 10.9588 19.2722 11.2311 19.3614C11.5034 19.4506 11.7824 19.5324 12.068 19.6068C12.3535 19.6812 12.6557 19.7184 12.9745 19.7184C13.28 19.7184 13.5789 19.6849 13.8711 19.618C14.1547 19.553 14.482 19.4355 14.8531 19.2655L14.8868 19.2501C14.09 19.726 13.3098 20.2725 12.5461 20.8897C11.7824 21.5069 11.1016 22.206 10.5039 22.9869C9.90619 23.7677 9.42469 24.6267 9.05942 25.5637C8.69414 26.5008 8.5115 27.5196 8.5115 28.6203C8.5115 29.4681 8.73067 30.1448 9.169 30.6505C9.60733 31.1562 10.3113 31.4091 11.281 31.4091C11.7724 31.4091 12.1842 31.3496 12.5162 31.2306C12.8483 31.1116 13.114 30.948 13.3132 30.7398C13.5125 30.5315 13.6519 30.2861 13.7316 30.0035C13.8113 29.7209 13.8512 29.4086 13.8512 29.0665C13.8512 28.6798 13.8312 28.2968 13.7914 27.9175C13.7515 27.5382 13.7316 27.1775 13.7316 26.8354C13.7316 25.8984 13.7615 25.0803 13.8213 24.3813C13.881 23.6822 14.0305 22.9906 14.2696 22.3064C14.5087 21.6222 14.8773 20.8971 15.3754 20.1311C15.8735 19.3651 16.5608 18.4467 17.4375 17.3758L16.6605 15.9033C16.5542 16.0817 16.4579 16.2305 16.3716 16.3495C16.2852 16.4685 16.1989 16.5614 16.1125 16.6283C16.0262 16.6953 15.9233 16.7399 15.8037 16.7622C15.6842 16.7845 15.5314 16.7957 15.3455 16.7957C14.8009 16.7957 14.3526 16.7325 14.0006 16.606C13.6486 16.4796 13.2833 16.342 12.9048 16.1933C12.5262 16.0446 12.0912 15.907 11.5997 15.7805C11.1083 15.6541 10.4508 15.5909 9.62725 15.5909ZM34.5648 15.5909C34.0999 15.5909 33.7014 15.669 33.3693 15.8252C33.0372 15.9813 32.7583 16.1933 32.5325 16.461C32.3067 16.7287 32.1407 17.0411 32.0344 17.3981C31.9281 17.755 31.875 18.1343 31.875 18.5359C31.875 18.7144 31.8783 18.9635 31.885 19.2833C31.8916 19.6031 31.9082 19.8597 31.9348 20.053H33.2099C33.2498 19.8002 33.3129 19.6031 33.3992 19.4618C33.4855 19.3205 33.5852 19.2164 33.6981 19.1494C33.811 19.0825 33.9405 19.0416 34.0866 19.0267C34.2327 19.0119 34.3854 19.0044 34.5448 19.0044C34.8238 19.0044 35.0961 19.0416 35.3617 19.116C35.6274 19.1903 35.8963 19.2722 36.1686 19.3614C36.4409 19.4506 36.7199 19.5324 37.0055 19.6068C37.291 19.6812 37.5932 19.7184 37.912 19.7184C38.2175 19.7184 38.5164 19.6849 38.8086 19.618C39.0922 19.553 39.4195 19.4355 39.7906 19.2655L39.8243 19.2501C39.0275 19.726 38.2473 20.2725 37.4836 20.8897C36.7199 21.5069 36.0391 22.206 35.4414 22.9869C34.8437 23.7677 34.3622 24.6267 33.9969 25.5637C33.6316 26.5008 33.449 27.5196 33.449 28.6203C33.449 29.4681 33.6682 30.1448 34.1065 30.6505C34.5448 31.1562 35.2488 31.4091 36.2185 31.4091C36.7099 31.4091 37.1217 31.3496 37.4537 31.2306C37.7858 31.1116 38.0515 30.948 38.2507 30.7398C38.45 30.5315 38.5894 30.2861 38.6691 30.0035C38.7488 29.7209 38.7887 29.4086 38.7887 29.0665C38.7887 28.6798 38.7687 28.2968 38.7289 27.9175C38.689 27.5382 38.6691 27.1775 38.6691 26.8354C38.6691 25.8984 38.699 25.0803 38.7588 24.3813C38.8186 23.6822 38.968 22.9906 39.2071 22.3064C39.4462 21.6222 39.8148 20.8971 40.3129 20.1311C40.811 19.3651 41.4983 18.4467 42.375 17.3758L41.598 15.9033C41.4917 16.0817 41.3954 16.2305 41.3091 16.3495C41.2227 16.4685 41.1364 16.5614 41.05 16.6283C40.9637 16.6953 40.8608 16.7399 40.7412 16.7622C40.6217 16.7845 40.4689 16.7957 40.283 16.7957C39.7384 16.7957 39.2901 16.7325 38.9381 16.606C38.5861 16.4796 38.2208 16.342 37.8423 16.1933C37.4637 16.0446 37.0287 15.907 36.5372 15.7805C36.0458 15.6541 35.3883 15.5909 34.5648 15.5909Z" fill="white"/>
</svg>
