<?xml version="1.0" encoding="UTF-8"?>
<svg xmlns="http://www.w3.org/2000/svg" xmlns:xlink="http://www.w3.org/1999/xlink" width="136pt" height="77pt" viewBox="0 0 136 77" version="1.1">
<g id="surface1">
<path style=" stroke:none;fill-rule:nonzero;fill:rgb(34.901428%,34.901428%,34.901428%);fill-opacity:1;" d="M 100 0.0742188 L 47.269531 0.0742188 C 41.757812 0.0742188 37.273438 4.5625 37.273438 10.074219 L 37.273438 42.34375 C 37.273438 47.847656 41.738281 52.324219 47.234375 52.34375 L 100 52.34375 C 105.515625 52.34375 110 47.855469 110 42.34375 L 110 10.074219 C 110 4.5625 105.515625 0.0742188 100 0.0742188 Z M 105.738281 42.34375 C 105.738281 45.507812 103.164062 48.082031 100 48.082031 L 47.269531 48.082031 C 44.109375 48.082031 41.535156 45.507812 41.535156 42.34375 L 41.535156 10.074219 C 41.535156 6.910156 44.109375 4.335938 47.269531 4.335938 L 100 4.335938 C 103.164062 4.335938 105.738281 6.910156 105.738281 10.074219 Z M 105.738281 42.34375 "/>
<path style=" stroke:none;fill-rule:evenodd;fill:rgb(18.823242%,18.823242%,18.823242%);fill-opacity:1;" d="M 105.738281 42.34375 C 105.738281 45.507812 103.164062 48.082031 100 48.082031 L 47.269531 48.082031 C 44.109375 48.082031 41.535156 45.507812 41.535156 42.34375 L 41.535156 10.074219 C 41.535156 6.910156 44.109375 4.335938 47.269531 4.335938 L 100 4.335938 C 103.164062 4.335938 105.738281 6.910156 105.738281 10.074219 Z M 105.738281 42.34375 "/>
<path style=" stroke:none;fill-rule:nonzero;fill:rgb(34.901428%,34.901428%,34.901428%);fill-opacity:1;" d="M 90.730469 9.347656 L 38 9.347656 C 32.484375 9.347656 28 13.832031 28 19.347656 L 28 51.617188 C 28 57.117188 32.464844 61.597656 37.964844 61.617188 L 37.964844 76.257812 L 59.007812 61.617188 L 90.730469 61.617188 C 96.242188 61.617188 100.726562 57.128906 100.726562 51.617188 L 100.726562 19.347656 C 100.726562 13.832031 96.242188 9.347656 90.730469 9.347656 Z M 96.464844 51.617188 C 96.464844 54.78125 93.890625 57.355469 90.730469 57.355469 L 57.671875 57.355469 L 42.222656 68.101562 L 42.222656 57.355469 L 38 57.355469 C 34.835938 57.355469 32.261719 54.78125 32.261719 51.617188 L 32.261719 19.347656 C 32.261719 16.183594 34.835938 13.609375 38 13.609375 L 90.730469 13.609375 C 93.890625 13.609375 96.464844 16.183594 96.464844 19.347656 Z M 96.464844 51.617188 "/>
<path style=" stroke:none;fill-rule:evenodd;fill:rgb(7.450867%,7.843018%,8.235168%);fill-opacity:1;" d="M 96.464844 51.617188 C 96.464844 54.78125 93.890625 57.355469 90.730469 57.355469 L 57.671875 57.355469 L 42.222656 68.101562 L 42.222656 57.355469 L 38 57.355469 C 34.835938 57.355469 32.261719 54.78125 32.261719 51.617188 L 32.261719 19.347656 C 32.261719 16.183594 34.835938 13.609375 38 13.609375 L 90.730469 13.609375 C 93.890625 13.609375 96.464844 16.183594 96.464844 19.347656 Z M 96.464844 51.617188 "/>
<path style=" stroke:none;fill-rule:nonzero;fill:rgb(34.901428%,34.901428%,34.901428%);fill-opacity:1;" d="M 47.464844 24.40625 L 81.261719 24.40625 L 81.261719 28.667969 L 47.464844 28.667969 Z M 47.464844 24.40625 "/>
<path style=" stroke:none;fill-rule:nonzero;fill:rgb(34.901428%,34.901428%,34.901428%);fill-opacity:1;" d="M 47.464844 33.496094 L 81.261719 33.496094 L 81.261719 37.757812 L 47.464844 37.757812 Z M 47.464844 33.496094 "/>
<path style=" stroke:none;fill-rule:nonzero;fill:rgb(34.901428%,34.901428%,34.901428%);fill-opacity:1;" d="M 47 43 L 80.796875 43 L 80.796875 47.261719 L 47 47.261719 Z M 47 43 "/>
<path style=" stroke:none;fill-rule:evenodd;fill:rgb(34.901428%,34.901428%,34.901428%);fill-opacity:1;" d="M 131.636719 14.675781 L 124.566406 21.746094 C 123.785156 22.527344 122.519531 22.527344 121.738281 21.746094 L 121.03125 21.039062 C 120.25 20.257812 120.25 18.992188 121.03125 18.210938 L 128.101562 11.140625 C 128.882812 10.359375 130.148438 10.359375 130.929688 11.140625 L 131.636719 11.847656 C 132.417969 12.628906 132.417969 13.894531 131.636719 14.675781 Z M 131.636719 53.039062 L 130.929688 53.746094 C 130.148438 54.527344 128.882812 54.527344 128.101562 53.746094 L 121.03125 46.675781 C 120.25 45.894531 120.25 44.628906 121.03125 43.847656 L 121.738281 43.140625 C 122.519531 42.359375 123.785156 42.359375 124.566406 43.140625 L 131.636719 50.210938 C 132.417969 50.992188 132.417969 52.257812 131.636719 53.039062 Z M 135.332031 32.945312 C 135.332031 34.050781 134.4375 34.945312 133.332031 34.945312 L 123.332031 34.945312 C 122.230469 34.945312 121.332031 34.050781 121.332031 32.945312 L 121.332031 31.945312 C 121.332031 30.839844 122.230469 29.945312 123.332031 29.945312 L 133.332031 29.945312 C 134.4375 29.945312 135.332031 30.839844 135.332031 31.945312 Z M 135.332031 32.945312 "/>
<path style=" stroke:none;fill-rule:evenodd;fill:rgb(34.901428%,34.901428%,34.901428%);fill-opacity:1;" d="M 4.140625 14.675781 L 11.210938 21.746094 C 11.992188 22.527344 13.257812 22.527344 14.039062 21.746094 L 14.746094 21.039062 C 15.527344 20.257812 15.527344 18.992188 14.746094 18.210938 L 7.675781 11.140625 C 6.894531 10.359375 5.628906 10.359375 4.847656 11.140625 L 4.140625 11.847656 C 3.359375 12.628906 3.359375 13.894531 4.140625 14.675781 Z M 4.140625 53.039062 L 4.847656 53.746094 C 5.628906 54.527344 6.894531 54.527344 7.675781 53.746094 L 14.746094 46.675781 C 15.527344 45.894531 15.527344 44.628906 14.746094 43.847656 L 14.039062 43.140625 C 13.257812 42.359375 11.992188 42.359375 11.210938 43.140625 L 4.140625 50.210938 C 3.359375 50.992188 3.359375 52.257812 4.140625 53.039062 Z M 0.445312 32.945312 C 0.445312 34.050781 1.339844 34.945312 2.445312 34.945312 L 12.445312 34.945312 C 13.550781 34.945312 14.445312 34.050781 14.445312 32.945312 L 14.445312 31.945312 C 14.445312 30.839844 13.550781 29.945312 12.445312 29.945312 L 2.445312 29.945312 C 1.339844 29.945312 0.445312 30.839844 0.445312 31.945312 Z M 0.445312 32.945312 "/>
</g>
</svg>
