<?xml version="1.0" encoding="UTF-8"?>
<svg xmlns="http://www.w3.org/2000/svg" xmlns:xlink="http://www.w3.org/1999/xlink" width="32pt" height="32pt" viewBox="0 0 32 32" version="1.1">
<defs>
<clipPath id="clip1">
  <path d="M 16 32 C 24.835938 32 32 24.835938 32 16 C 32 7.164062 24.835938 0 16 0 C 7.164062 0 0 7.164062 0 16 C 0 24.835938 7.164062 32 16 32 Z M 16 32 "/>
</clipPath>
<clipPath id="clip2">
  <path d="M 4 4 L 28 4 L 28 28 L 4 28 Z M 4 4 "/>
</clipPath>
<clipPath id="clip3">
  <path d="M 15.117188 16.660156 C 15.789062 17.230469 16.378906 17.894531 17.058594 18.449219 C 19.625 20.546875 22.523438 21.003906 25.667969 20.097656 C 26.183594 19.945312 26.683594 19.734375 27.234375 19.535156 C 26.953125 20.460938 26.589844 21.324219 26.089844 22.121094 C 23.578125 26.105469 19.957031 28.125 15.246094 27.988281 C 11.851562 27.890625 9.019531 26.457031 6.738281 23.9375 C 6.597656 23.78125 6.625 23.679688 6.726562 23.523438 C 7.871094 21.800781 9.707031 21.175781 11.757812 21.820312 C 12.792969 22.144531 13.675781 22.742188 14.589844 23.304688 C 16.0625 24.207031 17.660156 24.734375 19.425781 24.542969 C 19.996094 24.480469 20.519531 24.277344 20.992188 23.933594 C 20.394531 23.792969 19.808594 23.695312 19.25 23.519531 C 17.480469 22.964844 16.007812 21.9375 14.757812 20.582031 C 13.785156 19.523438 12.613281 18.804688 11.199219 18.535156 C 9.679688 18.246094 8.289062 18.628906 7.082031 19.5625 C 6.433594 20.0625 5.882812 20.6875 5.289062 21.257812 C 5.226562 21.320312 5.167969 21.394531 5.066406 21.507812 C 4.890625 21.101562 4.703125 20.742188 4.570312 20.363281 C 4.367188 19.761719 4.207031 19.148438 4.019531 18.542969 C 3.96875 18.367188 4.015625 18.238281 4.144531 18.113281 C 5.84375 16.4375 7.824219 15.3125 10.226562 15.074219 C 12.074219 14.890625 13.707031 15.46875 15.117188 16.660156 Z M 25.019531 8.410156 C 25.15625 8.566406 25.09375 8.671875 25.011719 8.804688 C 23.929688 10.535156 22.042969 11.242188 20.050781 10.664062 C 18.972656 10.351562 18.046875 9.75 17.101562 9.164062 C 15.644531 8.253906 14.050781 7.71875 12.300781 7.914062 C 11.832031 7.964844 11.386719 8.195312 10.933594 8.355469 C 10.84375 8.386719 10.765625 8.464844 10.730469 8.488281 C 11.492188 8.707031 12.28125 8.875 13.027344 9.152344 C 14.621094 9.75 15.898438 10.800781 17.070312 12.019531 C 18.441406 13.449219 20.101562 14.253906 22.144531 13.96875 C 23.464844 13.785156 24.527344 13.085938 25.464844 12.179688 C 25.792969 11.867188 26.082031 11.515625 26.390625 11.179688 C 26.457031 11.105469 26.519531 11.023438 26.609375 10.917969 C 27.078125 11.925781 27.410156 12.925781 27.566406 13.980469 C 27.578125 14.042969 27.523438 14.144531 27.46875 14.179688 C 26.230469 14.980469 25.015625 15.832031 23.734375 16.5625 C 21.628906 17.757812 19.527344 17.601562 17.476562 16.363281 C 16.132812 15.550781 14.917969 14.5625 13.765625 13.507812 C 11.851562 11.761719 9.644531 11.382812 7.207031 11.976562 C 6.675781 12.105469 6.148438 12.28125 5.640625 12.480469 C 5.128906 12.679688 4.644531 12.9375 4.097656 13.191406 C 4.195312 12.855469 4.265625 12.539062 4.378906 12.234375 C 6.140625 7.535156 9.488281 4.726562 14.484375 4.144531 C 18.710938 3.65625 22.230469 5.199219 25.019531 8.410156 Z M 25.019531 8.410156 "/>
</clipPath>
</defs>
<g id="surface1">
<g clip-path="url(#clip1)" clip-rule="evenodd">
<rect x="0" y="0" width="32" height="32" style="fill:rgb(100%,100%,100%);fill-opacity:1;stroke:none;"/>
</g>
<g clip-path="url(#clip2)" clip-rule="nonzero">
<g clip-path="url(#clip3)" clip-rule="nonzero">
<rect x="0" y="0" width="32" height="32" style="fill:rgb(15.293884%,35.68573%,74.118042%);fill-opacity:1;stroke:none;"/>
</g>
</g>
</g>
</svg>
